<svg width="40" height="40" viewBox="0 0 40 40" fill="none" xmlns="http://www.w3.org/2000/svg">
<path d="M9.625 16.7147L16.8821 5.11473C17.1634 4.65624 17.5586 4.27841 18.0293 4.01804C18.4999 3.75767 19.03 3.62365 19.5679 3.62902V3.62902C19.9915 3.61373 20.4138 3.68351 20.81 3.83424C21.2062 3.98497 21.5681 4.21358 21.8744 4.50657C22.1807 4.79957 22.4252 5.15099 22.5934 5.54008C22.7616 5.92916 22.85 6.34801 22.8536 6.77187V15.0862H35.3964C35.8599 15.1012 36.3149 15.2142 36.7316 15.4176C37.1483 15.6211 37.5172 15.9105 37.8141 16.2667C38.1109 16.6229 38.329 17.038 38.454 17.4845C38.579 17.9311 38.6081 18.399 38.5393 18.8576L36.2536 33.6004C36.1561 34.3883 35.7742 35.1135 35.1796 35.6396C34.5851 36.1658 33.8189 36.4566 33.025 36.4576H14.2821C13.3899 36.4611 12.5093 36.2556 11.7107 35.8576L9.65357 34.829" stroke="white" stroke-width="2.0339" stroke-linecap="round" stroke-linejoin="round"/>
<path d="M9.625 16.7148V34.7434" stroke="white" stroke-width="2.0339" stroke-linecap="round" stroke-linejoin="round"/>
<path d="M2.85631 16.7148H9.62773V34.7434H2.85631C2.47743 34.7434 2.11406 34.5929 1.84615 34.325C1.57824 34.0571 1.42773 33.6937 1.42773 33.3148V18.1434C1.42773 17.7645 1.57824 17.4012 1.84615 17.1333C2.11406 16.8654 2.47743 16.7148 2.85631 16.7148V16.7148Z" stroke="white" stroke-width="2.0339" stroke-linecap="round" stroke-linejoin="round"/>
</svg>
