<svg width="20" height="20" viewBox="0 0 20 20" fill="none" xmlns="http://www.w3.org/2000/svg">
<g clip-path="url(#clip0_277_6535)">
<path d="M0.714138 0.714844H4.28557L5.52842 13.072C5.58008 13.4126 5.75311 13.7231 6.01563 13.9463C6.27815 14.1694 6.61247 14.2902 6.957 14.2863H15.957C16.2685 14.3025 16.5768 14.2164 16.8348 14.041C17.0927 13.8656 17.2862 13.6105 17.3856 13.3148L19.2856 7.60056C19.3564 7.38572 19.3752 7.15713 19.3404 6.93361C19.3057 6.71008 19.2183 6.49801 19.0856 6.31484C18.9473 6.1201 18.7623 5.96314 18.5477 5.85832C18.3331 5.7535 18.0956 5.70417 17.857 5.71484H4.78557" stroke="white" stroke-width="1.42857" stroke-linecap="round" stroke-linejoin="round"/>
<path d="M15.7134 19.286C15.319 19.286 14.9992 18.9662 14.9992 18.5717C14.9992 18.1772 15.319 17.8574 15.7134 17.8574C16.1079 17.8574 16.4277 18.1772 16.4277 18.5717C16.4277 18.9662 16.1079 19.286 15.7134 19.286Z" stroke="white" stroke-width="1.42857" stroke-linecap="round" stroke-linejoin="round"/>
<path d="M6.42829 19.286C6.0338 19.286 5.71401 18.9662 5.71401 18.5717C5.71401 18.1772 6.0338 17.8574 6.42829 17.8574C6.82278 17.8574 7.14258 18.1772 7.14258 18.5717C7.14258 18.9662 6.82278 19.286 6.42829 19.286Z" stroke="white" stroke-width="1.42857" stroke-linecap="round" stroke-linejoin="round"/>
<path fill-rule="evenodd" clip-rule="evenodd" d="M12.4277 10.4277V13H11.4277V10.4277H9V9.42773H11.4277V7H12.4277V9.42773H15V10.4277H12.4277Z" fill="white"/>
</g>
<defs>
<clipPath id="clip0_277_6535">
<rect width="20" height="20" fill="white" transform="matrix(-1 0 0 1 20 0)"/>
</clipPath>
</defs>
</svg>
