<svg width="25" height="25" viewBox="0 0 25 25" fill="none" xmlns="http://www.w3.org/2000/svg">
<path d="M24.1068 0.892578H19.6426L18.089 16.339C18.0244 16.7648 17.8081 17.1529 17.48 17.4319C17.1518 17.7108 16.7339 17.8617 16.3033 17.8569H5.05327C4.66386 17.8772 4.27851 17.7695 3.95606 17.5502C3.63362 17.331 3.3918 17.0122 3.26755 16.6426L0.892554 9.49972C0.804003 9.23118 0.780492 8.94544 0.823955 8.66603C0.867419 8.38663 0.976614 8.12154 1.14255 7.89258C1.31543 7.64915 1.54658 7.45295 1.81486 7.32192C2.08314 7.1909 2.38 7.12924 2.67827 7.14258H19.0176" stroke="#121212" stroke-width="1.42857" stroke-linecap="round" stroke-linejoin="round"/>
<path d="M5.3577 24.106C5.85081 24.106 6.25056 23.7063 6.25056 23.2132C6.25056 22.7201 5.85081 22.3203 5.3577 22.3203C4.86459 22.3203 4.46484 22.7201 4.46484 23.2132C4.46484 23.7063 4.86459 24.106 5.3577 24.106Z" stroke="#121212" stroke-width="1.42857" stroke-linecap="round" stroke-linejoin="round"/>
<path d="M16.9632 24.106C17.4563 24.106 17.856 23.7063 17.856 23.2132C17.856 22.7201 17.4563 22.3203 16.9632 22.3203C16.4701 22.3203 16.0703 22.7201 16.0703 23.2132C16.0703 23.7063 16.4701 24.106 16.9632 24.106Z" stroke="#121212" stroke-width="1.42857" stroke-linecap="round" stroke-linejoin="round"/>
</svg>
