<svg width="113" height="32" viewBox="0 0 113 32" fill="none" xmlns="http://www.w3.org/2000/svg">
<path fill-rule="evenodd" clip-rule="evenodd" d="M17.2236 23.8816H12.3359C4.71194 23.8816 10.2508 7.62259 16.6694 7.62259H24.3917C25.6295 7.62259 27.8125 7.85123 28.888 4.77641L30.5497 0H19.9604C14.2258 0 9.76198 2.02809 6.53643 5.4308C0.964646 11.2539 -0.924767 20.3485 0.410903 24.6992C1.68164 28.7234 5.13537 31.3729 10.5439 31.4383L14.7471 31.4713H19.9279L21.1986 27.6437C22.1434 24.9283 20.0253 23.8816 17.2236 23.8816ZM76.7184 17.1425L78.3152 11.9408H61.2748C58.4402 11.9408 57.1694 12.726 56.6806 14.3617L55.0838 19.5634H72.1248C74.9593 19.5634 76.2301 18.7782 76.7184 17.1425ZM52.5428 26.3025L50.946 31.5037H67.9865C70.7886 31.5037 72.0918 30.719 72.5806 29.0833L74.1774 23.8816H57.1365C54.3348 23.8816 53.0641 24.6667 52.5428 26.3025ZM80.6939 5.23415L82.2902 0.0329276H65.2498C62.4152 0.0329276 61.1444 0.817631 60.6556 2.45336L59.0588 7.65505H76.0998C78.9019 7.65505 80.1722 6.86988 80.6939 5.23415ZM54.9535 6.28136C54.237 1.43956 51.663 0.0329276 45.4072 0.0329276H34.0034L27.3566 19.5634H31.5598C34.0684 19.5634 35.3391 19.5958 36.6753 15.9974L39.4444 7.62259H43.6801C47.2971 7.62259 46.4822 12.1699 44.6577 16.586C43.0285 20.4793 40.1939 23.914 36.7726 23.914H29.7024C26.8678 23.914 25.5646 24.6992 25.0433 26.3349L23.2838 31.5366H28.4641L33.5471 31.5037C38.0434 31.4712 41.7253 31.1443 46.0263 27.2509C50.5875 23.0964 55.8662 12.4315 54.9535 6.28136ZM112.233 0H102.361L93.0748 9.91224C91.9998 11.0573 90.8918 12.2024 89.8168 13.5436H89.719L94.3456 0H86.2977L75.4482 31.5037H83.4956L86.9493 21.5915L90.5333 18.5491L93.3684 27.5129C94.2477 30.2937 95.1604 31.5037 97.1152 31.5037H103.273L96.9524 13.9035L112.233 0Z" fill="#00B33C"/>
</svg>
