<svg width="930" height="1029" viewBox="0 0 930 1029" fill="none" xmlns="http://www.w3.org/2000/svg">
<path d="M-24.662 650.846C-52.2718 825.167 -47.8898 987.616 -18.5035 1109.33C-3.81012 1170.19 17.1285 1220.84 43.4239 1257.7C69.7177 1294.56 101.342 1317.59 137.414 1323.3C173.486 1329.01 210.68 1316.88 247.076 1289.95C283.474 1263.03 319.04 1221.32 351.82 1167.98C417.381 1061.31 471.747 908.164 499.357 733.842C526.967 559.52 522.585 397.072 493.199 275.357C478.505 214.497 457.567 163.847 431.272 126.989C404.978 90.1325 373.353 67.0993 337.282 61.3861C301.21 55.6729 264.016 67.8063 227.62 94.7334C191.221 121.662 155.656 163.363 122.875 216.703C57.3147 323.381 2.94788 476.524 -24.662 650.846Z" stroke="url(#paint0_linear_294_16113)" stroke-opacity="0.3"/>
<path d="M-25.344 655.427C-49.9073 830.204 -42.6908 992.551 -11.1848 1113.74C4.56855 1174.33 26.388 1224.61 53.3225 1261C80.2556 1297.39 112.277 1319.87 148.443 1324.95C184.609 1330.04 221.586 1317.25 257.506 1289.7C293.429 1262.14 328.262 1219.82 360.106 1165.92C423.795 1058.11 475.481 904.043 500.044 729.266C524.607 554.489 517.391 392.142 485.885 270.957C470.131 210.364 448.312 160.087 421.377 123.693C394.444 87.3012 362.423 64.8235 326.257 59.7407C290.091 54.6579 253.114 67.4386 217.194 94.9968C181.271 122.556 146.438 164.872 114.594 218.776C50.9051 326.582 -0.780646 480.65 -25.344 655.427Z" stroke="url(#paint1_linear_294_16113)" stroke-opacity="0.3"/>
<path d="M-25.946 660.016C-47.4553 835.195 -37.4066 997.391 -3.7904 1118.01C13.018 1178.32 35.7116 1228.21 63.2772 1264.12C90.8413 1300.04 123.25 1321.96 159.499 1326.41C195.748 1330.86 232.497 1317.43 267.931 1289.25C303.367 1261.07 337.456 1218.15 368.355 1163.7C430.152 1054.8 479.141 899.853 500.65 724.674C522.16 549.495 512.111 387.299 478.495 266.683C461.686 206.374 438.993 156.485 411.427 120.567C383.863 84.6504 351.454 62.735 315.205 58.2841C278.956 53.8333 242.208 67.2573 206.774 95.4382C171.338 123.621 137.249 166.538 106.35 220.989C44.5523 329.89 -4.43674 484.837 -25.946 660.016Z" stroke="url(#paint2_linear_294_16113)" stroke-opacity="0.3"/>
<path d="M-26.4734 664.615C-44.9221 840.143 -32.0442 1002.14 3.67194 1122.15C21.5303 1182.16 45.0912 1231.64 73.2794 1267.07C101.466 1302.5 134.253 1323.85 170.574 1327.67C206.895 1331.48 243.403 1317.42 278.34 1288.63C313.279 1259.83 346.614 1216.32 376.558 1161.34C436.445 1051.38 482.723 895.601 501.171 720.073C519.62 544.545 506.742 382.549 471.026 262.538C453.168 202.531 429.607 153.046 401.419 117.614C373.232 82.1848 340.445 60.8384 304.124 57.0208C267.803 53.2033 231.295 67.2667 196.358 96.0617C161.419 124.858 128.084 168.364 98.14 223.346C38.2527 333.309 -8.02465 489.087 -26.4734 664.615Z" stroke="url(#paint3_linear_294_16113)" stroke-opacity="0.3"/>
<path d="M-26.9132 669.227C-42.2957 845.05 -26.5926 1006.8 11.2126 1126.17C30.1155 1185.85 54.5364 1234.92 83.3387 1269.85C112.139 1304.79 145.294 1325.56 181.676 1328.74C218.058 1331.92 254.315 1317.22 288.745 1287.82C323.176 1258.42 355.746 1214.34 384.726 1158.84C442.685 1047.85 486.237 891.291 501.619 715.468C517.002 539.644 501.298 377.898 463.493 258.528C444.59 198.842 420.17 149.776 391.367 114.842C362.566 79.9094 329.412 59.1384 293.03 55.9553C256.648 52.7723 220.39 67.4706 185.961 96.871C151.53 126.273 118.96 170.353 89.98 225.85C32.0209 336.841 -11.5307 493.404 -26.9132 669.227Z" stroke="url(#paint4_linear_294_16113)" stroke-opacity="0.3"/>
<path d="M-27.2782 673.84C-39.5899 849.905 -21.0662 1011.35 18.8165 1130.04C38.7582 1189.39 64.0317 1238.02 93.4393 1272.45C122.845 1306.87 156.357 1327.06 192.789 1329.61C229.222 1332.16 265.217 1316.83 299.128 1286.83C333.04 1256.84 364.836 1212.19 392.843 1156.2C448.856 1044.21 489.669 886.914 501.981 710.85C514.292 534.785 495.769 373.337 455.886 254.645C435.944 195.299 410.671 146.666 381.263 112.24C351.857 77.8152 318.346 57.626 281.913 55.0784C245.481 52.5308 209.486 67.8597 175.575 97.8564C141.662 127.855 109.866 172.497 81.8592 228.491C25.846 340.477 -14.9666 497.776 -27.2782 673.84Z" stroke="url(#paint5_linear_294_16113)" stroke-opacity="0.3"/>
<path d="M-27.5602 678.464C-36.7973 854.717 -15.4588 1015.82 26.4893 1133.79C47.4637 1192.78 73.5821 1240.97 103.586 1274.88C133.588 1308.78 167.447 1328.38 203.918 1330.29C240.39 1332.21 276.112 1316.25 309.494 1285.67C342.878 1255.08 373.89 1209.89 400.915 1153.42C454.966 1040.47 493.027 882.484 502.264 706.231C511.501 529.978 490.162 368.878 448.214 250.901C427.24 191.911 401.121 143.727 371.118 109.819C341.115 75.9129 307.256 56.3116 270.785 54.4002C234.314 52.4889 198.592 68.4436 165.21 99.0276C131.826 129.613 100.814 174.804 73.7881 231.278C19.7379 344.224 -18.3232 502.211 -27.5602 678.464Z" stroke="url(#paint6_linear_294_16113)" stroke-opacity="0.3"/>
<path d="M-27.7644 683.085C-33.9239 859.473 -9.77713 1020.18 34.2235 1137.4C56.2242 1196.02 83.1796 1243.74 113.771 1277.12C144.36 1310.49 178.556 1329.5 215.055 1330.78C251.554 1332.05 286.992 1315.48 319.836 1284.31C352.681 1253.15 382.899 1207.43 408.935 1150.49C461.006 1036.62 496.304 877.989 502.464 701.601C508.623 525.214 484.476 364.511 440.476 247.284C418.475 188.669 391.52 140.948 360.929 107.569C330.339 74.1918 296.143 55.1844 259.644 53.9098C223.145 52.6352 187.707 69.211 154.864 100.373C122.019 131.537 91.8 177.261 65.7641 234.199C13.6933 348.071 -21.6048 506.698 -27.7644 683.085Z" stroke="url(#paint7_linear_294_16113)" stroke-opacity="0.3"/>
<path d="M-27.8898 687.715C-30.97 864.183 -4.02223 1024.44 42.0176 1140.88C65.038 1199.1 92.822 1246.35 123.991 1279.19C155.158 1312.03 189.681 1330.43 226.196 1331.07C262.712 1331.71 297.856 1314.52 330.15 1282.79C362.446 1251.05 391.862 1204.81 416.901 1147.43C466.976 1032.66 499.5 873.442 502.581 696.974C505.661 520.507 478.713 360.249 432.673 243.808C409.653 185.586 381.869 138.342 350.7 105.503C319.532 72.6644 285.01 54.2567 248.494 53.6193C211.979 52.9819 176.835 70.1736 144.541 101.904C112.244 133.636 82.8285 179.881 57.7903 237.264C7.71477 352.028 -24.8095 511.247 -27.8898 687.715Z" stroke="url(#paint8_linear_294_16113)" stroke-opacity="0.3"/>
<path d="M-27.9261 692.344C-27.9261 868.839 1.81447 1028.6 49.8795 1144.22C73.9124 1202.03 102.517 1248.78 134.254 1281.08C165.99 1313.36 200.828 1331.17 237.349 1331.17C273.871 1331.17 308.709 1313.36 340.445 1281.08C372.182 1248.78 400.787 1202.03 424.819 1144.22C472.884 1028.6 502.625 868.839 502.625 692.344C502.625 515.85 472.884 356.087 424.819 240.467C400.786 182.655 372.182 135.904 340.445 103.613C308.709 71.3239 273.871 53.5215 237.349 53.5215C200.828 53.5215 165.99 71.3239 134.254 103.613C102.517 135.904 73.9124 182.656 49.8794 240.467C1.81444 356.087 -27.9261 515.85 -27.9261 692.344Z" stroke="url(#paint9_linear_294_16113)" stroke-opacity="0.3"/>
<path d="M-27.8848 696.974C-24.8045 873.442 7.71976 1032.66 57.7953 1147.42C82.8335 1204.81 112.249 1251.05 144.546 1282.78C176.84 1314.52 211.984 1331.71 248.499 1331.07C285.015 1330.43 319.537 1312.02 350.705 1279.19C381.874 1246.35 409.658 1199.1 432.678 1140.88C478.718 1024.44 505.666 864.182 502.586 687.715C499.505 511.247 466.981 352.028 416.905 237.264C391.867 179.881 362.451 133.636 330.155 101.904C297.861 70.1731 262.717 52.9814 226.201 53.6188C189.686 54.2562 155.163 72.6639 123.996 105.502C92.827 138.342 65.0429 185.586 42.0226 243.807C-4.01726 360.249 -30.9651 520.506 -27.8848 696.974Z" stroke="url(#paint10_linear_294_16113)" stroke-opacity="0.3"/>
<path d="M-27.7652 701.603C-21.6056 877.991 13.6925 1036.62 65.7633 1150.49C91.7992 1207.43 122.018 1253.15 154.863 1284.32C187.706 1315.48 223.144 1332.05 259.643 1330.78C296.143 1329.5 330.338 1310.5 360.928 1277.12C391.519 1243.74 418.474 1196.02 440.475 1137.41C484.476 1020.18 508.622 859.475 502.463 683.087C496.303 506.7 461.005 348.073 408.934 234.201C382.898 177.263 352.68 131.539 319.835 100.375C286.991 69.213 251.553 52.6373 215.054 53.9119C178.555 55.1865 144.359 74.1939 113.77 107.571C83.1787 140.95 56.2233 188.671 34.2226 247.286C-9.77801 364.513 -33.9248 525.216 -27.7652 701.603Z" stroke="url(#paint11_linear_294_16113)" stroke-opacity="0.3"/>
<path d="M-27.5611 706.228C-18.3241 882.481 19.737 1040.47 73.7873 1153.41C100.813 1209.89 131.825 1255.08 165.209 1285.66C198.591 1316.25 234.313 1332.2 270.784 1330.29C307.256 1328.38 341.114 1308.78 371.117 1274.87C401.121 1240.97 427.239 1192.78 448.214 1133.79C490.162 1015.81 511.5 854.714 502.263 678.461C493.026 502.208 454.965 344.221 400.915 231.275C373.889 174.801 342.877 129.61 309.493 99.0246C276.111 68.4406 240.389 52.4858 203.918 54.3972C167.446 56.3086 133.587 75.9099 103.585 109.816C73.5811 143.724 47.4628 191.908 26.4883 250.898C-15.4597 368.875 -36.7982 529.975 -27.5611 706.228Z" stroke="url(#paint12_linear_294_16113)" stroke-opacity="0.3"/>
<path d="M-27.2798 710.849C-14.9682 886.914 25.8444 1044.21 81.8576 1156.2C109.865 1212.19 141.661 1256.83 175.573 1286.83C209.484 1316.83 245.479 1332.16 281.912 1329.61C318.344 1327.06 351.856 1306.87 381.262 1272.45C410.669 1238.02 435.943 1189.39 455.884 1130.04C495.767 1011.35 514.291 849.904 501.979 673.839C489.667 497.775 448.855 340.476 392.842 228.49C364.834 172.496 333.039 127.854 299.126 97.8555C265.215 67.8587 229.22 52.5298 192.788 55.0774C156.355 57.625 122.844 77.8143 93.4376 112.239C64.03 146.665 38.7565 195.298 18.8148 254.645C-21.0678 373.336 -39.5915 534.784 -27.2798 710.849Z" stroke="url(#paint13_linear_294_16113)" stroke-opacity="0.3"/>
<path d="M-26.9132 715.465C-11.5307 891.288 32.021 1047.85 89.9801 1158.84C118.96 1214.34 151.53 1258.42 185.961 1287.82C220.391 1317.22 256.648 1331.92 293.03 1328.74C329.412 1325.55 362.566 1304.78 391.367 1269.85C420.17 1234.92 444.59 1185.85 463.493 1126.16C501.298 1006.79 517.002 845.048 501.619 669.224C486.237 493.401 442.685 336.839 384.726 225.848C355.746 170.351 323.176 126.271 288.745 96.8687C254.315 67.4683 218.058 52.7699 181.676 55.953C145.293 59.136 112.139 79.9071 83.3387 114.839C54.5364 149.774 30.1155 198.84 11.2126 258.526C-26.5926 377.895 -42.2957 539.642 -26.9132 715.465Z" stroke="url(#paint14_linear_294_16113)" stroke-opacity="0.3"/>
<path d="M-26.4729 720.071C-8.02416 895.599 38.2532 1051.38 98.1405 1161.34C128.085 1216.32 161.419 1259.83 196.358 1288.62C231.295 1317.42 267.803 1331.48 304.125 1327.67C340.446 1323.85 373.232 1302.5 401.419 1267.07C429.607 1231.64 453.168 1182.15 471.027 1122.15C506.743 1002.14 519.621 840.141 501.172 664.613C482.723 489.085 436.446 333.307 376.559 223.344C346.614 168.361 313.28 124.856 278.341 96.0595C243.404 67.2644 206.896 53.2011 170.574 57.0186C134.253 60.8361 101.467 82.1826 73.2799 117.612C45.0916 153.044 21.5308 202.529 3.67239 262.536C-32.0437 382.547 -44.9216 544.543 -26.4729 720.071Z" stroke="url(#paint15_linear_294_16113)" stroke-opacity="0.3"/>
<path d="M-25.9464 724.673C-4.43711 899.852 44.552 1054.8 106.349 1163.7C137.249 1218.15 171.337 1261.07 206.773 1289.25C242.208 1317.43 278.956 1330.86 315.205 1326.4C351.454 1321.95 383.863 1300.04 411.427 1264.12C438.993 1228.2 461.686 1178.32 478.495 1118.01C512.111 997.39 522.159 835.194 500.65 660.015C479.141 484.836 430.152 329.888 368.354 220.988C337.455 166.536 303.366 123.619 267.93 95.4368C232.496 67.2559 195.748 53.8318 159.499 58.2827C123.25 62.7335 90.8408 84.649 63.2767 120.565C35.7111 156.483 13.0175 206.372 -3.79087 266.681C-37.407 387.297 -47.4557 549.494 -25.9464 724.673Z" stroke="url(#paint16_linear_294_16113)" stroke-opacity="0.3"/>
<path d="M-25.3401 729.265C-0.776811 904.042 50.909 1058.11 114.597 1165.92C146.442 1219.82 181.275 1262.14 217.197 1289.7C253.118 1317.25 290.095 1330.03 326.261 1324.95C362.427 1319.87 394.448 1297.39 421.381 1261C448.316 1224.61 470.135 1174.33 485.889 1113.73C517.395 992.55 524.611 830.203 500.048 655.426C475.485 480.649 423.799 326.581 360.11 218.775C328.265 164.871 293.433 122.556 257.51 94.9959C221.59 67.4377 184.613 54.657 148.447 59.7398C112.281 64.8226 80.2594 87.3003 53.3263 123.692C26.3917 160.086 4.5723 210.363 -11.181 270.957C-42.687 392.141 -49.9035 554.488 -25.3401 729.265Z" stroke="url(#paint17_linear_294_16113)" stroke-opacity="0.3"/>
<path d="M-24.6592 733.843C2.95066 908.164 57.3175 1061.31 122.878 1167.99C155.658 1221.33 191.224 1263.03 227.622 1289.95C264.018 1316.88 301.213 1329.02 337.284 1323.3C373.356 1317.59 404.98 1294.56 431.274 1257.7C457.57 1220.84 478.508 1170.19 493.202 1109.33C522.588 987.616 526.97 825.168 499.36 650.846C471.75 476.524 417.383 323.381 351.823 216.704C319.042 163.364 283.477 121.663 247.079 94.734C210.682 67.8069 173.488 55.6735 137.417 61.3867C101.345 67.0999 69.7205 90.1331 43.4266 126.989C17.1313 163.848 -3.80734 214.498 -18.5007 275.357C-47.887 397.073 -52.269 559.521 -24.6592 733.843Z" stroke="url(#paint18_linear_294_16113)" stroke-opacity="0.3"/>
<path d="M-23.8958 738.41C6.75222 912.223 63.7835 1064.39 131.196 1169.91C164.902 1222.67 201.19 1263.75 238.053 1290.03C274.913 1316.32 312.314 1327.8 348.28 1321.46C384.247 1315.12 415.464 1291.54 441.111 1254.23C466.759 1216.92 486.81 1165.91 500.439 1104.8C527.697 982.594 529.243 820.094 498.595 646.281C467.947 472.467 410.916 320.296 343.504 214.779C309.797 162.019 273.509 120.945 236.647 94.6562C199.786 68.3684 162.386 56.886 126.419 63.2279C90.4527 69.5697 59.2352 93.1513 33.5885 130.461C7.94055 167.772 -12.111 218.781 -25.74 279.887C-52.9975 402.097 -54.5438 564.597 -23.8958 738.41Z" stroke="url(#paint19_linear_294_16113)" stroke-opacity="0.3"/>
<path d="M-23.0499 742.963C10.6269 916.214 70.3052 1067.37 139.549 1171.69C174.171 1223.86 211.17 1264.29 248.486 1289.93C285.8 1315.57 323.395 1326.4 359.245 1319.43C395.095 1312.46 425.897 1288.34 450.888 1250.59C475.881 1212.83 495.039 1161.48 507.6 1100.15C532.72 977.483 531.43 814.981 497.754 641.729C464.077 468.477 404.399 317.324 335.155 212.999C300.533 160.836 263.533 120.402 226.218 94.7596C188.904 69.1191 151.309 58.2912 115.459 65.2598C79.6084 72.2284 48.8072 96.3512 23.8156 134.103C-1.17736 171.856 -20.3356 223.207 -32.8961 284.541C-58.0166 407.209 -56.7266 569.711 -23.0499 742.963Z" stroke="url(#paint20_linear_294_16113)" stroke-opacity="0.3"/>
<path d="M-22.1254 747.498C14.5699 920.136 76.8771 1070.22 147.931 1173.32C183.458 1224.88 221.157 1264.66 258.915 1289.64C296.671 1314.63 334.449 1324.8 370.172 1317.21C405.895 1309.61 436.271 1284.96 460.6 1246.78C484.93 1208.59 503.189 1156.91 514.677 1095.37C537.653 972.283 533.527 809.828 496.832 637.19C460.137 464.552 397.83 314.464 326.776 211.364C291.249 159.813 253.549 120.03 215.792 95.0436C178.036 70.0582 140.258 59.8881 104.535 67.4813C68.8113 75.0745 38.4358 99.7312 14.1069 137.913C-10.2234 176.097 -28.4825 227.774 -39.9707 289.319C-62.9465 412.405 -58.8207 574.86 -22.1254 747.498Z" stroke="url(#paint21_linear_294_16113)" stroke-opacity="0.3"/>
<path d="M-21.1279 752.017C18.5748 923.988 83.4919 1072.97 156.334 1174.81C192.756 1225.73 231.144 1264.85 269.331 1289.18C307.517 1313.5 345.467 1323.01 381.053 1314.79C416.638 1306.58 446.578 1281.39 470.237 1242.79C493.897 1204.19 511.252 1152.2 521.664 1090.47C542.488 966.998 535.528 804.64 495.825 632.669C456.123 460.697 391.206 311.72 318.364 209.875C281.942 158.952 243.554 119.833 205.366 95.5092C167.18 71.1866 129.23 61.6773 93.6448 69.8928C58.0595 78.1084 28.1189 103.291 4.46006 141.892C-19.2001 180.495 -36.5545 232.482 -46.9668 294.218C-67.791 417.687 -60.8306 580.045 -21.1279 752.017Z" stroke="url(#paint22_linear_294_16113)" stroke-opacity="0.3"/>
<path d="M-20.0461 756.522C22.6519 927.774 90.1591 1075.6 164.767 1176.15C202.072 1226.43 241.137 1264.88 279.744 1288.53C318.348 1312.18 356.458 1321.03 391.895 1312.19C427.331 1303.36 456.828 1277.66 479.81 1238.65C502.792 1199.64 519.237 1147.36 528.57 1085.45C547.236 961.634 537.443 799.422 494.745 628.17C452.048 456.918 384.54 309.096 309.932 208.538C272.627 158.258 233.562 119.815 194.956 96.1616C156.351 72.5091 118.241 63.6636 82.8045 72.4989C47.368 81.3342 17.8714 107.036 -5.11016 146.044C-28.093 185.053 -44.5375 237.336 -53.8707 299.244C-72.5369 423.058 -62.744 585.27 -20.0461 756.522Z" stroke="url(#paint23_linear_294_16113)" stroke-opacity="0.3"/>
<path d="M-18.8857 761.002C26.7945 931.483 96.8713 1078.1 173.223 1177.34C211.4 1226.97 251.13 1264.72 290.143 1287.7C329.155 1310.67 367.414 1318.85 402.69 1309.4C437.967 1299.95 467.011 1273.73 489.308 1234.33C511.607 1194.93 527.136 1142.36 535.388 1080.3C551.89 956.182 539.268 794.166 493.588 623.685C447.907 453.205 377.831 306.583 301.479 207.343C263.302 157.722 223.572 119.967 184.558 96.9901C145.547 74.015 107.288 65.8359 72.0114 75.2883C36.7345 84.7408 7.691 110.953 -14.6063 150.356C-36.9048 189.761 -52.4344 242.323 -60.6858 304.384C-77.1883 428.505 -64.5659 590.521 -18.8857 761.002Z" stroke="url(#paint24_linear_294_16113)" stroke-opacity="0.3"/>
<path d="M-17.6486 765.465C30.9999 935.123 103.625 1080.5 181.697 1178.39C220.734 1227.34 261.117 1264.39 300.525 1286.69C339.932 1308.98 378.328 1316.49 413.434 1306.42C448.541 1296.35 477.122 1269.64 498.729 1229.85C520.336 1190.07 534.946 1137.24 542.113 1075.04C556.447 950.654 540.999 788.883 492.35 619.226C443.701 449.568 371.076 304.192 293.004 206.299C253.967 157.352 213.585 120.296 174.176 98.0038C134.769 75.713 96.3738 68.2029 61.2673 78.2696C26.1607 88.3362 -2.42091 115.052 -24.0272 154.838C-45.6346 194.626 -60.2444 247.451 -67.4114 309.647C-81.7452 434.036 -66.2972 595.808 -17.6486 765.465Z" stroke="url(#paint25_linear_294_16113)" stroke-opacity="0.3"/>
<path d="M-16.3332 769.906C35.2689 938.688 110.42 1082.77 190.189 1179.29C230.074 1227.55 271.097 1263.89 310.889 1285.49C350.679 1307.09 389.199 1313.93 424.125 1303.26C459.05 1292.58 487.161 1265.37 508.07 1225.21C528.98 1185.05 542.665 1131.98 548.746 1069.67C560.907 945.047 542.638 783.57 491.035 614.787C439.433 446.005 364.282 301.918 284.513 205.403C244.628 157.144 203.605 120.799 163.813 99.1981C124.024 77.5984 85.503 70.7595 50.5775 81.4373C15.6519 92.1152 -12.4591 119.325 -33.3677 159.482C-54.2774 199.641 -67.9631 252.713 -74.0435 315.025C-86.2042 439.646 -67.9352 601.123 -16.3332 769.906Z" stroke="url(#paint26_linear_294_16113)" stroke-opacity="0.3"/>
<path d="M-14.9434 774.319C39.5965 942.176 117.251 1084.93 198.692 1180.04C239.413 1227.59 281.065 1263.22 321.227 1284.12C361.388 1305.02 400.022 1311.19 434.756 1299.9C469.49 1288.62 497.121 1260.92 517.326 1220.4C537.532 1179.88 550.289 1126.58 555.281 1064.17C565.265 939.36 544.181 778.226 489.641 610.37C435.101 442.514 357.447 299.761 276.005 204.652C235.284 157.097 193.633 121.473 153.47 100.57C113.31 79.6681 74.6755 73.5026 39.9416 84.7883C5.20772 96.074 -22.4241 123.771 -42.6286 164.286C-62.8343 204.804 -75.5917 258.107 -80.5837 320.515C-90.5676 445.329 -69.4833 606.463 -14.9434 774.319Z" stroke="url(#paint27_linear_294_16113)" stroke-opacity="0.3"/>
<path d="M-13.4718 778.711C43.9893 945.59 124.123 1086.97 207.212 1180.64C248.757 1227.48 291.024 1262.37 331.545 1282.57C372.064 1302.76 410.8 1308.25 445.332 1296.36C479.863 1284.47 507.007 1256.3 526.502 1215.44C545.997 1174.57 557.822 1121.06 561.725 1058.57C569.529 933.601 545.635 772.859 488.174 605.98C430.713 439.101 350.579 297.726 267.491 204.053C225.946 157.216 183.679 122.324 143.158 102.125C102.639 81.9272 63.9025 76.4368 29.3709 88.327C-5.16073 100.217 -32.305 128.392 -51.7994 169.254C-71.2948 210.119 -83.12 263.636 -87.0221 326.121C-94.8262 451.091 -70.9328 611.832 -13.4718 778.711Z" stroke="url(#paint28_linear_294_16113)" stroke-opacity="0.3"/>
<path d="M-11.9281 783.073C48.4366 948.924 131.026 1088.88 215.736 1181.09C258.093 1227.19 300.962 1261.34 341.829 1280.83C382.695 1300.32 421.521 1305.13 455.84 1292.64C490.159 1280.15 516.807 1251.51 535.585 1210.31C554.364 1169.11 565.254 1115.4 568.065 1052.85C573.687 927.764 546.992 767.464 486.627 601.614C426.262 435.763 343.673 295.807 258.962 203.599C216.606 157.494 173.737 123.345 132.869 103.856C92.004 84.3686 53.178 79.5552 18.8592 92.0462C-15.4597 104.537 -42.108 133.181 -60.8863 174.378C-79.6656 215.576 -90.555 269.291 -93.366 331.836C-98.9879 456.923 -72.2929 617.222 -11.9281 783.073Z" stroke="url(#paint29_linear_294_16113)" stroke-opacity="0.3"/>
<path d="M-10.3069 787.409C52.9432 952.181 137.962 1090.67 224.269 1181.39C267.424 1226.75 310.882 1260.14 352.084 1278.92C393.283 1297.69 432.187 1301.82 466.283 1288.74C500.379 1275.65 526.523 1246.54 544.579 1205.02C562.637 1163.5 572.587 1109.61 574.306 1047.02C577.744 921.858 548.255 762.049 485.005 597.277C421.755 432.505 336.736 294.012 250.429 203.296C207.275 157.937 163.816 124.542 122.615 105.769C81.4153 86.9976 42.5113 82.8625 8.41562 95.9506C-25.68 109.039 -51.8244 138.144 -69.8809 179.661C-87.9383 221.181 -97.8886 275.078 -99.6076 337.662C-103.046 462.828 -73.5569 622.637 -10.3069 787.409Z" stroke="url(#paint30_linear_294_16113)" stroke-opacity="0.3"/>
<path d="M-8.61436 791.717C57.5017 955.36 144.925 1092.35 232.802 1181.54C276.741 1226.14 320.776 1258.77 362.299 1276.82C403.82 1294.87 442.79 1298.33 476.652 1284.65C510.514 1270.97 536.146 1241.41 553.476 1199.58C570.806 1157.76 579.814 1103.69 580.44 1041.09C581.693 915.882 549.42 756.612 483.304 592.969C417.188 429.326 329.765 292.337 241.888 203.142C197.949 158.543 153.914 125.911 112.391 107.861C70.8702 89.8109 31.8999 86.3554 -1.96211 100.037C-35.8241 113.718 -61.4566 143.274 -78.7857 185.101C-96.1158 226.929 -105.124 280.992 -105.75 343.597C-107.003 468.803 -74.7304 628.074 -8.61436 791.717Z" stroke="url(#paint31_linear_294_16113)" stroke-opacity="0.3"/>
<path d="M-6.8387 795.998C62.1232 958.462 151.924 1093.9 241.344 1181.55C286.055 1225.38 330.653 1257.24 372.485 1274.56C414.314 1291.88 453.338 1294.66 486.957 1280.39C520.575 1266.12 545.687 1236.12 562.284 1193.99C578.881 1151.87 586.945 1097.66 586.478 1035.05C585.546 909.842 550.498 751.159 481.536 588.695C412.574 426.231 322.774 290.789 233.353 203.141C188.642 159.316 144.045 127.457 102.213 110.134C60.3837 92.8118 21.3591 90.037 -12.259 104.307C-45.8771 118.577 -70.9898 148.577 -87.5864 190.699C-104.184 232.824 -112.247 287.035 -111.781 349.641C-110.848 474.851 -75.8006 633.534 -6.8387 795.998Z" stroke="url(#paint32_linear_294_16113)" stroke-opacity="0.3"/>
<path d="M-4.99218 800.242C66.7946 961.477 158.945 1095.33 249.882 1181.41C295.351 1224.44 340.498 1255.52 382.625 1272.11C424.751 1288.7 463.818 1290.79 497.182 1275.94C530.545 1261.08 555.131 1230.65 570.99 1188.24C586.849 1145.84 593.965 1091.49 592.407 1028.9C589.289 903.73 551.477 745.683 479.69 584.447C407.904 423.211 315.753 289.357 224.816 203.283C179.347 160.245 134.2 129.17 92.0729 112.579C49.9477 95.9895 10.8805 93.8962 -22.4834 108.751C-55.8473 123.605 -80.4326 154.039 -96.2915 196.444C-112.151 238.852 -119.267 293.196 -117.708 355.785C-114.591 480.959 -76.779 639.006 -4.99218 800.242Z" stroke="url(#paint33_linear_294_16113)" stroke-opacity="0.3"/>
<path d="M-3.07335 804.455C71.5165 964.413 165.989 1096.64 258.414 1181.11C304.627 1223.35 350.31 1253.63 392.72 1269.49C435.129 1285.34 474.226 1286.75 507.326 1271.31C540.426 1255.88 564.476 1225.02 579.592 1182.35C594.71 1139.67 600.876 1085.21 598.225 1022.66C592.924 897.556 552.359 740.193 477.769 580.234C403.18 420.276 308.707 288.05 216.282 203.576C170.069 161.338 124.386 131.056 81.9757 115.203C39.5673 99.351 0.469601 97.9397 -32.63 113.374C-65.7296 128.809 -89.7801 159.667 -104.896 202.343C-120.014 245.021 -126.18 299.481 -123.529 362.032C-118.228 487.133 -77.6632 644.496 -3.07335 804.455Z" stroke="url(#paint34_linear_294_16113)" stroke-opacity="0.3"/>
<path d="M-1.0804 808.634C76.2897 967.266 173.056 1097.82 266.941 1180.67C313.884 1222.1 360.088 1251.58 402.769 1266.69C445.447 1281.8 484.564 1282.52 517.389 1266.51C550.214 1250.5 573.723 1219.23 588.092 1176.3C602.462 1133.36 607.677 1078.8 603.935 1016.31C596.451 891.319 553.146 734.688 475.776 576.055C398.406 417.423 301.64 286.867 207.755 204.018C160.811 162.593 114.607 133.113 71.9266 118.003C29.2481 102.893 -9.86835 102.165 -42.6935 118.174C-75.5187 134.184 -99.027 165.457 -113.396 208.391C-127.766 251.326 -132.981 305.885 -129.239 368.381C-121.755 493.37 -78.4505 650.001 -1.0804 808.634Z" stroke="url(#paint35_linear_294_16113)" stroke-opacity="0.3"/>
<path d="M0.988257 812.776C81.1151 970.034 180.145 1098.88 275.461 1180.08C323.121 1220.68 369.832 1249.35 412.77 1263.71C455.706 1278.07 494.829 1278.12 527.37 1261.54C559.911 1244.96 582.87 1213.28 596.487 1170.1C610.106 1126.92 614.368 1072.28 609.536 1009.86C599.871 885.02 553.84 729.169 473.713 571.911C393.586 414.653 294.556 285.805 199.24 204.608C151.58 164.008 104.869 135.339 61.931 120.976C18.9952 106.614 -20.1279 106.568 -52.6687 123.148C-85.2095 139.728 -108.168 171.407 -121.786 214.584C-135.405 257.764 -139.667 312.406 -134.834 374.827C-125.17 499.666 -79.1386 655.518 0.988257 812.776Z" stroke="url(#paint36_linear_294_16113)" stroke-opacity="0.3"/>
<path d="M3.12829 816.884C85.9875 972.719 187.251 1099.82 283.97 1179.34C332.331 1219.1 379.535 1246.95 422.717 1260.56C465.897 1274.17 505.015 1273.54 537.262 1256.39C569.508 1239.25 591.911 1207.17 604.773 1163.76C617.636 1120.35 620.943 1065.64 615.023 1003.32C603.181 878.665 554.436 723.641 471.577 567.805C388.718 411.97 287.455 284.87 190.735 205.349C142.375 165.587 95.1703 137.737 51.9881 124.126C8.80823 110.515 -30.3098 111.152 -62.5562 128.298C-94.8027 145.443 -117.205 177.517 -130.067 220.926C-142.93 264.337 -146.238 319.045 -140.317 381.372C-128.476 506.024 -79.7309 661.048 3.12829 816.884Z" stroke="url(#paint37_linear_294_16113)" stroke-opacity="0.3"/>
<path d="M5.33342 820.951C90.8997 975.317 194.366 1100.63 292.458 1178.45C341.505 1217.36 389.189 1244.38 432.602 1257.24C476.013 1270.1 515.114 1268.78 547.056 1251.07C578.998 1233.36 600.838 1200.9 612.94 1157.28C625.043 1113.65 627.396 1058.89 620.388 996.677C606.373 872.251 554.93 718.101 469.364 563.735C383.798 409.369 280.332 284.056 182.239 206.235C133.192 167.323 85.5086 140.301 42.0954 127.446C-1.31537 114.591 -40.4163 115.91 -72.3586 133.616C-104.301 151.322 -126.14 183.782 -138.243 227.409C-150.346 271.038 -152.698 325.795 -145.691 388.009C-131.676 512.435 -80.2329 666.585 5.33342 820.951Z" stroke="url(#paint38_linear_294_16113)" stroke-opacity="0.3"/>
<path d="M7.61496 824.983C95.8623 977.831 201.5 1101.32 300.935 1177.42C350.654 1215.47 398.802 1241.65 442.433 1253.75C486.061 1265.84 525.133 1263.84 556.762 1245.58C588.39 1227.32 609.66 1194.48 620.999 1150.65C632.339 1106.82 633.735 1052.03 625.643 989.947C609.458 865.784 555.333 712.556 467.086 559.707C378.838 406.858 273.201 283.37 173.765 207.272C124.047 169.223 75.8988 143.037 32.2679 130.941C-11.3606 118.846 -50.4326 120.847 -82.061 139.108C-113.689 157.369 -134.959 190.205 -146.298 234.036C-157.638 277.87 -159.035 332.66 -150.942 394.742C-134.758 518.905 -80.6324 672.134 7.61496 824.983Z" stroke="url(#paint39_linear_294_16113)" stroke-opacity="0.3"/>
<path d="M9.96648 828.973C100.868 980.259 208.644 1101.88 309.393 1176.23C359.768 1213.41 408.366 1238.75 452.201 1250.08C496.034 1261.42 535.065 1258.73 566.37 1239.92C597.675 1221.11 618.368 1187.91 628.941 1143.89C639.514 1099.86 639.954 1045.06 630.779 983.126C612.43 859.265 555.639 707.005 464.738 555.719C373.836 404.434 266.06 282.808 165.311 208.457C114.936 171.281 66.3383 145.94 22.503 134.607C-21.33 123.275 -60.3611 125.958 -91.666 144.768C-122.971 163.578 -143.664 196.781 -154.237 240.803C-164.81 284.828 -165.25 339.634 -156.075 401.566C-137.726 525.427 -80.935 677.688 9.96648 828.973Z" stroke="url(#paint40_linear_294_16113)" stroke-opacity="0.3"/>
<path d="M12.3817 832.919C105.91 982.595 215.792 1102.32 317.823 1174.9C368.84 1211.19 417.872 1235.68 461.898 1246.25C505.923 1256.81 544.901 1253.45 575.873 1234.1C606.845 1214.74 626.955 1181.18 636.758 1136.98C646.561 1092.78 646.045 1037.98 635.79 976.214C615.282 852.692 555.843 701.446 462.315 551.77C368.787 402.094 258.904 282.367 156.873 209.786C105.857 173.495 56.8244 149.006 12.7979 138.44C-31.2262 127.874 -70.2045 131.238 -101.176 150.592C-132.148 169.945 -152.259 203.504 -162.062 247.704C-171.865 291.907 -171.348 346.712 -161.094 408.474C-140.586 531.996 -81.1463 683.243 12.3817 832.919Z" stroke="url(#paint41_linear_294_16113)" stroke-opacity="0.3"/>
<path d="M14.8681 836.823C110.994 984.843 222.949 1102.63 326.231 1173.42C377.873 1208.82 427.326 1232.45 471.53 1242.24C515.732 1252.04 554.645 1248 585.275 1228.1C615.904 1208.21 635.426 1174.31 644.456 1129.94C653.486 1085.58 652.013 1030.79 640.683 969.216C618.022 846.071 555.952 695.884 459.826 547.864C363.7 399.843 251.744 282.052 148.462 211.263C96.8204 175.868 47.3681 152.238 3.16389 142.442C-41.0379 132.646 -79.9515 136.69 -110.581 156.581C-141.21 176.472 -160.732 210.377 -169.762 254.741C-178.792 299.108 -177.319 353.896 -165.989 415.47C-143.328 538.616 -81.2579 688.802 14.8681 836.823Z" stroke="url(#paint42_linear_294_16113)" stroke-opacity="0.3"/>
<path d="M17.423 840.686C116.118 987.006 230.112 1102.82 334.613 1171.8C386.865 1206.29 436.722 1229.05 481.091 1238.08C525.457 1247.1 564.294 1242.38 594.572 1221.95C624.849 1201.53 643.776 1167.29 652.031 1122.78C660.285 1078.26 657.856 1023.5 645.453 962.137C620.647 839.406 555.965 690.326 457.27 544.005C358.575 397.684 244.581 281.866 140.079 212.89C87.8276 178.402 37.9704 155.638 -6.39795 146.615C-50.764 137.593 -89.6011 142.315 -119.879 162.738C-150.156 183.16 -169.083 217.4 -177.338 261.916C-185.592 306.433 -183.163 361.187 -170.76 422.554C-145.954 545.285 -81.2716 694.365 17.423 840.686Z" stroke="url(#paint43_linear_294_16113)" stroke-opacity="0.3"/>
<path d="M20.0501 844.5C121.283 989.076 237.281 1102.89 342.971 1170.03C395.817 1203.6 446.064 1225.49 490.583 1233.74C535.1 1241.98 573.848 1236.59 603.765 1215.64C633.681 1194.69 652.008 1160.12 659.484 1115.47C666.961 1070.82 663.576 1016.11 650.104 954.972C623.159 832.693 555.885 684.765 454.652 540.189C353.419 395.613 237.421 281.801 131.731 214.66C78.8855 181.088 28.6387 159.198 -15.8804 150.951C-60.3972 142.704 -99.146 148.104 -129.063 169.051C-158.979 189.999 -177.306 224.564 -184.782 269.217C-192.258 313.872 -188.874 368.576 -175.402 429.716C-148.457 551.996 -81.1831 699.924 20.0501 844.5Z" stroke="url(#paint44_linear_294_16113)" stroke-opacity="0.3"/>
<path d="M22.737 848.269C126.478 991.056 244.445 1102.83 351.29 1168.11C404.714 1200.76 455.335 1221.77 499.991 1229.24C544.645 1236.7 583.294 1230.63 612.84 1209.16C642.386 1187.7 660.107 1152.82 666.803 1108.04C673.499 1063.26 669.16 1008.63 654.623 947.729C625.548 825.938 555.703 679.206 451.962 536.419C348.221 393.632 230.254 281.862 123.409 216.576C69.9854 183.931 19.3642 162.922 -25.2921 155.453C-69.946 147.984 -108.595 154.059 -138.141 175.526C-167.687 196.993 -185.408 231.872 -192.104 276.649C-198.8 321.427 -194.461 376.063 -179.924 436.96C-150.849 558.75 -81.0039 705.482 22.737 848.269Z" stroke="url(#paint45_linear_294_16113)" stroke-opacity="0.3"/>
<path d="M25.4912 851.989C131.708 992.944 251.608 1102.64 359.576 1166.05C413.561 1197.76 464.542 1217.88 509.321 1224.57C554.099 1231.26 592.636 1224.51 621.803 1202.53C650.97 1180.55 668.079 1145.37 673.993 1100.48C679.906 1055.59 674.615 1001.04 659.017 940.405C627.821 819.141 555.425 673.65 449.208 532.695C342.991 391.74 223.092 282.047 115.123 218.634C61.138 186.928 10.1578 166.805 -34.622 160.116C-79.3994 153.428 -117.936 160.177 -147.103 182.156C-176.271 204.135 -193.38 239.319 -199.293 284.205C-205.207 329.094 -199.915 383.646 -184.317 444.279C-153.122 565.544 -80.726 711.034 25.4912 851.989Z" stroke="url(#paint46_linear_294_16113)" stroke-opacity="0.3"/>
<path d="M28.3081 855.665C136.969 994.745 258.765 1102.33 367.823 1163.85C422.354 1194.61 473.677 1213.84 518.567 1219.74C563.455 1225.65 601.868 1218.23 630.647 1195.74C659.426 1173.26 675.919 1137.78 681.048 1092.8C686.177 1047.81 679.934 993.363 663.28 933.011C629.973 812.309 555.049 668.105 446.388 529.025C337.727 389.945 215.932 282.361 106.873 220.842C52.3426 190.083 1.01897 170.853 -43.8708 164.947C-88.7581 159.041 -127.171 166.461 -155.95 188.946C-184.73 211.43 -201.222 246.908 -206.351 291.89C-211.48 336.875 -205.238 391.327 -188.584 451.679C-155.277 572.38 -80.3529 716.585 28.3081 855.665Z" stroke="url(#paint47_linear_294_16113)" stroke-opacity="0.3"/>
<path d="M31.1931 859.289C142.265 996.451 265.919 1101.89 376.035 1161.5C431.094 1191.3 482.745 1209.63 527.731 1214.76C572.715 1219.88 610.993 1211.79 639.375 1188.8C667.758 1165.82 683.629 1130.06 687.972 1085C692.315 1039.93 685.123 985.594 667.418 925.541C632.01 805.439 554.581 662.564 443.509 525.402C332.437 388.24 208.783 282.797 98.6669 223.192C43.6079 193.389 -8.04347 175.057 -53.0294 169.935C-98.013 164.814 -136.291 172.903 -164.673 195.887C-193.056 218.87 -208.927 254.63 -213.27 299.695C-217.613 344.763 -210.421 399.097 -192.716 459.149C-157.308 579.251 -79.8786 722.127 31.1931 859.289Z" stroke="url(#paint48_linear_294_16113)" stroke-opacity="0.3"/>
<path d="M34.136 862.861C147.585 998.063 273.061 1101.33 384.2 1159.01C439.77 1187.84 491.734 1205.27 536.802 1209.61C581.869 1213.94 619.999 1205.19 647.976 1181.71C675.953 1158.24 691.198 1122.2 694.754 1077.07C698.31 1031.93 690.171 977.734 671.421 918C633.921 798.534 554.01 657.032 440.562 521.829C327.113 386.626 201.637 283.358 90.498 225.683C34.9274 196.845 -17.0361 179.418 -62.1046 175.082C-107.171 170.747 -145.301 179.503 -173.278 202.978C-201.255 226.454 -216.5 262.485 -220.056 307.619C-223.612 352.756 -215.473 406.956 -196.723 466.69C-159.223 586.156 -79.3126 727.658 34.136 862.861Z" stroke="url(#paint49_linear_294_16113)" stroke-opacity="0.3"/>
<path d="M37.1421 866.38C152.933 999.583 280.192 1100.65 392.321 1156.37C448.387 1184.24 500.646 1200.75 545.783 1204.3C590.918 1207.85 628.89 1198.43 656.453 1174.47C684.016 1150.51 698.63 1114.22 701.397 1069.03C704.165 1023.84 695.082 969.787 675.292 910.389C635.713 791.596 553.345 651.51 437.554 518.308C321.763 385.105 194.504 284.043 82.3752 228.316C26.3097 200.453 -25.9499 183.935 -71.0873 180.386C-116.222 176.838 -154.194 186.258 -181.757 210.218C-209.32 234.179 -223.934 270.47 -226.701 315.66C-229.469 360.852 -220.385 414.901 -200.596 474.299C-161.017 593.092 -78.6489 733.178 37.1421 866.38Z" stroke="url(#paint50_linear_294_16113)" stroke-opacity="0.3"/>
<path d="M40.2128 869.846C158.311 1001.01 287.314 1099.83 400.399 1153.59C456.942 1180.48 509.482 1196.08 554.674 1198.84C599.864 1201.6 637.666 1191.52 664.807 1167.08C691.947 1142.64 705.925 1106.1 707.904 1060.87C709.882 1015.64 699.857 961.754 679.033 902.711C637.388 784.626 552.587 645.999 434.489 514.838C316.391 383.677 187.388 284.851 74.3033 231.09C17.76 204.209 -34.78 188.606 -79.9723 185.846C-125.162 183.086 -162.964 193.167 -190.105 217.605C-217.246 242.042 -231.223 278.583 -233.202 323.814C-235.18 369.048 -225.155 422.931 -204.331 481.974C-162.686 600.058 -77.8852 738.685 40.2128 869.846Z" stroke="url(#paint51_linear_294_16113)" stroke-opacity="0.3"/>
<path d="M43.3379 873.263C163.707 1002.34 294.416 1098.9 408.421 1150.68C465.425 1176.57 518.229 1191.26 563.463 1193.23C608.694 1195.2 646.314 1184.46 673.024 1159.55C699.734 1134.64 713.072 1097.86 714.261 1052.6C715.45 1007.34 704.485 953.644 682.635 894.973C638.934 777.634 551.728 640.508 431.358 511.428C310.989 382.348 180.281 285.788 66.2753 234.009C9.27156 208.119 -43.5327 193.435 -88.7664 191.464C-133.998 189.493 -171.618 200.232 -198.328 225.14C-225.038 250.047 -238.376 286.827 -239.565 332.085C-240.753 377.346 -229.789 431.046 -207.938 489.717C-164.238 607.057 -77.0312 744.183 43.3379 873.263Z" stroke="url(#paint52_linear_294_16113)" stroke-opacity="0.3"/>
<path d="M46.5285 876.62C169.132 1003.58 301.506 1097.84 416.398 1147.62C473.845 1172.52 526.897 1186.28 572.158 1187.46C617.417 1188.64 654.844 1177.24 681.115 1151.87C707.387 1126.5 720.081 1089.5 720.479 1044.23C720.878 998.95 708.978 945.45 686.107 887.169C640.365 770.61 550.779 635.027 428.175 508.068C305.572 381.108 173.198 286.844 58.3059 237.063C0.859008 212.171 -52.1935 198.411 -97.4547 197.23C-142.713 196.049 -180.141 207.443 -206.412 232.813C-232.683 258.183 -245.377 295.19 -245.776 340.462C-246.175 385.737 -234.275 439.237 -211.403 497.518C-165.662 614.077 -76.075 749.66 46.5285 876.62Z" stroke="url(#paint53_linear_294_16113)" stroke-opacity="0.3"/>
<path d="M49.7705 879.921C174.571 1004.72 308.57 1096.66 424.313 1144.43C482.186 1168.31 535.47 1181.15 580.745 1181.54C626.018 1181.93 663.24 1169.88 689.065 1144.06C714.889 1118.23 726.935 1081.01 726.544 1035.74C726.152 990.464 713.321 937.18 689.436 879.307C641.667 763.564 549.727 629.565 424.927 504.765C300.126 379.964 166.127 288.025 50.3843 240.256C-7.48825 216.371 -60.7728 203.539 -106.048 203.148C-151.32 202.757 -188.543 214.803 -214.367 240.627C-240.192 266.452 -252.238 303.674 -251.846 348.947C-251.455 394.221 -238.623 447.506 -214.738 505.379C-166.97 621.122 -75.0301 755.12 49.7705 879.921Z" stroke="url(#paint54_linear_294_16113)" stroke-opacity="0.3"/>
<path d="M53.0731 883.168C180.033 1005.77 315.616 1095.36 432.175 1141.1C490.456 1163.97 543.956 1175.87 589.231 1175.47C634.503 1175.07 671.51 1162.38 696.88 1136.11C722.249 1109.84 733.644 1072.41 732.463 1027.15C731.281 981.89 717.521 928.837 692.63 871.39C642.849 756.499 548.585 624.125 421.625 501.521C294.665 378.918 159.082 289.331 42.5232 243.589C-15.7574 220.718 -69.2578 208.818 -114.533 209.217C-159.805 209.616 -196.812 222.31 -222.182 248.581C-247.551 274.852 -258.946 312.279 -257.765 357.538C-256.583 402.799 -242.823 455.852 -217.932 513.299C-168.151 628.19 -73.8865 760.564 53.0731 883.168Z" stroke="url(#paint55_linear_294_16113)" stroke-opacity="0.3"/>
<path d="M56.4361 886.354C185.516 1006.72 322.642 1093.93 439.982 1137.63C498.653 1159.48 552.353 1170.45 597.613 1169.26C642.872 1168.07 679.651 1154.73 704.559 1128.02C729.466 1101.31 740.206 1063.69 738.235 1018.46C736.264 973.225 721.58 920.421 695.69 863.417C643.911 749.412 547.351 618.703 418.271 498.334C289.191 377.965 152.065 290.758 34.7255 247.058C-23.9454 225.207 -77.6453 214.243 -122.906 215.431C-168.165 216.62 -204.944 229.958 -229.852 256.668C-254.759 283.378 -265.499 320.998 -263.528 366.23C-261.557 411.463 -246.873 464.268 -220.983 521.271C-169.204 635.277 -72.644 765.985 56.4361 886.354Z" stroke="url(#paint56_linear_294_16113)" stroke-opacity="0.3"/>
<path d="M59.8449 889.483C191.006 1007.58 329.633 1092.38 447.717 1134.03C506.761 1154.85 560.644 1164.88 605.877 1162.9C651.108 1160.92 687.649 1146.94 712.087 1119.8C736.524 1092.66 746.606 1054.86 743.846 1009.67C741.085 964.476 725.482 911.936 698.601 855.393C644.84 742.308 546.014 613.305 414.853 495.207C283.692 377.109 145.065 292.308 26.9804 250.663C-32.0629 229.839 -85.946 219.814 -131.179 221.792C-176.41 223.771 -212.951 237.749 -237.389 264.889C-261.826 292.03 -271.908 329.832 -269.148 375.022C-266.387 420.214 -250.784 472.754 -223.903 529.297C-170.143 642.382 -71.3163 771.385 59.8449 889.483Z" stroke="url(#paint57_linear_294_16113)" stroke-opacity="0.3"/>
<path d="M63.317 892.551C196.519 1008.34 336.605 1090.71 455.398 1130.29C514.796 1150.08 568.846 1159.16 614.038 1156.39C659.227 1153.63 695.519 1139.01 719.479 1111.45C743.439 1083.89 752.859 1045.92 749.311 1000.78C745.762 955.643 729.245 903.383 701.381 847.318C645.655 735.189 544.592 607.93 411.39 492.139C278.188 376.348 138.102 293.98 19.3085 254.401C-40.0892 234.612 -94.1391 225.528 -139.331 228.296C-184.521 231.063 -220.812 245.677 -244.772 273.24C-268.732 300.803 -278.153 338.775 -274.604 383.91C-271.056 429.047 -254.538 481.307 -226.674 537.372C-170.948 649.501 -69.8853 776.76 63.317 892.551Z" stroke="url(#paint58_linear_294_16113)" stroke-opacity="0.3"/>
<path d="M66.8359 895.556C202.039 1009 343.541 1088.92 463.007 1126.42C522.741 1145.17 576.941 1153.3 622.078 1149.75C667.212 1146.19 703.243 1130.95 726.718 1102.97C750.194 1074.99 758.95 1036.86 754.614 991.797C750.278 946.728 732.851 894.765 704.013 839.194C646.339 728.055 543.07 602.579 407.868 489.131C272.665 375.682 131.163 295.771 11.697 258.272C-48.0371 239.522 -102.237 231.383 -147.374 234.939C-192.508 238.495 -228.539 253.739 -252.015 281.716C-275.49 309.693 -284.246 347.824 -279.911 392.89C-275.575 437.958 -258.148 489.922 -229.31 545.493C-171.635 656.632 -68.3668 782.108 66.8359 895.556Z" stroke="url(#paint59_linear_294_16113)" stroke-opacity="0.3"/>
<path d="M70.4095 898.504C207.572 1009.58 350.447 1087 470.549 1122.41C530.601 1140.12 584.935 1147.31 630.003 1142.97C675.068 1138.62 710.828 1122.75 733.811 1094.37C756.795 1065.99 764.884 1027.71 759.763 982.727C754.641 937.741 736.31 886.089 706.506 831.03C646.901 720.915 541.458 597.26 404.296 486.188C267.134 375.117 124.259 297.688 4.1567 262.279C-55.8955 244.574 -110.229 237.382 -155.297 241.726C-200.363 246.069 -236.122 261.94 -259.106 290.322C-282.089 318.704 -290.179 356.982 -285.057 401.966C-279.935 446.952 -261.604 498.603 -231.801 553.662C-172.195 663.778 -66.7527 787.432 70.4095 898.504Z" stroke="url(#paint60_linear_294_16113)" stroke-opacity="0.3"/>
<path d="M74.031 901.385C213.111 1010.05 357.315 1084.97 478.017 1118.28C538.369 1134.93 592.82 1141.17 637.806 1136.04C682.788 1130.92 718.265 1114.42 740.75 1085.64C763.235 1056.86 770.655 1018.45 764.749 973.564C758.843 928.674 739.613 877.351 708.853 822.82C647.335 713.762 539.751 591.966 400.671 483.305C261.591 374.644 117.386 299.72 -3.31531 266.413C-63.6674 249.759 -118.119 243.517 -163.104 248.646C-208.086 253.775 -243.563 270.267 -266.048 299.047C-288.533 327.826 -295.953 366.239 -290.047 411.126C-284.141 456.016 -264.911 507.34 -234.151 561.87C-172.633 670.929 -65.0487 792.724 74.031 901.385Z" stroke="url(#paint61_linear_294_16113)" stroke-opacity="0.3"/>
<path d="M77.706 904.204C218.661 1010.42 364.151 1082.82 485.416 1114.01C546.049 1129.61 600.601 1134.9 645.49 1128.99C690.376 1123.08 725.56 1105.97 747.539 1076.8C769.518 1047.63 776.267 1009.09 769.579 964.317C762.89 919.538 742.767 868.557 711.06 814.572C647.648 706.604 537.955 586.704 397 480.487C256.045 374.27 110.554 301.874 -10.7102 270.679C-71.3437 255.081 -125.896 249.79 -170.784 255.703C-215.671 261.616 -250.854 278.725 -272.834 307.893C-294.813 337.06 -301.561 375.597 -294.873 420.374C-288.184 465.154 -268.061 516.134 -236.355 570.119C-172.943 678.088 -63.2489 797.987 77.706 904.204Z" stroke="url(#paint62_linear_294_16113)" stroke-opacity="0.3"/>
<path d="M81.4245 906.957C224.212 1010.7 370.943 1080.54 492.734 1109.62C553.631 1124.16 608.266 1128.49 653.045 1121.8C697.821 1115.1 732.701 1097.38 754.168 1067.83C775.635 1038.29 781.71 999.64 774.241 954.986C766.772 910.33 745.762 859.708 713.118 806.285C647.831 699.439 536.062 581.473 393.275 477.732C250.487 373.991 103.756 304.145 -18.0348 275.071C-78.9313 260.534 -133.567 256.195 -178.346 262.891C-223.122 269.587 -258.002 287.307 -279.469 316.854C-300.935 346.4 -307.01 385.049 -299.542 429.703C-292.073 474.359 -271.063 524.98 -238.419 578.404C-173.132 685.249 -61.3627 803.216 81.4245 906.957Z" stroke="url(#paint63_linear_294_16113)" stroke-opacity="0.3"/>
<path d="M85.1958 909.646C229.772 1010.88 377.7 1078.15 499.98 1105.1C561.121 1118.57 615.824 1121.95 660.479 1114.48C705.132 1107 739.697 1088.67 760.645 1058.76C781.592 1028.84 786.992 990.093 778.745 945.576C770.498 901.057 748.608 850.81 715.036 797.964C647.895 692.275 534.083 576.277 389.508 475.044C244.932 373.81 97.0032 306.536 -25.2763 279.592C-86.4172 266.119 -141.121 262.735 -185.776 270.212C-230.428 277.688 -264.993 296.014 -285.941 325.931C-306.889 355.848 -312.289 394.596 -304.042 439.113C-295.794 483.632 -273.905 533.879 -240.333 586.725C-173.191 692.414 -59.3802 808.413 85.1958 909.646Z" stroke="url(#paint64_linear_294_16113)" stroke-opacity="0.3"/>
<path d="M89.0098 912.268C235.331 1010.96 384.41 1075.64 507.142 1100.45C568.508 1112.85 623.262 1115.28 667.78 1107.03C712.296 1098.77 746.536 1079.85 766.958 1049.57C787.381 1019.29 792.103 980.455 783.08 936.089C774.057 891.721 751.294 841.863 716.805 789.612C647.829 685.11 532.011 571.116 385.69 472.421C239.37 373.727 90.2896 309.045 -32.4415 284.238C-93.8082 271.835 -148.562 269.406 -193.08 277.661C-237.595 285.915 -271.836 304.842 -292.258 335.119C-312.681 365.397 -317.403 404.234 -308.38 448.6C-299.357 492.969 -276.594 542.826 -242.105 595.078C-173.129 699.579 -57.3109 813.573 89.0098 912.268Z" stroke="url(#paint65_linear_294_16113)" stroke-opacity="0.3"/>
<path d="M92.8699 914.823C240.891 1010.95 391.077 1073.02 514.222 1095.68C575.796 1107.01 630.584 1108.48 674.951 1099.45C719.316 1090.42 753.22 1070.9 773.111 1040.27C793.002 1009.64 797.046 970.729 787.25 926.527C777.454 882.323 753.824 832.871 718.429 781.229C647.64 677.947 529.85 565.991 381.829 469.865C233.808 373.74 83.6218 311.669 -39.5236 289.009C-101.097 277.678 -155.886 276.205 -200.252 285.235C-244.617 294.265 -278.522 313.787 -298.412 344.417C-318.303 375.046 -322.347 413.96 -312.552 458.161C-302.756 502.366 -279.126 551.818 -243.731 603.46C-172.941 706.742 -55.151 818.697 92.8699 914.823Z" stroke="url(#paint66_linear_294_16113)" stroke-opacity="0.3"/>
<path d="M96.7739 917.314C246.45 1010.84 397.696 1070.28 521.218 1090.79C582.981 1101.04 637.786 1101.56 681.988 1091.76C726.189 1081.95 759.747 1061.84 779.101 1030.87C798.454 999.9 801.818 960.922 791.253 916.898C780.687 872.871 756.197 823.839 719.906 772.823C647.325 670.792 527.599 560.909 377.923 467.381C228.247 373.853 77.0007 314.414 -46.5214 293.906C-108.284 283.651 -163.089 283.135 -207.292 292.938C-251.492 302.741 -285.05 322.852 -304.404 353.823C-323.757 384.795 -327.121 423.774 -316.556 467.798C-305.99 511.824 -281.5 560.856 -245.209 611.873C-172.628 713.904 -52.9021 823.786 96.7739 917.314Z" stroke="url(#paint67_linear_294_16113)" stroke-opacity="0.3"/>
<path d="M100.723 919.729C252.009 1010.63 404.27 1067.42 528.131 1085.77C590.063 1094.95 644.869 1094.51 688.894 1083.93C732.916 1073.36 766.119 1052.67 784.928 1021.36C803.738 990.057 806.422 951.026 795.09 907.193C783.757 863.357 758.415 814.76 721.239 764.385C646.889 663.636 525.263 555.859 373.978 464.958C222.692 374.057 70.4313 317.265 -53.4299 298.916C-115.362 289.742 -170.168 290.182 -214.193 300.755C-258.215 311.327 -291.418 332.021 -310.227 363.326C-329.037 394.631 -331.721 433.662 -320.389 477.495C-309.056 521.33 -283.714 569.927 -246.538 620.303C-172.188 721.051 -50.562 828.828 100.723 919.729Z" stroke="url(#paint68_linear_294_16113)" stroke-opacity="0.3"/>
<path d="M104.714 922.083C257.563 1010.33 410.792 1064.46 534.955 1080.64C597.037 1088.73 651.827 1087.34 695.661 1076C739.492 1064.66 772.328 1043.39 790.589 1011.76C808.85 980.13 810.851 941.058 798.756 897.43C786.66 853.799 760.474 805.651 722.425 755.932C646.327 656.497 522.839 550.859 369.99 462.612C217.141 374.365 63.9124 320.239 -60.2501 304.055C-122.333 295.962 -177.123 297.359 -220.956 308.699C-264.787 320.038 -297.624 341.308 -315.884 372.936C-334.145 404.564 -336.147 443.636 -324.051 487.265C-311.955 530.896 -285.77 579.044 -247.72 628.762C-171.623 728.198 -48.1344 833.835 104.714 922.083Z" stroke="url(#paint69_linear_294_16113)" stroke-opacity="0.3"/>
<path d="M108.743 924.361C263.108 1009.93 417.258 1061.37 541.684 1075.39C603.899 1082.39 658.656 1080.04 702.285 1067.94C745.912 1055.84 778.372 1034 796.078 1002.05C813.784 970.111 815.103 931.01 802.248 887.599C789.392 844.186 762.37 796.503 723.459 747.456C645.638 649.363 520.325 545.897 365.959 460.331C211.593 374.764 57.4432 323.321 -66.9829 309.306C-129.197 302.298 -183.955 304.651 -227.583 316.754C-271.21 328.857 -303.67 350.696 -321.376 382.638C-339.082 414.581 -340.402 453.682 -327.547 497.092C-314.691 540.506 -287.669 588.189 -248.758 637.236C-170.936 735.329 -45.6232 838.795 108.743 924.361Z" stroke="url(#paint70_linear_294_16113)" stroke-opacity="0.3"/>
<path d="M112.808 926.568C268.643 1009.43 423.668 1058.17 548.319 1070.01C610.646 1075.93 665.354 1072.63 708.765 1059.76C752.174 1046.9 784.248 1024.5 801.394 992.252C818.54 960.006 819.177 920.888 805.566 877.708C791.955 834.526 764.105 787.321 724.343 738.961C644.822 642.241 517.722 540.978 361.887 458.119C206.051 375.259 51.0266 326.515 -73.6251 314.673C-135.952 308.752 -190.66 312.06 -234.071 324.923C-277.48 337.785 -309.554 360.187 -326.7 392.434C-343.846 424.68 -344.483 463.798 -330.872 506.978C-317.261 550.16 -289.41 597.365 -249.649 645.726C-170.127 742.445 -43.0279 843.708 112.808 926.568Z" stroke="url(#paint71_linear_294_16113)" stroke-opacity="0.3"/>
<path d="M116.916 928.706C274.173 1008.83 430.025 1054.86 554.864 1064.53C617.285 1069.36 671.927 1065.1 715.107 1051.48C758.285 1037.86 789.963 1014.9 806.543 982.363C823.124 949.822 823.078 910.699 808.716 867.763C794.353 824.825 765.683 778.114 725.084 730.455C643.886 635.138 515.039 536.108 357.781 455.981C200.523 375.854 44.6716 329.823 -80.1679 320.158C-142.589 315.326 -197.231 319.588 -240.411 333.206C-283.588 346.824 -315.267 369.783 -331.847 402.324C-348.427 434.865 -348.381 473.988 -334.019 516.924C-319.656 559.862 -290.987 606.573 -250.387 654.232C-169.19 749.549 -40.3423 848.579 116.916 928.706Z" stroke="url(#paint72_linear_294_16113)" stroke-opacity="0.3"/>
<path d="M121.062 930.775C279.694 1008.15 436.325 1051.45 561.314 1058.93C623.81 1062.68 678.369 1057.46 721.305 1043.09C764.239 1028.72 795.511 1005.21 811.521 972.389C827.531 939.564 826.802 900.447 811.693 857.769C796.583 815.088 767.103 768.884 725.677 721.94C642.829 628.055 512.273 531.289 353.64 453.919C195.008 376.549 38.377 333.244 -86.612 325.76C-149.108 322.018 -203.667 327.233 -246.603 341.603C-289.536 355.972 -320.809 379.481 -336.819 412.306C-352.829 445.131 -352.1 484.247 -336.991 526.926C-321.881 569.607 -292.4 615.811 -250.975 662.754C-168.127 756.639 -37.5704 853.405 121.062 930.775Z" stroke="url(#paint73_linear_294_16113)" stroke-opacity="0.3"/>
<path d="M125.241 932.769C285.2 1007.36 442.563 1047.92 567.663 1053.22C630.215 1055.88 684.675 1049.71 727.353 1034.59C770.029 1019.48 800.887 995.425 816.322 962.326C831.756 929.226 830.345 890.128 814.493 847.72C798.64 805.309 768.358 759.627 726.12 713.414C641.646 620.989 509.42 526.516 349.462 451.926C189.503 377.336 32.1404 336.772 -92.9603 331.47C-155.512 328.819 -209.972 334.986 -252.65 350.103C-295.326 365.219 -326.184 389.269 -341.619 422.369C-357.053 455.469 -355.642 494.566 -339.79 536.975C-323.937 579.385 -293.655 625.068 -251.417 671.281C-166.943 763.706 -34.7174 858.179 125.241 932.769Z" stroke="url(#paint74_linear_294_16113)" stroke-opacity="0.3"/>
<path d="M129.457 934.687C290.692 1006.47 448.739 1044.29 573.914 1047.4C636.502 1048.96 690.846 1041.85 733.254 1025.99C775.66 1010.13 806.093 985.543 820.948 952.179C835.802 918.815 833.709 879.748 817.119 837.622C800.529 795.495 769.454 750.348 726.416 704.879C640.341 613.942 506.487 521.792 345.251 450.005C184.015 378.218 25.9684 340.406 -99.2057 337.288C-161.794 335.73 -216.138 342.845 -258.546 358.705C-300.952 374.564 -331.385 399.149 -346.24 432.513C-361.094 465.877 -359.001 504.944 -342.411 547.07C-325.821 589.197 -294.746 634.344 -251.708 679.813C-165.633 770.75 -31.7794 862.9 129.457 934.687Z" stroke="url(#paint75_linear_294_16113)" stroke-opacity="0.3"/>
<path d="M133.695 936.533C296.159 1005.5 454.842 1040.54 580.051 1041.48C642.657 1041.94 696.869 1033.88 738.993 1017.28C781.116 1000.68 811.116 975.572 825.386 941.954C839.656 908.336 836.881 869.311 819.559 827.482C802.235 785.65 770.377 741.052 726.552 696.341C638.904 606.921 503.462 517.12 340.998 448.158C178.533 379.196 19.8507 344.148 -105.359 343.216C-167.965 342.75 -222.176 350.813 -264.301 367.41C-306.424 384.007 -336.423 409.12 -350.693 442.738C-364.963 476.356 -362.188 515.38 -344.866 557.21C-327.543 599.041 -295.685 643.639 -251.86 688.35C-164.211 777.771 -28.7695 867.571 133.695 936.533Z" stroke="url(#paint76_linear_294_16113)" stroke-opacity="0.3"/>
<path d="M137.975 938.305C301.618 1004.42 460.888 1036.69 586.095 1035.44C648.699 1034.81 702.762 1025.81 744.591 1008.48C786.417 991.147 815.974 965.515 829.655 931.653C843.336 897.791 839.881 858.82 821.831 817.3C803.781 775.777 771.149 731.742 726.55 687.802C637.354 599.925 500.366 512.502 336.723 446.386C173.08 380.27 13.8097 347.997 -111.397 349.25C-174.002 349.876 -228.064 358.884 -269.893 376.214C-311.719 393.543 -341.276 419.176 -354.957 453.038C-368.638 486.9 -365.183 525.87 -347.133 567.391C-329.083 608.914 -296.451 652.949 -251.852 696.888C-162.656 784.765 -25.6681 872.188 137.975 938.305Z" stroke="url(#paint77_linear_294_16113)" stroke-opacity="0.3"/>
<path d="M142.284 940.001C307.056 1003.25 466.865 1032.74 592.031 1029.3C654.615 1027.58 708.512 1017.63 750.032 999.575C791.55 981.519 820.654 955.374 833.742 921.279C846.831 887.183 842.695 848.279 823.924 807.08C805.151 765.878 771.756 722.419 726.397 679.265C635.681 592.958 497.188 507.939 332.416 444.689C167.644 381.439 7.83507 351.95 -117.331 355.388C-179.915 357.107 -233.812 367.058 -275.332 385.115C-316.849 403.171 -345.954 429.316 -359.042 463.411C-372.13 497.507 -367.995 536.411 -349.224 577.61C-330.451 618.812 -297.056 662.271 -251.697 705.425C-160.981 791.732 -22.4882 876.751 142.284 940.001Z" stroke="url(#paint78_linear_294_16113)" stroke-opacity="0.3"/>
<path d="M146.617 941.62C312.468 1001.98 472.767 1028.68 597.854 1023.06C660.399 1020.25 714.114 1009.36 755.312 990.578C796.509 971.8 825.153 945.151 837.644 910.832C850.135 876.514 845.321 837.688 825.834 796.822C806.345 755.955 772.196 713.085 726.091 670.729C633.883 586.018 493.927 503.429 328.076 443.065C162.226 382.7 1.92596 356.005 -123.161 361.627C-185.705 364.438 -239.42 375.327 -280.619 394.106C-321.815 412.885 -350.459 439.533 -362.95 473.852C-375.441 508.171 -370.628 546.997 -351.14 587.862C-331.651 628.73 -297.503 671.599 -251.398 713.955C-159.189 798.666 -19.2336 881.255 146.617 941.62Z" stroke="url(#paint79_linear_294_16113)" stroke-opacity="0.3"/>
<path d="M150.987 943.168C317.866 1000.63 478.607 1024.52 603.576 1016.72C666.062 1012.82 719.579 1000.99 760.444 981.496C801.306 962.001 829.481 934.857 841.371 900.325C853.261 865.794 847.771 827.058 827.573 786.539C807.374 746.017 772.482 703.751 725.645 662.206C631.972 579.117 490.596 498.983 323.717 441.522C156.838 384.061 -3.90268 360.168 -128.872 367.972C-191.358 371.874 -244.875 383.699 -285.74 403.195C-326.602 422.689 -354.776 449.833 -366.667 484.365C-378.557 518.896 -373.066 557.632 -352.869 598.151C-332.67 638.673 -297.778 680.939 -250.941 722.485C-157.268 805.573 -15.8922 885.707 150.987 943.168Z" stroke="url(#paint80_linear_294_16113)" stroke-opacity="0.3"/>
<path d="M155.373 944.637C323.23 999.177 484.363 1020.26 609.178 1010.28C671.586 1005.29 724.889 992.528 765.406 972.322C805.922 952.117 833.619 924.486 844.905 889.752C856.19 855.018 850.025 816.384 829.123 776.223C808.22 736.061 772.596 694.409 725.041 653.688C629.932 572.247 487.179 494.593 319.323 440.053C151.466 385.513 -9.66718 364.428 -134.481 374.412C-196.89 379.404 -250.192 392.162 -290.71 412.367C-331.226 432.572 -358.923 460.204 -370.208 494.938C-381.494 529.672 -375.328 568.306 -354.427 608.466C-333.523 648.629 -297.899 690.28 -250.344 731.002C-155.236 812.443 -12.4829 890.097 155.373 944.637Z" stroke="url(#paint81_linear_294_16113)" stroke-opacity="0.3"/>
<path d="M159.789 946.028C328.572 997.63 490.049 1015.9 614.67 1003.74C676.981 997.658 730.053 983.973 770.212 963.063C810.369 942.154 837.579 914.043 848.257 879.118C858.935 844.192 852.096 805.671 830.497 765.882C808.896 726.09 772.55 685.067 724.292 645.182C627.776 565.413 483.69 490.262 314.907 438.66C146.124 387.058 -15.3525 368.789 -139.974 380.949C-202.285 387.03 -255.357 400.716 -295.516 421.625C-335.673 442.534 -362.883 470.645 -373.561 505.57C-384.239 540.496 -377.4 579.017 -355.8 618.806C-334.2 658.598 -297.854 699.621 -249.595 739.506C-153.08 819.275 -8.99369 894.426 159.789 946.028Z" stroke="url(#paint82_linear_294_16113)" stroke-opacity="0.3"/>
<path d="M164.228 947.343C333.885 995.991 495.656 1011.44 620.046 997.106C682.242 989.939 735.067 975.329 774.855 953.721C814.641 932.115 841.357 903.534 851.423 868.427C861.49 833.32 853.98 794.925 831.689 755.518C809.397 716.11 772.341 675.727 723.394 636.69C625.501 558.618 480.125 485.993 310.467 437.344C140.81 388.696 -20.9614 373.248 -145.351 387.582C-207.547 394.749 -260.372 409.358 -300.16 430.966C-339.946 452.572 -366.662 481.154 -376.728 516.26C-386.795 551.367 -379.285 589.762 -356.994 629.169C-334.702 668.577 -297.646 708.96 -248.699 747.997C-150.806 826.069 -5.42992 898.694 164.228 947.343Z" stroke="url(#paint83_linear_294_16113)" stroke-opacity="0.3"/>
<path d="M168.692 948.581C339.173 994.261 501.189 1006.88 625.309 990.381C687.371 982.13 739.933 966.6 779.338 944.302C818.74 922.004 844.953 892.961 854.405 857.684C863.858 822.407 855.679 784.148 832.704 745.137C809.727 706.124 771.972 666.394 722.351 628.217C623.111 551.865 476.489 481.788 306.008 436.108C135.528 390.428 -26.4885 377.806 -150.609 394.308C-212.671 402.559 -265.232 418.089 -304.637 440.387C-344.04 462.685 -370.253 491.728 -379.705 527.005C-389.158 562.282 -380.979 600.541 -358.003 639.552C-335.027 678.566 -297.272 718.296 -247.651 756.472C-148.41 832.824 -1.78906 902.901 168.692 948.581Z" stroke="url(#paint84_linear_294_16113)" stroke-opacity="0.3"/>
<path d="M173.174 949.74C344.426 992.438 506.637 1002.23 630.451 983.564C692.359 974.231 744.642 957.786 783.652 934.804C822.659 911.822 848.361 882.326 857.196 846.889C866.032 811.452 857.186 773.342 833.534 734.738C809.88 696.131 771.437 657.066 721.157 619.762C620.599 545.153 472.777 477.646 301.525 434.948C130.273 392.25 -31.9383 382.457 -155.752 401.124C-217.66 410.457 -269.943 426.901 -308.953 449.884C-347.96 472.866 -373.662 502.362 -382.497 537.799C-391.333 573.235 -382.487 611.345 -358.835 649.95C-335.181 688.556 -296.738 727.621 -246.458 764.926C-145.9 839.535 1.92153 907.042 173.174 949.74Z" stroke="url(#paint85_linear_294_16113)" stroke-opacity="0.3"/>
<path d="M177.674 950.821C349.645 990.524 512.003 997.484 635.472 976.66C697.208 966.248 749.195 948.893 787.798 925.233C826.399 901.574 851.582 871.634 859.797 836.048C868.013 800.463 858.504 762.513 834.181 724.327C809.857 686.139 770.738 647.751 719.815 611.33C617.97 538.488 468.993 473.571 297.022 433.868C125.05 394.165 -37.3075 387.205 -160.777 408.029C-222.512 418.441 -274.5 435.796 -313.103 459.456C-351.703 483.115 -376.887 513.055 -385.102 548.641C-393.318 584.226 -383.808 622.176 -359.486 660.362C-335.162 698.55 -296.043 736.938 -245.12 773.359C-143.275 846.201 5.70246 911.118 177.674 950.821Z" stroke="url(#paint86_linear_294_16113)" stroke-opacity="0.3"/>
<path d="M182.196 951.822C354.834 988.518 517.289 992.643 640.376 969.668C701.92 958.179 753.597 939.92 791.781 915.59C829.963 891.261 854.62 860.886 862.213 825.162C869.806 789.439 859.636 751.661 834.651 713.905C809.664 676.148 769.881 638.448 718.33 602.921C615.23 531.867 465.142 469.56 292.504 432.865C119.866 396.17 -42.5887 392.044 -165.676 415.02C-227.22 426.508 -278.897 444.767 -317.081 469.097C-355.263 493.426 -379.92 523.802 -387.513 559.525C-395.106 595.248 -384.936 633.026 -359.951 670.782C-334.964 708.54 -295.181 746.239 -243.63 781.766C-140.53 852.82 9.55826 915.127 182.196 951.822Z" stroke="url(#paint87_linear_294_16113)" stroke-opacity="0.3"/>
<path d="M186.733 952.746C359.985 986.422 522.487 987.712 645.155 962.592C706.49 950.031 757.84 930.873 795.593 905.88C833.345 880.889 857.468 850.087 864.436 814.237C871.405 778.387 860.577 740.792 834.936 703.478C809.294 666.162 768.86 629.163 716.697 594.541C612.372 525.297 461.219 465.619 287.967 431.942C114.715 398.265 -47.7866 396.975 -170.454 422.096C-231.789 434.656 -283.139 453.815 -320.892 478.808C-358.644 503.799 -382.767 534.6 -389.735 570.451C-396.704 606.301 -385.876 643.896 -360.235 681.21C-334.594 718.526 -294.159 755.525 -241.996 790.147C-137.671 859.391 13.4815 919.069 186.733 952.746Z" stroke="url(#paint88_linear_294_16113)" stroke-opacity="0.3"/>
<path d="M191.286 953.588C365.1 984.236 527.6 982.69 649.81 955.433C710.916 941.804 761.924 921.752 799.236 896.104C836.545 870.458 860.127 839.24 866.469 803.273C872.811 767.307 861.328 729.907 835.04 693.046C808.751 656.184 767.677 619.895 714.917 586.189C609.4 518.777 457.229 461.746 283.416 431.098C109.602 400.45 -52.8974 401.996 -175.108 429.253C-236.214 442.882 -287.222 462.934 -324.534 488.582C-361.843 514.229 -385.425 545.446 -391.766 581.413C-398.108 617.379 -386.626 654.779 -360.338 691.64C-334.049 728.502 -292.975 764.791 -240.215 798.497C-134.698 865.909 17.4731 922.941 191.286 953.588Z" stroke="url(#paint89_linear_294_16113)" stroke-opacity="0.3"/>
<path d="M195.852 954.353C370.173 981.963 532.621 977.581 654.337 948.195C715.196 933.502 765.847 912.563 802.705 886.268C839.561 859.974 862.594 828.349 868.308 792.278C874.021 756.206 861.887 719.012 834.96 682.616C808.032 646.217 766.331 610.652 712.991 577.871C606.313 512.311 453.17 457.944 278.848 430.334C104.526 402.724 -57.9218 407.106 -179.638 436.493C-240.497 451.186 -291.147 472.125 -328.005 498.42C-364.862 524.714 -387.895 556.338 -393.608 592.41C-399.321 628.482 -387.188 665.676 -360.261 702.072C-333.332 738.47 -291.631 774.036 -238.291 806.817C-131.613 872.377 21.5298 926.744 195.852 954.353Z" stroke="url(#paint90_linear_294_16113)" stroke-opacity="0.3"/>
<path d="M200.433 955.039C375.21 979.603 537.557 972.386 658.742 940.88C719.335 925.127 769.612 903.307 806.006 876.373C842.398 849.44 864.875 817.418 869.958 781.252C875.041 745.086 862.26 708.11 834.702 672.189C807.142 636.266 764.827 601.434 710.923 569.589C603.117 505.9 449.049 454.215 274.272 429.651C99.4945 405.088 -62.8523 412.305 -184.037 443.811C-244.63 459.564 -294.908 481.383 -331.301 508.318C-367.693 535.251 -390.171 567.272 -395.253 603.438C-400.336 639.604 -387.556 676.581 -359.997 712.502C-332.438 748.424 -290.122 783.257 -236.218 815.102C-128.413 878.79 25.6561 930.476 200.433 955.039Z" stroke="url(#paint91_linear_294_16113)" stroke-opacity="0.3"/>
<path d="M205.02 955.643C380.199 977.153 542.395 967.104 663.011 933.488C723.321 916.679 773.21 893.986 809.128 866.42C845.044 838.856 866.959 806.447 871.41 770.198C875.861 733.949 862.437 697.201 834.256 661.766C806.073 626.33 763.157 592.242 708.705 561.342C599.804 499.545 444.857 450.556 269.678 429.047C94.4989 407.538 -67.6973 417.586 -188.313 451.202C-248.623 468.011 -298.512 490.704 -334.43 518.27C-370.346 545.834 -392.261 578.243 -396.712 614.492C-401.163 650.741 -387.739 687.489 -359.558 722.924C-331.375 758.36 -288.458 792.448 -234.007 823.348C-125.106 885.145 29.841 934.134 205.02 955.643Z" stroke="url(#paint92_linear_294_16113)" stroke-opacity="0.3"/>
<path d="M209.619 956.167C385.147 974.615 547.143 961.738 667.154 926.021C727.161 908.163 776.646 884.602 812.078 856.414C847.507 828.227 868.854 795.441 872.671 759.119C876.489 722.798 862.425 686.29 833.63 651.353C804.834 616.414 761.328 583.08 706.346 553.135C596.383 493.248 440.605 446.971 265.077 428.522C89.549 410.073 -72.4471 422.951 -192.458 458.667C-252.465 476.526 -301.95 500.086 -337.382 528.275C-372.811 556.461 -394.158 589.248 -397.975 625.569C-401.793 661.89 -387.729 698.399 -358.934 733.336C-330.138 768.275 -286.632 801.609 -231.65 831.553C-121.687 891.441 34.0913 937.718 209.619 956.167Z" stroke="url(#paint93_linear_294_16113)" stroke-opacity="0.3"/>
<path d="M214.229 956.61C390.052 971.993 551.799 956.29 671.168 918.485C730.854 899.582 779.921 875.161 814.855 846.359C849.787 817.558 870.558 784.404 873.741 748.021C876.924 711.639 862.226 675.382 832.825 640.953C803.423 606.522 759.343 573.951 703.846 544.971C592.855 487.012 436.293 443.461 260.469 428.078C84.6464 412.696 -77.1003 428.399 -196.47 466.204C-256.156 485.107 -305.222 509.528 -340.156 538.33C-375.089 567.131 -395.86 600.285 -399.043 636.667C-402.226 673.05 -387.527 709.307 -358.127 743.736C-328.725 778.167 -284.645 810.737 -229.148 839.717C-118.157 897.676 38.4058 941.228 214.229 956.61Z" stroke="url(#paint94_linear_294_16113)" stroke-opacity="0.3"/>
<path d="M218.844 956.974C394.909 969.285 556.357 950.762 675.048 910.879C734.395 890.937 783.028 865.664 817.454 836.256C851.879 806.85 872.068 773.339 874.615 736.906C877.163 700.474 861.834 664.479 831.837 630.568C801.839 596.655 757.197 564.859 701.203 536.852C589.217 480.839 431.918 440.026 255.854 427.715C79.7888 415.403 -81.6592 433.927 -200.351 473.809C-259.698 493.751 -308.33 519.025 -342.757 548.432C-377.181 577.838 -397.37 611.35 -399.918 647.782C-402.465 684.215 -387.136 720.21 -357.14 754.121C-327.141 788.033 -282.499 819.829 -226.505 847.836C-114.519 903.849 42.7794 944.662 218.844 956.974Z" stroke="url(#paint95_linear_294_16113)" stroke-opacity="0.3"/>
<path d="M223.468 957.256C399.721 966.493 560.821 945.154 678.798 903.206C737.788 882.232 785.972 856.113 819.88 826.109C853.786 796.107 873.387 762.248 875.299 725.777C877.21 689.306 861.255 653.584 830.671 620.201C800.085 586.817 754.895 555.806 698.421 528.78C585.475 474.73 427.488 436.669 251.235 427.432C74.982 418.195 -86.1181 439.533 -204.095 481.481C-263.085 502.455 -311.27 528.574 -345.177 558.578C-379.083 588.58 -398.684 622.439 -400.596 658.91C-402.507 695.381 -386.552 731.104 -355.968 764.486C-325.383 797.87 -280.192 828.882 -223.718 855.907C-110.772 909.957 47.2151 948.019 223.468 957.256Z" stroke="url(#paint96_linear_294_16113)" stroke-opacity="0.3"/>
<path d="M228.093 957.458C404.48 963.617 565.184 939.47 682.411 895.47C741.025 873.469 788.747 846.514 822.126 815.923C855.503 785.333 874.51 751.137 875.785 714.638C877.059 678.139 860.484 642.701 829.322 609.858C798.158 577.013 752.433 546.794 695.496 520.758C581.624 468.687 422.996 433.389 246.609 427.23C70.222 421.07 -90.4812 445.217 -207.708 489.218C-266.323 511.218 -314.044 538.174 -347.423 568.765C-380.8 599.354 -399.808 633.55 -401.082 670.049C-402.357 706.548 -385.781 741.986 -354.619 774.83C-323.456 807.675 -277.731 837.893 -220.794 863.929C-106.921 916 51.706 951.298 228.093 957.458Z" stroke="url(#paint97_linear_294_16113)" stroke-opacity="0.3"/>
<path d="M232.717 957.579C409.185 960.659 569.442 933.712 685.884 887.672C744.105 864.651 791.349 836.867 824.189 805.698C857.027 774.531 875.435 740.009 876.072 703.493C876.709 666.977 859.518 631.834 827.787 599.539C796.055 567.243 749.81 537.827 692.427 512.789C577.663 462.713 418.444 430.189 241.976 427.109C65.5086 424.029 -94.7487 450.976 -211.19 497.016C-269.412 520.037 -316.656 547.821 -349.495 578.99C-382.334 610.157 -400.741 644.679 -401.379 681.195C-402.016 717.711 -384.824 752.854 -353.094 785.149C-321.362 817.445 -275.117 846.861 -217.734 871.899C-102.97 921.975 56.2492 954.499 232.717 957.579Z" stroke="url(#paint98_linear_294_16113)" stroke-opacity="0.3"/>
<path d="M237.348 957.619C413.843 957.619 573.605 927.879 689.226 879.814C747.037 855.781 793.788 827.177 826.079 795.439C858.369 763.703 876.171 728.865 876.171 692.344C876.171 655.823 858.369 620.984 826.079 589.249C793.788 557.511 747.037 528.907 689.226 504.874C573.605 456.809 413.843 427.068 237.348 427.068C60.8534 427.068 -98.9091 456.809 -214.529 504.874C-272.341 528.907 -319.092 557.511 -351.383 589.249C-383.672 620.984 -401.475 655.823 -401.475 692.344C-401.475 728.865 -383.672 763.703 -351.383 795.439C-319.092 827.177 -272.341 855.781 -214.529 879.814C-98.9091 927.879 60.8534 957.619 237.348 957.619Z" stroke="url(#paint99_linear_294_16113)" stroke-opacity="0.3"/>
<defs>
<linearGradient id="paint0_linear_294_16113" x1="390.309" y1="717.911" x2="78.0625" y2="668.456" gradientUnits="userSpaceOnUse">
<stop stop-color="#FF7400"/>
<stop offset="1" stop-color="#121212"/>
</linearGradient>
<linearGradient id="paint1_linear_294_16113" x1="390.734" y1="715.24" x2="77.6722" y2="671.242" gradientUnits="userSpaceOnUse">
<stop stop-color="#FF7400"/>
<stop offset="1" stop-color="#121212"/>
</linearGradient>
<linearGradient id="paint2_linear_294_16113" x1="391.112" y1="712.558" x2="77.3304" y2="674.03" gradientUnits="userSpaceOnUse">
<stop stop-color="#FF7400"/>
<stop offset="1" stop-color="#121212"/>
</linearGradient>
<linearGradient id="paint3_linear_294_16113" x1="391.438" y1="709.87" x2="77.032" y2="676.825" gradientUnits="userSpaceOnUse">
<stop stop-color="#FF7400"/>
<stop offset="1" stop-color="#121212"/>
</linearGradient>
<linearGradient id="paint4_linear_294_16113" x1="391.725" y1="707.182" x2="76.7895" y2="679.628" gradientUnits="userSpaceOnUse">
<stop stop-color="#FF7400"/>
<stop offset="1" stop-color="#121212"/>
</linearGradient>
<linearGradient id="paint5_linear_294_16113" x1="391.958" y1="704.483" x2="76.5902" y2="682.43" gradientUnits="userSpaceOnUse">
<stop stop-color="#FF7400"/>
<stop offset="1" stop-color="#121212"/>
</linearGradient>
<linearGradient id="paint6_linear_294_16113" x1="392.147" y1="701.785" x2="76.4422" y2="685.24" gradientUnits="userSpaceOnUse">
<stop stop-color="#FF7400"/>
<stop offset="1" stop-color="#121212"/>
</linearGradient>
<linearGradient id="paint7_linear_294_16113" x1="392.286" y1="699.078" x2="76.3405" y2="688.045" gradientUnits="userSpaceOnUse">
<stop stop-color="#FF7400"/>
<stop offset="1" stop-color="#121212"/>
</linearGradient>
<linearGradient id="paint8_linear_294_16113" x1="392.376" y1="696.375" x2="76.2858" y2="690.857" gradientUnits="userSpaceOnUse">
<stop stop-color="#FF7400"/>
<stop offset="1" stop-color="#121212"/>
</linearGradient>
<linearGradient id="paint9_linear_294_16113" x1="392.427" y1="693.668" x2="76.2885" y2="693.668" gradientUnits="userSpaceOnUse">
<stop stop-color="#FF7400"/>
<stop offset="1" stop-color="#121212"/>
</linearGradient>
<linearGradient id="paint10_linear_294_16113" x1="392.427" y1="690.961" x2="76.337" y2="696.479" gradientUnits="userSpaceOnUse">
<stop stop-color="#FF7400"/>
<stop offset="1" stop-color="#121212"/>
</linearGradient>
<linearGradient id="paint11_linear_294_16113" x1="392.378" y1="688.256" x2="76.4321" y2="699.289" gradientUnits="userSpaceOnUse">
<stop stop-color="#FF7400"/>
<stop offset="1" stop-color="#121212"/>
</linearGradient>
<linearGradient id="paint12_linear_294_16113" x1="392.285" y1="685.55" x2="76.5799" y2="702.096" gradientUnits="userSpaceOnUse">
<stop stop-color="#FF7400"/>
<stop offset="1" stop-color="#121212"/>
</linearGradient>
<linearGradient id="paint13_linear_294_16113" x1="392.141" y1="682.847" x2="76.7732" y2="704.9" gradientUnits="userSpaceOnUse">
<stop stop-color="#FF7400"/>
<stop offset="1" stop-color="#121212"/>
</linearGradient>
<linearGradient id="paint14_linear_294_16113" x1="391.955" y1="680.147" x2="77.0202" y2="707.701" gradientUnits="userSpaceOnUse">
<stop stop-color="#FF7400"/>
<stop offset="1" stop-color="#121212"/>
</linearGradient>
<linearGradient id="paint15_linear_294_16113" x1="391.716" y1="677.448" x2="77.3092" y2="710.494" gradientUnits="userSpaceOnUse">
<stop stop-color="#FF7400"/>
<stop offset="1" stop-color="#121212"/>
</linearGradient>
<linearGradient id="paint16_linear_294_16113" x1="391.435" y1="674.758" x2="77.6527" y2="713.286" gradientUnits="userSpaceOnUse">
<stop stop-color="#FF7400"/>
<stop offset="1" stop-color="#121212"/>
</linearGradient>
<linearGradient id="paint17_linear_294_16113" x1="391.106" y1="672.074" x2="78.0445" y2="716.072" gradientUnits="userSpaceOnUse">
<stop stop-color="#FF7400"/>
<stop offset="1" stop-color="#121212"/>
</linearGradient>
<linearGradient id="paint18_linear_294_16113" x1="390.726" y1="669.392" x2="78.4794" y2="718.847" gradientUnits="userSpaceOnUse">
<stop stop-color="#FF7400"/>
<stop offset="1" stop-color="#121212"/>
</linearGradient>
<linearGradient id="paint19_linear_294_16113" x1="390.301" y1="666.72" x2="78.9654" y2="721.617" gradientUnits="userSpaceOnUse">
<stop stop-color="#FF7400"/>
<stop offset="1" stop-color="#121212"/>
</linearGradient>
<linearGradient id="paint20_linear_294_16113" x1="389.833" y1="664.055" x2="79.5026" y2="724.377" gradientUnits="userSpaceOnUse">
<stop stop-color="#FF7400"/>
<stop offset="1" stop-color="#121212"/>
</linearGradient>
<linearGradient id="paint21_linear_294_16113" x1="389.317" y1="661.396" x2="80.0871" y2="727.125" gradientUnits="userSpaceOnUse">
<stop stop-color="#FF7400"/>
<stop offset="1" stop-color="#121212"/>
</linearGradient>
<linearGradient id="paint22_linear_294_16113" x1="388.749" y1="658.747" x2="80.7134" y2="729.863" gradientUnits="userSpaceOnUse">
<stop stop-color="#FF7400"/>
<stop offset="1" stop-color="#121212"/>
</linearGradient>
<linearGradient id="paint23_linear_294_16113" x1="388.141" y1="656.114" x2="81.3931" y2="732.594" gradientUnits="userSpaceOnUse">
<stop stop-color="#FF7400"/>
<stop offset="1" stop-color="#121212"/>
</linearGradient>
<linearGradient id="paint24_linear_294_16113" x1="387.487" y1="653.485" x2="82.1205" y2="735.308" gradientUnits="userSpaceOnUse">
<stop stop-color="#FF7400"/>
<stop offset="1" stop-color="#121212"/>
</linearGradient>
<linearGradient id="paint25_linear_294_16113" x1="386.785" y1="650.873" x2="82.8937" y2="738.012" gradientUnits="userSpaceOnUse">
<stop stop-color="#FF7400"/>
<stop offset="1" stop-color="#121212"/>
</linearGradient>
<linearGradient id="paint26_linear_294_16113" x1="386.039" y1="648.272" x2="83.7147" y2="740.702" gradientUnits="userSpaceOnUse">
<stop stop-color="#FF7400"/>
<stop offset="1" stop-color="#121212"/>
</linearGradient>
<linearGradient id="paint27_linear_294_16113" x1="385.245" y1="645.682" x2="84.5796" y2="743.374" gradientUnits="userSpaceOnUse">
<stop stop-color="#FF7400"/>
<stop offset="1" stop-color="#121212"/>
</linearGradient>
<linearGradient id="paint28_linear_294_16113" x1="384.411" y1="643.109" x2="85.496" y2="746.034" gradientUnits="userSpaceOnUse">
<stop stop-color="#FF7400"/>
<stop offset="1" stop-color="#121212"/>
</linearGradient>
<linearGradient id="paint29_linear_294_16113" x1="383.527" y1="640.547" x2="86.4543" y2="748.673" gradientUnits="userSpaceOnUse">
<stop stop-color="#FF7400"/>
<stop offset="1" stop-color="#121212"/>
</linearGradient>
<linearGradient id="paint30_linear_294_16113" x1="382.601" y1="638.004" x2="87.4602" y2="751.298" gradientUnits="userSpaceOnUse">
<stop stop-color="#FF7400"/>
<stop offset="1" stop-color="#121212"/>
</linearGradient>
<linearGradient id="paint31_linear_294_16113" x1="381.626" y1="635.477" x2="88.5076" y2="753.904" gradientUnits="userSpaceOnUse">
<stop stop-color="#FF7400"/>
<stop offset="1" stop-color="#121212"/>
</linearGradient>
<linearGradient id="paint32_linear_294_16113" x1="380.615" y1="632.971" x2="89.6085" y2="756.496" gradientUnits="userSpaceOnUse">
<stop stop-color="#FF7400"/>
<stop offset="1" stop-color="#121212"/>
</linearGradient>
<linearGradient id="paint33_linear_294_16113" x1="379.558" y1="630.478" x2="90.7509" y2="759.063" gradientUnits="userSpaceOnUse">
<stop stop-color="#FF7400"/>
<stop offset="1" stop-color="#121212"/>
</linearGradient>
<linearGradient id="paint34_linear_294_16113" x1="378.455" y1="628.006" x2="91.9365" y2="761.611" gradientUnits="userSpaceOnUse">
<stop stop-color="#FF7400"/>
<stop offset="1" stop-color="#121212"/>
</linearGradient>
<linearGradient id="paint35_linear_294_16113" x1="377.311" y1="625.553" x2="93.1673" y2="764.139" gradientUnits="userSpaceOnUse">
<stop stop-color="#FF7400"/>
<stop offset="1" stop-color="#121212"/>
</linearGradient>
<linearGradient id="paint36_linear_294_16113" x1="376.126" y1="623.119" x2="94.445" y2="766.643" gradientUnits="userSpaceOnUse">
<stop stop-color="#FF7400"/>
<stop offset="1" stop-color="#121212"/>
</linearGradient>
<linearGradient id="paint37_linear_294_16113" x1="374.899" y1="620.709" x2="95.7657" y2="769.127" gradientUnits="userSpaceOnUse">
<stop stop-color="#FF7400"/>
<stop offset="1" stop-color="#121212"/>
</linearGradient>
<linearGradient id="paint38_linear_294_16113" x1="373.624" y1="618.318" x2="97.1233" y2="771.584" gradientUnits="userSpaceOnUse">
<stop stop-color="#FF7400"/>
<stop offset="1" stop-color="#121212"/>
</linearGradient>
<linearGradient id="paint39_linear_294_16113" x1="372.313" y1="615.952" x2="98.5293" y2="774.021" gradientUnits="userSpaceOnUse">
<stop stop-color="#FF7400"/>
<stop offset="1" stop-color="#121212"/>
</linearGradient>
<linearGradient id="paint40_linear_294_16113" x1="370.961" y1="613.61" x2="99.9775" y2="776.433" gradientUnits="userSpaceOnUse">
<stop stop-color="#FF7400"/>
<stop offset="1" stop-color="#121212"/>
</linearGradient>
<linearGradient id="paint41_linear_294_16113" x1="369.563" y1="611.288" x2="101.462" y2="778.816" gradientUnits="userSpaceOnUse">
<stop stop-color="#FF7400"/>
<stop offset="1" stop-color="#121212"/>
</linearGradient>
<linearGradient id="paint42_linear_294_16113" x1="368.127" y1="608.992" x2="102.991" y2="781.173" gradientUnits="userSpaceOnUse">
<stop stop-color="#FF7400"/>
<stop offset="1" stop-color="#121212"/>
</linearGradient>
<linearGradient id="paint43_linear_294_16113" x1="366.652" y1="606.725" x2="104.561" y2="783.507" gradientUnits="userSpaceOnUse">
<stop stop-color="#FF7400"/>
<stop offset="1" stop-color="#121212"/>
</linearGradient>
<linearGradient id="paint44_linear_294_16113" x1="365.142" y1="604.48" x2="106.177" y2="785.81" gradientUnits="userSpaceOnUse">
<stop stop-color="#FF7400"/>
<stop offset="1" stop-color="#121212"/>
</linearGradient>
<linearGradient id="paint45_linear_294_16113" x1="363.588" y1="602.263" x2="107.826" y2="788.084" gradientUnits="userSpaceOnUse">
<stop stop-color="#FF7400"/>
<stop offset="1" stop-color="#121212"/>
</linearGradient>
<linearGradient id="paint46_linear_294_16113" x1="361.997" y1="600.071" x2="109.517" y2="790.328" gradientUnits="userSpaceOnUse">
<stop stop-color="#FF7400"/>
<stop offset="1" stop-color="#121212"/>
</linearGradient>
<linearGradient id="paint47_linear_294_16113" x1="360.366" y1="597.913" x2="111.245" y2="792.547" gradientUnits="userSpaceOnUse">
<stop stop-color="#FF7400"/>
<stop offset="1" stop-color="#121212"/>
</linearGradient>
<linearGradient id="paint48_linear_294_16113" x1="358.702" y1="595.781" x2="113.016" y2="794.733" gradientUnits="userSpaceOnUse">
<stop stop-color="#FF7400"/>
<stop offset="1" stop-color="#121212"/>
</linearGradient>
<linearGradient id="paint49_linear_294_16113" x1="356.996" y1="593.677" x2="114.82" y2="796.887" gradientUnits="userSpaceOnUse">
<stop stop-color="#FF7400"/>
<stop offset="1" stop-color="#121212"/>
</linearGradient>
<linearGradient id="paint50_linear_294_16113" x1="355.255" y1="591.603" x2="116.662" y2="799.008" gradientUnits="userSpaceOnUse">
<stop stop-color="#FF7400"/>
<stop offset="1" stop-color="#121212"/>
</linearGradient>
<linearGradient id="paint51_linear_294_16113" x1="353.481" y1="589.559" x2="118.545" y2="801.097" gradientUnits="userSpaceOnUse">
<stop stop-color="#FF7400"/>
<stop offset="1" stop-color="#121212"/>
</linearGradient>
<linearGradient id="paint52_linear_294_16113" x1="351.667" y1="587.551" x2="120.458" y2="803.157" gradientUnits="userSpaceOnUse">
<stop stop-color="#FF7400"/>
<stop offset="1" stop-color="#121212"/>
</linearGradient>
<linearGradient id="paint53_linear_294_16113" x1="349.825" y1="585.57" x2="122.414" y2="805.178" gradientUnits="userSpaceOnUse">
<stop stop-color="#FF7400"/>
<stop offset="1" stop-color="#121212"/>
</linearGradient>
<linearGradient id="paint54_linear_294_16113" x1="347.941" y1="583.623" x2="124.397" y2="807.166" gradientUnits="userSpaceOnUse">
<stop stop-color="#FF7400"/>
<stop offset="1" stop-color="#121212"/>
</linearGradient>
<linearGradient id="paint55_linear_294_16113" x1="346.027" y1="581.711" x2="126.419" y2="809.122" gradientUnits="userSpaceOnUse">
<stop stop-color="#FF7400"/>
<stop offset="1" stop-color="#121212"/>
</linearGradient>
<linearGradient id="paint56_linear_294_16113" x1="344.084" y1="579.83" x2="128.478" y2="811.039" gradientUnits="userSpaceOnUse">
<stop stop-color="#FF7400"/>
<stop offset="1" stop-color="#121212"/>
</linearGradient>
<linearGradient id="paint57_linear_294_16113" x1="342.1" y1="577.986" x2="130.562" y2="812.922" gradientUnits="userSpaceOnUse">
<stop stop-color="#FF7400"/>
<stop offset="1" stop-color="#121212"/>
</linearGradient>
<linearGradient id="paint58_linear_294_16113" x1="340.092" y1="576.175" x2="132.687" y2="814.768" gradientUnits="userSpaceOnUse">
<stop stop-color="#FF7400"/>
<stop offset="1" stop-color="#121212"/>
</linearGradient>
<linearGradient id="paint59_linear_294_16113" x1="338.048" y1="574.398" x2="134.838" y2="816.574" gradientUnits="userSpaceOnUse">
<stop stop-color="#FF7400"/>
<stop offset="1" stop-color="#121212"/>
</linearGradient>
<linearGradient id="paint60_linear_294_16113" x1="335.975" y1="572.661" x2="137.022" y2="818.347" gradientUnits="userSpaceOnUse">
<stop stop-color="#FF7400"/>
<stop offset="1" stop-color="#121212"/>
</linearGradient>
<linearGradient id="paint61_linear_294_16113" x1="333.869" y1="570.957" x2="139.235" y2="820.078" gradientUnits="userSpaceOnUse">
<stop stop-color="#FF7400"/>
<stop offset="1" stop-color="#121212"/>
</linearGradient>
<linearGradient id="paint62_linear_294_16113" x1="331.738" y1="569.292" x2="141.481" y2="821.771" gradientUnits="userSpaceOnUse">
<stop stop-color="#FF7400"/>
<stop offset="1" stop-color="#121212"/>
</linearGradient>
<linearGradient id="paint63_linear_294_16113" x1="329.573" y1="567.662" x2="143.751" y2="823.423" gradientUnits="userSpaceOnUse">
<stop stop-color="#FF7400"/>
<stop offset="1" stop-color="#121212"/>
</linearGradient>
<linearGradient id="paint64_linear_294_16113" x1="327.385" y1="566.072" x2="146.055" y2="825.037" gradientUnits="userSpaceOnUse">
<stop stop-color="#FF7400"/>
<stop offset="1" stop-color="#121212"/>
</linearGradient>
<linearGradient id="paint65_linear_294_16113" x1="325.166" y1="564.52" x2="148.383" y2="826.61" gradientUnits="userSpaceOnUse">
<stop stop-color="#FF7400"/>
<stop offset="1" stop-color="#121212"/>
</linearGradient>
<linearGradient id="paint66_linear_294_16113" x1="322.921" y1="563.006" x2="150.739" y2="828.142" gradientUnits="userSpaceOnUse">
<stop stop-color="#FF7400"/>
<stop offset="1" stop-color="#121212"/>
</linearGradient>
<linearGradient id="paint67_linear_294_16113" x1="320.649" y1="561.536" x2="153.122" y2="829.637" gradientUnits="userSpaceOnUse">
<stop stop-color="#FF7400"/>
<stop offset="1" stop-color="#121212"/>
</linearGradient>
<linearGradient id="paint68_linear_294_16113" x1="318.356" y1="560.098" x2="155.533" y2="831.082" gradientUnits="userSpaceOnUse">
<stop stop-color="#FF7400"/>
<stop offset="1" stop-color="#121212"/>
</linearGradient>
<linearGradient id="paint69_linear_294_16113" x1="316.037" y1="558.708" x2="157.968" y2="832.492" gradientUnits="userSpaceOnUse">
<stop stop-color="#FF7400"/>
<stop offset="1" stop-color="#121212"/>
</linearGradient>
<linearGradient id="paint70_linear_294_16113" x1="313.691" y1="557.354" x2="160.424" y2="833.855" gradientUnits="userSpaceOnUse">
<stop stop-color="#FF7400"/>
<stop offset="1" stop-color="#121212"/>
</linearGradient>
<linearGradient id="paint71_linear_294_16113" x1="311.32" y1="556.039" x2="162.902" y2="835.173" gradientUnits="userSpaceOnUse">
<stop stop-color="#FF7400"/>
<stop offset="1" stop-color="#121212"/>
</linearGradient>
<linearGradient id="paint72_linear_294_16113" x1="308.931" y1="554.769" x2="165.407" y2="836.451" gradientUnits="userSpaceOnUse">
<stop stop-color="#FF7400"/>
<stop offset="1" stop-color="#121212"/>
</linearGradient>
<linearGradient id="paint73_linear_294_16113" x1="306.522" y1="553.545" x2="167.936" y2="837.688" gradientUnits="userSpaceOnUse">
<stop stop-color="#FF7400"/>
<stop offset="1" stop-color="#121212"/>
</linearGradient>
<linearGradient id="paint74_linear_294_16113" x1="304.09" y1="552.359" x2="170.484" y2="838.878" gradientUnits="userSpaceOnUse">
<stop stop-color="#FF7400"/>
<stop offset="1" stop-color="#121212"/>
</linearGradient>
<linearGradient id="paint75_linear_294_16113" x1="301.639" y1="551.214" x2="173.054" y2="840.021" gradientUnits="userSpaceOnUse">
<stop stop-color="#FF7400"/>
<stop offset="1" stop-color="#121212"/>
</linearGradient>
<linearGradient id="paint76_linear_294_16113" x1="299.158" y1="550.113" x2="175.633" y2="841.12" gradientUnits="userSpaceOnUse">
<stop stop-color="#FF7400"/>
<stop offset="1" stop-color="#121212"/>
</linearGradient>
<linearGradient id="paint77_linear_294_16113" x1="296.669" y1="549.056" x2="178.242" y2="842.174" gradientUnits="userSpaceOnUse">
<stop stop-color="#FF7400"/>
<stop offset="1" stop-color="#121212"/>
</linearGradient>
<linearGradient id="paint78_linear_294_16113" x1="294.16" y1="548.042" x2="180.867" y2="843.183" gradientUnits="userSpaceOnUse">
<stop stop-color="#FF7400"/>
<stop offset="1" stop-color="#121212"/>
</linearGradient>
<linearGradient id="paint79_linear_294_16113" x1="291.63" y1="547.07" x2="183.504" y2="844.143" gradientUnits="userSpaceOnUse">
<stop stop-color="#FF7400"/>
<stop offset="1" stop-color="#121212"/>
</linearGradient>
<linearGradient id="paint80_linear_294_16113" x1="289.092" y1="546.148" x2="186.167" y2="845.062" gradientUnits="userSpaceOnUse">
<stop stop-color="#FF7400"/>
<stop offset="1" stop-color="#121212"/>
</linearGradient>
<linearGradient id="paint81_linear_294_16113" x1="286.528" y1="545.266" x2="188.836" y2="845.932" gradientUnits="userSpaceOnUse">
<stop stop-color="#FF7400"/>
<stop offset="1" stop-color="#121212"/>
</linearGradient>
<linearGradient id="paint82_linear_294_16113" x1="283.954" y1="544.43" x2="191.524" y2="846.754" gradientUnits="userSpaceOnUse">
<stop stop-color="#FF7400"/>
<stop offset="1" stop-color="#121212"/>
</linearGradient>
<linearGradient id="paint83_linear_294_16113" x1="281.365" y1="543.639" x2="194.225" y2="847.53" gradientUnits="userSpaceOnUse">
<stop stop-color="#FF7400"/>
<stop offset="1" stop-color="#121212"/>
</linearGradient>
<linearGradient id="paint84_linear_294_16113" x1="278.766" y1="542.894" x2="196.943" y2="848.26" gradientUnits="userSpaceOnUse">
<stop stop-color="#FF7400"/>
<stop offset="1" stop-color="#121212"/>
</linearGradient>
<linearGradient id="paint85_linear_294_16113" x1="276.15" y1="542.193" x2="199.67" y2="848.941" gradientUnits="userSpaceOnUse">
<stop stop-color="#FF7400"/>
<stop offset="1" stop-color="#121212"/>
</linearGradient>
<linearGradient id="paint86_linear_294_16113" x1="273.522" y1="541.54" x2="202.406" y2="849.575" gradientUnits="userSpaceOnUse">
<stop stop-color="#FF7400"/>
<stop offset="1" stop-color="#121212"/>
</linearGradient>
<linearGradient id="paint87_linear_294_16113" x1="270.887" y1="540.93" x2="205.158" y2="850.16" gradientUnits="userSpaceOnUse">
<stop stop-color="#FF7400"/>
<stop offset="1" stop-color="#121212"/>
</linearGradient>
<linearGradient id="paint88_linear_294_16113" x1="268.24" y1="540.368" x2="207.918" y2="850.698" gradientUnits="userSpaceOnUse">
<stop stop-color="#FF7400"/>
<stop offset="1" stop-color="#121212"/>
</linearGradient>
<linearGradient id="paint89_linear_294_16113" x1="265.584" y1="539.852" x2="210.687" y2="851.187" gradientUnits="userSpaceOnUse">
<stop stop-color="#FF7400"/>
<stop offset="1" stop-color="#121212"/>
</linearGradient>
<linearGradient id="paint90_linear_294_16113" x1="262.917" y1="539.383" x2="213.462" y2="851.629" gradientUnits="userSpaceOnUse">
<stop stop-color="#FF7400"/>
<stop offset="1" stop-color="#121212"/>
</linearGradient>
<linearGradient id="paint91_linear_294_16113" x1="260.246" y1="538.961" x2="216.248" y2="852.023" gradientUnits="userSpaceOnUse">
<stop stop-color="#FF7400"/>
<stop offset="1" stop-color="#121212"/>
</linearGradient>
<linearGradient id="paint92_linear_294_16113" x1="257.562" y1="538.585" x2="219.034" y2="852.367" gradientUnits="userSpaceOnUse">
<stop stop-color="#FF7400"/>
<stop offset="1" stop-color="#121212"/>
</linearGradient>
<linearGradient id="paint93_linear_294_16113" x1="254.874" y1="538.255" x2="221.829" y2="852.661" gradientUnits="userSpaceOnUse">
<stop stop-color="#FF7400"/>
<stop offset="1" stop-color="#121212"/>
</linearGradient>
<linearGradient id="paint94_linear_294_16113" x1="252.184" y1="537.972" x2="224.63" y2="852.908" gradientUnits="userSpaceOnUse">
<stop stop-color="#FF7400"/>
<stop offset="1" stop-color="#121212"/>
</linearGradient>
<linearGradient id="paint95_linear_294_16113" x1="249.487" y1="537.737" x2="227.434" y2="853.105" gradientUnits="userSpaceOnUse">
<stop stop-color="#FF7400"/>
<stop offset="1" stop-color="#121212"/>
</linearGradient>
<linearGradient id="paint96_linear_294_16113" x1="246.789" y1="537.548" x2="230.244" y2="853.253" gradientUnits="userSpaceOnUse">
<stop stop-color="#FF7400"/>
<stop offset="1" stop-color="#121212"/>
</linearGradient>
<linearGradient id="paint97_linear_294_16113" x1="244.086" y1="537.407" x2="233.053" y2="853.353" gradientUnits="userSpaceOnUse">
<stop stop-color="#FF7400"/>
<stop offset="1" stop-color="#121212"/>
</linearGradient>
<linearGradient id="paint98_linear_294_16113" x1="241.377" y1="537.313" x2="235.859" y2="853.404" gradientUnits="userSpaceOnUse">
<stop stop-color="#FF7400"/>
<stop offset="1" stop-color="#121212"/>
</linearGradient>
<linearGradient id="paint99_linear_294_16113" x1="238.672" y1="537.267" x2="238.672" y2="853.405" gradientUnits="userSpaceOnUse">
<stop stop-color="#FF7400"/>
<stop offset="1" stop-color="#121212"/>
</linearGradient>
</defs>
</svg>
