<svg width="588" height="1385" viewBox="0 0 588 1385" fill="none" xmlns="http://www.w3.org/2000/svg">
<path d="M430.338 650.846C402.728 825.167 407.11 987.616 436.496 1109.33C451.19 1170.19 472.129 1220.84 498.424 1257.7C524.718 1294.56 556.342 1317.59 592.414 1323.3C628.486 1329.01 665.68 1316.88 702.076 1289.95C738.474 1263.03 774.04 1221.32 806.82 1167.98C872.381 1061.31 926.747 908.164 954.357 733.842C981.967 559.52 977.585 397.072 948.199 275.357C933.505 214.497 912.567 163.847 886.272 126.989C859.978 90.1325 828.353 67.0993 792.282 61.3861C756.21 55.6729 719.016 67.8063 682.62 94.7334C646.221 121.662 610.656 163.363 577.875 216.703C512.315 323.381 457.948 476.524 430.338 650.846Z" stroke="url(#paint0_linear_294_16214)" stroke-opacity="0.3"/>
<path d="M429.656 655.427C405.093 830.204 412.309 992.551 443.815 1113.74C459.569 1174.33 481.388 1224.61 508.323 1261C535.256 1297.39 567.277 1319.87 603.443 1324.95C639.609 1330.04 676.586 1317.25 712.506 1289.7C748.429 1262.14 783.262 1219.82 815.106 1165.92C878.795 1058.11 930.481 904.043 955.044 729.266C979.607 554.489 972.391 392.142 940.885 270.957C925.131 210.364 903.312 160.087 876.377 123.693C849.444 87.3012 817.423 64.8235 781.257 59.7407C745.091 54.6579 708.114 67.4386 672.194 94.9968C636.271 122.556 601.438 164.872 569.594 218.776C505.905 326.582 454.219 480.65 429.656 655.427Z" stroke="url(#paint1_linear_294_16214)" stroke-opacity="0.3"/>
<path d="M429.054 660.016C407.545 835.195 417.593 997.391 451.21 1118.01C468.018 1178.32 490.712 1228.21 518.277 1264.12C545.841 1300.04 578.25 1321.96 614.499 1326.41C650.748 1330.86 687.497 1317.43 722.931 1289.25C758.367 1261.07 792.456 1218.15 823.355 1163.7C885.152 1054.8 934.141 899.853 955.65 724.674C977.16 549.495 967.111 387.299 933.495 266.683C916.686 206.374 893.993 156.485 866.427 120.567C838.863 84.6504 806.454 62.735 770.205 58.2841C733.956 53.8333 697.208 67.2573 661.774 95.4382C626.338 123.621 592.249 166.538 561.35 220.989C499.552 329.89 450.563 484.837 429.054 660.016Z" stroke="url(#paint2_linear_294_16214)" stroke-opacity="0.3"/>
<path d="M428.527 664.615C410.078 840.143 422.956 1002.14 458.672 1122.15C476.53 1182.16 500.091 1231.64 528.279 1267.07C556.466 1302.5 589.253 1323.85 625.574 1327.67C661.895 1331.48 698.403 1317.42 733.34 1288.63C768.279 1259.83 801.614 1216.32 831.558 1161.34C891.445 1051.38 937.723 895.601 956.171 720.073C974.62 544.545 961.742 382.549 926.026 262.538C908.168 202.531 884.607 153.046 856.419 117.614C828.232 82.1848 795.445 60.8384 759.124 57.0208C722.803 53.2033 686.295 67.2667 651.358 96.0617C616.419 124.858 583.084 168.364 553.14 223.346C493.253 333.309 446.975 489.087 428.527 664.615Z" stroke="url(#paint3_linear_294_16214)" stroke-opacity="0.3"/>
<path d="M428.087 669.227C412.704 845.05 428.407 1006.8 466.213 1126.17C485.115 1185.85 509.536 1234.92 538.339 1269.85C567.139 1304.79 600.294 1325.56 636.676 1328.74C673.058 1331.92 709.315 1317.22 743.745 1287.82C778.176 1258.42 810.746 1214.34 839.726 1158.84C897.685 1047.85 941.237 891.291 956.619 715.468C972.002 539.644 956.298 377.898 918.493 258.528C899.59 198.842 875.17 149.776 846.367 114.842C817.566 79.9094 784.412 59.1384 748.03 55.9553C711.648 52.7723 675.39 67.4706 640.961 96.871C606.53 126.273 573.96 170.353 544.98 225.85C487.021 336.841 443.469 493.404 428.087 669.227Z" stroke="url(#paint4_linear_294_16214)" stroke-opacity="0.3"/>
<path d="M427.722 673.84C415.41 849.905 433.934 1011.35 473.816 1130.04C493.758 1189.39 519.032 1238.02 548.439 1272.45C577.845 1306.87 611.357 1327.06 647.789 1329.61C684.222 1332.16 720.217 1316.83 754.128 1286.83C788.04 1256.84 819.836 1212.19 847.843 1156.2C903.856 1044.21 944.669 886.914 956.981 710.85C969.292 534.785 950.769 373.337 910.886 254.645C890.944 195.299 865.671 146.666 836.263 112.24C806.857 77.8152 773.346 57.626 736.913 55.0784C700.481 52.5308 664.486 67.8597 630.575 97.8564C596.662 127.855 564.866 172.497 536.859 228.491C480.846 340.477 440.033 497.776 427.722 673.84Z" stroke="url(#paint5_linear_294_16214)" stroke-opacity="0.3"/>
<path d="M427.44 678.464C418.203 854.717 439.541 1015.82 481.489 1133.79C502.464 1192.78 528.582 1240.97 558.586 1274.88C588.588 1308.78 622.447 1328.38 658.918 1330.29C695.39 1332.21 731.112 1316.25 764.494 1285.67C797.878 1255.08 828.89 1209.89 855.915 1153.42C909.966 1040.47 948.027 882.484 957.264 706.231C966.501 529.978 945.162 368.878 903.214 250.901C882.24 191.911 856.121 143.727 826.118 109.819C796.115 75.9129 762.256 56.3116 725.785 54.4002C689.314 52.4889 653.592 68.4436 620.21 99.0276C586.826 129.613 555.814 174.804 528.788 231.278C474.738 344.224 436.677 502.211 427.44 678.464Z" stroke="url(#paint6_linear_294_16214)" stroke-opacity="0.3"/>
<path d="M427.236 683.085C421.076 859.473 445.223 1020.18 489.224 1137.4C511.224 1196.02 538.18 1243.74 568.771 1277.12C599.36 1310.49 633.556 1329.5 670.055 1330.78C706.554 1332.05 741.992 1315.48 774.836 1284.31C807.681 1253.15 837.899 1207.43 863.935 1150.49C916.006 1036.62 951.304 877.989 957.464 701.601C963.623 525.214 939.476 364.511 895.476 247.284C873.475 188.669 846.52 140.948 815.929 107.569C785.339 74.1918 751.143 55.1844 714.644 53.9098C678.145 52.6352 642.707 69.211 609.864 100.373C577.019 131.537 546.8 177.261 520.764 234.199C468.693 348.071 433.395 506.698 427.236 683.085Z" stroke="url(#paint7_linear_294_16214)" stroke-opacity="0.3"/>
<path d="M427.11 687.715C424.03 864.183 450.978 1024.44 497.018 1140.88C520.038 1199.1 547.822 1246.35 578.991 1279.19C610.158 1312.03 644.681 1330.43 681.196 1331.07C717.712 1331.71 752.856 1314.52 785.15 1282.79C817.446 1251.05 846.862 1204.81 871.901 1147.43C921.976 1032.66 954.5 873.442 957.581 696.974C960.661 520.507 933.713 360.249 887.673 243.808C864.653 185.586 836.869 138.342 805.7 105.503C774.532 72.6644 740.01 54.2567 703.494 53.6193C666.979 52.9819 631.835 70.1736 599.541 101.904C567.244 133.636 537.829 179.881 512.79 237.264C462.715 352.028 430.19 511.247 427.11 687.715Z" stroke="url(#paint8_linear_294_16214)" stroke-opacity="0.3"/>
<path d="M427.074 692.344C427.074 868.839 456.814 1028.6 504.879 1144.22C528.912 1202.03 557.517 1248.78 589.254 1281.08C620.99 1313.36 655.828 1331.17 692.349 1331.17C728.871 1331.17 763.709 1313.36 795.445 1281.08C827.182 1248.78 855.787 1202.03 879.819 1144.22C927.884 1028.6 957.625 868.839 957.625 692.344C957.625 515.85 927.884 356.087 879.819 240.467C855.786 182.655 827.182 135.904 795.445 103.613C763.709 71.3239 728.871 53.5215 692.349 53.5215C655.828 53.5215 620.99 71.3239 589.254 103.613C557.517 135.904 528.912 182.656 504.879 240.467C456.814 356.087 427.074 515.85 427.074 692.344Z" stroke="url(#paint9_linear_294_16214)" stroke-opacity="0.3"/>
<path d="M427.115 696.974C430.195 873.442 462.72 1032.66 512.795 1147.42C537.834 1204.81 567.249 1251.05 599.546 1282.78C631.84 1314.52 666.984 1331.71 703.499 1331.07C740.015 1330.43 774.537 1312.02 805.705 1279.19C836.874 1246.35 864.658 1199.1 887.678 1140.88C933.718 1024.44 960.666 864.182 957.586 687.715C954.505 511.247 921.981 352.028 871.905 237.264C846.867 179.881 817.451 133.636 785.155 101.904C752.861 70.1731 717.717 52.9814 681.201 53.6188C644.686 54.2562 610.163 72.6639 578.996 105.502C547.827 138.342 520.043 185.586 497.023 243.807C450.983 360.249 424.035 520.506 427.115 696.974Z" stroke="url(#paint10_linear_294_16214)" stroke-opacity="0.3"/>
<path d="M427.235 701.603C433.394 877.991 468.692 1036.62 520.763 1150.49C546.799 1207.43 577.018 1253.15 609.863 1284.32C642.706 1315.48 678.144 1332.05 714.643 1330.78C751.143 1329.5 785.338 1310.5 815.928 1277.12C846.519 1243.74 873.474 1196.02 895.475 1137.41C939.476 1020.18 963.622 859.475 957.463 683.087C951.303 506.7 916.005 348.073 863.934 234.201C837.898 177.263 807.68 131.539 774.835 100.375C741.991 69.213 706.553 52.6373 670.054 53.9119C633.555 55.1865 599.359 74.1939 568.77 107.571C538.179 140.95 511.223 188.671 489.223 247.286C445.222 364.513 421.075 525.216 427.235 701.603Z" stroke="url(#paint11_linear_294_16214)" stroke-opacity="0.3"/>
<path d="M427.439 706.228C436.676 882.481 474.737 1040.47 528.787 1153.41C555.813 1209.89 586.825 1255.08 620.209 1285.66C653.591 1316.25 689.313 1332.2 725.784 1330.29C762.256 1328.38 796.114 1308.78 826.117 1274.87C856.121 1240.97 882.239 1192.78 903.214 1133.79C945.162 1015.81 966.5 854.714 957.263 678.461C948.026 502.208 909.965 344.221 855.915 231.275C828.889 174.801 797.877 129.61 764.493 99.0246C731.111 68.4406 695.389 52.4858 658.918 54.3972C622.446 56.3086 588.587 75.9099 558.585 109.816C528.581 143.724 502.463 191.908 481.488 250.898C439.54 368.875 418.202 529.975 427.439 706.228Z" stroke="url(#paint12_linear_294_16214)" stroke-opacity="0.3"/>
<path d="M427.72 710.849C440.032 886.914 480.844 1044.21 536.858 1156.2C564.865 1212.19 596.661 1256.83 630.573 1286.83C664.484 1316.83 700.479 1332.16 736.912 1329.61C773.344 1327.06 806.856 1306.87 836.262 1272.45C865.669 1238.02 890.943 1189.39 910.884 1130.04C950.767 1011.35 969.291 849.904 956.979 673.839C944.667 497.775 903.855 340.476 847.842 228.49C819.834 172.496 788.039 127.854 754.126 97.8555C720.215 67.8587 684.22 52.5298 647.788 55.0774C611.355 57.625 577.844 77.8143 548.438 112.239C519.03 146.665 493.757 195.298 473.815 254.645C433.932 373.336 415.409 534.784 427.72 710.849Z" stroke="url(#paint13_linear_294_16214)" stroke-opacity="0.3"/>
<path d="M428.087 715.465C443.469 891.288 487.021 1047.85 544.98 1158.84C573.96 1214.34 606.53 1258.42 640.961 1287.82C675.391 1317.22 711.648 1331.92 748.03 1328.74C784.412 1325.55 817.566 1304.78 846.367 1269.85C875.17 1234.92 899.59 1185.85 918.493 1126.16C956.298 1006.79 972.002 845.048 956.619 669.224C941.237 493.401 897.685 336.839 839.726 225.848C810.746 170.351 778.176 126.271 743.745 96.8687C709.315 67.4683 673.058 52.7699 636.676 55.953C600.293 59.136 567.139 79.9071 538.339 114.839C509.536 149.774 485.115 198.84 466.213 258.526C428.407 377.895 412.704 539.642 428.087 715.465Z" stroke="url(#paint14_linear_294_16214)" stroke-opacity="0.3"/>
<path d="M428.527 720.071C446.976 895.599 493.253 1051.38 553.141 1161.34C583.085 1216.32 616.419 1259.83 651.358 1288.62C686.295 1317.42 722.803 1331.48 759.125 1327.67C795.446 1323.85 828.232 1302.5 856.419 1267.07C884.607 1231.64 908.168 1182.15 926.027 1122.15C961.743 1002.14 974.621 840.141 956.172 664.613C937.723 489.085 891.446 333.307 831.559 223.344C801.614 168.361 768.28 124.856 733.341 96.0595C698.404 67.2644 661.896 53.2011 625.574 57.0186C589.253 60.8361 556.467 82.1826 528.28 117.612C500.092 153.044 476.531 202.529 458.672 262.536C422.956 382.547 410.078 544.543 428.527 720.071Z" stroke="url(#paint15_linear_294_16214)" stroke-opacity="0.3"/>
<path d="M429.054 724.673C450.563 899.852 499.552 1054.8 561.349 1163.7C592.249 1218.15 626.337 1261.07 661.773 1289.25C697.208 1317.43 733.956 1330.86 770.205 1326.4C806.454 1321.95 838.863 1300.04 866.427 1264.12C893.993 1228.2 916.686 1178.32 933.495 1118.01C967.111 997.39 977.159 835.194 955.65 660.015C934.141 484.836 885.152 329.888 823.354 220.988C792.455 166.536 758.366 123.619 722.93 95.4368C687.496 67.2559 650.748 53.8318 614.499 58.2827C578.25 62.7335 545.841 84.649 518.277 120.565C490.711 156.483 468.018 206.372 451.209 266.681C417.593 387.297 407.544 549.494 429.054 724.673Z" stroke="url(#paint16_linear_294_16214)" stroke-opacity="0.3"/>
<path d="M429.66 729.265C454.223 904.042 505.909 1058.11 569.597 1165.92C601.442 1219.82 636.275 1262.14 672.197 1289.7C708.118 1317.25 745.095 1330.03 781.261 1324.95C817.427 1319.87 849.448 1297.39 876.381 1261C903.316 1224.61 925.135 1174.33 940.889 1113.73C972.395 992.55 979.611 830.203 955.048 655.426C930.485 480.649 878.799 326.581 815.11 218.775C783.265 164.871 748.433 122.556 712.51 94.9959C676.59 67.4377 639.613 54.657 603.447 59.7398C567.281 64.8226 535.259 87.3003 508.326 123.692C481.392 160.086 459.572 210.363 443.819 270.957C412.313 392.141 405.097 554.488 429.66 729.265Z" stroke="url(#paint17_linear_294_16214)" stroke-opacity="0.3"/>
<path d="M430.341 733.843C457.951 908.164 512.317 1061.31 577.878 1167.99C610.658 1221.33 646.224 1263.03 682.622 1289.95C719.018 1316.88 756.213 1329.02 792.284 1323.3C828.356 1317.59 859.98 1294.56 886.274 1257.7C912.57 1220.84 933.508 1170.19 948.202 1109.33C977.588 987.616 981.97 825.168 954.36 650.846C926.75 476.524 872.383 323.381 806.823 216.704C774.042 163.364 738.477 121.663 702.079 94.734C665.682 67.8069 628.488 55.6735 592.417 61.3867C556.345 67.0999 524.72 90.1331 498.427 126.989C472.131 163.848 451.193 214.498 436.499 275.357C407.113 397.073 402.731 559.521 430.341 733.843Z" stroke="url(#paint18_linear_294_16214)" stroke-opacity="0.3"/>
<path d="M431.104 738.41C461.752 912.223 518.783 1064.39 586.196 1169.91C619.902 1222.67 656.19 1263.75 693.053 1290.03C729.913 1316.32 767.314 1327.8 803.28 1321.46C839.247 1315.12 870.464 1291.54 896.111 1254.23C921.759 1216.92 941.81 1165.91 955.439 1104.8C982.697 982.594 984.243 820.094 953.595 646.281C922.947 472.467 865.916 320.296 798.504 214.779C764.797 162.019 728.509 120.945 691.647 94.6562C654.786 68.3684 617.386 56.886 581.419 63.2279C545.453 69.5697 514.235 93.1513 488.589 130.461C462.941 167.772 442.889 218.781 429.26 279.887C402.002 402.097 400.456 564.597 431.104 738.41Z" stroke="url(#paint19_linear_294_16214)" stroke-opacity="0.3"/>
<path d="M431.95 742.963C465.627 916.214 525.305 1067.37 594.549 1171.69C629.171 1223.86 666.17 1264.29 703.486 1289.93C740.8 1315.57 778.395 1326.4 814.245 1319.43C850.095 1312.46 880.897 1288.34 905.888 1250.59C930.881 1212.83 950.039 1161.48 962.6 1100.15C987.72 977.483 986.43 814.981 952.754 641.729C919.077 468.477 859.399 317.324 790.155 212.999C755.533 160.836 718.533 120.402 681.218 94.7596C643.904 69.1191 606.309 58.2912 570.459 65.2598C534.608 72.2284 503.807 96.3512 478.816 134.103C453.823 171.856 434.664 223.207 422.104 284.541C396.983 407.209 398.273 569.711 431.95 742.963Z" stroke="url(#paint20_linear_294_16214)" stroke-opacity="0.3"/>
<path d="M432.875 747.498C469.57 920.136 531.877 1070.22 602.931 1173.32C638.458 1224.88 676.157 1264.66 713.915 1289.64C751.671 1314.63 789.449 1324.8 825.172 1317.21C860.895 1309.61 891.271 1284.96 915.6 1246.78C939.93 1208.59 958.189 1156.91 969.677 1095.37C992.653 972.283 988.527 809.828 951.832 637.19C915.137 464.552 852.83 314.464 781.776 211.364C746.249 159.813 708.549 120.03 670.792 95.0436C633.036 70.0582 595.258 59.8881 559.535 67.4813C523.811 75.0745 493.436 99.7312 469.107 137.913C444.777 176.097 426.517 227.774 415.029 289.319C392.053 412.405 396.179 574.86 432.875 747.498Z" stroke="url(#paint21_linear_294_16214)" stroke-opacity="0.3"/>
<path d="M433.872 752.017C473.575 923.988 538.492 1072.97 611.334 1174.81C647.756 1225.73 686.144 1264.85 724.331 1289.18C762.517 1313.5 800.467 1323.01 836.053 1314.79C871.638 1306.58 901.578 1281.39 925.237 1242.79C948.897 1204.19 966.252 1152.2 976.664 1090.47C997.488 966.998 990.528 804.64 950.825 632.669C911.123 460.697 846.206 311.72 773.364 209.875C736.942 158.952 698.554 119.833 660.366 95.5092C622.18 71.1866 584.23 61.6773 548.645 69.8928C513.059 78.1084 483.119 103.291 459.46 141.892C435.8 180.495 418.445 232.482 408.033 294.218C387.209 417.687 394.169 580.045 433.872 752.017Z" stroke="url(#paint22_linear_294_16214)" stroke-opacity="0.3"/>
<path d="M434.954 756.522C477.652 927.774 545.159 1075.6 619.767 1176.15C657.072 1226.43 696.137 1264.88 734.744 1288.53C773.348 1312.18 811.458 1321.03 846.895 1312.19C882.331 1303.36 911.828 1277.66 934.81 1238.65C957.792 1199.64 974.237 1147.36 983.57 1085.45C1002.24 961.634 992.443 799.422 949.745 628.17C907.048 456.918 839.54 309.096 764.932 208.538C727.627 158.258 688.562 119.815 649.956 96.1616C611.351 72.5091 573.241 63.6636 537.804 72.4989C502.368 81.3342 472.871 107.036 449.89 146.044C426.907 185.053 410.463 237.336 401.129 299.244C382.463 423.058 392.256 585.27 434.954 756.522Z" stroke="url(#paint23_linear_294_16214)" stroke-opacity="0.3"/>
<path d="M436.114 761.002C481.795 931.483 551.871 1078.1 628.223 1177.34C666.4 1226.97 706.13 1264.72 745.143 1287.7C784.155 1310.67 822.414 1318.85 857.69 1309.4C892.967 1299.95 922.011 1273.73 944.308 1234.33C966.607 1194.93 982.136 1142.36 990.388 1080.3C1006.89 956.182 994.268 794.166 948.588 623.685C902.907 453.205 832.831 306.583 756.479 207.343C718.302 157.722 678.572 119.967 639.558 96.9901C600.547 74.015 562.288 65.8359 527.011 75.2883C491.734 84.7408 462.691 110.953 440.394 150.356C418.095 189.761 402.566 242.323 394.314 304.384C377.812 428.505 390.434 590.521 436.114 761.002Z" stroke="url(#paint24_linear_294_16214)" stroke-opacity="0.3"/>
<path d="M437.351 765.465C486 935.123 558.625 1080.5 636.697 1178.39C675.734 1227.34 716.117 1264.39 755.525 1286.69C794.932 1308.98 833.328 1316.49 868.434 1306.42C903.541 1296.35 932.122 1269.64 953.729 1229.85C975.336 1190.07 989.946 1137.24 997.113 1075.04C1011.45 950.654 995.999 788.883 947.35 619.226C898.701 449.568 826.076 304.192 748.004 206.299C708.967 157.352 668.585 120.296 629.176 98.0038C589.769 75.713 551.374 68.2029 516.267 78.2696C481.161 88.3362 452.579 115.052 430.973 154.838C409.365 194.626 394.756 247.451 387.589 309.647C373.255 434.036 388.703 595.808 437.351 765.465Z" stroke="url(#paint25_linear_294_16214)" stroke-opacity="0.3"/>
<path d="M438.667 769.906C490.269 938.688 565.42 1082.77 645.189 1179.29C685.074 1227.55 726.097 1263.89 765.889 1285.49C805.679 1307.09 844.199 1313.93 879.125 1303.26C914.05 1292.58 942.161 1265.37 963.07 1225.21C983.98 1185.05 997.665 1131.98 1003.75 1069.67C1015.91 945.047 997.638 783.57 946.035 614.787C894.433 446.005 819.282 301.918 739.513 205.403C699.628 157.144 658.605 120.799 618.813 99.1981C579.024 77.5984 540.503 70.7595 505.577 81.4373C470.652 92.1152 442.541 119.325 421.632 159.482C400.723 199.641 387.037 252.713 380.956 315.025C368.796 439.646 387.065 601.123 438.667 769.906Z" stroke="url(#paint26_linear_294_16214)" stroke-opacity="0.3"/>
<path d="M440.057 774.319C494.596 942.176 572.251 1084.93 653.692 1180.04C694.413 1227.59 736.065 1263.22 776.227 1284.12C816.388 1305.02 855.022 1311.19 889.756 1299.9C924.49 1288.62 952.121 1260.92 972.326 1220.4C992.532 1179.88 1005.29 1126.58 1010.28 1064.17C1020.26 939.36 999.181 778.226 944.641 610.37C890.101 442.514 812.447 299.761 731.005 204.652C690.284 157.097 648.633 121.473 608.47 100.57C568.31 79.6681 529.675 73.5026 494.942 84.7883C460.208 96.074 432.576 123.771 412.371 164.286C392.166 204.804 379.408 258.107 374.416 320.515C364.432 445.329 385.517 606.463 440.057 774.319Z" stroke="url(#paint27_linear_294_16214)" stroke-opacity="0.3"/>
<path d="M441.528 778.711C498.989 945.59 579.123 1086.97 662.212 1180.64C703.757 1227.48 746.024 1262.37 786.545 1282.57C827.064 1302.76 865.8 1308.25 900.332 1296.36C934.863 1284.47 962.007 1256.3 981.502 1215.44C1001 1174.57 1012.82 1121.06 1016.72 1058.57C1024.53 933.601 1000.64 772.859 943.174 605.98C885.713 439.101 805.579 297.726 722.491 204.053C680.946 157.216 638.679 122.324 598.158 102.125C557.639 81.9272 518.903 76.4368 484.371 88.327C449.839 100.217 422.695 128.392 403.201 169.254C383.705 210.119 371.88 263.636 367.978 326.121C360.174 451.091 384.067 611.832 441.528 778.711Z" stroke="url(#paint28_linear_294_16214)" stroke-opacity="0.3"/>
<path d="M443.072 783.073C503.437 948.924 586.026 1088.88 670.736 1181.09C713.093 1227.19 755.962 1261.34 796.829 1280.83C837.695 1300.32 876.521 1305.13 910.84 1292.64C945.159 1280.15 971.807 1251.51 990.585 1210.31C1009.36 1169.11 1020.25 1115.4 1023.06 1052.85C1028.69 927.764 1001.99 767.464 941.627 601.614C881.262 435.763 798.673 295.807 713.962 203.599C671.606 157.494 628.737 123.345 587.869 103.856C547.004 84.3686 508.178 79.5552 473.859 92.0462C439.54 104.537 412.892 133.181 394.114 174.378C375.334 215.576 364.445 269.291 361.634 331.836C356.012 456.923 382.707 617.222 443.072 783.073Z" stroke="url(#paint29_linear_294_16214)" stroke-opacity="0.3"/>
<path d="M444.693 787.409C507.943 952.181 592.962 1090.67 679.269 1181.39C722.424 1226.75 765.882 1260.14 807.084 1278.92C848.283 1297.69 887.187 1301.82 921.283 1288.74C955.379 1275.65 981.523 1246.54 999.579 1205.02C1017.64 1163.5 1027.59 1109.61 1029.31 1047.02C1032.74 921.858 1003.26 762.049 940.005 597.277C876.755 432.505 791.736 294.012 705.429 203.296C662.275 157.937 618.816 124.542 577.615 105.769C536.415 86.9976 497.511 82.8625 463.416 95.9506C429.32 109.039 403.176 138.144 385.119 179.661C367.062 221.181 357.111 275.078 355.392 337.662C351.954 462.828 381.443 622.637 444.693 787.409Z" stroke="url(#paint30_linear_294_16214)" stroke-opacity="0.3"/>
<path d="M446.386 791.717C512.502 955.36 599.925 1092.35 687.802 1181.54C731.741 1226.14 775.776 1258.77 817.299 1276.82C858.82 1294.87 897.79 1298.33 931.652 1284.65C965.514 1270.97 991.146 1241.41 1008.48 1199.58C1025.81 1157.76 1034.81 1103.69 1035.44 1041.09C1036.69 915.882 1004.42 756.612 938.304 592.969C872.188 429.326 784.765 292.337 696.888 203.142C652.949 158.543 608.914 125.911 567.391 107.861C525.87 89.8109 486.9 86.3554 453.038 100.037C419.176 113.718 393.543 143.274 376.214 185.101C358.884 226.929 349.876 280.992 349.25 343.597C347.997 468.803 380.27 628.074 446.386 791.717Z" stroke="url(#paint31_linear_294_16214)" stroke-opacity="0.3"/>
<path d="M448.161 795.998C517.123 958.462 606.924 1093.9 696.344 1181.55C741.055 1225.38 785.653 1257.24 827.485 1274.56C869.314 1291.88 908.338 1294.66 941.957 1280.39C975.575 1266.12 1000.69 1236.12 1017.28 1193.99C1033.88 1151.87 1041.94 1097.66 1041.48 1035.05C1040.55 909.842 1005.5 751.159 936.536 588.695C867.574 426.231 777.774 290.789 688.353 203.141C643.642 159.316 599.045 127.457 557.213 110.134C515.384 92.8118 476.359 90.037 442.741 104.307C409.123 118.577 384.01 148.577 367.414 190.699C350.816 232.824 342.753 287.035 343.219 349.641C344.152 474.851 379.199 633.534 448.161 795.998Z" stroke="url(#paint32_linear_294_16214)" stroke-opacity="0.3"/>
<path d="M450.008 800.242C521.795 961.477 613.945 1095.33 704.882 1181.41C750.351 1224.44 795.498 1255.52 837.625 1272.11C879.751 1288.7 918.818 1290.79 952.182 1275.94C985.545 1261.08 1010.13 1230.65 1025.99 1188.24C1041.85 1145.84 1048.97 1091.49 1047.41 1028.9C1044.29 903.73 1006.48 745.683 934.69 584.447C862.904 423.211 770.753 289.357 679.816 203.283C634.347 160.245 589.2 129.17 547.073 112.579C504.948 95.9895 465.881 93.8962 432.517 108.751C399.153 123.605 374.567 154.039 358.709 196.444C342.849 238.852 335.733 293.196 337.292 355.785C340.409 480.959 378.221 639.006 450.008 800.242Z" stroke="url(#paint33_linear_294_16214)" stroke-opacity="0.3"/>
<path d="M451.927 804.455C526.516 964.413 620.989 1096.64 713.414 1181.11C759.627 1223.35 805.31 1253.63 847.72 1269.49C890.129 1285.34 929.226 1286.75 962.326 1271.31C995.426 1255.88 1019.48 1225.02 1034.59 1182.35C1049.71 1139.67 1055.88 1085.21 1053.23 1022.66C1047.92 897.556 1007.36 740.193 932.769 580.234C858.18 420.276 763.707 288.05 671.282 203.576C625.069 161.338 579.386 131.056 536.976 115.203C494.567 99.351 455.47 97.9397 422.37 113.374C389.27 128.809 365.22 159.667 350.104 202.343C334.986 245.021 328.82 299.481 331.471 362.032C336.772 487.133 377.337 644.496 451.927 804.455Z" stroke="url(#paint34_linear_294_16214)" stroke-opacity="0.3"/>
<path d="M453.92 808.634C531.29 967.266 628.056 1097.82 721.941 1180.67C768.884 1222.1 815.088 1251.58 857.769 1266.69C900.447 1281.8 939.564 1282.52 972.389 1266.51C1005.21 1250.5 1028.72 1219.23 1043.09 1176.3C1057.46 1133.36 1062.68 1078.8 1058.93 1016.31C1051.45 891.319 1008.15 734.688 930.776 576.055C853.406 417.423 756.64 286.867 662.755 204.018C615.811 162.593 569.607 133.113 526.927 118.003C484.248 102.893 445.132 102.165 412.306 118.174C379.481 134.184 355.973 165.457 341.604 208.391C327.234 251.326 322.019 305.885 325.761 368.381C333.245 493.37 376.549 650.001 453.92 808.634Z" stroke="url(#paint35_linear_294_16214)" stroke-opacity="0.3"/>
<path d="M455.988 812.776C536.115 970.034 635.145 1098.88 730.461 1180.08C778.121 1220.68 824.832 1249.35 867.77 1263.71C910.706 1278.07 949.829 1278.12 982.37 1261.54C1014.91 1244.96 1037.87 1213.28 1051.49 1170.1C1065.11 1126.92 1069.37 1072.28 1064.54 1009.86C1054.87 885.02 1008.84 729.169 928.713 571.911C848.586 414.653 749.556 285.805 654.24 204.608C606.58 164.008 559.869 135.339 516.931 120.976C473.995 106.614 434.872 106.568 402.331 123.148C369.791 139.728 346.832 171.407 333.214 214.584C319.595 257.764 315.333 312.406 320.166 374.827C329.83 499.666 375.861 655.518 455.988 812.776Z" stroke="url(#paint36_linear_294_16214)" stroke-opacity="0.3"/>
<path d="M458.128 816.884C540.987 972.719 642.251 1099.82 738.97 1179.34C787.331 1219.1 834.535 1246.95 877.717 1260.56C920.897 1274.17 960.015 1273.54 992.262 1256.39C1024.51 1239.25 1046.91 1207.17 1059.77 1163.76C1072.64 1120.35 1075.94 1065.64 1070.02 1003.32C1058.18 878.665 1009.44 723.641 926.577 567.805C843.718 411.97 742.455 284.87 645.735 205.349C597.375 165.587 550.17 137.737 506.988 124.126C463.808 110.515 424.69 111.152 392.444 128.298C360.197 145.443 337.795 177.517 324.933 220.926C312.07 264.337 308.762 319.045 314.683 381.372C326.524 506.024 375.269 661.048 458.128 816.884Z" stroke="url(#paint37_linear_294_16214)" stroke-opacity="0.3"/>
<path d="M460.333 820.951C545.9 975.317 649.366 1100.63 747.458 1178.45C796.505 1217.36 844.189 1244.38 887.602 1257.24C931.013 1270.1 970.114 1268.78 1002.06 1251.07C1034 1233.36 1055.84 1200.9 1067.94 1157.28C1080.04 1113.65 1082.4 1058.89 1075.39 996.677C1061.37 872.251 1009.93 718.101 924.364 563.735C838.798 409.369 735.332 284.056 637.239 206.235C588.192 167.323 540.509 140.301 497.095 127.446C453.685 114.591 414.584 115.91 382.641 133.616C350.699 151.322 328.86 183.782 316.757 227.409C304.654 271.038 302.302 325.795 309.309 388.009C323.324 512.435 374.767 666.585 460.333 820.951Z" stroke="url(#paint38_linear_294_16214)" stroke-opacity="0.3"/>
<path d="M462.615 824.983C550.862 977.831 656.5 1101.32 755.935 1177.42C805.654 1215.47 853.802 1241.65 897.433 1253.75C941.061 1265.84 980.133 1263.84 1011.76 1245.58C1043.39 1227.32 1064.66 1194.48 1076 1150.65C1087.34 1106.82 1088.74 1052.03 1080.64 989.947C1064.46 865.784 1010.33 712.556 922.086 559.707C833.838 406.858 728.201 283.37 628.765 207.272C579.047 169.223 530.899 143.037 487.268 130.941C443.639 118.846 404.567 120.847 372.939 139.108C341.311 157.369 320.041 190.205 308.702 234.036C297.362 277.87 295.965 332.66 304.058 394.742C320.242 518.905 374.368 672.134 462.615 824.983Z" stroke="url(#paint39_linear_294_16214)" stroke-opacity="0.3"/>
<path d="M464.966 828.973C555.868 980.259 663.644 1101.88 764.393 1176.23C814.768 1213.41 863.366 1238.75 907.201 1250.08C951.034 1261.42 990.065 1258.73 1021.37 1239.92C1052.67 1221.11 1073.37 1187.91 1083.94 1143.89C1094.51 1099.86 1094.95 1045.06 1085.78 983.126C1067.43 859.265 1010.64 707.005 919.738 555.719C828.836 404.434 721.06 282.808 620.311 208.457C569.936 171.281 521.338 145.94 477.503 134.607C433.67 123.275 394.639 125.958 363.334 144.768C332.029 163.578 311.336 196.781 300.763 240.803C290.19 284.828 289.75 339.634 298.925 401.566C317.274 525.427 374.065 677.688 464.966 828.973Z" stroke="url(#paint40_linear_294_16214)" stroke-opacity="0.3"/>
<path d="M467.382 832.919C560.91 982.595 670.792 1102.32 772.823 1174.9C823.84 1211.19 872.872 1235.68 916.898 1246.25C960.923 1256.81 999.901 1253.45 1030.87 1234.1C1061.84 1214.74 1081.96 1181.18 1091.76 1136.98C1101.56 1092.78 1101.04 1037.98 1090.79 976.214C1070.28 852.692 1010.84 701.446 917.315 551.77C823.787 402.094 713.904 282.367 611.873 209.786C560.857 173.495 511.824 149.006 467.798 138.44C423.774 127.874 384.796 131.238 353.824 150.592C322.852 169.945 302.741 203.504 292.938 247.704C283.135 291.907 283.652 346.712 293.906 408.474C314.414 531.996 373.854 683.243 467.382 832.919Z" stroke="url(#paint41_linear_294_16214)" stroke-opacity="0.3"/>
<path d="M469.868 836.823C565.994 984.843 677.949 1102.63 781.231 1173.42C832.873 1208.82 882.326 1232.45 926.53 1242.24C970.732 1252.04 1009.65 1248 1040.27 1228.1C1070.9 1208.21 1090.43 1174.31 1099.46 1129.94C1108.49 1085.58 1107.01 1030.79 1095.68 969.216C1073.02 846.071 1010.95 695.884 914.826 547.864C818.7 399.843 706.744 282.052 603.462 211.263C551.82 175.868 502.368 152.238 458.164 142.442C413.962 132.646 375.048 136.69 344.419 156.581C313.79 176.472 294.268 210.377 285.238 254.741C276.208 299.108 277.681 353.896 289.011 415.47C311.672 538.616 373.742 688.802 469.868 836.823Z" stroke="url(#paint42_linear_294_16214)" stroke-opacity="0.3"/>
<path d="M472.423 840.686C571.118 987.006 685.112 1102.82 789.613 1171.8C841.865 1206.29 891.722 1229.05 936.091 1238.08C980.457 1247.1 1019.29 1242.38 1049.57 1221.95C1079.85 1201.53 1098.78 1167.29 1107.03 1122.78C1115.29 1078.26 1112.86 1023.5 1100.45 962.137C1075.65 839.406 1010.96 690.326 912.27 544.005C813.575 397.684 699.581 281.866 595.079 212.89C542.828 178.402 492.97 155.638 448.602 146.615C404.236 137.593 365.399 142.315 335.121 162.738C304.844 183.16 285.917 217.4 277.662 261.916C269.408 306.433 271.837 361.187 284.24 422.554C309.046 545.285 373.728 694.365 472.423 840.686Z" stroke="url(#paint43_linear_294_16214)" stroke-opacity="0.3"/>
<path d="M475.05 844.5C576.283 989.076 692.281 1102.89 797.971 1170.03C850.817 1203.6 901.064 1225.49 945.583 1233.74C990.1 1241.98 1028.85 1236.59 1058.76 1215.64C1088.68 1194.69 1107.01 1160.12 1114.48 1115.47C1121.96 1070.82 1118.58 1016.11 1105.1 954.972C1078.16 832.693 1010.89 684.765 909.652 540.189C808.419 395.613 692.421 281.801 586.731 214.66C533.886 181.088 483.639 159.198 439.12 150.951C394.603 142.704 355.854 148.104 325.937 169.051C296.021 189.999 277.694 224.564 270.218 269.217C262.742 313.872 266.126 368.576 279.598 429.716C306.543 551.996 373.817 699.924 475.05 844.5Z" stroke="url(#paint44_linear_294_16214)" stroke-opacity="0.3"/>
<path d="M477.737 848.269C581.478 991.056 699.445 1102.83 806.29 1168.11C859.714 1200.76 910.335 1221.77 954.991 1229.24C999.645 1236.7 1038.29 1230.63 1067.84 1209.16C1097.39 1187.7 1115.11 1152.82 1121.8 1108.04C1128.5 1063.26 1124.16 1008.63 1109.62 947.729C1080.55 825.938 1010.7 679.206 906.962 536.419C803.221 393.632 685.254 281.862 578.409 216.576C524.985 183.931 474.364 162.922 429.708 155.453C385.054 147.984 346.405 154.059 316.859 175.526C287.313 196.993 269.592 231.872 262.896 276.649C256.2 321.427 260.539 376.063 275.076 436.96C304.151 558.75 373.996 705.482 477.737 848.269Z" stroke="url(#paint45_linear_294_16214)" stroke-opacity="0.3"/>
<path d="M480.491 851.989C586.708 992.944 706.608 1102.64 814.576 1166.05C868.561 1197.76 919.542 1217.88 964.321 1224.57C1009.1 1231.26 1047.64 1224.51 1076.8 1202.53C1105.97 1180.55 1123.08 1145.37 1128.99 1100.48C1134.91 1055.59 1129.61 1001.04 1114.02 940.405C1082.82 819.141 1010.43 673.65 904.208 532.695C797.991 391.74 678.092 282.047 570.123 218.634C516.138 186.928 465.158 166.805 420.378 160.116C375.601 153.428 337.064 160.177 307.897 182.156C278.729 204.135 261.62 239.319 255.707 284.205C249.793 329.094 255.085 383.646 270.683 444.279C301.878 565.544 374.274 711.034 480.491 851.989Z" stroke="url(#paint46_linear_294_16214)" stroke-opacity="0.3"/>
<path d="M483.308 855.665C591.969 994.745 713.765 1102.33 822.823 1163.85C877.354 1194.61 928.677 1213.84 973.567 1219.74C1018.45 1225.65 1056.87 1218.23 1085.65 1195.74C1114.43 1173.26 1130.92 1137.78 1136.05 1092.8C1141.18 1047.81 1134.93 993.363 1118.28 933.011C1084.97 812.309 1010.05 668.105 901.388 529.025C792.727 389.945 670.932 282.361 561.873 220.842C507.343 190.083 456.019 170.853 411.129 164.947C366.242 159.041 327.829 166.461 299.05 188.946C270.27 211.43 253.778 246.908 248.649 291.89C243.52 336.875 249.762 391.327 266.416 451.679C299.723 572.38 374.647 716.585 483.308 855.665Z" stroke="url(#paint47_linear_294_16214)" stroke-opacity="0.3"/>
<path d="M486.193 859.289C597.265 996.451 720.919 1101.89 831.035 1161.5C886.094 1191.3 937.745 1209.63 982.731 1214.76C1027.72 1219.88 1065.99 1211.79 1094.38 1188.8C1122.76 1165.82 1138.63 1130.06 1142.97 1085C1147.31 1039.93 1140.12 985.594 1122.42 925.541C1087.01 805.439 1009.58 662.564 898.509 525.402C787.437 388.24 663.783 282.797 553.667 223.192C498.608 193.389 446.957 175.057 401.971 169.935C356.987 164.814 318.709 172.903 290.327 195.887C261.944 218.87 246.073 254.63 241.73 299.695C237.387 344.763 244.579 399.097 262.284 459.149C297.692 579.251 375.121 722.127 486.193 859.289Z" stroke="url(#paint48_linear_294_16214)" stroke-opacity="0.3"/>
<path d="M489.136 862.861C602.585 998.063 728.061 1101.33 839.2 1159.01C894.77 1187.84 946.734 1205.27 991.802 1209.61C1036.87 1213.94 1075 1205.19 1102.98 1181.71C1130.95 1158.24 1146.2 1122.2 1149.75 1077.07C1153.31 1031.93 1145.17 977.734 1126.42 918C1088.92 798.534 1009.01 657.032 895.562 521.829C782.113 386.626 656.637 283.358 545.498 225.683C489.927 196.845 437.964 179.418 392.895 175.082C347.829 170.747 309.699 179.503 281.722 202.978C253.745 226.454 238.5 262.485 234.944 307.619C231.388 352.756 239.527 406.956 258.277 466.69C295.777 586.156 375.687 727.658 489.136 862.861Z" stroke="url(#paint49_linear_294_16214)" stroke-opacity="0.3"/>
<path d="M492.142 866.38C607.933 999.583 735.192 1100.65 847.321 1156.37C903.387 1184.24 955.646 1200.75 1000.78 1204.3C1045.92 1207.85 1083.89 1198.43 1111.45 1174.47C1139.02 1150.51 1153.63 1114.22 1156.4 1069.03C1159.17 1023.84 1150.08 969.787 1130.29 910.389C1090.71 791.596 1008.35 651.51 892.554 518.308C776.763 385.105 649.504 284.043 537.375 228.316C481.31 200.453 429.05 183.935 383.913 180.386C338.778 176.838 300.806 186.258 273.243 210.218C245.68 234.179 231.066 270.47 228.299 315.66C225.531 360.852 234.615 414.901 254.404 474.299C293.983 593.092 376.351 733.178 492.142 866.38Z" stroke="url(#paint50_linear_294_16214)" stroke-opacity="0.3"/>
<path d="M495.213 869.846C613.311 1001.01 742.314 1099.83 855.399 1153.59C911.942 1180.48 964.482 1196.08 1009.67 1198.84C1054.86 1201.6 1092.67 1191.52 1119.81 1167.08C1146.95 1142.64 1160.93 1106.1 1162.9 1060.87C1164.88 1015.64 1154.86 961.754 1134.03 902.711C1092.39 784.626 1007.59 645.999 889.489 514.838C771.391 383.677 642.388 284.851 529.303 231.09C472.76 204.209 420.22 188.606 375.028 185.846C329.838 183.086 292.036 193.167 264.895 217.605C237.754 242.042 223.777 278.583 221.798 323.814C219.82 369.048 229.845 422.931 250.669 481.974C292.314 600.058 377.115 738.685 495.213 869.846Z" stroke="url(#paint51_linear_294_16214)" stroke-opacity="0.3"/>
<path d="M498.338 873.263C618.707 1002.34 749.416 1098.9 863.421 1150.68C920.425 1176.57 973.229 1191.26 1018.46 1193.23C1063.69 1195.2 1101.31 1184.46 1128.02 1159.55C1154.73 1134.64 1168.07 1097.86 1169.26 1052.6C1170.45 1007.34 1159.49 953.644 1137.63 894.973C1093.93 777.634 1006.73 640.508 886.358 511.428C765.989 382.348 635.281 285.788 521.275 234.009C464.272 208.119 411.467 193.435 366.234 191.464C321.002 189.493 283.382 200.232 256.672 225.14C229.962 250.047 216.624 286.827 215.435 332.085C214.247 377.346 225.211 431.046 247.062 489.717C290.762 607.057 377.969 744.183 498.338 873.263Z" stroke="url(#paint52_linear_294_16214)" stroke-opacity="0.3"/>
<path d="M501.529 876.62C624.132 1003.58 756.506 1097.84 871.398 1147.62C928.845 1172.52 981.897 1186.28 1027.16 1187.46C1072.42 1188.64 1109.84 1177.24 1136.12 1151.87C1162.39 1126.5 1175.08 1089.5 1175.48 1044.23C1175.88 998.95 1163.98 945.45 1141.11 887.169C1095.37 770.61 1005.78 635.027 883.175 508.068C760.572 381.108 628.198 286.844 513.306 237.063C455.859 212.171 402.806 198.411 357.545 197.23C312.287 196.049 274.859 207.443 248.588 232.813C222.317 258.183 209.623 295.19 209.224 340.462C208.825 385.737 220.725 439.237 243.597 497.518C289.338 614.077 378.925 749.66 501.529 876.62Z" stroke="url(#paint53_linear_294_16214)" stroke-opacity="0.3"/>
<path d="M504.771 879.921C629.571 1004.72 763.57 1096.66 879.313 1144.43C937.186 1168.31 990.47 1181.15 1035.75 1181.54C1081.02 1181.93 1118.24 1169.88 1144.06 1144.06C1169.89 1118.23 1181.94 1081.01 1181.54 1035.74C1181.15 990.464 1168.32 937.18 1144.44 879.307C1096.67 763.564 1004.73 629.565 879.927 504.765C755.126 379.964 621.127 288.025 505.384 240.256C447.512 216.371 394.227 203.539 348.952 203.148C303.68 202.757 266.457 214.803 240.633 240.627C214.808 266.452 202.762 303.674 203.154 348.947C203.545 394.221 216.377 447.506 240.262 505.379C288.03 621.122 379.97 755.12 504.771 879.921Z" stroke="url(#paint54_linear_294_16214)" stroke-opacity="0.3"/>
<path d="M508.073 883.168C635.033 1005.77 770.616 1095.36 887.175 1141.1C945.456 1163.97 998.956 1175.87 1044.23 1175.47C1089.5 1175.07 1126.51 1162.38 1151.88 1136.11C1177.25 1109.84 1188.64 1072.41 1187.46 1027.15C1186.28 981.89 1172.52 928.837 1147.63 871.39C1097.85 756.499 1003.58 624.125 876.625 501.521C749.665 378.918 614.082 289.331 497.523 243.589C439.243 220.718 385.742 208.818 340.467 209.217C295.195 209.616 258.188 222.31 232.818 248.581C207.449 274.852 196.054 312.279 197.235 357.538C198.417 402.799 212.177 455.852 237.068 513.299C286.849 628.19 381.113 760.564 508.073 883.168Z" stroke="url(#paint55_linear_294_16214)" stroke-opacity="0.3"/>
<path d="M511.436 886.354C640.516 1006.72 777.642 1093.93 894.982 1137.63C953.653 1159.48 1007.35 1170.45 1052.61 1169.26C1097.87 1168.07 1134.65 1154.73 1159.56 1128.02C1184.47 1101.31 1195.21 1063.69 1193.24 1018.46C1191.26 973.225 1176.58 920.421 1150.69 863.417C1098.91 749.412 1002.35 618.703 873.271 498.334C744.191 377.965 607.065 290.758 489.726 247.058C431.055 225.207 377.355 214.243 332.094 215.431C286.835 216.62 250.056 229.958 225.148 256.668C200.241 283.378 189.501 320.998 191.472 366.23C193.443 411.463 208.127 464.268 234.017 521.271C285.796 635.277 382.356 765.985 511.436 886.354Z" stroke="url(#paint56_linear_294_16214)" stroke-opacity="0.3"/>
<path d="M514.845 889.483C646.006 1007.58 784.633 1092.38 902.717 1134.03C961.761 1154.85 1015.64 1164.88 1060.88 1162.9C1106.11 1160.92 1142.65 1146.94 1167.09 1119.8C1191.52 1092.66 1201.61 1054.86 1198.85 1009.67C1196.09 964.476 1180.48 911.936 1153.6 855.393C1099.84 742.308 1001.01 613.305 869.853 495.207C738.692 377.109 600.065 292.308 481.98 250.663C422.937 229.839 369.054 219.814 323.821 221.792C278.59 223.771 242.049 237.749 217.611 264.889C193.174 292.03 183.092 329.832 185.852 375.022C188.613 420.214 204.216 472.754 231.097 529.297C284.857 642.382 383.684 771.385 514.845 889.483Z" stroke="url(#paint57_linear_294_16214)" stroke-opacity="0.3"/>
<path d="M518.317 892.551C651.519 1008.34 791.605 1090.71 910.398 1130.29C969.796 1150.08 1023.85 1159.16 1069.04 1156.39C1114.23 1153.63 1150.52 1139.01 1174.48 1111.45C1198.44 1083.89 1207.86 1045.92 1204.31 1000.78C1200.76 955.643 1184.24 903.383 1156.38 847.318C1100.65 735.189 999.592 607.93 866.39 492.139C733.188 376.348 593.102 293.98 474.308 254.401C414.911 234.612 360.861 225.528 315.669 228.296C270.479 231.063 234.188 245.677 210.228 273.24C186.268 300.803 176.847 338.775 180.396 383.91C183.944 429.047 200.462 481.307 228.326 537.372C284.052 649.501 385.115 776.76 518.317 892.551Z" stroke="url(#paint58_linear_294_16214)" stroke-opacity="0.3"/>
<path d="M521.836 895.556C657.039 1009 798.541 1088.92 918.007 1126.42C977.741 1145.17 1031.94 1153.3 1077.08 1149.75C1122.21 1146.19 1158.24 1130.95 1181.72 1102.97C1205.19 1074.99 1213.95 1036.86 1209.61 991.797C1205.28 946.728 1187.85 894.765 1159.01 839.194C1101.34 728.055 998.07 602.579 862.868 489.131C727.665 375.682 586.163 295.771 466.697 258.272C406.963 239.522 352.763 231.383 307.626 234.939C262.492 238.495 226.461 253.739 202.985 281.716C179.51 309.693 170.754 347.824 175.089 392.89C179.425 437.958 196.852 489.922 225.69 545.493C283.365 656.632 386.633 782.108 521.836 895.556Z" stroke="url(#paint59_linear_294_16214)" stroke-opacity="0.3"/>
<path d="M525.409 898.504C662.572 1009.58 805.447 1087 925.549 1122.41C985.601 1140.12 1039.94 1147.31 1085 1142.97C1130.07 1138.62 1165.83 1122.75 1188.81 1094.37C1211.79 1065.99 1219.88 1027.71 1214.76 982.727C1209.64 937.741 1191.31 886.089 1161.51 831.03C1101.9 720.915 996.458 597.26 859.296 486.188C722.134 375.117 579.259 297.688 459.157 262.279C399.105 244.574 344.771 237.382 299.703 241.726C254.637 246.069 218.878 261.94 195.894 290.322C172.911 318.704 164.821 356.982 169.943 401.966C175.065 446.952 193.396 498.603 223.199 553.662C282.805 663.778 388.247 787.432 525.409 898.504Z" stroke="url(#paint60_linear_294_16214)" stroke-opacity="0.3"/>
<path d="M529.031 901.385C668.111 1010.05 812.315 1084.97 933.017 1118.28C993.369 1134.93 1047.82 1141.17 1092.81 1136.04C1137.79 1130.92 1173.27 1114.42 1195.75 1085.64C1218.23 1056.86 1225.65 1018.45 1219.75 973.564C1213.84 928.674 1194.61 877.351 1163.85 822.82C1102.34 713.762 994.751 591.966 855.671 483.305C716.591 374.644 572.386 299.72 451.685 266.413C391.333 249.759 336.881 243.517 291.896 248.646C246.914 253.775 211.437 270.267 188.952 299.047C166.467 327.826 159.047 366.239 164.953 411.126C170.859 456.016 190.089 507.34 220.849 561.87C282.367 670.929 389.951 792.724 529.031 901.385Z" stroke="url(#paint61_linear_294_16214)" stroke-opacity="0.3"/>
<path d="M532.706 904.204C673.661 1010.42 819.151 1082.82 940.416 1114.01C1001.05 1129.61 1055.6 1134.9 1100.49 1128.99C1145.38 1123.08 1180.56 1105.97 1202.54 1076.8C1224.52 1047.63 1231.27 1009.09 1224.58 964.317C1217.89 919.538 1197.77 868.557 1166.06 814.572C1102.65 706.604 992.955 586.704 852 480.487C711.045 374.27 565.554 301.874 444.29 270.679C383.656 255.081 329.104 249.79 284.216 255.703C239.329 261.616 204.146 278.725 182.166 307.893C160.187 337.06 153.439 375.597 160.127 420.374C166.816 465.154 186.939 516.134 218.645 570.119C282.057 678.088 391.751 797.987 532.706 904.204Z" stroke="url(#paint62_linear_294_16214)" stroke-opacity="0.3"/>
<path d="M536.425 906.957C679.212 1010.7 825.943 1080.54 947.734 1109.62C1008.63 1124.16 1063.27 1128.49 1108.05 1121.8C1152.82 1115.1 1187.7 1097.38 1209.17 1067.83C1230.63 1038.29 1236.71 999.64 1229.24 954.986C1221.77 910.33 1200.76 859.708 1168.12 806.285C1102.83 699.439 991.062 581.473 848.275 477.732C705.487 373.991 558.756 304.145 436.965 275.071C376.069 260.534 321.433 256.195 276.654 262.891C231.878 269.587 196.998 287.307 175.531 316.854C154.065 346.4 147.99 385.049 155.458 429.703C162.927 474.359 183.937 524.98 216.581 578.404C281.868 685.249 393.637 803.216 536.425 906.957Z" stroke="url(#paint63_linear_294_16214)" stroke-opacity="0.3"/>
<path d="M540.196 909.646C684.772 1010.88 832.7 1078.15 954.98 1105.1C1016.12 1118.57 1070.82 1121.95 1115.48 1114.48C1160.13 1107 1194.7 1088.67 1215.64 1058.76C1236.59 1028.84 1241.99 990.093 1233.74 945.576C1225.5 901.057 1203.61 850.81 1170.04 797.964C1102.89 692.275 989.083 576.277 844.508 475.044C699.932 373.81 552.003 306.536 429.724 279.592C368.583 266.119 313.879 262.735 269.224 270.212C224.572 277.688 190.007 296.014 169.059 325.931C148.111 355.848 142.711 394.596 150.958 439.113C159.206 483.632 181.095 533.879 214.667 586.725C281.809 692.414 395.62 808.413 540.196 909.646Z" stroke="url(#paint64_linear_294_16214)" stroke-opacity="0.3"/>
<path d="M544.01 912.268C690.331 1010.96 839.41 1075.64 962.142 1100.45C1023.51 1112.85 1078.26 1115.28 1122.78 1107.03C1167.3 1098.77 1201.54 1079.85 1221.96 1049.57C1242.38 1019.29 1247.1 980.455 1238.08 936.089C1229.06 891.721 1206.29 841.863 1171.81 789.612C1102.83 685.11 987.011 571.116 840.69 472.421C694.37 373.727 545.29 309.045 422.559 284.238C361.192 271.835 306.438 269.406 261.92 277.661C217.405 285.915 183.164 304.842 162.742 335.119C142.319 365.397 137.597 404.234 146.62 448.6C155.643 492.969 178.406 542.826 212.895 595.078C281.871 699.579 397.689 813.573 544.01 912.268Z" stroke="url(#paint65_linear_294_16214)" stroke-opacity="0.3"/>
<path d="M547.87 914.823C695.891 1010.95 846.077 1073.02 969.222 1095.68C1030.8 1107.01 1085.58 1108.48 1129.95 1099.45C1174.32 1090.42 1208.22 1070.9 1228.11 1040.27C1248 1009.64 1252.05 970.729 1242.25 926.527C1232.45 882.323 1208.82 832.871 1173.43 781.229C1102.64 677.947 984.85 565.991 836.829 469.865C688.808 373.74 538.622 311.669 415.476 289.009C353.903 277.678 299.114 276.205 254.748 285.235C210.383 294.265 176.478 313.787 156.588 344.417C136.697 375.046 132.653 413.96 142.448 458.161C152.244 502.366 175.874 551.818 211.269 603.46C282.059 706.742 399.849 818.697 547.87 914.823Z" stroke="url(#paint66_linear_294_16214)" stroke-opacity="0.3"/>
<path d="M551.774 917.314C701.45 1010.84 852.696 1070.28 976.218 1090.79C1037.98 1101.04 1092.79 1101.56 1136.99 1091.76C1181.19 1081.95 1214.75 1061.84 1234.1 1030.87C1253.45 999.9 1256.82 960.922 1246.25 916.898C1235.69 872.871 1211.2 823.839 1174.91 772.823C1102.33 670.792 982.599 560.909 832.923 467.381C683.247 373.853 532.001 314.414 408.479 293.906C346.716 283.651 291.911 283.135 247.708 292.938C203.508 302.741 169.95 322.852 150.596 353.823C131.243 384.795 127.879 423.774 138.444 467.798C149.01 511.824 173.5 560.856 209.791 611.873C282.372 713.904 402.098 823.786 551.774 917.314Z" stroke="url(#paint67_linear_294_16214)" stroke-opacity="0.3"/>
<path d="M555.723 919.729C707.009 1010.63 859.27 1067.42 983.131 1085.77C1045.06 1094.95 1099.87 1094.51 1143.89 1083.93C1187.92 1073.36 1221.12 1052.67 1239.93 1021.36C1258.74 990.057 1261.42 951.026 1250.09 907.193C1238.76 863.357 1213.42 814.76 1176.24 764.385C1101.89 663.636 980.263 555.859 828.978 464.958C677.692 374.057 525.431 317.265 401.57 298.916C339.638 289.742 284.832 290.182 240.807 300.755C196.785 311.327 163.582 332.021 144.773 363.326C125.963 394.631 123.279 433.662 134.611 477.495C145.944 521.33 171.286 569.927 208.462 620.303C282.812 721.051 404.438 828.828 555.723 919.729Z" stroke="url(#paint68_linear_294_16214)" stroke-opacity="0.3"/>
<path d="M559.714 922.083C712.563 1010.33 865.792 1064.46 989.955 1080.64C1052.04 1088.73 1106.83 1087.34 1150.66 1076C1194.49 1064.66 1227.33 1043.39 1245.59 1011.76C1263.85 980.13 1265.85 941.058 1253.76 897.43C1241.66 853.799 1215.47 805.651 1177.42 755.932C1101.33 656.497 977.839 550.859 824.99 462.612C672.141 374.365 518.912 320.239 394.75 304.055C332.667 295.962 277.877 297.359 234.044 308.699C190.213 320.038 157.376 341.308 139.116 372.936C120.855 404.564 118.853 443.636 130.949 487.265C143.045 530.896 169.23 579.044 207.28 628.762C283.377 728.198 406.866 833.835 559.714 922.083Z" stroke="url(#paint69_linear_294_16214)" stroke-opacity="0.3"/>
<path d="M563.743 924.361C718.108 1009.93 872.258 1061.37 996.684 1075.39C1058.9 1082.39 1113.66 1080.04 1157.28 1067.94C1200.91 1055.84 1233.37 1034 1251.08 1002.05C1268.78 970.111 1270.1 931.01 1257.25 887.599C1244.39 844.186 1217.37 796.503 1178.46 747.456C1100.64 649.363 975.325 545.897 820.959 460.331C666.593 374.764 512.443 323.321 388.017 309.306C325.803 302.298 271.045 304.651 227.417 316.754C183.79 328.857 151.33 350.696 133.624 382.638C115.918 414.581 114.598 453.682 127.453 497.092C140.309 540.506 167.331 588.189 206.242 637.236C284.064 735.329 409.377 838.795 563.743 924.361Z" stroke="url(#paint70_linear_294_16214)" stroke-opacity="0.3"/>
<path d="M567.808 926.568C723.643 1009.43 878.668 1058.17 1003.32 1070.01C1065.65 1075.93 1120.35 1072.63 1163.77 1059.76C1207.17 1046.9 1239.25 1024.5 1256.39 992.252C1273.54 960.006 1274.18 920.888 1260.57 877.708C1246.95 834.526 1219.1 787.321 1179.34 738.961C1099.82 642.241 972.722 540.978 816.887 458.119C661.051 375.259 506.027 326.515 381.375 314.673C319.048 308.752 264.34 312.06 220.929 324.923C177.52 337.785 145.446 360.187 128.3 392.434C111.154 424.68 110.517 463.798 124.128 506.978C137.739 550.16 165.59 597.365 205.351 645.726C284.873 742.445 411.972 843.708 567.808 926.568Z" stroke="url(#paint71_linear_294_16214)" stroke-opacity="0.3"/>
<path d="M571.916 928.706C729.173 1008.83 885.025 1054.86 1009.86 1064.53C1072.29 1069.36 1126.93 1065.1 1170.11 1051.48C1213.28 1037.86 1244.96 1014.9 1261.54 982.363C1278.12 949.822 1278.08 910.699 1263.72 867.763C1249.35 824.825 1220.68 778.114 1180.08 730.455C1098.89 635.138 970.039 536.108 812.781 455.981C655.523 375.854 499.672 329.823 374.832 320.158C312.411 315.326 257.769 319.588 214.589 333.206C171.412 346.824 139.733 369.783 123.153 402.324C106.573 434.865 106.619 473.988 120.981 516.924C135.344 559.862 164.013 606.573 204.613 654.232C285.81 749.549 414.658 848.579 571.916 928.706Z" stroke="url(#paint72_linear_294_16214)" stroke-opacity="0.3"/>
<path d="M576.062 930.775C734.694 1008.15 891.325 1051.45 1016.31 1058.93C1078.81 1062.68 1133.37 1057.46 1176.31 1043.09C1219.24 1028.72 1250.51 1005.21 1266.52 972.389C1282.53 939.564 1281.8 900.447 1266.69 857.769C1251.58 815.088 1222.1 768.884 1180.68 721.94C1097.83 628.055 967.273 531.289 808.64 453.919C650.008 376.549 493.377 333.244 368.388 325.76C305.892 322.018 251.333 327.233 208.397 341.603C165.464 355.972 134.191 379.481 118.181 412.306C102.171 445.131 102.9 484.247 118.009 526.926C133.119 569.607 162.6 615.811 204.025 662.754C286.873 756.639 417.43 853.405 576.062 930.775Z" stroke="url(#paint73_linear_294_16214)" stroke-opacity="0.3"/>
<path d="M580.241 932.769C740.2 1007.36 897.563 1047.92 1022.66 1053.22C1085.21 1055.88 1139.67 1049.71 1182.35 1034.59C1225.03 1019.48 1255.89 995.425 1271.32 962.326C1286.76 929.226 1285.34 890.128 1269.49 847.72C1253.64 805.309 1223.36 759.627 1181.12 713.414C1096.65 620.989 964.42 526.516 804.462 451.926C644.503 377.336 487.14 336.772 362.04 331.47C299.488 328.819 245.028 334.986 202.35 350.103C159.674 365.219 128.816 389.269 113.381 422.369C97.9469 455.469 99.3581 494.566 115.21 536.975C131.063 579.385 161.345 625.068 203.583 671.281C288.057 763.706 420.283 858.179 580.241 932.769Z" stroke="url(#paint74_linear_294_16214)" stroke-opacity="0.3"/>
<path d="M584.457 934.687C745.692 1006.47 903.739 1044.29 1028.91 1047.4C1091.5 1048.96 1145.85 1041.85 1188.25 1025.99C1230.66 1010.13 1261.09 985.543 1275.95 952.179C1290.8 918.815 1288.71 879.748 1272.12 837.622C1255.53 795.495 1224.45 750.348 1181.42 704.879C1095.34 613.942 961.487 521.792 800.251 450.005C639.015 378.218 480.968 340.406 355.794 337.288C293.206 335.73 238.862 342.845 196.454 358.705C154.048 374.564 123.615 399.149 108.76 432.513C93.9057 465.877 95.9991 504.944 112.589 547.07C129.179 589.197 160.254 634.344 203.292 679.813C289.367 770.75 423.221 862.9 584.457 934.687Z" stroke="url(#paint75_linear_294_16214)" stroke-opacity="0.3"/>
<path d="M588.695 936.533C751.159 1005.5 909.842 1040.54 1035.05 1041.48C1097.66 1041.94 1151.87 1033.88 1193.99 1017.28C1236.12 1000.68 1266.12 975.572 1280.39 941.954C1294.66 908.336 1291.88 869.311 1274.56 827.482C1257.24 785.65 1225.38 741.052 1181.55 696.341C1093.9 606.921 958.462 517.12 795.998 448.158C633.533 379.196 474.851 344.148 349.641 343.216C287.035 342.75 232.824 350.813 190.699 367.41C148.576 384.007 118.577 409.12 104.307 442.738C90.0367 476.356 92.8116 515.38 110.134 557.21C127.457 599.041 159.315 643.639 203.14 688.35C290.789 777.771 426.23 867.571 588.695 936.533Z" stroke="url(#paint76_linear_294_16214)" stroke-opacity="0.3"/>
<path d="M592.975 938.305C756.618 1004.42 915.888 1036.69 1041.09 1035.44C1103.7 1034.81 1157.76 1025.81 1199.59 1008.48C1241.42 991.147 1270.97 965.515 1284.66 931.653C1298.34 897.791 1294.88 858.82 1276.83 817.3C1258.78 775.777 1226.15 731.742 1181.55 687.802C1092.35 599.925 955.366 512.502 791.723 446.386C628.08 380.27 468.81 347.997 343.603 349.25C280.998 349.876 226.936 358.884 185.107 376.214C143.281 393.543 113.724 419.176 100.043 453.038C86.3617 486.9 89.8172 525.87 107.867 567.391C125.917 608.914 158.549 652.949 203.148 696.888C292.344 784.765 429.332 872.188 592.975 938.305Z" stroke="url(#paint77_linear_294_16214)" stroke-opacity="0.3"/>
<path d="M597.284 940.001C762.056 1003.25 921.865 1032.74 1047.03 1029.3C1109.61 1027.58 1163.51 1017.63 1205.03 999.575C1246.55 981.519 1275.65 955.374 1288.74 921.279C1301.83 887.183 1297.7 848.279 1278.92 807.08C1260.15 765.878 1226.76 722.419 1181.4 679.265C1090.68 592.958 952.188 507.939 787.416 444.689C622.644 381.439 462.835 351.95 337.669 355.388C275.085 357.107 221.188 367.058 179.668 385.115C138.151 403.171 109.046 429.316 95.9577 463.411C82.8696 497.507 87.0047 536.411 105.776 577.61C124.549 618.812 157.944 662.271 203.303 705.425C294.019 791.732 432.512 876.751 597.284 940.001Z" stroke="url(#paint78_linear_294_16214)" stroke-opacity="0.3"/>
<path d="M601.617 941.62C767.468 1001.98 927.767 1028.68 1052.85 1023.06C1115.4 1020.25 1169.11 1009.36 1210.31 990.578C1251.51 971.8 1280.15 945.151 1292.64 910.832C1305.13 876.514 1300.32 837.688 1280.83 796.822C1261.34 755.955 1227.2 713.085 1181.09 670.729C1088.88 586.018 948.927 503.429 783.076 443.065C617.226 382.7 456.926 356.005 331.839 361.627C269.295 364.438 215.58 375.327 174.381 394.106C133.185 412.885 104.541 439.533 92.0497 473.852C79.5587 508.171 84.3722 546.997 103.86 587.862C123.349 628.73 157.497 671.599 203.602 713.955C295.811 798.666 435.766 881.255 601.617 941.62Z" stroke="url(#paint79_linear_294_16214)" stroke-opacity="0.3"/>
<path d="M605.987 943.168C772.866 1000.63 933.607 1024.52 1058.58 1016.72C1121.06 1012.82 1174.58 1000.99 1215.44 981.496C1256.31 962.001 1284.48 934.857 1296.37 900.325C1308.26 865.794 1302.77 827.058 1282.57 786.539C1262.37 746.017 1227.48 703.751 1180.64 662.206C1086.97 579.117 945.596 498.983 778.717 441.522C611.838 384.061 451.097 360.168 326.128 367.972C263.642 371.874 210.125 383.699 169.26 403.195C128.398 422.689 100.224 449.833 88.3334 484.365C76.4432 518.896 81.9335 557.632 102.131 598.151C122.33 638.673 157.222 680.939 204.059 722.485C297.732 805.573 439.108 885.707 605.987 943.168Z" stroke="url(#paint80_linear_294_16214)" stroke-opacity="0.3"/>
<path d="M610.373 944.637C778.23 999.177 939.363 1020.26 1064.18 1010.28C1126.59 1005.29 1179.89 992.528 1220.41 972.322C1260.92 952.117 1288.62 924.486 1299.9 889.752C1311.19 855.018 1305.02 816.384 1284.12 776.223C1263.22 736.061 1227.6 694.409 1180.04 653.688C1084.93 572.247 942.179 494.593 774.323 440.053C606.466 385.513 445.333 364.428 320.519 374.412C258.11 379.404 204.808 392.162 164.29 412.367C123.774 432.572 96.0774 460.204 84.7917 494.938C73.506 529.672 79.6715 568.306 100.573 608.466C121.477 648.629 157.101 690.28 204.656 731.002C299.764 812.443 442.517 890.097 610.373 944.637Z" stroke="url(#paint81_linear_294_16214)" stroke-opacity="0.3"/>
<path d="M614.789 946.028C783.572 997.63 945.049 1015.9 1069.67 1003.74C1131.98 997.658 1185.05 983.973 1225.21 963.063C1265.37 942.154 1292.58 914.043 1303.26 879.118C1313.94 844.192 1307.1 805.671 1285.5 765.882C1263.9 726.09 1227.55 685.067 1179.29 645.182C1082.78 565.413 938.69 490.262 769.907 438.66C601.124 387.058 439.647 368.789 315.026 380.949C252.715 387.03 199.643 400.716 159.484 421.625C119.327 442.534 92.1167 470.645 81.4389 505.57C70.7611 540.496 77.5999 579.017 99.1996 618.806C120.8 658.598 157.146 699.621 205.405 739.506C301.92 819.275 446.006 894.426 614.789 946.028Z" stroke="url(#paint82_linear_294_16214)" stroke-opacity="0.3"/>
<path d="M619.228 947.343C788.885 995.991 950.656 1011.44 1075.05 997.106C1137.24 989.939 1190.07 975.329 1229.86 953.721C1269.64 932.115 1296.36 903.534 1306.42 868.427C1316.49 833.32 1308.98 794.925 1286.69 755.518C1264.4 716.11 1227.34 675.727 1178.39 636.69C1080.5 558.618 935.125 485.993 765.467 437.344C595.81 388.696 434.039 373.248 309.649 387.582C247.453 394.749 194.628 409.358 154.84 430.966C115.054 452.572 88.3384 481.154 78.2718 516.26C68.2051 551.367 75.7152 589.762 98.0061 629.169C120.298 668.577 157.354 708.96 206.301 747.997C304.194 826.069 449.57 898.694 619.228 947.343Z" stroke="url(#paint83_linear_294_16214)" stroke-opacity="0.3"/>
<path d="M623.692 948.581C794.173 994.261 956.189 1006.88 1080.31 990.381C1142.37 982.13 1194.93 966.6 1234.34 944.302C1273.74 922.004 1299.95 892.961 1309.41 857.684C1318.86 822.407 1310.68 784.148 1287.7 745.137C1264.73 706.124 1226.97 666.394 1177.35 628.217C1078.11 551.865 931.489 481.788 761.008 436.108C590.528 390.428 428.512 377.806 304.391 394.308C242.329 402.559 189.768 418.089 150.363 440.387C110.96 462.685 84.7472 491.728 75.2948 527.005C65.8424 562.282 74.0214 600.541 96.9966 639.552C119.973 678.566 157.728 718.296 207.349 756.472C306.59 832.824 453.211 902.901 623.692 948.581Z" stroke="url(#paint84_linear_294_16214)" stroke-opacity="0.3"/>
<path d="M628.174 949.74C799.426 992.438 961.637 1002.23 1085.45 983.564C1147.36 974.231 1199.64 957.786 1238.65 934.804C1277.66 911.822 1303.36 882.326 1312.2 846.889C1321.03 811.452 1312.19 773.342 1288.53 734.738C1264.88 696.131 1226.44 657.066 1176.16 619.762C1075.6 545.153 927.777 477.646 756.525 434.948C585.273 392.25 423.062 382.457 299.248 401.124C237.34 410.457 185.057 426.901 146.047 449.884C107.04 472.866 81.338 502.362 72.5027 537.799C63.6674 573.235 72.5129 611.345 96.1654 649.95C119.819 688.556 158.262 727.621 208.542 764.926C309.1 839.535 456.922 907.042 628.174 949.74Z" stroke="url(#paint85_linear_294_16214)" stroke-opacity="0.3"/>
<path d="M632.674 950.821C804.645 990.524 967.003 997.484 1090.47 976.66C1152.21 966.248 1204.2 948.893 1242.8 925.233C1281.4 901.574 1306.58 871.634 1314.8 836.048C1323.01 800.463 1313.5 762.513 1289.18 724.327C1264.86 686.139 1225.74 647.751 1174.82 611.33C1072.97 538.488 923.993 473.571 752.022 433.868C580.05 394.165 417.693 387.205 294.223 408.029C232.488 418.441 180.5 435.796 141.897 459.456C103.297 483.115 78.1135 513.055 69.898 548.641C61.6824 584.226 71.1917 622.176 95.5144 660.362C119.838 698.55 158.957 736.938 209.88 773.359C311.725 846.201 460.702 911.118 632.674 950.821Z" stroke="url(#paint86_linear_294_16214)" stroke-opacity="0.3"/>
<path d="M637.196 951.822C809.834 988.518 972.289 992.643 1095.38 969.668C1156.92 958.179 1208.6 939.92 1246.78 915.59C1284.96 891.261 1309.62 860.886 1317.21 825.162C1324.81 789.439 1314.64 751.661 1289.65 713.905C1264.66 676.148 1224.88 638.448 1173.33 602.921C1070.23 531.867 920.142 469.56 747.504 432.865C574.866 396.17 412.411 392.044 289.324 415.02C227.78 426.508 176.103 444.767 137.919 469.097C99.737 493.426 75.0803 523.802 67.4871 559.525C59.8939 595.248 70.064 633.026 95.0494 670.782C120.036 708.54 159.819 746.239 211.37 781.766C314.47 852.82 464.558 915.127 637.196 951.822Z" stroke="url(#paint87_linear_294_16214)" stroke-opacity="0.3"/>
<path d="M641.733 952.746C814.985 986.422 977.487 987.712 1100.15 962.592C1161.49 950.031 1212.84 930.873 1250.59 905.88C1288.34 880.889 1312.47 850.087 1319.44 814.237C1326.4 778.387 1315.58 740.792 1289.94 703.478C1264.29 666.162 1223.86 629.163 1171.7 594.541C1067.37 525.297 916.219 465.619 742.967 431.942C569.715 398.265 407.213 396.975 284.546 422.096C223.211 434.656 171.861 453.815 134.108 478.808C96.3562 503.799 72.2334 534.6 65.2648 570.451C58.2962 606.301 69.1241 643.896 94.7646 681.21C120.406 718.526 160.841 755.525 213.004 790.147C317.329 859.391 468.482 919.069 641.733 952.746Z" stroke="url(#paint88_linear_294_16214)" stroke-opacity="0.3"/>
<path d="M646.286 953.588C820.1 984.236 982.6 982.69 1104.81 955.433C1165.92 941.804 1216.92 921.752 1254.24 896.104C1291.55 870.458 1315.13 839.24 1321.47 803.273C1327.81 767.307 1316.33 729.907 1290.04 693.046C1263.75 656.184 1222.68 619.895 1169.92 586.189C1064.4 518.777 912.229 461.746 738.416 431.098C564.602 400.45 402.103 401.996 279.892 429.253C218.786 442.882 167.778 462.934 130.466 488.582C93.1569 514.229 69.5754 545.446 63.2335 581.413C56.8917 617.379 68.374 654.779 94.6618 691.64C120.951 728.502 162.025 764.791 214.785 798.497C320.302 865.909 472.473 922.941 646.286 953.588Z" stroke="url(#paint89_linear_294_16214)" stroke-opacity="0.3"/>
<path d="M650.852 954.353C825.173 981.963 987.621 977.581 1109.34 948.195C1170.2 933.502 1220.85 912.563 1257.7 886.268C1294.56 859.974 1317.59 828.349 1323.31 792.278C1329.02 756.206 1316.89 719.012 1289.96 682.616C1263.03 646.217 1221.33 610.652 1167.99 577.871C1061.31 512.311 908.17 457.944 733.848 430.334C559.526 402.724 397.078 407.106 275.362 436.493C214.503 451.186 163.853 472.125 126.995 498.42C90.1383 524.714 67.1052 556.338 61.392 592.41C55.6788 628.482 67.8122 665.676 94.7393 702.072C121.668 738.47 163.369 774.036 216.709 806.817C323.387 872.377 476.53 926.744 650.852 954.353Z" stroke="url(#paint90_linear_294_16214)" stroke-opacity="0.3"/>
<path d="M655.433 955.039C830.21 979.603 992.557 972.386 1113.74 940.88C1174.33 925.127 1224.61 903.307 1261.01 876.373C1297.4 849.44 1319.88 817.418 1324.96 781.252C1330.04 745.086 1317.26 708.11 1289.7 672.189C1262.14 636.266 1219.83 601.434 1165.92 569.589C1058.12 505.9 904.049 454.215 729.272 429.651C554.494 405.088 392.148 412.305 270.963 443.811C210.37 459.564 160.092 481.383 123.699 508.318C87.3071 535.251 64.8294 567.272 59.7466 603.438C54.6638 639.604 67.4444 676.581 95.0026 712.502C122.562 748.424 164.878 783.257 218.782 815.102C326.587 878.79 480.656 930.476 655.433 955.039Z" stroke="url(#paint91_linear_294_16214)" stroke-opacity="0.3"/>
<path d="M660.02 955.643C835.199 977.153 997.395 967.104 1118.01 933.488C1178.32 916.679 1228.21 893.986 1264.13 866.42C1300.04 838.856 1321.96 806.447 1326.41 770.198C1330.86 733.949 1317.44 697.201 1289.26 661.766C1261.07 626.33 1218.16 592.242 1163.71 561.342C1054.8 499.545 899.857 450.556 724.678 429.047C549.499 407.538 387.303 417.586 266.687 451.202C206.377 468.011 156.488 490.704 120.57 518.27C84.6543 545.834 62.7389 578.243 58.288 614.492C53.8372 650.741 67.2612 687.489 95.4421 722.924C123.625 758.36 166.542 792.448 220.993 823.348C329.894 885.145 484.841 934.134 660.02 955.643Z" stroke="url(#paint92_linear_294_16214)" stroke-opacity="0.3"/>
<path d="M664.619 956.167C840.147 974.615 1002.14 961.738 1122.15 926.021C1182.16 908.163 1231.65 884.602 1267.08 856.414C1302.51 828.227 1323.85 795.441 1327.67 759.119C1331.49 722.798 1317.43 686.29 1288.63 651.353C1259.83 616.414 1216.33 583.08 1161.35 553.135C1051.38 493.248 895.605 446.971 720.077 428.522C544.549 410.073 382.553 422.951 262.542 458.667C202.535 476.526 153.05 500.086 117.618 528.275C82.1888 556.461 60.8423 589.248 57.0248 625.569C53.2072 661.89 67.2706 698.399 96.0656 733.336C124.862 768.275 168.368 801.609 223.35 831.553C333.313 891.441 489.091 937.718 664.619 956.167Z" stroke="url(#paint93_linear_294_16214)" stroke-opacity="0.3"/>
<path d="M669.229 956.61C845.052 971.993 1006.8 956.29 1126.17 918.485C1185.85 899.582 1234.92 875.161 1269.85 846.359C1304.79 817.558 1325.56 784.404 1328.74 748.021C1331.92 711.639 1317.23 675.382 1287.83 640.953C1258.42 606.522 1214.34 573.951 1158.85 544.971C1047.86 487.012 891.293 443.461 715.469 428.078C539.646 412.696 377.9 428.399 258.53 466.204C198.844 485.107 149.778 509.528 114.844 538.33C79.9114 567.131 59.1403 600.285 55.9573 636.667C52.7742 673.05 67.4726 709.307 96.873 743.736C126.275 778.167 170.355 810.737 225.852 839.717C336.843 897.676 493.406 941.228 669.229 956.61Z" stroke="url(#paint94_linear_294_16214)" stroke-opacity="0.3"/>
<path d="M673.844 956.974C849.909 969.285 1011.36 950.762 1130.05 910.879C1189.4 890.937 1238.03 865.664 1272.45 836.256C1306.88 806.85 1327.07 773.339 1329.62 736.906C1332.16 700.474 1316.83 664.479 1286.84 630.568C1256.84 596.655 1212.2 564.859 1156.2 536.852C1044.22 480.839 886.918 440.026 710.854 427.715C534.789 415.403 373.341 433.927 254.649 473.809C195.302 493.751 146.67 519.025 112.243 548.432C77.8191 577.838 57.6299 611.35 55.0823 647.782C52.5347 684.215 67.8636 720.21 97.8603 754.121C127.859 788.033 172.501 819.829 228.495 847.836C340.481 903.849 497.779 944.662 673.844 956.974Z" stroke="url(#paint95_linear_294_16214)" stroke-opacity="0.3"/>
<path d="M678.468 957.256C854.721 966.493 1015.82 945.154 1133.8 903.206C1192.79 882.232 1240.97 856.113 1274.88 826.109C1308.79 796.107 1328.39 762.248 1330.3 725.777C1332.21 689.306 1316.26 653.584 1285.67 620.201C1255.09 586.817 1209.9 555.806 1153.42 528.78C1040.47 474.73 882.488 436.669 706.235 427.432C529.982 418.195 368.882 439.533 250.905 481.481C191.915 502.455 143.73 528.574 109.823 558.578C75.9168 588.58 56.3155 622.439 54.4042 658.91C52.4928 695.381 68.4475 731.104 99.0315 764.486C129.617 797.87 174.808 828.882 231.282 855.907C344.228 909.957 502.215 948.019 678.468 957.256Z" stroke="url(#paint96_linear_294_16214)" stroke-opacity="0.3"/>
<path d="M683.093 957.458C859.48 963.617 1020.18 939.47 1137.41 895.47C1196.03 873.469 1243.75 846.514 1277.13 815.923C1310.5 785.333 1329.51 751.137 1330.78 714.638C1332.06 678.139 1315.48 642.701 1284.32 609.858C1253.16 577.013 1207.43 546.794 1150.5 520.758C1036.62 468.687 877.996 433.389 701.609 427.23C525.222 421.07 364.519 445.217 247.292 489.218C188.677 511.218 140.956 538.174 107.577 568.765C74.1996 599.354 55.1922 633.55 53.9176 670.049C52.643 706.548 69.2188 741.986 100.381 774.83C131.544 807.675 177.269 837.893 234.206 863.929C348.079 916 506.706 951.298 683.093 957.458Z" stroke="url(#paint97_linear_294_16214)" stroke-opacity="0.3"/>
<path d="M687.717 957.579C864.185 960.659 1024.44 933.712 1140.88 887.672C1199.11 864.651 1246.35 836.867 1279.19 805.698C1312.03 774.531 1330.43 740.009 1331.07 703.493C1331.71 666.977 1314.52 631.834 1282.79 599.539C1251.06 567.243 1204.81 537.827 1147.43 512.789C1032.66 462.713 873.444 430.189 696.976 427.109C520.509 424.029 360.251 450.976 243.81 497.016C185.588 520.037 138.344 547.821 105.505 578.99C72.6664 610.157 54.2587 644.679 53.6213 681.195C52.9839 717.711 70.1756 752.854 101.906 785.149C133.638 817.445 179.883 846.861 237.266 871.899C352.03 921.975 511.249 954.499 687.717 957.579Z" stroke="url(#paint98_linear_294_16214)" stroke-opacity="0.3"/>
<path d="M692.348 957.619C868.843 957.619 1028.61 927.879 1144.23 879.814C1202.04 855.781 1248.79 827.177 1281.08 795.439C1313.37 763.703 1331.17 728.865 1331.17 692.344C1331.17 655.823 1313.37 620.984 1281.08 589.249C1248.79 557.511 1202.04 528.907 1144.23 504.874C1028.61 456.809 868.843 427.068 692.348 427.068C515.853 427.068 356.091 456.809 240.471 504.874C182.659 528.907 135.908 557.511 103.617 589.249C71.3278 620.984 53.5254 655.823 53.5254 692.344C53.5254 728.865 71.3278 763.703 103.617 795.439C135.908 827.177 182.659 855.781 240.471 879.814C356.091 927.879 515.853 957.619 692.348 957.619Z" stroke="url(#paint99_linear_294_16214)" stroke-opacity="0.3"/>
<defs>
<linearGradient id="paint0_linear_294_16214" x1="845.309" y1="717.911" x2="533.063" y2="668.456" gradientUnits="userSpaceOnUse">
<stop stop-color="#DE701D"/>
<stop offset="1" stop-color="#121212"/>
</linearGradient>
<linearGradient id="paint1_linear_294_16214" x1="845.734" y1="715.24" x2="532.672" y2="671.242" gradientUnits="userSpaceOnUse">
<stop stop-color="#DE701D"/>
<stop offset="1" stop-color="#121212"/>
</linearGradient>
<linearGradient id="paint2_linear_294_16214" x1="846.112" y1="712.558" x2="532.33" y2="674.03" gradientUnits="userSpaceOnUse">
<stop stop-color="#DE701D"/>
<stop offset="1" stop-color="#121212"/>
</linearGradient>
<linearGradient id="paint3_linear_294_16214" x1="846.438" y1="709.87" x2="532.032" y2="676.825" gradientUnits="userSpaceOnUse">
<stop stop-color="#DE701D"/>
<stop offset="1" stop-color="#121212"/>
</linearGradient>
<linearGradient id="paint4_linear_294_16214" x1="846.725" y1="707.182" x2="531.789" y2="679.628" gradientUnits="userSpaceOnUse">
<stop stop-color="#DE701D"/>
<stop offset="1" stop-color="#121212"/>
</linearGradient>
<linearGradient id="paint5_linear_294_16214" x1="846.958" y1="704.483" x2="531.59" y2="682.43" gradientUnits="userSpaceOnUse">
<stop stop-color="#DE701D"/>
<stop offset="1" stop-color="#121212"/>
</linearGradient>
<linearGradient id="paint6_linear_294_16214" x1="847.147" y1="701.785" x2="531.442" y2="685.24" gradientUnits="userSpaceOnUse">
<stop stop-color="#DE701D"/>
<stop offset="1" stop-color="#121212"/>
</linearGradient>
<linearGradient id="paint7_linear_294_16214" x1="847.286" y1="699.078" x2="531.341" y2="688.045" gradientUnits="userSpaceOnUse">
<stop stop-color="#DE701D"/>
<stop offset="1" stop-color="#121212"/>
</linearGradient>
<linearGradient id="paint8_linear_294_16214" x1="847.376" y1="696.375" x2="531.286" y2="690.857" gradientUnits="userSpaceOnUse">
<stop stop-color="#DE701D"/>
<stop offset="1" stop-color="#121212"/>
</linearGradient>
<linearGradient id="paint9_linear_294_16214" x1="847.427" y1="693.668" x2="531.288" y2="693.668" gradientUnits="userSpaceOnUse">
<stop stop-color="#DE701D"/>
<stop offset="1" stop-color="#121212"/>
</linearGradient>
<linearGradient id="paint10_linear_294_16214" x1="847.427" y1="690.961" x2="531.337" y2="696.479" gradientUnits="userSpaceOnUse">
<stop stop-color="#DE701D"/>
<stop offset="1" stop-color="#121212"/>
</linearGradient>
<linearGradient id="paint11_linear_294_16214" x1="847.378" y1="688.256" x2="531.432" y2="699.289" gradientUnits="userSpaceOnUse">
<stop stop-color="#DE701D"/>
<stop offset="1" stop-color="#121212"/>
</linearGradient>
<linearGradient id="paint12_linear_294_16214" x1="847.285" y1="685.55" x2="531.58" y2="702.096" gradientUnits="userSpaceOnUse">
<stop stop-color="#DE701D"/>
<stop offset="1" stop-color="#121212"/>
</linearGradient>
<linearGradient id="paint13_linear_294_16214" x1="847.141" y1="682.847" x2="531.773" y2="704.9" gradientUnits="userSpaceOnUse">
<stop stop-color="#DE701D"/>
<stop offset="1" stop-color="#121212"/>
</linearGradient>
<linearGradient id="paint14_linear_294_16214" x1="846.955" y1="680.147" x2="532.02" y2="707.701" gradientUnits="userSpaceOnUse">
<stop stop-color="#DE701D"/>
<stop offset="1" stop-color="#121212"/>
</linearGradient>
<linearGradient id="paint15_linear_294_16214" x1="846.716" y1="677.448" x2="532.309" y2="710.494" gradientUnits="userSpaceOnUse">
<stop stop-color="#DE701D"/>
<stop offset="1" stop-color="#121212"/>
</linearGradient>
<linearGradient id="paint16_linear_294_16214" x1="846.435" y1="674.758" x2="532.653" y2="713.286" gradientUnits="userSpaceOnUse">
<stop stop-color="#DE701D"/>
<stop offset="1" stop-color="#121212"/>
</linearGradient>
<linearGradient id="paint17_linear_294_16214" x1="846.106" y1="672.074" x2="533.044" y2="716.072" gradientUnits="userSpaceOnUse">
<stop stop-color="#DE701D"/>
<stop offset="1" stop-color="#121212"/>
</linearGradient>
<linearGradient id="paint18_linear_294_16214" x1="845.726" y1="669.392" x2="533.479" y2="718.847" gradientUnits="userSpaceOnUse">
<stop stop-color="#DE701D"/>
<stop offset="1" stop-color="#121212"/>
</linearGradient>
<linearGradient id="paint19_linear_294_16214" x1="845.301" y1="666.72" x2="533.965" y2="721.617" gradientUnits="userSpaceOnUse">
<stop stop-color="#DE701D"/>
<stop offset="1" stop-color="#121212"/>
</linearGradient>
<linearGradient id="paint20_linear_294_16214" x1="844.833" y1="664.055" x2="534.503" y2="724.377" gradientUnits="userSpaceOnUse">
<stop stop-color="#DE701D"/>
<stop offset="1" stop-color="#121212"/>
</linearGradient>
<linearGradient id="paint21_linear_294_16214" x1="844.317" y1="661.396" x2="535.087" y2="727.125" gradientUnits="userSpaceOnUse">
<stop stop-color="#DE701D"/>
<stop offset="1" stop-color="#121212"/>
</linearGradient>
<linearGradient id="paint22_linear_294_16214" x1="843.749" y1="658.747" x2="535.713" y2="729.863" gradientUnits="userSpaceOnUse">
<stop stop-color="#DE701D"/>
<stop offset="1" stop-color="#121212"/>
</linearGradient>
<linearGradient id="paint23_linear_294_16214" x1="843.141" y1="656.114" x2="536.393" y2="732.594" gradientUnits="userSpaceOnUse">
<stop stop-color="#DE701D"/>
<stop offset="1" stop-color="#121212"/>
</linearGradient>
<linearGradient id="paint24_linear_294_16214" x1="842.487" y1="653.485" x2="537.12" y2="735.308" gradientUnits="userSpaceOnUse">
<stop stop-color="#DE701D"/>
<stop offset="1" stop-color="#121212"/>
</linearGradient>
<linearGradient id="paint25_linear_294_16214" x1="841.785" y1="650.873" x2="537.894" y2="738.012" gradientUnits="userSpaceOnUse">
<stop stop-color="#DE701D"/>
<stop offset="1" stop-color="#121212"/>
</linearGradient>
<linearGradient id="paint26_linear_294_16214" x1="841.039" y1="648.272" x2="538.715" y2="740.702" gradientUnits="userSpaceOnUse">
<stop stop-color="#DE701D"/>
<stop offset="1" stop-color="#121212"/>
</linearGradient>
<linearGradient id="paint27_linear_294_16214" x1="840.245" y1="645.682" x2="539.58" y2="743.374" gradientUnits="userSpaceOnUse">
<stop stop-color="#DE701D"/>
<stop offset="1" stop-color="#121212"/>
</linearGradient>
<linearGradient id="paint28_linear_294_16214" x1="839.411" y1="643.109" x2="540.496" y2="746.034" gradientUnits="userSpaceOnUse">
<stop stop-color="#DE701D"/>
<stop offset="1" stop-color="#121212"/>
</linearGradient>
<linearGradient id="paint29_linear_294_16214" x1="838.527" y1="640.547" x2="541.454" y2="748.673" gradientUnits="userSpaceOnUse">
<stop stop-color="#DE701D"/>
<stop offset="1" stop-color="#121212"/>
</linearGradient>
<linearGradient id="paint30_linear_294_16214" x1="837.601" y1="638.004" x2="542.46" y2="751.298" gradientUnits="userSpaceOnUse">
<stop stop-color="#DE701D"/>
<stop offset="1" stop-color="#121212"/>
</linearGradient>
<linearGradient id="paint31_linear_294_16214" x1="836.626" y1="635.477" x2="543.508" y2="753.904" gradientUnits="userSpaceOnUse">
<stop stop-color="#DE701D"/>
<stop offset="1" stop-color="#121212"/>
</linearGradient>
<linearGradient id="paint32_linear_294_16214" x1="835.615" y1="632.971" x2="544.609" y2="756.496" gradientUnits="userSpaceOnUse">
<stop stop-color="#DE701D"/>
<stop offset="1" stop-color="#121212"/>
</linearGradient>
<linearGradient id="paint33_linear_294_16214" x1="834.558" y1="630.478" x2="545.751" y2="759.063" gradientUnits="userSpaceOnUse">
<stop stop-color="#DE701D"/>
<stop offset="1" stop-color="#121212"/>
</linearGradient>
<linearGradient id="paint34_linear_294_16214" x1="833.455" y1="628.006" x2="546.937" y2="761.611" gradientUnits="userSpaceOnUse">
<stop stop-color="#DE701D"/>
<stop offset="1" stop-color="#121212"/>
</linearGradient>
<linearGradient id="paint35_linear_294_16214" x1="832.311" y1="625.553" x2="548.167" y2="764.139" gradientUnits="userSpaceOnUse">
<stop stop-color="#DE701D"/>
<stop offset="1" stop-color="#121212"/>
</linearGradient>
<linearGradient id="paint36_linear_294_16214" x1="831.126" y1="623.119" x2="549.445" y2="766.643" gradientUnits="userSpaceOnUse">
<stop stop-color="#DE701D"/>
<stop offset="1" stop-color="#121212"/>
</linearGradient>
<linearGradient id="paint37_linear_294_16214" x1="829.899" y1="620.709" x2="550.766" y2="769.127" gradientUnits="userSpaceOnUse">
<stop stop-color="#DE701D"/>
<stop offset="1" stop-color="#121212"/>
</linearGradient>
<linearGradient id="paint38_linear_294_16214" x1="828.624" y1="618.318" x2="552.123" y2="771.584" gradientUnits="userSpaceOnUse">
<stop stop-color="#DE701D"/>
<stop offset="1" stop-color="#121212"/>
</linearGradient>
<linearGradient id="paint39_linear_294_16214" x1="827.313" y1="615.952" x2="553.529" y2="774.021" gradientUnits="userSpaceOnUse">
<stop stop-color="#DE701D"/>
<stop offset="1" stop-color="#121212"/>
</linearGradient>
<linearGradient id="paint40_linear_294_16214" x1="825.961" y1="613.61" x2="554.978" y2="776.433" gradientUnits="userSpaceOnUse">
<stop stop-color="#DE701D"/>
<stop offset="1" stop-color="#121212"/>
</linearGradient>
<linearGradient id="paint41_linear_294_16214" x1="824.563" y1="611.288" x2="556.462" y2="778.816" gradientUnits="userSpaceOnUse">
<stop stop-color="#DE701D"/>
<stop offset="1" stop-color="#121212"/>
</linearGradient>
<linearGradient id="paint42_linear_294_16214" x1="823.127" y1="608.992" x2="557.991" y2="781.173" gradientUnits="userSpaceOnUse">
<stop stop-color="#DE701D"/>
<stop offset="1" stop-color="#121212"/>
</linearGradient>
<linearGradient id="paint43_linear_294_16214" x1="821.652" y1="606.725" x2="559.561" y2="783.507" gradientUnits="userSpaceOnUse">
<stop stop-color="#DE701D"/>
<stop offset="1" stop-color="#121212"/>
</linearGradient>
<linearGradient id="paint44_linear_294_16214" x1="820.142" y1="604.48" x2="561.177" y2="785.81" gradientUnits="userSpaceOnUse">
<stop stop-color="#DE701D"/>
<stop offset="1" stop-color="#121212"/>
</linearGradient>
<linearGradient id="paint45_linear_294_16214" x1="818.588" y1="602.263" x2="562.826" y2="788.084" gradientUnits="userSpaceOnUse">
<stop stop-color="#DE701D"/>
<stop offset="1" stop-color="#121212"/>
</linearGradient>
<linearGradient id="paint46_linear_294_16214" x1="816.997" y1="600.071" x2="564.517" y2="790.328" gradientUnits="userSpaceOnUse">
<stop stop-color="#DE701D"/>
<stop offset="1" stop-color="#121212"/>
</linearGradient>
<linearGradient id="paint47_linear_294_16214" x1="815.366" y1="597.913" x2="566.245" y2="792.547" gradientUnits="userSpaceOnUse">
<stop stop-color="#DE701D"/>
<stop offset="1" stop-color="#121212"/>
</linearGradient>
<linearGradient id="paint48_linear_294_16214" x1="813.702" y1="595.781" x2="568.016" y2="794.733" gradientUnits="userSpaceOnUse">
<stop stop-color="#DE701D"/>
<stop offset="1" stop-color="#121212"/>
</linearGradient>
<linearGradient id="paint49_linear_294_16214" x1="811.996" y1="593.677" x2="569.82" y2="796.887" gradientUnits="userSpaceOnUse">
<stop stop-color="#DE701D"/>
<stop offset="1" stop-color="#121212"/>
</linearGradient>
<linearGradient id="paint50_linear_294_16214" x1="810.255" y1="591.603" x2="571.662" y2="799.008" gradientUnits="userSpaceOnUse">
<stop stop-color="#DE701D"/>
<stop offset="1" stop-color="#121212"/>
</linearGradient>
<linearGradient id="paint51_linear_294_16214" x1="808.481" y1="589.559" x2="573.545" y2="801.097" gradientUnits="userSpaceOnUse">
<stop stop-color="#DE701D"/>
<stop offset="1" stop-color="#121212"/>
</linearGradient>
<linearGradient id="paint52_linear_294_16214" x1="806.667" y1="587.551" x2="575.458" y2="803.157" gradientUnits="userSpaceOnUse">
<stop stop-color="#DE701D"/>
<stop offset="1" stop-color="#121212"/>
</linearGradient>
<linearGradient id="paint53_linear_294_16214" x1="804.825" y1="585.57" x2="577.414" y2="805.178" gradientUnits="userSpaceOnUse">
<stop stop-color="#DE701D"/>
<stop offset="1" stop-color="#121212"/>
</linearGradient>
<linearGradient id="paint54_linear_294_16214" x1="802.941" y1="583.623" x2="579.397" y2="807.166" gradientUnits="userSpaceOnUse">
<stop stop-color="#DE701D"/>
<stop offset="1" stop-color="#121212"/>
</linearGradient>
<linearGradient id="paint55_linear_294_16214" x1="801.027" y1="581.711" x2="581.419" y2="809.122" gradientUnits="userSpaceOnUse">
<stop stop-color="#DE701D"/>
<stop offset="1" stop-color="#121212"/>
</linearGradient>
<linearGradient id="paint56_linear_294_16214" x1="799.084" y1="579.83" x2="583.478" y2="811.039" gradientUnits="userSpaceOnUse">
<stop stop-color="#DE701D"/>
<stop offset="1" stop-color="#121212"/>
</linearGradient>
<linearGradient id="paint57_linear_294_16214" x1="797.1" y1="577.986" x2="585.562" y2="812.922" gradientUnits="userSpaceOnUse">
<stop stop-color="#DE701D"/>
<stop offset="1" stop-color="#121212"/>
</linearGradient>
<linearGradient id="paint58_linear_294_16214" x1="795.092" y1="576.175" x2="587.687" y2="814.768" gradientUnits="userSpaceOnUse">
<stop stop-color="#DE701D"/>
<stop offset="1" stop-color="#121212"/>
</linearGradient>
<linearGradient id="paint59_linear_294_16214" x1="793.048" y1="574.398" x2="589.838" y2="816.574" gradientUnits="userSpaceOnUse">
<stop stop-color="#DE701D"/>
<stop offset="1" stop-color="#121212"/>
</linearGradient>
<linearGradient id="paint60_linear_294_16214" x1="790.975" y1="572.661" x2="592.022" y2="818.347" gradientUnits="userSpaceOnUse">
<stop stop-color="#DE701D"/>
<stop offset="1" stop-color="#121212"/>
</linearGradient>
<linearGradient id="paint61_linear_294_16214" x1="788.869" y1="570.957" x2="594.235" y2="820.078" gradientUnits="userSpaceOnUse">
<stop stop-color="#DE701D"/>
<stop offset="1" stop-color="#121212"/>
</linearGradient>
<linearGradient id="paint62_linear_294_16214" x1="786.738" y1="569.292" x2="596.481" y2="821.771" gradientUnits="userSpaceOnUse">
<stop stop-color="#DE701D"/>
<stop offset="1" stop-color="#121212"/>
</linearGradient>
<linearGradient id="paint63_linear_294_16214" x1="784.573" y1="567.662" x2="598.751" y2="823.423" gradientUnits="userSpaceOnUse">
<stop stop-color="#DE701D"/>
<stop offset="1" stop-color="#121212"/>
</linearGradient>
<linearGradient id="paint64_linear_294_16214" x1="782.385" y1="566.072" x2="601.055" y2="825.037" gradientUnits="userSpaceOnUse">
<stop stop-color="#DE701D"/>
<stop offset="1" stop-color="#121212"/>
</linearGradient>
<linearGradient id="paint65_linear_294_16214" x1="780.166" y1="564.52" x2="603.383" y2="826.61" gradientUnits="userSpaceOnUse">
<stop stop-color="#DE701D"/>
<stop offset="1" stop-color="#121212"/>
</linearGradient>
<linearGradient id="paint66_linear_294_16214" x1="777.921" y1="563.006" x2="605.739" y2="828.142" gradientUnits="userSpaceOnUse">
<stop stop-color="#DE701D"/>
<stop offset="1" stop-color="#121212"/>
</linearGradient>
<linearGradient id="paint67_linear_294_16214" x1="775.649" y1="561.536" x2="608.122" y2="829.637" gradientUnits="userSpaceOnUse">
<stop stop-color="#DE701D"/>
<stop offset="1" stop-color="#121212"/>
</linearGradient>
<linearGradient id="paint68_linear_294_16214" x1="773.356" y1="560.098" x2="610.533" y2="831.082" gradientUnits="userSpaceOnUse">
<stop stop-color="#DE701D"/>
<stop offset="1" stop-color="#121212"/>
</linearGradient>
<linearGradient id="paint69_linear_294_16214" x1="771.037" y1="558.708" x2="612.968" y2="832.492" gradientUnits="userSpaceOnUse">
<stop stop-color="#DE701D"/>
<stop offset="1" stop-color="#121212"/>
</linearGradient>
<linearGradient id="paint70_linear_294_16214" x1="768.691" y1="557.354" x2="615.424" y2="833.855" gradientUnits="userSpaceOnUse">
<stop stop-color="#DE701D"/>
<stop offset="1" stop-color="#121212"/>
</linearGradient>
<linearGradient id="paint71_linear_294_16214" x1="766.32" y1="556.039" x2="617.902" y2="835.173" gradientUnits="userSpaceOnUse">
<stop stop-color="#DE701D"/>
<stop offset="1" stop-color="#121212"/>
</linearGradient>
<linearGradient id="paint72_linear_294_16214" x1="763.931" y1="554.769" x2="620.407" y2="836.451" gradientUnits="userSpaceOnUse">
<stop stop-color="#DE701D"/>
<stop offset="1" stop-color="#121212"/>
</linearGradient>
<linearGradient id="paint73_linear_294_16214" x1="761.522" y1="553.545" x2="622.936" y2="837.688" gradientUnits="userSpaceOnUse">
<stop stop-color="#DE701D"/>
<stop offset="1" stop-color="#121212"/>
</linearGradient>
<linearGradient id="paint74_linear_294_16214" x1="759.09" y1="552.359" x2="625.484" y2="838.878" gradientUnits="userSpaceOnUse">
<stop stop-color="#DE701D"/>
<stop offset="1" stop-color="#121212"/>
</linearGradient>
<linearGradient id="paint75_linear_294_16214" x1="756.639" y1="551.214" x2="628.054" y2="840.021" gradientUnits="userSpaceOnUse">
<stop stop-color="#DE701D"/>
<stop offset="1" stop-color="#121212"/>
</linearGradient>
<linearGradient id="paint76_linear_294_16214" x1="754.158" y1="550.113" x2="630.633" y2="841.12" gradientUnits="userSpaceOnUse">
<stop stop-color="#DE701D"/>
<stop offset="1" stop-color="#121212"/>
</linearGradient>
<linearGradient id="paint77_linear_294_16214" x1="751.669" y1="549.056" x2="633.242" y2="842.174" gradientUnits="userSpaceOnUse">
<stop stop-color="#DE701D"/>
<stop offset="1" stop-color="#121212"/>
</linearGradient>
<linearGradient id="paint78_linear_294_16214" x1="749.16" y1="548.042" x2="635.867" y2="843.183" gradientUnits="userSpaceOnUse">
<stop stop-color="#DE701D"/>
<stop offset="1" stop-color="#121212"/>
</linearGradient>
<linearGradient id="paint79_linear_294_16214" x1="746.63" y1="547.07" x2="638.504" y2="844.143" gradientUnits="userSpaceOnUse">
<stop stop-color="#DE701D"/>
<stop offset="1" stop-color="#121212"/>
</linearGradient>
<linearGradient id="paint80_linear_294_16214" x1="744.092" y1="546.148" x2="641.167" y2="845.062" gradientUnits="userSpaceOnUse">
<stop stop-color="#DE701D"/>
<stop offset="1" stop-color="#121212"/>
</linearGradient>
<linearGradient id="paint81_linear_294_16214" x1="741.528" y1="545.266" x2="643.836" y2="845.932" gradientUnits="userSpaceOnUse">
<stop stop-color="#DE701D"/>
<stop offset="1" stop-color="#121212"/>
</linearGradient>
<linearGradient id="paint82_linear_294_16214" x1="738.954" y1="544.43" x2="646.524" y2="846.754" gradientUnits="userSpaceOnUse">
<stop stop-color="#DE701D"/>
<stop offset="1" stop-color="#121212"/>
</linearGradient>
<linearGradient id="paint83_linear_294_16214" x1="736.365" y1="543.639" x2="649.225" y2="847.53" gradientUnits="userSpaceOnUse">
<stop stop-color="#DE701D"/>
<stop offset="1" stop-color="#121212"/>
</linearGradient>
<linearGradient id="paint84_linear_294_16214" x1="733.766" y1="542.894" x2="651.943" y2="848.26" gradientUnits="userSpaceOnUse">
<stop stop-color="#DE701D"/>
<stop offset="1" stop-color="#121212"/>
</linearGradient>
<linearGradient id="paint85_linear_294_16214" x1="731.15" y1="542.193" x2="654.67" y2="848.941" gradientUnits="userSpaceOnUse">
<stop stop-color="#DE701D"/>
<stop offset="1" stop-color="#121212"/>
</linearGradient>
<linearGradient id="paint86_linear_294_16214" x1="728.522" y1="541.54" x2="657.406" y2="849.575" gradientUnits="userSpaceOnUse">
<stop stop-color="#DE701D"/>
<stop offset="1" stop-color="#121212"/>
</linearGradient>
<linearGradient id="paint87_linear_294_16214" x1="725.887" y1="540.93" x2="660.158" y2="850.16" gradientUnits="userSpaceOnUse">
<stop stop-color="#DE701D"/>
<stop offset="1" stop-color="#121212"/>
</linearGradient>
<linearGradient id="paint88_linear_294_16214" x1="723.24" y1="540.368" x2="662.918" y2="850.698" gradientUnits="userSpaceOnUse">
<stop stop-color="#DE701D"/>
<stop offset="1" stop-color="#121212"/>
</linearGradient>
<linearGradient id="paint89_linear_294_16214" x1="720.584" y1="539.852" x2="665.687" y2="851.187" gradientUnits="userSpaceOnUse">
<stop stop-color="#DE701D"/>
<stop offset="1" stop-color="#121212"/>
</linearGradient>
<linearGradient id="paint90_linear_294_16214" x1="717.917" y1="539.383" x2="668.462" y2="851.629" gradientUnits="userSpaceOnUse">
<stop stop-color="#DE701D"/>
<stop offset="1" stop-color="#121212"/>
</linearGradient>
<linearGradient id="paint91_linear_294_16214" x1="715.246" y1="538.961" x2="671.248" y2="852.023" gradientUnits="userSpaceOnUse">
<stop stop-color="#DE701D"/>
<stop offset="1" stop-color="#121212"/>
</linearGradient>
<linearGradient id="paint92_linear_294_16214" x1="712.562" y1="538.585" x2="674.034" y2="852.367" gradientUnits="userSpaceOnUse">
<stop stop-color="#DE701D"/>
<stop offset="1" stop-color="#121212"/>
</linearGradient>
<linearGradient id="paint93_linear_294_16214" x1="709.874" y1="538.255" x2="676.829" y2="852.661" gradientUnits="userSpaceOnUse">
<stop stop-color="#DE701D"/>
<stop offset="1" stop-color="#121212"/>
</linearGradient>
<linearGradient id="paint94_linear_294_16214" x1="707.184" y1="537.972" x2="679.63" y2="852.908" gradientUnits="userSpaceOnUse">
<stop stop-color="#DE701D"/>
<stop offset="1" stop-color="#121212"/>
</linearGradient>
<linearGradient id="paint95_linear_294_16214" x1="704.487" y1="537.737" x2="682.434" y2="853.105" gradientUnits="userSpaceOnUse">
<stop stop-color="#DE701D"/>
<stop offset="1" stop-color="#121212"/>
</linearGradient>
<linearGradient id="paint96_linear_294_16214" x1="701.789" y1="537.548" x2="685.244" y2="853.253" gradientUnits="userSpaceOnUse">
<stop stop-color="#DE701D"/>
<stop offset="1" stop-color="#121212"/>
</linearGradient>
<linearGradient id="paint97_linear_294_16214" x1="699.086" y1="537.407" x2="688.053" y2="853.353" gradientUnits="userSpaceOnUse">
<stop stop-color="#DE701D"/>
<stop offset="1" stop-color="#121212"/>
</linearGradient>
<linearGradient id="paint98_linear_294_16214" x1="696.377" y1="537.313" x2="690.859" y2="853.404" gradientUnits="userSpaceOnUse">
<stop stop-color="#DE701D"/>
<stop offset="1" stop-color="#121212"/>
</linearGradient>
<linearGradient id="paint99_linear_294_16214" x1="693.672" y1="537.267" x2="693.672" y2="853.405" gradientUnits="userSpaceOnUse">
<stop stop-color="#DE701D"/>
<stop offset="1" stop-color="#121212"/>
</linearGradient>
</defs>
</svg>
