<svg width="1279" height="1823" viewBox="0 0 1279 1823" fill="none" xmlns="http://www.w3.org/2000/svg">
<path d="M1070.6 711.867C937.504 605.61 799.124 531.853 683 498.491C624.937 481.809 572.462 475.234 529.007 479.726C485.555 484.218 451.16 499.77 429.177 527.306C407.193 554.842 399.644 591.826 404.886 635.195C410.129 678.566 428.162 728.281 457.287 781.208C515.538 887.06 618.108 1005.67 751.201 1111.93C884.294 1218.19 1022.67 1291.94 1138.8 1325.3C1196.86 1341.99 1249.34 1348.56 1292.79 1344.07C1336.24 1339.58 1370.64 1324.03 1392.62 1296.49C1414.61 1268.95 1422.15 1231.97 1416.91 1188.6C1411.67 1145.23 1393.64 1095.51 1364.51 1042.59C1306.26 936.735 1203.69 818.125 1070.6 711.867Z" stroke="url(#paint0_linear_254_8105)" stroke-opacity="0.3"/>
<path d="M1067.08 709.11C932.152 605.192 792.506 533.862 675.817 502.531C617.472 486.865 564.891 481.207 521.521 486.456C478.153 491.706 444.036 507.856 422.536 535.771C401.036 563.687 394.133 600.797 400.132 644.068C406.131 687.341 425.028 736.733 455.073 789.144C515.162 893.964 619.787 1010.77 754.714 1114.68C889.641 1218.6 1029.29 1289.93 1145.98 1321.26C1204.32 1336.93 1256.9 1342.59 1300.27 1337.34C1343.64 1332.09 1377.76 1315.94 1399.26 1288.02C1420.76 1260.11 1427.66 1223 1421.66 1179.73C1415.66 1136.45 1396.76 1087.06 1366.72 1034.65C1306.63 929.831 1202.01 813.029 1067.08 709.11Z" stroke="url(#paint1_linear_254_8105)" stroke-opacity="0.3"/>
<path d="M1063.52 706.418C926.795 604.87 785.926 535.988 668.708 506.699C610.098 492.054 557.426 487.313 514.155 493.319C470.885 499.325 437.055 516.068 416.045 544.354C395.036 572.641 388.782 609.866 395.535 653.025C402.288 696.187 422.045 745.242 453 797.121C514.909 900.876 621.556 1015.83 758.276 1117.38C894.997 1218.93 1035.87 1287.81 1153.08 1317.1C1211.69 1331.75 1264.37 1336.49 1307.64 1330.48C1350.91 1324.47 1384.74 1307.73 1405.75 1279.45C1426.76 1251.16 1433.01 1213.93 1426.26 1170.77C1419.5 1127.61 1399.75 1078.56 1368.79 1026.68C1306.88 922.924 1200.24 807.966 1063.52 706.418Z" stroke="url(#paint2_linear_254_8105)" stroke-opacity="0.3"/>
<path d="M1059.91 703.783C921.439 604.637 779.388 538.224 661.677 510.985C602.821 497.365 550.074 493.544 506.914 500.305C463.756 507.064 430.223 524.395 409.71 553.044C389.198 581.693 383.594 619.021 391.099 662.056C398.605 705.093 419.215 753.796 451.071 805.127C514.781 907.786 623.418 1020.87 761.89 1120.01C900.362 1219.16 1042.41 1285.57 1160.12 1312.81C1218.98 1326.43 1271.73 1330.25 1314.89 1323.49C1358.04 1316.73 1391.58 1299.4 1412.09 1270.75C1432.6 1242.1 1438.21 1204.77 1430.7 1161.74C1423.2 1118.7 1402.59 1070 1370.73 1018.67C1307.02 916.009 1198.38 802.929 1059.91 703.783Z" stroke="url(#paint3_linear_254_8105)" stroke-opacity="0.3"/>
<path d="M1056.25 701.216C916.069 604.502 772.881 540.578 654.712 515.397C595.627 502.807 542.822 499.908 499.786 507.42C456.753 514.932 423.527 532.846 403.518 561.848C383.508 590.85 378.557 628.271 386.812 671.168C395.068 714.068 416.525 762.404 449.271 813.171C514.764 914.702 625.358 1025.87 765.539 1122.58C905.72 1219.3 1048.91 1283.22 1167.08 1308.4C1226.16 1320.99 1278.97 1323.89 1322 1316.38C1365.04 1308.87 1398.26 1290.95 1418.27 1261.95C1438.28 1232.95 1443.23 1195.53 1434.98 1152.63C1426.72 1109.73 1405.26 1061.4 1372.52 1010.63C1307.02 909.098 1196.43 797.931 1056.25 701.216Z" stroke="url(#paint4_linear_254_8105)" stroke-opacity="0.3"/>
<path d="M1052.55 698.709C910.706 604.456 766.424 543.041 647.834 519.927C588.538 508.369 535.691 506.392 492.793 514.654C449.897 522.916 416.989 541.407 397.489 570.754C377.988 600.101 373.691 637.603 382.694 680.349C391.697 723.098 413.994 771.052 447.622 821.24C514.876 921.612 627.393 1030.83 769.241 1125.09C911.089 1219.34 1055.37 1280.75 1173.96 1303.87C1233.26 1315.43 1286.1 1317.4 1329 1309.14C1371.9 1300.88 1404.81 1282.39 1424.31 1253.04C1443.81 1223.69 1448.1 1186.19 1439.1 1143.45C1430.1 1100.7 1407.8 1052.74 1374.17 1002.56C1306.92 902.182 1194.4 792.963 1052.55 698.709Z" stroke="url(#paint5_linear_254_8105)" stroke-opacity="0.3"/>
<path d="M1048.81 696.27C905.34 604.507 760.008 545.62 641.033 524.578C581.544 514.057 528.67 513.003 485.923 522.013C443.177 531.022 410.597 550.084 391.612 579.767C372.627 609.45 368.985 647.021 378.732 689.604C388.48 732.189 411.611 779.747 446.109 829.34C515.105 928.523 629.511 1035.76 772.982 1127.53C916.453 1219.29 1061.78 1278.18 1180.76 1299.22C1240.25 1309.74 1293.12 1310.79 1335.87 1301.78C1378.62 1292.77 1411.2 1273.71 1430.18 1244.03C1449.17 1214.35 1452.81 1176.78 1443.06 1134.19C1433.31 1091.61 1410.18 1044.05 1375.68 994.457C1306.69 895.273 1192.28 788.034 1048.81 696.27Z" stroke="url(#paint6_linear_254_8105)" stroke-opacity="0.3"/>
<path d="M1045.03 693.896C899.98 604.651 753.642 548.308 634.318 529.347C574.655 519.865 521.771 519.734 479.187 529.488C436.605 539.242 404.363 558.87 385.899 588.88C367.435 618.89 364.449 656.518 374.938 698.925C385.427 741.334 409.384 788.48 444.743 837.464C515.459 935.428 631.72 1040.65 776.77 1129.9C921.821 1219.15 1068.16 1275.49 1187.48 1294.45C1247.15 1303.93 1300.03 1304.06 1342.61 1294.31C1385.2 1284.55 1417.44 1264.93 1435.9 1234.92C1454.37 1204.91 1457.35 1167.28 1446.86 1124.87C1436.37 1082.46 1412.42 1035.32 1377.06 986.332C1306.34 888.368 1190.08 783.141 1045.03 693.896Z" stroke="url(#paint7_linear_254_8105)" stroke-opacity="0.3"/>
<path d="M1041.21 691.585C894.619 604.885 747.321 551.105 627.684 534.229C567.864 525.79 514.986 526.582 472.578 537.078C430.174 547.574 398.279 567.761 380.341 598.089C362.404 628.416 360.075 666.091 371.302 708.308C382.53 750.527 407.307 797.249 443.515 845.607C515.93 942.323 634.009 1045.5 780.595 1132.2C927.181 1218.9 1074.48 1272.68 1194.12 1289.56C1253.94 1298 1306.82 1297.21 1349.22 1286.71C1391.63 1276.22 1423.52 1256.03 1441.46 1225.7C1459.4 1195.37 1461.73 1157.7 1450.5 1115.48C1439.27 1073.26 1414.49 1026.54 1378.29 978.182C1305.87 881.467 1187.79 778.286 1041.21 691.585Z" stroke="url(#paint8_linear_254_8105)" stroke-opacity="0.3"/>
<path d="M1037.34 689.348C889.262 605.219 741.048 554.019 621.135 539.233C561.177 531.84 508.32 533.554 466.103 544.788C423.888 556.023 392.35 576.764 374.944 607.4C357.539 638.036 355.868 675.745 367.83 717.76C379.793 759.777 405.381 806.059 442.428 853.778C516.52 949.215 636.382 1050.32 784.459 1134.45C932.536 1218.58 1080.75 1269.78 1200.66 1284.56C1260.62 1291.96 1313.48 1290.24 1355.7 1279.01C1397.91 1267.77 1429.45 1247.03 1446.85 1216.4C1464.26 1185.76 1465.93 1148.05 1453.97 1106.04C1442.01 1064.02 1416.42 1017.74 1379.37 970.019C1305.28 874.582 1185.42 773.477 1037.34 689.348Z" stroke="url(#paint9_linear_254_8105)" stroke-opacity="0.3"/>
<path d="M1033.43 687.176C883.912 605.644 734.827 557.038 614.674 544.347C554.596 538.001 501.777 540.638 459.762 552.607C417.75 564.576 386.579 585.865 369.71 616.8C352.842 647.735 351.83 685.468 364.523 727.267C377.218 769.069 403.61 814.897 441.484 861.963C517.23 956.092 638.838 1055.09 788.361 1136.62C937.884 1218.15 1086.97 1266.76 1207.12 1279.45C1267.2 1285.8 1320.02 1283.16 1362.03 1271.19C1404.05 1259.22 1435.22 1237.93 1452.09 1207C1468.95 1176.06 1469.97 1138.33 1457.27 1096.53C1444.58 1054.73 1418.19 1008.9 1380.31 961.834C1304.57 867.705 1182.96 768.707 1033.43 687.176Z" stroke="url(#paint10_linear_254_8105)" stroke-opacity="0.3"/>
<path d="M1029.49 685.07C878.571 606.16 728.66 560.163 608.303 549.571C548.124 544.275 495.359 547.833 453.56 560.534C411.762 573.235 380.968 595.064 364.642 626.288C348.316 657.513 347.963 695.258 361.384 736.83C374.806 778.403 401.993 823.764 440.683 870.162C518.061 962.954 641.378 1059.81 792.301 1138.72C943.224 1217.63 1093.13 1263.63 1213.49 1274.22C1273.67 1279.52 1326.44 1275.96 1368.23 1263.26C1410.03 1250.56 1440.83 1228.73 1457.15 1197.51C1473.48 1166.28 1473.83 1128.54 1460.41 1086.96C1446.99 1045.39 1419.8 1000.03 1381.11 953.633C1303.73 860.84 1180.42 763.98 1029.49 685.07Z" stroke="url(#paint11_linear_254_8105)" stroke-opacity="0.3"/>
<path d="M1025.52 683.035C873.241 606.771 722.55 563.398 602.027 554.908C541.764 550.663 489.07 555.141 447.498 568.57C405.929 581.998 375.52 604.361 359.741 635.866C343.963 667.371 344.268 705.116 358.413 746.447C372.558 787.78 400.534 832.66 440.027 878.375C519.012 969.803 644.001 1064.5 796.278 1140.76C948.555 1217.02 1099.25 1260.4 1219.77 1268.89C1280.03 1273.13 1332.73 1268.65 1374.3 1255.23C1415.87 1241.8 1446.28 1219.43 1462.05 1187.93C1477.83 1156.42 1477.53 1118.68 1463.38 1077.35C1449.24 1036.01 1421.26 991.136 1381.77 945.42C1302.78 853.992 1177.79 759.299 1025.52 683.035Z" stroke="url(#paint12_linear_254_8105)" stroke-opacity="0.3"/>
<path d="M1021.51 681.07C867.922 607.475 716.497 566.738 595.844 560.353C535.517 557.16 482.909 562.558 441.578 576.71C400.249 590.861 370.235 613.752 355.009 645.527C339.783 677.303 340.747 715.037 355.611 756.115C370.475 797.195 399.229 841.579 439.515 886.598C520.084 976.634 646.706 1069.13 800.291 1142.73C953.876 1216.32 1105.3 1257.06 1225.95 1263.44C1286.28 1266.64 1338.89 1261.24 1380.22 1247.09C1421.55 1232.93 1451.56 1210.04 1466.79 1178.27C1482.02 1146.49 1481.05 1108.76 1466.19 1067.68C1451.32 1026.6 1422.57 982.217 1382.28 937.198C1301.71 847.162 1175.09 754.665 1021.51 681.07Z" stroke="url(#paint13_linear_254_8105)" stroke-opacity="0.3"/>
<path d="M1017.46 679.176C862.612 608.273 710.499 570.185 589.753 565.907C529.379 563.767 476.873 570.082 435.795 584.953C394.72 599.824 365.11 623.235 350.441 655.271C335.772 687.307 337.394 725.019 352.972 765.831C368.552 806.646 398.076 850.521 439.141 894.83C521.269 983.446 649.487 1073.72 804.333 1144.62C959.178 1215.53 1111.29 1253.61 1232.04 1257.89C1292.41 1260.03 1344.92 1253.72 1385.99 1238.85C1427.07 1223.98 1456.68 1200.56 1471.35 1168.53C1486.02 1136.49 1484.4 1098.78 1468.82 1057.97C1453.24 1017.15 1423.71 973.278 1382.65 928.969C1300.52 840.353 1172.3 750.079 1017.46 679.176Z" stroke="url(#paint14_linear_254_8105)" stroke-opacity="0.3"/>
<path d="M1013.39 677.35C857.326 609.161 704.571 573.733 583.769 571.562C523.367 570.477 470.979 577.707 430.167 593.293C389.358 608.878 360.161 632.802 346.053 665.09C331.945 697.377 334.225 735.055 350.514 775.589C366.803 816.125 397.089 859.479 438.921 903.065C522.583 990.234 652.356 1078.26 808.416 1146.45C964.476 1214.64 1117.23 1250.06 1238.03 1252.23C1298.43 1253.32 1350.82 1246.09 1391.63 1230.5C1432.44 1214.92 1461.64 1190.99 1475.75 1158.71C1489.86 1126.42 1487.58 1088.74 1471.29 1048.21C1455 1007.67 1424.71 964.317 1382.88 920.731C1299.22 833.562 1169.44 745.54 1013.39 677.35Z" stroke="url(#paint15_linear_254_8105)" stroke-opacity="0.3"/>
<path d="M1009.27 675.598C852.048 610.143 698.699 577.386 577.877 577.324C517.465 577.293 465.212 585.436 424.678 601.732C384.147 618.027 355.372 642.457 341.83 674.986C328.287 707.515 331.225 745.147 348.218 785.391C365.212 825.637 396.25 868.455 438.836 911.304C524.007 997 655.297 1082.74 812.523 1148.2C969.749 1213.65 1123.1 1246.41 1243.92 1246.47C1304.33 1246.5 1356.59 1238.36 1397.12 1222.07C1437.65 1205.77 1466.43 1181.34 1479.97 1148.81C1493.51 1116.28 1490.57 1078.65 1473.58 1038.41C1456.58 998.161 1425.55 955.342 1382.96 912.494C1297.79 826.798 1166.5 741.054 1009.27 675.598Z" stroke="url(#paint16_linear_254_8105)" stroke-opacity="0.3"/>
<path d="M1005.13 673.918C846.788 611.216 692.89 581.141 572.086 583.188C511.683 584.211 459.579 593.265 419.336 610.266C379.095 627.266 350.751 652.194 337.778 684.954C324.806 717.715 328.4 755.29 346.093 795.231C363.787 835.174 395.567 877.444 438.895 919.543C525.548 1003.74 658.314 1087.18 816.659 1149.88C975.003 1212.58 1128.9 1242.66 1249.71 1240.61C1310.11 1239.59 1362.21 1230.53 1402.46 1213.53C1442.7 1196.53 1471.04 1171.6 1484.01 1138.84C1496.99 1106.08 1493.39 1068.51 1475.7 1028.57C1458 988.625 1426.22 946.355 1382.9 904.255C1296.24 820.059 1163.48 736.62 1005.13 673.918Z" stroke="url(#paint17_linear_254_8105)" stroke-opacity="0.3"/>
<path d="M1000.97 672.308C841.552 612.379 687.153 584.994 566.403 589.149C506.027 591.226 454.089 601.188 414.149 618.889C374.211 636.588 346.306 662.008 333.907 694.989C321.509 727.971 325.758 765.478 344.145 805.104C362.534 844.732 395.047 886.441 439.102 927.778C527.212 1010.45 661.414 1091.56 820.829 1151.49C980.243 1211.42 1134.64 1238.8 1255.39 1234.65C1315.77 1232.57 1367.71 1222.61 1407.65 1204.91C1447.58 1187.21 1475.49 1161.79 1487.89 1128.81C1500.29 1095.82 1496.04 1058.32 1477.65 1018.69C1459.26 979.063 1426.75 937.353 1382.69 896.017C1294.58 813.346 1160.38 732.236 1000.97 672.308Z" stroke="url(#paint18_linear_254_8105)" stroke-opacity="0.3"/>
<path d="M996.772 670.773C836.336 613.635 681.482 588.949 560.823 595.211C500.492 598.342 448.736 609.208 409.111 627.603C369.488 645.997 342.031 671.9 330.21 705.093C318.389 738.286 323.291 775.713 342.368 815.012C361.445 854.313 394.681 895.448 439.451 936.009C528.99 1017.13 664.588 1095.89 825.024 1153.02C985.46 1210.16 1140.31 1234.85 1260.97 1228.58C1321.3 1225.45 1373.06 1214.59 1412.69 1196.19C1452.31 1177.8 1479.76 1151.9 1491.59 1118.7C1503.41 1085.51 1498.5 1048.08 1479.43 1008.78C1460.35 969.483 1427.11 928.347 1382.34 887.786C1292.81 806.665 1157.21 727.91 996.772 670.773Z" stroke="url(#paint19_linear_254_8105)" stroke-opacity="0.3"/>
<path d="M992.549 669.311C831.141 614.982 675.88 593.003 555.348 601.369C495.081 605.552 443.523 617.32 404.225 636.404C364.929 655.487 337.928 681.864 326.688 715.259C315.448 748.653 321.003 785.989 340.762 824.949C360.523 863.911 394.472 904.46 439.943 944.234C530.884 1023.78 667.835 1100.16 829.244 1154.49C990.653 1208.81 1145.91 1230.79 1266.45 1222.43C1326.71 1218.24 1378.27 1206.48 1417.57 1187.39C1456.86 1168.31 1483.87 1141.93 1495.11 1108.54C1506.35 1075.14 1500.79 1037.81 1481.03 998.847C1461.27 959.885 1427.32 919.336 1381.85 879.562C1290.91 800.016 1153.96 723.64 992.549 669.311Z" stroke="url(#paint20_linear_254_8105)" stroke-opacity="0.3"/>
<path d="M988.305 667.924C825.972 616.421 670.352 597.154 549.984 607.623C489.8 612.857 438.454 625.523 399.495 645.29C360.539 665.056 334.002 691.901 323.347 725.486C312.691 759.071 318.897 796.304 339.333 834.914C359.77 873.525 394.422 913.476 440.581 952.45C532.896 1030.4 671.16 1104.37 833.492 1155.87C995.824 1207.38 1151.45 1226.64 1271.81 1216.18C1332 1210.94 1383.34 1198.28 1422.3 1178.51C1461.26 1158.74 1487.79 1131.9 1498.45 1098.31C1509.11 1064.73 1502.9 1027.49 1482.46 988.885C1462.03 950.274 1427.37 910.323 1381.22 871.349C1288.9 793.402 1150.64 719.428 988.305 667.924Z" stroke="url(#paint21_linear_254_8105)" stroke-opacity="0.3"/>
<path d="M984.038 666.609C820.831 617.946 664.898 601.399 544.732 613.966C484.648 620.25 433.531 633.81 394.923 654.254C356.317 674.697 330.253 702.001 320.185 735.767C310.118 769.533 316.973 806.652 338.079 844.899C359.187 883.148 394.531 922.487 441.363 960.65C535.024 1036.97 674.558 1108.52 837.764 1157.19C1000.97 1205.85 1156.9 1222.4 1277.07 1209.83C1337.15 1203.55 1388.27 1189.98 1426.88 1169.54C1465.49 1149.1 1491.55 1121.79 1501.62 1088.03C1511.68 1054.26 1504.83 1017.14 1483.72 978.896C1462.61 940.647 1427.27 901.308 1380.44 863.145C1286.78 786.822 1147.24 715.271 984.038 666.609Z" stroke="url(#paint22_linear_254_8105)" stroke-opacity="0.3"/>
<path d="M979.744 665.369C815.713 619.562 659.515 605.739 539.586 620.402C479.621 627.733 428.749 642.184 390.503 663.298C352.26 684.411 326.677 712.166 317.2 746.103C307.723 780.039 315.225 817.033 336.996 854.906C358.768 892.78 394.793 931.497 442.283 968.837C537.263 1043.51 678.024 1112.62 842.055 1158.43C1006.09 1204.23 1162.28 1218.06 1282.21 1203.39C1342.18 1196.06 1393.05 1181.61 1431.3 1160.5C1469.54 1139.38 1495.12 1111.63 1504.6 1077.69C1514.08 1043.76 1506.57 1006.76 1484.8 968.889C1463.03 931.014 1427.01 892.297 1379.52 854.958C1284.54 780.28 1143.78 711.176 979.744 665.369Z" stroke="url(#paint23_linear_254_8105)" stroke-opacity="0.3"/>
<path d="M975.431 664.206C810.626 621.268 654.21 610.173 534.556 626.927C474.727 635.304 424.115 650.64 386.244 672.418C348.375 694.196 323.28 722.393 314.397 756.49C305.514 790.587 313.66 827.444 336.089 864.931C358.519 902.42 395.213 940.502 443.349 977.007C539.617 1050.02 681.563 1116.65 846.368 1159.59C1011.17 1202.53 1167.59 1213.62 1287.24 1196.87C1347.07 1188.49 1397.68 1173.16 1435.56 1151.38C1473.42 1129.6 1498.52 1101.4 1507.4 1067.31C1516.29 1033.21 1508.14 996.351 1485.71 958.864C1463.28 921.375 1426.59 883.293 1378.45 846.788C1282.18 773.78 1140.24 707.143 975.431 664.206Z" stroke="url(#paint24_linear_254_8105)" stroke-opacity="0.3"/>
<path d="M971.097 663.117C805.567 623.063 648.981 614.699 529.638 633.539C469.965 642.959 419.628 659.176 382.143 681.612C344.66 704.047 320.061 732.677 311.774 766.924C303.487 801.171 312.275 837.88 335.355 874.97C358.436 912.062 395.79 949.498 444.554 985.157C542.082 1056.47 685.169 1120.62 850.699 1160.68C1016.23 1200.73 1172.81 1209.1 1292.16 1190.26C1351.83 1180.84 1402.17 1164.62 1439.65 1142.18C1477.14 1119.75 1501.74 1091.12 1510.02 1056.87C1518.31 1022.62 1509.52 985.915 1486.44 948.826C1463.36 911.734 1426.01 874.298 1377.24 838.639C1279.71 767.321 1136.63 703.172 971.097 663.117Z" stroke="url(#paint25_linear_254_8105)" stroke-opacity="0.3"/>
<path d="M966.744 662.104C800.541 624.945 643.833 619.315 524.836 640.234C465.337 650.694 415.291 667.787 378.203 690.874C341.117 713.96 317.021 743.015 309.333 777.402C301.645 811.788 311.073 848.338 334.796 885.02C358.521 921.703 396.523 958.481 445.902 993.284C544.66 1062.89 688.845 1124.53 855.048 1161.69C1021.25 1198.85 1177.96 1204.48 1296.96 1183.56C1356.46 1173.1 1406.5 1156.01 1443.59 1132.92C1480.68 1109.83 1504.77 1080.78 1512.46 1046.39C1520.15 1012.01 1510.72 975.456 1487 938.775C1463.27 902.092 1425.27 865.313 1375.89 830.51C1277.13 760.906 1132.95 699.263 966.744 662.104Z" stroke="url(#paint26_linear_254_8105)" stroke-opacity="0.3"/>
<path d="M962.379 661.167C795.552 626.914 638.77 624.02 520.157 647.013C460.849 658.51 411.109 676.473 374.429 700.204C337.752 723.934 314.167 753.405 307.08 787.92C299.994 822.436 310.058 858.816 334.418 895.078C358.779 931.341 397.417 967.451 447.396 1001.39C547.354 1069.26 692.592 1128.37 859.419 1162.63C1026.25 1196.88 1183.03 1199.77 1301.64 1176.78C1360.95 1165.28 1410.69 1147.32 1447.37 1123.59C1484.05 1099.86 1507.63 1070.39 1514.72 1035.87C1521.8 1001.36 1511.74 964.978 1487.38 928.716C1463.02 892.452 1424.38 856.343 1374.4 822.407C1274.44 754.537 1129.21 695.42 962.379 661.167Z" stroke="url(#paint27_linear_254_8105)" stroke-opacity="0.3"/>
<path d="M957.995 660.309C790.595 628.973 633.787 628.815 515.592 653.875C456.494 666.405 407.075 685.234 370.816 709.601C334.558 733.967 311.491 763.846 305.008 798.48C298.525 833.113 309.222 869.313 334.211 905.144C359.202 940.977 398.464 976.406 449.028 1009.46C550.155 1075.58 696.403 1132.15 863.802 1163.49C1031.2 1194.83 1188.01 1194.98 1306.2 1169.92C1365.3 1157.39 1414.72 1138.56 1450.98 1114.2C1487.24 1089.83 1510.31 1059.95 1516.79 1025.32C1523.27 990.685 1512.57 954.486 1487.59 918.655C1462.59 882.822 1423.33 847.392 1372.77 814.334C1271.64 748.218 1125.39 691.645 957.995 660.309Z" stroke="url(#paint28_linear_254_8105)" stroke-opacity="0.3"/>
<path d="M953.598 659.524C785.678 631.114 628.89 633.693 511.151 660.812C452.281 674.371 403.198 694.06 367.369 719.057C331.542 744.052 309 774.328 303.122 809.07C297.244 843.811 308.572 879.818 334.183 915.208C359.795 950.599 399.669 985.338 450.803 1017.51C553.068 1081.85 700.281 1135.86 868.202 1164.27C1036.12 1192.68 1192.91 1190.1 1310.65 1162.98C1369.52 1149.42 1418.6 1129.74 1454.43 1104.74C1490.26 1079.74 1512.8 1049.47 1518.68 1014.73C1524.56 979.984 1513.23 943.977 1487.62 908.588C1462 873.196 1422.13 838.457 1371 806.286C1268.73 741.946 1121.52 687.934 953.598 659.524Z" stroke="url(#paint29_linear_254_8105)" stroke-opacity="0.3"/>
<path d="M949.187 658.817C780.796 633.342 624.077 638.657 506.83 667.826C448.205 682.411 399.473 702.953 364.086 728.571C328.701 754.188 306.691 784.853 301.42 819.692C296.15 854.531 308.104 890.335 334.328 925.272C360.554 960.211 401.029 994.249 452.716 1025.52C556.088 1088.07 704.222 1139.5 872.613 1164.98C1041 1190.45 1197.72 1185.14 1314.97 1155.97C1373.59 1141.38 1422.33 1120.84 1457.71 1095.22C1493.1 1069.61 1515.11 1038.94 1520.38 1004.1C1525.65 969.264 1513.7 933.46 1487.47 898.523C1461.25 863.584 1420.77 829.546 1369.08 798.272C1265.71 735.726 1117.58 684.292 949.187 658.817Z" stroke="url(#paint30_linear_254_8105)" stroke-opacity="0.3"/>
<path d="M944.765 658.184C775.955 635.652 619.353 643.702 502.632 674.913C444.271 690.519 395.905 711.908 360.97 738.14C326.038 764.37 304.566 795.415 299.904 830.34C295.243 865.266 307.82 900.856 334.65 935.33C361.482 969.806 402.544 1003.13 454.769 1033.5C559.217 1094.23 708.226 1143.07 877.036 1165.6C1045.85 1188.14 1202.45 1180.09 1319.17 1148.88C1377.53 1133.27 1425.9 1111.88 1460.83 1085.65C1495.76 1059.42 1517.23 1028.37 1521.9 993.449C1526.56 958.523 1513.98 922.934 1487.15 888.46C1460.32 853.984 1419.26 820.657 1367.03 790.291C1262.58 729.558 1113.57 680.717 944.765 658.184Z" stroke="url(#paint31_linear_254_8105)" stroke-opacity="0.3"/>
<path d="M940.328 657.634C771.151 638.051 614.713 648.833 498.555 682.076C440.475 698.698 392.49 720.929 358.018 747.766C323.548 774.602 302.622 806.017 298.57 841.018C294.519 876.02 307.715 911.385 335.143 945.385C362.572 979.388 404.21 1011.99 456.957 1041.44C562.45 1100.34 712.288 1146.58 881.465 1166.16C1050.64 1185.74 1207.08 1174.96 1323.24 1141.72C1381.32 1125.1 1429.3 1102.86 1463.78 1076.03C1498.24 1049.19 1519.17 1017.78 1523.22 982.775C1527.27 947.774 1514.08 912.409 1486.65 878.408C1459.22 844.406 1417.58 811.801 1364.84 782.351C1259.34 723.451 1109.51 677.217 940.328 657.634Z" stroke="url(#paint32_linear_254_8105)" stroke-opacity="0.3"/>
<path d="M935.889 657.161C766.395 640.534 610.169 654.044 494.609 689.309C436.828 706.942 389.238 730.007 355.24 757.442C321.244 784.875 300.869 816.651 297.429 851.717C293.989 886.784 307.801 921.913 335.818 955.43C363.836 988.949 406.037 1020.82 459.29 1049.35C565.794 1106.4 716.416 1150.01 885.909 1166.64C1055.4 1183.26 1211.63 1169.75 1327.19 1134.49C1384.97 1116.85 1432.56 1093.79 1466.56 1066.35C1500.55 1038.92 1520.93 1007.15 1524.37 972.079C1527.81 937.013 1514 901.883 1485.98 868.367C1457.96 834.848 1415.76 802.975 1362.51 774.45C1256 717.4 1105.38 673.788 935.889 657.161Z" stroke="url(#paint33_linear_254_8105)" stroke-opacity="0.3"/>
<path d="M931.439 656.762C761.681 643.095 605.715 659.33 490.788 696.606C433.323 715.245 386.143 739.137 352.629 767.161C319.117 795.183 299.3 827.31 296.472 862.431C293.645 897.553 308.067 932.435 336.665 965.458C365.264 998.483 408.014 1029.61 461.757 1057.21C569.241 1112.39 720.601 1153.36 890.359 1167.03C1060.12 1180.7 1216.08 1164.46 1331.01 1127.19C1388.47 1108.55 1435.65 1084.66 1469.17 1056.63C1502.68 1028.61 1522.5 996.483 1525.33 961.362C1528.15 926.24 1513.73 891.358 1485.13 858.335C1456.53 825.31 1413.78 794.179 1360.04 766.587C1252.56 711.405 1101.2 670.428 931.439 656.762Z" stroke="url(#paint34_linear_254_8105)" stroke-opacity="0.3"/>
<path d="M926.985 656.441C757.014 645.74 601.355 664.694 487.096 703.971C429.965 723.609 383.21 748.321 350.19 776.926C317.172 805.529 297.918 837.996 295.704 873.161C293.49 908.327 308.519 942.953 337.689 975.471C366.86 1007.99 410.147 1038.37 464.363 1065.02C572.793 1118.32 724.846 1156.65 894.816 1167.35C1064.79 1178.05 1220.45 1159.1 1334.71 1119.82C1391.84 1100.18 1438.59 1075.47 1471.61 1046.87C1504.63 1018.26 1523.88 985.796 1526.1 950.63C1528.31 915.465 1513.28 880.839 1484.11 848.321C1454.94 815.8 1411.65 785.419 1357.44 758.77C1249.01 705.472 1096.96 667.143 926.985 656.441Z" stroke="url(#paint35_linear_254_8105)" stroke-opacity="0.3"/>
<path d="M922.521 656.203C752.389 648.469 597.085 670.137 483.528 711.402C426.749 732.035 380.432 757.558 347.916 786.735C315.402 815.91 296.718 848.708 295.118 883.907C293.518 919.106 309.15 953.464 338.882 985.468C368.616 1017.47 412.427 1047.1 467.1 1072.79C576.444 1124.19 729.143 1159.86 899.274 1167.6C1069.4 1175.33 1224.71 1153.66 1338.27 1112.4C1395.05 1091.76 1441.36 1066.24 1473.88 1037.06C1506.39 1007.89 1525.08 975.09 1526.68 939.891C1528.28 904.692 1512.64 870.334 1482.91 838.329C1453.18 806.323 1409.37 776.702 1354.69 751.003C1245.35 699.605 1092.65 663.937 922.521 656.203Z" stroke="url(#paint36_linear_254_8105)" stroke-opacity="0.3"/>
<path d="M918.055 656.039C747.815 651.275 592.912 675.65 480.093 718.891C423.683 740.512 377.818 766.84 345.816 796.579C313.817 826.317 295.708 859.437 294.723 894.658C293.737 929.879 309.966 963.959 340.252 995.44C370.541 1026.92 414.862 1055.77 469.975 1080.52C580.199 1130 733.497 1163 903.737 1167.76C1073.98 1172.52 1228.88 1148.15 1341.7 1104.91C1398.11 1083.29 1443.97 1056.96 1475.98 1027.22C1507.98 997.48 1526.08 964.361 1527.07 929.14C1528.06 893.918 1511.83 859.838 1481.54 828.358C1451.25 796.875 1406.93 768.023 1351.82 743.282C1241.59 693.801 1088.3 660.802 918.055 656.039Z" stroke="url(#paint37_linear_254_8105)" stroke-opacity="0.3"/>
<path d="M913.594 655.95C743.296 654.158 588.843 681.233 476.796 726.436C420.771 749.038 375.373 776.163 343.895 806.456C312.419 836.748 294.891 870.178 294.521 905.412C294.15 940.645 310.971 974.436 341.802 1005.38C372.635 1036.33 417.453 1064.41 472.99 1088.18C584.061 1135.73 737.911 1166.05 908.209 1167.84C1078.51 1169.63 1232.96 1142.56 1345.01 1097.36C1401.03 1074.75 1446.43 1047.63 1477.91 1017.34C1509.38 987.044 1526.91 953.614 1527.28 918.381C1527.65 883.147 1510.83 849.356 1480 818.408C1449.17 787.459 1404.35 759.386 1348.81 735.61C1237.74 688.06 1083.89 657.742 913.594 655.95Z" stroke="url(#paint38_linear_254_8105)" stroke-opacity="0.3"/>
<path d="M909.124 655.943C738.821 657.124 584.863 686.89 473.622 734.042C418 757.618 373.082 785.531 342.138 816.369C311.196 847.206 294.254 880.937 294.498 916.171C294.743 951.405 312.151 984.898 343.517 1015.3C374.886 1045.71 420.187 1073 476.13 1095.8C588.014 1141.4 742.37 1169.03 912.673 1167.85C1082.98 1166.67 1236.93 1136.9 1348.17 1089.75C1403.8 1066.18 1448.71 1038.26 1479.66 1007.43C1510.6 976.589 1527.54 942.858 1527.3 907.624C1527.05 872.389 1509.65 838.896 1478.28 808.492C1446.91 778.086 1401.61 750.798 1345.67 727.995C1233.78 682.391 1079.43 654.762 909.124 655.943Z" stroke="url(#paint39_linear_254_8105)" stroke-opacity="0.3"/>
<path d="M904.655 656.015C734.398 660.168 580.984 692.616 470.582 741.702C415.381 766.246 370.957 794.938 340.556 826.312C310.156 857.684 293.806 891.705 294.665 926.93C295.524 962.155 313.514 995.339 345.406 1025.19C377.301 1055.05 423.071 1081.54 479.404 1103.36C592.067 1147.01 746.881 1171.94 917.137 1167.78C1087.39 1163.63 1240.81 1131.18 1351.21 1082.1C1406.41 1057.55 1450.84 1028.86 1481.24 997.487C1511.64 966.115 1527.99 932.093 1527.13 896.868C1526.27 861.644 1508.28 828.46 1476.39 798.607C1444.49 768.753 1398.72 742.261 1342.39 720.438C1229.73 676.793 1074.91 651.862 904.655 656.015Z" stroke="url(#paint40_linear_254_8105)" stroke-opacity="0.3"/>
<path d="M900.194 656.16C730.036 663.284 577.211 698.405 467.683 749.41C412.918 774.913 369.002 804.376 339.153 836.276C309.305 868.173 293.551 902.475 295.025 937.68C296.499 972.884 315.065 1005.75 347.474 1035.04C379.884 1064.33 426.11 1090.02 482.815 1110.86C596.222 1152.53 751.448 1174.76 921.606 1167.63C1091.76 1160.51 1244.59 1125.39 1354.12 1074.38C1408.88 1048.88 1452.8 1019.42 1482.65 987.517C1512.49 955.619 1528.25 921.318 1526.78 886.113C1525.3 850.909 1506.74 818.044 1474.33 788.752C1441.92 759.46 1395.69 733.77 1338.99 712.933C1225.58 671.261 1070.35 649.037 900.194 656.16Z" stroke="url(#paint41_linear_254_8105)" stroke-opacity="0.3"/>
<path d="M895.734 656.385C725.726 666.477 573.537 704.26 464.916 757.169C410.605 783.624 367.209 813.849 337.921 846.265C308.636 878.678 293.482 913.25 295.57 948.423C297.658 983.596 316.795 1016.13 349.71 1044.85C382.627 1073.58 429.294 1098.46 486.354 1118.3C600.472 1157.99 756.062 1177.5 926.069 1167.41C1096.08 1157.31 1248.27 1119.53 1356.89 1066.62C1411.2 1040.17 1454.59 1009.94 1483.88 977.526C1513.17 945.113 1528.32 910.541 1526.23 875.368C1524.15 840.194 1505.01 807.658 1472.09 778.937C1439.18 750.214 1392.51 725.335 1335.45 705.492C1221.33 665.805 1065.74 646.293 895.734 656.385Z" stroke="url(#paint42_linear_254_8105)" stroke-opacity="0.3"/>
<path d="M891.275 656.688C721.47 669.746 569.963 710.179 462.282 764.975C408.441 792.374 365.579 823.352 336.862 856.274C308.146 889.194 293.598 924.025 296.3 959.156C299.001 994.288 318.703 1026.48 352.115 1054.63C385.528 1082.77 432.622 1106.83 490.019 1125.68C604.812 1163.37 760.719 1180.16 930.525 1167.1C1100.33 1154.04 1251.84 1113.61 1359.52 1058.81C1413.36 1031.42 1456.22 1000.44 1484.94 967.516C1513.65 934.596 1528.2 899.765 1525.5 864.634C1522.8 829.502 1503.1 797.305 1469.69 769.163C1436.27 741.019 1389.18 716.958 1331.78 698.113C1216.99 660.424 1061.08 643.63 891.275 656.688Z" stroke="url(#paint43_linear_254_8105)" stroke-opacity="0.3"/>
<path d="M886.821 657.072C717.269 673.091 566.491 716.162 459.783 772.83C406.428 801.164 364.114 832.885 335.975 866.303C307.838 899.719 293.901 934.799 297.215 969.878C300.529 1004.96 320.79 1036.8 354.687 1064.36C388.587 1091.92 436.093 1115.15 493.811 1132.99C609.244 1168.67 765.421 1182.74 934.972 1166.72C1104.52 1150.7 1255.3 1107.63 1362.01 1050.97C1415.37 1022.63 1457.68 990.909 1485.82 957.491C1513.96 924.075 1527.89 888.996 1524.58 853.917C1521.26 818.838 1501 786.99 1467.11 759.435C1433.21 731.878 1385.7 708.643 1327.98 690.803C1212.55 655.123 1056.37 641.053 886.821 657.072Z" stroke="url(#paint44_linear_254_8105)" stroke-opacity="0.3"/>
<path d="M882.379 657.531C713.133 676.507 563.13 722.203 457.427 780.724C404.574 809.985 362.82 842.44 335.269 876.344C307.719 910.246 294.396 945.563 298.322 980.579C302.248 1015.59 323.062 1047.08 357.435 1074.04C391.81 1101 439.715 1123.41 497.735 1140.24C613.773 1173.9 770.171 1185.24 939.418 1166.26C1108.66 1147.29 1258.67 1101.59 1364.37 1043.07C1417.22 1013.81 1458.98 981.355 1486.53 947.451C1514.08 913.549 1527.4 878.232 1523.47 843.216C1519.55 808.2 1498.74 776.71 1464.36 749.751C1429.99 722.79 1382.08 700.388 1324.06 683.557C1208.02 649.898 1051.63 638.555 882.379 657.531Z" stroke="url(#paint45_linear_254_8105)" stroke-opacity="0.3"/>
<path d="M877.946 658.068C709.056 679.994 559.873 728.301 455.208 788.658C402.874 818.837 361.693 852.016 334.738 886.396C307.784 920.773 295.079 956.318 299.616 991.26C304.152 1026.2 325.512 1057.32 360.351 1083.68C395.191 1110.04 443.48 1131.6 501.785 1147.41C618.393 1179.04 774.965 1187.65 943.854 1165.73C1112.74 1143.8 1261.93 1095.49 1366.59 1035.14C1418.93 1004.96 1460.11 971.779 1487.06 937.399C1514.02 903.022 1526.72 867.477 1522.18 832.535C1517.65 797.593 1496.29 766.472 1461.45 740.116C1426.61 713.76 1378.32 692.197 1320.02 676.382C1203.41 644.752 1046.84 636.141 877.946 658.068Z" stroke="url(#paint46_linear_254_8105)" stroke-opacity="0.3"/>
<path d="M873.52 658.68C705.038 683.551 556.722 734.454 453.125 796.629C401.326 827.716 360.73 861.609 334.379 896.454C308.03 931.296 295.947 967.057 301.092 1001.91C306.238 1036.77 328.138 1067.52 363.431 1093.26C398.726 1119 447.384 1139.72 505.956 1154.52C623.098 1184.11 779.797 1189.98 948.278 1165.11C1116.76 1140.24 1265.08 1089.34 1368.67 1027.16C1420.47 996.076 1461.07 962.183 1487.42 927.339C1513.77 892.496 1525.85 856.735 1520.71 821.878C1515.56 787.02 1493.66 756.276 1458.37 730.533C1423.07 704.788 1374.41 684.071 1315.84 669.276C1198.7 639.686 1042 633.809 873.52 658.68Z" stroke="url(#paint47_linear_254_8105)" stroke-opacity="0.3"/>
<path d="M869.105 659.373C701.084 687.18 553.678 740.664 451.183 804.637C399.934 836.624 359.935 871.22 334.196 906.519C308.459 941.817 297.002 977.783 302.756 1012.55C308.509 1047.31 330.942 1077.66 366.679 1102.79C402.418 1127.91 451.43 1147.78 510.251 1161.55C627.892 1189.09 784.669 1192.23 952.691 1164.42C1120.71 1136.62 1268.12 1083.13 1370.61 1019.16C1421.86 987.172 1461.86 952.576 1487.6 917.276C1513.34 881.979 1524.79 846.013 1519.04 811.251C1513.29 776.488 1490.85 746.131 1455.12 721.007C1419.38 695.883 1370.37 676.018 1311.54 662.247C1193.9 634.707 1037.13 631.565 869.105 659.373Z" stroke="url(#paint48_linear_254_8105)" stroke-opacity="0.3"/>
<path d="M864.704 660.14C697.194 690.875 550.744 746.924 449.38 812.676C398.698 845.552 359.309 880.841 334.19 916.584C309.073 952.325 298.246 988.486 304.605 1023.14C310.964 1057.8 333.923 1087.76 370.093 1112.26C406.265 1136.75 455.616 1155.76 514.669 1168.5C632.773 1193.99 789.581 1194.39 957.091 1163.65C1124.6 1132.92 1271.05 1076.87 1372.42 1011.12C1423.1 978.242 1462.49 942.953 1487.61 907.21C1512.72 871.469 1523.55 835.308 1517.19 800.652C1510.83 765.995 1487.87 736.034 1451.7 711.538C1415.53 687.041 1366.18 668.034 1307.13 655.292C1189.02 629.809 1032.21 629.404 864.704 660.14Z" stroke="url(#paint49_linear_254_8105)" stroke-opacity="0.3"/>
<path d="M860.319 660.983C693.37 694.638 547.921 753.233 447.721 820.745C397.62 854.501 358.853 890.472 334.361 926.648C309.872 962.822 299.677 999.166 306.64 1033.71C313.603 1068.25 337.082 1097.8 373.674 1121.66C410.268 1145.53 459.943 1163.67 519.209 1175.38C637.74 1198.8 794.531 1196.46 961.48 1162.81C1128.43 1129.15 1273.88 1070.56 1374.08 1003.05C1424.18 969.292 1462.95 933.321 1487.44 897.145C1511.93 860.971 1522.12 824.627 1515.16 790.086C1508.2 755.546 1484.72 725.99 1448.12 702.129C1411.53 678.267 1361.86 660.125 1302.59 648.416C1184.06 624.997 1027.27 627.329 860.319 660.983Z" stroke="url(#paint50_linear_254_8105)" stroke-opacity="0.3"/>
<path d="M855.948 661.908C689.612 698.471 545.207 759.596 446.2 828.846C396.696 863.471 358.563 900.113 334.707 936.711C310.852 973.307 301.293 1009.82 308.858 1044.24C316.422 1078.65 340.414 1107.79 377.417 1131.01C414.421 1154.23 464.406 1171.5 523.867 1182.18C642.788 1203.52 799.515 1198.45 965.851 1161.89C1132.19 1125.33 1276.59 1064.2 1375.6 994.954C1425.1 960.328 1463.24 923.687 1487.09 887.089C1510.95 850.493 1520.51 813.976 1512.94 779.563C1505.38 745.149 1481.39 716.007 1444.38 692.789C1407.38 669.569 1357.39 652.296 1297.93 641.623C1179.01 620.277 1022.28 625.345 855.948 661.908Z" stroke="url(#paint51_linear_254_8105)" stroke-opacity="0.3"/>
<path d="M851.592 662.901C685.92 702.362 542.604 765.998 444.821 836.965C395.928 872.449 358.44 909.751 335.227 946.759C312.014 983.766 303.094 1020.44 311.258 1054.72C319.422 1089 343.919 1117.72 381.321 1140.28C418.725 1162.85 469.004 1179.25 528.643 1188.89C647.918 1208.15 804.532 1200.35 970.205 1160.89C1135.88 1121.43 1279.19 1057.79 1376.98 986.828C1425.87 951.343 1463.36 914.042 1486.57 877.033C1509.78 840.026 1518.7 803.348 1510.54 769.072C1502.37 734.796 1477.88 706.077 1440.48 683.508C1403.07 660.937 1352.79 644.54 1293.15 634.906C1173.88 615.639 1017.26 623.441 851.592 662.901Z" stroke="url(#paint52_linear_254_8105)" stroke-opacity="0.3"/>
<path d="M847.255 663.978C682.296 706.323 540.112 772.451 443.583 845.114C395.317 881.446 358.486 919.396 335.922 956.804C313.358 994.211 305.08 1031.04 313.841 1065.17C322.602 1099.3 347.596 1127.58 385.386 1149.5C423.179 1171.41 473.736 1186.93 533.534 1195.52C653.127 1212.7 809.582 1202.17 974.54 1159.82C1139.5 1117.48 1281.68 1051.35 1378.21 978.686C1426.48 942.353 1463.31 904.403 1485.87 866.995C1508.44 829.589 1516.71 792.761 1507.95 758.632C1499.19 724.504 1474.2 696.217 1436.41 674.304C1398.62 652.39 1348.06 636.872 1288.26 628.281C1168.67 611.098 1012.21 621.632 847.255 663.978Z" stroke="url(#paint53_linear_254_8105)" stroke-opacity="0.3"/>
<path d="M842.94 665.124C678.746 710.342 537.738 778.941 442.492 853.277C394.867 890.446 358.704 929.033 336.796 966.83C314.889 1004.62 307.255 1041.59 316.61 1075.56C325.965 1109.53 351.449 1137.38 389.616 1158.63C427.785 1179.88 478.605 1194.51 538.544 1202.06C658.419 1217.15 814.666 1203.89 978.86 1158.67C1143.05 1113.45 1284.06 1044.85 1379.31 970.517C1426.93 933.348 1463.1 894.761 1485 856.964C1506.91 819.17 1514.55 782.203 1505.19 748.233C1495.84 714.262 1470.35 686.416 1432.18 665.166C1394.02 643.914 1343.2 629.282 1283.26 621.735C1163.38 606.642 1007.13 619.905 842.94 665.124Z" stroke="url(#paint54_linear_254_8105)" stroke-opacity="0.3"/>
<path d="M838.644 666.346C675.264 714.423 535.475 785.473 441.54 861.46C394.571 899.454 359.087 938.667 337.842 976.84C316.598 1015.01 309.61 1052.11 319.557 1085.91C329.503 1119.71 355.469 1147.11 394.001 1167.69C432.536 1188.27 483.603 1202.01 543.665 1208.51C663.785 1221.51 819.777 1205.52 983.157 1157.45C1146.54 1109.37 1286.33 1038.32 1380.26 962.332C1427.23 924.338 1462.71 885.125 1483.96 846.952C1505.2 808.782 1512.19 771.687 1502.24 737.885C1492.3 704.083 1466.33 676.686 1427.8 656.105C1389.26 635.523 1338.2 621.779 1278.14 615.28C1158.02 602.281 1002.02 618.27 838.644 666.346Z" stroke="url(#paint55_linear_254_8105)" stroke-opacity="0.3"/>
<path d="M834.367 667.649C671.85 718.569 533.322 792.048 440.728 869.663C394.43 908.471 359.635 948.297 339.06 986.835C318.485 1025.37 312.146 1062.58 322.681 1096.2C333.216 1129.83 359.656 1156.77 398.541 1176.67C437.429 1196.58 488.729 1209.43 548.894 1214.88C669.223 1225.78 824.912 1207.07 987.428 1156.15C1149.94 1105.23 1288.47 1031.75 1381.07 954.137C1427.36 915.328 1462.16 875.503 1482.74 836.965C1503.31 798.429 1509.65 761.218 1499.11 727.595C1488.58 693.972 1462.14 667.032 1423.25 647.126C1384.37 627.22 1333.07 614.37 1272.9 608.92C1152.57 598.02 996.883 616.728 834.367 667.649Z" stroke="url(#paint56_linear_254_8105)" stroke-opacity="0.3"/>
<path d="M830.118 669.018C668.515 722.767 531.291 798.652 440.065 877.871C394.451 917.482 360.357 957.909 340.457 996.8C320.558 1035.69 314.869 1073 325.989 1106.44C337.11 1139.87 364.016 1166.35 403.243 1185.57C442.472 1204.8 493.988 1216.75 554.24 1221.15C674.74 1229.95 830.079 1208.52 991.682 1154.77C1153.28 1101.03 1290.51 1025.14 1381.73 945.921C1427.35 906.311 1461.44 865.884 1481.34 826.993C1501.24 788.104 1506.93 750.788 1495.81 717.354C1484.69 683.919 1457.78 657.445 1418.56 638.221C1379.33 618.997 1327.81 607.044 1267.56 602.645C1147.06 593.846 991.721 615.268 830.118 669.018Z" stroke="url(#paint57_linear_254_8105)" stroke-opacity="0.3"/>
<path d="M825.888 670.468C665.248 727.03 529.369 805.298 439.54 886.097C394.624 926.498 361.241 967.514 342.022 1006.75C322.805 1045.98 317.768 1083.39 329.47 1116.62C341.173 1149.86 368.536 1175.86 408.093 1194.39C447.652 1212.93 499.369 1223.98 559.688 1227.33C680.324 1234.02 835.265 1209.89 995.905 1153.33C1156.54 1096.77 1292.42 1018.5 1382.25 937.703C1427.17 897.302 1460.55 856.286 1479.77 817.054C1498.99 777.823 1504.02 740.414 1492.32 707.179C1480.62 673.944 1453.26 647.943 1413.7 629.407C1374.14 610.87 1322.42 599.818 1262.11 596.471C1141.47 589.777 986.528 613.907 825.888 670.468Z" stroke="url(#paint58_linear_254_8105)" stroke-opacity="0.3"/>
<path d="M821.69 671.988C662.061 731.344 527.569 811.972 439.163 894.327C394.96 935.505 362.297 977.097 343.767 1016.66C325.237 1056.22 320.854 1093.71 333.134 1126.74C345.415 1159.76 373.228 1185.28 413.102 1203.12C452.979 1220.97 504.88 1231.12 565.249 1233.41C685.983 1238 840.48 1211.17 1000.11 1151.81C1159.74 1092.45 1294.23 1011.83 1382.63 929.471C1426.84 888.293 1459.5 846.701 1478.03 807.139C1496.56 767.579 1500.94 730.088 1488.66 697.062C1476.38 664.036 1448.57 638.517 1408.7 620.674C1368.82 602.83 1316.92 592.682 1256.55 590.388C1135.81 585.801 981.318 612.631 821.69 671.988Z" stroke="url(#paint59_linear_254_8105)" stroke-opacity="0.3"/>
<path d="M817.513 673.582C658.945 735.716 525.88 818.678 438.925 902.564C395.447 944.507 363.516 986.663 345.678 1026.54C327.842 1066.42 324.114 1103.98 336.968 1136.79C349.823 1169.59 378.078 1194.62 418.257 1211.77C458.439 1228.91 510.51 1238.15 570.909 1239.39C691.705 1241.87 845.71 1212.35 1004.28 1150.22C1162.85 1088.08 1295.91 1005.12 1382.87 921.237C1426.34 879.294 1458.28 837.138 1476.11 797.258C1493.95 757.381 1497.68 719.819 1484.82 687.012C1471.97 654.206 1443.71 629.176 1403.53 612.032C1363.35 594.887 1311.28 585.646 1250.88 584.406C1130.09 581.926 976.081 611.449 817.513 673.582Z" stroke="url(#paint60_linear_254_8105)" stroke-opacity="0.3"/>
<path d="M813.371 675.246C655.912 740.137 524.315 825.409 438.837 910.799C396.098 953.495 364.907 996.202 347.768 1036.39C330.631 1076.57 327.558 1114.19 340.984 1146.77C354.409 1179.34 383.096 1203.88 423.569 1220.32C464.044 1236.76 516.268 1245.09 576.68 1245.28C697.501 1245.65 850.967 1213.44 1008.43 1148.55C1165.89 1083.66 1297.48 998.386 1382.96 912.996C1425.7 870.3 1456.89 827.593 1474.03 787.409C1491.17 747.226 1494.24 709.605 1480.81 677.028C1467.39 644.45 1438.7 619.917 1398.23 603.477C1357.75 587.036 1305.53 578.706 1245.12 578.52C1124.3 578.148 970.831 610.355 813.371 675.246Z" stroke="url(#paint61_linear_254_8105)" stroke-opacity="0.3"/>
<path d="M809.254 676.986C652.95 744.616 522.862 832.171 438.888 919.04C396.9 962.475 366.459 1005.72 350.024 1046.2C333.591 1086.67 331.175 1124.34 345.167 1156.68C359.159 1189.02 388.27 1213.05 429.023 1228.78C469.779 1244.51 522.141 1251.93 582.546 1251.06C703.355 1249.32 856.236 1214.44 1012.54 1146.81C1168.84 1079.18 1298.93 991.628 1382.9 904.759C1424.89 861.324 1455.33 818.079 1471.77 777.602C1488.2 737.126 1490.62 699.457 1476.63 667.119C1462.63 634.781 1433.52 610.753 1392.77 595.021C1352.01 579.289 1299.65 571.871 1239.25 572.74C1118.44 574.477 965.557 609.356 809.254 676.986Z" stroke="url(#paint62_linear_254_8105)" stroke-opacity="0.3"/>
<path d="M805.171 678.793C650.072 749.14 521.531 838.953 439.086 927.274C397.862 971.435 368.181 1015.2 352.455 1055.96C336.73 1096.72 334.973 1134.42 349.527 1166.51C364.081 1198.6 393.607 1222.12 434.629 1237.14C475.653 1252.16 528.136 1258.66 588.517 1256.74C709.278 1252.89 861.526 1215.35 1016.63 1145C1171.72 1074.65 1300.26 984.841 1382.71 896.52C1423.93 852.358 1453.62 808.589 1469.34 767.831C1485.07 727.075 1486.82 689.369 1472.27 657.28C1457.71 625.191 1428.19 601.674 1387.17 586.657C1346.14 571.638 1293.66 565.135 1233.28 567.058C1112.52 570.903 960.27 608.446 805.171 678.793Z" stroke="url(#paint63_linear_254_8105)" stroke-opacity="0.3"/>
<path d="M801.117 680.676C647.269 753.719 520.316 845.762 439.424 935.508C398.978 980.382 370.065 1024.66 355.053 1065.69C340.042 1106.71 338.942 1144.44 354.054 1176.27C369.167 1208.1 399.098 1231.1 440.376 1245.4C481.656 1259.7 534.244 1265.29 594.583 1262.31C715.258 1256.36 866.828 1216.17 1020.68 1143.12C1174.52 1070.08 1301.48 978.036 1382.37 888.29C1422.81 843.416 1451.73 799.135 1466.74 758.109C1481.75 717.085 1482.85 679.354 1467.74 647.524C1452.63 615.694 1422.69 592.696 1381.42 578.396C1340.14 564.096 1287.55 558.51 1227.21 561.486C1106.53 567.439 954.965 607.633 801.117 680.676Z" stroke="url(#paint64_linear_254_8105)" stroke-opacity="0.3"/>
<path d="M797.101 682.625C644.551 758.342 519.223 852.587 439.91 943.731C400.253 989.304 372.117 1034.08 357.824 1075.37C343.531 1116.64 343.09 1154.39 358.755 1185.95C374.421 1217.51 404.749 1239.98 446.27 1253.56C487.793 1267.14 540.471 1271.81 600.749 1267.78C721.301 1259.72 872.147 1216.89 1024.7 1141.17C1177.25 1065.45 1302.57 971.208 1381.89 880.064C1421.54 834.49 1449.68 789.712 1463.97 748.43C1478.27 707.15 1478.71 669.405 1463.04 637.844C1447.38 606.283 1417.05 583.811 1375.53 570.234C1334 556.656 1281.33 551.989 1221.05 556.018C1100.5 564.075 949.65 606.908 797.101 682.625Z" stroke="url(#paint65_linear_254_8105)" stroke-opacity="0.3"/>
<path d="M793.117 684.646C641.912 763.014 518.248 859.431 440.538 951.946C401.682 998.205 374.332 1043.47 360.761 1084.99C347.191 1126.52 347.409 1164.26 363.623 1195.55C379.836 1226.83 410.553 1248.77 452.304 1261.62C494.058 1274.47 546.809 1278.22 607.007 1273.14C727.401 1262.98 877.476 1217.52 1028.68 1139.15C1179.89 1060.78 1303.55 964.364 1381.26 871.849C1420.12 825.59 1447.47 780.328 1461.04 738.802C1474.61 697.279 1474.39 659.533 1458.17 628.25C1441.96 596.967 1411.25 575.027 1369.49 562.177C1327.74 549.326 1274.99 545.579 1214.79 550.659C1094.4 560.819 944.322 606.278 793.117 684.646Z" stroke="url(#paint66_linear_254_8105)" stroke-opacity="0.3"/>
<path d="M789.167 686.735C639.353 767.73 517.39 866.291 441.307 960.148C403.264 1007.08 376.708 1052.81 363.864 1094.57C351.02 1136.32 351.897 1174.06 368.654 1205.05C385.412 1236.05 416.506 1257.45 458.475 1269.57C500.447 1281.69 553.256 1284.51 613.356 1278.38C733.554 1266.12 882.813 1218.05 1032.63 1137.06C1182.44 1056.06 1304.4 957.502 1380.49 863.645C1418.53 816.715 1445.09 770.982 1457.93 729.226C1470.77 687.473 1469.9 649.736 1453.14 618.741C1436.38 587.745 1405.29 566.345 1363.32 554.225C1321.35 542.105 1268.54 539.279 1208.44 545.409C1088.24 557.669 938.981 605.74 789.167 686.735Z" stroke="url(#paint67_linear_254_8105)" stroke-opacity="0.3"/>
<path d="M785.259 688.896C636.881 772.493 516.657 873.167 442.223 968.337C405.005 1015.92 379.252 1062.11 367.138 1104.09C355.025 1146.06 356.561 1183.77 373.856 1214.47C391.152 1245.17 422.615 1266.02 464.789 1277.41C506.966 1288.8 559.816 1290.7 619.8 1283.52C739.766 1269.17 888.163 1218.5 1036.54 1134.9C1184.92 1051.3 1305.14 950.629 1379.58 855.458C1416.79 807.872 1442.55 761.682 1454.66 719.708C1466.77 677.737 1465.24 640.021 1447.94 609.323C1430.65 578.625 1399.18 557.771 1357.01 546.386C1314.83 534.999 1261.98 533.096 1202 540.274C1082.03 554.63 933.636 605.298 785.259 688.896Z" stroke="url(#paint68_linear_254_8105)" stroke-opacity="0.3"/>
<path d="M781.382 691.123C634.486 777.297 516.038 880.054 443.276 976.509C406.894 1024.74 381.951 1071.37 370.571 1113.55C359.193 1155.72 361.386 1193.41 379.215 1223.8C397.044 1254.19 428.866 1274.49 471.233 1285.14C513.602 1295.79 566.477 1296.77 626.327 1288.55C746.024 1272.1 893.514 1218.85 1040.41 1132.67C1187.31 1046.5 1305.75 943.743 1378.52 847.288C1414.9 799.059 1439.84 752.427 1451.22 710.248C1462.6 668.072 1460.41 630.389 1442.58 599.997C1424.75 569.606 1392.93 549.304 1350.56 538.656C1308.19 528.008 1255.31 527.027 1195.47 535.251C1075.77 551.698 928.278 604.949 781.382 691.123Z" stroke="url(#paint69_linear_254_8105)" stroke-opacity="0.3"/>
<path d="M777.549 693.416C632.18 782.14 515.542 886.949 444.475 984.659C408.941 1033.51 384.815 1080.58 374.173 1122.95C363.533 1165.31 366.384 1202.95 384.74 1233.03C403.096 1263.11 435.268 1282.85 477.814 1292.76C520.363 1302.66 573.247 1302.72 632.944 1293.45C752.336 1274.92 898.874 1219.1 1044.24 1130.38C1189.61 1041.65 1306.25 936.845 1377.32 839.135C1412.85 790.279 1436.98 743.219 1447.62 700.848C1458.26 658.479 1455.41 620.84 1437.05 590.764C1418.7 560.688 1386.53 540.945 1343.98 531.038C1301.43 521.131 1248.55 521.073 1188.85 530.34C1069.46 548.874 922.919 604.691 777.549 693.416Z" stroke="url(#paint70_linear_254_8105)" stroke-opacity="0.3"/>
<path d="M773.759 695.775C629.96 787.023 515.17 893.851 445.819 992.786C411.142 1042.26 387.841 1089.73 377.941 1132.28C368.041 1174.83 371.549 1212.41 390.427 1242.16C409.306 1271.91 441.817 1291.09 484.53 1300.25C527.244 1309.42 580.122 1308.55 639.648 1298.25C758.698 1277.63 904.24 1219.26 1048.04 1128.02C1191.84 1036.77 1306.63 929.94 1375.98 831.005C1410.66 781.536 1433.96 734.061 1443.86 691.511C1453.76 648.963 1450.25 611.38 1431.37 581.629C1412.49 551.878 1379.98 532.699 1337.27 523.537C1294.55 514.374 1241.68 515.238 1182.15 525.546C1063.1 546.161 917.558 604.526 773.759 695.775Z" stroke="url(#paint71_linear_254_8105)" stroke-opacity="0.3"/>
<path d="M770.008 698.202C627.823 791.946 514.915 900.761 447.301 1000.89C413.493 1050.96 391.024 1098.83 381.868 1141.55C372.713 1184.26 376.875 1221.78 396.27 1251.2C415.665 1280.61 448.506 1299.22 491.372 1307.64C534.241 1316.05 587.095 1314.27 646.432 1302.92C765.104 1280.23 909.605 1219.33 1051.79 1125.59C1193.97 1031.85 1306.88 923.032 1374.5 822.901C1408.3 772.835 1430.77 724.961 1439.93 682.244C1449.09 639.53 1444.92 602.014 1425.53 572.597C1406.13 543.18 1373.29 524.571 1330.43 516.156C1287.56 507.739 1234.7 509.527 1175.37 520.872C1056.69 543.561 912.193 604.458 770.008 698.202Z" stroke="url(#paint72_linear_254_8105)" stroke-opacity="0.3"/>
<path d="M766.297 700.695C625.769 796.906 514.778 907.675 448.922 1008.97C415.993 1059.62 394.363 1107.88 385.953 1150.75C377.545 1193.62 382.361 1231.05 402.267 1260.13C422.172 1289.2 455.333 1307.23 498.339 1314.9C541.348 1322.57 594.163 1319.86 653.293 1307.48C771.551 1282.72 914.967 1219.31 1055.49 1123.1C1196.02 1026.89 1307.01 916.121 1372.87 814.825C1405.8 764.177 1427.43 715.918 1435.84 673.048C1444.25 630.181 1439.43 592.743 1419.52 563.669C1399.62 534.595 1366.46 516.562 1323.45 508.896C1280.44 501.229 1227.63 503.939 1168.5 516.317C1050.24 541.074 906.824 604.484 766.297 700.695Z" stroke="url(#paint73_linear_254_8105)" stroke-opacity="0.3"/>
<path d="M762.633 703.25C623.806 801.899 514.765 914.588 450.686 1017.02C418.647 1068.23 397.862 1116.86 390.202 1159.87C382.543 1202.88 388.012 1240.23 408.422 1268.95C428.832 1297.67 462.302 1315.12 505.436 1322.04C548.572 1328.95 601.332 1325.32 660.237 1311.91C778.044 1285.1 920.332 1219.19 1059.16 1120.54C1197.99 1021.9 1307.03 909.206 1371.11 806.777C1403.15 755.561 1423.93 706.932 1431.59 663.922C1439.25 620.915 1433.78 583.566 1413.37 554.844C1392.96 526.122 1359.49 508.671 1316.36 501.756C1273.22 494.841 1220.46 498.472 1161.56 511.881C1043.75 538.698 901.46 604.601 762.633 703.25Z" stroke="url(#paint74_linear_254_8105)" stroke-opacity="0.3"/>
<path d="M759.014 705.872C621.93 806.929 514.872 921.504 452.591 1025.04C421.45 1076.8 401.517 1125.79 394.609 1168.92C387.702 1212.06 393.822 1249.31 414.73 1277.67C435.638 1306.03 469.408 1322.89 512.655 1329.05C555.905 1335.22 608.594 1330.66 667.256 1316.23C784.578 1287.36 925.694 1218.98 1062.78 1117.93C1199.86 1016.87 1306.92 902.296 1369.2 798.764C1400.34 746.997 1420.27 698.012 1427.18 654.875C1434.09 611.741 1427.97 574.493 1407.06 546.132C1386.15 517.77 1352.38 500.906 1309.14 494.745C1265.89 488.584 1213.2 493.135 1154.54 507.57C1037.21 536.439 896.098 604.815 759.014 705.872Z" stroke="url(#paint75_linear_254_8105)" stroke-opacity="0.3"/>
<path d="M755.445 708.549C620.146 811.983 515.103 928.409 454.639 1033.01C424.406 1085.32 405.331 1134.64 399.177 1177.89C393.024 1221.14 399.793 1258.27 421.193 1286.27C442.592 1314.26 476.652 1330.53 520 1335.94C563.351 1341.34 615.952 1335.87 674.353 1320.42C791.153 1289.5 931.055 1218.68 1066.35 1115.24C1201.65 1011.81 1306.7 895.381 1367.16 790.778C1397.39 738.475 1416.47 689.15 1422.62 645.899C1428.78 602.65 1422.01 565.516 1400.61 537.523C1379.21 509.531 1345.15 493.259 1301.8 487.854C1258.45 482.448 1205.85 487.918 1147.45 503.375C1030.65 534.287 890.745 605.115 755.445 708.549Z" stroke="url(#paint76_linear_254_8105)" stroke-opacity="0.3"/>
<path d="M751.92 711.295C618.446 817.074 515.451 935.316 456.822 1040.96C427.506 1093.78 409.295 1143.43 403.897 1186.78C398.499 1230.13 405.916 1267.14 427.801 1294.76C449.685 1322.37 484.024 1338.05 527.46 1342.7C570.899 1347.34 623.396 1340.96 681.519 1324.48C797.761 1291.54 936.405 1218.28 1069.88 1112.5C1203.35 1006.72 1306.35 888.478 1364.98 782.835C1394.29 730.012 1412.5 680.362 1417.9 637.011C1423.3 593.661 1415.88 556.65 1394 529.035C1372.11 501.421 1337.77 485.745 1294.34 481.098C1250.9 476.45 1198.4 482.837 1140.28 499.31C1024.04 532.256 885.393 605.515 751.92 711.295Z" stroke="url(#paint77_linear_254_8105)" stroke-opacity="0.3"/>
<path d="M748.441 714.101C616.834 822.193 515.918 942.215 459.142 1048.86C430.752 1102.19 413.411 1152.15 408.77 1195.59C404.129 1239.03 412.191 1275.9 434.554 1303.13C456.918 1330.36 491.524 1345.43 535.035 1349.32C578.548 1353.21 630.926 1345.91 688.752 1328.42C804.402 1293.46 941.746 1217.79 1073.35 1109.69C1204.96 1001.6 1305.88 881.581 1362.65 774.931C1391.04 721.605 1408.38 671.644 1413.02 628.205C1417.67 584.768 1409.6 547.892 1387.24 520.663C1364.88 493.435 1330.27 478.361 1286.76 474.472C1243.25 470.583 1190.87 477.886 1133.04 495.371C1017.39 530.34 880.048 606.008 748.441 714.101Z" stroke="url(#paint78_linear_254_8105)" stroke-opacity="0.3"/>
<path d="M745.019 716.965C615.318 827.338 516.513 949.102 461.606 1056.73C434.152 1110.54 417.685 1160.8 413.803 1204.31C409.921 1247.82 418.625 1284.55 441.46 1311.38C464.295 1338.22 499.159 1352.69 542.732 1355.81C586.306 1358.94 638.548 1350.73 696.061 1332.24C811.083 1295.25 947.086 1217.2 1076.79 1106.83C1206.49 996.455 1305.29 874.69 1360.2 767.066C1387.65 713.253 1404.12 662.997 1408 619.483C1411.88 575.972 1403.18 539.242 1380.35 512.408C1357.51 485.574 1322.65 471.107 1279.07 467.978C1235.5 464.849 1183.26 473.064 1125.74 491.556C1010.72 528.538 874.72 606.592 745.019 716.965Z" stroke="url(#paint79_linear_254_8105)" stroke-opacity="0.3"/>
<path d="M741.636 719.892C613.882 832.512 517.217 955.982 464.196 1064.55C437.686 1118.83 422.098 1169.37 418.976 1212.94C415.854 1256.52 425.197 1293.09 448.498 1319.52C471.798 1345.95 506.909 1359.81 550.529 1362.18C594.152 1364.54 646.243 1355.42 703.424 1335.92C817.783 1296.94 952.402 1216.53 1080.16 1103.91C1207.91 991.286 1304.58 867.816 1357.6 759.249C1384.11 704.965 1399.7 654.43 1402.82 610.855C1405.94 567.282 1396.6 530.71 1373.3 504.279C1350 477.847 1314.88 463.991 1271.26 461.623C1227.64 459.254 1175.55 468.38 1118.37 487.873C1004.01 526.857 869.391 607.272 741.636 719.892Z" stroke="url(#paint80_linear_254_8105)" stroke-opacity="0.3"/>
<path d="M738.314 722.873C612.545 837.705 518.049 962.844 466.931 1072.32C441.372 1127.06 426.669 1177.86 424.308 1221.48C421.947 1265.1 431.927 1301.5 455.685 1327.52C479.443 1353.55 514.791 1366.79 558.445 1368.39C602.103 1370 654.026 1359.97 710.858 1339.48C824.52 1298.5 957.716 1215.75 1083.49 1100.92C1209.25 986.088 1303.75 860.949 1354.87 751.474C1380.43 696.736 1395.13 645.936 1397.49 602.313C1399.85 558.693 1389.87 522.289 1366.11 496.269C1342.36 470.248 1307.01 457.006 1263.35 455.4C1219.7 453.793 1167.77 463.827 1110.94 484.314C997.279 525.289 864.084 608.041 738.314 722.873Z" stroke="url(#paint81_linear_254_8105)" stroke-opacity="0.3"/>
<path d="M735.043 725.915C611.296 842.925 518.999 969.693 469.8 1080.04C445.2 1135.22 431.385 1186.27 429.786 1229.93C428.187 1273.58 438.801 1309.8 463.009 1335.41C487.217 1361.01 522.791 1373.63 566.467 1374.48C610.146 1375.32 661.887 1364.38 718.352 1342.91C831.281 1299.95 963.013 1214.89 1086.76 1097.88C1210.51 980.87 1302.8 854.102 1352 743.751C1376.6 688.575 1390.42 637.526 1392.02 593.869C1393.61 550.214 1383 513.99 1358.79 488.388C1334.58 462.786 1299.01 450.163 1255.33 449.319C1211.66 448.474 1159.91 459.413 1103.45 480.889C990.52 523.841 858.789 608.905 735.043 725.915Z" stroke="url(#paint82_linear_254_8105)" stroke-opacity="0.3"/>
<path d="M731.823 729.011C610.138 848.163 520.067 976.523 472.802 1087.72C449.168 1143.31 436.247 1194.59 435.409 1238.27C434.572 1281.95 445.817 1317.98 470.469 1343.16C495.12 1368.33 530.909 1380.33 574.593 1380.42C618.279 1380.5 669.821 1368.66 725.904 1346.2C838.066 1301.28 968.293 1213.93 1089.98 1094.78C1211.66 975.63 1301.73 847.27 1349 736.077C1372.63 680.48 1385.55 629.198 1386.39 585.52C1387.23 541.843 1375.98 505.81 1351.33 480.635C1326.68 455.459 1290.89 443.459 1247.21 443.377C1203.52 443.295 1151.98 455.135 1095.9 477.593C983.735 522.509 853.509 609.859 731.823 729.011Z" stroke="url(#paint83_linear_254_8105)" stroke-opacity="0.3"/>
<path d="M728.656 732.166C609.069 853.423 521.252 983.335 475.934 1095.34C453.275 1151.34 441.25 1202.84 441.175 1246.52C441.101 1290.21 452.972 1326.04 478.06 1350.78C503.147 1375.52 539.139 1386.9 582.818 1386.22C626.5 1385.53 677.827 1372.8 733.509 1349.36C844.87 1302.5 973.553 1212.89 1093.14 1091.63C1212.73 970.372 1300.54 840.46 1345.86 728.46C1368.52 672.458 1380.55 620.959 1380.62 577.272C1380.7 533.588 1368.82 497.757 1343.74 473.015C1318.65 448.273 1282.66 436.9 1238.98 437.58C1195.3 438.261 1143.97 450.998 1088.29 474.432C976.926 521.299 848.244 610.908 728.656 732.166Z" stroke="url(#paint84_linear_254_8105)" stroke-opacity="0.3"/>
<path d="M725.549 735.374C608.096 858.7 522.56 990.125 479.203 1102.9C457.525 1159.29 446.401 1210.99 447.088 1254.67C447.776 1298.35 460.271 1333.97 485.787 1358.27C511.302 1382.57 547.487 1393.31 591.148 1391.87C634.81 1390.43 685.908 1376.79 741.172 1352.39C851.699 1303.59 978.798 1211.75 1096.25 1088.42C1213.7 965.096 1299.24 833.671 1342.6 720.897C1364.27 664.508 1375.4 612.807 1374.71 569.126C1374.02 525.447 1361.53 489.828 1336.01 465.528C1310.5 441.228 1274.31 430.484 1230.65 431.927C1186.99 433.37 1135.89 447.001 1080.63 471.403C970.101 520.206 843.002 612.048 725.549 735.374Z" stroke="url(#paint85_linear_254_8105)" stroke-opacity="0.3"/>
<path d="M722.496 738.634C607.214 863.991 523.984 996.889 482.603 1110.4C461.911 1167.16 451.691 1219.05 453.141 1262.71C454.591 1306.37 467.706 1341.77 493.642 1365.62C519.577 1389.47 555.944 1399.58 599.573 1397.37C643.204 1395.17 694.056 1380.65 748.886 1355.29C858.544 1304.56 984.02 1210.52 1099.3 1085.16C1214.59 959.802 1297.82 826.904 1339.2 713.39C1359.89 656.632 1370.11 604.744 1368.66 561.082C1367.21 517.422 1354.09 482.026 1328.16 458.175C1302.22 434.324 1265.85 424.214 1222.23 426.418C1178.6 428.623 1127.74 443.144 1072.91 468.506C963.256 519.231 837.779 613.277 722.496 738.634Z" stroke="url(#paint86_linear_254_8105)" stroke-opacity="0.3"/>
<path d="M719.5 741.949C606.423 869.299 525.526 1003.63 486.131 1117.85C466.434 1174.96 457.121 1227.02 459.333 1270.65C461.544 1314.28 475.275 1349.44 501.623 1372.83C527.971 1396.23 564.509 1405.7 608.092 1402.74C651.678 1399.77 702.269 1384.36 756.648 1358.05C865.404 1305.42 989.22 1209.19 1102.3 1081.85C1215.37 954.495 1296.27 820.165 1335.67 705.946C1355.36 648.836 1364.68 596.778 1362.47 553.147C1360.25 509.519 1346.52 474.358 1320.17 450.963C1293.83 427.568 1257.29 418.094 1213.71 421.059C1170.12 424.025 1119.53 439.431 1065.15 465.747C956.394 518.378 832.578 614.6 719.5 741.949Z" stroke="url(#paint87_linear_254_8105)" stroke-opacity="0.3"/>
<path d="M716.563 745.316C605.725 874.619 527.184 1010.34 489.789 1125.23C471.092 1182.68 462.689 1234.89 465.662 1278.47C468.634 1322.06 482.977 1356.97 509.729 1379.9C536.481 1402.84 573.179 1411.67 616.704 1407.94C660.231 1404.22 710.545 1387.93 764.457 1360.67C872.278 1306.15 994.396 1207.78 1105.23 1078.48C1216.07 949.175 1294.61 813.453 1332.01 698.564C1350.7 641.119 1359.11 588.906 1356.13 545.321C1353.16 501.738 1338.82 466.822 1312.07 443.89C1285.32 420.959 1248.62 412.124 1205.09 415.849C1161.56 419.575 1111.25 435.862 1057.34 463.123C949.518 517.644 827.4 616.012 716.563 745.316Z" stroke="url(#paint88_linear_254_8105)" stroke-opacity="0.3"/>
<path d="M713.686 748.734C605.122 879.953 528.961 1017.02 493.577 1132.55C475.885 1190.31 468.395 1242.66 472.128 1286.19C475.861 1329.71 490.81 1364.37 517.958 1386.84C545.106 1409.3 581.953 1417.49 625.406 1413.01C668.862 1408.52 718.885 1391.36 772.312 1363.16C879.165 1306.77 999.547 1206.28 1108.11 1075.06C1216.68 943.845 1292.84 806.774 1328.22 691.25C1345.91 633.486 1353.4 581.135 1349.67 537.608C1345.94 494.084 1330.99 459.423 1303.84 436.962C1276.69 414.501 1239.84 406.308 1196.39 410.792C1152.93 415.277 1102.91 432.44 1049.49 460.638C942.632 517.032 822.25 617.516 713.686 748.734Z" stroke="url(#paint89_linear_254_8105)" stroke-opacity="0.3"/>
<path d="M710.869 752.2C604.612 885.293 530.855 1023.67 497.493 1139.8C480.811 1197.86 474.236 1250.33 478.728 1293.79C483.22 1337.24 498.772 1371.64 526.308 1393.62C553.844 1415.6 590.828 1423.15 634.197 1417.91C677.568 1412.67 727.283 1394.64 780.21 1365.51C886.062 1307.26 1004.67 1204.69 1110.93 1071.6C1217.19 938.503 1290.94 800.123 1324.31 683.999C1340.99 625.936 1347.56 573.461 1343.07 530.006C1338.58 486.554 1323.03 452.16 1295.49 430.176C1267.96 408.192 1230.97 400.643 1187.6 405.885C1144.23 411.128 1094.52 429.161 1041.59 458.286C935.737 516.537 817.126 619.107 710.869 752.2Z" stroke="url(#paint90_linear_254_8105)" stroke-opacity="0.3"/>
<path d="M708.11 755.716C604.192 890.643 532.862 1030.29 501.531 1146.98C485.865 1205.32 480.207 1257.9 485.456 1301.27C490.706 1344.64 506.856 1378.76 534.771 1400.26C562.687 1421.76 599.797 1428.66 643.068 1422.66C686.341 1416.66 735.733 1397.77 788.144 1367.72C892.964 1307.63 1009.77 1203.01 1113.68 1068.08C1217.6 933.153 1288.93 793.507 1320.26 676.819C1335.93 618.473 1341.59 565.892 1336.34 522.522C1331.09 479.155 1314.94 445.037 1287.02 423.537C1259.11 402.037 1222 395.135 1178.73 401.133C1135.45 407.132 1086.06 426.03 1033.65 456.075C928.831 516.164 812.029 620.788 708.11 755.716Z" stroke="url(#paint91_linear_254_8105)" stroke-opacity="0.3"/>
<path d="M705.416 759.277C603.868 895.998 534.986 1036.87 505.697 1154.08C491.052 1212.69 486.311 1265.37 492.317 1308.64C498.323 1351.91 515.066 1385.74 543.352 1406.75C571.639 1427.76 608.864 1434.01 652.023 1427.26C695.185 1420.51 744.24 1400.75 796.119 1369.79C899.874 1307.88 1014.83 1201.24 1116.38 1064.52C1217.93 927.796 1286.81 786.926 1316.1 669.709C1330.74 611.099 1335.48 558.427 1329.48 515.155C1323.47 471.886 1306.73 438.055 1278.44 417.046C1250.16 396.037 1212.93 389.783 1169.77 396.535C1126.61 403.289 1077.56 423.046 1025.68 454.001C921.922 515.91 806.964 622.557 705.416 759.277Z" stroke="url(#paint92_linear_254_8105)" stroke-opacity="0.3"/>
<path d="M702.785 762.886C603.639 901.358 537.226 1043.41 509.986 1161.12C496.367 1219.98 492.546 1272.72 499.306 1315.88C506.066 1359.04 523.397 1392.57 552.046 1413.09C580.695 1433.6 618.023 1439.2 661.058 1431.7C704.095 1424.19 752.798 1403.58 804.129 1371.73C906.787 1308.02 1019.87 1199.38 1119.01 1060.91C1218.16 922.435 1284.57 780.385 1311.81 662.674C1325.43 603.817 1329.25 551.071 1322.49 507.91C1315.73 464.752 1298.4 431.219 1269.75 410.707C1241.1 390.194 1203.78 384.591 1160.74 392.096C1117.7 399.601 1069 420.211 1017.67 452.067C915.011 515.778 801.931 624.414 702.785 762.886Z" stroke="url(#paint93_linear_254_8105)" stroke-opacity="0.3"/>
<path d="M700.216 766.541C603.502 906.722 539.578 1049.91 514.397 1168.08C501.807 1227.16 498.908 1279.97 506.42 1323C513.932 1366.04 531.846 1399.26 560.848 1419.27C589.85 1439.28 627.271 1444.23 670.168 1435.98C713.068 1427.72 761.404 1406.27 812.171 1373.52C913.702 1308.03 1024.87 1197.43 1121.58 1057.25C1218.3 917.071 1282.22 773.883 1307.4 655.715C1319.99 596.629 1322.89 543.824 1315.38 500.788C1307.87 457.755 1289.95 424.53 1260.95 404.52C1231.95 384.511 1194.53 379.56 1151.63 387.815C1108.73 396.07 1060.4 417.527 1009.63 450.274C908.098 515.766 796.931 626.36 700.216 766.541Z" stroke="url(#paint94_linear_254_8105)" stroke-opacity="0.3"/>
<path d="M697.711 770.241C603.458 912.089 542.043 1056.37 518.929 1174.96C507.371 1234.26 505.394 1287.1 513.656 1330C521.918 1372.9 540.409 1405.81 569.756 1425.31C599.103 1444.81 636.605 1449.1 679.351 1440.1C722.1 1431.1 770.054 1408.8 820.242 1375.17C920.614 1307.92 1029.83 1195.4 1124.09 1053.55C1218.34 911.706 1279.76 767.425 1302.87 648.835C1314.43 589.539 1316.4 536.691 1308.14 493.793C1299.88 450.897 1281.39 417.989 1252.04 398.489C1222.7 378.989 1185.19 374.692 1142.45 383.694C1099.7 392.697 1051.74 414.994 1001.56 448.622C901.184 515.876 791.965 628.393 697.711 770.241Z" stroke="url(#paint95_linear_254_8105)" stroke-opacity="0.3"/>
<path d="M695.27 773.984C603.507 917.455 544.62 1062.79 523.578 1181.76C513.057 1241.25 512.003 1294.12 521.013 1336.87C530.022 1379.62 549.084 1412.2 578.767 1431.18C608.45 1450.17 646.021 1453.81 688.604 1444.06C731.189 1434.32 778.747 1411.18 828.34 1376.69C927.523 1307.69 1034.76 1193.28 1126.53 1049.81C1218.29 906.342 1277.18 761.01 1298.22 642.035C1308.74 582.546 1309.79 529.672 1300.78 486.925C1291.77 444.18 1272.71 411.6 1243.03 392.614C1213.35 373.629 1175.78 369.987 1133.19 379.734C1090.61 389.482 1043.05 412.613 993.457 447.111C894.273 516.107 787.034 630.513 695.27 773.984Z" stroke="url(#paint96_linear_254_8105)" stroke-opacity="0.3"/>
<path d="M692.896 777.768C603.651 922.819 547.308 1069.16 528.347 1188.48C518.865 1248.14 518.734 1301.03 528.488 1343.61C538.242 1386.19 557.87 1418.44 587.88 1436.9C617.89 1455.36 655.518 1458.35 697.925 1447.86C740.334 1437.37 787.48 1413.41 836.464 1378.06C934.428 1307.34 1039.65 1191.08 1128.9 1046.03C1218.15 900.978 1274.49 754.641 1293.45 635.316C1302.93 575.653 1303.06 522.769 1293.31 480.185C1283.55 437.604 1263.93 405.361 1233.92 386.897C1203.91 368.433 1166.28 365.447 1123.87 375.936C1081.46 386.425 1034.32 410.382 985.332 445.741C887.368 516.457 782.141 632.718 692.896 777.768Z" stroke="url(#paint97_linear_254_8105)" stroke-opacity="0.3"/>
<path d="M690.591 781.59C603.891 928.176 550.111 1075.47 533.235 1195.11C524.796 1254.93 525.588 1307.81 536.084 1350.22C546.579 1392.62 566.767 1424.52 597.094 1442.45C627.422 1460.39 665.097 1462.72 707.314 1451.49C749.533 1440.26 796.255 1415.49 844.613 1379.28C941.329 1306.86 1044.51 1188.79 1131.21 1042.2C1217.91 895.613 1271.69 748.315 1288.57 628.678C1297.01 568.858 1296.21 515.98 1285.72 473.573C1275.22 431.168 1255.03 399.273 1224.71 381.336C1194.38 363.398 1156.7 361.069 1114.49 372.297C1072.27 383.524 1025.55 408.301 977.188 444.509C880.473 516.924 777.291 635.004 690.591 781.59Z" stroke="url(#paint98_linear_254_8105)" stroke-opacity="0.3"/>
<path d="M688.348 785.456C604.219 933.533 553.019 1081.75 538.233 1201.66C530.84 1261.62 532.554 1314.47 543.788 1356.69C555.023 1398.91 575.764 1430.45 606.4 1447.85C637.036 1465.26 674.745 1466.93 716.76 1454.96C758.777 1443 805.059 1417.41 852.778 1380.37C948.215 1306.27 1049.32 1186.41 1133.45 1038.34C1217.58 890.259 1268.78 742.045 1283.56 622.131C1290.96 562.173 1289.24 509.317 1278.01 467.099C1266.77 424.884 1246.03 393.347 1215.4 375.941C1184.76 358.535 1147.05 356.865 1105.04 368.827C1063.02 380.79 1016.74 406.378 969.019 443.425C873.582 517.517 772.477 637.379 688.348 785.456Z" stroke="url(#paint99_linear_254_8105)" stroke-opacity="0.3"/>
<defs>
<linearGradient id="paint0_linear_254_8105" x1="816.537" y1="1028.04" x2="1006.87" y2="789.645" gradientUnits="userSpaceOnUse">
<stop stop-color="#DE701D"/>
<stop offset="1" stop-color="#121212"/>
</linearGradient>
<linearGradient id="paint1_linear_254_8105" x1="818.576" y1="1029.67" x2="1004.72" y2="787.988" gradientUnits="userSpaceOnUse">
<stop stop-color="#DE701D"/>
<stop offset="1" stop-color="#121212"/>
</linearGradient>
<linearGradient id="paint2_linear_254_8105" x1="820.645" y1="1031.27" x2="1002.54" y2="786.372" gradientUnits="userSpaceOnUse">
<stop stop-color="#DE701D"/>
<stop offset="1" stop-color="#121212"/>
</linearGradient>
<linearGradient id="paint3_linear_254_8105" x1="822.746" y1="1032.82" x2="1000.34" y2="784.789" gradientUnits="userSpaceOnUse">
<stop stop-color="#DE701D"/>
<stop offset="1" stop-color="#121212"/>
</linearGradient>
<linearGradient id="paint4_linear_254_8105" x1="824.864" y1="1034.35" x2="998.101" y2="783.25" gradientUnits="userSpaceOnUse">
<stop stop-color="#DE701D"/>
<stop offset="1" stop-color="#121212"/>
</linearGradient>
<linearGradient id="paint5_linear_254_8105" x1="827.017" y1="1035.83" x2="995.846" y2="781.745" gradientUnits="userSpaceOnUse">
<stop stop-color="#DE701D"/>
<stop offset="1" stop-color="#121212"/>
</linearGradient>
<linearGradient id="paint6_linear_254_8105" x1="829.192" y1="1037.27" x2="993.56" y2="780.284" gradientUnits="userSpaceOnUse">
<stop stop-color="#DE701D"/>
<stop offset="1" stop-color="#121212"/>
</linearGradient>
<linearGradient id="paint7_linear_254_8105" x1="831.396" y1="1038.68" x2="991.255" y2="778.861" gradientUnits="userSpaceOnUse">
<stop stop-color="#DE701D"/>
<stop offset="1" stop-color="#121212"/>
</linearGradient>
<linearGradient id="paint8_linear_254_8105" x1="833.621" y1="1040.04" x2="988.921" y2="777.475" gradientUnits="userSpaceOnUse">
<stop stop-color="#DE701D"/>
<stop offset="1" stop-color="#121212"/>
</linearGradient>
<linearGradient id="paint9_linear_254_8105" x1="835.868" y1="1041.38" x2="986.562" y2="776.138" gradientUnits="userSpaceOnUse">
<stop stop-color="#DE701D"/>
<stop offset="1" stop-color="#121212"/>
</linearGradient>
<linearGradient id="paint10_linear_254_8105" x1="838.138" y1="1042.67" x2="984.179" y2="774.838" gradientUnits="userSpaceOnUse">
<stop stop-color="#DE701D"/>
<stop offset="1" stop-color="#121212"/>
</linearGradient>
<linearGradient id="paint11_linear_254_8105" x1="840.43" y1="1043.92" x2="981.776" y2="773.579" gradientUnits="userSpaceOnUse">
<stop stop-color="#DE701D"/>
<stop offset="1" stop-color="#121212"/>
</linearGradient>
<linearGradient id="paint12_linear_254_8105" x1="842.746" y1="1045.13" x2="979.352" y2="772.363" gradientUnits="userSpaceOnUse">
<stop stop-color="#DE701D"/>
<stop offset="1" stop-color="#121212"/>
</linearGradient>
<linearGradient id="paint13_linear_254_8105" x1="845.083" y1="1046.29" x2="976.907" y2="771.19" gradientUnits="userSpaceOnUse">
<stop stop-color="#DE701D"/>
<stop offset="1" stop-color="#121212"/>
</linearGradient>
<linearGradient id="paint14_linear_254_8105" x1="847.434" y1="1047.42" x2="974.437" y2="770.061" gradientUnits="userSpaceOnUse">
<stop stop-color="#DE701D"/>
<stop offset="1" stop-color="#121212"/>
</linearGradient>
<linearGradient id="paint15_linear_254_8105" x1="849.815" y1="1048.51" x2="971.958" y2="768.972" gradientUnits="userSpaceOnUse">
<stop stop-color="#DE701D"/>
<stop offset="1" stop-color="#121212"/>
</linearGradient>
<linearGradient id="paint16_linear_254_8105" x1="852.206" y1="1049.56" x2="969.452" y2="767.929" gradientUnits="userSpaceOnUse">
<stop stop-color="#DE701D"/>
<stop offset="1" stop-color="#121212"/>
</linearGradient>
<linearGradient id="paint17_linear_254_8105" x1="854.614" y1="1050.56" x2="966.927" y2="766.93" gradientUnits="userSpaceOnUse">
<stop stop-color="#DE701D"/>
<stop offset="1" stop-color="#121212"/>
</linearGradient>
<linearGradient id="paint18_linear_254_8105" x1="857.045" y1="1051.52" x2="964.391" y2="765.972" gradientUnits="userSpaceOnUse">
<stop stop-color="#DE701D"/>
<stop offset="1" stop-color="#121212"/>
</linearGradient>
<linearGradient id="paint19_linear_254_8105" x1="859.49" y1="1052.44" x2="961.836" y2="765.061" gradientUnits="userSpaceOnUse">
<stop stop-color="#DE701D"/>
<stop offset="1" stop-color="#121212"/>
</linearGradient>
<linearGradient id="paint20_linear_254_8105" x1="861.95" y1="1053.31" x2="959.265" y2="764.195" gradientUnits="userSpaceOnUse">
<stop stop-color="#DE701D"/>
<stop offset="1" stop-color="#121212"/>
</linearGradient>
<linearGradient id="paint21_linear_254_8105" x1="864.427" y1="1054.15" x2="956.681" y2="763.374" gradientUnits="userSpaceOnUse">
<stop stop-color="#DE701D"/>
<stop offset="1" stop-color="#121212"/>
</linearGradient>
<linearGradient id="paint22_linear_254_8105" x1="866.919" y1="1054.94" x2="954.085" y2="762.596" gradientUnits="userSpaceOnUse">
<stop stop-color="#DE701D"/>
<stop offset="1" stop-color="#121212"/>
</linearGradient>
<linearGradient id="paint23_linear_254_8105" x1="869.421" y1="1055.68" x2="951.471" y2="761.865" gradientUnits="userSpaceOnUse">
<stop stop-color="#DE701D"/>
<stop offset="1" stop-color="#121212"/>
</linearGradient>
<linearGradient id="paint24_linear_254_8105" x1="871.937" y1="1056.38" x2="948.846" y2="761.18" gradientUnits="userSpaceOnUse">
<stop stop-color="#DE701D"/>
<stop offset="1" stop-color="#121212"/>
</linearGradient>
<linearGradient id="paint25_linear_254_8105" x1="874.462" y1="1057.04" x2="946.209" y2="760.541" gradientUnits="userSpaceOnUse">
<stop stop-color="#DE701D"/>
<stop offset="1" stop-color="#121212"/>
</linearGradient>
<linearGradient id="paint26_linear_254_8105" x1="877" y1="1057.66" x2="943.56" y2="759.947" gradientUnits="userSpaceOnUse">
<stop stop-color="#DE701D"/>
<stop offset="1" stop-color="#121212"/>
</linearGradient>
<linearGradient id="paint27_linear_254_8105" x1="879.551" y1="1058.22" x2="940.906" y2="759.4" gradientUnits="userSpaceOnUse">
<stop stop-color="#DE701D"/>
<stop offset="1" stop-color="#121212"/>
</linearGradient>
<linearGradient id="paint28_linear_254_8105" x1="882.109" y1="1058.75" x2="938.239" y2="758.902" gradientUnits="userSpaceOnUse">
<stop stop-color="#DE701D"/>
<stop offset="1" stop-color="#121212"/>
</linearGradient>
<linearGradient id="paint29_linear_254_8105" x1="884.678" y1="1059.23" x2="935.566" y2="758.446" gradientUnits="userSpaceOnUse">
<stop stop-color="#DE701D"/>
<stop offset="1" stop-color="#121212"/>
</linearGradient>
<linearGradient id="paint30_linear_254_8105" x1="887.253" y1="1059.66" x2="932.885" y2="758.039" gradientUnits="userSpaceOnUse">
<stop stop-color="#DE701D"/>
<stop offset="1" stop-color="#121212"/>
</linearGradient>
<linearGradient id="paint31_linear_254_8105" x1="889.836" y1="1060.05" x2="930.196" y2="757.676" gradientUnits="userSpaceOnUse">
<stop stop-color="#DE701D"/>
<stop offset="1" stop-color="#121212"/>
</linearGradient>
<linearGradient id="paint32_linear_254_8105" x1="892.421" y1="1060.4" x2="927.498" y2="757.365" gradientUnits="userSpaceOnUse">
<stop stop-color="#DE701D"/>
<stop offset="1" stop-color="#121212"/>
</linearGradient>
<linearGradient id="paint33_linear_254_8105" x1="895.018" y1="1060.7" x2="924.801" y2="757.1" gradientUnits="userSpaceOnUse">
<stop stop-color="#DE701D"/>
<stop offset="1" stop-color="#121212"/>
</linearGradient>
<linearGradient id="paint34_linear_254_8105" x1="897.618" y1="1060.95" x2="922.098" y2="756.879" gradientUnits="userSpaceOnUse">
<stop stop-color="#DE701D"/>
<stop offset="1" stop-color="#121212"/>
</linearGradient>
<linearGradient id="paint35_linear_254_8105" x1="900.223" y1="1061.16" x2="919.392" y2="756.707" gradientUnits="userSpaceOnUse">
<stop stop-color="#DE701D"/>
<stop offset="1" stop-color="#121212"/>
</linearGradient>
<linearGradient id="paint36_linear_254_8105" x1="902.826" y1="1061.33" x2="916.679" y2="756.585" gradientUnits="userSpaceOnUse">
<stop stop-color="#DE701D"/>
<stop offset="1" stop-color="#121212"/>
</linearGradient>
<linearGradient id="paint37_linear_254_8105" x1="905.434" y1="1061.45" x2="913.966" y2="756.508" gradientUnits="userSpaceOnUse">
<stop stop-color="#DE701D"/>
<stop offset="1" stop-color="#121212"/>
</linearGradient>
<linearGradient id="paint38_linear_254_8105" x1="908.05" y1="1061.52" x2="911.259" y2="756.475" gradientUnits="userSpaceOnUse">
<stop stop-color="#DE701D"/>
<stop offset="1" stop-color="#121212"/>
</linearGradient>
<linearGradient id="paint39_linear_254_8105" x1="910.658" y1="1061.54" x2="908.543" y2="756.494" gradientUnits="userSpaceOnUse">
<stop stop-color="#DE701D"/>
<stop offset="1" stop-color="#121212"/>
</linearGradient>
<linearGradient id="paint40_linear_254_8105" x1="913.268" y1="1061.53" x2="905.83" y2="756.561" gradientUnits="userSpaceOnUse">
<stop stop-color="#DE701D"/>
<stop offset="1" stop-color="#121212"/>
</linearGradient>
<linearGradient id="paint41_linear_254_8105" x1="915.883" y1="1061.46" x2="903.123" y2="756.67" gradientUnits="userSpaceOnUse">
<stop stop-color="#DE701D"/>
<stop offset="1" stop-color="#121212"/>
</linearGradient>
<linearGradient id="paint42_linear_254_8105" x1="918.494" y1="1061.35" x2="900.417" y2="756.828" gradientUnits="userSpaceOnUse">
<stop stop-color="#DE701D"/>
<stop offset="1" stop-color="#121212"/>
</linearGradient>
<linearGradient id="paint43_linear_254_8105" x1="921.1" y1="1061.19" x2="897.711" y2="757.034" gradientUnits="userSpaceOnUse">
<stop stop-color="#DE701D"/>
<stop offset="1" stop-color="#121212"/>
</linearGradient>
<linearGradient id="paint44_linear_254_8105" x1="923.701" y1="1061" x2="895.007" y2="757.291" gradientUnits="userSpaceOnUse">
<stop stop-color="#DE701D"/>
<stop offset="1" stop-color="#121212"/>
</linearGradient>
<linearGradient id="paint45_linear_254_8105" x1="926.302" y1="1060.75" x2="892.313" y2="757.592" gradientUnits="userSpaceOnUse">
<stop stop-color="#DE701D"/>
<stop offset="1" stop-color="#121212"/>
</linearGradient>
<linearGradient id="paint46_linear_254_8105" x1="928.9" y1="1060.46" x2="889.624" y2="757.94" gradientUnits="userSpaceOnUse">
<stop stop-color="#DE701D"/>
<stop offset="1" stop-color="#121212"/>
</linearGradient>
<linearGradient id="paint47_linear_254_8105" x1="931.488" y1="1060.12" x2="886.939" y2="758.333" gradientUnits="userSpaceOnUse">
<stop stop-color="#DE701D"/>
<stop offset="1" stop-color="#121212"/>
</linearGradient>
<linearGradient id="paint48_linear_254_8105" x1="934.071" y1="1059.74" x2="884.262" y2="758.776" gradientUnits="userSpaceOnUse">
<stop stop-color="#DE701D"/>
<stop offset="1" stop-color="#121212"/>
</linearGradient>
<linearGradient id="paint49_linear_254_8105" x1="936.648" y1="1059.31" x2="881.593" y2="759.264" gradientUnits="userSpaceOnUse">
<stop stop-color="#DE701D"/>
<stop offset="1" stop-color="#121212"/>
</linearGradient>
<linearGradient id="paint50_linear_254_8105" x1="939.218" y1="1058.84" x2="878.936" y2="759.797" gradientUnits="userSpaceOnUse">
<stop stop-color="#DE701D"/>
<stop offset="1" stop-color="#121212"/>
</linearGradient>
<linearGradient id="paint51_linear_254_8105" x1="941.778" y1="1058.33" x2="876.286" y2="760.382" gradientUnits="userSpaceOnUse">
<stop stop-color="#DE701D"/>
<stop offset="1" stop-color="#121212"/>
</linearGradient>
<linearGradient id="paint52_linear_254_8105" x1="944.328" y1="1057.76" x2="873.646" y2="761.006" gradientUnits="userSpaceOnUse">
<stop stop-color="#DE701D"/>
<stop offset="1" stop-color="#121212"/>
</linearGradient>
<linearGradient id="paint53_linear_254_8105" x1="946.868" y1="1057.16" x2="871.017" y2="761.682" gradientUnits="userSpaceOnUse">
<stop stop-color="#DE701D"/>
<stop offset="1" stop-color="#121212"/>
</linearGradient>
<linearGradient id="paint54_linear_254_8105" x1="949.4" y1="1056.51" x2="868.405" y2="762.398" gradientUnits="userSpaceOnUse">
<stop stop-color="#DE701D"/>
<stop offset="1" stop-color="#121212"/>
</linearGradient>
<linearGradient id="paint55_linear_254_8105" x1="951.918" y1="1055.81" x2="865.802" y2="763.162" gradientUnits="userSpaceOnUse">
<stop stop-color="#DE701D"/>
<stop offset="1" stop-color="#121212"/>
</linearGradient>
<linearGradient id="paint56_linear_254_8105" x1="954.421" y1="1055.08" x2="863.21" y2="763.975" gradientUnits="userSpaceOnUse">
<stop stop-color="#DE701D"/>
<stop offset="1" stop-color="#121212"/>
</linearGradient>
<linearGradient id="paint57_linear_254_8105" x1="956.915" y1="1054.29" x2="860.638" y2="764.827" gradientUnits="userSpaceOnUse">
<stop stop-color="#DE701D"/>
<stop offset="1" stop-color="#121212"/>
</linearGradient>
<linearGradient id="paint58_linear_254_8105" x1="959.39" y1="1053.47" x2="858.076" y2="765.73" gradientUnits="userSpaceOnUse">
<stop stop-color="#DE701D"/>
<stop offset="1" stop-color="#121212"/>
</linearGradient>
<linearGradient id="paint59_linear_254_8105" x1="961.856" y1="1052.6" x2="855.535" y2="766.673" gradientUnits="userSpaceOnUse">
<stop stop-color="#DE701D"/>
<stop offset="1" stop-color="#121212"/>
</linearGradient>
<linearGradient id="paint60_linear_254_8105" x1="964.301" y1="1051.69" x2="853.006" y2="767.663" gradientUnits="userSpaceOnUse">
<stop stop-color="#DE701D"/>
<stop offset="1" stop-color="#121212"/>
</linearGradient>
<linearGradient id="paint61_linear_254_8105" x1="966.735" y1="1050.74" x2="850.5" y2="768.692" gradientUnits="userSpaceOnUse">
<stop stop-color="#DE701D"/>
<stop offset="1" stop-color="#121212"/>
</linearGradient>
<linearGradient id="paint62_linear_254_8105" x1="969.148" y1="1049.74" x2="848.008" y2="769.77" gradientUnits="userSpaceOnUse">
<stop stop-color="#DE701D"/>
<stop offset="1" stop-color="#121212"/>
</linearGradient>
<linearGradient id="paint63_linear_254_8105" x1="971.546" y1="1048.7" x2="845.539" y2="770.887" gradientUnits="userSpaceOnUse">
<stop stop-color="#DE701D"/>
<stop offset="1" stop-color="#121212"/>
</linearGradient>
<linearGradient id="paint64_linear_254_8105" x1="973.923" y1="1047.63" x2="843.086" y2="772.051" gradientUnits="userSpaceOnUse">
<stop stop-color="#DE701D"/>
<stop offset="1" stop-color="#121212"/>
</linearGradient>
<linearGradient id="paint65_linear_254_8105" x1="976.284" y1="1046.5" x2="840.658" y2="773.254" gradientUnits="userSpaceOnUse">
<stop stop-color="#DE701D"/>
<stop offset="1" stop-color="#121212"/>
</linearGradient>
<linearGradient id="paint66_linear_254_8105" x1="978.624" y1="1045.34" x2="838.249" y2="774.501" gradientUnits="userSpaceOnUse">
<stop stop-color="#DE701D"/>
<stop offset="1" stop-color="#121212"/>
</linearGradient>
<linearGradient id="paint67_linear_254_8105" x1="980.94" y1="1044.14" x2="835.86" y2="775.789" gradientUnits="userSpaceOnUse">
<stop stop-color="#DE701D"/>
<stop offset="1" stop-color="#121212"/>
</linearGradient>
<linearGradient id="paint68_linear_254_8105" x1="983.241" y1="1042.9" x2="833.499" y2="777.121" gradientUnits="userSpaceOnUse">
<stop stop-color="#DE701D"/>
<stop offset="1" stop-color="#121212"/>
</linearGradient>
<linearGradient id="paint69_linear_254_8105" x1="985.512" y1="1041.62" x2="831.155" y2="778.493" gradientUnits="userSpaceOnUse">
<stop stop-color="#DE701D"/>
<stop offset="1" stop-color="#121212"/>
</linearGradient>
<linearGradient id="paint70_linear_254_8105" x1="987.765" y1="1040.29" x2="828.84" y2="779.903" gradientUnits="userSpaceOnUse">
<stop stop-color="#DE701D"/>
<stop offset="1" stop-color="#121212"/>
</linearGradient>
<linearGradient id="paint71_linear_254_8105" x1="989.997" y1="1038.93" x2="826.551" y2="781.354" gradientUnits="userSpaceOnUse">
<stop stop-color="#DE701D"/>
<stop offset="1" stop-color="#121212"/>
</linearGradient>
<linearGradient id="paint72_linear_254_8105" x1="992.202" y1="1037.53" x2="824.285" y2="782.847" gradientUnits="userSpaceOnUse">
<stop stop-color="#DE701D"/>
<stop offset="1" stop-color="#121212"/>
</linearGradient>
<linearGradient id="paint73_linear_254_8105" x1="994.378" y1="1036.1" x2="822.043" y2="784.38" gradientUnits="userSpaceOnUse">
<stop stop-color="#DE701D"/>
<stop offset="1" stop-color="#121212"/>
</linearGradient>
<linearGradient id="paint74_linear_254_8105" x1="996.534" y1="1034.62" x2="819.831" y2="785.949" gradientUnits="userSpaceOnUse">
<stop stop-color="#DE701D"/>
<stop offset="1" stop-color="#121212"/>
</linearGradient>
<linearGradient id="paint75_linear_254_8105" x1="998.662" y1="1033.11" x2="817.647" y2="787.56" gradientUnits="userSpaceOnUse">
<stop stop-color="#DE701D"/>
<stop offset="1" stop-color="#121212"/>
</linearGradient>
<linearGradient id="paint76_linear_254_8105" x1="1000.77" y1="1031.55" x2="815.495" y2="789.202" gradientUnits="userSpaceOnUse">
<stop stop-color="#DE701D"/>
<stop offset="1" stop-color="#121212"/>
</linearGradient>
<linearGradient id="paint77_linear_254_8105" x1="1002.84" y1="1029.97" x2="813.368" y2="790.887" gradientUnits="userSpaceOnUse">
<stop stop-color="#DE701D"/>
<stop offset="1" stop-color="#121212"/>
</linearGradient>
<linearGradient id="paint78_linear_254_8105" x1="1004.89" y1="1028.35" x2="811.269" y2="792.609" gradientUnits="userSpaceOnUse">
<stop stop-color="#DE701D"/>
<stop offset="1" stop-color="#121212"/>
</linearGradient>
<linearGradient id="paint79_linear_254_8105" x1="1006.91" y1="1026.69" x2="809.207" y2="794.364" gradientUnits="userSpaceOnUse">
<stop stop-color="#DE701D"/>
<stop offset="1" stop-color="#121212"/>
</linearGradient>
<linearGradient id="paint80_linear_254_8105" x1="1008.89" y1="1025" x2="807.166" y2="796.159" gradientUnits="userSpaceOnUse">
<stop stop-color="#DE701D"/>
<stop offset="1" stop-color="#121212"/>
</linearGradient>
<linearGradient id="paint81_linear_254_8105" x1="1010.85" y1="1023.27" x2="805.165" y2="797.985" gradientUnits="userSpaceOnUse">
<stop stop-color="#DE701D"/>
<stop offset="1" stop-color="#121212"/>
</linearGradient>
<linearGradient id="paint82_linear_254_8105" x1="1012.78" y1="1021.51" x2="803.194" y2="799.849" gradientUnits="userSpaceOnUse">
<stop stop-color="#DE701D"/>
<stop offset="1" stop-color="#121212"/>
</linearGradient>
<linearGradient id="paint83_linear_254_8105" x1="1014.68" y1="1019.71" x2="801.255" y2="801.744" gradientUnits="userSpaceOnUse">
<stop stop-color="#DE701D"/>
<stop offset="1" stop-color="#121212"/>
</linearGradient>
<linearGradient id="paint84_linear_254_8105" x1="1016.55" y1="1017.88" x2="799.346" y2="803.676" gradientUnits="userSpaceOnUse">
<stop stop-color="#DE701D"/>
<stop offset="1" stop-color="#121212"/>
</linearGradient>
<linearGradient id="paint85_linear_254_8105" x1="1018.38" y1="1016.02" x2="797.476" y2="805.64" gradientUnits="userSpaceOnUse">
<stop stop-color="#DE701D"/>
<stop offset="1" stop-color="#121212"/>
</linearGradient>
<linearGradient id="paint86_linear_254_8105" x1="1020.18" y1="1014.13" x2="795.639" y2="807.634" gradientUnits="userSpaceOnUse">
<stop stop-color="#DE701D"/>
<stop offset="1" stop-color="#121212"/>
</linearGradient>
<linearGradient id="paint87_linear_254_8105" x1="1021.95" y1="1012.21" x2="793.836" y2="809.662" gradientUnits="userSpaceOnUse">
<stop stop-color="#DE701D"/>
<stop offset="1" stop-color="#121212"/>
</linearGradient>
<linearGradient id="paint88_linear_254_8105" x1="1023.68" y1="1010.26" x2="792.069" y2="811.721" gradientUnits="userSpaceOnUse">
<stop stop-color="#DE701D"/>
<stop offset="1" stop-color="#121212"/>
</linearGradient>
<linearGradient id="paint89_linear_254_8105" x1="1025.38" y1="1008.27" x2="790.339" y2="813.812" gradientUnits="userSpaceOnUse">
<stop stop-color="#DE701D"/>
<stop offset="1" stop-color="#121212"/>
</linearGradient>
<linearGradient id="paint90_linear_254_8105" x1="1027.05" y1="1006.26" x2="788.647" y2="815.929" gradientUnits="userSpaceOnUse">
<stop stop-color="#DE701D"/>
<stop offset="1" stop-color="#121212"/>
</linearGradient>
<linearGradient id="paint91_linear_254_8105" x1="1028.67" y1="1004.22" x2="786.988" y2="818.078" gradientUnits="userSpaceOnUse">
<stop stop-color="#DE701D"/>
<stop offset="1" stop-color="#121212"/>
</linearGradient>
<linearGradient id="paint92_linear_254_8105" x1="1030.27" y1="1002.15" x2="785.37" y2="820.253" gradientUnits="userSpaceOnUse">
<stop stop-color="#DE701D"/>
<stop offset="1" stop-color="#121212"/>
</linearGradient>
<linearGradient id="paint93_linear_254_8105" x1="1031.83" y1="1000.05" x2="783.791" y2="822.458" gradientUnits="userSpaceOnUse">
<stop stop-color="#DE701D"/>
<stop offset="1" stop-color="#121212"/>
</linearGradient>
<linearGradient id="paint94_linear_254_8105" x1="1033.35" y1="997.927" x2="782.25" y2="824.69" gradientUnits="userSpaceOnUse">
<stop stop-color="#DE701D"/>
<stop offset="1" stop-color="#121212"/>
</linearGradient>
<linearGradient id="paint95_linear_254_8105" x1="1034.83" y1="995.778" x2="780.747" y2="826.949" gradientUnits="userSpaceOnUse">
<stop stop-color="#DE701D"/>
<stop offset="1" stop-color="#121212"/>
</linearGradient>
<linearGradient id="paint96_linear_254_8105" x1="1036.27" y1="993.603" x2="779.284" y2="829.235" gradientUnits="userSpaceOnUse">
<stop stop-color="#DE701D"/>
<stop offset="1" stop-color="#121212"/>
</linearGradient>
<linearGradient id="paint97_linear_254_8105" x1="1037.68" y1="991.403" x2="777.861" y2="831.544" gradientUnits="userSpaceOnUse">
<stop stop-color="#DE701D"/>
<stop offset="1" stop-color="#121212"/>
</linearGradient>
<linearGradient id="paint98_linear_254_8105" x1="1039.05" y1="989.174" x2="776.481" y2="833.874" gradientUnits="userSpaceOnUse">
<stop stop-color="#DE701D"/>
<stop offset="1" stop-color="#121212"/>
</linearGradient>
<linearGradient id="paint99_linear_254_8105" x1="1040.38" y1="986.927" x2="775.138" y2="836.233" gradientUnits="userSpaceOnUse">
<stop stop-color="#DE701D"/>
<stop offset="1" stop-color="#121212"/>
</linearGradient>
</defs>
</svg>
