<svg width="580" height="817" viewBox="0 0 580 817" fill="none" xmlns="http://www.w3.org/2000/svg">
<path d="M-116.805 757.561C-234.344 722.063 -334.752 670.126 -402.073 614.871C-435.734 587.243 -461.104 558.801 -476.215 531.19C-491.324 503.58 -496.159 476.839 -488.828 452.564C-481.497 428.29 -462.668 408.695 -434.802 394.065C-406.933 379.434 -370.061 369.79 -326.734 365.413C-240.082 356.659 -127.711 368.983 -10.1716 404.481C107.368 439.979 207.775 491.916 275.096 547.171C308.758 574.8 334.127 603.241 349.238 630.853C364.347 658.462 369.182 685.204 361.851 709.478C354.52 733.752 335.691 753.347 307.825 767.977C279.956 782.608 243.085 792.253 199.757 796.63C113.105 805.383 0.733915 793.059 -116.805 757.561Z" stroke="url(#paint0_linear_252_4776)" stroke-opacity="0.15"/>
<path d="M-119.881 756.605C-236.782 719.061 -336.268 665.379 -402.614 608.958C-435.789 580.746 -460.658 551.866 -475.284 523.995C-489.91 496.126 -494.277 469.304 -486.523 445.162C-478.77 421.019 -459.602 401.756 -431.484 387.614C-403.365 373.472 -366.331 364.472 -322.933 360.852C-236.141 353.612 -124.003 367.896 -7.10103 405.439C109.801 442.983 209.286 496.665 275.633 553.086C308.807 581.298 333.676 610.178 348.303 638.049C362.928 665.918 367.295 692.74 359.542 716.882C351.788 741.025 332.62 760.288 304.503 774.43C276.383 788.572 239.349 797.572 195.952 801.192C109.16 808.432 -2.97886 794.149 -119.881 756.605Z" stroke="url(#paint1_linear_252_4776)" stroke-opacity="0.15"/>
<path d="M-122.935 755.593C-239.164 716.014 -337.697 660.605 -403.049 603.034C-435.726 574.247 -460.087 544.938 -474.225 516.816C-488.362 488.696 -492.26 461.802 -484.087 437.798C-475.913 413.795 -456.412 394.869 -428.052 381.22C-399.69 367.571 -362.504 359.219 -319.05 356.357C-232.145 350.632 -120.273 366.871 -4.04405 406.449C112.185 446.028 210.718 501.437 276.07 559.008C308.747 587.794 333.108 617.104 347.246 645.226C361.383 673.346 365.281 700.24 357.108 724.243C348.934 748.247 329.432 767.173 301.073 780.822C272.711 794.471 235.525 802.823 192.071 805.685C105.166 811.409 -6.70638 795.171 -122.935 755.593Z" stroke="url(#paint2_linear_252_4776)" stroke-opacity="0.15"/>
<path d="M-125.974 754.529C-241.494 712.928 -339.045 655.807 -403.382 597.105C-435.552 567.752 -459.398 538.022 -473.043 509.658C-486.687 481.296 -490.115 454.337 -481.524 430.48C-472.933 406.623 -453.104 388.04 -424.51 374.889C-395.914 361.736 -358.588 354.035 -315.091 351.931C-228.099 347.725 -116.527 365.913 -1.00732 407.514C114.513 449.115 212.065 506.235 276.402 564.938C308.571 594.29 332.417 624.021 346.062 652.385C359.706 680.747 363.134 707.705 354.543 731.563C345.952 755.42 326.123 774.003 297.529 787.154C268.933 800.307 231.607 808.008 188.11 810.112C101.119 814.318 -10.4534 796.13 -125.974 754.529Z" stroke="url(#paint3_linear_252_4776)" stroke-opacity="0.15"/>
<path d="M-128.991 753.41C-243.768 709.799 -340.308 650.985 -403.61 591.168C-435.262 561.259 -458.586 531.117 -471.734 502.519C-484.881 473.923 -487.838 446.909 -478.832 423.205C-469.826 399.502 -449.676 381.268 -420.857 368.617C-392.035 355.966 -354.581 348.917 -311.054 347.573C-224.002 344.885 -112.764 365.018 2.01241 408.628C116.789 452.239 213.329 511.054 276.632 570.87C308.284 600.779 331.607 630.922 344.755 659.52C357.902 688.116 360.86 715.13 351.853 738.833C342.847 762.537 322.697 780.771 293.878 793.421C265.057 806.073 227.602 813.122 184.075 814.465C97.0231 817.153 -14.2145 797.021 -128.991 753.41Z" stroke="url(#paint4_linear_252_4776)" stroke-opacity="0.15"/>
<path d="M-131.992 752.243C-245.99 706.636 -341.489 646.146 -403.738 585.233C-434.863 554.776 -457.657 524.232 -470.304 495.409C-482.95 466.588 -485.435 439.526 -476.017 415.983C-466.598 392.441 -446.133 374.561 -417.098 362.415C-388.06 350.269 -350.488 343.875 -306.944 343.291C-219.859 342.123 -108.989 364.194 5.00865 409.801C119.007 455.408 214.505 515.898 276.754 576.811C307.88 607.268 330.674 637.812 343.321 666.635C355.966 695.456 358.452 722.518 349.033 746.061C339.615 769.603 319.149 787.483 290.114 799.629C261.076 811.775 223.505 818.169 179.961 818.753C92.8751 819.921 -17.9942 797.85 -131.992 752.243Z" stroke="url(#paint5_linear_252_4776)" stroke-opacity="0.15"/>
<path d="M-134.968 751.021C-248.153 703.431 -342.581 641.283 -403.758 579.294C-434.347 548.298 -456.604 517.36 -468.746 488.321C-480.887 459.283 -482.9 432.183 -473.072 408.808C-463.244 385.433 -442.47 367.913 -413.227 356.276C-383.982 344.638 -346.304 338.901 -302.756 339.077C-215.664 339.429 -105.197 363.431 7.98808 411.021C121.173 458.611 215.601 520.759 276.778 582.748C307.367 613.744 329.624 644.681 341.766 673.721C353.907 702.758 355.92 729.859 346.092 753.234C336.264 776.609 315.489 794.128 286.247 805.766C257.001 817.403 219.324 823.141 175.776 822.965C88.6836 822.613 -21.7836 798.61 -134.968 751.021Z" stroke="url(#paint6_linear_252_4776)" stroke-opacity="0.15"/>
<path d="M-137.925 749.749C-250.261 700.191 -343.591 636.404 -403.676 573.357C-433.72 541.832 -455.434 510.511 -467.067 481.264C-478.699 452.019 -480.239 424.887 -470.004 401.687C-459.77 378.488 -438.693 361.333 -409.252 350.208C-379.808 339.082 -342.036 334.004 -298.498 334.939C-211.424 336.811 -101.393 362.738 10.9439 412.296C123.281 461.854 216.61 525.64 276.696 588.688C306.739 620.213 328.453 651.534 340.086 680.781C351.719 710.026 353.258 737.158 343.024 760.357C332.789 783.557 311.712 800.712 282.271 811.836C252.827 822.962 215.055 828.041 171.517 827.105C84.4438 825.233 -25.5876 799.306 -137.925 749.749Z" stroke="url(#paint7_linear_252_4776)" stroke-opacity="0.15"/>
<path d="M-140.858 748.425C-252.313 696.914 -344.515 631.508 -403.49 567.422C-432.979 535.377 -454.143 503.682 -465.264 474.236C-476.384 444.793 -477.45 417.638 -466.812 394.621C-456.174 371.603 -434.802 354.819 -405.17 344.21C-375.537 333.599 -337.682 329.181 -294.167 330.876C-207.14 334.267 -97.5774 362.111 13.8774 413.621C125.332 465.132 217.534 530.538 276.51 594.624C305.999 626.669 327.163 658.364 338.284 687.81C349.404 717.253 350.47 744.408 339.832 767.425C329.194 790.443 307.821 807.227 278.19 817.836C248.557 828.447 210.702 832.865 167.187 831.17C80.1594 827.779 -29.4028 799.935 -140.858 748.425Z" stroke="url(#paint8_linear_252_4776)" stroke-opacity="0.15"/>
<path d="M-143.767 747.045C-254.306 693.597 -345.353 626.593 -403.201 561.486C-432.126 528.932 -452.734 496.872 -463.339 467.237C-473.944 437.604 -474.536 410.435 -463.497 387.607C-452.459 364.778 -430.797 348.37 -400.985 338.279C-371.171 328.188 -333.245 324.43 -289.766 326.885C-202.811 331.794 -93.7514 361.546 16.7875 414.994C127.326 468.442 218.373 535.447 276.221 600.553C305.146 633.107 325.754 665.167 336.359 694.802C346.964 724.435 347.556 751.604 336.518 774.432C325.48 797.261 303.817 813.669 274.005 823.76C244.191 833.851 206.265 837.609 162.786 835.154C75.8313 830.245 -33.2283 800.494 -143.767 747.045Z" stroke="url(#paint9_linear_252_4776)" stroke-opacity="0.15"/>
<path d="M-146.652 745.622C-256.242 690.253 -346.105 621.669 -402.808 555.563C-431.161 522.51 -451.206 490.095 -461.292 460.279C-471.378 430.465 -471.496 403.29 -460.061 380.658C-448.626 358.026 -426.681 341.998 -396.697 332.429C-366.711 322.859 -328.725 319.764 -285.296 322.978C-198.44 329.404 -89.9163 361.054 19.673 416.423C129.262 471.792 219.126 540.376 275.829 606.482C304.181 639.535 324.227 671.95 334.313 701.766C344.399 731.58 344.516 758.755 333.082 781.387C321.647 804.019 299.701 820.047 269.718 829.616C239.732 839.186 201.746 842.281 158.317 839.067C71.4608 832.641 -37.063 800.991 -146.652 745.622Z" stroke="url(#paint10_linear_252_4776)" stroke-opacity="0.15"/>
<path d="M-149.512 744.143C-258.118 686.87 -346.771 616.729 -402.312 549.643C-430.083 516.1 -449.56 483.34 -459.124 453.353C-468.688 423.368 -468.332 396.194 -456.504 373.765C-444.675 351.336 -422.454 335.693 -392.308 326.649C-362.16 317.605 -324.125 315.173 -280.759 319.144C-194.028 327.085 -86.0731 360.624 22.5331 417.897C131.139 475.171 219.792 545.312 275.333 612.397C303.104 645.941 322.581 678.701 332.145 708.688C341.709 738.673 341.353 765.846 329.525 788.276C317.697 810.705 295.475 826.347 265.329 835.391C235.181 844.436 197.146 846.868 153.78 842.897C67.049 834.956 -40.9059 801.417 -149.512 744.143Z" stroke="url(#paint11_linear_252_4776)" stroke-opacity="0.15"/>
<path d="M-152.346 742.617C-259.936 683.457 -347.351 611.779 -401.713 543.735C-428.895 509.711 -447.796 476.617 -456.836 446.467C-465.875 416.32 -465.044 389.157 -452.827 366.938C-440.609 344.718 -418.117 329.466 -387.818 320.949C-357.517 312.432 -319.446 310.665 -276.155 315.391C-189.577 324.845 -82.2235 360.263 25.3667 419.423C132.957 478.583 220.372 550.261 274.734 618.306C301.915 652.329 320.817 685.424 329.857 715.573C338.896 745.721 338.065 772.883 325.847 795.103C313.63 817.322 291.138 832.574 260.839 841.091C230.538 849.608 192.466 851.376 149.176 846.649C62.5971 837.195 -44.756 801.777 -152.346 742.617Z" stroke="url(#paint12_linear_252_4776)" stroke-opacity="0.15"/>
<path d="M-155.152 741.044C-261.693 680.015 -347.844 606.822 -401.01 537.84C-427.593 503.347 -445.914 469.928 -454.427 439.625C-462.938 409.324 -461.634 382.18 -449.03 360.177C-436.426 338.175 -413.672 323.317 -383.229 315.331C-352.783 307.343 -314.687 306.241 -271.486 311.723C-185.085 322.686 -78.3667 359.972 28.1746 421.001C134.716 482.029 220.867 555.222 274.033 624.205C300.616 658.697 318.937 692.117 327.45 722.42C335.961 752.72 334.656 779.864 322.053 801.867C309.449 823.87 286.695 838.727 256.252 846.714C225.806 854.701 187.71 855.804 144.509 850.322C58.1082 839.359 -48.6104 802.073 -155.152 741.044Z" stroke="url(#paint13_linear_252_4776)" stroke-opacity="0.15"/>
<path d="M-157.932 739.419C-263.392 676.54 -348.252 601.855 -400.206 531.955C-426.184 497.004 -443.919 463.27 -451.901 432.823C-459.883 402.378 -458.104 375.261 -445.119 353.482C-432.133 331.702 -409.123 317.244 -378.545 309.79C-347.965 302.336 -309.855 301.898 -266.756 308.133C-180.56 320.602 -74.5083 359.745 30.9517 422.624C136.412 485.503 221.272 560.188 273.226 630.088C299.203 665.039 316.939 698.774 324.921 729.22C332.902 759.665 331.124 786.782 318.138 808.561C305.153 830.341 282.142 844.799 251.564 852.253C220.984 859.708 182.875 860.145 139.775 853.91C53.5793 841.441 -52.4723 802.298 -157.932 739.419Z" stroke="url(#paint14_linear_252_4776)" stroke-opacity="0.15"/>
<path d="M-160.681 737.745C-265.028 673.035 -348.572 596.88 -399.298 526.084C-424.662 490.685 -441.805 456.646 -449.255 426.065C-456.704 395.486 -454.453 368.404 -441.089 346.854C-427.725 325.305 -404.466 311.25 -373.763 304.331C-343.057 297.412 -304.946 297.639 -261.962 304.625C-175.996 318.597 -70.644 359.585 33.7025 424.295C138.049 489.004 221.593 565.159 272.319 635.956C297.683 671.355 314.826 705.393 322.276 735.975C329.725 766.554 327.474 793.636 314.11 815.185C300.746 836.735 277.487 850.789 246.784 857.708C216.078 864.628 177.967 864.401 134.983 857.415C49.0174 843.443 -56.3349 802.455 -160.681 737.745Z" stroke="url(#paint15_linear_252_4776)" stroke-opacity="0.15"/>
<path d="M-163.403 736.025C-266.604 669.504 -348.806 591.903 -398.289 520.232C-423.031 484.396 -439.578 450.063 -446.493 419.357C-453.407 388.652 -450.683 361.613 -436.945 340.3C-423.207 318.987 -399.707 305.341 -368.887 298.959C-338.065 292.576 -299.964 293.469 -257.108 301.204C-171.4 316.674 -66.779 359.494 36.4223 426.015C139.624 492.536 221.826 570.138 271.308 641.808C296.05 677.645 312.597 711.977 319.512 742.684C326.426 773.389 323.703 800.427 309.965 821.74C296.227 843.053 272.726 856.7 241.907 863.082C211.085 869.465 172.983 868.572 130.128 860.837C44.4196 845.367 -60.2013 802.546 -163.403 736.025Z" stroke="url(#paint16_linear_252_4776)" stroke-opacity="0.15"/>
<path d="M-166.092 734.259C-268.116 665.947 -348.951 586.923 -397.176 514.4C-421.289 478.137 -437.234 443.521 -443.612 412.698C-449.989 381.878 -446.794 354.891 -432.686 333.821C-418.578 312.751 -394.843 299.517 -363.917 293.673C-332.989 287.829 -294.908 289.387 -252.194 297.869C-166.769 314.832 -62.9114 359.472 39.1133 427.784C141.138 496.096 221.973 575.12 270.198 647.644C294.31 683.906 310.256 718.522 316.633 749.345C323.011 780.166 319.816 807.153 305.708 828.223C291.6 849.293 267.865 862.527 236.939 868.37C206.01 874.214 167.93 872.657 125.216 864.175C39.7908 847.211 -64.067 802.571 -166.092 734.259Z" stroke="url(#paint17_linear_252_4776)" stroke-opacity="0.15"/>
<path d="M-168.752 732.444C-269.569 662.362 -349.012 581.94 -395.964 508.585C-419.44 471.907 -434.779 437.018 -440.617 406.089C-446.456 375.162 -442.79 348.235 -428.317 327.414C-413.844 306.594 -389.881 293.776 -358.858 288.473C-327.832 283.17 -289.785 285.391 -247.225 294.618C-162.109 313.069 -59.0462 359.515 41.7706 429.597C142.587 499.679 222.031 580.102 268.983 653.456C292.459 690.134 307.798 725.023 313.636 755.953C319.475 786.88 315.809 813.807 301.336 834.627C286.863 855.448 262.9 868.266 231.877 873.568C200.851 878.872 162.804 876.65 120.244 867.424C35.128 848.972 -67.9348 802.526 -168.752 732.444Z" stroke="url(#paint18_linear_252_4776)" stroke-opacity="0.15"/>
<path d="M-171.377 730.586C-270.955 658.755 -348.984 576.958 -394.648 502.796C-417.48 465.714 -432.208 430.562 -437.506 399.536C-442.804 368.511 -438.669 341.652 -423.834 321.088C-409 300.523 -384.817 288.125 -353.706 283.365C-322.592 278.604 -284.589 281.489 -242.198 291.457C-157.416 311.391 -55.1798 359.628 44.3986 431.459C143.977 503.29 222.005 585.087 267.669 659.249C290.502 696.332 305.229 731.483 310.527 762.51C315.825 793.534 311.69 820.393 296.856 840.958C282.021 861.523 257.838 873.92 226.727 878.681C195.614 883.442 157.611 880.556 115.219 870.589C30.4378 850.654 -71.7987 802.417 -171.377 730.586Z" stroke="url(#paint19_linear_252_4776)" stroke-opacity="0.15"/>
<path d="M-173.971 728.678C-272.281 655.12 -348.87 571.973 -393.232 497.025C-415.414 459.55 -429.526 424.147 -434.282 393.033C-439.037 361.921 -434.434 335.138 -419.243 314.835C-404.052 294.533 -379.657 282.559 -348.467 278.342C-317.275 274.125 -279.329 277.673 -237.117 288.379C-152.697 309.79 -51.3176 359.804 46.992 433.362C145.302 506.92 221.89 590.066 266.253 665.014C288.435 702.489 302.547 737.892 307.303 769.007C312.058 800.118 307.455 826.901 292.264 847.204C277.073 867.507 252.677 879.48 221.488 883.697C190.296 887.915 152.349 884.366 110.138 873.661C25.7174 852.25 -75.6617 802.235 -173.971 728.678Z" stroke="url(#paint20_linear_252_4776)" stroke-opacity="0.15"/>
<path d="M-176.532 726.729C-273.543 651.466 -348.669 566.996 -391.717 491.285C-413.241 453.429 -426.733 417.785 -430.945 386.592C-435.157 355.402 -430.087 328.704 -414.544 308.669C-399.001 288.635 -374.4 277.088 -343.142 273.416C-311.881 269.744 -274.002 273.954 -231.984 285.395C-147.95 308.276 -47.4594 360.052 49.5514 435.314C146.562 510.577 221.688 595.047 264.736 670.758C286.261 708.614 299.752 744.258 303.965 775.451C308.176 806.641 303.106 833.34 287.563 853.374C272.02 873.409 247.42 884.955 216.161 888.627C184.9 892.299 147.022 888.089 105.003 876.648C20.9695 853.767 -79.5213 801.991 -176.532 726.729Z" stroke="url(#paint21_linear_252_4776)" stroke-opacity="0.15"/>
<path d="M-179.056 724.735C-274.738 647.791 -348.379 562.022 -390.098 485.572C-410.959 447.345 -423.827 411.471 -427.494 380.21C-431.161 348.951 -425.626 322.345 -409.735 302.585C-393.845 282.825 -369.046 271.71 -337.729 268.584C-306.409 265.458 -268.609 270.328 -226.797 282.501C-143.175 306.845 -43.6032 360.367 52.0793 437.311C147.762 514.255 221.402 600.023 263.122 676.474C283.983 714.7 296.85 750.574 300.517 781.836C304.184 813.095 298.649 839.7 282.759 859.461C266.868 879.221 242.07 890.336 210.752 893.462C179.432 896.588 141.633 891.717 99.8206 879.545C16.1987 855.201 -83.3731 801.679 -179.056 724.735Z" stroke="url(#paint22_linear_252_4776)" stroke-opacity="0.15"/>
<path d="M-181.548 722.695C-275.873 644.093 -348.005 557.053 -388.384 479.885C-408.575 441.301 -420.814 405.208 -423.935 373.887C-427.056 342.569 -421.057 316.064 -404.825 296.584C-388.592 277.104 -363.603 266.423 -332.236 263.845C-300.866 261.266 -263.157 266.795 -221.564 279.695C-138.379 305.495 -39.7568 360.746 54.5684 439.349C148.894 517.951 221.026 604.992 261.405 682.159C281.595 720.743 293.835 756.836 296.956 788.157C300.077 819.475 294.078 845.98 277.845 865.46C261.612 884.94 236.624 895.621 205.256 898.2C173.886 900.779 136.178 895.249 94.5842 882.349C11.4 856.549 -87.2226 801.298 -181.548 722.695Z" stroke="url(#paint23_linear_252_4776)" stroke-opacity="0.15"/>
<path d="M-184 720.615C-276.939 640.378 -347.542 552.092 -386.568 474.232C-406.082 435.301 -417.69 399 -420.264 367.629C-422.837 336.261 -416.377 309.865 -399.807 290.671C-383.236 271.478 -358.065 261.235 -326.657 259.204C-295.247 257.173 -257.641 263.359 -216.279 276.984C-133.558 304.231 -35.9142 361.196 57.0248 441.432C149.964 521.668 220.566 609.955 259.592 687.815C279.106 726.746 290.714 763.047 293.288 794.418C295.862 825.785 289.401 852.182 272.831 871.376C256.261 890.569 231.089 900.812 199.682 902.843C168.272 904.874 130.665 898.687 89.3032 885.063C6.58191 857.815 -91.0614 800.851 -184 720.615Z" stroke="url(#paint24_linear_252_4776)" stroke-opacity="0.15"/>
<path d="M-186.42 718.489C-277.944 636.643 -346.995 547.138 -384.656 468.609C-403.488 429.343 -414.46 392.844 -416.486 361.434C-418.512 330.026 -411.592 303.746 -394.689 284.845C-377.787 265.943 -352.44 256.141 -321.002 254.659C-289.561 253.176 -252.068 260.018 -210.951 274.362C-128.717 303.049 -32.0831 361.709 59.4414 443.555C150.966 525.402 220.017 614.907 257.678 693.436C276.51 732.702 287.482 769.2 289.508 800.61C291.534 832.018 284.614 858.298 267.711 877.2C250.808 896.101 225.462 905.903 194.024 907.386C162.583 908.868 125.09 902.026 83.9725 887.682C1.73932 858.995 -94.895 800.335 -186.42 718.489Z" stroke="url(#paint25_linear_252_4776)" stroke-opacity="0.15"/>
<path d="M-188.801 716.321C-278.883 632.89 -346.361 542.194 -382.647 463.019C-400.79 423.431 -411.124 386.746 -412.601 355.305C-414.079 323.867 -406.701 297.712 -389.471 279.108C-372.241 260.504 -346.728 251.146 -315.268 250.213C-283.806 249.279 -246.439 256.774 -205.578 271.834C-123.857 301.952 -28.2617 362.289 61.8205 445.72C151.903 529.151 219.381 619.848 255.666 699.022C273.809 738.611 284.143 775.295 285.621 806.736C287.098 838.175 279.72 864.329 262.49 882.933C245.26 901.537 219.747 910.895 188.287 911.828C156.826 912.762 119.458 905.267 78.5967 890.207C-3.12328 860.089 -98.7191 799.752 -188.801 716.321Z" stroke="url(#paint26_linear_252_4776)" stroke-opacity="0.15"/>
<path d="M-191.142 714.114C-279.754 629.123 -345.639 537.263 -380.537 457.467C-397.987 417.568 -407.679 380.709 -408.607 349.247C-409.536 317.788 -401.703 291.765 -384.151 273.465C-366.599 255.165 -340.926 246.254 -309.455 245.869C-277.982 245.485 -240.75 253.631 -200.158 269.402C-118.976 300.941 -24.4481 362.938 64.1643 447.928C152.777 532.919 218.661 624.779 253.56 704.575C271.009 744.474 280.701 781.333 281.63 812.795C282.558 844.254 274.725 870.277 257.173 888.577C239.621 906.877 213.948 915.788 182.477 916.173C151.004 916.557 113.773 908.411 73.1806 892.64C-8.00133 861.101 -102.53 799.104 -191.142 714.114Z" stroke="url(#paint27_linear_252_4776)" stroke-opacity="0.15"/>
<path d="M-193.446 711.864C-280.561 625.34 -344.833 532.344 -378.333 451.951C-395.084 411.754 -404.131 374.731 -404.51 343.258C-404.89 311.787 -396.604 285.905 -378.735 267.914C-360.866 249.923 -335.042 241.461 -303.569 241.626C-272.093 241.791 -235.01 250.586 -194.699 267.062C-114.08 300.014 -20.6484 363.651 66.4672 450.175C153.583 536.699 217.854 629.695 251.355 710.088C268.105 750.285 277.152 787.308 277.532 818.781C277.911 850.252 269.625 876.134 251.756 894.125C233.887 912.116 208.063 920.578 176.59 920.413C145.115 920.248 108.031 911.453 67.7208 894.977C-12.8983 862.025 -106.33 798.389 -193.446 711.864Z" stroke="url(#paint28_linear_252_4776)" stroke-opacity="0.15"/>
<path d="M-195.711 709.582C-281.303 621.55 -343.942 527.447 -376.034 446.482C-392.08 405.998 -400.48 368.823 -400.31 337.348C-400.14 305.875 -391.404 280.142 -373.224 262.466C-355.044 244.789 -329.075 236.779 -297.61 237.493C-266.143 238.207 -229.218 247.648 -189.201 264.826C-109.17 299.179 -16.8626 364.437 68.7297 452.468C154.322 540.499 216.961 634.603 249.053 715.568C265.099 756.052 273.499 793.227 273.329 824.702C273.159 856.175 264.423 881.908 246.243 899.584C228.063 917.261 202.094 925.271 170.629 924.557C139.162 923.842 102.237 914.402 62.2203 897.224C-17.8114 862.871 -110.118 797.613 -195.711 709.582Z" stroke="url(#paint29_linear_252_4776)" stroke-opacity="0.15"/>
<path d="M-197.933 707.249C-281.976 617.738 -342.963 522.555 -373.637 441.042C-388.975 400.285 -396.725 362.969 -396.005 331.501C-395.286 300.036 -386.102 274.46 -367.616 257.103C-349.13 239.747 -323.026 232.191 -291.578 233.455C-260.128 234.718 -223.374 244.802 -183.663 262.675C-104.243 298.42 -13.0888 365.278 70.954 454.79C154.997 544.302 215.984 639.484 246.658 720.997C261.995 761.755 269.745 799.071 269.026 830.538C268.307 862.003 259.122 887.58 240.637 904.936C222.151 922.293 196.047 929.848 164.599 928.585C133.149 927.322 96.3946 917.238 56.6835 899.365C-22.7365 863.62 -113.891 796.761 -197.933 707.249Z" stroke="url(#paint30_linear_252_4776)" stroke-opacity="0.15"/>
<path d="M-200.118 704.886C-282.586 613.922 -341.902 517.689 -371.149 435.653C-385.773 394.634 -392.87 357.189 -391.602 325.739C-390.334 294.291 -380.705 268.879 -361.919 251.848C-343.133 234.816 -316.901 227.718 -285.48 229.529C-254.056 231.341 -217.484 242.065 -178.091 260.628C-99.3067 297.754 -9.33339 366.193 73.1345 457.158C155.602 548.123 214.919 644.355 244.166 726.391C258.789 767.41 265.887 804.856 264.618 836.306C263.35 867.753 253.721 893.166 234.935 910.197C216.149 927.228 189.917 934.327 158.496 932.515C127.073 930.703 90.5003 919.98 51.1072 901.416C-27.6768 864.29 -117.65 795.851 -200.118 704.886Z" stroke="url(#paint31_linear_252_4776)" stroke-opacity="0.15"/>
<path d="M-202.257 702.483C-283.125 610.093 -340.753 512.84 -368.564 430.306C-382.469 389.038 -388.912 351.475 -387.095 320.052C-385.278 288.631 -375.207 263.39 -356.127 246.69C-337.046 229.989 -310.694 223.349 -279.31 225.709C-247.923 228.069 -211.543 239.429 -172.48 258.677C-94.3558 297.173 -5.59068 367.172 75.2771 459.562C156.145 551.952 213.773 649.205 241.583 731.739C255.489 773.007 261.932 810.57 260.115 841.994C258.298 873.414 248.227 898.655 229.146 915.356C210.066 932.056 183.714 938.696 152.33 936.336C120.943 933.976 84.563 922.616 45.4998 903.368C-32.6243 864.873 -121.389 794.874 -202.257 702.483Z" stroke="url(#paint32_linear_252_4776)" stroke-opacity="0.15"/>
<path d="M-204.353 700.044C-283.596 606.256 -339.518 508.013 -365.884 425.006C-379.068 383.502 -384.854 345.831 -382.489 314.445C-380.124 283.06 -369.614 257.999 -350.245 241.634C-330.876 225.269 -304.412 219.09 -273.073 221.997C-241.732 224.905 -205.556 236.898 -166.835 256.825C-89.3948 296.678 -1.8648 368.216 77.3782 462.003C156.621 555.79 212.543 654.034 238.909 737.041C252.092 778.545 257.879 816.216 255.513 847.602C253.148 878.987 242.638 904.047 223.269 920.413C203.901 936.778 177.437 942.957 146.098 940.05C114.757 937.142 78.5812 925.149 39.86 905.222C-37.5804 865.369 -125.11 793.831 -204.353 700.044Z" stroke="url(#paint33_linear_252_4776)" stroke-opacity="0.15"/>
<path d="M-206.411 697.565C-284.005 602.409 -338.204 503.204 -363.117 419.75C-375.574 378.022 -380.702 340.256 -377.79 308.915C-374.877 277.577 -363.931 252.704 -344.28 236.679C-324.628 220.654 -298.061 214.938 -266.778 218.392C-235.492 221.846 -199.531 234.469 -161.163 255.068C-84.4303 296.267 1.83786 369.321 79.432 464.477C157.026 559.633 211.225 658.838 236.138 742.292C248.595 784.021 253.723 821.786 250.811 853.127C247.898 884.465 236.952 909.339 217.301 925.363C197.649 941.388 171.082 947.104 139.799 943.65C108.513 940.196 72.5519 927.573 34.1843 906.974C-42.5487 865.775 -128.817 792.721 -206.411 697.565Z" stroke="url(#paint34_linear_252_4776)" stroke-opacity="0.15"/>
<path d="M-208.425 695.057C-284.346 598.562 -336.805 498.426 -360.259 414.55C-371.985 372.611 -376.453 334.761 -372.994 303.476C-369.535 272.193 -358.157 247.515 -338.229 231.836C-318.301 216.156 -291.637 210.905 -260.419 214.904C-229.199 218.903 -193.463 232.152 -155.461 253.418C-79.4589 295.949 5.5212 370.498 81.4428 466.994C157.364 563.49 209.824 663.625 233.277 747.502C245.004 789.441 249.471 827.29 246.012 858.575C242.553 889.858 231.175 914.537 211.247 930.216C191.319 945.895 164.656 951.147 133.437 947.148C102.217 943.148 66.4816 929.899 28.4794 908.633C-47.523 866.102 -132.503 791.553 -208.425 695.057Z" stroke="url(#paint35_linear_252_4776)" stroke-opacity="0.15"/>
<path d="M-210.391 692.503C-284.617 594.697 -335.321 493.661 -357.306 409.388C-368.299 367.251 -372.106 329.329 -368.101 298.109C-364.097 266.892 -352.29 242.415 -332.091 227.086C-311.892 211.757 -285.141 206.972 -253.998 211.515C-222.852 216.059 -187.353 229.929 -149.728 251.855C-74.4795 295.706 9.18656 371.727 83.4125 469.533C157.638 567.339 208.342 668.375 230.328 752.648C241.321 794.785 245.128 832.707 241.123 863.927C237.119 895.144 225.311 919.621 205.113 934.95C184.914 950.279 158.163 955.064 127.019 950.521C95.8733 945.977 60.3748 932.107 22.7495 910.181C-52.499 866.33 -136.165 790.309 -210.391 692.503Z" stroke="url(#paint36_linear_252_4776)" stroke-opacity="0.15"/>
<path d="M-212.315 689.924C-284.823 590.837 -333.755 488.932 -354.267 404.288C-364.523 361.965 -367.667 323.983 -363.118 292.838C-358.57 261.695 -346.337 237.428 -325.874 222.454C-305.411 207.48 -278.58 203.162 -247.521 208.248C-216.459 213.335 -181.208 227.822 -143.971 250.402C-69.499 295.56 12.8276 373.029 85.3353 472.115C157.843 571.202 206.775 673.108 227.287 757.751C237.543 800.074 240.687 838.056 236.138 869.202C231.59 900.344 219.357 924.611 198.894 939.585C178.431 954.56 151.601 958.877 120.541 953.791C89.479 948.705 54.2279 934.217 16.991 911.637C-57.4807 866.48 -139.807 789.011 -212.315 689.924Z" stroke="url(#paint37_linear_252_4776)" stroke-opacity="0.15"/>
<path d="M-214.193 687.314C-284.96 586.976 -332.107 484.232 -351.138 399.244C-360.654 356.748 -363.135 318.717 -358.043 287.656C-352.952 256.597 -340.298 232.548 -319.576 217.933C-298.855 203.318 -271.953 199.469 -240.987 205.097C-210.018 210.725 -175.026 225.825 -138.188 249.051C-64.5162 295.502 16.4458 374.396 87.2132 474.733C157.981 575.07 205.127 677.814 224.158 762.803C233.674 805.298 236.155 843.329 231.063 874.391C225.972 905.449 213.318 929.499 192.596 944.113C171.875 958.728 144.973 962.577 114.007 956.95C83.0387 951.322 48.0459 936.221 11.2087 912.995C-62.4636 866.545 -143.426 787.651 -214.193 687.314Z" stroke="url(#paint38_linear_252_4776)" stroke-opacity="0.15"/>
<path d="M-216.026 684.665C-285.031 583.108 -330.378 479.557 -347.923 394.249C-356.695 351.594 -358.512 313.525 -352.879 282.558C-347.247 251.593 -334.175 227.768 -313.201 213.517C-292.228 199.266 -265.263 195.887 -234.4 202.054C-203.535 208.222 -168.811 223.931 -132.384 247.796C-59.5339 295.525 20.0389 375.82 89.0443 477.377C158.05 578.934 203.396 682.485 220.941 767.793C229.714 810.448 231.531 848.517 225.898 879.484C220.265 910.449 207.193 934.274 186.22 948.525C165.246 962.776 138.282 966.155 107.418 959.988C76.5529 953.82 41.8289 938.111 5.40268 914.246C-67.4477 866.517 -147.021 786.222 -216.026 684.665Z" stroke="url(#paint39_linear_252_4776)" stroke-opacity="0.15"/>
<path d="M-217.811 681.987C-285.033 579.242 -328.565 474.915 -344.619 389.314C-352.646 346.512 -353.798 308.417 -347.625 277.553C-341.453 246.691 -327.967 223.098 -306.749 209.215C-285.53 195.332 -258.51 192.424 -227.759 199.129C-197.006 205.835 -162.562 222.147 -126.557 246.645C-54.5512 295.638 23.6082 377.309 90.8307 480.055C158.053 582.801 201.585 687.128 217.639 772.729C225.666 815.53 226.818 853.625 220.645 884.49C214.473 915.352 200.987 938.945 179.768 952.828C158.549 966.71 131.53 969.618 100.779 962.913C70.026 956.208 35.5815 939.895 -0.422676 915.398C-72.429 866.405 -150.588 784.733 -217.811 681.987Z" stroke="url(#paint40_linear_252_4776)" stroke-opacity="0.15"/>
<path d="M-219.549 679.281C-284.968 575.378 -326.672 470.307 -341.23 384.439C-348.508 341.504 -348.995 303.395 -342.285 272.643C-335.575 241.893 -321.68 218.539 -300.222 205.029C-278.764 191.518 -251.698 189.082 -221.069 196.323C-190.437 203.564 -156.282 220.475 -120.711 245.597C-49.571 295.84 27.1511 378.863 92.5702 482.766C157.989 586.67 199.694 691.74 214.251 777.608C221.53 820.544 222.017 858.653 215.307 889.405C208.597 920.154 194.701 943.509 173.243 957.019C151.785 970.529 124.719 972.965 94.0901 965.725C63.4587 958.484 29.3041 941.572 -6.26706 916.45C-77.4073 866.208 -154.129 783.184 -219.549 679.281Z" stroke="url(#paint41_linear_252_4776)" stroke-opacity="0.15"/>
<path d="M-221.24 676.544C-284.836 571.515 -324.701 465.732 -337.757 379.623C-344.285 336.567 -344.107 298.456 -336.861 267.825C-329.616 237.197 -315.315 214.089 -293.624 200.956C-271.934 187.822 -244.829 185.859 -214.331 193.633C-183.831 201.407 -149.976 218.912 -114.849 244.651C-44.5963 296.127 30.6651 380.477 94.2609 485.506C157.857 590.535 197.721 696.318 210.778 782.427C217.306 825.483 217.128 863.594 209.882 894.225C202.636 924.853 188.335 947.961 166.645 961.095C144.954 974.228 117.85 976.191 87.3518 968.417C56.8514 960.643 22.9971 943.138 -12.1301 917.399C-82.3828 865.923 -157.644 781.573 -221.24 676.544Z" stroke="url(#paint42_linear_252_4776)" stroke-opacity="0.15"/>
<path d="M-222.884 673.774C-284.637 567.651 -322.65 461.189 -334.201 374.865C-339.977 331.702 -339.134 293.599 -331.354 263.1C-323.575 232.604 -308.873 209.748 -286.957 196.995C-265.04 184.242 -237.906 182.752 -207.548 191.057C-177.188 199.363 -143.644 217.456 -108.972 243.804C-39.6281 296.499 34.1498 382.149 95.9029 488.272C157.656 594.395 195.668 700.857 207.22 787.181C212.996 830.344 212.153 868.447 204.373 898.946C196.594 929.443 181.892 952.298 159.976 965.051C138.059 977.804 110.925 979.294 80.5669 970.989C50.2068 962.683 16.6632 944.59 -18.0095 918.242C-87.353 865.548 -161.131 779.897 -222.884 673.774Z" stroke="url(#paint43_linear_252_4776)" stroke-opacity="0.15"/>
<path d="M-224.478 670.976C-284.37 563.791 -320.518 456.682 -330.561 370.169C-335.583 326.912 -334.075 288.83 -325.764 258.471C-317.454 228.115 -302.356 205.52 -280.22 193.151C-258.084 180.782 -230.928 179.766 -200.72 188.6C-170.509 197.434 -137.287 216.11 -103.079 243.059C-34.6656 296.956 37.6062 383.881 97.4978 491.065C157.389 598.25 193.538 705.359 203.581 791.871C208.603 835.129 207.095 873.211 198.784 903.57C190.474 933.926 175.376 956.521 153.24 968.89C131.104 981.259 103.948 982.275 73.7396 973.441C43.5291 964.607 10.3064 945.931 -23.9012 918.982C-92.3145 865.085 -164.586 778.16 -224.478 670.976Z" stroke="url(#paint44_linear_252_4776)" stroke-opacity="0.15"/>
<path d="M-226.023 668.154C-284.035 559.941 -318.308 452.217 -326.84 365.543C-331.106 322.204 -328.934 284.154 -320.095 253.945C-311.256 223.738 -295.765 201.41 -273.417 189.43C-251.069 177.449 -223.899 176.907 -193.85 186.267C-163.798 195.627 -130.906 214.879 -97.174 242.422C-29.7118 297.504 41.032 385.677 99.0438 493.89C157.056 602.104 191.329 709.828 199.861 796.502C204.127 839.841 201.955 877.891 193.116 908.1C184.277 938.307 168.786 960.635 146.438 972.615C124.09 984.596 96.9201 985.138 66.8706 975.778C36.8189 966.418 3.92724 947.165 -29.8048 919.623C-97.2671 864.541 -168.011 776.368 -226.023 668.154Z" stroke="url(#paint45_linear_252_4776)" stroke-opacity="0.15"/>
<path d="M-227.52 665.304C-283.634 556.094 -316.023 447.788 -323.041 360.978C-326.55 317.572 -323.713 279.566 -314.348 249.515C-304.984 219.467 -289.106 197.413 -266.552 185.824C-243.998 174.236 -216.823 174.168 -186.941 184.051C-157.057 193.934 -124.507 213.758 -91.2606 241.884C-24.7699 298.136 44.4243 387.53 100.539 496.739C156.653 605.949 189.042 714.255 196.059 801.065C199.569 844.471 196.732 882.477 187.367 912.528C178.003 942.575 162.125 964.63 139.571 976.218C117.017 987.807 89.8418 987.875 59.9603 977.992C30.0765 968.109 -2.4742 948.285 -35.7205 920.159C-102.211 863.907 -171.405 774.513 -227.52 665.304Z" stroke="url(#paint46_linear_252_4776)" stroke-opacity="0.15"/>
<path d="M-228.966 662.428C-283.166 552.256 -313.659 443.402 -319.161 356.482C-321.912 313.021 -318.413 275.07 -308.525 245.188C-298.638 215.308 -282.377 193.534 -259.624 182.341C-236.872 171.148 -209.699 171.554 -179.995 181.957C-150.288 192.36 -118.088 212.749 -85.3379 241.451C-19.8391 298.855 47.7844 389.443 101.984 499.615C156.184 609.787 186.678 718.642 192.179 805.561C194.93 849.022 191.431 886.973 181.543 916.855C171.656 946.735 155.395 968.509 132.643 979.702C109.89 990.896 82.7176 990.489 53.0131 980.086C23.3063 969.683 -8.89346 949.294 -41.6438 920.592C-107.143 863.188 -174.766 772.6 -228.966 662.428Z" stroke="url(#paint47_linear_252_4776)" stroke-opacity="0.15"/>
<path d="M-230.361 659.527C-282.63 548.426 -311.219 439.056 -315.203 352.053C-317.195 308.551 -313.034 270.667 -302.626 240.962C-292.218 211.259 -275.58 189.772 -252.636 178.978C-229.691 168.183 -202.53 169.064 -173.012 179.983C-143.491 190.903 -111.652 211.851 -79.4076 241.121C-14.9206 299.659 51.1116 391.413 103.38 502.515C155.649 613.616 184.238 722.986 188.222 809.988C190.214 853.49 186.054 891.375 175.645 921.08C165.238 950.783 148.6 972.269 125.655 983.064C102.711 993.858 75.5497 992.977 46.0313 982.058C16.5106 971.138 -15.3284 950.19 -47.5728 920.921C-112.06 862.383 -178.092 770.628 -230.361 659.527Z" stroke="url(#paint48_linear_252_4776)" stroke-opacity="0.15"/>
<path d="M-231.706 656.605C-282.028 544.608 -308.703 434.756 -311.168 347.697C-312.401 304.167 -307.58 266.361 -296.655 236.842C-285.73 207.325 -268.72 186.132 -245.59 175.74C-222.461 165.348 -195.319 166.702 -165.996 178.135C-136.67 189.569 -105.202 211.069 -73.4732 240.897C-10.0176 300.551 54.4032 393.444 104.725 505.441C155.047 617.438 181.723 727.29 184.188 814.348C185.42 857.879 180.599 895.685 169.674 925.204C158.75 954.72 141.739 975.913 118.61 986.306C95.4805 996.698 68.3389 995.343 39.0155 983.911C9.6899 972.477 -21.7787 950.977 -53.5073 921.149C-116.963 861.494 -181.384 768.601 -231.706 656.605Z" stroke="url(#paint49_linear_252_4776)" stroke-opacity="0.15"/>
<path d="M-233 653.655C-281.359 540.797 -306.114 430.496 -307.059 343.407C-307.532 299.862 -302.051 262.146 -290.613 232.822C-279.175 203.501 -261.797 182.608 -238.49 172.621C-215.183 162.634 -188.069 164.462 -158.95 176.405C-129.828 188.348 -98.7395 210.395 -67.5363 240.772C-5.13149 301.525 57.6583 395.527 106.018 508.385C154.378 621.243 179.132 731.544 180.077 818.632C180.55 862.178 175.07 899.894 163.631 929.218C152.194 958.539 134.816 979.432 111.508 989.419C88.2012 999.406 61.0873 997.578 31.9679 985.635C2.84635 973.692 -28.2422 951.645 -59.4455 921.268C-121.85 860.515 -184.64 766.512 -233 653.655Z" stroke="url(#paint50_linear_252_4776)" stroke-opacity="0.15"/>
<path d="M-234.24 650.689C-280.623 537.004 -303.449 426.288 -302.874 339.197C-302.587 295.65 -296.449 258.035 -284.5 228.915C-272.553 199.798 -254.813 179.212 -231.335 169.633C-207.857 160.054 -180.779 162.355 -151.873 174.804C-122.964 187.254 -92.2648 209.84 -61.5964 240.757C-0.261408 302.589 60.8782 397.674 107.261 511.359C153.644 625.043 176.469 735.759 175.895 822.851C175.607 866.398 169.469 904.012 157.521 933.132C145.573 962.249 127.833 982.836 104.355 992.415C80.8773 1001.99 53.7994 999.693 24.893 987.243C-4.01575 974.793 -34.7148 952.208 -65.3832 921.291C-126.718 859.458 -187.858 764.374 -234.24 650.689Z" stroke="url(#paint51_linear_252_4776)" stroke-opacity="0.15"/>
<path d="M-235.431 647.697C-279.823 533.22 -300.713 422.122 -298.618 335.054C-297.571 291.519 -290.778 254.017 -278.323 225.111C-265.869 196.206 -247.772 175.932 -224.131 166.765C-200.489 157.597 -173.455 160.37 -144.771 173.322C-116.084 186.275 -85.7834 209.393 -55.6593 240.84C4.58719 303.734 64.0581 399.871 108.45 514.348C152.841 628.825 173.731 739.922 171.636 826.991C170.589 870.526 163.796 908.028 151.341 936.934C138.887 965.839 120.79 986.112 97.1489 995.28C73.5073 1004.45 46.4737 1001.67 17.7889 988.723C-10.8981 975.77 -41.1983 952.652 -71.3224 921.205C-131.569 858.311 -191.04 762.174 -235.431 647.697Z" stroke="url(#paint52_linear_252_4776)" stroke-opacity="0.15"/>
<path d="M-236.568 644.685C-278.955 529.451 -297.903 418.005 -294.289 330.987C-292.482 287.477 -285.035 250.099 -272.078 221.414C-259.121 192.732 -240.674 172.777 -216.876 164.023C-193.078 155.269 -166.097 158.514 -137.642 171.965C-109.186 185.416 -79.2935 209.059 -49.7228 241.028C9.41693 304.963 67.2009 402.123 109.588 517.358C151.975 632.592 170.923 744.037 167.309 831.056C165.502 874.566 158.055 911.944 145.097 940.628C132.141 969.311 113.693 989.266 89.8953 998.02C66.0973 1006.77 39.1163 1003.53 10.6618 990.078C-17.7948 976.627 -47.6869 952.984 -77.2576 921.015C-136.397 857.08 -194.181 759.919 -236.568 644.685Z" stroke="url(#paint53_linear_252_4776)" stroke-opacity="0.15"/>
<path d="M-237.652 641.658C-278.021 525.702 -295.021 413.943 -289.889 327.001C-287.323 283.528 -279.225 246.287 -265.769 217.832C-252.314 189.38 -233.521 169.75 -209.574 161.413C-185.627 153.076 -158.706 156.791 -130.491 170.736C-102.274 184.682 -72.7986 208.843 -43.7903 241.323C14.2246 306.281 70.3041 404.435 110.673 520.391C151.043 636.348 168.043 748.107 162.911 835.049C160.345 878.521 152.247 915.763 138.79 944.217C125.335 972.67 106.542 992.299 82.5953 1000.64C58.6481 1008.97 31.7278 1005.26 3.51246 991.313C-24.705 977.367 -54.18 953.206 -83.1882 920.726C-141.203 855.768 -197.283 757.614 -237.652 641.658Z" stroke="url(#paint54_linear_252_4776)" stroke-opacity="0.15"/>
<path d="M-238.685 638.609C-277.024 521.965 -292.071 409.927 -285.423 323.087C-282.098 279.667 -273.351 242.572 -259.401 214.356C-245.451 186.143 -226.318 166.845 -202.229 158.927C-178.14 151.009 -151.289 155.193 -123.321 169.629C-95.3516 184.065 -66.3028 208.737 -37.8658 241.718C19.0066 307.678 73.3645 406.796 111.704 523.439C150.043 640.083 165.091 752.122 158.442 838.961C155.117 882.382 146.371 919.476 132.42 947.692C118.47 975.905 99.3378 995.204 75.2487 1003.12C51.1597 1011.04 24.3084 1006.85 -3.65932 992.42C-31.6291 977.983 -60.6779 953.311 -89.1149 920.33C-145.987 854.37 -200.345 755.252 -238.685 638.609Z" stroke="url(#paint55_linear_252_4776)" stroke-opacity="0.15"/>
<path d="M-239.662 635.54C-275.96 518.245 -289.049 405.961 -280.886 319.251C-276.804 275.895 -267.412 238.958 -252.971 210.991C-238.531 183.025 -219.064 164.063 -194.841 156.567C-170.617 149.071 -143.843 153.723 -116.131 168.644C-88.4178 183.567 -59.804 208.742 -31.9469 242.214C23.7656 309.157 76.3855 409.209 112.683 526.503C148.981 643.798 162.071 756.082 153.907 842.792C149.826 886.148 140.433 923.085 125.992 951.052C111.552 979.018 92.0856 997.98 67.862 1005.48C43.6385 1012.97 16.8643 1008.32 -10.8472 993.398C-38.5608 978.476 -67.1746 953.301 -95.0317 919.829C-150.744 852.886 -203.364 752.834 -239.662 635.54Z" stroke="url(#paint56_linear_252_4776)" stroke-opacity="0.15"/>
<path d="M-240.587 632.457C-274.833 514.547 -285.961 402.051 -276.285 315.497C-271.448 272.219 -261.412 235.452 -246.485 207.741C-231.559 180.032 -211.764 161.412 -187.414 154.34C-163.063 147.268 -136.374 152.387 -108.927 167.789C-81.4783 183.193 -53.3082 208.863 -26.0396 242.817C28.4962 310.722 79.3619 411.677 113.607 529.587C147.852 647.497 158.98 759.993 149.305 846.547C144.467 889.825 134.431 926.592 119.504 954.304C104.579 982.013 84.7841 1000.63 60.4335 1007.7C36.0828 1014.78 9.39383 1009.66 -18.053 994.255C-45.502 978.851 -73.6721 953.181 -100.941 919.227C-155.476 851.322 -206.342 750.368 -240.587 632.457Z" stroke="url(#paint57_linear_252_4776)" stroke-opacity="0.15"/>
<path d="M-241.457 629.355C-273.639 510.865 -282.802 398.192 -271.617 311.82C-266.025 268.633 -255.349 232.046 -239.941 204.6C-224.534 177.156 -204.417 158.885 -179.947 152.238C-155.477 145.592 -128.881 151.176 -101.707 167.055C-74.5311 182.936 -46.8134 209.094 -20.1415 243.518C33.2009 312.365 82.2969 414.192 114.479 532.681C146.661 651.171 155.824 763.844 144.64 850.216C139.047 893.404 128.371 929.99 112.963 957.436C97.5561 984.881 77.4396 1003.15 52.9692 1009.8C28.4988 1016.44 1.90326 1010.86 -25.2706 994.981C-52.4465 979.101 -80.1643 952.942 -106.836 918.518C-160.179 849.672 -209.275 747.845 -241.457 629.355Z" stroke="url(#paint58_linear_252_4776)" stroke-opacity="0.15"/>
<path d="M-242.274 626.246C-272.383 507.212 -279.578 394.397 -266.888 308.233C-260.543 265.15 -249.23 228.756 -233.345 201.582C-217.462 174.411 -197.029 156.494 -172.447 150.276C-147.864 144.057 -121.37 150.105 -94.4774 166.456C-67.5827 182.808 -40.3257 209.446 -14.2586 244.33C37.874 314.098 85.1855 416.766 115.295 535.799C145.404 654.833 152.599 767.648 139.909 853.812C133.564 896.895 122.251 933.29 106.366 960.463C90.4825 987.634 70.0502 1005.55 45.4675 1011.77C20.8849 1017.99 -5.60919 1011.94 -32.5018 995.59C-59.3964 979.237 -86.6535 952.599 -112.721 917.715C-164.853 847.948 -212.165 745.28 -242.274 626.246Z" stroke="url(#paint59_linear_252_4776)" stroke-opacity="0.15"/>
<path d="M-243.037 623.116C-271.064 503.575 -276.289 390.651 -262.097 304.722C-255.001 261.756 -243.055 225.565 -226.698 198.673C-210.343 171.783 -189.601 154.225 -164.913 148.437C-140.226 142.649 -113.841 149.157 -87.2381 165.975C-60.633 182.794 -33.845 209.904 -8.39074 245.238C42.5164 315.905 88.0288 419.383 116.056 538.924C144.084 658.464 149.309 771.388 135.117 857.318C128.021 900.283 116.074 936.475 99.7174 963.367C83.3619 990.257 62.6201 1007.81 37.9326 1013.6C13.2452 1019.39 -13.1393 1012.88 -39.7424 996.064C-66.3476 979.245 -93.1356 952.135 -118.59 916.801C-169.497 846.135 -215.009 742.657 -243.037 623.116Z" stroke="url(#paint60_linear_252_4776)" stroke-opacity="0.15"/>
<path d="M-243.743 619.977C-269.68 499.965 -272.933 386.967 -257.244 301.299C-249.399 258.463 -236.823 222.486 -219.999 195.883C-203.177 169.283 -182.132 152.09 -157.347 146.733C-132.562 141.377 -106.296 148.345 -79.99 165.625C-53.6824 182.906 -27.3717 210.479 -2.53794 246.252C47.1281 317.796 90.8277 422.053 116.765 542.064C142.701 662.076 145.955 775.074 130.265 860.743C122.421 903.578 109.844 939.555 93.0207 966.158C76.1984 992.758 55.1533 1009.95 30.3686 1015.31C5.58393 1020.66 -20.683 1013.7 -46.9885 996.417C-73.2961 979.136 -99.6069 951.562 -124.441 915.79C-174.107 844.246 -217.806 739.989 -243.743 619.977Z" stroke="url(#paint61_linear_252_4776)" stroke-opacity="0.15"/>
<path d="M-244.397 616.824C-268.235 496.377 -269.516 383.34 -252.334 297.958C-243.743 255.266 -230.54 219.514 -213.255 193.209C-195.971 166.906 -174.629 150.083 -149.755 145.16C-124.88 140.237 -98.739 147.662 -72.7391 165.399C-46.7371 183.136 -20.9115 211.164 3.29408 247.365C51.704 319.765 93.5774 424.768 117.416 545.215C141.254 665.661 142.535 778.698 125.353 864.08C116.762 906.772 103.559 942.524 86.2741 968.829C68.9901 995.132 47.6481 1011.96 22.7737 1016.88C-2.10064 1021.8 -28.2419 1014.38 -54.2419 996.64C-80.2439 978.902 -106.069 950.874 -130.275 914.673C-178.685 842.273 -220.558 737.27 -244.397 616.824Z" stroke="url(#paint62_linear_252_4776)" stroke-opacity="0.15"/>
<path d="M-244.994 613.666C-266.726 492.822 -266.034 379.78 -247.365 294.711C-238.03 252.175 -224.205 216.659 -206.464 190.66C-188.723 164.663 -167.091 148.214 -142.134 143.726C-117.178 139.238 -91.1702 147.119 -65.4837 165.306C-39.7953 183.494 -14.4628 211.969 9.10729 248.587C56.2463 321.82 96.2807 427.539 118.013 548.382C139.746 669.226 139.054 782.269 120.384 867.338C111.049 909.873 97.225 945.39 79.4833 971.389C61.743 997.386 40.1106 1013.83 15.1541 1018.32C-9.80243 1022.81 -35.8101 1014.93 -61.4966 996.743C-87.1851 978.554 -112.518 950.08 -136.088 913.462C-183.227 840.228 -223.261 734.51 -244.994 613.666Z" stroke="url(#paint63_linear_252_4776)" stroke-opacity="0.15"/>
<path d="M-245.534 610.493C-265.155 489.288 -262.49 376.275 -242.338 291.545C-232.262 249.179 -217.82 213.909 -199.628 188.224C-181.436 162.54 -159.52 146.472 -134.489 142.42C-109.458 138.368 -83.5918 146.701 -58.2266 165.334C-32.8595 183.968 -8.02786 212.88 14.8996 249.904C60.7533 323.949 98.9366 430.35 118.557 551.555C138.177 672.759 135.512 785.773 115.361 870.503C105.285 912.869 90.843 948.139 72.6503 973.824C54.4589 999.508 32.5428 1015.58 7.51176 1019.63C-17.5193 1023.68 -43.3855 1015.35 -68.7507 996.714C-94.1178 978.08 -118.949 949.168 -141.877 912.144C-187.731 838.099 -225.914 731.698 -245.534 610.493Z" stroke="url(#paint64_linear_252_4776)" stroke-opacity="0.15"/>
<path d="M-246.022 607.311C-263.524 485.782 -258.887 372.832 -237.26 288.467C-226.446 246.283 -211.391 211.271 -192.753 185.907C-174.116 160.544 -151.923 144.861 -126.825 141.247C-101.727 137.632 -76.0101 146.416 -50.9739 165.488C-25.9359 184.562 -1.61262 213.903 20.6652 251.322C65.2196 326.156 101.54 433.207 119.042 554.736C136.544 676.264 131.908 789.214 110.28 873.579C99.4665 915.763 84.4112 950.776 65.773 976.14C47.1361 1001.5 24.9429 1017.19 -0.155032 1020.8C-25.253 1024.41 -50.9698 1015.63 -76.006 996.558C-101.044 977.484 -125.367 948.143 -147.645 910.725C-192.2 835.891 -228.52 728.84 -246.022 607.311Z" stroke="url(#paint65_linear_252_4776)" stroke-opacity="0.15"/>
<path d="M-246.454 604.122C-261.832 482.306 -255.225 369.455 -232.128 285.48C-220.58 243.491 -204.916 208.746 -185.838 183.712C-166.761 158.679 -144.298 143.385 -119.14 140.209C-93.9832 137.033 -68.4236 146.264 -43.7241 165.771C-19.0228 185.279 4.78469 215.04 26.4061 252.841C69.6477 328.442 104.094 436.11 119.473 557.926C134.851 679.741 128.244 792.593 105.148 876.568C93.5993 918.557 77.9352 953.301 58.8571 978.336C39.7805 1003.37 17.317 1018.66 -7.84024 1021.84C-32.9974 1025.01 -58.5571 1015.78 -83.2565 996.277C-107.958 976.769 -131.765 947.008 -153.387 909.206C-196.628 833.606 -231.075 725.937 -246.454 604.122Z" stroke="url(#paint66_linear_252_4776)" stroke-opacity="0.15"/>
<path d="M-246.829 600.924C-260.079 478.859 -251.503 366.14 -226.945 282.58C-214.665 240.799 -198.397 206.334 -178.885 181.636C-159.374 156.939 -136.647 142.04 -111.438 139.304C-86.2297 136.567 -60.835 146.243 -36.4798 166.178C-12.1227 186.114 11.1618 216.286 32.1202 254.459C74.0358 330.802 106.598 439.056 119.848 561.121C133.098 683.187 124.522 795.906 99.9642 879.465C87.6848 921.246 71.4167 955.712 51.9046 980.41C32.394 1005.11 9.66699 1020.01 -15.5418 1022.74C-40.7506 1025.48 -66.1453 1015.8 -90.5005 995.868C-114.858 975.932 -138.142 945.759 -159.1 907.586C-201.016 831.243 -233.578 722.989 -246.829 600.924Z" stroke="url(#paint67_linear_252_4776)" stroke-opacity="0.15"/>
<path d="M-247.148 597.722C-258.265 475.444 -247.723 362.892 -221.711 279.774C-208.704 238.214 -191.837 204.037 -171.897 179.683C-151.958 155.331 -128.974 140.831 -103.722 138.535C-78.4689 136.239 -53.247 146.356 -29.2434 166.713C-5.2379 187.071 17.5164 217.645 37.8054 256.178C78.3823 333.241 109.05 442.047 120.168 564.325C131.286 686.603 120.744 799.155 94.7313 882.273C81.7245 923.833 64.8574 958.01 44.9173 982.363C24.9786 1006.72 1.99504 1021.22 -23.2577 1023.51C-48.5104 1025.81 -73.7323 1015.69 -97.736 995.334C-121.741 974.976 -144.496 944.401 -164.785 905.869C-205.362 828.805 -236.03 720 -247.148 597.722Z" stroke="url(#paint68_linear_252_4776)" stroke-opacity="0.15"/>
<path d="M-247.412 594.51C-256.394 472.056 -243.89 359.705 -216.43 277.054C-202.7 235.727 -185.239 201.85 -164.877 177.848C-144.517 153.848 -121.283 139.751 -95.9945 137.896C-70.7055 136.041 -45.6641 146.597 -22.0194 167.369C1.62717 188.143 23.8444 219.11 43.4578 257.991C82.6836 335.751 111.448 445.075 120.43 567.528C129.412 689.982 116.908 802.333 89.4482 884.984C75.7181 926.311 58.2571 960.188 37.8949 984.19C17.5343 1008.19 -5.69882 1022.29 -30.9878 1024.14C-56.2767 1026 -81.3182 1015.44 -104.963 994.669C-128.609 973.895 -150.827 942.928 -170.44 904.047C-209.666 826.287 -238.43 716.963 -247.412 594.51Z" stroke="url(#paint69_linear_252_4776)" stroke-opacity="0.15"/>
<path d="M-247.62 591.303C-254.463 468.712 -240 356.596 -211.102 274.436C-196.653 233.356 -178.603 199.789 -157.825 176.145C-137.049 152.504 -113.573 138.815 -88.2558 137.401C-62.9383 135.988 -38.0849 146.98 -14.8063 168.162C8.47405 189.345 30.1475 220.695 49.0793 259.912C86.942 338.345 113.794 448.154 120.638 570.746C127.481 693.337 113.018 805.453 84.1201 887.613C69.6708 928.693 51.6213 962.26 30.8434 985.904C10.067 1009.54 -13.4087 1023.23 -38.7261 1024.65C-64.0436 1026.06 -88.8971 1015.07 -112.176 993.887C-135.456 972.704 -157.129 941.354 -176.061 902.137C-213.924 823.704 -240.776 713.895 -247.62 591.303Z" stroke="url(#paint70_linear_252_4776)" stroke-opacity="0.15"/>
<path d="M-247.77 588.087C-252.473 465.395 -236.055 353.549 -205.727 271.906C-190.563 231.084 -171.931 197.837 -150.743 174.56C-129.558 151.285 -105.847 138.007 -80.5083 137.036C-55.17 136.065 -30.5122 147.488 -7.60683 169.073C15.3003 190.66 36.4233 222.383 54.6678 261.925C91.1559 341.006 116.088 451.268 120.791 573.96C125.494 696.652 109.076 808.499 78.7484 890.141C63.5844 930.964 44.9518 964.21 23.7643 987.487C2.57856 1010.76 -21.1324 1024.04 -46.4707 1025.01C-71.809 1025.98 -96.4668 1014.56 -119.372 992.974C-142.279 971.387 -163.402 939.664 -181.647 900.123C-218.135 821.041 -243.067 710.78 -247.77 588.087Z" stroke="url(#paint71_linear_252_4776)" stroke-opacity="0.15"/>
<path d="M-247.866 584.87C-250.427 462.114 -232.06 350.571 -200.312 269.47C-184.438 228.919 -165.228 196.002 -143.638 173.099C-122.049 150.197 -98.1099 137.335 -72.7585 136.806C-47.4072 136.277 -22.9525 148.129 -0.427311 170.111C22.0996 192.094 42.6657 224.181 60.2174 264.035C95.3197 343.741 118.323 454.421 120.884 577.177C123.445 699.932 105.078 811.475 73.3304 892.576C57.4562 933.127 38.2462 966.044 16.6558 988.948C-4.933 1011.85 -28.8721 1024.71 -54.2235 1025.24C-79.5749 1025.77 -104.03 1013.92 -126.555 991.935C-149.082 969.952 -169.648 937.865 -187.199 898.011C-222.302 818.305 -245.305 707.626 -247.866 584.87Z" stroke="url(#paint72_linear_252_4776)" stroke-opacity="0.15"/>
<path d="M-247.904 581.65C-248.323 458.869 -228.011 347.664 -194.853 267.129C-178.274 226.861 -158.492 194.284 -136.505 171.761C-114.52 149.24 -90.3602 136.798 -65.0035 136.711C-39.6468 136.625 -15.4026 148.902 6.73547 171.273C28.8753 193.646 48.8783 226.087 65.7317 266.241C99.4376 346.548 120.506 457.612 120.924 580.394C121.343 703.176 101.031 814.381 67.8732 894.915C51.2937 935.184 31.5121 967.76 9.52528 990.283C-12.4599 1012.8 -36.6198 1025.25 -61.9766 1025.33C-87.3333 1025.42 -111.577 1013.14 -133.716 990.771C-155.855 968.398 -175.858 935.957 -192.712 895.803C-226.418 815.496 -247.486 704.432 -247.904 581.65Z" stroke="url(#paint73_linear_252_4776)" stroke-opacity="0.15"/>
<path d="M-247.888 578.427C-246.163 455.657 -223.914 344.823 -189.356 264.88C-172.076 224.907 -151.729 192.681 -129.352 170.544C-106.978 148.41 -82.6042 136.392 -57.2498 136.748C-31.8954 137.104 -7.86925 149.802 13.875 172.557C35.621 195.312 55.0548 228.098 71.2049 268.54C103.504 349.423 122.631 460.838 120.906 583.608C119.182 706.379 96.9327 817.212 62.3741 897.156C45.0944 937.129 24.7473 969.355 2.37072 991.491C-20.0042 1013.63 -44.3776 1025.64 -69.732 1025.29C-95.0863 1024.93 -119.113 1012.23 -140.857 989.479C-162.603 966.723 -182.037 933.938 -198.187 893.495C-230.486 812.613 -249.613 701.198 -247.888 578.427Z" stroke="url(#paint74_linear_252_4776)" stroke-opacity="0.15"/>
<path d="M-247.814 575.211C-243.947 452.489 -219.767 342.061 -183.819 262.732C-165.844 223.067 -144.937 191.201 -122.178 169.459C-99.4201 147.718 -74.8406 136.127 -49.4963 136.926C-24.152 137.724 -0.351129 150.84 20.9927 173.97C42.3382 197.102 61.1969 230.221 76.6387 270.94C107.521 352.374 124.701 464.105 120.834 586.827C116.967 709.549 92.7869 819.977 56.8385 899.305C38.8637 938.971 17.9573 970.837 -4.80219 992.579C-27.56 1014.32 -52.1394 1025.91 -77.4837 1025.11C-102.828 1024.31 -126.629 1011.2 -147.973 988.068C-169.318 964.936 -188.177 931.816 -203.619 891.098C-234.501 809.664 -251.681 697.932 -247.814 575.211Z" stroke="url(#paint75_linear_252_4776)" stroke-opacity="0.15"/>
<path d="M-247.686 571.998C-241.678 449.363 -215.575 339.373 -178.247 260.684C-159.583 221.339 -138.123 189.842 -114.988 168.501C-91.8543 147.161 -67.0763 136 -41.7498 137.241C-16.4232 138.482 7.14513 152.011 28.0821 175.51C49.0206 199.011 67.2984 232.454 82.0272 273.436C111.484 355.396 126.711 467.411 120.703 590.046C114.694 712.682 88.5909 822.672 51.2635 901.36C32.5992 940.706 11.1399 972.202 -11.9956 993.544C-35.1294 1014.88 -59.9074 1026.04 -85.2339 1024.8C-110.56 1023.56 -134.129 1010.03 -155.066 986.535C-176.004 963.034 -194.282 929.59 -209.011 888.609C-238.468 806.648 -253.695 694.634 -247.686 571.998Z" stroke="url(#paint76_linear_252_4776)" stroke-opacity="0.15"/>
<path d="M-247.5 568.786C-239.352 446.274 -211.333 336.757 -172.638 258.731C-153.29 219.718 -131.284 188.6 -107.78 167.666C-84.2771 146.733 -59.3081 136.006 -34.0071 137.689C-8.70605 139.372 14.6226 153.31 35.1462 177.171C55.6714 201.034 73.3628 234.791 87.3741 276.023C115.396 358.486 128.666 470.749 120.518 593.261C112.37 715.773 84.3514 825.29 45.6563 903.315C26.3082 942.329 4.30242 973.446 -19.202 994.381C-42.7047 1015.31 -67.6737 1026.04 -92.9747 1024.36C-118.276 1022.68 -141.604 1008.74 -162.128 984.876C-182.653 961.013 -200.345 927.256 -214.356 886.023C-242.378 803.561 -255.647 691.298 -247.5 568.786Z" stroke="url(#paint77_linear_252_4776)" stroke-opacity="0.15"/>
<path d="M-247.259 565.576C-236.974 443.224 -207.048 334.213 -166.997 256.875C-146.971 218.205 -124.426 187.476 -100.56 166.955C-76.6952 146.435 -51.5428 136.146 -26.275 138.27C-1.00719 140.394 22.0747 154.738 42.1787 178.953C62.2843 203.171 79.3839 237.231 92.6735 278.702C119.252 361.641 130.56 474.118 120.276 596.47C109.991 718.821 80.0651 827.832 40.0142 905.17C19.9882 943.84 -2.55729 974.569 -26.4235 995.09C-50.2879 1015.61 -75.4403 1025.9 -100.708 1023.77C-125.976 1021.65 -149.058 1007.31 -169.162 983.092C-189.267 958.874 -206.367 924.814 -219.657 883.343C-246.235 800.404 -257.543 687.927 -247.259 565.576Z" stroke="url(#paint78_linear_252_4776)" stroke-opacity="0.15"/>
<path d="M-246.96 562.373C-234.542 440.22 -202.718 331.747 -161.323 255.12C-140.625 216.805 -117.547 186.475 -93.3263 166.373C-69.1074 146.273 -43.7792 136.425 -18.5524 138.989C6.67449 141.554 29.5025 156.298 49.1809 180.861C68.8608 205.425 85.3632 239.78 97.9271 281.476C123.054 364.866 132.398 477.524 119.979 599.677C107.561 721.83 75.737 830.302 34.3425 906.93C13.6446 945.244 -9.43374 975.575 -33.6545 995.676C-57.8734 1015.78 -83.2015 1025.62 -108.428 1023.06C-133.655 1020.5 -156.483 1005.75 -176.162 981.189C-195.842 956.624 -212.344 922.27 -224.908 880.574C-250.035 797.184 -259.378 684.526 -246.96 562.373Z" stroke="url(#paint79_linear_252_4776)" stroke-opacity="0.15"/>
<path d="M-246.606 559.17C-232.058 437.253 -198.345 329.352 -155.62 253.459C-134.257 215.511 -110.652 185.588 -86.0845 165.912C-61.5185 146.238 -36.0224 136.833 -10.8441 139.838C14.3341 142.842 36.9014 157.982 56.1481 182.885C75.3962 207.789 91.2966 242.426 103.131 284.335C126.799 368.151 134.175 480.955 119.626 602.872C105.078 724.79 71.3658 832.691 28.6403 908.584C7.27689 946.531 -16.3273 976.454 -40.8951 996.13C-65.4611 1015.8 -90.9573 1025.21 -116.136 1022.2C-141.314 1019.2 -163.881 1004.06 -183.128 979.158C-202.376 954.253 -218.276 919.617 -230.11 877.708C-253.778 793.892 -261.154 681.088 -246.606 559.17Z" stroke="url(#paint80_linear_252_4776)" stroke-opacity="0.15"/>
<path d="M-246.198 555.979C-229.524 434.333 -193.933 327.037 -149.89 251.901C-127.867 214.332 -103.745 184.826 -78.8371 165.582C-53.9315 146.339 -28.2751 137.381 -3.15307 140.824C21.9689 144.268 44.2685 159.799 63.0777 185.034C81.8883 210.271 97.1817 245.18 108.283 287.289C130.484 371.505 135.89 484.42 119.217 606.065C102.543 727.711 66.9524 835.007 22.9088 910.143C0.886448 947.712 -23.2364 977.218 -48.1439 996.462C-73.0495 1015.7 -98.7059 1024.66 -123.828 1021.22C-148.95 1017.78 -171.249 1002.24 -190.059 977.01C-208.869 951.773 -224.163 916.864 -235.264 874.755C-257.465 790.539 -262.871 677.624 -246.198 555.979Z" stroke="url(#paint81_linear_252_4776)" stroke-opacity="0.15"/>
<path d="M-245.731 552.796C-226.937 431.46 -189.479 324.802 -144.131 250.446C-121.456 213.267 -96.8223 184.186 -71.5827 165.379C-46.3451 146.574 -20.5362 138.065 4.52186 141.946C29.5799 145.828 51.605 161.746 69.9709 187.305C88.3382 212.866 103.02 248.037 113.385 290.333C134.113 374.924 137.548 487.917 118.753 609.252C99.9591 730.588 62.5015 837.247 17.1534 911.602C-5.52136 948.781 -30.1554 977.862 -55.395 996.669C-80.6327 1015.47 -106.442 1023.98 -131.5 1020.1C-156.558 1016.22 -178.583 1000.3 -196.949 974.743C-215.316 949.182 -229.998 914.011 -240.362 871.715C-261.09 787.124 -264.525 674.131 -245.731 552.796Z" stroke="url(#paint82_linear_252_4776)" stroke-opacity="0.15"/>
<path d="M-245.211 549.617C-224.302 428.628 -184.989 322.64 -138.35 249.087C-115.03 212.309 -89.8919 183.663 -64.328 165.299C-38.766 146.938 -12.8126 138.88 12.1739 143.198C37.1605 147.516 58.9044 163.817 76.8214 189.692C94.7398 215.57 108.806 250.992 118.43 293.463C137.679 378.402 139.141 491.437 118.232 612.427C97.3234 733.416 58.0101 839.404 11.3711 912.958C-11.949 949.735 -37.0869 978.382 -62.6508 996.745C-88.2128 1015.11 -114.166 1023.16 -139.153 1018.85C-164.139 1014.53 -185.883 998.227 -203.8 972.352C-221.719 946.474 -235.784 911.053 -245.409 868.582C-264.658 783.642 -266.12 670.607 -245.211 549.617Z" stroke="url(#paint83_linear_252_4776)" stroke-opacity="0.15"/>
<path d="M-244.637 546.451C-221.619 425.846 -180.462 320.559 -132.547 247.831C-108.588 211.466 -82.9544 183.263 -57.0739 165.349C-31.1953 147.436 -5.10521 139.832 19.8021 144.586C44.7095 149.339 66.1656 166.017 83.6283 192.201C101.092 218.388 114.538 254.049 123.42 296.682C141.183 381.944 140.673 494.988 117.655 615.594C94.6379 736.2 53.4809 841.486 5.56533 914.214C-18.3931 950.579 -44.0271 978.782 -69.9076 996.697C-95.7862 1014.61 -121.876 1022.21 -146.784 1017.46C-171.691 1012.71 -193.147 996.028 -210.61 969.844C-228.074 943.658 -241.519 907.996 -250.401 865.363C-268.165 780.101 -267.654 667.057 -244.637 546.451Z" stroke="url(#paint84_linear_252_4776)" stroke-opacity="0.15"/>
<path d="M-244.004 543.295C-218.886 423.109 -175.897 318.557 -126.72 246.677C-102.131 210.735 -76.0082 182.984 -49.819 165.524C-23.6318 148.066 2.58705 140.919 27.4076 146.106C52.2282 151.294 73.39 168.343 90.3931 194.828C107.397 221.315 120.219 257.206 128.355 299.987C144.628 385.547 142.144 498.564 117.026 618.75C91.9069 738.936 48.9186 843.488 -0.258916 915.368C-24.8484 951.31 -50.9707 979.061 -77.1599 996.521C-103.347 1013.98 -129.566 1021.13 -154.387 1015.94C-179.207 1010.75 -200.369 993.702 -217.372 967.217C-234.376 940.73 -247.197 904.839 -255.334 862.058C-271.607 776.498 -269.123 663.481 -244.004 543.295Z" stroke="url(#paint85_linear_252_4776)" stroke-opacity="0.15"/>
<path d="M-243.319 540.15C-216.107 420.421 -171.3 316.635 -120.876 245.623C-95.663 210.117 -69.0603 182.825 -42.5704 165.825C-16.0824 148.826 10.2571 142.138 34.9834 147.758C59.7097 153.378 80.5707 170.794 97.109 197.572C113.649 224.352 125.841 260.461 133.23 303.377C148.007 389.208 143.551 502.165 116.339 621.894C89.1266 741.623 44.3202 845.409 -6.10432 916.42C-31.3173 951.927 -57.9199 979.218 -84.4099 996.218C-110.898 1013.22 -137.237 1019.91 -161.964 1014.29C-186.69 1008.67 -207.551 991.25 -224.089 964.472C-240.629 937.692 -252.822 901.583 -260.21 858.666C-274.987 772.836 -270.532 659.879 -243.319 540.15Z" stroke="url(#paint86_linear_252_4776)" stroke-opacity="0.15"/>
<path d="M-242.578 537.019C-213.28 417.783 -166.669 314.795 -115.013 244.674C-89.184 209.613 -62.1091 182.79 -35.3265 166.255C-8.54588 149.721 17.9064 143.493 42.5308 149.544C67.1553 155.594 87.7091 173.372 103.778 200.434C119.847 227.499 131.408 263.815 138.046 306.854C151.323 392.929 144.897 505.791 115.599 625.027C86.3014 744.263 39.6904 847.251 -11.9657 917.372C-37.7945 952.433 -64.8694 979.256 -91.6521 995.791C-118.433 1012.33 -144.885 1018.55 -169.509 1012.5C-194.134 1006.45 -214.688 988.674 -230.756 961.612C-246.826 934.547 -258.386 898.231 -265.025 855.192C-278.302 769.116 -271.875 656.254 -242.578 537.019Z" stroke="url(#paint87_linear_252_4776)" stroke-opacity="0.15"/>
<path d="M-241.783 533.9C-210.408 415.193 -162.007 313.034 -109.135 243.826C-82.6984 209.221 -55.1595 182.874 -28.0923 166.809C-1.02729 150.745 25.5296 144.98 50.0447 151.46C74.5598 157.939 94.8003 176.073 110.394 203.411C125.989 230.752 136.914 267.265 142.8 310.413C154.573 396.707 146.178 509.44 114.804 628.146C83.4293 746.852 35.0281 849.011 -17.8439 918.22C-44.2807 952.825 -71.8196 979.171 -98.8867 995.237C-125.952 1011.3 -152.509 1017.07 -177.024 1010.59C-201.539 1004.11 -221.779 985.973 -237.373 958.635C-252.968 931.294 -263.893 894.781 -269.779 851.633C-281.552 765.339 -273.157 652.606 -241.783 533.9Z" stroke="url(#paint88_linear_252_4776)" stroke-opacity="0.15"/>
<path d="M-240.933 530.796C-207.492 412.655 -157.315 311.357 -103.243 243.082C-76.2066 208.943 -48.212 183.081 -20.8687 167.491C6.47263 151.902 33.1261 146.601 57.5244 153.507C81.9227 160.413 101.844 178.898 116.958 206.504C132.073 234.113 142.359 270.811 147.492 314.055C157.756 400.542 147.395 513.111 113.954 631.251C80.5129 749.392 30.3362 850.691 -23.7357 918.966C-50.7724 953.104 -78.7669 978.966 -106.11 994.557C-133.452 1010.15 -160.105 1015.45 -184.503 1008.54C-208.902 1001.63 -228.823 983.15 -243.937 955.543C-259.052 927.934 -269.338 891.236 -274.471 847.992C-284.735 761.506 -274.374 648.937 -240.933 530.796Z" stroke="url(#paint89_linear_252_4776)" stroke-opacity="0.15"/>
<path d="M-240.03 527.703C-204.532 410.164 -152.595 309.756 -97.3395 242.435C-69.7111 208.774 -41.2695 183.404 -13.6582 168.294C13.951 153.184 40.693 148.349 64.967 155.68C89.241 163.011 108.836 181.84 123.466 209.707C138.098 237.575 147.742 274.447 152.119 317.774C160.872 404.426 148.548 516.797 113.05 634.336C77.5524 751.876 25.6153 852.283 -29.6399 919.604C-57.2682 953.266 -85.7099 978.635 -113.321 993.746C-140.93 1008.86 -167.672 1013.69 -191.946 1006.36C-216.22 999.028 -235.816 980.199 -250.446 952.333C-265.077 924.464 -274.721 887.593 -279.098 844.265C-287.852 757.613 -275.528 645.242 -240.03 527.703Z" stroke="url(#paint90_linear_252_4776)" stroke-opacity="0.15"/>
<path d="M-239.071 524.629C-201.527 407.728 -147.846 308.242 -91.4243 241.896C-63.2127 208.721 -34.3327 183.852 -6.46185 169.226C21.4068 154.6 48.2291 150.233 72.3715 157.987C96.5139 165.74 115.778 184.908 129.919 213.026C144.062 241.145 153.061 278.179 156.681 321.577C163.921 408.369 149.638 520.507 112.094 637.409C74.5499 754.311 20.8684 853.796 -35.5533 920.143C-63.7649 953.317 -92.645 978.186 -120.516 992.813C-148.384 1007.44 -175.207 1011.81 -199.349 1004.05C-223.491 996.298 -242.755 977.13 -256.897 949.013C-271.039 920.893 -280.039 883.859 -283.659 840.462C-290.899 753.67 -276.615 641.531 -239.071 524.629Z" stroke="url(#paint91_linear_252_4776)" stroke-opacity="0.15"/>
<path d="M-238.063 521.577C-198.485 405.348 -143.075 306.815 -85.5041 241.463C-56.7178 208.786 -27.4082 184.425 0.71367 170.287C28.8334 156.15 55.7277 152.252 79.7311 160.425C103.735 168.599 122.661 188.1 136.309 216.46C149.959 244.822 158.311 282.008 161.173 325.462C166.897 412.367 150.659 524.239 111.08 640.468C71.5019 756.697 16.0924 855.23 -41.4786 920.582C-70.2649 953.259 -99.5746 977.62 -127.696 991.758C-155.816 1005.89 -182.71 1009.79 -206.714 1001.62C-230.717 993.446 -249.644 973.944 -263.292 945.585C-276.942 917.223 -285.293 880.037 -288.156 836.583C-293.88 749.678 -277.641 637.806 -238.063 521.577Z" stroke="url(#paint92_linear_252_4776)" stroke-opacity="0.15"/>
<path d="M-236.998 518.538C-195.397 403.018 -138.276 305.466 -79.5734 241.13C-50.2212 208.96 -20.4908 185.114 7.87346 171.469C36.2356 157.825 63.1939 154.397 87.051 162.988C110.908 171.579 129.491 191.408 142.643 220.002C155.795 248.598 163.497 285.924 165.6 329.421C169.807 416.412 151.618 527.984 110.017 643.505C68.4166 759.025 11.2959 856.577 -47.4069 920.913C-76.7591 953.083 -106.489 976.929 -134.854 990.574C-163.216 1004.22 -190.174 1007.65 -214.031 999.055C-237.888 990.464 -256.471 970.635 -269.623 942.041C-282.776 913.445 -290.477 876.119 -292.58 832.622C-296.787 745.631 -278.599 634.059 -236.998 518.538Z" stroke="url(#paint93_linear_252_4776)" stroke-opacity="0.15"/>
<path d="M-235.88 515.521C-192.27 400.744 -133.455 304.204 -73.6385 240.902C-43.7294 209.249 -13.5873 185.926 15.0108 172.778C43.6067 159.631 70.6208 156.674 94.3243 165.68C118.028 174.686 136.262 194.836 148.912 223.655C161.564 252.477 168.613 289.931 169.957 333.458C172.644 420.51 152.512 531.748 108.901 646.524C65.2905 761.301 6.47588 857.841 -53.3408 921.144C-83.25 952.796 -113.392 976.119 -141.99 989.267C-170.586 1002.41 -197.6 1005.37 -221.304 996.365C-245.007 987.359 -263.241 967.209 -275.892 938.39C-288.543 909.569 -295.592 872.114 -296.936 828.587C-299.624 741.535 -279.491 630.297 -235.88 515.521Z" stroke="url(#paint94_linear_252_4776)" stroke-opacity="0.15"/>
<path d="M-234.71 512.524C-189.103 398.526 -128.612 303.027 -67.7 240.778C-37.2429 209.653 -6.69847 186.859 22.1247 174.212C50.9458 161.566 78.0073 159.08 101.55 168.499C125.093 177.918 142.972 198.383 155.118 227.418C167.265 256.456 173.659 294.028 174.243 337.572C175.411 424.657 153.34 535.527 107.733 649.525C62.1257 763.522 1.63518 859.021 -59.2772 921.27C-89.7342 952.396 -120.279 975.19 -149.102 987.836C-177.923 1000.48 -204.984 1002.97 -228.527 993.549C-252.07 984.13 -269.95 963.665 -282.095 934.63C-294.242 905.592 -300.636 868.02 -301.22 824.476C-302.388 737.391 -280.317 626.522 -234.71 512.524Z" stroke="url(#paint95_linear_252_4776)" stroke-opacity="0.15"/>
<path d="M-233.489 509.542C-185.899 396.357 -123.752 301.929 -61.7621 240.752C-30.7665 210.163 0.171151 187.906 29.2107 175.764C58.248 163.623 85.3488 161.61 108.724 171.438C132.098 181.266 149.618 202.04 161.255 231.283C172.893 260.528 178.63 298.206 178.454 341.754C178.103 428.846 154.1 539.313 106.51 652.498C58.9206 765.683 -3.2273 860.111 -65.2167 921.288C-96.2123 951.877 -127.15 974.134 -156.19 986.276C-185.227 998.417 -212.328 1000.43 -235.702 990.602C-259.077 980.774 -276.597 959.999 -288.234 930.757C-299.872 901.512 -305.609 863.834 -305.433 820.286C-305.081 733.194 -281.079 622.726 -233.489 509.542Z" stroke="url(#paint96_linear_252_4776)" stroke-opacity="0.15"/>
<path d="M-232.215 506.587C-182.657 394.251 -118.871 300.921 -55.8232 240.836C-24.2985 210.792 7.02286 189.078 36.2699 177.445C65.5147 165.813 92.6465 164.273 115.846 174.508C139.046 184.742 156.2 205.819 167.325 235.26C178.451 264.704 183.53 302.476 182.594 346.014C180.722 433.087 154.795 543.119 105.238 655.456C55.6798 767.793 -8.10673 861.122 -71.1544 921.208C-102.679 951.251 -134.001 972.965 -163.248 984.598C-192.492 996.231 -219.624 997.77 -242.824 987.536C-266.024 977.301 -283.178 956.224 -294.303 926.783C-305.429 897.339 -310.508 859.567 -309.572 816.029C-307.7 728.956 -281.773 618.924 -232.215 506.587Z" stroke="url(#paint97_linear_252_4776)" stroke-opacity="0.15"/>
<path d="M-230.893 503.656C-179.382 392.201 -113.977 299.999 -49.89 241.023C-17.8458 211.535 13.8498 190.371 43.2954 179.25C72.7387 168.129 99.8933 167.064 122.911 177.702C145.928 188.339 162.712 209.712 173.322 239.344C183.932 268.977 188.351 306.832 186.655 350.347C183.264 437.374 155.421 546.936 103.91 658.391C52.3994 769.846 -13.0062 862.048 -77.093 921.024C-109.137 950.513 -140.833 971.677 -170.278 982.798C-199.722 993.918 -226.876 994.984 -249.894 984.346C-272.911 973.708 -289.695 952.335 -300.305 922.704C-310.915 893.071 -315.334 855.215 -313.638 811.701C-310.247 724.673 -282.404 615.111 -230.893 503.656Z" stroke="url(#paint98_linear_252_4776)" stroke-opacity="0.15"/>
<path d="M-229.516 500.747C-176.068 390.208 -109.063 299.161 -43.9568 241.313C-11.4028 212.388 20.6573 191.78 50.2925 181.175C79.9255 170.57 107.094 169.978 129.923 181.016C152.751 192.054 169.16 213.717 179.25 243.529C189.342 273.343 193.099 311.269 190.645 354.748C185.735 441.703 155.984 550.763 102.536 661.301C49.0878 771.84 -17.917 862.887 -83.0233 920.735C-115.577 949.66 -147.637 970.268 -177.273 980.873C-206.906 991.478 -234.075 992.07 -256.903 981.032C-279.731 969.994 -296.14 948.331 -306.23 918.519C-316.322 888.705 -320.079 850.779 -317.625 807.3C-312.715 720.345 -282.964 611.286 -229.516 500.747Z" stroke="url(#paint99_linear_252_4776)" stroke-opacity="0.15"/>
<defs>
<linearGradient id="paint0_linear_252_4776" x1="-33.1758" y1="477.466" x2="-96.7678" y2="688.029" gradientUnits="userSpaceOnUse">
<stop stop-color="#FF7400"/>
<stop offset="1" stop-color="#2B2B2B"/>
</linearGradient>
<linearGradient id="paint1_linear_252_4776" x1="-31.3755" y1="478.012" x2="-98.6326" y2="687.433" gradientUnits="userSpaceOnUse">
<stop stop-color="#FF7400"/>
<stop offset="1" stop-color="#2B2B2B"/>
</linearGradient>
<linearGradient id="paint2_linear_252_4776" x1="-29.5814" y1="478.587" x2="-100.483" y2="686.802" gradientUnits="userSpaceOnUse">
<stop stop-color="#FF7400"/>
<stop offset="1" stop-color="#2B2B2B"/>
</linearGradient>
<linearGradient id="paint3_linear_252_4776" x1="-27.7998" y1="479.195" x2="-102.325" y2="686.141" gradientUnits="userSpaceOnUse">
<stop stop-color="#FF7400"/>
<stop offset="1" stop-color="#2B2B2B"/>
</linearGradient>
<linearGradient id="paint4_linear_252_4776" x1="-26.027" y1="479.831" x2="-104.152" y2="685.445" gradientUnits="userSpaceOnUse">
<stop stop-color="#FF7400"/>
<stop offset="1" stop-color="#2B2B2B"/>
</linearGradient>
<linearGradient id="paint5_linear_252_4776" x1="-24.2691" y1="480.503" x2="-105.971" y2="684.722" gradientUnits="userSpaceOnUse">
<stop stop-color="#FF7400"/>
<stop offset="1" stop-color="#2B2B2B"/>
</linearGradient>
<linearGradient id="paint6_linear_252_4776" x1="-22.5192" y1="481.202" x2="-107.773" y2="683.964" gradientUnits="userSpaceOnUse">
<stop stop-color="#FF7400"/>
<stop offset="1" stop-color="#2B2B2B"/>
</linearGradient>
<linearGradient id="paint7_linear_252_4776" x1="-20.7836" y1="481.934" x2="-109.563" y2="683.177" gradientUnits="userSpaceOnUse">
<stop stop-color="#FF7400"/>
<stop offset="1" stop-color="#2B2B2B"/>
</linearGradient>
<linearGradient id="paint8_linear_252_4776" x1="-19.0605" y1="482.695" x2="-111.338" y2="682.358" gradientUnits="userSpaceOnUse">
<stop stop-color="#FF7400"/>
<stop offset="1" stop-color="#2B2B2B"/>
</linearGradient>
<linearGradient id="paint9_linear_252_4776" x1="-17.351" y1="483.482" x2="-113.099" y2="681.504" gradientUnits="userSpaceOnUse">
<stop stop-color="#FF7400"/>
<stop offset="1" stop-color="#2B2B2B"/>
</linearGradient>
<linearGradient id="paint10_linear_252_4776" x1="-15.6555" y1="484.305" x2="-114.845" y2="680.626" gradientUnits="userSpaceOnUse">
<stop stop-color="#FF7400"/>
<stop offset="1" stop-color="#2B2B2B"/>
</linearGradient>
<linearGradient id="paint11_linear_252_4776" x1="-13.9747" y1="485.152" x2="-116.575" y2="679.712" gradientUnits="userSpaceOnUse">
<stop stop-color="#FF7400"/>
<stop offset="1" stop-color="#2B2B2B"/>
</linearGradient>
<linearGradient id="paint12_linear_252_4776" x1="-12.3093" y1="486.031" x2="-118.29" y2="678.77" gradientUnits="userSpaceOnUse">
<stop stop-color="#FF7400"/>
<stop offset="1" stop-color="#2B2B2B"/>
</linearGradient>
<linearGradient id="paint13_linear_252_4776" x1="-10.6581" y1="486.94" x2="-119.986" y2="677.801" gradientUnits="userSpaceOnUse">
<stop stop-color="#FF7400"/>
<stop offset="1" stop-color="#2B2B2B"/>
</linearGradient>
<linearGradient id="paint14_linear_252_4776" x1="-9.02598" y1="487.876" x2="-121.669" y2="676.8" gradientUnits="userSpaceOnUse">
<stop stop-color="#FF7400"/>
<stop offset="1" stop-color="#2B2B2B"/>
</linearGradient>
<linearGradient id="paint15_linear_252_4776" x1="-7.40783" y1="488.839" x2="-123.331" y2="675.768" gradientUnits="userSpaceOnUse">
<stop stop-color="#FF7400"/>
<stop offset="1" stop-color="#2B2B2B"/>
</linearGradient>
<linearGradient id="paint16_linear_252_4776" x1="-5.80829" y1="489.832" x2="-124.976" y2="674.71" gradientUnits="userSpaceOnUse">
<stop stop-color="#FF7400"/>
<stop offset="1" stop-color="#2B2B2B"/>
</linearGradient>
<linearGradient id="paint17_linear_252_4776" x1="-4.22461" y1="490.854" x2="-126.6" y2="673.624" gradientUnits="userSpaceOnUse">
<stop stop-color="#FF7400"/>
<stop offset="1" stop-color="#2B2B2B"/>
</linearGradient>
<linearGradient id="paint18_linear_252_4776" x1="-2.66137" y1="491.901" x2="-128.208" y2="672.507" gradientUnits="userSpaceOnUse">
<stop stop-color="#FF7400"/>
<stop offset="1" stop-color="#2B2B2B"/>
</linearGradient>
<linearGradient id="paint19_linear_252_4776" x1="-1.11405" y1="492.979" x2="-129.794" y2="671.366" gradientUnits="userSpaceOnUse">
<stop stop-color="#FF7400"/>
<stop offset="1" stop-color="#2B2B2B"/>
</linearGradient>
<linearGradient id="paint20_linear_252_4776" x1="0.412678" y1="494.077" x2="-131.361" y2="670.192" gradientUnits="userSpaceOnUse">
<stop stop-color="#FF7400"/>
<stop offset="1" stop-color="#2B2B2B"/>
</linearGradient>
<linearGradient id="paint21_linear_252_4776" x1="1.91957" y1="495.208" x2="-132.907" y2="668.996" gradientUnits="userSpaceOnUse">
<stop stop-color="#FF7400"/>
<stop offset="1" stop-color="#2B2B2B"/>
</linearGradient>
<linearGradient id="paint22_linear_252_4776" x1="3.40944" y1="496.364" x2="-134.43" y2="667.772" gradientUnits="userSpaceOnUse">
<stop stop-color="#FF7400"/>
<stop offset="1" stop-color="#2B2B2B"/>
</linearGradient>
<linearGradient id="paint23_linear_252_4776" x1="4.87526" y1="497.543" x2="-135.935" y2="666.52" gradientUnits="userSpaceOnUse">
<stop stop-color="#FF7400"/>
<stop offset="1" stop-color="#2B2B2B"/>
</linearGradient>
<linearGradient id="paint24_linear_252_4776" x1="6.32361" y1="498.751" x2="-137.414" y2="665.244" gradientUnits="userSpaceOnUse">
<stop stop-color="#FF7400"/>
<stop offset="1" stop-color="#2B2B2B"/>
</linearGradient>
<linearGradient id="paint25_linear_252_4776" x1="7.7476" y1="499.98" x2="-138.874" y2="663.94" gradientUnits="userSpaceOnUse">
<stop stop-color="#FF7400"/>
<stop offset="1" stop-color="#2B2B2B"/>
</linearGradient>
<linearGradient id="paint26_linear_252_4776" x1="9.14978" y1="501.234" x2="-140.311" y2="662.61" gradientUnits="userSpaceOnUse">
<stop stop-color="#FF7400"/>
<stop offset="1" stop-color="#2B2B2B"/>
</linearGradient>
<linearGradient id="paint27_linear_252_4776" x1="10.5328" y1="502.515" x2="-141.721" y2="661.257" gradientUnits="userSpaceOnUse">
<stop stop-color="#FF7400"/>
<stop offset="1" stop-color="#2B2B2B"/>
</linearGradient>
<linearGradient id="paint28_linear_252_4776" x1="11.8912" y1="503.817" x2="-143.11" y2="659.878" gradientUnits="userSpaceOnUse">
<stop stop-color="#FF7400"/>
<stop offset="1" stop-color="#2B2B2B"/>
</linearGradient>
<linearGradient id="paint29_linear_252_4776" x1="13.2258" y1="505.15" x2="-144.476" y2="658.482" gradientUnits="userSpaceOnUse">
<stop stop-color="#FF7400"/>
<stop offset="1" stop-color="#2B2B2B"/>
</linearGradient>
<linearGradient id="paint30_linear_252_4776" x1="14.5392" y1="506.495" x2="-145.814" y2="657.051" gradientUnits="userSpaceOnUse">
<stop stop-color="#FF7400"/>
<stop offset="1" stop-color="#2B2B2B"/>
</linearGradient>
<linearGradient id="paint31_linear_252_4776" x1="15.8258" y1="507.871" x2="-147.131" y2="655.606" gradientUnits="userSpaceOnUse">
<stop stop-color="#FF7400"/>
<stop offset="1" stop-color="#2B2B2B"/>
</linearGradient>
<linearGradient id="paint32_linear_252_4776" x1="17.0921" y1="509.266" x2="-148.418" y2="654.135" gradientUnits="userSpaceOnUse">
<stop stop-color="#FF7400"/>
<stop offset="1" stop-color="#2B2B2B"/>
</linearGradient>
<linearGradient id="paint33_linear_252_4776" x1="18.3346" y1="510.684" x2="-149.679" y2="652.642" gradientUnits="userSpaceOnUse">
<stop stop-color="#FF7400"/>
<stop offset="1" stop-color="#2B2B2B"/>
</linearGradient>
<linearGradient id="paint34_linear_252_4776" x1="19.5478" y1="512.121" x2="-150.917" y2="651.125" gradientUnits="userSpaceOnUse">
<stop stop-color="#FF7400"/>
<stop offset="1" stop-color="#2B2B2B"/>
</linearGradient>
<linearGradient id="paint35_linear_252_4776" x1="20.7362" y1="513.585" x2="-152.129" y2="649.593" gradientUnits="userSpaceOnUse">
<stop stop-color="#FF7400"/>
<stop offset="1" stop-color="#2B2B2B"/>
</linearGradient>
<linearGradient id="paint36_linear_252_4776" x1="21.9021" y1="515.058" x2="-153.31" y2="648.028" gradientUnits="userSpaceOnUse">
<stop stop-color="#FF7400"/>
<stop offset="1" stop-color="#2B2B2B"/>
</linearGradient>
<linearGradient id="paint37_linear_252_4776" x1="23.0397" y1="516.56" x2="-154.467" y2="646.452" gradientUnits="userSpaceOnUse">
<stop stop-color="#FF7400"/>
<stop offset="1" stop-color="#2B2B2B"/>
</linearGradient>
<linearGradient id="paint38_linear_252_4776" x1="24.1514" y1="518.083" x2="-155.595" y2="644.858" gradientUnits="userSpaceOnUse">
<stop stop-color="#FF7400"/>
<stop offset="1" stop-color="#2B2B2B"/>
</linearGradient>
<linearGradient id="paint39_linear_252_4776" x1="25.2356" y1="519.62" x2="-156.696" y2="643.238" gradientUnits="userSpaceOnUse">
<stop stop-color="#FF7400"/>
<stop offset="1" stop-color="#2B2B2B"/>
</linearGradient>
<linearGradient id="paint40_linear_252_4776" x1="26.2944" y1="521.178" x2="-157.767" y2="641.602" gradientUnits="userSpaceOnUse">
<stop stop-color="#FF7400"/>
<stop offset="1" stop-color="#2B2B2B"/>
</linearGradient>
<linearGradient id="paint41_linear_252_4776" x1="27.3261" y1="522.757" x2="-158.809" y2="639.95" gradientUnits="userSpaceOnUse">
<stop stop-color="#FF7400"/>
<stop offset="1" stop-color="#2B2B2B"/>
</linearGradient>
<linearGradient id="paint42_linear_252_4776" x1="28.3288" y1="524.352" x2="-159.823" y2="638.279" gradientUnits="userSpaceOnUse">
<stop stop-color="#FF7400"/>
<stop offset="1" stop-color="#2B2B2B"/>
</linearGradient>
<linearGradient id="paint43_linear_252_4776" x1="29.3028" y1="525.961" x2="-160.809" y2="636.587" gradientUnits="userSpaceOnUse">
<stop stop-color="#FF7400"/>
<stop offset="1" stop-color="#2B2B2B"/>
</linearGradient>
<linearGradient id="paint44_linear_252_4776" x1="30.2502" y1="527.586" x2="-161.763" y2="634.877" gradientUnits="userSpaceOnUse">
<stop stop-color="#FF7400"/>
<stop offset="1" stop-color="#2B2B2B"/>
</linearGradient>
<linearGradient id="paint45_linear_252_4776" x1="31.169" y1="529.232" x2="-162.687" y2="633.156" gradientUnits="userSpaceOnUse">
<stop stop-color="#FF7400"/>
<stop offset="1" stop-color="#2B2B2B"/>
</linearGradient>
<linearGradient id="paint46_linear_252_4776" x1="32.0574" y1="530.891" x2="-163.583" y2="631.416" gradientUnits="userSpaceOnUse">
<stop stop-color="#FF7400"/>
<stop offset="1" stop-color="#2B2B2B"/>
</linearGradient>
<linearGradient id="paint47_linear_252_4776" x1="32.9174" y1="532.567" x2="-164.448" y2="629.662" gradientUnits="userSpaceOnUse">
<stop stop-color="#FF7400"/>
<stop offset="1" stop-color="#2B2B2B"/>
</linearGradient>
<linearGradient id="paint48_linear_252_4776" x1="33.7491" y1="534.256" x2="-165.281" y2="627.891" gradientUnits="userSpaceOnUse">
<stop stop-color="#FF7400"/>
<stop offset="1" stop-color="#2B2B2B"/>
</linearGradient>
<linearGradient id="paint49_linear_252_4776" x1="34.5503" y1="535.962" x2="-166.083" y2="626.11" gradientUnits="userSpaceOnUse">
<stop stop-color="#FF7400"/>
<stop offset="1" stop-color="#2B2B2B"/>
</linearGradient>
<linearGradient id="paint50_linear_252_4776" x1="35.3212" y1="537.677" x2="-166.855" y2="624.31" gradientUnits="userSpaceOnUse">
<stop stop-color="#FF7400"/>
<stop offset="1" stop-color="#2B2B2B"/>
</linearGradient>
<linearGradient id="paint51_linear_252_4776" x1="36.0637" y1="539.412" x2="-167.594" y2="622.503" gradientUnits="userSpaceOnUse">
<stop stop-color="#FF7400"/>
<stop offset="1" stop-color="#2B2B2B"/>
</linearGradient>
<linearGradient id="paint52_linear_252_4776" x1="36.7737" y1="541.154" x2="-168.303" y2="620.678" gradientUnits="userSpaceOnUse">
<stop stop-color="#FF7400"/>
<stop offset="1" stop-color="#2B2B2B"/>
</linearGradient>
<linearGradient id="paint53_linear_252_4776" x1="37.4549" y1="542.909" x2="-168.978" y2="618.842" gradientUnits="userSpaceOnUse">
<stop stop-color="#FF7400"/>
<stop offset="1" stop-color="#2B2B2B"/>
</linearGradient>
<linearGradient id="paint54_linear_252_4776" x1="38.1056" y1="544.68" x2="-169.621" y2="616.999" gradientUnits="userSpaceOnUse">
<stop stop-color="#FF7400"/>
<stop offset="1" stop-color="#2B2B2B"/>
</linearGradient>
<linearGradient id="paint55_linear_252_4776" x1="38.7233" y1="546.458" x2="-170.234" y2="615.14" gradientUnits="userSpaceOnUse">
<stop stop-color="#FF7400"/>
<stop offset="1" stop-color="#2B2B2B"/>
</linearGradient>
<linearGradient id="paint56_linear_252_4776" x1="39.3121" y1="548.245" x2="-170.812" y2="613.27" gradientUnits="userSpaceOnUse">
<stop stop-color="#FF7400"/>
<stop offset="1" stop-color="#2B2B2B"/>
</linearGradient>
<linearGradient id="paint57_linear_252_4776" x1="39.8676" y1="550.044" x2="-171.36" y2="611.392" gradientUnits="userSpaceOnUse">
<stop stop-color="#FF7400"/>
<stop offset="1" stop-color="#2B2B2B"/>
</linearGradient>
<linearGradient id="paint58_linear_252_4776" x1="40.3938" y1="551.849" x2="-171.872" y2="609.501" gradientUnits="userSpaceOnUse">
<stop stop-color="#FF7400"/>
<stop offset="1" stop-color="#2B2B2B"/>
</linearGradient>
<linearGradient id="paint59_linear_252_4776" x1="40.8863" y1="553.671" x2="-172.353" y2="607.61" gradientUnits="userSpaceOnUse">
<stop stop-color="#FF7400"/>
<stop offset="1" stop-color="#2B2B2B"/>
</linearGradient>
<linearGradient id="paint60_linear_252_4776" x1="41.3471" y1="555.494" x2="-172.801" y2="605.703" gradientUnits="userSpaceOnUse">
<stop stop-color="#FF7400"/>
<stop offset="1" stop-color="#2B2B2B"/>
</linearGradient>
<linearGradient id="paint61_linear_252_4776" x1="41.7776" y1="557.328" x2="-173.214" y2="603.792" gradientUnits="userSpaceOnUse">
<stop stop-color="#FF7400"/>
<stop offset="1" stop-color="#2B2B2B"/>
</linearGradient>
<linearGradient id="paint62_linear_252_4776" x1="42.1738" y1="559.167" x2="-173.596" y2="601.872" gradientUnits="userSpaceOnUse">
<stop stop-color="#FF7400"/>
<stop offset="1" stop-color="#2B2B2B"/>
</linearGradient>
<linearGradient id="paint63_linear_252_4776" x1="42.5394" y1="561.02" x2="-173.943" y2="599.953" gradientUnits="userSpaceOnUse">
<stop stop-color="#FF7400"/>
<stop offset="1" stop-color="#2B2B2B"/>
</linearGradient>
<linearGradient id="paint64_linear_252_4776" x1="42.8739" y1="562.873" x2="-174.255" y2="598.022" gradientUnits="userSpaceOnUse">
<stop stop-color="#FF7400"/>
<stop offset="1" stop-color="#2B2B2B"/>
</linearGradient>
<linearGradient id="paint65_linear_252_4776" x1="43.1732" y1="564.732" x2="-174.536" y2="596.085" gradientUnits="userSpaceOnUse">
<stop stop-color="#FF7400"/>
<stop offset="1" stop-color="#2B2B2B"/>
</linearGradient>
<linearGradient id="paint66_linear_252_4776" x1="43.4409" y1="566.596" x2="-174.783" y2="594.146" gradientUnits="userSpaceOnUse">
<stop stop-color="#FF7400"/>
<stop offset="1" stop-color="#2B2B2B"/>
</linearGradient>
<linearGradient id="paint67_linear_252_4776" x1="43.6766" y1="568.463" x2="-174.995" y2="592.2" gradientUnits="userSpaceOnUse">
<stop stop-color="#FF7400"/>
<stop offset="1" stop-color="#2B2B2B"/>
</linearGradient>
<linearGradient id="paint68_linear_252_4776" x1="43.8799" y1="570.336" x2="-175.172" y2="590.253" gradientUnits="userSpaceOnUse">
<stop stop-color="#FF7400"/>
<stop offset="1" stop-color="#2B2B2B"/>
</linearGradient>
<linearGradient id="paint69_linear_252_4776" x1="44.0486" y1="572.208" x2="-175.318" y2="588.298" gradientUnits="userSpaceOnUse">
<stop stop-color="#FF7400"/>
<stop offset="1" stop-color="#2B2B2B"/>
</linearGradient>
<linearGradient id="paint70_linear_252_4776" x1="44.1862" y1="574.091" x2="-175.428" y2="586.351" gradientUnits="userSpaceOnUse">
<stop stop-color="#FF7400"/>
<stop offset="1" stop-color="#2B2B2B"/>
</linearGradient>
<linearGradient id="paint71_linear_252_4776" x1="44.2923" y1="575.971" x2="-175.502" y2="584.396" gradientUnits="userSpaceOnUse">
<stop stop-color="#FF7400"/>
<stop offset="1" stop-color="#2B2B2B"/>
</linearGradient>
<linearGradient id="paint72_linear_252_4776" x1="44.3625" y1="577.852" x2="-175.545" y2="582.44" gradientUnits="userSpaceOnUse">
<stop stop-color="#FF7400"/>
<stop offset="1" stop-color="#2B2B2B"/>
</linearGradient>
<linearGradient id="paint73_linear_252_4776" x1="44.4024" y1="579.734" x2="-175.552" y2="580.483" gradientUnits="userSpaceOnUse">
<stop stop-color="#FF7400"/>
<stop offset="1" stop-color="#2B2B2B"/>
</linearGradient>
<linearGradient id="paint74_linear_252_4776" x1="44.4076" y1="581.612" x2="-175.526" y2="578.523" gradientUnits="userSpaceOnUse">
<stop stop-color="#FF7400"/>
<stop offset="1" stop-color="#2B2B2B"/>
</linearGradient>
<linearGradient id="paint75_linear_252_4776" x1="44.3817" y1="583.497" x2="-175.465" y2="576.569" gradientUnits="userSpaceOnUse">
<stop stop-color="#FF7400"/>
<stop offset="1" stop-color="#2B2B2B"/>
</linearGradient>
<linearGradient id="paint76_linear_252_4776" x1="44.3202" y1="585.382" x2="-175.372" y2="574.619" gradientUnits="userSpaceOnUse">
<stop stop-color="#FF7400"/>
<stop offset="1" stop-color="#2B2B2B"/>
</linearGradient>
<linearGradient id="paint77_linear_252_4776" x1="44.2287" y1="587.264" x2="-175.242" y2="572.668" gradientUnits="userSpaceOnUse">
<stop stop-color="#FF7400"/>
<stop offset="1" stop-color="#2B2B2B"/>
</linearGradient>
<linearGradient id="paint78_linear_252_4776" x1="44.1027" y1="589.142" x2="-175.08" y2="570.719" gradientUnits="userSpaceOnUse">
<stop stop-color="#FF7400"/>
<stop offset="1" stop-color="#2B2B2B"/>
</linearGradient>
<linearGradient id="paint79_linear_252_4776" x1="43.9457" y1="591.021" x2="-174.882" y2="568.775" gradientUnits="userSpaceOnUse">
<stop stop-color="#FF7400"/>
<stop offset="1" stop-color="#2B2B2B"/>
</linearGradient>
<linearGradient id="paint80_linear_252_4776" x1="43.7554" y1="592.891" x2="-174.651" y2="566.829" gradientUnits="userSpaceOnUse">
<stop stop-color="#FF7400"/>
<stop offset="1" stop-color="#2B2B2B"/>
</linearGradient>
<linearGradient id="paint81_linear_252_4776" x1="43.5313" y1="594.762" x2="-174.387" y2="564.892" gradientUnits="userSpaceOnUse">
<stop stop-color="#FF7400"/>
<stop offset="1" stop-color="#2B2B2B"/>
</linearGradient>
<linearGradient id="paint82_linear_252_4776" x1="43.2768" y1="596.63" x2="-174.087" y2="562.961" gradientUnits="userSpaceOnUse">
<stop stop-color="#FF7400"/>
<stop offset="1" stop-color="#2B2B2B"/>
</linearGradient>
<linearGradient id="paint83_linear_252_4776" x1="42.9877" y1="598.489" x2="-173.755" y2="561.032" gradientUnits="userSpaceOnUse">
<stop stop-color="#FF7400"/>
<stop offset="1" stop-color="#2B2B2B"/>
</linearGradient>
<linearGradient id="paint84_linear_252_4776" x1="42.6653" y1="600.345" x2="-173.391" y2="559.111" gradientUnits="userSpaceOnUse">
<stop stop-color="#FF7400"/>
<stop offset="1" stop-color="#2B2B2B"/>
</linearGradient>
<linearGradient id="paint85_linear_252_4776" x1="42.3132" y1="602.194" x2="-172.99" y2="557.196" gradientUnits="userSpaceOnUse">
<stop stop-color="#FF7400"/>
<stop offset="1" stop-color="#2B2B2B"/>
</linearGradient>
<linearGradient id="paint86_linear_252_4776" x1="41.9269" y1="604.037" x2="-172.559" y2="555.288" gradientUnits="userSpaceOnUse">
<stop stop-color="#FF7400"/>
<stop offset="1" stop-color="#2B2B2B"/>
</linearGradient>
<linearGradient id="paint87_linear_252_4776" x1="41.51" y1="605.874" x2="-172.092" y2="553.39" gradientUnits="userSpaceOnUse">
<stop stop-color="#FF7400"/>
<stop offset="1" stop-color="#2B2B2B"/>
</linearGradient>
<linearGradient id="paint88_linear_252_4776" x1="41.0601" y1="607.703" x2="-171.593" y2="551.498" gradientUnits="userSpaceOnUse">
<stop stop-color="#FF7400"/>
<stop offset="1" stop-color="#2B2B2B"/>
</linearGradient>
<linearGradient id="paint89_linear_252_4776" x1="40.5786" y1="609.524" x2="-171.062" y2="549.617" gradientUnits="userSpaceOnUse">
<stop stop-color="#FF7400"/>
<stop offset="1" stop-color="#2B2B2B"/>
</linearGradient>
<linearGradient id="paint90_linear_252_4776" x1="40.0651" y1="611.332" x2="-170.497" y2="547.74" gradientUnits="userSpaceOnUse">
<stop stop-color="#FF7400"/>
<stop offset="1" stop-color="#2B2B2B"/>
</linearGradient>
<linearGradient id="paint91_linear_252_4776" x1="39.5212" y1="613.134" x2="-169.899" y2="545.877" gradientUnits="userSpaceOnUse">
<stop stop-color="#FF7400"/>
<stop offset="1" stop-color="#2B2B2B"/>
</linearGradient>
<linearGradient id="paint92_linear_252_4776" x1="38.9424" y1="614.931" x2="-169.272" y2="544.029" gradientUnits="userSpaceOnUse">
<stop stop-color="#FF7400"/>
<stop offset="1" stop-color="#2B2B2B"/>
</linearGradient>
<linearGradient id="paint93_linear_252_4776" x1="38.3363" y1="616.712" x2="-168.609" y2="542.187" gradientUnits="userSpaceOnUse">
<stop stop-color="#FF7400"/>
<stop offset="1" stop-color="#2B2B2B"/>
</linearGradient>
<linearGradient id="paint94_linear_252_4776" x1="37.6984" y1="618.485" x2="-167.915" y2="540.36" gradientUnits="userSpaceOnUse">
<stop stop-color="#FF7400"/>
<stop offset="1" stop-color="#2B2B2B"/>
</linearGradient>
<linearGradient id="paint95_linear_252_4776" x1="37.0303" y1="620.247" x2="-167.189" y2="538.545" gradientUnits="userSpaceOnUse">
<stop stop-color="#FF7400"/>
<stop offset="1" stop-color="#2B2B2B"/>
</linearGradient>
<linearGradient id="paint96_linear_252_4776" x1="36.3296" y1="621.991" x2="-166.432" y2="536.737" gradientUnits="userSpaceOnUse">
<stop stop-color="#FF7400"/>
<stop offset="1" stop-color="#2B2B2B"/>
</linearGradient>
<linearGradient id="paint97_linear_252_4776" x1="35.5999" y1="623.728" x2="-165.643" y2="534.949" gradientUnits="userSpaceOnUse">
<stop stop-color="#FF7400"/>
<stop offset="1" stop-color="#2B2B2B"/>
</linearGradient>
<linearGradient id="paint98_linear_252_4776" x1="34.8368" y1="625.453" x2="-164.826" y2="533.176" gradientUnits="userSpaceOnUse">
<stop stop-color="#FF7400"/>
<stop offset="1" stop-color="#2B2B2B"/>
</linearGradient>
<linearGradient id="paint99_linear_252_4776" x1="34.0479" y1="627.163" x2="-163.974" y2="531.415" gradientUnits="userSpaceOnUse">
<stop stop-color="#FF7400"/>
<stop offset="1" stop-color="#2B2B2B"/>
</linearGradient>
</defs>
</svg>
