<svg width="162" height="25" viewBox="0 0 162 25" fill="none" xmlns="http://www.w3.org/2000/svg">
<path d="M1.51781 19V6.04H3.98381V11.368H9.76181V6.04H12.2278V19H9.76181V13.654H3.98381V19H1.51781ZM20.3161 19.27C19.3441 19.27 18.4681 19.108 17.6881 18.784C16.9141 18.46 16.2571 18.001 15.7171 17.407C15.1771 16.813 14.7601 16.102 14.4661 15.274C14.1781 14.446 14.0341 13.528 14.0341 12.52C14.0341 11.512 14.1781 10.594 14.4661 9.766C14.7601 8.938 15.1771 8.227 15.7171 7.633C16.2571 7.039 16.9141 6.58 17.6881 6.256C18.4681 5.932 19.3441 5.77 20.3161 5.77C21.2881 5.77 22.1611 5.932 22.9351 6.256C23.7151 6.58 24.3751 7.039 24.9151 7.633C25.4551 8.227 25.8691 8.938 26.1571 9.766C26.4511 10.594 26.5981 11.512 26.5981 12.52C26.5981 13.528 26.4511 14.446 26.1571 15.274C25.8691 16.102 25.4551 16.813 24.9151 17.407C24.3751 18.001 23.7151 18.46 22.9351 18.784C22.1611 19.108 21.2881 19.27 20.3161 19.27ZM20.3161 16.966C20.9341 16.966 21.4741 16.861 21.9361 16.651C22.3981 16.441 22.7821 16.144 23.0881 15.76C23.3941 15.37 23.6221 14.902 23.7721 14.356C23.9281 13.804 24.0061 13.192 24.0061 12.52C24.0061 11.842 23.9281 11.23 23.7721 10.684C23.6221 10.138 23.3941 9.673 23.0881 9.289C22.7821 8.899 22.3981 8.599 21.9361 8.389C21.4741 8.179 20.9341 8.074 20.3161 8.074C19.6981 8.074 19.1581 8.179 18.6961 8.389C18.2341 8.599 17.8501 8.899 17.5441 9.289C17.2381 9.673 17.0071 10.138 16.8511 10.684C16.7011 11.23 16.6261 11.842 16.6261 12.52C16.6261 13.192 16.7011 13.804 16.8511 14.356C17.0071 14.902 17.2381 15.37 17.5441 15.76C17.8501 16.144 18.2341 16.441 18.6961 16.651C19.1581 16.861 19.6981 16.966 20.3161 16.966ZM33.5428 19H28.3948V6.04H33.4078C34.0018 6.04 34.5598 6.112 35.0818 6.256C35.6098 6.4 36.0688 6.616 36.4588 6.904C36.8488 7.186 37.1578 7.543 37.3858 7.975C37.6138 8.401 37.7278 8.899 37.7278 9.469C37.7278 9.889 37.6678 10.261 37.5478 10.585C37.4338 10.903 37.2868 11.179 37.1068 11.413C36.9328 11.641 36.7408 11.824 36.5308 11.962C36.3208 12.1 36.1198 12.199 35.9278 12.259C36.1738 12.301 36.4258 12.397 36.6838 12.547C36.9478 12.697 37.1878 12.901 37.4038 13.159C37.6198 13.411 37.7968 13.723 37.9348 14.095C38.0788 14.461 38.1508 14.887 38.1508 15.373C38.1508 16.003 38.0278 16.549 37.7818 17.011C37.5358 17.467 37.2028 17.842 36.7828 18.136C36.3628 18.43 35.8738 18.649 35.3158 18.793C34.7578 18.931 34.1668 19 33.5428 19ZM33.4618 8.326H30.8608V11.197H33.4618C33.7078 11.197 33.9388 11.176 34.1548 11.134C34.3768 11.086 34.5688 11.008 34.7308 10.9C34.8928 10.792 35.0188 10.648 35.1088 10.468C35.2048 10.282 35.2528 10.048 35.2528 9.766C35.2528 9.484 35.2048 9.25 35.1088 9.064C35.0188 8.878 34.8928 8.731 34.7308 8.623C34.5688 8.515 34.3768 8.44 34.1548 8.398C33.9388 8.35 33.7078 8.326 33.4618 8.326ZM33.5428 16.714C33.8068 16.714 34.0678 16.696 34.3258 16.66C34.5838 16.618 34.8148 16.54 35.0188 16.426C35.2228 16.306 35.3878 16.138 35.5138 15.922C35.6398 15.706 35.7028 15.424 35.7028 15.076C35.7028 14.728 35.6398 14.449 35.5138 14.239C35.3878 14.023 35.2228 13.858 35.0188 13.744C34.8148 13.624 34.5838 13.546 34.3258 13.51C34.0678 13.468 33.8068 13.447 33.5428 13.447H30.8608V16.714H33.5428ZM42.4096 10.432H45.1636C45.9556 10.432 46.6456 10.528 47.2336 10.72C47.8276 10.912 48.3166 11.194 48.7006 11.566C49.0906 11.932 49.3816 12.379 49.5736 12.907C49.7656 13.435 49.8616 14.038 49.8616 14.716C49.8616 15.388 49.7656 15.991 49.5736 16.525C49.3816 17.053 49.0906 17.503 48.7006 17.875C48.3166 18.241 47.8276 18.52 47.2336 18.712C46.6456 18.904 45.9556 19 45.1636 19H39.9436V6.04H42.4096V10.432ZM45.1456 16.714C45.8896 16.714 46.4506 16.546 46.8286 16.21C47.2066 15.868 47.3956 15.37 47.3956 14.716C47.3956 14.062 47.2066 13.567 46.8286 13.231C46.4506 12.889 45.8896 12.718 45.1456 12.718H42.4096V16.714H45.1456ZM51.5896 19V6.04H54.0556V19H51.5896ZM61.8285 4.96C61.3065 4.96 60.8265 4.834 60.3885 4.582C59.9505 4.324 59.6025 3.976 59.3445 3.538C59.0925 3.1 58.9665 2.62 58.9665 2.098H60.8565C60.8565 2.278 60.8985 2.443 60.9825 2.593C61.0725 2.737 61.1895 2.854 61.3335 2.944C61.4835 3.028 61.6485 3.07 61.8285 3.07C62.0085 3.07 62.1705 3.028 62.3145 2.944C62.4645 2.854 62.5815 2.737 62.6655 2.593C62.7555 2.443 62.8005 2.278 62.8005 2.098H64.6905C64.6905 2.62 64.5615 3.1 64.3035 3.538C64.0515 3.976 63.7065 4.324 63.2685 4.582C62.8305 4.834 62.3505 4.96 61.8285 4.96ZM64.7085 19V10.27L59.0385 19H56.5725V6.04H59.0385V14.77L64.7085 6.04H67.1745V19H64.7085ZM78.4193 19.27C77.4413 19.27 76.5683 19.12 75.8003 18.82C75.0383 18.52 74.3933 18.067 73.8653 17.461C73.3373 16.855 72.9353 16.096 72.6593 15.184L75.0533 14.59C75.2033 15.058 75.4313 15.472 75.7373 15.832C76.0433 16.192 76.4063 16.471 76.8263 16.669C77.2523 16.867 77.7143 16.966 78.2123 16.966C78.2303 16.966 78.2453 16.966 78.2573 16.966C78.8393 16.954 79.3793 16.84 79.8773 16.624C80.3753 16.408 80.7773 16.09 81.0833 15.67C81.2993 15.394 81.4703 15.088 81.5963 14.752C81.7223 14.41 81.8153 14.044 81.8753 13.654H76.9793V11.368H81.8933C81.7853 10.702 81.5723 10.12 81.2543 9.622C80.9423 9.118 80.5373 8.734 80.0393 8.47C79.5413 8.206 78.9743 8.074 78.3383 8.074C78.3143 8.074 78.2873 8.074 78.2573 8.074C77.7233 8.08 77.2373 8.185 76.7993 8.389C76.3613 8.593 75.9893 8.881 75.6833 9.253C75.3833 9.625 75.1613 10.06 75.0173 10.558L72.5693 10.216C72.7853 9.28 73.1573 8.479 73.6853 7.813C74.2133 7.147 74.8763 6.64 75.6743 6.292C76.4783 5.944 77.3933 5.77 78.4193 5.77C79.6553 5.77 80.7353 6.052 81.6593 6.616C82.5833 7.18 83.2943 7.972 83.7923 8.992C84.2903 10.012 84.5393 11.188 84.5393 12.52C84.5393 13.786 84.2903 14.932 83.7923 15.958C83.3003 16.984 82.5923 17.794 81.6683 18.388C80.7443 18.976 79.6613 19.27 78.4193 19.27ZM85.0807 16.957C85.2727 17.005 85.4377 17.029 85.5757 17.029C85.8697 17.029 86.1127 16.948 86.3047 16.786C86.4967 16.624 86.6527 16.396 86.7727 16.102C86.8927 15.808 86.9797 15.46 87.0337 15.058C87.0937 14.65 87.1327 14.2 87.1507 13.708C87.1747 13.216 87.1867 12.691 87.1867 12.133C87.1867 11.575 87.1867 10.999 87.1867 10.405V6.04H96.5017V19H94.0357V8.326H89.4637V12.475C89.4637 13.375 89.4277 14.167 89.3557 14.851C89.2837 15.535 89.1817 16.129 89.0497 16.633C88.9177 17.137 88.7587 17.557 88.5727 17.893C88.3927 18.229 88.1917 18.499 87.9697 18.703C87.7477 18.907 87.5077 19.051 87.2497 19.135C86.9917 19.225 86.7247 19.27 86.4487 19.27C86.2267 19.27 86.0017 19.246 85.7737 19.198C85.5457 19.156 85.3147 19.099 85.0807 19.027V16.957ZM99.0237 19V6.04H107.502V8.326H101.49V11.098H106.422V13.384H101.49V16.714H107.502V19H99.0237ZM109.658 19V6.04H112.124L116.138 14.329L120.152 6.04H122.618V19H120.152V10.9L117.155 17.101H115.121L112.124 10.9V19H109.658ZM125.145 19V6.04H133.623V8.326H127.611V11.098H132.543V13.384H127.611V16.714H133.623V19H125.145ZM135.78 19V6.04H138.246V11.368H144.024V6.04H146.49V19H144.024V13.654H138.246V19H135.78ZM151.869 19V8.326H148.062V6.04H158.142V8.326H154.335V19H151.869Z" fill="white"/>
<rect x="159" y="16" width="3" height="3" rx="1.5" fill="#DE701D"/>
</svg>
