<svg width="25" height="25" viewBox="0 0 25 25" fill="none" xmlns="http://www.w3.org/2000/svg">
<path d="M20.5363 8.92829C20.5363 13.3747 12.5006 24.1069 12.5006 24.1069C12.5006 24.1069 4.46484 13.3747 4.46484 8.92829C4.46484 6.79709 5.31146 4.75317 6.81845 3.24618C8.32544 1.7392 10.3694 0.892578 12.5006 0.892578C14.6318 0.892578 16.6757 1.7392 18.1827 3.24618C19.6897 4.75317 20.5363 6.79709 20.5363 8.92829V8.92829Z" stroke="#121212" stroke-width="1.21429" stroke-linecap="round" stroke-linejoin="round"/>
<path d="M12.5008 11.6071C13.9802 11.6071 15.1794 10.4079 15.1794 8.92857C15.1794 7.44924 13.9802 6.25 12.5008 6.25C11.0215 6.25 9.82227 7.44924 9.82227 8.92857C9.82227 10.4079 11.0215 11.6071 12.5008 11.6071Z" stroke="#121212" stroke-width="1.21429" stroke-linecap="round" stroke-linejoin="round"/>
</svg>
