<svg width="40" height="40" viewBox="0 0 40 40" fill="none" xmlns="http://www.w3.org/2000/svg">
<g clip-path="url(#clip0_294_16317)">
<path d="M18.5723 20.002H38.5723" stroke="white" stroke-width="3" stroke-linecap="round" stroke-linejoin="round"/>
<path d="M32.8574 14.2871L38.5717 20.0014L32.8574 25.7157" stroke="white" stroke-width="3" stroke-linecap="round" stroke-linejoin="round"/>
<path d="M33.4296 32.8309C30.8641 35.5051 27.5571 37.3505 23.9341 38.1299C20.3111 38.9092 16.5378 38.5869 13.0996 37.2042C9.66131 35.8216 6.71532 33.4419 4.64052 30.3713C2.56573 27.3007 1.45703 23.6796 1.45703 19.9738C1.45703 16.2679 2.56573 12.6468 4.64052 9.57621C6.71532 6.50561 9.66131 4.12595 13.0996 2.74332C16.5378 1.36069 20.3111 1.03833 23.9341 1.81768C27.5571 2.59704 30.8641 4.44248 33.4296 7.11664" stroke="white" stroke-width="3" stroke-linecap="round" stroke-linejoin="round"/>
</g>
<defs>
<clipPath id="clip0_294_16317">
<rect width="40" height="40" fill="white"/>
</clipPath>
</defs>
</svg>
