<svg width="40" height="40" viewBox="0 0 40 40" fill="none" xmlns="http://www.w3.org/2000/svg">
<g clip-path="url(#clip0_294_16334)">
<path d="M37.1432 19.8277C37.1164 22.8024 36.2667 25.7115 34.6883 28.233C33.1098 30.7544 30.8643 32.7897 28.2003 34.1135L20.0003 38.5706L11.8003 34.2849C9.11036 32.9481 6.8476 30.886 5.26741 28.3315C3.68721 25.7769 2.85249 22.8315 2.85744 19.8277V4.28488C2.85744 3.52712 3.15846 2.80039 3.69428 2.26457C4.2301 1.72875 4.95683 1.42773 5.71459 1.42773H34.286C35.0438 1.42773 35.7705 1.72875 36.3063 2.26457C36.8421 2.80039 37.1432 3.52712 37.1432 4.28488V19.8277Z" stroke="white" stroke-width="3" stroke-linecap="round" stroke-linejoin="round"/>
<path d="M15.7141 22.8564C15.7141 23.9931 16.1657 25.0832 16.9694 25.8869C17.7731 26.6906 18.8632 27.1422 19.9999 27.1422C20.5736 27.1848 21.1498 27.1033 21.6891 26.903C22.2284 26.7027 22.7182 26.3884 23.125 25.9816C23.5318 25.5748 23.8461 25.085 24.0464 24.5457C24.2467 24.0064 24.3283 23.4302 24.2856 22.8564C24.2856 18.5707 15.7141 18.5707 15.7141 14.285C15.6715 13.7113 15.7531 13.1351 15.9533 12.5958C16.1536 12.0564 16.4679 11.5667 16.8747 11.1599C17.2815 10.753 17.7713 10.4388 18.3106 10.2385C18.8499 10.0382 19.4261 9.95662 19.9999 9.9993C21.1365 9.9993 22.2266 10.4508 23.0303 11.2546C23.834 12.0583 24.2856 13.1484 24.2856 14.285" stroke="white" stroke-width="3" stroke-linecap="round" stroke-linejoin="round"/>
<path d="M20 9.99777V7.14062" stroke="white" stroke-width="3" stroke-linecap="round" stroke-linejoin="round"/>
<path d="M20 29.9978V27.1406" stroke="white" stroke-width="3" stroke-linecap="round" stroke-linejoin="round"/>
</g>
<defs>
<clipPath id="clip0_294_16334">
<rect width="40" height="40" fill="white"/>
</clipPath>
</defs>
</svg>
