<svg width="1135" height="1858" viewBox="0 0 1135 1858" fill="none" xmlns="http://www.w3.org/2000/svg">
<path d="M315.569 697.535C469.396 770.623 596.323 862.702 677.188 952.472C717.622 997.358 746.522 1041.65 761.522 1082.68C776.521 1123.71 777.61 1161.44 762.488 1193.26C747.367 1225.09 717.429 1248.08 676.147 1262.37C634.863 1276.65 582.273 1282.22 521.935 1279.23C401.262 1273.24 249.704 1233.01 95.877 1159.92C-57.9497 1086.83 -184.877 994.751 -265.742 904.981C-306.176 860.096 -335.076 815.806 -350.076 774.776C-365.075 733.747 -366.164 696.016 -351.042 664.191C-335.921 632.365 -305.983 609.376 -264.701 595.088C-223.417 580.799 -170.827 575.229 -110.489 578.223C10.184 584.21 161.742 624.447 315.569 697.535Z" stroke="url(#paint0_linear_259_3566)" stroke-opacity="0.3"/>
<path d="M319.589 699.489C472.117 775.251 597.418 869.531 676.704 960.698C716.348 1006.28 744.471 1051.07 758.753 1092.36C773.034 1133.64 773.464 1171.38 757.789 1202.94C742.115 1234.5 711.78 1256.96 670.255 1270.53C628.728 1284.09 576.048 1288.74 515.772 1284.7C395.222 1276.61 244.389 1233.73 91.8611 1157.97C-60.6666 1082.21 -185.967 987.926 -265.254 896.759C-304.898 851.174 -333.021 806.387 -347.302 765.101C-361.583 723.817 -362.013 686.073 -346.339 654.516C-330.664 622.959 -300.329 600.496 -258.804 586.931C-217.277 573.365 -164.598 568.713 -104.322 572.759C16.2286 580.852 167.062 623.728 319.589 699.489Z" stroke="url(#paint1_linear_259_3566)" stroke-opacity="0.3"/>
<path d="M323.571 701.513C474.753 779.925 598.389 876.378 676.073 968.915C714.915 1015.18 742.252 1060.46 755.811 1101.98C769.369 1143.51 769.14 1181.26 752.918 1212.54C736.695 1243.81 705.972 1265.75 664.217 1278.58C622.46 1291.42 569.707 1295.15 509.511 1290.06C389.12 1279.86 239.058 1234.36 87.8759 1155.95C-63.3063 1077.54 -186.942 981.083 -264.626 888.546C-303.468 842.276 -330.805 797.005 -344.364 755.476C-357.922 713.949 -357.693 676.203 -341.471 644.925C-325.248 613.646 -294.525 591.716 -252.77 578.878C-211.013 566.038 -158.26 562.307 -98.0635 567.404C22.327 577.599 172.389 623.102 323.571 701.513Z" stroke="url(#paint2_linear_259_3566)" stroke-opacity="0.3"/>
<path d="M327.519 703.601C477.31 784.639 599.244 883.235 675.3 977.114C713.329 1024.05 739.872 1069.8 752.705 1111.56C765.536 1153.31 764.648 1191.05 747.882 1222.04C731.116 1253.03 700.015 1274.42 658.042 1286.53C616.067 1298.64 563.257 1301.45 503.159 1295.3C382.965 1283.01 233.72 1234.89 83.9291 1153.85C-65.8616 1072.81 -187.796 974.219 -263.852 880.34C-301.881 833.399 -328.424 787.658 -341.256 745.899C-354.087 704.141 -353.2 666.405 -336.433 635.415C-319.667 604.424 -288.567 583.033 -246.594 570.925C-204.619 558.817 -151.809 556.007 -91.7106 562.154C28.4838 574.449 177.729 622.563 327.519 703.601Z" stroke="url(#paint3_linear_259_3566)" stroke-opacity="0.3"/>
<path d="M331.429 705.766C479.783 789.406 599.978 890.115 674.384 985.307C711.588 1032.9 737.329 1079.1 749.43 1121.08C761.531 1163.05 759.984 1200.77 742.68 1231.46C725.375 1262.15 693.906 1283 651.729 1294.37C609.548 1305.75 556.698 1307.64 496.716 1300.44C376.754 1286.05 228.372 1235.34 80.0181 1151.7C-68.3355 1068.06 -188.53 967.349 -262.937 872.157C-300.141 824.56 -325.881 778.363 -337.983 736.385C-350.083 694.411 -348.537 656.696 -331.232 626.002C-313.928 595.309 -282.459 574.464 -240.281 563.091C-198.101 551.717 -145.25 549.829 -85.2682 557.024C34.6932 571.414 183.076 622.126 331.429 705.766Z" stroke="url(#paint4_linear_259_3566)" stroke-opacity="0.3"/>
<path d="M335.304 707.991C482.175 794.207 600.594 896.998 673.328 993.474C709.695 1041.71 734.626 1088.35 745.993 1130.53C757.359 1172.71 755.155 1210.4 737.317 1240.78C719.479 1271.17 687.651 1291.46 645.282 1302.1C602.909 1312.73 550.034 1313.7 490.186 1305.46C370.494 1288.98 223.02 1235.68 76.1483 1149.47C-70.723 1063.25 -189.142 960.459 -261.875 863.983C-298.243 815.744 -323.173 769.104 -334.54 726.922C-345.907 684.743 -343.702 647.06 -325.865 616.674C-308.027 586.287 -276.199 565.995 -233.829 555.359C-191.457 544.723 -138.582 543.757 -78.7344 551.999C40.9577 568.48 188.432 621.774 335.304 707.991Z" stroke="url(#paint5_linear_259_3566)" stroke-opacity="0.3"/>
<path d="M339.134 710.287C484.479 799.054 601.085 903.896 672.124 1001.63C707.644 1050.49 731.757 1097.56 742.386 1139.93C753.015 1182.31 750.153 1219.94 731.788 1250.02C713.423 1280.09 681.245 1299.82 638.696 1309.71C596.145 1319.61 543.26 1319.65 483.566 1310.37C364.18 1291.8 217.658 1235.94 72.3136 1147.17C-73.0305 1058.41 -189.637 953.564 -260.676 855.834C-296.196 806.967 -320.309 759.9 -330.938 717.526C-341.567 675.154 -338.705 637.516 -320.34 607.446C-301.975 577.375 -269.797 557.641 -227.248 547.747C-184.697 537.852 -131.812 537.809 -72.1182 547.093C47.268 565.662 193.79 621.521 339.134 710.287Z" stroke="url(#paint6_linear_259_3566)" stroke-opacity="0.3"/>
<path d="M342.927 712.645C486.7 803.935 601.459 910.796 670.781 1009.75C705.443 1059.23 728.731 1106.71 738.619 1149.26C748.506 1191.82 744.988 1229.4 726.101 1259.14C707.214 1288.89 674.697 1308.06 631.982 1317.21C589.264 1326.36 536.387 1325.48 476.864 1315.15C357.82 1294.51 212.295 1236.1 68.5218 1144.81C-75.2511 1053.52 -190.01 946.657 -259.333 847.701C-293.995 798.222 -317.282 750.741 -327.17 708.188C-337.058 665.637 -333.539 628.055 -314.652 598.309C-295.765 568.564 -263.248 549.395 -220.533 540.244C-177.816 531.094 -124.938 531.974 -65.4152 542.298C53.6287 562.947 199.154 621.355 342.927 712.645Z" stroke="url(#paint7_linear_259_3566)" stroke-opacity="0.3"/>
<path d="M346.678 715.071C488.835 808.856 601.712 917.704 669.297 1017.85C703.09 1067.93 725.546 1115.81 734.689 1158.53C743.833 1201.25 739.659 1238.76 720.256 1268.17C700.852 1297.58 668.006 1316.18 625.137 1324.59C582.267 1332.99 529.413 1331.19 470.079 1319.83C351.414 1297.1 206.93 1236.16 64.7723 1142.38C-77.3855 1048.59 -190.262 939.746 -257.847 839.595C-291.64 789.519 -314.096 741.639 -323.239 698.92C-332.383 656.203 -328.209 618.688 -308.806 589.276C-289.402 559.865 -256.556 541.266 -213.687 532.863C-170.817 524.459 -117.963 526.262 -58.6291 537.624C60.0363 560.347 204.52 621.286 346.678 715.071Z" stroke="url(#paint8_linear_259_3566)" stroke-opacity="0.3"/>
<path d="M350.383 717.566C490.882 813.818 601.842 924.619 667.669 1025.93C700.583 1076.59 722.199 1124.86 730.596 1167.73C738.992 1210.6 734.165 1248.04 714.251 1277.1C694.338 1306.17 661.171 1324.2 618.163 1331.85C575.152 1339.5 522.338 1336.78 463.211 1324.38C344.96 1299.59 201.562 1236.14 61.0631 1139.89C-79.4362 1043.64 -190.396 932.836 -256.223 831.521C-289.137 780.863 -310.753 732.598 -319.15 689.726C-327.546 646.856 -322.719 609.419 -302.805 580.351C-282.891 551.283 -249.725 533.26 -206.717 525.606C-163.706 517.952 -110.892 520.677 -51.7651 533.073C66.4857 557.864 209.884 621.315 350.383 717.566Z" stroke="url(#paint9_linear_259_3566)" stroke-opacity="0.3"/>
<path d="M354.048 720.124C492.847 818.813 601.856 931.534 665.904 1033.98C697.929 1085.21 718.7 1133.84 726.347 1176.85C733.994 1219.86 728.514 1257.21 708.096 1285.93C687.678 1314.64 654.202 1332.08 611.067 1338.99C567.929 1345.89 515.17 1342.24 456.269 1328.82C338.469 1301.97 196.2 1236.02 57.4019 1137.33C-81.3962 1038.64 -190.405 925.923 -254.454 823.475C-286.479 772.249 -307.25 723.615 -314.897 680.602C-322.544 637.593 -317.064 600.246 -296.646 571.53C-276.228 542.813 -242.752 525.372 -199.616 518.47C-156.478 511.567 -103.72 515.214 -44.8186 528.639C72.9815 555.49 215.25 621.434 354.048 720.124Z" stroke="url(#paint10_linear_259_3566)" stroke-opacity="0.3"/>
<path d="M357.667 722.744C494.722 823.84 601.747 938.447 663.998 1042C695.124 1093.77 715.043 1142.76 721.938 1185.9C728.834 1229.04 722.702 1266.28 701.786 1294.64C680.87 1323 647.095 1339.85 603.846 1346C560.594 1352.15 507.907 1347.58 449.249 1333.13C331.936 1304.23 190.839 1235.81 53.7848 1134.71C-83.2698 1033.62 -190.295 919.01 -252.546 815.459C-283.672 763.683 -303.591 714.693 -310.486 671.554C-317.381 628.417 -311.25 591.172 -290.334 562.816C-269.418 534.461 -235.643 517.606 -192.394 511.458C-149.142 505.309 -96.4549 509.876 -37.797 524.328C79.5165 553.231 220.613 621.647 357.667 722.744Z" stroke="url(#paint11_linear_259_3566)" stroke-opacity="0.3"/>
<path d="M361.238 725.427C496.507 828.9 601.516 945.357 661.95 1049.98C692.168 1102.29 711.229 1151.62 717.37 1194.87C723.511 1238.12 716.731 1275.26 695.324 1303.24C673.916 1331.23 639.852 1347.49 596.502 1352.88C553.149 1358.28 500.55 1352.79 442.153 1337.32C325.362 1306.37 185.481 1235.5 50.2117 1132.03C-85.0577 1028.56 -190.067 912.1 -250.501 807.479C-280.718 755.167 -299.779 705.837 -305.921 662.584C-312.062 619.334 -305.282 582.201 -283.874 554.215C-262.466 526.229 -228.402 509.966 -185.052 504.574C-141.7 499.181 -89.1003 504.666 -30.7035 520.139C86.0877 551.085 225.968 621.954 361.238 725.427Z" stroke="url(#paint12_linear_259_3566)" stroke-opacity="0.3"/>
<path d="M364.761 728.171C498.204 833.989 601.165 952.261 659.764 1057.92C689.064 1110.75 707.261 1160.41 712.647 1203.76C718.032 1247.11 710.605 1284.12 688.712 1311.73C666.819 1339.34 632.476 1355 589.039 1359.64C545.599 1364.27 493.103 1357.87 434.985 1341.38C318.752 1308.4 180.129 1235.1 46.6865 1129.28C-86.7565 1023.47 -189.717 905.194 -248.316 799.534C-277.616 746.703 -295.813 697.048 -301.199 653.694C-306.584 610.343 -299.157 573.334 -277.264 545.726C-255.371 518.118 -221.028 502.452 -177.591 497.817C-134.151 493.182 -81.6553 499.584 -23.5375 516.074C92.6959 549.054 231.318 622.353 364.761 728.171Z" stroke="url(#paint13_linear_259_3566)" stroke-opacity="0.3"/>
<path d="M368.238 730.981C499.814 839.112 600.695 959.162 657.441 1065.83C685.814 1119.16 703.142 1169.13 707.77 1212.57C712.398 1256.01 704.326 1292.88 681.955 1320.1C659.583 1347.32 624.973 1362.39 581.461 1366.27C537.946 1370.14 485.57 1362.82 427.749 1345.32C312.109 1310.32 174.787 1234.61 43.2112 1126.48C-88.3647 1018.35 -189.245 898.3 -245.991 791.633C-274.365 738.299 -291.693 688.334 -296.321 644.893C-300.949 601.455 -292.877 564.581 -270.505 537.359C-248.134 510.137 -213.523 495.073 -170.011 491.197C-126.497 487.32 -74.1213 494.638 -16.3001 512.14C99.34 547.143 236.662 622.85 368.238 730.981Z" stroke="url(#paint14_linear_259_3566)" stroke-opacity="0.3"/>
<path d="M371.664 733.843C501.332 844.253 600.103 966.046 654.979 1073.69C682.417 1127.51 698.87 1177.77 702.739 1221.28C706.608 1264.8 697.894 1301.52 675.051 1328.35C652.208 1355.18 617.34 1369.64 573.767 1372.75C530.191 1375.87 477.951 1367.64 420.444 1349.13C305.433 1312.11 169.453 1234.02 39.784 1123.61C-89.8847 1013.2 -188.655 891.407 -243.531 783.766C-270.969 729.945 -287.422 679.685 -291.291 636.17C-295.161 592.657 -286.446 555.93 -263.603 529.103C-240.76 502.275 -205.892 487.818 -162.319 484.702C-118.743 481.585 -66.5034 489.816 -8.99647 508.324C106.015 545.34 241.995 623.432 371.664 733.843Z" stroke="url(#paint15_linear_259_3566)" stroke-opacity="0.3"/>
<path d="M375.04 736.77C502.762 849.427 599.392 972.925 652.381 1081.51C678.876 1135.8 694.449 1186.34 697.558 1229.91C700.668 1273.49 691.314 1310.06 668.006 1336.48C644.698 1362.91 609.583 1376.75 565.962 1379.11C522.339 1381.46 470.25 1372.32 413.075 1352.81C298.727 1313.8 164.131 1233.34 36.4089 1120.69C-91.3131 1008.03 -187.943 884.531 -240.932 775.949C-267.427 721.658 -283 671.118 -286.109 627.542C-289.218 583.969 -279.864 547.399 -256.557 520.975C-233.249 494.55 -198.133 480.703 -154.513 478.348C-110.89 475.992 -58.8011 485.133 -1.62592 504.642C112.722 543.66 247.319 624.114 375.04 736.77Z" stroke="url(#paint16_linear_259_3566)" stroke-opacity="0.3"/>
<path d="M378.365 739.757C504.101 854.626 598.56 979.791 649.646 1089.28C675.19 1144.03 689.878 1194.83 692.227 1238.45C694.575 1282.08 684.584 1318.48 660.819 1344.49C637.054 1370.5 601.702 1383.74 558.047 1385.33C514.389 1386.92 462.468 1376.87 405.642 1356.37C291.992 1315.36 158.821 1232.57 33.0842 1117.7C-92.6522 1002.84 -187.112 877.67 -238.198 768.18C-263.741 713.434 -278.43 662.63 -280.778 619.007C-283.126 575.385 -273.136 538.985 -249.37 512.971C-225.605 486.957 -190.253 473.725 -146.598 472.132C-102.94 470.538 -51.0193 480.587 5.80668 501.09C119.456 542.098 252.628 624.888 378.365 739.757Z" stroke="url(#paint17_linear_259_3566)" stroke-opacity="0.3"/>
<path d="M381.636 742.796C505.348 859.842 597.609 986.637 646.776 1097C671.36 1152.19 685.16 1203.24 686.747 1246.9C688.333 1290.55 677.709 1326.77 653.493 1352.37C629.277 1377.96 593.7 1390.57 550.024 1391.41C506.345 1392.24 454.607 1381.28 398.148 1359.79C285.231 1316.81 153.525 1231.71 29.812 1114.66C-93.9005 997.615 -186.161 870.819 -235.328 760.455C-259.912 705.271 -273.712 654.219 -275.299 610.561C-276.886 566.905 -266.261 530.685 -242.045 505.09C-217.83 479.494 -182.252 466.882 -138.576 466.05C-94.8972 465.218 -43.1595 476.172 13.3 497.664C126.217 540.649 257.923 625.751 381.636 742.796Z" stroke="url(#paint18_linear_259_3566)" stroke-opacity="0.3"/>
<path d="M384.855 745.894C506.506 865.081 596.539 993.467 643.773 1104.67C667.39 1160.28 680.297 1211.56 681.122 1255.24C681.946 1298.92 670.691 1334.95 646.032 1360.12C621.374 1385.29 585.582 1397.28 541.897 1397.34C498.211 1397.41 446.672 1385.56 390.596 1363.08C278.447 1318.14 148.246 1230.75 26.5947 1111.56C-95.0562 992.375 -185.09 863.988 -232.324 752.782C-255.941 697.178 -268.848 645.893 -269.672 602.214C-270.497 558.537 -259.242 522.508 -234.583 497.339C-209.924 472.17 -174.132 460.18 -130.448 460.111C-86.7612 460.042 -35.2225 471.897 20.8533 494.371C133.003 539.32 263.204 626.708 384.855 745.894Z" stroke="url(#paint19_linear_259_3566)" stroke-opacity="0.3"/>
<path d="M388.018 749.05C507.57 870.342 595.349 1000.28 640.635 1112.29C663.278 1168.3 675.288 1219.8 675.35 1263.49C675.412 1307.18 663.53 1343 638.436 1367.74C613.342 1392.47 577.346 1403.84 533.667 1403.14C489.986 1402.45 438.662 1389.7 382.987 1366.25C271.639 1319.35 142.983 1229.7 23.4305 1108.41C-96.1218 987.117 -183.901 857.18 -229.187 745.166C-251.83 689.158 -263.84 637.655 -263.902 593.969C-263.964 550.285 -252.082 514.457 -226.988 489.722C-201.893 464.988 -165.897 453.624 -122.219 454.317C-78.5375 455.011 -27.2136 467.763 28.4614 491.213C139.809 538.112 268.466 627.759 388.018 749.05Z" stroke="url(#paint20_linear_259_3566)" stroke-opacity="0.3"/>
<path d="M391.125 752.258C508.543 875.618 594.041 1007.07 637.365 1119.85C659.027 1176.25 670.136 1227.95 669.436 1271.64C668.735 1315.31 656.23 1350.93 630.708 1375.22C605.185 1399.51 568.997 1410.25 525.337 1408.79C481.674 1407.34 430.581 1393.69 375.324 1369.27C264.811 1320.44 137.739 1228.56 20.3218 1105.2C-97.0954 981.84 -182.594 850.39 -225.917 737.603C-247.58 681.208 -258.689 629.504 -257.989 585.823C-257.288 542.144 -244.783 506.529 -219.26 482.236C-193.738 457.944 -157.55 447.21 -113.89 448.665C-70.2273 450.121 -19.1337 463.767 36.1235 488.185C146.636 537.02 273.708 628.899 391.125 752.258Z" stroke="url(#paint21_linear_259_3566)" stroke-opacity="0.3"/>
<path d="M394.178 755.518C509.424 880.908 592.615 1013.83 633.964 1127.36C654.639 1184.12 664.844 1236.01 663.381 1279.67C661.919 1323.33 648.793 1358.72 622.851 1382.57C596.909 1406.41 560.539 1416.51 516.911 1414.29C473.28 1412.08 422.433 1397.54 367.61 1372.16C257.967 1321.41 132.517 1227.32 17.2709 1101.93C-97.9755 976.544 -181.167 843.622 -222.515 730.096C-243.19 673.332 -253.395 621.441 -251.933 577.779C-250.47 534.119 -237.345 498.728 -211.403 474.884C-185.46 451.041 -149.09 440.941 -105.462 443.158C-61.8317 445.375 -10.9841 459.91 43.8386 485.289C153.482 536.045 278.931 630.128 394.178 755.518Z" stroke="url(#paint22_linear_259_3566)" stroke-opacity="0.3"/>
<path d="M397.171 758.835C510.212 886.217 591.071 1020.57 630.432 1134.8C650.113 1191.92 659.411 1243.98 657.186 1287.61C654.962 1331.24 641.221 1366.39 614.867 1389.78C588.512 1413.17 551.971 1422.63 508.389 1419.65C464.803 1416.67 414.217 1401.25 359.846 1374.92C251.105 1322.26 127.317 1226 14.2764 1098.62C-98.7641 971.237 -179.623 836.884 -218.984 722.654C-238.665 665.537 -247.963 613.477 -245.738 569.847C-243.514 526.219 -229.773 491.062 -203.419 467.675C-177.064 444.288 -140.523 434.824 -96.9407 437.802C-53.3557 440.78 -2.76946 456.201 51.602 482.533C160.343 535.195 284.131 631.452 397.171 758.835Z" stroke="url(#paint23_linear_259_3566)" stroke-opacity="0.3"/>
<path d="M400.108 762.202C510.908 891.538 589.409 1027.28 626.771 1142.18C645.452 1199.63 653.84 1251.85 650.854 1295.43C647.869 1339.01 633.517 1373.93 606.758 1396.85C580 1419.77 543.299 1428.6 499.775 1424.86C456.248 1421.12 405.939 1404.82 352.035 1377.54C244.23 1322.99 122.141 1224.59 11.3406 1095.25C-99.4596 965.917 -177.961 830.173 -215.323 715.273C-234.004 657.822 -242.392 605.607 -239.406 562.023C-236.421 518.44 -222.069 483.529 -195.31 460.605C-168.551 437.681 -131.851 428.857 -88.3267 432.595C-44.8002 436.333 5.50914 452.635 59.4127 479.911C167.218 534.463 289.307 632.866 400.108 762.202Z" stroke="url(#paint24_linear_259_3566)" stroke-opacity="0.3"/>
<path d="M402.984 765.62C511.51 896.87 587.631 1033.96 622.981 1149.5C640.657 1207.27 648.132 1259.62 644.387 1303.15C640.641 1346.67 625.682 1381.33 598.527 1403.78C571.373 1426.23 534.524 1434.41 491.071 1429.92C447.617 1425.42 397.6 1408.24 344.18 1380.03C237.344 1323.6 116.99 1223.09 8.46408 1091.84C-100.062 960.586 -176.182 823.492 -211.533 707.958C-229.209 650.19 -236.684 597.836 -232.938 554.31C-229.193 510.787 -214.234 476.131 -187.079 453.678C-159.924 431.225 -123.075 423.042 -79.623 427.539C-36.1685 432.037 13.8487 449.214 67.2681 477.427C174.105 533.852 294.458 634.371 402.984 765.62Z" stroke="url(#paint25_linear_259_3566)" stroke-opacity="0.3"/>
<path d="M405.803 769.089C512.022 902.213 585.738 1040.61 619.067 1156.75C635.732 1214.82 642.292 1267.29 637.787 1310.75C633.283 1354.2 617.721 1388.59 590.179 1410.56C562.636 1432.54 525.65 1440.08 482.283 1434.82C438.913 1429.57 389.204 1411.52 336.285 1382.38C230.449 1324.1 111.868 1221.49 5.64934 1088.37C-100.57 955.245 -174.286 816.844 -207.615 700.71C-224.28 642.642 -230.84 590.166 -226.335 546.713C-221.831 503.261 -206.269 468.872 -178.727 446.896C-151.184 424.92 -114.198 417.381 -70.8308 422.636C-27.4614 427.892 22.2484 445.939 75.1673 475.08C181.003 533.361 299.584 635.965 405.803 769.089Z" stroke="url(#paint26_linear_259_3566)" stroke-opacity="0.3"/>
<path d="M408.558 772.604C512.437 907.561 583.727 1047.23 615.024 1163.93C630.672 1222.28 636.316 1274.86 631.054 1318.23C625.791 1361.59 609.632 1395.71 581.71 1417.2C553.788 1438.69 516.676 1445.58 473.407 1439.57C430.136 1433.56 380.749 1414.65 328.347 1384.59C223.545 1324.47 106.772 1219.81 2.89297 1084.85C-100.986 949.894 -172.276 810.228 -203.573 693.53C-219.222 635.18 -224.865 582.598 -219.603 539.229C-214.341 495.863 -198.181 461.75 -170.259 440.258C-142.338 418.766 -105.226 411.874 -61.9568 417.885C-18.6857 423.897 30.7015 442.809 83.1037 472.869C187.906 532.988 304.678 637.646 408.558 772.604Z" stroke="url(#paint27_linear_259_3566)" stroke-opacity="0.3"/>
<path d="M411.25 776.168C512.758 912.918 581.6 1053.81 610.855 1171.03C625.483 1229.65 630.208 1282.32 624.19 1325.59C618.172 1368.86 601.419 1402.68 573.126 1423.69C544.834 1444.69 507.607 1450.93 464.45 1444.16C421.29 1437.4 372.241 1417.63 320.371 1386.66C216.634 1324.72 101.706 1218.04 0.197753 1081.29C-101.311 944.539 -170.152 803.649 -199.407 686.423C-214.035 627.809 -218.761 575.136 -212.742 531.866C-206.724 488.598 -189.971 454.773 -161.679 433.772C-133.386 412.77 -96.1593 406.527 -53.002 413.292C-9.84243 420.058 39.2072 439.829 91.0768 470.799C194.814 532.738 309.742 639.418 411.25 776.168Z" stroke="url(#paint28_linear_259_3566)" stroke-opacity="0.3"/>
<path d="M413.881 779.777C512.987 918.277 579.359 1060.35 606.564 1178.07C620.167 1236.93 623.972 1289.67 617.2 1332.83C610.427 1375.99 593.087 1409.52 564.432 1430.02C535.777 1450.52 498.447 1456.12 455.414 1448.6C412.379 1441.08 363.682 1420.46 312.361 1388.59C209.721 1324.85 96.6723 1216.18 -2.43385 1077.68C-101.54 939.176 -167.912 797.107 -195.117 679.388C-208.72 620.527 -212.525 567.78 -205.752 524.621C-198.98 481.465 -181.64 447.937 -152.985 427.433C-124.33 406.929 -87 401.336 -43.9674 408.854C-0.932456 416.371 47.7647 436.996 99.0859 468.866C201.726 532.606 314.775 641.276 413.881 779.777Z" stroke="url(#paint29_linear_259_3566)" stroke-opacity="0.3"/>
<path d="M416.449 783.432C513.123 923.641 577.006 1066.85 602.152 1185.02C614.726 1244.11 617.61 1296.92 610.085 1339.95C602.56 1382.98 584.637 1416.2 555.629 1436.2C526.621 1456.21 489.199 1461.15 446.304 1452.88C403.407 1444.61 355.077 1423.14 304.32 1390.38C202.808 1324.86 91.6728 1214.23 -5.0011 1074.02C-101.675 933.812 -165.557 790.606 -190.704 672.43C-203.278 613.341 -206.162 560.536 -198.637 517.502C-191.112 474.47 -173.189 441.25 -144.181 421.249C-115.173 401.248 -77.7506 396.308 -34.8557 404.575C8.04148 412.843 56.3713 434.314 107.128 467.075C208.641 532.597 319.775 643.223 416.449 783.432Z" stroke="url(#paint30_linear_259_3566)" stroke-opacity="0.3"/>
<path d="M418.954 787.129C513.167 929.004 574.54 1073.3 597.62 1191.9C609.161 1251.2 611.123 1304.05 602.848 1346.94C594.573 1389.84 576.073 1422.74 546.721 1442.23C517.368 1461.72 479.865 1466.01 437.121 1456.99C394.375 1447.98 346.427 1425.67 296.249 1392.03C195.896 1324.74 86.7089 1212.19 -7.5033 1070.32C-101.716 928.444 -163.089 784.144 -186.169 665.548C-197.71 606.248 -199.672 553.4 -191.397 510.505C-183.122 467.611 -164.622 434.709 -135.269 415.217C-105.917 395.725 -68.414 391.439 -25.67 400.453C17.0764 409.469 65.0241 431.78 115.202 465.422C215.555 532.705 324.742 645.254 418.954 787.129Z" stroke="url(#paint31_linear_259_3566)" stroke-opacity="0.3"/>
<path d="M421.394 790.877C513.115 934.375 571.961 1079.72 592.968 1198.7C603.472 1258.2 604.511 1311.07 595.489 1353.82C586.467 1396.56 567.396 1429.13 537.707 1448.11C508.019 1467.09 470.447 1470.72 427.867 1460.96C385.284 1451.2 337.733 1428.05 288.15 1393.54C188.986 1324.52 81.7802 1210.08 -9.94159 1066.58C-101.663 923.083 -160.509 777.735 -181.516 658.753C-192.02 599.262 -193.059 546.387 -184.037 503.642C-175.015 460.9 -155.944 428.325 -126.255 409.349C-96.5666 390.372 -58.9949 386.741 -16.4147 396.5C26.1678 406.26 73.7188 429.405 123.302 463.918C222.465 532.942 329.672 647.379 421.394 790.877Z" stroke="url(#paint32_linear_259_3566)" stroke-opacity="0.3"/>
<path d="M423.764 794.66C512.967 939.736 569.267 1086.09 588.195 1205.42C597.659 1265.09 597.775 1317.97 588.008 1360.55C578.242 1403.13 558.605 1435.37 528.589 1453.82C498.574 1472.28 460.945 1475.25 418.542 1464.75C376.136 1454.25 328.996 1430.28 280.023 1394.91C182.079 1324.16 76.8863 1207.87 -12.3172 1062.79C-101.521 917.718 -157.821 771.364 -176.748 652.034C-186.212 592.368 -186.328 539.484 -176.561 496.903C-166.795 454.324 -147.158 422.088 -117.143 403.632C-87.1275 385.177 -49.4981 382.202 -7.09478 392.703C35.3109 403.204 82.4508 427.175 131.424 462.548C229.368 533.293 334.56 649.583 423.764 794.66Z" stroke="url(#paint33_linear_259_3566)" stroke-opacity="0.3"/>
<path d="M426.071 798.486C512.729 945.097 566.466 1092.41 583.308 1212.05C591.729 1271.87 590.923 1324.75 580.414 1367.16C569.906 1409.56 549.709 1441.45 519.377 1459.38C489.044 1477.31 451.368 1479.62 409.155 1468.38C366.939 1457.14 320.225 1432.35 271.876 1396.13C175.182 1323.69 72.0347 1205.58 -14.6232 1058.97C-101.281 912.357 -155.018 765.043 -171.86 645.401C-180.281 585.579 -179.475 532.701 -168.966 490.297C-158.458 447.895 -138.262 416.006 -107.929 398.077C-77.5962 380.148 -39.9206 377.831 2.29302 389.07C44.509 400.31 91.2233 425.1 139.572 461.322C236.266 533.766 339.413 651.874 426.071 798.486Z" stroke="url(#paint34_linear_259_3566)" stroke-opacity="0.3"/>
<path d="M428.312 802.35C512.398 950.451 563.556 1098.68 578.307 1218.6C585.683 1278.56 583.954 1331.41 572.707 1373.63C561.461 1415.84 540.71 1447.37 510.069 1464.77C479.428 1482.17 441.718 1483.83 399.707 1471.85C357.694 1459.88 311.419 1434.27 263.71 1397.21C168.295 1323.09 67.2249 1203.2 -16.8611 1055.1C-100.947 907.001 -152.105 758.771 -166.856 638.854C-174.232 578.894 -172.503 526.038 -161.256 483.823C-150.01 441.612 -129.259 410.08 -98.6184 392.683C-67.9774 375.286 -30.2671 373.627 11.7439 385.601C53.7573 397.576 100.032 423.177 147.741 460.238C243.156 534.358 344.226 654.249 428.312 802.35Z" stroke="url(#paint35_linear_259_3566)" stroke-opacity="0.3"/>
<path d="M430.481 806.257C511.969 955.803 560.533 1104.9 573.189 1225.06C579.517 1285.14 576.865 1337.96 564.884 1379.97C552.902 1421.98 531.605 1453.14 500.665 1470C469.725 1486.86 431.991 1487.86 390.196 1475.16C348.398 1462.45 302.577 1436.05 255.523 1398.16C161.415 1322.38 62.4528 1200.75 -19.0356 1051.2C-100.524 901.655 -149.087 752.555 -161.744 632.399C-168.072 572.319 -165.42 519.501 -153.438 477.49C-141.457 435.48 -120.16 404.316 -89.2197 387.456C-58.2797 370.597 -20.5462 369.596 21.2495 382.301C63.0475 395.008 108.868 421.413 155.923 459.301C250.03 535.074 348.992 656.711 430.481 806.257Z" stroke="url(#paint36_linear_259_3566)" stroke-opacity="0.3"/>
<path d="M432.587 810.199C511.453 961.144 557.407 1111.07 567.964 1231.43C573.243 1291.61 569.67 1344.37 556.956 1386.17C544.244 1427.96 522.406 1458.75 491.176 1475.07C459.947 1491.38 422.202 1491.73 380.634 1478.29C339.064 1464.86 293.711 1437.66 247.325 1398.96C154.554 1321.55 57.73 1198.21 -21.1361 1047.26C-100.002 896.315 -145.956 746.39 -156.513 626.031C-161.792 565.85 -158.219 513.086 -145.506 471.291C-132.793 429.497 -110.955 398.709 -79.7255 382.392C-48.496 366.075 -10.7508 365.732 30.8168 379.166C72.3866 392.6 117.74 419.8 164.126 458.503C256.896 535.908 353.721 659.253 432.587 810.199Z" stroke="url(#paint37_linear_259_3566)" stroke-opacity="0.3"/>
<path d="M434.622 814.171C510.841 966.47 554.172 1117.17 562.627 1237.7C566.854 1297.96 562.361 1350.66 548.92 1392.22C535.48 1433.79 513.108 1464.19 481.599 1479.96C450.089 1495.73 412.344 1495.41 371.017 1481.26C329.688 1467.1 284.816 1439.11 239.113 1399.61C147.707 1320.59 53.0503 1195.58 -23.1695 1043.28C-99.3893 890.979 -142.719 740.276 -151.174 619.75C-155.402 559.486 -150.909 506.793 -137.468 465.226C-124.028 423.66 -101.656 393.258 -70.1464 377.488C-38.637 361.719 -0.891484 362.035 40.4353 376.192C81.7644 390.349 126.636 418.337 172.339 457.844C263.745 536.856 358.402 661.872 434.622 814.171Z" stroke="url(#paint38_linear_259_3566)" stroke-opacity="0.3"/>
<path d="M436.585 818.186C510.135 971.792 550.829 1123.23 557.179 1243.88C560.354 1304.21 554.942 1356.82 540.778 1398.15C526.614 1439.47 503.715 1469.48 471.935 1484.69C440.155 1499.91 402.421 1498.94 361.348 1484.06C320.272 1469.18 275.896 1440.42 230.889 1400.12C140.876 1319.52 48.4154 1192.87 -25.1348 1039.27C-98.6849 885.662 -139.378 734.226 -145.729 613.571C-148.904 553.243 -143.492 500.636 -129.327 459.309C-115.164 417.985 -92.2648 387.977 -60.4849 372.76C-28.705 357.543 9.02923 358.518 50.1027 373.394C91.1784 388.27 135.554 417.037 180.562 457.336C270.574 537.931 363.035 664.58 436.585 818.186Z" stroke="url(#paint39_linear_259_3566)" stroke-opacity="0.3"/>
<path d="M438.477 822.236C509.335 977.102 547.379 1129.23 551.623 1249.97C553.745 1310.35 547.415 1362.85 532.532 1403.92C517.65 1445 494.23 1474.6 462.19 1489.26C430.149 1503.92 392.438 1502.29 351.63 1486.7C310.82 1471.1 266.953 1441.57 222.656 1400.49C134.064 1318.34 43.8273 1190.09 -27.0309 1035.23C-97.8891 880.36 -135.933 728.236 -140.177 607.489C-142.299 547.114 -135.969 494.61 -121.086 453.537C-106.203 412.466 -82.7841 382.863 -50.7435 368.203C-18.7029 353.543 19.0086 355.176 59.8161 370.766C100.626 386.357 144.493 415.894 188.79 456.972C277.383 539.126 367.619 667.369 438.477 822.236Z" stroke="url(#paint40_linear_259_3566)" stroke-opacity="0.3"/>
<path d="M440.301 826.31C508.446 982.389 543.829 1135.15 545.965 1255.96C547.033 1316.36 539.788 1368.74 524.19 1409.55C508.593 1450.36 484.661 1479.55 452.369 1493.65C420.077 1507.74 382.4 1505.45 341.871 1489.15C301.34 1472.85 257.995 1442.55 214.421 1400.71C127.276 1317.02 39.2916 1187.22 -28.853 1031.14C-96.9976 875.065 -132.381 722.3 -134.517 601.497C-135.585 541.095 -128.34 488.709 -112.742 447.902C-97.1449 407.097 -73.2124 377.907 -40.9208 363.808C-8.62921 349.709 29.048 352.001 69.5773 368.301C110.109 384.602 153.454 414.9 197.027 456.744C284.172 540.432 372.157 670.231 440.301 826.31Z" stroke="url(#paint41_linear_259_3566)" stroke-opacity="0.3"/>
<path d="M442.054 830.417C507.464 987.662 540.176 1141.02 540.203 1261.84C540.217 1322.25 532.058 1374.51 515.751 1415.03C499.444 1455.56 475.006 1484.33 442.473 1497.86C409.94 1511.39 372.309 1508.45 332.07 1491.44C291.829 1474.44 249.02 1443.39 206.183 1400.79C120.512 1315.59 34.8063 1184.28 -30.604 1027.03C-96.0143 869.787 -128.726 716.428 -128.753 595.607C-128.767 535.195 -120.609 482.943 -104.301 442.415C-87.9943 401.888 -63.5561 373.12 -31.0233 359.587C1.50941 346.054 39.1409 349.003 79.3795 366.008C119.62 383.014 162.43 414.064 205.266 456.662C290.938 541.858 376.643 673.172 442.054 830.417Z" stroke="url(#paint42_linear_259_3566)" stroke-opacity="0.3"/>
<path d="M443.734 834.557C506.39 992.92 536.421 1146.83 534.339 1267.63C533.299 1328.03 524.23 1380.13 507.217 1420.37C490.206 1460.61 465.269 1488.94 432.505 1501.91C399.741 1514.87 362.167 1511.27 322.231 1493.56C282.293 1475.86 240.032 1444.06 197.946 1400.72C113.774 1314.05 30.3732 1181.26 -32.2828 1022.89C-94.9388 864.531 -124.969 710.624 -122.888 589.821C-121.847 529.418 -112.778 477.317 -95.7657 437.079C-78.7541 396.843 -53.8175 368.506 -21.0535 355.543C11.7105 342.58 49.2848 346.184 89.2205 363.889C129.158 381.595 171.42 413.387 213.506 456.727C297.677 543.404 381.078 676.195 443.734 834.557Z" stroke="url(#paint43_linear_259_3566)" stroke-opacity="0.3"/>
<path d="M445.341 838.729C505.224 998.161 532.564 1152.57 528.374 1273.32C526.28 1333.69 516.303 1385.63 498.591 1425.56C480.88 1465.49 455.452 1493.39 422.467 1505.78C389.482 1518.17 351.976 1513.91 312.356 1495.51C272.733 1477.11 231.033 1444.59 189.709 1400.52C107.063 1312.39 25.9925 1178.16 -33.8901 1018.73C-93.7728 859.296 -121.113 704.889 -116.923 584.14C-114.828 523.765 -104.852 471.83 -87.1395 431.895C-69.4283 391.962 -44.001 364.065 -11.0157 351.675C21.9695 339.286 59.4751 343.546 99.0958 361.945C138.719 380.345 180.418 412.87 221.742 456.938C304.388 545.071 385.459 679.297 445.341 838.729Z" stroke="url(#paint44_linear_259_3566)" stroke-opacity="0.3"/>
<path d="M446.873 842.923C503.964 1003.38 528.605 1158.24 522.309 1278.89C519.16 1339.22 508.279 1390.98 489.872 1430.6C471.467 1470.21 445.557 1497.66 412.36 1509.48C379.164 1521.29 341.738 1516.37 302.445 1497.29C263.149 1478.2 222.023 1444.95 181.475 1400.17C100.38 1310.6 21.664 1174.98 -35.4271 1014.53C-92.5181 854.079 -117.159 699.218 -110.863 578.561C-107.715 518.231 -96.8332 466.478 -78.4267 426.859C-60.0212 387.241 -34.1109 359.791 -0.9145 347.98C32.2819 336.168 69.7075 341.082 109.001 360.169C148.297 379.258 189.423 412.506 229.971 457.288C311.066 546.85 389.782 682.471 446.873 842.923Z" stroke="url(#paint45_linear_259_3566)" stroke-opacity="0.3"/>
<path d="M448.333 847.144C502.615 1008.57 524.55 1163.84 516.149 1284.36C511.948 1344.63 500.165 1396.19 481.07 1435.48C461.976 1474.77 435.59 1501.76 402.193 1512.99C368.795 1524.22 331.461 1518.66 292.507 1498.89C253.55 1479.11 213.011 1445.15 173.25 1399.67C93.7305 1308.71 17.3936 1171.73 -36.8885 1010.31C-91.1705 848.884 -113.105 693.617 -104.704 573.088C-100.503 512.822 -88.7203 461.267 -69.6252 421.975C-50.5311 382.684 -24.1457 355.691 9.25184 344.461C42.6493 333.23 79.9835 338.796 118.938 358.567C157.894 378.338 198.434 412.299 238.194 457.782C317.714 548.746 394.051 685.719 448.333 847.144Z" stroke="url(#paint46_linear_259_3566)" stroke-opacity="0.3"/>
<path d="M449.722 851.39C501.179 1013.74 520.4 1169.36 509.897 1289.73C504.645 1349.91 491.964 1401.25 472.186 1440.21C452.409 1479.16 425.557 1505.69 391.968 1516.33C358.38 1526.98 321.148 1520.76 282.545 1500.31C243.94 1479.87 203.999 1445.2 165.038 1399.03C87.1182 1306.69 13.1835 1168.41 -38.2731 1006.06C-89.7297 843.715 -108.951 688.088 -98.4478 567.724C-93.196 507.541 -80.515 456.199 -60.737 417.246C-40.9602 378.295 -14.1076 351.766 19.4808 341.121C53.0692 330.475 90.3005 336.691 128.904 357.139C167.509 377.587 207.45 412.25 246.411 458.42C324.331 550.758 398.266 689.043 449.722 851.39Z" stroke="url(#paint47_linear_259_3566)" stroke-opacity="0.3"/>
<path d="M451.034 855.663C499.65 1018.88 516.152 1174.82 503.55 1294.98C497.249 1355.07 483.673 1406.18 463.219 1444.78C442.765 1483.38 415.454 1509.44 381.685 1519.5C347.915 1529.55 310.798 1522.69 272.558 1501.57C234.315 1480.45 194.985 1445.1 156.836 1398.25C80.5397 1304.57 9.02954 1165.02 -39.5858 1001.79C-88.2012 838.574 -104.704 682.636 -92.1013 562.473C-85.8 502.391 -72.2249 451.278 -51.7701 412.676C-31.3164 374.076 -4.005 348.02 29.7641 337.962C63.5332 327.904 100.65 334.77 138.891 355.888C177.134 377.007 216.463 412.361 254.612 459.204C330.909 552.888 402.419 692.442 451.034 855.663Z" stroke="url(#paint48_linear_259_3566)" stroke-opacity="0.3"/>
<path d="M452.271 859.954C498.03 1024 511.808 1180.2 497.111 1300.13C489.762 1360.09 475.297 1410.96 454.171 1449.2C433.047 1487.43 405.285 1513.01 371.346 1522.48C337.406 1531.94 300.414 1524.43 262.548 1502.65C224.68 1480.86 185.973 1444.83 148.648 1397.33C73.9976 1302.33 4.93397 1161.55 -40.8254 997.501C-86.5848 833.457 -100.363 677.254 -85.6657 557.33C-78.3167 497.367 -63.8516 446.499 -42.7263 408.26C-21.602 370.023 6.15997 344.447 40.0995 334.98C74.0389 325.513 111.031 333.025 148.897 354.807C186.765 376.591 225.472 412.626 262.797 460.128C337.447 555.129 406.511 695.91 452.271 859.954Z" stroke="url(#paint49_linear_259_3566)" stroke-opacity="0.3"/>
<path d="M453.435 864.267C496.324 1029.08 507.374 1185.5 490.586 1305.15C482.192 1364.98 466.841 1415.59 445.052 1453.45C423.263 1491.31 395.059 1516.4 360.96 1525.27C326.86 1534.15 290.005 1525.99 252.525 1503.55C215.042 1481.11 176.971 1444.4 140.48 1396.26C67.499 1299.97 0.902763 1158 -41.9867 993.187C-84.8761 828.369 -95.9263 671.95 -79.1381 552.3C-70.7438 492.475 -55.3931 441.867 -33.6036 404.002C-11.8153 366.139 16.3889 341.053 50.4884 332.179C84.5879 323.306 121.443 331.463 158.923 353.902C196.406 376.343 234.477 413.049 270.968 461.195C343.949 557.484 410.545 699.449 453.435 864.267Z" stroke="url(#paint50_linear_259_3566)" stroke-opacity="0.3"/>
<path d="M454.521 868.601C494.528 1034.14 502.846 1190.73 483.973 1310.07C474.535 1369.74 458.304 1420.07 435.857 1457.55C413.411 1495.03 384.773 1519.62 350.524 1527.89C316.275 1536.17 279.568 1527.37 242.485 1504.28C205.4 1481.19 167.975 1443.83 132.329 1395.05C61.0405 1297.5 -3.06794 1154.4 -43.0744 988.855C-83.0808 823.313 -91.3995 666.725 -72.5255 547.387C-63.0884 487.717 -46.8569 437.385 -24.4098 399.906C-1.96404 362.43 26.6736 337.839 60.9228 329.562C95.172 321.285 131.879 330.084 168.962 353.174C206.047 376.266 243.472 413.63 279.118 462.405C350.407 559.954 414.515 703.059 454.521 868.601Z" stroke="url(#paint51_linear_259_3566)" stroke-opacity="0.3"/>
<path d="M455.533 872.951C492.645 1039.16 498.229 1195.87 477.275 1314.86C466.798 1374.36 449.691 1424.4 426.593 1461.48C403.497 1498.56 374.434 1522.65 340.046 1530.33C305.657 1538.01 269.11 1528.57 232.435 1504.83C195.759 1481.1 158.991 1443.09 124.203 1393.7C54.6271 1294.92 -6.97397 1150.72 -44.0852 984.502C-81.1965 818.288 -86.781 661.579 -65.8272 542.588C-55.3502 483.091 -38.2427 433.05 -15.145 395.969C7.95147 358.89 37.0139 334.803 71.4024 327.125C105.791 319.447 142.339 328.885 179.013 352.619C215.689 376.354 252.457 414.366 287.245 463.756C356.821 562.534 418.422 706.736 455.533 872.951Z" stroke="url(#paint52_linear_259_3566)" stroke-opacity="0.3"/>
<path d="M456.468 877.321C490.672 1044.16 493.521 1200.94 470.494 1319.55C458.98 1378.85 441.002 1428.59 417.26 1465.26C393.52 1501.93 364.042 1525.51 329.525 1532.58C295.008 1539.66 258.63 1529.59 222.375 1505.22C186.119 1480.84 150.02 1442.2 116.099 1392.21C48.2579 1292.23 -10.8172 1146.97 -45.0219 980.136C-79.2267 813.3 -82.0754 656.517 -59.0482 537.91C-47.5343 478.605 -29.5561 428.87 -5.81474 392.198C17.9253 355.527 47.4037 331.951 81.9209 324.874C116.438 317.798 152.816 327.872 189.07 352.243C225.327 376.615 261.425 415.263 295.347 465.252C363.188 565.229 422.263 710.485 456.468 877.321Z" stroke="url(#paint53_linear_259_3566)" stroke-opacity="0.3"/>
<path d="M457.328 881.701C488.616 1049.11 488.728 1205.92 463.634 1324.11C451.087 1383.2 432.244 1432.61 407.866 1468.87C383.49 1505.12 353.604 1528.17 318.969 1534.65C284.333 1541.12 248.137 1530.41 212.313 1505.41C176.488 1480.41 141.069 1441.14 108.026 1390.57C41.9395 1289.42 -14.5915 1143.16 -45.8793 975.748C-77.1672 808.34 -77.2793 651.531 -52.1855 533.345C-39.6384 474.25 -20.795 424.836 3.58279 388.584C27.9592 352.333 57.8446 329.275 92.48 322.802C127.116 316.329 163.312 327.036 199.135 352.036C234.961 377.037 270.38 416.309 303.423 466.883C369.509 568.029 426.04 714.293 457.328 881.701Z" stroke="url(#paint54_linear_259_3566)" stroke-opacity="0.3"/>
<path d="M458.11 886.101C486.472 1054.03 483.847 1210.82 456.694 1328.55C443.118 1387.41 423.415 1436.49 398.408 1472.31C373.403 1508.13 343.12 1530.67 308.376 1536.53C273.633 1542.4 237.629 1531.06 202.247 1505.44C166.863 1479.82 132.136 1439.94 99.9798 1388.79C35.6691 1286.51 -18.3006 1139.28 -46.662 971.352C-75.0235 803.423 -72.3988 646.636 -45.2463 528.905C-31.6697 470.038 -11.9667 420.961 13.04 385.14C38.0453 349.32 68.3286 326.787 103.072 320.919C137.815 315.051 173.819 326.389 209.201 352.01C244.585 377.632 279.312 417.517 311.468 468.66C375.779 570.943 429.749 718.172 458.11 886.101Z" stroke="url(#paint55_linear_259_3566)" stroke-opacity="0.3"/>
<path d="M458.814 890.515C484.241 1058.91 478.88 1215.63 449.677 1332.87C435.075 1391.49 414.519 1440.22 388.891 1475.6C363.264 1510.97 332.592 1532.98 297.752 1538.24C262.911 1543.5 227.111 1531.53 192.182 1505.3C157.25 1479.06 123.224 1438.58 91.9654 1386.88C29.4495 1283.49 -21.9425 1135.34 -47.3688 966.944C-72.7951 798.545 -67.4346 641.828 -38.2315 524.589C-23.6297 465.968 -3.07316 417.242 22.5549 381.863C48.1816 346.485 78.8535 324.484 113.694 319.223C148.534 313.963 184.334 325.927 219.264 352.162C254.195 378.398 288.222 418.882 319.48 470.578C381.996 573.969 433.388 722.117 458.814 890.515Z" stroke="url(#paint56_linear_259_3566)" stroke-opacity="0.3"/>
<path d="M459.446 894.935C481.929 1063.75 473.834 1220.35 442.589 1337.06C426.967 1395.42 405.563 1443.78 379.321 1478.71C353.081 1513.63 322.03 1535.09 287.103 1539.75C252.176 1544.4 216.59 1531.81 182.124 1504.97C147.656 1478.13 114.341 1437.06 83.9897 1384.82C23.2878 1280.36 -25.5109 1131.33 -47.9944 962.517C-70.4779 793.701 -62.383 637.101 -31.1383 520.39C-15.5156 462.033 5.88814 413.673 32.1298 378.746C58.37 343.821 89.4212 322.358 124.348 317.707C159.275 313.055 194.861 325.643 229.327 352.483C263.795 379.324 297.11 420.396 327.462 472.63C388.163 577.096 436.962 726.119 459.446 894.935Z" stroke="url(#paint57_linear_259_3566)" stroke-opacity="0.3"/>
<path d="M459.993 899.373C479.527 1068.56 468.7 1224.99 435.423 1341.14C418.784 1399.21 396.54 1447.19 369.693 1481.66C342.847 1516.12 311.426 1537.04 276.423 1541.08C241.421 1545.12 206.06 1531.91 172.067 1504.47C138.072 1477.04 105.48 1435.39 76.0444 1382.63C17.175 1277.12 -29.0154 1127.27 -48.5492 958.089C-68.0831 788.906 -57.2564 632.471 -23.9795 516.323C-7.34075 458.247 14.9037 410.268 41.751 375.805C68.5967 341.343 100.018 320.425 135.02 316.384C170.023 312.343 205.384 325.549 239.377 352.987C273.371 380.426 305.964 422.073 335.399 474.829C394.269 580.338 440.459 730.19 459.993 899.373Z" stroke="url(#paint58_linear_259_3566)" stroke-opacity="0.3"/>
<path d="M460.467 903.811C477.045 1073.31 463.49 1229.53 428.191 1345.08C410.542 1402.86 387.463 1450.44 360.019 1484.43C332.575 1518.42 300.794 1538.78 265.726 1542.21C230.658 1545.64 195.533 1531.82 162.025 1503.8C128.514 1475.77 96.6533 1433.56 68.1432 1380.3C11.1241 1273.78 -32.444 1123.14 -49.0222 953.643C-65.6004 784.145 -52.0453 627.923 -16.7464 512.373C0.903411 454.597 23.9819 407.014 51.4265 373.024C78.8696 339.036 110.651 318.67 145.719 315.24C180.787 311.81 215.912 325.632 249.42 353.659C282.931 381.687 314.792 423.896 343.302 477.158C400.321 583.678 443.889 734.313 460.467 903.811Z" stroke="url(#paint59_linear_259_3566)" stroke-opacity="0.3"/>
<path d="M460.863 908.264C474.481 1078.03 458.201 1233.99 420.891 1348.9C402.236 1406.36 378.33 1453.54 350.297 1487.04C322.265 1520.55 290.133 1540.35 255.01 1543.17C219.888 1545.99 185.01 1531.56 151.995 1502.95C118.979 1474.34 87.8596 1431.58 60.2834 1377.83C5.13204 1270.33 -35.8005 1118.96 -49.418 949.196C-63.0355 779.435 -46.756 623.473 -9.44585 508.557C9.20959 451.097 33.115 403.924 61.1486 370.418C89.1807 336.914 121.313 317.106 156.435 314.289C191.557 311.472 226.436 325.904 259.45 354.512C292.466 383.12 323.586 425.88 351.162 479.63C406.313 587.13 447.246 738.502 460.863 908.264Z" stroke="url(#paint60_linear_259_3566)" stroke-opacity="0.3"/>
<path d="M461.183 912.717C471.836 1082.69 452.837 1238.34 413.527 1352.59C393.871 1409.72 369.146 1456.47 340.532 1489.48C311.92 1522.49 279.447 1541.73 244.281 1543.94C209.114 1546.14 174.493 1531.1 141.983 1501.92C109.471 1472.74 79.1028 1429.44 52.4688 1375.22C-0.797998 1266.77 -39.0825 1114.71 -49.7352 944.738C-60.3879 774.764 -41.3889 619.111 -2.0789 504.863C17.5765 447.738 42.3015 400.989 70.9156 367.978C99.5282 334.968 132.001 315.724 167.167 313.52C202.333 311.316 236.955 326.355 269.465 355.534C301.977 384.715 332.345 428.011 358.979 482.235C412.246 590.68 450.53 742.744 461.183 912.717Z" stroke="url(#paint61_linear_259_3566)" stroke-opacity="0.3"/>
<path d="M461.423 917.18C469.107 1087.31 447.395 1242.61 406.097 1356.16C385.447 1412.93 359.91 1459.24 330.724 1491.75C301.54 1524.25 268.737 1542.93 233.537 1544.52C198.338 1546.11 163.984 1530.47 131.988 1500.72C99.9908 1470.98 70.3827 1427.16 44.6991 1372.48C-6.66696 1263.12 -42.2917 1110.41 -49.9764 940.279C-57.661 770.146 -35.9484 614.848 5.34951 501.303C25.9989 444.53 51.536 398.22 80.7219 365.713C109.906 333.208 142.71 314.533 177.909 312.943C213.108 311.353 247.462 326.994 279.458 356.736C311.456 386.48 341.064 430.299 366.747 484.979C418.113 594.338 453.738 747.047 461.423 917.18Z" stroke="url(#paint62_linear_259_3566)" stroke-opacity="0.3"/>
<path d="M461.586 921.643C466.3 1091.88 441.881 1246.78 398.607 1359.59C376.97 1415.99 350.629 1461.85 320.88 1493.84C291.133 1525.83 258.008 1543.93 222.787 1544.91C187.565 1545.88 153.49 1529.64 122.018 1499.35C90.544 1469.05 61.7051 1424.72 36.9798 1369.6C-12.4699 1259.36 -45.4241 1106.05 -50.1383 935.813C-54.8526 765.571 -30.4329 610.675 12.8403 497.869C34.4774 441.465 60.8189 395.608 90.5676 363.615C120.315 331.624 153.439 313.525 188.661 312.549C223.883 311.574 257.958 327.812 289.43 358.108C320.904 388.405 349.743 432.735 374.468 487.855C423.918 598.094 456.872 751.401 461.586 921.643Z" stroke="url(#paint63_linear_259_3566)" stroke-opacity="0.3"/>
<path d="M461.67 926.111C463.413 1096.41 436.293 1250.85 391.058 1362.89C368.44 1418.91 341.302 1464.3 310.999 1495.77C280.698 1527.23 247.263 1544.75 212.03 1545.11C176.796 1545.47 143.01 1528.64 112.071 1497.8C81.1311 1466.96 53.0702 1422.13 29.3106 1366.59C-18.2076 1255.5 -48.4812 1101.65 -50.2236 931.348C-51.966 761.05 -24.8468 606.604 20.3886 494.57C43.0068 438.552 70.1446 393.161 100.447 361.693C130.748 330.226 164.183 312.707 199.417 312.347C234.65 311.986 268.437 328.817 299.375 359.657C330.316 390.499 358.376 435.325 382.136 490.869C429.654 601.954 459.928 755.813 461.67 926.111Z" stroke="url(#paint64_linear_259_3566)" stroke-opacity="0.3"/>
<path d="M461.678 930.576C460.448 1100.88 430.638 1254.83 383.454 1366.06C359.862 1421.67 331.936 1466.58 301.089 1497.52C270.243 1528.45 236.507 1545.38 201.273 1545.13C166.039 1544.87 132.551 1527.45 102.155 1496.08C71.758 1464.7 44.4838 1419.39 21.6972 1363.44C-23.8751 1251.55 -51.4589 1097.18 -50.2289 926.879C-48.9989 756.576 -19.1884 602.627 27.9954 491.4C51.5878 435.785 79.5136 390.875 110.361 359.94C141.206 329.006 174.942 312.074 210.177 312.329C245.411 312.583 278.899 330.001 309.294 361.377C339.691 392.754 366.966 438.063 389.752 494.012C435.324 605.91 462.908 760.274 461.678 930.576Z" stroke="url(#paint65_linear_259_3566)" stroke-opacity="0.3"/>
<path d="M461.606 935.042C457.404 1105.3 424.911 1258.7 375.793 1369.09C351.234 1424.28 322.529 1468.7 291.146 1499.09C259.766 1529.48 225.739 1545.82 190.515 1544.95C155.29 1544.08 122.111 1526.08 92.2682 1494.18C62.4233 1462.28 35.944 1416.5 14.1373 1360.16C-29.4752 1247.49 -54.3608 1092.67 -50.1588 922.411C-45.9568 752.156 -13.464 598.751 35.6538 488.364C60.2131 433.169 88.9185 388.753 120.301 358.361C151.682 327.971 185.708 311.63 220.932 312.499C256.157 313.369 289.336 331.368 319.179 363.27C349.024 395.173 375.503 440.951 397.31 497.289C440.922 609.965 465.808 764.787 461.606 935.042Z" stroke="url(#paint66_linear_259_3566)" stroke-opacity="0.3"/>
<path d="M461.458 939.509C454.286 1109.66 419.12 1262.48 368.084 1371.99C342.565 1426.75 313.089 1470.66 281.181 1500.5C249.274 1530.34 214.968 1546.08 179.764 1544.6C144.56 1543.11 111.7 1524.54 82.4184 1492.12C53.1349 1459.7 27.4585 1413.47 6.63842 1356.76C-35.001 1243.34 -57.1807 1088.1 -50.008 917.949C-42.8353 747.793 -7.6702 594.978 43.3666 485.465C68.8855 430.708 98.3617 386.799 130.27 356.96C162.176 327.122 196.482 311.377 231.686 312.861C266.89 314.345 299.75 332.921 329.032 365.338C358.315 397.757 383.992 443.991 404.812 500.701C446.451 614.121 468.631 769.353 461.458 939.509Z" stroke="url(#paint67_linear_259_3566)" stroke-opacity="0.3"/>
<path d="M461.231 943.968C451.09 1113.97 413.263 1266.15 360.323 1374.76C333.852 1429.06 303.614 1472.45 271.19 1501.73C238.768 1531 204.192 1546.15 169.019 1544.05C133.847 1541.95 101.316 1522.8 72.6045 1489.88C43.8912 1456.95 19.0256 1410.28 -0.801589 1353.21C-40.4552 1239.09 -59.9224 1083.49 -49.7812 913.485C-39.6399 743.48 -1.81314 591.302 51.1272 482.696C77.5979 428.392 107.836 385.005 140.26 355.727C172.682 326.451 207.258 311.307 242.431 313.405C277.603 315.503 310.134 334.65 338.845 367.573C367.559 400.499 392.424 447.173 412.251 504.238C451.905 618.367 471.372 773.963 461.231 943.968Z" stroke="url(#paint68_linear_259_3566)" stroke-opacity="0.3"/>
<path d="M460.925 948.429C447.819 1118.23 407.342 1269.73 352.514 1377.39C325.1 1431.22 294.109 1474.08 261.179 1502.78C228.251 1531.49 193.416 1546.03 158.286 1543.32C123.155 1540.61 90.9635 1520.89 62.8307 1487.47C34.6964 1454.05 10.6492 1406.95 -8.17904 1349.55C-45.8348 1234.75 -62.5835 1078.83 -49.4768 909.032C-36.3701 739.23 4.10676 587.735 58.9344 480.07C86.3488 426.237 117.339 383.384 150.269 354.676C183.197 325.97 218.032 311.432 253.163 314.144C288.294 316.855 320.485 336.567 348.618 369.986C376.752 403.407 400.799 450.508 419.628 507.911C457.283 622.715 474.032 778.627 460.925 948.429Z" stroke="url(#paint69_linear_259_3566)" stroke-opacity="0.3"/>
<path d="M460.543 952.878C444.475 1122.43 401.36 1273.19 344.662 1379.88C316.312 1433.23 284.579 1475.53 251.153 1503.66C217.729 1531.79 182.645 1545.72 147.567 1542.39C112.489 1539.07 80.6467 1518.8 53.1015 1484.89C25.5547 1450.99 2.33321 1403.47 -15.4903 1345.75C-51.1367 1230.31 -65.1619 1074.13 -49.0937 904.579C-33.0256 735.032 10.0891 584.267 66.7874 477.575C95.1372 424.228 126.871 381.923 160.297 353.794C193.721 325.667 228.804 311.739 263.882 315.063C298.96 318.388 330.803 338.658 358.348 372.563C385.895 406.471 409.116 453.984 426.94 511.707C462.586 627.15 476.611 783.331 460.543 952.878Z" stroke="url(#paint70_linear_259_3566)" stroke-opacity="0.3"/>
<path d="M460.084 957.319C441.059 1126.56 395.32 1276.55 336.768 1382.24C307.492 1435.08 275.025 1476.82 241.113 1504.37C207.203 1531.91 171.882 1545.22 136.867 1541.28C101.852 1537.35 70.3686 1516.52 43.4193 1482.14C16.4685 1447.76 -5.92025 1399.85 -22.7337 1341.82C-56.3599 1225.78 -67.6572 1069.37 -48.6325 900.133C-29.6078 730.892 16.1315 580.902 74.6833 475.216C103.96 422.372 136.427 380.627 170.339 353.086C204.249 325.546 239.57 312.233 274.584 316.169C309.599 320.105 341.083 340.928 368.032 375.309C394.983 409.692 417.372 457.603 434.185 515.628C467.811 631.676 479.109 788.078 460.084 957.319Z" stroke="url(#paint71_linear_259_3566)" stroke-opacity="0.3"/>
<path d="M459.545 961.754C437.57 1130.64 389.22 1279.81 328.832 1384.45C298.638 1436.78 265.447 1477.95 231.06 1504.9C196.675 1531.84 161.127 1544.53 126.186 1539.99C91.2453 1535.44 60.1297 1514.07 33.7845 1479.23C7.43789 1444.38 -14.1113 1396.08 -29.9095 1337.77C-61.5053 1221.16 -70.0712 1064.58 -48.0958 895.699C-26.1203 726.816 22.2297 577.647 82.617 472.999C112.811 420.674 146.002 379.502 180.389 352.557C214.775 325.613 250.323 312.918 285.264 317.465C320.204 322.012 351.32 343.381 377.665 378.227C404.012 413.075 425.561 461.37 441.359 519.679C472.955 636.296 481.521 792.871 459.545 961.754Z" stroke="url(#paint72_linear_259_3566)" stroke-opacity="0.3"/>
<path d="M458.931 966.183C434.011 1134.66 383.065 1282.96 320.861 1386.54C289.758 1438.33 255.853 1478.91 221.001 1505.25C186.151 1531.59 150.386 1543.67 115.531 1538.51C80.6746 1533.35 49.9366 1511.45 24.2036 1476.15C-1.53081 1440.84 -22.2338 1392.18 -37.012 1333.6C-66.5677 1216.45 -72.3997 1059.75 -47.4802 891.278C-22.5607 722.804 28.3853 574.502 90.5898 470.923C121.693 419.133 155.597 378.547 190.449 352.206C225.3 325.867 261.064 313.794 295.92 318.95C330.776 324.106 361.514 346.014 387.247 381.315C412.981 416.617 433.684 465.281 448.462 523.858C478.018 641.008 483.85 797.709 458.931 966.183Z" stroke="url(#paint73_linear_259_3566)" stroke-opacity="0.3"/>
<path d="M458.238 970.596C430.382 1138.61 376.855 1286 312.853 1388.48C280.851 1439.72 246.243 1479.7 210.937 1505.43C175.632 1531.16 139.662 1542.61 104.902 1536.84C70.141 1531.08 39.7901 1508.64 14.6771 1472.89C-10.4373 1437.15 -30.2879 1388.13 -44.0415 1329.3C-71.5482 1211.66 -74.6445 1054.88 -46.7885 886.864C-18.9325 718.851 34.594 571.46 98.5967 468.984C130.599 417.744 165.206 377.756 200.513 352.027C235.818 326.3 271.787 314.853 306.548 320.617C341.308 326.38 371.659 348.822 396.772 384.566C421.887 420.312 441.737 469.33 455.491 528.155C482.998 645.804 486.094 802.582 458.238 970.596Z" stroke="url(#paint74_linear_259_3566)" stroke-opacity="0.3"/>
<path d="M457.467 974.997C426.683 1142.5 370.592 1288.93 304.811 1390.28C271.92 1440.95 236.619 1480.33 200.869 1505.44C165.121 1530.54 128.957 1541.36 94.3021 1534.99C59.6473 1528.62 29.6927 1505.65 5.20731 1469.48C-19.2794 1433.3 -38.2715 1383.94 -50.9963 1324.89C-76.4455 1206.77 -76.8053 1049.97 -46.0213 882.464C-15.2373 714.963 40.8534 568.529 106.635 467.185C139.526 416.512 174.826 377.133 210.577 352.025C246.325 326.917 282.489 316.101 317.144 322.47C351.798 328.839 381.753 351.807 406.238 387.984C430.725 424.163 449.717 473.52 462.442 532.576C487.891 650.687 488.251 807.495 457.467 974.997Z" stroke="url(#paint75_linear_259_3566)" stroke-opacity="0.3"/>
<path d="M456.623 979.379C422.921 1146.32 364.283 1291.75 296.743 1391.93C262.972 1442.02 226.99 1480.78 190.807 1505.26C154.626 1529.74 118.279 1539.92 83.7404 1532.95C49.2021 1525.98 19.6529 1502.49 -4.19742 1465.89C-28.049 1429.29 -46.1768 1379.61 -57.869 1320.34C-81.253 1201.8 -78.876 1045.01 -45.1734 878.073C-11.4708 711.134 47.167 565.702 114.707 465.521C148.478 415.43 184.46 376.673 220.643 352.192C256.824 327.713 293.171 317.529 327.709 324.502C362.248 331.475 391.797 354.962 415.647 391.561C439.499 428.162 457.627 477.842 469.319 537.112C492.703 655.649 490.326 812.44 456.623 979.379Z" stroke="url(#paint76_linear_259_3566)" stroke-opacity="0.3"/>
<path d="M455.701 983.75C419.09 1150.08 357.923 1294.46 288.645 1393.45C254.005 1442.94 217.352 1481.07 180.747 1504.91C144.144 1528.76 107.625 1538.3 73.2137 1530.73C38.8023 1523.16 9.66746 1499.16 -13.5404 1462.15C-36.7496 1425.13 -54.0076 1375.15 -64.6636 1315.68C-85.9753 1196.75 -80.8623 1040.03 -44.2513 873.703C-7.64035 707.377 53.5266 562.99 122.805 464.004C157.445 414.509 194.097 376.387 230.702 352.541C267.305 328.697 303.824 319.149 338.236 326.723C372.647 334.298 401.782 358.297 424.99 395.307C448.199 432.319 465.457 482.308 476.113 541.773C497.425 660.7 492.312 817.425 455.701 983.75Z" stroke="url(#paint77_linear_259_3566)" stroke-opacity="0.3"/>
<path d="M454.701 988.106C415.193 1153.77 351.516 1297.06 280.521 1394.83C245.022 1443.71 207.71 1481.19 170.694 1504.39C133.681 1527.59 97.0005 1536.5 62.7265 1528.33C28.4526 1520.15 -0.25893 1495.65 -22.8174 1458.24C-45.3771 1420.83 -61.76 1370.55 -71.3766 1310.9C-90.6095 1191.62 -82.762 1035.01 -43.2539 869.35C-3.74568 703.689 59.9319 560.391 130.927 462.629C166.425 413.746 203.738 376.269 240.753 353.066C277.767 329.864 314.447 320.955 348.721 329.129C382.995 337.303 411.707 361.807 434.265 399.216C456.825 436.627 473.208 486.91 482.824 546.552C502.057 665.833 494.21 822.445 454.701 988.106Z" stroke="url(#paint78_linear_259_3566)" stroke-opacity="0.3"/>
<path d="M453.627 992.438C411.234 1157.38 345.065 1299.55 272.375 1396.06C236.029 1444.31 198.068 1481.13 160.653 1503.69C123.24 1526.24 86.4099 1534.51 52.2838 1525.74C18.1577 1516.96 -10.1218 1491.96 -32.0239 1454.17C-53.9273 1416.37 -69.4301 1365.81 -78.0044 1306.01C-95.1526 1186.41 -84.5731 1029.96 -42.1797 865.009C0.213599 700.063 66.3823 557.899 139.073 461.39C175.419 413.135 213.38 376.315 250.795 353.761C288.207 331.209 325.038 322.941 359.164 331.712C393.29 340.483 421.569 365.485 443.471 403.281C465.375 441.081 480.878 491.642 489.452 551.442C506.6 671.04 496.021 827.492 453.627 992.438Z" stroke="url(#paint79_linear_259_3566)" stroke-opacity="0.3"/>
<path d="M452.478 996.76C407.212 1160.94 338.572 1301.93 264.209 1397.15C227.026 1444.77 188.428 1480.92 150.625 1502.82C112.825 1524.71 75.856 1532.34 41.8882 1522.97C7.92038 1513.61 -19.9184 1488.12 -41.1576 1449.94C-62.3979 1411.77 -77.016 1360.94 -84.5453 1301C-99.6036 1181.12 -86.2953 1024.88 -41.0297 860.698C4.2359 696.517 72.8757 555.529 147.239 460.303C184.422 412.69 223.02 376.538 260.823 354.641C298.623 332.745 335.592 325.121 369.56 334.486C403.528 343.851 431.367 369.343 452.606 407.516C473.846 445.692 488.464 496.516 495.993 556.457C511.052 676.336 497.743 832.579 452.478 996.76Z" stroke="url(#paint80_linear_259_3566)" stroke-opacity="0.3"/>
<path d="M451.253 1001.05C403.129 1164.42 332.039 1304.19 256.025 1398.1C218.017 1445.06 178.794 1480.53 140.615 1501.77C102.438 1523 65.3416 1529.98 31.5425 1520.02C-2.25675 1510.06 -29.6464 1484.09 -50.2162 1445.55C-70.787 1407.01 -84.5158 1355.94 -90.9979 1295.88C-103.962 1175.75 -87.9285 1019.76 -39.8045 856.399C8.31957 693.032 79.4095 553.264 155.424 459.351C193.432 412.393 232.655 376.92 270.834 355.686C309.011 334.454 346.107 327.476 379.906 337.433C413.705 347.389 441.095 373.363 461.665 411.901C482.236 450.441 495.965 501.513 502.447 561.576C515.41 681.7 499.377 837.687 451.253 1001.05Z" stroke="url(#paint81_linear_259_3566)" stroke-opacity="0.3"/>
<path d="M449.954 1005.33C398.986 1167.83 325.467 1306.34 247.825 1398.91C209.004 1445.19 169.168 1479.98 130.624 1500.54C92.0822 1521.1 54.8698 1527.43 21.2495 1516.89C-12.3708 1506.34 -39.303 1479.9 -59.197 1441.01C-79.0921 1402.11 -91.9275 1350.81 -97.3604 1290.64C-108.226 1170.31 -89.4727 1014.63 -38.5048 852.124C12.463 689.623 85.9814 551.116 163.623 458.544C202.445 412.257 242.281 377.474 280.825 356.909C319.366 336.346 356.579 330.017 390.199 340.562C423.819 351.107 450.752 377.555 470.646 416.446C490.541 455.34 503.376 506.643 508.809 566.81C519.674 687.142 500.921 842.825 449.954 1005.33Z" stroke="url(#paint82_linear_259_3566)" stroke-opacity="0.3"/>
<path d="M448.579 1009.58C394.783 1171.16 318.858 1308.37 239.612 1399.57C199.989 1445.17 159.552 1479.25 120.655 1499.14C81.7603 1519.03 44.4431 1524.71 11.012 1513.58C-22.4192 1502.45 -48.8857 1475.54 -68.0979 1436.3C-87.3112 1397.07 -99.2493 1345.55 -103.631 1285.3C-112.395 1164.79 -90.9276 1009.46 -37.1315 847.873C16.6647 686.286 92.5891 549.084 171.835 457.881C211.458 412.278 251.895 378.196 290.792 358.307C329.687 338.42 367.004 332.741 400.435 343.871C433.866 355.001 460.333 381.915 479.545 421.147C498.758 460.382 510.697 511.902 515.078 572.155C523.842 692.658 502.375 847.99 448.579 1009.58Z" stroke="url(#paint83_linear_259_3566)" stroke-opacity="0.3"/>
<path d="M447.131 1013.81C390.523 1174.43 312.215 1310.29 231.39 1400.09C190.977 1445 149.951 1478.37 110.713 1497.57C71.4771 1516.78 34.0665 1521.81 0.83467 1510.09C-32.3971 1498.38 -58.3899 1471.01 -76.9145 1431.45C-95.4401 1391.89 -106.477 1340.17 -109.807 1279.85C-116.466 1159.21 -92.2913 1004.27 -35.6833 843.649C20.9247 683.026 99.2321 547.169 180.057 457.363C220.471 412.459 261.496 379.088 300.734 359.881C339.97 340.675 377.381 335.649 410.613 347.361C443.845 359.072 469.837 386.444 488.362 426.006C506.888 465.57 517.925 517.29 521.254 577.61C527.914 698.248 503.739 853.182 447.131 1013.81Z" stroke="url(#paint84_linear_259_3566)" stroke-opacity="0.3"/>
<path d="M445.61 1018.01C386.207 1177.62 305.541 1312.09 223.16 1400.47C181.969 1444.66 140.368 1477.31 100.8 1495.83C61.2352 1514.35 23.7426 1518.72 -9.27978 1506.43C-42.3021 1494.14 -67.8133 1466.32 -85.6446 1426.44C-103.477 1386.56 -113.61 1334.65 -115.886 1274.28C-120.439 1153.55 -93.5638 999.06 -34.1611 839.449C25.2416 679.838 105.908 545.369 188.288 456.987C229.479 412.795 271.081 380.145 310.648 361.626C350.213 343.108 387.706 338.735 420.728 351.025C453.751 363.315 479.262 391.136 497.093 431.015C514.926 470.897 525.058 522.801 527.335 583.17C531.888 703.906 505.012 858.395 445.61 1018.01Z" stroke="url(#paint85_linear_259_3566)" stroke-opacity="0.3"/>
<path d="M444.014 1022.18C381.835 1180.73 298.834 1313.77 214.924 1400.7C172.968 1444.16 130.802 1476.08 90.9178 1493.91C51.0356 1511.73 13.4723 1515.45 -19.3305 1502.59C-52.1333 1489.72 -77.155 1461.46 -94.2877 1421.28C-111.421 1381.09 -120.647 1329.02 -121.869 1268.62C-124.314 1147.82 -94.7468 993.824 -32.5676 835.274C29.6116 676.724 112.613 543.683 196.523 456.752C238.479 413.286 280.644 381.367 320.529 363.541C360.411 345.716 397.974 341.999 430.777 354.863C463.58 367.727 488.601 395.989 505.734 436.174C522.868 476.36 532.093 528.434 533.316 588.834C535.761 709.63 506.193 863.627 444.014 1022.18Z" stroke="url(#paint86_linear_259_3566)" stroke-opacity="0.3"/>
<path d="M442.347 1026.32C377.41 1183.76 292.1 1315.34 206.686 1400.79C163.978 1443.52 121.262 1474.69 81.072 1491.82C40.8848 1508.95 3.26234 1512.01 -29.311 1498.57C-61.8843 1485.14 -86.409 1456.44 -102.838 1415.97C-119.267 1375.49 -127.582 1323.26 -127.751 1262.85C-128.087 1142.03 -95.8367 988.572 -30.8998 831.131C34.037 673.69 119.347 542.118 204.762 456.665C247.47 413.938 290.186 382.759 330.375 365.632C370.563 348.506 408.185 345.445 440.758 358.88C473.332 372.315 497.856 401.009 514.285 441.486C530.715 481.966 539.03 534.192 539.198 594.604C539.535 715.425 507.284 868.882 442.347 1026.32Z" stroke="url(#paint87_linear_259_3566)" stroke-opacity="0.3"/>
<path d="M440.608 1030.44C372.933 1186.72 285.34 1316.79 198.447 1400.73C155 1442.71 111.746 1473.14 71.2637 1489.56C30.7837 1505.98 -6.88645 1508.39 -39.2203 1494.39C-71.5542 1480.38 -95.5744 1451.27 -111.294 1410.51C-127.015 1369.75 -134.417 1317.39 -133.531 1256.98C-131.759 1136.17 -96.8352 983.301 -29.1605 827.017C38.5142 670.733 126.108 540.67 213.001 456.721C256.448 414.746 299.702 384.317 340.184 367.894C380.664 351.472 418.334 349.068 450.668 363.069C483.002 377.071 507.022 406.189 522.742 446.946C538.462 487.707 545.865 540.07 544.979 600.476C543.206 721.284 508.283 874.155 440.608 1030.44Z" stroke="url(#paint88_linear_259_3566)" stroke-opacity="0.3"/>
<path d="M438.798 1034.52C368.406 1189.6 278.556 1318.12 190.211 1400.54C146.038 1441.75 102.26 1471.42 61.4973 1487.13C20.7369 1502.84 -16.9695 1504.59 -49.0541 1490.03C-81.1387 1475.46 -104.647 1445.93 -119.653 1404.9C-134.66 1363.88 -141.147 1311.39 -139.207 1251.01C-135.327 1130.25 -97.7405 978.013 -27.3486 822.934C43.0433 667.855 132.893 539.341 221.238 456.921C265.411 415.71 309.19 386.041 349.952 370.327C390.713 354.614 428.419 352.868 460.504 367.431C492.588 381.995 516.097 411.527 531.103 452.553C546.109 493.582 552.597 546.067 550.657 606.447C546.776 727.207 509.19 879.444 438.798 1034.52Z" stroke="url(#paint89_linear_259_3566)" stroke-opacity="0.3"/>
<path d="M436.916 1038.57C363.828 1192.4 271.749 1319.33 181.979 1400.19C137.094 1440.63 92.8043 1469.53 51.7735 1484.53C10.7451 1499.53 -26.9861 1500.61 -58.8116 1485.49C-90.6371 1470.37 -113.626 1440.43 -127.914 1399.15C-142.203 1357.87 -147.773 1305.28 -144.78 1244.94C-138.792 1124.27 -98.5547 972.707 -25.467 818.881C47.6207 665.054 139.7 538.127 229.47 457.262C274.355 416.828 318.645 387.928 359.675 372.928C400.704 357.929 438.435 356.84 470.261 371.961C502.086 387.083 525.075 417.021 539.363 458.303C553.652 499.587 559.222 552.177 556.229 612.515C550.241 733.188 510.004 884.746 436.916 1038.57Z" stroke="url(#paint90_linear_259_3566)" stroke-opacity="0.3"/>
<path d="M434.962 1042.59C359.201 1195.12 264.92 1320.42 173.753 1399.71C128.168 1439.35 83.3813 1467.48 42.095 1481.76C0.81101 1496.04 -36.9333 1496.47 -68.4901 1480.79C-100.047 1465.12 -122.51 1434.78 -136.075 1393.26C-149.641 1351.73 -154.293 1299.05 -150.247 1238.78C-142.154 1118.23 -99.2778 967.393 -23.5166 814.865C52.2446 662.337 146.525 537.037 237.692 457.75C283.277 418.106 328.064 389.983 369.35 375.701C410.634 361.421 448.378 360.991 479.935 376.665C511.492 392.34 533.955 422.675 547.521 464.199C561.086 505.727 565.738 558.406 561.692 618.682C553.599 739.232 510.723 890.066 434.962 1042.59Z" stroke="url(#paint91_linear_259_3566)" stroke-opacity="0.3"/>
<path d="M432.942 1046.58C354.53 1197.76 258.077 1321.39 165.54 1399.08C119.27 1437.92 73.9996 1465.26 32.4704 1478.82C-9.05661 1492.37 -46.8027 1492.14 -78.0811 1475.92C-109.36 1459.7 -131.29 1428.98 -144.128 1387.22C-156.967 1345.46 -160.699 1292.71 -155.601 1232.51C-145.406 1112.12 -99.9041 962.062 -21.4925 810.88C56.9191 659.698 153.372 536.062 245.909 458.378C292.179 419.536 337.45 392.199 378.979 378.64C420.506 365.081 458.252 365.311 489.53 381.533C520.809 397.756 542.739 428.479 555.578 470.234C568.417 511.991 572.148 564.744 567.051 624.94C556.856 745.331 511.353 895.393 432.942 1046.58Z" stroke="url(#paint92_linear_259_3566)" stroke-opacity="0.3"/>
<path d="M430.85 1050.52C349.812 1200.31 251.216 1322.25 157.337 1398.3C110.397 1436.33 64.6555 1462.87 22.8959 1475.71C-18.8613 1488.54 -56.5977 1487.65 -87.5882 1470.88C-118.579 1454.12 -139.97 1423.02 -152.077 1381.04C-164.186 1339.07 -166.996 1286.26 -160.849 1226.16C-148.554 1105.97 -100.44 956.722 -19.4016 806.931C61.6366 657.14 160.233 535.206 254.111 459.15C301.052 421.121 346.793 394.578 388.552 381.746C430.31 368.914 468.046 369.802 499.037 386.569C530.027 403.335 551.418 434.435 563.526 476.408C575.634 518.383 578.445 571.193 572.297 631.291C560.002 751.486 511.888 900.731 430.85 1050.52Z" stroke="url(#paint93_linear_259_3566)" stroke-opacity="0.3"/>
<path d="M428.689 1054.43C345.049 1202.78 244.34 1322.98 149.148 1397.39C101.551 1434.59 55.3537 1460.33 13.3765 1472.43C-28.5984 1484.53 -66.3135 1482.99 -97.0067 1465.68C-127.7 1448.38 -148.545 1416.91 -159.918 1374.73C-171.292 1332.55 -173.18 1279.7 -165.985 1219.72C-151.595 1099.76 -100.883 951.374 -17.2428 803.02C66.3972 654.666 167.106 534.472 262.298 460.065C309.895 422.861 356.092 397.121 398.07 385.019C440.044 372.919 477.76 374.465 508.453 391.77C539.146 409.074 559.991 440.543 571.364 482.721C582.738 524.901 584.626 577.752 577.431 637.734C563.041 757.695 512.329 906.078 428.689 1054.43Z" stroke="url(#paint94_linear_259_3566)" stroke-opacity="0.3"/>
<path d="M426.463 1058.3C340.246 1205.18 237.455 1323.59 140.979 1396.33C92.7399 1432.7 46.1004 1457.63 3.91838 1468.99C-38.2612 1480.36 -75.9436 1478.15 -106.33 1460.32C-136.717 1442.48 -157.009 1410.65 -167.645 1368.28C-178.281 1325.91 -179.246 1273.03 -171.005 1213.19C-154.523 1093.49 -101.23 946.02 -15.0134 799.148C71.203 652.277 173.994 533.858 270.47 461.125C318.709 424.757 365.349 399.827 407.531 388.46C449.71 377.093 487.393 379.298 517.779 397.135C548.166 414.973 568.458 446.801 579.094 489.171C589.73 531.543 590.696 584.418 582.455 644.266C565.973 763.958 512.679 911.432 426.463 1058.3Z" stroke="url(#paint95_linear_259_3566)" stroke-opacity="0.3"/>
<path d="M424.168 1062.14C335.401 1207.48 230.559 1324.09 132.828 1395.13C83.9618 1430.65 36.8943 1454.76 -5.47963 1465.39C-47.8512 1476.02 -85.4894 1473.16 -115.56 1454.79C-145.631 1436.43 -165.365 1404.25 -175.259 1361.7C-185.154 1319.15 -185.197 1266.26 -175.912 1206.57C-157.344 1087.18 -101.485 940.662 -12.7182 795.318C76.0483 649.973 180.891 533.367 278.621 462.328C327.488 426.807 374.555 402.695 416.929 392.066C459.301 381.437 496.939 384.299 527.009 402.664C557.08 421.029 576.814 453.207 586.708 495.756C596.603 538.307 596.646 591.191 587.362 650.886C568.794 770.272 512.934 916.794 424.168 1062.14Z" stroke="url(#paint96_linear_259_3566)" stroke-opacity="0.3"/>
<path d="M421.804 1065.93C330.515 1209.7 223.653 1324.46 124.698 1393.79C75.2187 1428.45 27.7376 1451.73 -14.8154 1461.62C-57.366 1471.51 -94.9485 1467.99 -124.694 1449.1C-154.44 1430.22 -173.609 1397.7 -182.759 1354.99C-191.91 1312.27 -191.03 1259.39 -180.705 1199.87C-160.056 1080.82 -101.648 935.299 -10.3585 791.526C80.9311 647.753 187.793 532.994 286.748 463.671C336.227 429.009 383.708 405.722 426.261 395.834C468.812 385.946 506.394 389.464 536.14 408.352C565.885 427.239 585.055 459.756 594.205 502.471C603.356 545.188 602.476 598.066 592.151 657.589C571.502 776.633 513.094 922.158 421.804 1065.93Z" stroke="url(#paint97_linear_259_3566)" stroke-opacity="0.3"/>
<path d="M419.38 1069.68C325.596 1211.84 216.748 1324.71 116.597 1392.3C66.5209 1426.09 18.6406 1448.55 -24.0785 1457.69C-66.7952 1466.83 -104.311 1462.66 -133.722 1443.26C-163.133 1423.85 -181.732 1391.01 -190.136 1348.14C-198.539 1305.27 -196.737 1252.41 -185.375 1193.08C-162.651 1074.41 -101.712 929.93 -7.92747 787.772C85.8575 645.615 194.705 532.738 294.856 465.153C344.932 431.36 392.812 408.904 435.531 399.761C478.248 390.617 515.764 394.791 545.175 414.194C574.586 433.598 593.185 466.444 601.589 509.313C609.992 552.183 608.19 605.037 596.828 664.371C574.104 783.036 513.165 927.52 419.38 1069.68Z" stroke="url(#paint98_linear_259_3566)" stroke-opacity="0.3"/>
<path d="M416.887 1073.39C320.635 1213.89 209.834 1324.85 108.519 1390.67C57.8608 1423.59 9.59584 1445.2 -33.2763 1453.6C-76.1461 1462 -113.583 1457.17 -142.651 1437.26C-171.719 1417.34 -189.742 1384.18 -197.396 1341.17C-205.051 1298.16 -202.326 1245.34 -189.93 1186.22C-165.139 1067.96 -101.688 924.566 -5.43605 784.067C90.8156 643.568 201.617 532.608 302.932 466.781C353.59 433.867 401.855 412.251 444.727 403.854C487.597 395.458 525.034 400.285 554.102 420.199C583.17 440.113 601.193 473.279 608.847 516.287C616.501 559.298 613.776 612.112 601.381 671.239C576.59 789.49 513.138 932.888 416.887 1073.39Z" stroke="url(#paint99_linear_259_3566)" stroke-opacity="0.3"/>
<defs>
<linearGradient id="paint0_linear_259_3566" x1="142.657" y1="1064.44" x2="273.574" y2="788.898" gradientUnits="userSpaceOnUse">
<stop stop-color="#DE701D"/>
<stop offset="1" stop-color="#121212"/>
</linearGradient>
<linearGradient id="paint1_linear_259_3566" x1="140.301" y1="1063.32" x2="276.006" y2="790.106" gradientUnits="userSpaceOnUse">
<stop stop-color="#DE701D"/>
<stop offset="1" stop-color="#121212"/>
</linearGradient>
<linearGradient id="paint2_linear_259_3566" x1="137.96" y1="1062.16" x2="278.413" y2="791.355" gradientUnits="userSpaceOnUse">
<stop stop-color="#DE701D"/>
<stop offset="1" stop-color="#121212"/>
</linearGradient>
<linearGradient id="paint3_linear_259_3566" x1="135.643" y1="1060.95" x2="280.8" y2="792.641" gradientUnits="userSpaceOnUse">
<stop stop-color="#DE701D"/>
<stop offset="1" stop-color="#121212"/>
</linearGradient>
<linearGradient id="paint4_linear_259_3566" x1="133.345" y1="1059.71" x2="283.163" y2="793.977" gradientUnits="userSpaceOnUse">
<stop stop-color="#DE701D"/>
<stop offset="1" stop-color="#121212"/>
</linearGradient>
<linearGradient id="paint5_linear_259_3566" x1="131.073" y1="1058.43" x2="285.505" y2="795.346" gradientUnits="userSpaceOnUse">
<stop stop-color="#DE701D"/>
<stop offset="1" stop-color="#121212"/>
</linearGradient>
<linearGradient id="paint6_linear_259_3566" x1="128.818" y1="1057.1" x2="287.819" y2="796.76" gradientUnits="userSpaceOnUse">
<stop stop-color="#DE701D"/>
<stop offset="1" stop-color="#121212"/>
</linearGradient>
<linearGradient id="paint7_linear_259_3566" x1="126.59" y1="1055.74" x2="290.11" y2="798.209" gradientUnits="userSpaceOnUse">
<stop stop-color="#DE701D"/>
<stop offset="1" stop-color="#121212"/>
</linearGradient>
<linearGradient id="paint8_linear_259_3566" x1="124.386" y1="1054.34" x2="292.376" y2="799.7" gradientUnits="userSpaceOnUse">
<stop stop-color="#DE701D"/>
<stop offset="1" stop-color="#121212"/>
</linearGradient>
<linearGradient id="paint9_linear_259_3566" x1="122.204" y1="1052.9" x2="294.613" y2="801.235" gradientUnits="userSpaceOnUse">
<stop stop-color="#DE701D"/>
<stop offset="1" stop-color="#121212"/>
</linearGradient>
<linearGradient id="paint10_linear_259_3566" x1="120.052" y1="1051.42" x2="296.826" y2="802.806" gradientUnits="userSpaceOnUse">
<stop stop-color="#DE701D"/>
<stop offset="1" stop-color="#121212"/>
</linearGradient>
<linearGradient id="paint11_linear_259_3566" x1="117.925" y1="1049.91" x2="299.011" y2="804.415" gradientUnits="userSpaceOnUse">
<stop stop-color="#DE701D"/>
<stop offset="1" stop-color="#121212"/>
</linearGradient>
<linearGradient id="paint12_linear_259_3566" x1="115.822" y1="1048.36" x2="301.165" y2="806.062" gradientUnits="userSpaceOnUse">
<stop stop-color="#DE701D"/>
<stop offset="1" stop-color="#121212"/>
</linearGradient>
<linearGradient id="paint13_linear_259_3566" x1="113.747" y1="1046.77" x2="303.29" y2="807.746" gradientUnits="userSpaceOnUse">
<stop stop-color="#DE701D"/>
<stop offset="1" stop-color="#121212"/>
</linearGradient>
<linearGradient id="paint14_linear_259_3566" x1="111.701" y1="1045.15" x2="305.388" y2="809.471" gradientUnits="userSpaceOnUse">
<stop stop-color="#DE701D"/>
<stop offset="1" stop-color="#121212"/>
</linearGradient>
<linearGradient id="paint15_linear_259_3566" x1="109.683" y1="1043.49" x2="307.453" y2="811.224" gradientUnits="userSpaceOnUse">
<stop stop-color="#DE701D"/>
<stop offset="1" stop-color="#121212"/>
</linearGradient>
<linearGradient id="paint16_linear_259_3566" x1="107.696" y1="1041.8" x2="309.489" y2="813.019" gradientUnits="userSpaceOnUse">
<stop stop-color="#DE701D"/>
<stop offset="1" stop-color="#121212"/>
</linearGradient>
<linearGradient id="paint17_linear_259_3566" x1="105.737" y1="1040.07" x2="311.492" y2="814.85" gradientUnits="userSpaceOnUse">
<stop stop-color="#DE701D"/>
<stop offset="1" stop-color="#121212"/>
</linearGradient>
<linearGradient id="paint18_linear_259_3566" x1="103.808" y1="1038.31" x2="313.463" y2="816.711" gradientUnits="userSpaceOnUse">
<stop stop-color="#DE701D"/>
<stop offset="1" stop-color="#121212"/>
</linearGradient>
<linearGradient id="paint19_linear_259_3566" x1="101.912" y1="1036.51" x2="315.403" y2="818.608" gradientUnits="userSpaceOnUse">
<stop stop-color="#DE701D"/>
<stop offset="1" stop-color="#121212"/>
</linearGradient>
<linearGradient id="paint20_linear_259_3566" x1="100.047" y1="1034.69" x2="317.307" y2="820.54" gradientUnits="userSpaceOnUse">
<stop stop-color="#DE701D"/>
<stop offset="1" stop-color="#121212"/>
</linearGradient>
<linearGradient id="paint21_linear_259_3566" x1="98.2128" y1="1032.82" x2="319.178" y2="822.503" gradientUnits="userSpaceOnUse">
<stop stop-color="#DE701D"/>
<stop offset="1" stop-color="#121212"/>
</linearGradient>
<linearGradient id="paint22_linear_259_3566" x1="96.4132" y1="1030.93" x2="321.015" y2="824.497" gradientUnits="userSpaceOnUse">
<stop stop-color="#DE701D"/>
<stop offset="1" stop-color="#121212"/>
</linearGradient>
<linearGradient id="paint23_linear_259_3566" x1="94.6458" y1="1029.01" x2="322.816" y2="826.526" gradientUnits="userSpaceOnUse">
<stop stop-color="#DE701D"/>
<stop offset="1" stop-color="#121212"/>
</linearGradient>
<linearGradient id="paint24_linear_259_3566" x1="92.9128" y1="1027.05" x2="324.582" y2="828.585" gradientUnits="userSpaceOnUse">
<stop stop-color="#DE701D"/>
<stop offset="1" stop-color="#121212"/>
</linearGradient>
<linearGradient id="paint25_linear_259_3566" x1="91.214" y1="1025.07" x2="326.312" y2="830.675" gradientUnits="userSpaceOnUse">
<stop stop-color="#DE701D"/>
<stop offset="1" stop-color="#121212"/>
</linearGradient>
<linearGradient id="paint26_linear_259_3566" x1="89.5519" y1="1023.06" x2="328.007" y2="832.796" gradientUnits="userSpaceOnUse">
<stop stop-color="#DE701D"/>
<stop offset="1" stop-color="#121212"/>
</linearGradient>
<linearGradient id="paint27_linear_259_3566" x1="87.9226" y1="1021.01" x2="329.662" y2="834.943" gradientUnits="userSpaceOnUse">
<stop stop-color="#DE701D"/>
<stop offset="1" stop-color="#121212"/>
</linearGradient>
<linearGradient id="paint28_linear_259_3566" x1="86.3285" y1="1018.95" x2="331.278" y2="837.121" gradientUnits="userSpaceOnUse">
<stop stop-color="#DE701D"/>
<stop offset="1" stop-color="#121212"/>
</linearGradient>
<linearGradient id="paint29_linear_259_3566" x1="84.7718" y1="1016.85" x2="332.857" y2="839.325" gradientUnits="userSpaceOnUse">
<stop stop-color="#DE701D"/>
<stop offset="1" stop-color="#121212"/>
</linearGradient>
<linearGradient id="paint30_linear_259_3566" x1="83.253" y1="1014.72" x2="334.399" y2="841.557" gradientUnits="userSpaceOnUse">
<stop stop-color="#DE701D"/>
<stop offset="1" stop-color="#121212"/>
</linearGradient>
<linearGradient id="paint31_linear_259_3566" x1="81.7722" y1="1012.57" x2="335.902" y2="843.813" gradientUnits="userSpaceOnUse">
<stop stop-color="#DE701D"/>
<stop offset="1" stop-color="#121212"/>
</linearGradient>
<linearGradient id="paint32_linear_259_3566" x1="80.3282" y1="1010.4" x2="337.364" y2="846.103" gradientUnits="userSpaceOnUse">
<stop stop-color="#DE701D"/>
<stop offset="1" stop-color="#121212"/>
</linearGradient>
<linearGradient id="paint33_linear_259_3566" x1="78.9194" y1="1008.19" x2="338.784" y2="848.411" gradientUnits="userSpaceOnUse">
<stop stop-color="#DE701D"/>
<stop offset="1" stop-color="#121212"/>
</linearGradient>
<linearGradient id="paint34_linear_259_3566" x1="77.5524" y1="1005.97" x2="340.166" y2="850.746" gradientUnits="userSpaceOnUse">
<stop stop-color="#DE701D"/>
<stop offset="1" stop-color="#121212"/>
</linearGradient>
<linearGradient id="paint35_linear_259_3566" x1="76.2254" y1="1003.72" x2="341.508" y2="853.103" gradientUnits="userSpaceOnUse">
<stop stop-color="#DE701D"/>
<stop offset="1" stop-color="#121212"/>
</linearGradient>
<linearGradient id="paint36_linear_259_3566" x1="74.9335" y1="1001.45" x2="342.804" y2="855.487" gradientUnits="userSpaceOnUse">
<stop stop-color="#DE701D"/>
<stop offset="1" stop-color="#121212"/>
</linearGradient>
<linearGradient id="paint37_linear_259_3566" x1="73.6869" y1="999.158" x2="344.064" y2="857.891" gradientUnits="userSpaceOnUse">
<stop stop-color="#DE701D"/>
<stop offset="1" stop-color="#121212"/>
</linearGradient>
<linearGradient id="paint38_linear_259_3566" x1="72.4786" y1="996.838" x2="345.28" y2="860.311" gradientUnits="userSpaceOnUse">
<stop stop-color="#DE701D"/>
<stop offset="1" stop-color="#121212"/>
</linearGradient>
<linearGradient id="paint39_linear_259_3566" x1="71.3093" y1="994.505" x2="346.452" y2="862.76" gradientUnits="userSpaceOnUse">
<stop stop-color="#DE701D"/>
<stop offset="1" stop-color="#121212"/>
</linearGradient>
<linearGradient id="paint40_linear_259_3566" x1="70.1796" y1="992.153" x2="347.58" y2="865.23" gradientUnits="userSpaceOnUse">
<stop stop-color="#DE701D"/>
<stop offset="1" stop-color="#121212"/>
</linearGradient>
<linearGradient id="paint41_linear_259_3566" x1="69.0945" y1="989.773" x2="348.668" y2="867.711" gradientUnits="userSpaceOnUse">
<stop stop-color="#DE701D"/>
<stop offset="1" stop-color="#121212"/>
</linearGradient>
<linearGradient id="paint42_linear_259_3566" x1="68.0506" y1="987.377" x2="349.711" y2="870.213" gradientUnits="userSpaceOnUse">
<stop stop-color="#DE701D"/>
<stop offset="1" stop-color="#121212"/>
</linearGradient>
<linearGradient id="paint43_linear_259_3566" x1="67.0489" y1="984.966" x2="350.712" y2="872.735" gradientUnits="userSpaceOnUse">
<stop stop-color="#DE701D"/>
<stop offset="1" stop-color="#121212"/>
</linearGradient>
<linearGradient id="paint44_linear_259_3566" x1="66.0883" y1="982.541" x2="351.666" y2="875.277" gradientUnits="userSpaceOnUse">
<stop stop-color="#DE701D"/>
<stop offset="1" stop-color="#121212"/>
</linearGradient>
<linearGradient id="paint45_linear_259_3566" x1="65.1677" y1="980.095" x2="352.574" y2="877.832" gradientUnits="userSpaceOnUse">
<stop stop-color="#DE701D"/>
<stop offset="1" stop-color="#121212"/>
</linearGradient>
<linearGradient id="paint46_linear_259_3566" x1="64.292" y1="977.633" x2="353.44" y2="880.401" gradientUnits="userSpaceOnUse">
<stop stop-color="#DE701D"/>
<stop offset="1" stop-color="#121212"/>
</linearGradient>
<linearGradient id="paint47_linear_259_3566" x1="63.4622" y1="975.157" x2="354.263" y2="882.986" gradientUnits="userSpaceOnUse">
<stop stop-color="#DE701D"/>
<stop offset="1" stop-color="#121212"/>
</linearGradient>
<linearGradient id="paint48_linear_259_3566" x1="62.6734" y1="972.669" x2="355.038" y2="885.588" gradientUnits="userSpaceOnUse">
<stop stop-color="#DE701D"/>
<stop offset="1" stop-color="#121212"/>
</linearGradient>
<linearGradient id="paint49_linear_259_3566" x1="61.9265" y1="970.165" x2="355.767" y2="888.2" gradientUnits="userSpaceOnUse">
<stop stop-color="#DE701D"/>
<stop offset="1" stop-color="#121212"/>
</linearGradient>
<linearGradient id="paint50_linear_259_3566" x1="61.2267" y1="967.648" x2="356.452" y2="890.823" gradientUnits="userSpaceOnUse">
<stop stop-color="#DE701D"/>
<stop offset="1" stop-color="#121212"/>
</linearGradient>
<linearGradient id="paint51_linear_259_3566" x1="60.569" y1="965.121" x2="357.091" y2="893.461" gradientUnits="userSpaceOnUse">
<stop stop-color="#DE701D"/>
<stop offset="1" stop-color="#121212"/>
</linearGradient>
<linearGradient id="paint52_linear_259_3566" x1="59.9565" y1="962.581" x2="357.684" y2="896.107" gradientUnits="userSpaceOnUse">
<stop stop-color="#DE701D"/>
<stop offset="1" stop-color="#121212"/>
</linearGradient>
<linearGradient id="paint53_linear_259_3566" x1="59.3866" y1="960.034" x2="358.228" y2="898.766" gradientUnits="userSpaceOnUse">
<stop stop-color="#DE701D"/>
<stop offset="1" stop-color="#121212"/>
</linearGradient>
<linearGradient id="paint54_linear_259_3566" x1="58.8641" y1="957.472" x2="358.73" y2="901.428" gradientUnits="userSpaceOnUse">
<stop stop-color="#DE701D"/>
<stop offset="1" stop-color="#121212"/>
</linearGradient>
<linearGradient id="paint55_linear_259_3566" x1="58.3844" y1="954.906" x2="359.182" y2="904.104" gradientUnits="userSpaceOnUse">
<stop stop-color="#DE701D"/>
<stop offset="1" stop-color="#121212"/>
</linearGradient>
<linearGradient id="paint56_linear_259_3566" x1="57.9487" y1="952.333" x2="359.587" y2="906.789" gradientUnits="userSpaceOnUse">
<stop stop-color="#DE701D"/>
<stop offset="1" stop-color="#121212"/>
</linearGradient>
<linearGradient id="paint57_linear_259_3566" x1="57.562" y1="949.748" x2="359.95" y2="909.475" gradientUnits="userSpaceOnUse">
<stop stop-color="#DE701D"/>
<stop offset="1" stop-color="#121212"/>
</linearGradient>
<linearGradient id="paint58_linear_259_3566" x1="57.214" y1="947.163" x2="360.258" y2="912.174" gradientUnits="userSpaceOnUse">
<stop stop-color="#DE701D"/>
<stop offset="1" stop-color="#121212"/>
</linearGradient>
<linearGradient id="paint59_linear_259_3566" x1="56.9156" y1="944.565" x2="360.525" y2="914.87" gradientUnits="userSpaceOnUse">
<stop stop-color="#DE701D"/>
<stop offset="1" stop-color="#121212"/>
</linearGradient>
<linearGradient id="paint60_linear_259_3566" x1="56.6621" y1="941.968" x2="360.743" y2="917.576" gradientUnits="userSpaceOnUse">
<stop stop-color="#DE701D"/>
<stop offset="1" stop-color="#121212"/>
</linearGradient>
<linearGradient id="paint61_linear_259_3566" x1="56.4549" y1="939.362" x2="360.915" y2="920.281" gradientUnits="userSpaceOnUse">
<stop stop-color="#DE701D"/>
<stop offset="1" stop-color="#121212"/>
</linearGradient>
<linearGradient id="paint62_linear_259_3566" x1="56.2913" y1="936.758" x2="361.038" y2="922.993" gradientUnits="userSpaceOnUse">
<stop stop-color="#DE701D"/>
<stop offset="1" stop-color="#121212"/>
</linearGradient>
<linearGradient id="paint63_linear_259_3566" x1="56.1746" y1="934.147" x2="361.116" y2="925.702" gradientUnits="userSpaceOnUse">
<stop stop-color="#DE701D"/>
<stop offset="1" stop-color="#121212"/>
</linearGradient>
<linearGradient id="paint64_linear_259_3566" x1="56.1023" y1="931.537" x2="361.144" y2="928.416" gradientUnits="userSpaceOnUse">
<stop stop-color="#DE701D"/>
<stop offset="1" stop-color="#121212"/>
</linearGradient>
<linearGradient id="paint65_linear_259_3566" x1="56.0775" y1="928.924" x2="361.127" y2="931.127" gradientUnits="userSpaceOnUse">
<stop stop-color="#DE701D"/>
<stop offset="1" stop-color="#121212"/>
</linearGradient>
<linearGradient id="paint66_linear_259_3566" x1="56.0957" y1="926.311" x2="361.061" y2="933.838" gradientUnits="userSpaceOnUse">
<stop stop-color="#DE701D"/>
<stop offset="1" stop-color="#121212"/>
</linearGradient>
<linearGradient id="paint67_linear_259_3566" x1="56.1622" y1="923.703" x2="360.949" y2="936.551" gradientUnits="userSpaceOnUse">
<stop stop-color="#DE701D"/>
<stop offset="1" stop-color="#121212"/>
</linearGradient>
<linearGradient id="paint68_linear_259_3566" x1="56.2725" y1="921.091" x2="360.789" y2="939.256" gradientUnits="userSpaceOnUse">
<stop stop-color="#DE701D"/>
<stop offset="1" stop-color="#121212"/>
</linearGradient>
<linearGradient id="paint69_linear_259_3566" x1="56.4279" y1="918.487" x2="360.581" y2="941.964" gradientUnits="userSpaceOnUse">
<stop stop-color="#DE701D"/>
<stop offset="1" stop-color="#121212"/>
</linearGradient>
<linearGradient id="paint70_linear_259_3566" x1="56.6299" y1="915.882" x2="360.327" y2="944.663" gradientUnits="userSpaceOnUse">
<stop stop-color="#DE701D"/>
<stop offset="1" stop-color="#121212"/>
</linearGradient>
<linearGradient id="paint71_linear_259_3566" x1="56.8777" y1="913.279" x2="360.026" y2="947.356" gradientUnits="userSpaceOnUse">
<stop stop-color="#DE701D"/>
<stop offset="1" stop-color="#121212"/>
</linearGradient>
<linearGradient id="paint72_linear_259_3566" x1="57.169" y1="910.684" x2="359.677" y2="950.047" gradientUnits="userSpaceOnUse">
<stop stop-color="#DE701D"/>
<stop offset="1" stop-color="#121212"/>
</linearGradient>
<linearGradient id="paint73_linear_259_3566" x1="57.507" y1="908.098" x2="359.281" y2="952.734" gradientUnits="userSpaceOnUse">
<stop stop-color="#DE701D"/>
<stop offset="1" stop-color="#121212"/>
</linearGradient>
<linearGradient id="paint74_linear_259_3566" x1="57.8891" y1="905.514" x2="358.839" y2="955.41" gradientUnits="userSpaceOnUse">
<stop stop-color="#DE701D"/>
<stop offset="1" stop-color="#121212"/>
</linearGradient>
<linearGradient id="paint75_linear_259_3566" x1="58.3149" y1="902.938" x2="358.348" y2="958.079" gradientUnits="userSpaceOnUse">
<stop stop-color="#DE701D"/>
<stop offset="1" stop-color="#121212"/>
</linearGradient>
<linearGradient id="paint76_linear_259_3566" x1="58.7896" y1="900.365" x2="357.814" y2="960.734" gradientUnits="userSpaceOnUse">
<stop stop-color="#DE701D"/>
<stop offset="1" stop-color="#121212"/>
</linearGradient>
<linearGradient id="paint77_linear_259_3566" x1="59.3068" y1="897.805" x2="357.233" y2="963.384" gradientUnits="userSpaceOnUse">
<stop stop-color="#DE701D"/>
<stop offset="1" stop-color="#121212"/>
</linearGradient>
<linearGradient id="paint78_linear_259_3566" x1="59.8678" y1="895.256" x2="356.604" y2="966.024" gradientUnits="userSpaceOnUse">
<stop stop-color="#DE701D"/>
<stop offset="1" stop-color="#121212"/>
</linearGradient>
<linearGradient id="paint79_linear_259_3566" x1="60.4741" y1="892.712" x2="355.93" y2="968.647" gradientUnits="userSpaceOnUse">
<stop stop-color="#DE701D"/>
<stop offset="1" stop-color="#121212"/>
</linearGradient>
<linearGradient id="paint80_linear_259_3566" x1="61.1251" y1="890.187" x2="355.21" y2="971.268" gradientUnits="userSpaceOnUse">
<stop stop-color="#DE701D"/>
<stop offset="1" stop-color="#121212"/>
</linearGradient>
<linearGradient id="paint81_linear_259_3566" x1="61.82" y1="887.666" x2="354.445" y2="973.867" gradientUnits="userSpaceOnUse">
<stop stop-color="#DE701D"/>
<stop offset="1" stop-color="#121212"/>
</linearGradient>
<linearGradient id="paint82_linear_259_3566" x1="62.5585" y1="885.161" x2="353.635" y2="976.456" gradientUnits="userSpaceOnUse">
<stop stop-color="#DE701D"/>
<stop offset="1" stop-color="#121212"/>
</linearGradient>
<linearGradient id="paint83_linear_259_3566" x1="63.3399" y1="882.669" x2="352.779" y2="979.03" gradientUnits="userSpaceOnUse">
<stop stop-color="#DE701D"/>
<stop offset="1" stop-color="#121212"/>
</linearGradient>
<linearGradient id="paint84_linear_259_3566" x1="64.1655" y1="880.193" x2="351.879" y2="981.591" gradientUnits="userSpaceOnUse">
<stop stop-color="#DE701D"/>
<stop offset="1" stop-color="#121212"/>
</linearGradient>
<linearGradient id="paint85_linear_259_3566" x1="65.0348" y1="877.73" x2="350.934" y2="984.133" gradientUnits="userSpaceOnUse">
<stop stop-color="#DE701D"/>
<stop offset="1" stop-color="#121212"/>
</linearGradient>
<linearGradient id="paint86_linear_259_3566" x1="65.945" y1="875.28" x2="349.944" y2="986.657" gradientUnits="userSpaceOnUse">
<stop stop-color="#DE701D"/>
<stop offset="1" stop-color="#121212"/>
</linearGradient>
<linearGradient id="paint87_linear_259_3566" x1="66.8996" y1="872.85" x2="348.912" y2="989.167" gradientUnits="userSpaceOnUse">
<stop stop-color="#DE701D"/>
<stop offset="1" stop-color="#121212"/>
</linearGradient>
<linearGradient id="paint88_linear_259_3566" x1="67.896" y1="870.437" x2="347.835" y2="991.657" gradientUnits="userSpaceOnUse">
<stop stop-color="#DE701D"/>
<stop offset="1" stop-color="#121212"/>
</linearGradient>
<linearGradient id="paint89_linear_259_3566" x1="68.9353" y1="868.041" x2="346.716" y2="994.129" gradientUnits="userSpaceOnUse">
<stop stop-color="#DE701D"/>
<stop offset="1" stop-color="#121212"/>
</linearGradient>
<linearGradient id="paint90_linear_259_3566" x1="70.015" y1="865.661" x2="345.553" y2="996.578" gradientUnits="userSpaceOnUse">
<stop stop-color="#DE701D"/>
<stop offset="1" stop-color="#121212"/>
</linearGradient>
<linearGradient id="paint91_linear_259_3566" x1="71.1344" y1="863.305" x2="344.346" y2="999.01" gradientUnits="userSpaceOnUse">
<stop stop-color="#DE701D"/>
<stop offset="1" stop-color="#121212"/>
</linearGradient>
<linearGradient id="paint92_linear_259_3566" x1="72.2988" y1="860.964" x2="343.1" y2="1001.42" gradientUnits="userSpaceOnUse">
<stop stop-color="#DE701D"/>
<stop offset="1" stop-color="#121212"/>
</linearGradient>
<linearGradient id="paint93_linear_259_3566" x1="73.5013" y1="858.645" x2="341.81" y2="1003.8" gradientUnits="userSpaceOnUse">
<stop stop-color="#DE701D"/>
<stop offset="1" stop-color="#121212"/>
</linearGradient>
<linearGradient id="paint94_linear_259_3566" x1="74.7433" y1="856.347" x2="340.478" y2="1006.17" gradientUnits="userSpaceOnUse">
<stop stop-color="#DE701D"/>
<stop offset="1" stop-color="#121212"/>
</linearGradient>
<linearGradient id="paint95_linear_259_3566" x1="76.0281" y1="854.073" x2="339.107" y2="1008.51" gradientUnits="userSpaceOnUse">
<stop stop-color="#DE701D"/>
<stop offset="1" stop-color="#121212"/>
</linearGradient>
<linearGradient id="paint96_linear_259_3566" x1="77.3508" y1="851.822" x2="337.695" y2="1010.82" gradientUnits="userSpaceOnUse">
<stop stop-color="#DE701D"/>
<stop offset="1" stop-color="#121212"/>
</linearGradient>
<linearGradient id="paint97_linear_259_3566" x1="78.7107" y1="849.594" x2="336.24" y2="1013.11" gradientUnits="userSpaceOnUse">
<stop stop-color="#DE701D"/>
<stop offset="1" stop-color="#121212"/>
</linearGradient>
<linearGradient id="paint98_linear_259_3566" x1="80.1147" y1="847.386" x2="334.751" y2="1015.38" gradientUnits="userSpaceOnUse">
<stop stop-color="#DE701D"/>
<stop offset="1" stop-color="#121212"/>
</linearGradient>
<linearGradient id="paint99_linear_259_3566" x1="81.5523" y1="845.208" x2="333.218" y2="1017.62" gradientUnits="userSpaceOnUse">
<stop stop-color="#DE701D"/>
<stop offset="1" stop-color="#121212"/>
</linearGradient>
</defs>
</svg>
