<svg width="158" height="18" viewBox="0 0 158 18" fill="none" xmlns="http://www.w3.org/2000/svg">
<path d="M0.517813 17V4.04H2.98381V9.368H8.76181V4.04H11.2278V17H8.76181V11.654H2.98381V17H0.517813ZM19.3161 17.27C18.3441 17.27 17.4681 17.108 16.6881 16.784C15.9141 16.46 15.2571 16.001 14.7171 15.407C14.1771 14.813 13.7601 14.102 13.4661 13.274C13.1781 12.446 13.0341 11.528 13.0341 10.52C13.0341 9.512 13.1781 8.594 13.4661 7.766C13.7601 6.938 14.1771 6.227 14.7171 5.633C15.2571 5.039 15.9141 4.58 16.6881 4.256C17.4681 3.932 18.3441 3.77 19.3161 3.77C20.2881 3.77 21.1611 3.932 21.9351 4.256C22.7151 4.58 23.3751 5.039 23.9151 5.633C24.4551 6.227 24.8691 6.938 25.1571 7.766C25.4511 8.594 25.5981 9.512 25.5981 10.52C25.5981 11.528 25.4511 12.446 25.1571 13.274C24.8691 14.102 24.4551 14.813 23.9151 15.407C23.3751 16.001 22.7151 16.46 21.9351 16.784C21.1611 17.108 20.2881 17.27 19.3161 17.27ZM19.3161 14.966C19.9341 14.966 20.4741 14.861 20.9361 14.651C21.3981 14.441 21.7821 14.144 22.0881 13.76C22.3941 13.37 22.6221 12.902 22.7721 12.356C22.9281 11.804 23.0061 11.192 23.0061 10.52C23.0061 9.842 22.9281 9.23 22.7721 8.684C22.6221 8.138 22.3941 7.673 22.0881 7.289C21.7821 6.899 21.3981 6.599 20.9361 6.389C20.4741 6.179 19.9341 6.074 19.3161 6.074C18.6981 6.074 18.1581 6.179 17.6961 6.389C17.2341 6.599 16.8501 6.899 16.5441 7.289C16.2381 7.673 16.0071 8.138 15.8511 8.684C15.7011 9.23 15.6261 9.842 15.6261 10.52C15.6261 11.192 15.7011 11.804 15.8511 12.356C16.0071 12.902 16.2381 13.37 16.5441 13.76C16.8501 14.144 17.2341 14.441 17.6961 14.651C18.1581 14.861 18.6981 14.966 19.3161 14.966ZM32.5428 17H27.3948V4.04H32.4078C33.0018 4.04 33.5598 4.112 34.0818 4.256C34.6098 4.4 35.0688 4.616 35.4588 4.904C35.8488 5.186 36.1578 5.543 36.3858 5.975C36.6138 6.401 36.7278 6.899 36.7278 7.469C36.7278 7.889 36.6678 8.261 36.5478 8.585C36.4338 8.903 36.2868 9.179 36.1068 9.413C35.9328 9.641 35.7408 9.824 35.5308 9.962C35.3208 10.1 35.1198 10.199 34.9278 10.259C35.1738 10.301 35.4258 10.397 35.6838 10.547C35.9478 10.697 36.1878 10.901 36.4038 11.159C36.6198 11.411 36.7968 11.723 36.9348 12.095C37.0788 12.461 37.1508 12.887 37.1508 13.373C37.1508 14.003 37.0278 14.549 36.7818 15.011C36.5358 15.467 36.2028 15.842 35.7828 16.136C35.3628 16.43 34.8738 16.649 34.3158 16.793C33.7578 16.931 33.1668 17 32.5428 17ZM32.4618 6.326H29.8608V9.197H32.4618C32.7078 9.197 32.9388 9.176 33.1548 9.134C33.3768 9.086 33.5688 9.008 33.7308 8.9C33.8928 8.792 34.0188 8.648 34.1088 8.468C34.2048 8.282 34.2528 8.048 34.2528 7.766C34.2528 7.484 34.2048 7.25 34.1088 7.064C34.0188 6.878 33.8928 6.731 33.7308 6.623C33.5688 6.515 33.3768 6.44 33.1548 6.398C32.9388 6.35 32.7078 6.326 32.4618 6.326ZM32.5428 14.714C32.8068 14.714 33.0678 14.696 33.3258 14.66C33.5838 14.618 33.8148 14.54 34.0188 14.426C34.2228 14.306 34.3878 14.138 34.5138 13.922C34.6398 13.706 34.7028 13.424 34.7028 13.076C34.7028 12.728 34.6398 12.449 34.5138 12.239C34.3878 12.023 34.2228 11.858 34.0188 11.744C33.8148 11.624 33.5838 11.546 33.3258 11.51C33.0678 11.468 32.8068 11.447 32.5428 11.447H29.8608V14.714H32.5428ZM41.4096 8.432H44.1636C44.9556 8.432 45.6456 8.528 46.2336 8.72C46.8276 8.912 47.3166 9.194 47.7006 9.566C48.0906 9.932 48.3816 10.379 48.5736 10.907C48.7656 11.435 48.8616 12.038 48.8616 12.716C48.8616 13.388 48.7656 13.991 48.5736 14.525C48.3816 15.053 48.0906 15.503 47.7006 15.875C47.3166 16.241 46.8276 16.52 46.2336 16.712C45.6456 16.904 44.9556 17 44.1636 17H38.9436V4.04H41.4096V8.432ZM44.1456 14.714C44.8896 14.714 45.4506 14.546 45.8286 14.21C46.2066 13.868 46.3956 13.37 46.3956 12.716C46.3956 12.062 46.2066 11.567 45.8286 11.231C45.4506 10.889 44.8896 10.718 44.1456 10.718H41.4096V14.714H44.1456ZM50.5896 17V4.04H53.0556V17H50.5896ZM60.8285 2.96C60.3065 2.96 59.8265 2.834 59.3885 2.582C58.9505 2.324 58.6025 1.976 58.3445 1.538C58.0925 1.1 57.9665 0.619999 57.9665 0.0979987H59.8565C59.8565 0.277999 59.8985 0.442999 59.9825 0.592999C60.0725 0.736999 60.1895 0.853999 60.3335 0.944C60.4835 1.028 60.6485 1.07 60.8285 1.07C61.0085 1.07 61.1705 1.028 61.3145 0.944C61.4645 0.853999 61.5815 0.736999 61.6655 0.592999C61.7555 0.442999 61.8005 0.277999 61.8005 0.0979987H63.6905C63.6905 0.619999 63.5615 1.1 63.3035 1.538C63.0515 1.976 62.7065 2.324 62.2685 2.582C61.8305 2.834 61.3505 2.96 60.8285 2.96ZM63.7085 17V8.27L58.0385 17H55.5725V4.04H58.0385V12.77L63.7085 4.04H66.1745V17H63.7085ZM77.4193 17.27C76.4413 17.27 75.5683 17.12 74.8003 16.82C74.0383 16.52 73.3933 16.067 72.8653 15.461C72.3373 14.855 71.9353 14.096 71.6593 13.184L74.0533 12.59C74.2033 13.058 74.4313 13.472 74.7373 13.832C75.0433 14.192 75.4063 14.471 75.8263 14.669C76.2523 14.867 76.7143 14.966 77.2123 14.966C77.2303 14.966 77.2453 14.966 77.2573 14.966C77.8393 14.954 78.3793 14.84 78.8773 14.624C79.3753 14.408 79.7773 14.09 80.0833 13.67C80.2993 13.394 80.4703 13.088 80.5963 12.752C80.7223 12.41 80.8153 12.044 80.8753 11.654H75.9793V9.368H80.8933C80.7853 8.702 80.5723 8.12 80.2543 7.622C79.9423 7.118 79.5373 6.734 79.0393 6.47C78.5413 6.206 77.9743 6.074 77.3383 6.074C77.3143 6.074 77.2873 6.074 77.2573 6.074C76.7233 6.08 76.2373 6.185 75.7993 6.389C75.3613 6.593 74.9893 6.881 74.6833 7.253C74.3833 7.625 74.1613 8.06 74.0173 8.558L71.5693 8.216C71.7853 7.28 72.1573 6.479 72.6853 5.813C73.2133 5.147 73.8763 4.64 74.6743 4.292C75.4783 3.944 76.3933 3.77 77.4193 3.77C78.6553 3.77 79.7353 4.052 80.6593 4.616C81.5833 5.18 82.2943 5.972 82.7923 6.992C83.2903 8.012 83.5393 9.188 83.5393 10.52C83.5393 11.786 83.2903 12.932 82.7923 13.958C82.3003 14.984 81.5923 15.794 80.6683 16.388C79.7443 16.976 78.6613 17.27 77.4193 17.27ZM84.0807 14.957C84.2727 15.005 84.4377 15.029 84.5757 15.029C84.8697 15.029 85.1127 14.948 85.3047 14.786C85.4967 14.624 85.6527 14.396 85.7727 14.102C85.8927 13.808 85.9797 13.46 86.0337 13.058C86.0937 12.65 86.1327 12.2 86.1507 11.708C86.1747 11.216 86.1867 10.691 86.1867 10.133C86.1867 9.575 86.1867 8.999 86.1867 8.405V4.04H95.5017V17H93.0357V6.326H88.4637V10.475C88.4637 11.375 88.4277 12.167 88.3557 12.851C88.2837 13.535 88.1817 14.129 88.0497 14.633C87.9177 15.137 87.7587 15.557 87.5727 15.893C87.3927 16.229 87.1917 16.499 86.9697 16.703C86.7477 16.907 86.5077 17.051 86.2497 17.135C85.9917 17.225 85.7247 17.27 85.4487 17.27C85.2267 17.27 85.0017 17.246 84.7737 17.198C84.5457 17.156 84.3147 17.099 84.0807 17.027V14.957ZM98.0237 17V4.04H106.502V6.326H100.49V9.098H105.422V11.384H100.49V14.714H106.502V17H98.0237ZM108.658 17V4.04H111.124L115.138 12.329L119.152 4.04H121.618V17H119.152V8.9L116.155 15.101H114.121L111.124 8.9V17H108.658ZM124.145 17V4.04H132.623V6.326H126.611V9.098H131.543V11.384H126.611V14.714H132.623V17H124.145ZM134.78 17V4.04H137.246V9.368H143.024V4.04H145.49V17H143.024V11.654H137.246V17H134.78ZM150.869 17V6.326H147.062V4.04H157.142V6.326H153.335V17H150.869Z" fill="#121212"/>
</svg>
