<svg width="612" height="1242" viewBox="0 0 612 1242" fill="none" xmlns="http://www.w3.org/2000/svg">
<path d="M856.007 583.777C880.772 740.134 876.842 885.842 850.484 995.015C837.304 1049.6 818.523 1095.03 794.938 1128.09C771.354 1161.15 742.988 1181.81 710.634 1186.94C678.279 1192.06 644.918 1181.18 612.272 1157.02C579.625 1132.87 547.724 1095.47 518.322 1047.62C459.517 951.94 410.753 814.578 385.989 658.22C361.224 501.862 365.154 356.155 391.512 246.982C404.692 192.394 423.473 146.963 447.058 113.903C470.642 80.8451 499.008 60.1856 531.362 55.0611C563.717 49.9367 597.078 60.8197 629.724 84.9719C662.371 109.125 694.272 146.529 723.674 194.372C782.479 290.057 831.243 427.419 856.007 583.777Z" stroke="url(#paint0_linear_294_16834)" stroke-opacity="0.3" stroke-width="0.896949"/>
<path d="M856.619 587.884C878.651 744.65 872.178 890.267 843.919 998.964C829.789 1053.31 810.218 1098.41 786.059 1131.05C761.902 1163.69 733.18 1183.86 700.741 1188.41C668.302 1192.97 635.136 1181.51 602.917 1156.79C570.696 1132.07 539.453 1094.12 510.89 1045.77C453.764 949.072 407.405 810.88 385.373 654.114C363.341 497.347 369.813 351.73 398.073 243.034C412.203 188.685 431.774 143.589 455.933 110.945C480.09 78.3038 508.812 58.1424 541.251 53.5834C573.69 49.0244 606.856 60.488 639.075 85.2063C671.296 109.926 702.539 147.881 731.102 196.23C788.228 292.926 834.587 431.118 856.619 587.884Z" stroke="url(#paint1_linear_294_16834)" stroke-opacity="0.3" stroke-width="0.896949"/>
<path d="M857.16 591.999C876.453 749.126 867.44 894.608 837.288 1002.79C822.212 1056.89 801.857 1101.64 777.132 1133.85C752.408 1166.07 723.339 1185.73 690.825 1189.72C658.312 1193.71 625.35 1181.67 593.568 1156.39C561.783 1131.11 531.207 1092.62 503.492 1043.78C448.063 946.101 404.123 807.121 384.83 649.994C365.537 492.867 374.55 347.385 404.702 239.199C419.779 185.105 440.134 140.357 464.859 108.14C489.582 75.9251 518.651 56.268 551.165 52.2759C583.679 48.2837 616.64 60.3244 648.423 85.6012C680.207 110.879 710.783 149.374 738.498 198.214C793.927 295.892 837.868 434.872 857.16 591.999Z" stroke="url(#paint2_linear_294_16834)" stroke-opacity="0.3" stroke-width="0.896949"/>
<path d="M857.632 596.126C874.18 753.566 862.629 898.868 830.593 1006.51C814.575 1060.34 793.442 1104.72 768.159 1136.5C742.877 1168.28 713.469 1187.43 680.891 1190.85C648.312 1194.27 615.566 1181.66 584.23 1155.83C552.891 1130 522.992 1090.98 496.133 1041.67C442.417 943.034 400.909 803.309 384.361 645.869C367.814 488.43 379.365 343.127 411.4 235.483C427.418 181.66 448.551 137.275 473.835 105.494C499.117 73.7158 528.525 54.5691 561.103 51.145C593.681 47.7208 626.427 60.3349 657.764 86.1626C689.102 111.992 719.002 151.014 745.86 200.33C799.576 298.961 841.085 438.687 857.632 596.126Z" stroke="url(#paint3_linear_294_16834)" stroke-opacity="0.3" stroke-width="0.896949"/>
<path d="M858.027 600.263C871.825 757.968 857.74 903.046 823.83 1010.11C806.875 1063.65 784.971 1107.66 759.137 1138.99C733.304 1170.33 703.567 1188.96 670.933 1191.81C638.3 1194.67 605.779 1181.48 574.898 1155.11C544.015 1128.74 514.802 1089.2 488.808 1039.43C436.821 939.872 397.758 799.443 383.961 641.739C370.163 484.034 384.248 338.956 418.157 231.887C435.112 178.352 457.017 134.342 482.851 103.008C508.684 71.6751 538.421 53.0445 571.054 50.1895C603.688 47.3344 636.208 60.5181 667.09 86.8888C697.973 113.261 727.186 152.799 753.18 202.577C805.166 302.13 844.23 442.559 858.027 600.263Z" stroke="url(#paint4_linear_294_16834)" stroke-opacity="0.3" stroke-width="0.896949"/>
<path d="M858.354 604.399C869.397 762.32 852.783 907.13 817.01 1013.59C799.123 1066.82 776.454 1110.44 750.077 1141.32C723.701 1172.2 693.643 1190.31 660.965 1192.59C628.287 1194.88 596.001 1181.13 565.585 1154.22C535.167 1127.32 506.648 1087.27 481.527 1037.05C431.286 936.604 394.679 795.515 383.636 637.594C372.593 479.673 389.208 334.862 424.981 228.402C442.867 175.171 465.536 131.55 491.914 100.671C518.289 69.7942 548.347 51.6854 581.025 49.4004C613.703 47.1153 645.989 60.8645 676.405 87.7701C706.823 114.677 735.343 154.719 760.464 204.943C810.705 305.388 847.311 446.477 858.354 604.399Z" stroke="url(#paint5_linear_294_16834)" stroke-opacity="0.3" stroke-width="0.896949"/>
<path d="M858.609 608.546C866.894 766.635 847.754 911.134 810.129 1016.95C791.316 1069.86 767.889 1113.08 740.977 1143.5C714.066 1173.91 683.697 1191.49 650.984 1193.2C618.271 1194.92 586.23 1180.61 556.288 1153.18C526.344 1125.74 498.528 1085.21 474.288 1034.55C425.807 933.247 391.668 791.541 383.383 633.451C375.098 475.361 394.238 330.863 431.863 225.043C450.676 172.132 474.103 128.913 501.015 98.4996C527.925 68.0878 558.295 50.5064 591.008 48.792C623.721 47.0775 655.762 61.3881 685.704 88.8205C715.647 116.254 743.464 156.788 767.704 207.442C816.185 308.749 850.323 450.456 858.609 608.546Z" stroke="url(#paint6_linear_294_16834)" stroke-opacity="0.3" stroke-width="0.896949"/>
<path d="M858.791 612.694C864.316 770.904 842.657 915.047 803.191 1020.19C783.457 1072.77 759.28 1115.57 731.841 1145.51C704.404 1175.45 673.732 1192.5 640.994 1193.64C608.256 1194.78 576.47 1179.92 547.011 1151.97C517.551 1124.01 490.446 1083 467.093 1031.93C420.389 929.793 388.728 787.512 383.203 629.302C377.678 471.091 399.337 326.949 438.803 221.802C458.537 169.227 482.714 126.424 510.153 96.4847C537.59 66.5471 568.262 49.4984 601 48.3552C633.738 47.2119 665.524 62.0795 694.983 90.0303C724.443 117.982 751.548 158.995 774.901 210.065C821.605 312.203 853.266 454.483 858.791 612.694Z" stroke="url(#paint7_linear_294_16834)" stroke-opacity="0.3" stroke-width="0.896949"/>
<path d="M858.904 616.845C861.667 775.127 837.496 918.87 796.201 1023.31C775.553 1075.53 750.632 1117.91 722.675 1147.36C694.719 1176.82 663.754 1193.33 631.002 1193.9C598.249 1194.47 566.727 1179.05 537.76 1150.59C508.792 1122.13 482.408 1080.65 459.95 1029.18C415.034 926.244 385.862 783.432 383.099 625.15C380.336 466.867 404.507 323.124 445.802 218.682C466.45 166.46 491.371 124.085 519.328 94.6293C547.284 65.1752 578.249 48.6644 611.001 48.0927C643.754 47.521 675.276 62.9411 704.243 91.4016C733.211 119.864 759.595 161.343 782.053 212.813C826.969 315.75 856.141 458.562 858.904 616.845Z" stroke="url(#paint8_linear_294_16834)" stroke-opacity="0.3" stroke-width="0.896949"/>
<path d="M858.935 620.995C858.935 779.302 832.26 922.601 789.148 1026.31C767.591 1078.16 741.935 1120.09 713.468 1149.06C685.002 1178.02 653.754 1193.99 620.997 1193.99C588.239 1193.99 556.991 1178.02 528.525 1149.06C500.058 1120.09 474.402 1078.16 452.845 1026.31C409.734 922.601 383.058 779.302 383.058 620.995C383.058 462.688 409.734 319.389 452.845 215.684C474.402 163.83 500.059 121.896 528.525 92.9328C556.991 63.971 588.239 48.0032 620.997 48.0032C653.754 48.0032 685.003 63.9711 713.468 92.9328C741.935 121.896 767.591 163.83 789.148 215.684C832.26 319.389 858.935 462.688 858.935 620.995Z" stroke="url(#paint9_linear_294_16834)" stroke-opacity="0.3" stroke-width="0.896949"/>
<path d="M858.898 625.15C856.135 783.433 826.962 926.245 782.047 1029.18C759.589 1080.65 733.205 1122.13 704.237 1150.59C675.27 1179.05 643.748 1194.47 610.995 1193.9C578.242 1193.33 547.278 1176.82 519.322 1147.37C491.365 1117.91 466.444 1075.53 445.796 1023.31C404.501 918.87 380.33 775.128 383.093 616.845C385.856 458.562 415.028 315.751 459.944 212.813C482.402 161.344 508.786 119.864 537.754 91.4022C566.721 62.9416 598.243 47.5215 630.995 48.0932C663.748 48.6649 694.713 65.1757 722.668 94.6299C750.626 124.086 775.546 166.461 796.195 218.683C837.49 323.125 861.661 466.868 858.898 625.15Z" stroke="url(#paint10_linear_294_16834)" stroke-opacity="0.3" stroke-width="0.896949"/>
<path d="M858.791 629.3C853.266 787.511 821.605 929.791 774.9 1031.93C751.547 1083 724.443 1124.01 694.983 1151.96C665.524 1179.91 633.738 1194.78 601 1193.64C568.262 1192.5 537.59 1175.45 510.153 1145.51C482.714 1115.57 458.536 1072.77 438.803 1020.19C399.337 915.045 377.678 770.903 383.203 612.692C388.728 454.482 420.388 312.201 467.093 210.064C490.446 158.994 517.551 117.981 547.011 90.0288C576.47 62.0781 608.256 47.2105 640.994 48.3538C673.732 49.497 704.404 66.5457 731.841 96.4833C759.28 126.422 783.457 169.226 803.191 221.8C842.657 326.947 864.316 471.09 858.791 629.3Z" stroke="url(#paint11_linear_294_16834)" stroke-opacity="0.3" stroke-width="0.896949"/>
<path d="M858.609 633.451C850.324 791.54 816.185 933.247 767.705 1034.55C743.464 1085.21 715.648 1125.74 685.704 1153.18C655.762 1180.61 623.721 1194.92 591.008 1193.2C558.295 1191.49 527.926 1173.91 501.015 1143.5C474.103 1113.08 450.676 1069.86 431.863 1016.95C394.238 911.134 375.098 766.635 383.384 608.545C391.669 450.455 425.808 308.749 474.288 207.442C498.529 156.787 526.345 116.254 556.288 88.8198C586.231 61.3875 618.271 47.0769 650.984 48.7913C683.697 50.5057 714.067 68.0871 740.977 98.4989C767.89 128.912 791.316 172.131 810.129 225.042C847.755 330.862 866.894 475.361 858.609 633.451Z" stroke="url(#paint12_linear_294_16834)" stroke-opacity="0.3" stroke-width="0.896949"/>
<path d="M858.356 637.594C847.313 795.516 810.706 936.605 760.465 1037.05C735.344 1087.27 706.825 1127.32 676.407 1154.22C645.991 1181.13 613.705 1194.88 581.027 1192.59C548.349 1190.31 518.291 1172.2 491.915 1141.32C465.538 1110.44 442.869 1066.82 424.982 1013.59C389.209 907.131 372.595 762.32 383.638 604.399C394.681 446.478 431.287 305.389 481.528 204.943C506.649 154.719 535.169 114.677 565.587 87.7704C596.003 60.8648 628.289 47.1156 660.967 49.4007C693.645 51.6857 723.703 69.7945 750.079 100.671C776.456 131.55 799.125 175.171 817.011 228.402C852.784 334.863 869.399 479.673 858.356 637.594Z" stroke="url(#paint13_linear_294_16834)" stroke-opacity="0.3" stroke-width="0.896949"/>
<path d="M858.027 641.734C844.23 799.438 805.166 939.867 753.18 1039.42C727.186 1089.2 697.972 1128.74 667.089 1155.11C636.208 1181.48 603.687 1194.66 571.054 1191.81C538.421 1188.95 508.684 1170.32 482.851 1138.99C457.016 1107.65 435.112 1063.64 418.157 1010.11C384.248 903.041 370.163 757.963 383.96 600.258C397.758 442.554 436.821 302.125 488.808 202.572C514.801 152.794 544.015 113.256 574.898 86.8838C605.779 60.5132 638.3 47.3295 670.933 50.1845C703.566 53.0396 733.304 71.6701 759.137 103.003C784.971 134.337 806.875 178.347 823.83 231.882C857.739 338.951 871.824 484.029 858.027 641.734Z" stroke="url(#paint14_linear_294_16834)" stroke-opacity="0.3" stroke-width="0.896949"/>
<path d="M857.633 645.866C841.086 803.306 799.577 943.031 745.861 1041.66C719.003 1090.98 689.104 1130 657.765 1155.83C626.428 1181.66 593.682 1194.27 561.104 1190.85C528.526 1187.42 499.118 1168.28 473.836 1136.5C448.552 1104.72 427.419 1060.33 411.401 1006.51C379.366 898.865 367.815 753.563 384.363 596.123C400.91 438.683 442.419 298.958 496.135 200.327C522.993 151.01 552.892 111.988 584.231 86.1593C615.568 60.3316 648.314 47.7175 680.892 51.1416C713.47 54.5658 742.878 73.7125 768.16 105.491C793.444 137.271 814.577 181.657 830.595 235.48C862.63 343.124 874.181 488.426 857.633 645.866Z" stroke="url(#paint15_linear_294_16834)" stroke-opacity="0.3" stroke-width="0.896949"/>
<path d="M857.16 649.993C837.867 807.12 793.927 946.099 738.498 1043.78C710.783 1092.62 680.207 1131.11 648.422 1156.39C616.64 1181.67 583.678 1193.71 551.165 1189.72C518.651 1185.72 489.582 1166.07 464.858 1133.85C440.133 1101.64 419.778 1056.89 404.702 1002.79C374.55 894.606 365.537 749.125 384.83 591.998C404.123 434.871 448.063 295.891 503.492 198.213C531.207 149.372 561.783 110.878 593.568 85.6C625.35 60.3231 658.312 48.2824 690.825 52.2746C723.339 56.2668 752.408 75.9238 777.132 108.139C801.857 140.355 822.212 185.103 837.288 239.198C867.44 347.384 876.453 492.866 857.16 649.993Z" stroke="url(#paint16_linear_294_16834)" stroke-opacity="0.3" stroke-width="0.896949"/>
<path d="M856.616 654.112C834.583 810.879 788.224 949.07 731.099 1045.77C702.535 1094.12 671.292 1132.07 639.072 1156.79C606.852 1181.51 573.686 1192.97 541.247 1188.41C508.808 1183.85 480.086 1163.69 455.929 1131.05C431.77 1098.41 412.199 1053.31 398.069 998.962C369.81 890.266 363.337 744.649 385.369 587.883C407.401 431.117 453.761 292.925 510.886 196.229C539.449 147.88 570.692 109.925 602.913 85.2051C635.132 60.4867 668.298 49.0232 700.737 53.5822C733.176 58.1412 761.898 78.3026 786.056 110.944C810.215 143.587 829.786 188.684 843.916 243.033C872.175 351.729 878.648 497.346 856.616 654.112Z" stroke="url(#paint17_linear_294_16834)" stroke-opacity="0.3" stroke-width="0.896949"/>
<path d="M856.006 658.218C831.241 814.576 782.477 951.938 723.673 1047.62C694.27 1095.47 662.369 1132.87 629.722 1157.02C597.077 1181.18 563.715 1192.06 531.361 1186.93C499.006 1181.81 470.641 1161.15 447.057 1128.09C423.471 1095.03 404.69 1049.6 391.511 995.013C365.153 885.84 361.222 740.132 385.987 583.775C410.752 427.417 459.516 290.055 518.32 194.371C547.723 146.527 579.624 109.124 612.271 84.97C644.916 60.8177 678.278 49.9347 710.632 55.0592C742.987 60.1836 771.352 80.8432 794.936 113.901C818.522 146.961 837.303 192.392 850.482 246.98C876.84 356.153 880.771 501.86 856.006 658.218Z" stroke="url(#paint18_linear_294_16834)" stroke-opacity="0.3" stroke-width="0.896949"/>
<path d="M855.321 662.317C827.832 818.218 776.678 954.708 716.212 1049.35C685.979 1096.67 653.431 1133.52 620.367 1157.1C587.305 1180.67 553.758 1190.97 521.498 1185.29C489.238 1179.6 461.238 1158.45 438.234 1124.98C415.229 1091.51 397.244 1045.76 385.019 990.954C360.571 881.337 359.184 735.583 386.673 579.681C414.163 423.779 465.317 287.29 525.782 192.646C556.016 145.323 588.564 108.482 621.628 84.9018C654.69 61.323 688.236 51.0239 720.496 56.7122C752.757 62.4005 780.757 83.552 803.761 117.017C826.766 150.483 844.751 196.235 856.976 251.044C881.424 360.661 882.811 506.415 855.321 662.317Z" stroke="url(#paint19_linear_294_16834)" stroke-opacity="0.3" stroke-width="0.896949"/>
<path d="M854.561 666.397C824.355 821.796 770.827 957.372 708.719 1050.95C677.664 1097.73 644.478 1134 611.007 1157C577.539 1180 543.818 1189.71 511.662 1183.46C479.506 1177.21 451.879 1155.57 429.463 1121.71C407.045 1087.85 389.862 1041.79 378.595 986.776C356.064 876.75 357.221 730.994 387.427 575.595C417.633 420.197 471.162 284.621 533.269 191.047C564.324 144.259 597.511 107.991 630.981 84.992C664.449 61.9937 698.17 52.2817 730.326 58.5321C762.482 64.7826 790.109 86.4196 812.525 120.281C834.943 154.144 852.127 200.202 863.393 255.217C885.925 365.243 884.768 510.999 854.561 666.397Z" stroke="url(#paint20_linear_294_16834)" stroke-opacity="0.3" stroke-width="0.896949"/>
<path d="M853.733 670.466C820.82 825.314 764.933 959.935 701.202 1052.41C669.336 1098.65 635.521 1134.33 601.654 1156.74C567.79 1179.16 533.904 1188.28 501.862 1181.47C469.82 1174.66 442.575 1152.54 420.753 1118.29C398.93 1084.04 382.553 1037.69 372.248 982.49C351.64 872.087 355.341 726.373 388.255 571.526C421.169 416.678 477.055 282.057 540.786 189.581C572.653 143.342 606.467 107.659 640.334 85.2476C674.199 62.837 708.084 53.7149 740.126 60.5256C772.168 67.3364 799.413 89.4521 821.235 123.699C843.058 157.948 859.435 204.3 869.74 259.502C890.348 369.905 886.647 515.619 853.733 670.466Z" stroke="url(#paint21_linear_294_16834)" stroke-opacity="0.3" stroke-width="0.896949"/>
<path d="M852.839 674.518C817.227 828.767 759 962.393 693.664 1053.74C660.996 1099.42 626.564 1134.51 592.311 1156.32C558.06 1178.14 524.021 1186.67 492.103 1179.3C460.185 1171.93 433.33 1149.34 412.109 1114.72C390.887 1080.1 375.321 1033.46 365.982 978.091C347.303 867.345 353.546 721.718 389.158 567.469C424.769 413.219 482.996 279.594 548.332 188.244C581 142.569 615.433 107.481 649.685 85.6641C683.936 63.8479 717.975 55.3186 749.893 62.6875C781.812 70.0564 808.667 92.6443 829.888 127.267C851.109 161.892 866.676 208.522 876.015 263.896C894.693 374.642 888.45 520.269 852.839 674.518Z" stroke="url(#paint22_linear_294_16834)" stroke-opacity="0.3" stroke-width="0.896949"/>
<path d="M851.867 678.562C813.569 832.167 753.019 964.756 686.099 1054.95C652.638 1100.05 617.599 1134.53 582.971 1155.75C548.345 1176.96 514.162 1184.9 482.377 1176.97C450.592 1169.05 424.135 1145.99 403.522 1111.01C382.908 1076.02 368.158 1029.12 359.786 973.592C343.044 862.537 351.827 717.041 390.125 563.437C428.423 409.833 488.974 277.244 555.894 187.048C589.354 141.95 624.394 107.469 659.022 86.2524C693.648 65.0373 727.831 57.1033 759.616 65.0281C791.4 72.953 817.857 96.0061 838.471 130.994C859.085 165.984 873.835 212.879 882.206 268.407C898.949 379.462 890.165 524.958 851.867 678.562Z" stroke="url(#paint23_linear_294_16834)" stroke-opacity="0.3" stroke-width="0.896949"/>
<path d="M850.827 682.578C809.854 835.49 746.999 967.002 678.515 1056.02C644.272 1100.52 608.637 1134.39 573.643 1155C538.652 1175.6 504.336 1182.94 472.694 1174.46C441.053 1165.98 415.002 1142.47 395.003 1107.13C375.002 1071.79 361.073 1024.64 353.672 968.974C338.87 857.644 350.192 712.324 391.164 559.411C432.137 406.499 494.993 274.987 563.476 185.973C597.719 141.465 633.355 107.601 668.348 86.9923C703.339 66.3848 737.655 59.0486 769.297 67.5269C800.938 76.0053 826.989 99.5166 846.989 134.859C866.989 170.203 880.918 217.348 888.32 273.015C903.121 384.345 891.8 529.665 850.827 682.578Z" stroke="url(#paint24_linear_294_16834)" stroke-opacity="0.3" stroke-width="0.896949"/>
<path d="M849.717 686.582C806.082 838.756 740.941 969.151 670.914 1056.96C635.9 1100.86 599.678 1134.1 564.331 1154.09C528.985 1174.09 494.546 1180.82 463.057 1171.79C431.569 1162.76 405.932 1138.8 386.553 1103.11C367.172 1067.43 354.068 1020.05 347.639 964.259C334.782 852.687 348.639 707.587 392.274 555.412C435.909 403.238 501.05 272.843 571.077 185.038C606.091 141.135 642.312 107.898 677.66 87.9027C713.006 67.909 747.444 61.1728 778.933 70.2021C810.422 79.2313 836.058 103.194 855.438 138.88C874.819 174.568 887.923 221.949 894.352 277.736C907.208 389.307 893.352 534.408 849.717 686.582Z" stroke="url(#paint25_linear_294_16834)" stroke-opacity="0.3" stroke-width="0.896949"/>
<path d="M848.537 690.566C802.252 841.955 734.846 971.194 663.297 1057.76C627.522 1101.05 590.726 1133.65 555.035 1153.02C519.346 1172.4 484.795 1178.53 453.468 1168.95C422.142 1159.38 396.928 1134.97 378.174 1098.95C359.419 1062.93 347.143 1015.33 341.69 959.438C330.782 847.659 347.168 702.822 393.453 551.433C439.737 400.043 507.144 270.805 578.693 184.235C614.468 140.95 651.263 108.35 686.955 88.975C722.644 69.6012 757.195 63.4671 788.521 73.0446C819.848 82.622 845.062 107.028 863.816 143.047C882.571 179.068 894.846 226.67 900.3 282.561C911.208 394.34 894.821 539.176 848.537 690.566Z" stroke="url(#paint26_linear_294_16834)" stroke-opacity="0.3" stroke-width="0.896949"/>
<path d="M847.291 694.524C798.371 845.083 728.719 973.125 655.671 1058.43C619.146 1101.09 581.786 1133.04 545.763 1151.79C509.741 1170.54 475.088 1176.07 443.933 1165.94C412.779 1155.82 387.994 1130.98 369.872 1094.64C351.749 1058.3 340.306 1010.49 335.828 954.509C326.873 842.557 345.785 698.028 394.704 547.47C443.624 396.911 513.276 268.869 586.324 183.561C622.849 140.907 660.208 108.954 696.232 90.2047C732.254 71.4567 766.907 65.9266 798.062 76.0493C829.216 86.172 854.001 111.015 872.123 147.355C890.246 183.698 901.689 231.507 906.167 287.484C915.122 399.436 896.21 543.965 847.291 694.524Z" stroke="url(#paint27_linear_294_16834)" stroke-opacity="0.3" stroke-width="0.896949"/>
<path d="M845.97 698.463C794.431 848.145 722.555 974.952 648.028 1058.97C610.765 1100.98 572.853 1132.28 536.508 1150.4C500.164 1168.51 465.42 1173.44 434.447 1162.77C403.474 1152.11 379.127 1126.84 361.641 1090.18C344.155 1053.53 333.548 1005.53 330.048 949.482C323.048 837.391 344.48 693.214 396.019 543.532C447.559 393.85 519.435 267.043 593.961 183.023C631.225 141.013 669.136 109.716 705.482 91.599C741.825 73.4825 776.57 68.558 807.543 79.2229C838.516 89.8878 862.863 115.159 880.348 151.81C897.835 188.464 908.441 236.466 911.941 292.513C918.941 404.604 897.51 548.78 845.97 698.463Z" stroke="url(#paint28_linear_294_16834)" stroke-opacity="0.3" stroke-width="0.896949"/>
<path d="M844.587 702.376C790.443 851.136 716.365 976.669 640.384 1059.38C602.392 1100.73 563.941 1131.36 527.285 1148.84C490.63 1166.32 455.805 1170.64 425.023 1159.43C394.241 1148.23 370.339 1122.54 353.496 1085.59C336.651 1048.63 326.884 1000.45 324.363 944.353C319.32 832.157 343.264 688.376 397.409 539.616C451.553 390.857 525.631 265.323 601.612 182.617C639.604 141.263 678.055 110.634 714.711 93.1532C751.365 75.6737 786.19 71.3563 816.973 82.5602C847.755 93.764 871.657 119.456 888.5 156.407C905.344 193.36 915.112 241.54 917.633 297.639C922.675 409.836 898.731 553.616 844.587 702.376Z" stroke="url(#paint29_linear_294_16834)" stroke-opacity="0.3" stroke-width="0.896949"/>
<path d="M843.131 706.264C786.399 854.056 710.142 978.277 632.728 1059.64C594.021 1100.33 555.041 1130.28 518.085 1147.12C481.132 1163.96 446.237 1167.67 415.654 1155.93C385.072 1144.19 361.622 1118.08 345.426 1080.84C329.23 1043.6 320.305 995.259 318.763 939.125C315.679 826.857 342.129 683.516 398.861 535.724C455.593 387.932 531.851 263.711 609.264 182.343C647.972 141.659 686.952 111.705 723.908 94.8667C760.861 78.0297 795.756 74.3207 826.338 86.06C856.92 97.7994 880.371 123.905 896.566 161.144C912.763 198.385 921.688 246.728 923.23 302.863C926.313 415.131 899.864 558.471 843.131 706.264Z" stroke="url(#paint30_linear_294_16834)" stroke-opacity="0.3" stroke-width="0.896949"/>
<path d="M841.615 710.127C782.312 856.907 703.898 979.778 625.077 1059.78C585.665 1099.79 546.168 1129.05 508.924 1145.24C471.682 1161.43 436.728 1164.53 406.355 1152.26C375.983 1139.99 352.992 1113.48 337.448 1075.96C321.904 1038.45 313.824 989.954 313.262 933.801C312.139 821.497 341.086 678.64 400.389 531.86C459.691 385.081 538.105 262.209 616.927 182.205C656.338 142.202 695.835 112.933 733.079 96.7428C770.321 80.5532 805.275 77.4537 835.648 89.725C866.02 101.996 889.012 128.507 904.555 166.023C920.099 203.542 928.179 252.033 928.741 308.186C929.865 420.49 900.917 563.348 841.615 710.127Z" stroke="url(#paint31_linear_294_16834)" stroke-opacity="0.3" stroke-width="0.896949"/>
<path d="M840.021 713.97C778.165 859.692 697.619 981.176 617.413 1059.79C577.31 1099.1 537.308 1127.68 499.787 1143.21C462.268 1158.75 427.265 1161.24 397.111 1148.44C366.958 1135.64 344.433 1108.73 329.547 1070.95C314.659 1033.17 307.427 984.543 307.845 928.389C308.682 816.082 340.118 673.752 401.973 528.03C463.828 382.308 544.375 260.823 624.581 182.207C664.684 142.898 704.686 114.323 742.207 98.7847C779.726 83.2475 814.729 80.7586 844.883 93.5581C875.036 106.358 897.561 133.266 912.447 171.047C927.334 208.831 934.567 257.456 934.149 313.611C933.312 425.917 901.876 568.248 840.021 713.97Z" stroke="url(#paint32_linear_294_16834)" stroke-opacity="0.3" stroke-width="0.896949"/>
<path d="M838.365 717.775C773.976 862.395 691.322 982.455 609.756 1059.66C568.973 1098.26 528.478 1126.14 490.692 1141.02C452.908 1155.9 417.867 1157.77 387.941 1144.45C358.015 1131.13 335.963 1103.83 321.739 1065.79C307.513 1027.76 301.131 979.012 302.529 922.874C305.325 810.599 339.24 668.839 403.63 524.218C468.019 379.597 550.673 259.537 632.239 182.333C673.022 143.73 713.517 115.857 751.303 100.976C789.087 86.0962 824.128 84.2186 854.054 97.5424C883.98 110.866 906.032 138.163 920.256 176.199C934.482 214.237 940.864 262.981 939.466 319.119C936.67 431.394 902.755 573.154 838.365 717.775Z" stroke="url(#paint33_linear_294_16834)" stroke-opacity="0.3" stroke-width="0.896949"/>
<path d="M836.645 721.553C769.742 865.027 685.004 983.627 602.104 1059.4C560.653 1097.28 519.678 1124.44 481.638 1138.66C443.6 1152.88 408.531 1154.15 378.842 1140.3C349.154 1126.46 327.582 1098.78 314.023 1060.5C300.464 1022.22 294.933 973.374 297.31 917.268C302.066 805.059 338.45 663.913 405.353 520.438C472.257 376.963 556.994 258.364 639.894 182.595C681.345 144.709 722.32 117.548 760.36 103.328C798.398 89.1101 833.467 87.8443 863.156 101.688C892.844 115.532 914.416 143.21 927.975 181.489C941.534 219.769 947.065 268.617 944.688 324.722C939.932 436.931 903.548 578.078 836.645 721.553Z" stroke="url(#paint34_linear_294_16834)" stroke-opacity="0.3" stroke-width="0.896949"/>
<path d="M834.857 725.302C765.46 867.587 678.666 984.69 594.455 1059C552.349 1096.16 510.907 1122.6 472.624 1136.15C434.344 1149.7 399.258 1150.36 369.816 1136C340.373 1121.64 319.288 1093.59 306.399 1055.08C293.51 1016.57 288.832 967.631 292.189 911.575C298.902 799.467 337.744 658.976 407.141 516.691C476.538 374.406 563.332 257.304 647.542 182.993C689.648 145.836 731.091 119.394 769.373 105.841C807.654 92.2885 842.739 91.6349 872.182 105.995C901.624 120.355 922.71 148.405 935.598 186.914C948.488 225.425 953.165 274.362 949.809 330.418C943.096 442.527 904.254 583.017 834.857 725.302Z" stroke="url(#paint35_linear_294_16834)" stroke-opacity="0.3" stroke-width="0.896949"/>
<path d="M833.001 729.018C761.131 870.071 672.307 985.64 586.813 1058.47C544.065 1094.89 502.167 1120.6 463.654 1133.48C425.142 1146.37 390.051 1146.41 360.864 1131.54C331.676 1116.66 311.083 1088.25 298.869 1049.52C286.654 1010.79 282.831 961.781 287.165 905.792C295.833 793.818 337.121 654.027 408.991 512.975C480.861 371.922 569.685 256.352 655.18 183.522C697.928 147.107 739.825 121.392 778.339 108.509C816.85 95.6266 851.941 95.5854 881.129 110.457C910.316 125.329 930.909 153.743 943.124 192.471C955.339 231.201 959.162 280.212 954.827 336.2C946.159 448.175 904.871 587.966 833.001 729.018Z" stroke="url(#paint36_linear_294_16834)" stroke-opacity="0.3" stroke-width="0.896949"/>
<path d="M831.082 732.701C756.761 872.478 665.933 986.48 579.181 1057.81C535.804 1093.47 493.464 1118.45 454.732 1130.66C416.001 1142.87 380.915 1142.3 351.991 1126.92C323.068 1111.54 302.974 1082.77 291.437 1043.83C279.9 1004.9 276.933 955.826 282.244 899.922C292.865 788.116 336.586 649.067 410.907 509.29C485.227 369.513 576.055 255.511 662.808 184.185C706.185 148.521 748.525 123.54 787.257 111.332C825.987 99.1236 861.074 99.6949 889.998 115.074C918.921 130.453 939.015 159.221 950.552 198.157C962.089 237.094 965.056 286.165 959.745 342.069C949.124 453.875 905.402 592.924 831.082 732.701Z" stroke="url(#paint37_linear_294_16834)" stroke-opacity="0.3" stroke-width="0.896949"/>
<path d="M829.105 736.352C752.356 874.811 659.552 987.21 571.568 1057.01C527.576 1091.91 484.806 1116.15 445.866 1127.68C406.929 1139.21 371.858 1138.03 343.207 1122.15C314.556 1106.27 294.968 1077.15 284.112 1038.02C273.256 998.887 271.146 949.772 277.432 893.969C290.003 782.365 336.144 644.101 412.893 505.642C489.641 367.184 582.445 254.785 670.429 184.983C714.422 150.081 757.192 125.844 796.131 114.313C835.068 102.783 870.14 103.966 898.791 119.847C927.441 135.729 947.03 164.844 957.885 203.975C968.741 243.108 970.851 292.222 964.566 348.025C951.995 459.629 905.853 597.894 829.105 736.352Z" stroke="url(#paint38_linear_294_16834)" stroke-opacity="0.3" stroke-width="0.896949"/>
<path d="M827.058 739.968C747.905 877.066 653.153 987.829 563.964 1056.08C519.369 1090.21 476.183 1113.7 437.048 1124.55C397.916 1135.4 362.87 1133.6 334.501 1117.22C306.132 1100.85 287.054 1071.39 276.883 1032.08C266.712 992.762 265.459 943.618 272.718 887.933C287.235 776.566 335.782 639.127 414.936 502.029C494.089 364.932 588.841 254.169 678.029 185.913C722.625 151.785 765.811 128.298 804.946 117.448C844.078 106.599 879.124 108.395 907.493 124.773C935.862 141.152 954.94 170.605 965.11 209.919C975.282 249.236 976.534 298.38 969.276 354.065C954.759 465.432 906.211 602.871 827.058 739.968Z" stroke="url(#paint39_linear_294_16834)" stroke-opacity="0.3" stroke-width="0.89695"/>
<path d="M824.948 743.548C743.414 879.243 646.744 988.335 556.377 1055.02C511.193 1088.37 467.604 1111.1 428.286 1121.26C388.97 1131.43 353.961 1129.02 325.882 1112.15C297.803 1095.28 279.242 1065.5 269.759 1026.01C260.275 986.524 259.881 937.365 268.11 881.815C284.568 770.718 335.507 634.148 417.041 498.453C498.575 362.757 595.245 253.665 685.611 186.976C730.795 153.631 774.385 130.901 813.703 120.736C853.019 110.572 888.028 112.979 916.107 129.85C944.186 146.722 962.746 176.503 972.23 215.989C981.713 255.477 982.108 304.635 973.879 360.185C957.42 471.282 906.482 607.852 824.948 743.548Z" stroke="url(#paint40_linear_294_16834)" stroke-opacity="0.3" stroke-width="0.89695"/>
<path d="M822.781 747.087C738.891 881.338 640.332 988.727 548.816 1053.83C503.057 1086.38 459.077 1108.35 419.588 1117.82C380.1 1127.3 345.139 1124.28 317.358 1106.92C289.578 1089.56 271.54 1059.46 262.747 1019.82C253.954 980.17 254.418 931.013 263.615 875.615C282.01 764.822 335.324 629.162 419.214 494.91C503.104 360.658 601.663 253.27 693.18 188.168C738.939 155.617 782.919 133.651 822.408 124.174C861.895 114.697 896.857 117.715 924.637 135.074C952.417 152.433 970.456 182.533 979.248 222.178C988.041 261.826 987.578 310.984 978.38 366.381C959.986 477.174 906.671 612.835 822.781 747.087Z" stroke="url(#paint41_linear_294_16834)" stroke-opacity="0.3" stroke-width="0.89695"/>
<path d="M820.551 750.588C734.331 883.355 633.913 989.007 541.274 1052.5C494.954 1084.25 450.598 1105.44 410.949 1114.23C371.302 1123.02 336.398 1119.39 308.925 1101.55C281.452 1083.71 263.942 1053.3 255.843 1013.5C247.743 973.709 249.064 924.566 259.227 869.338C279.553 758.883 335.227 624.173 421.447 491.406C507.667 358.639 608.085 252.987 700.724 189.492C747.044 157.745 791.401 136.55 831.049 127.763C870.696 118.977 905.6 122.604 933.073 140.446C960.546 158.287 978.056 188.697 986.155 228.49C994.255 268.285 992.934 317.427 982.771 372.656C962.446 483.111 906.771 617.82 820.551 750.588Z" stroke="url(#paint42_linear_294_16834)" stroke-opacity="0.3" stroke-width="0.89695"/>
<path d="M818.26 754.051C729.736 885.293 627.489 989.176 533.756 1051.04C486.889 1081.98 442.169 1102.4 402.373 1110.49C362.579 1118.58 327.744 1114.35 300.587 1096.03C273.429 1077.71 256.452 1047 249.049 1007.07C241.645 967.141 243.823 918.029 254.949 862.986C277.199 752.903 335.215 619.186 423.739 487.943C512.263 356.701 614.51 252.818 708.243 190.95C755.11 160.015 799.83 139.598 839.626 131.504C879.42 123.412 914.255 127.647 941.413 145.965C968.57 164.283 985.547 194.995 992.95 234.923C1000.35 274.853 998.176 323.965 987.05 379.008C964.8 489.091 906.784 622.808 818.26 754.051Z" stroke="url(#paint43_linear_294_16834)" stroke-opacity="0.3" stroke-width="0.89695"/>
<path d="M815.905 757.472C725.103 887.149 621.059 989.232 526.261 1049.45C478.861 1079.57 433.792 1099.2 393.86 1106.6C353.931 1113.99 319.175 1109.15 292.342 1090.36C265.508 1071.57 249.07 1040.57 242.364 1000.52C235.658 960.466 238.694 911.4 250.778 856.56C274.946 746.881 335.287 614.197 426.088 484.519C516.889 354.842 620.934 252.759 715.732 192.536C763.132 162.424 808.201 142.79 848.132 135.393C888.062 127.996 922.817 132.839 949.651 151.628C976.485 170.417 992.923 201.42 999.628 241.472C1006.33 281.525 1003.3 330.591 991.215 385.431C967.047 495.11 906.706 627.794 815.905 757.472Z" stroke="url(#paint44_linear_294_16834)" stroke-opacity="0.3" stroke-width="0.89695"/>
<path d="M813.493 760.853C720.443 888.926 614.633 989.178 518.798 1047.74C470.88 1077.02 425.475 1095.86 385.421 1102.56C345.368 1109.26 310.703 1103.81 284.201 1084.56C257.699 1065.3 241.805 1034.02 235.799 993.854C229.793 953.69 233.684 904.684 246.724 850.063C272.802 740.823 335.45 609.212 428.5 481.139C521.551 353.067 627.361 252.815 723.196 194.256C771.114 164.976 816.519 146.132 856.573 139.432C896.625 132.733 931.291 138.182 957.793 157.436C984.295 176.691 1000.19 207.976 1006.19 248.139C1012.2 288.303 1008.31 337.308 995.27 391.93C969.192 501.17 906.544 632.78 813.493 760.853Z" stroke="url(#paint45_linear_294_16834)" stroke-opacity="0.3" stroke-width="0.89695"/>
<path d="M811.023 764.189C715.751 890.618 608.208 989.008 511.365 1045.89C462.943 1074.32 417.217 1092.37 377.051 1098.37C336.888 1104.37 302.323 1098.32 276.161 1078.6C250 1058.89 234.654 1027.33 229.35 987.072C224.046 946.809 228.792 897.879 242.782 843.494C270.763 734.725 335.698 604.228 430.97 477.798C526.241 351.369 633.785 252.979 730.627 196.101C779.049 167.662 824.776 149.613 864.941 143.614C905.104 137.615 939.67 143.668 965.831 163.382C991.993 183.096 1007.34 214.654 1012.64 254.915C1017.95 295.178 1013.2 344.108 999.21 398.493C971.229 507.262 906.294 637.759 811.023 764.189Z" stroke="url(#paint46_linear_294_16834)" stroke-opacity="0.3" stroke-width="0.89695"/>
<path d="M808.496 767.488C711.033 892.236 601.788 988.734 503.968 1043.91C455.057 1071.5 409.023 1088.75 368.759 1094.05C328.497 1099.35 294.043 1092.69 268.229 1072.52C242.415 1052.35 227.622 1020.53 223.022 980.186C218.422 939.837 224.021 890.997 238.958 836.864C268.833 728.601 336.036 599.256 433.5 474.509C530.963 349.761 640.208 253.263 738.028 198.085C786.939 170.495 832.973 153.246 873.237 147.949C913.499 142.652 947.954 149.307 973.767 169.475C999.581 189.643 1014.37 221.464 1018.97 261.811C1023.57 302.16 1017.98 351 1003.04 405.133C973.163 513.396 905.96 642.741 808.496 767.488Z" stroke="url(#paint47_linear_294_16834)" stroke-opacity="0.3" stroke-width="0.89695"/>
<path d="M805.909 770.737C706.283 893.764 595.371 988.341 496.603 1041.8C447.218 1068.54 400.889 1084.98 360.539 1089.57C320.191 1094.17 285.858 1086.91 260.4 1066.3C234.942 1045.68 220.707 1013.61 216.811 973.184C212.916 932.761 219.366 884.026 235.247 830.162C267.006 722.437 336.456 594.285 436.082 471.257C535.708 348.23 646.62 253.653 745.388 200.19C794.773 173.458 841.102 157.015 881.452 152.422C921.8 147.828 956.133 155.084 981.591 175.699C1007.05 196.314 1021.28 228.388 1025.18 268.81C1029.08 309.233 1022.62 357.968 1006.74 411.832C974.984 519.557 905.534 647.709 805.909 770.737Z" stroke="url(#paint48_linear_294_16834)" stroke-opacity="0.3" stroke-width="0.89695"/>
<path d="M803.269 773.942C701.511 895.212 588.966 987.838 489.28 1039.57C439.435 1065.44 392.827 1081.07 352.403 1084.96C311.981 1088.84 277.779 1080.99 252.685 1059.93C227.591 1038.88 213.918 1006.56 210.729 966.077C207.539 925.592 214.839 876.977 231.657 823.398C265.292 716.244 336.968 589.323 438.726 468.053C540.483 346.783 653.029 254.157 752.715 202.426C802.559 176.559 849.168 160.928 889.592 157.039C930.014 153.15 964.215 161.004 989.309 182.06C1014.4 203.117 1028.08 235.435 1031.27 275.918C1034.46 316.403 1027.16 365.018 1010.34 418.596C976.703 525.751 905.027 652.672 803.269 773.942Z" stroke="url(#paint49_linear_294_16834)" stroke-opacity="0.3" stroke-width="0.89695"/>
<path d="M800.572 777.099C696.714 896.575 582.569 987.223 481.995 1037.21C431.707 1062.2 384.832 1077.01 344.347 1080.2C303.863 1083.38 269.804 1074.93 245.081 1053.44C220.358 1031.95 207.251 999.397 204.769 958.864C202.286 918.329 210.434 869.849 228.184 816.572C263.684 710.021 337.564 584.371 441.423 464.895C545.281 345.42 659.426 254.771 760 204.788C810.288 179.796 857.163 164.98 897.648 161.797C938.132 158.614 972.191 167.064 996.914 188.555C1021.64 210.046 1034.74 242.598 1037.23 283.13C1039.71 323.665 1031.56 372.145 1013.81 425.422C978.311 531.973 904.431 657.623 800.572 777.099Z" stroke="url(#paint50_linear_294_16834)" stroke-opacity="0.3" stroke-width="0.89695"/>
<path d="M797.82 780.205C691.892 897.85 576.182 986.493 474.751 1034.71C424.035 1058.82 376.909 1072.82 336.374 1075.3C295.841 1077.77 261.934 1068.73 237.591 1046.81C213.247 1024.89 200.71 992.114 198.935 951.544C197.16 910.972 206.153 862.642 224.83 809.683C262.184 703.767 338.246 579.426 444.174 461.781C550.102 344.136 665.811 255.494 767.242 207.273C817.959 183.162 865.084 169.167 905.62 166.691C946.153 164.216 980.059 173.258 1004.4 195.178C1028.75 217.097 1041.28 249.872 1043.06 290.442C1044.83 331.014 1035.84 379.345 1017.16 432.303C979.809 538.219 903.748 662.561 797.82 780.205Z" stroke="url(#paint51_linear_294_16834)" stroke-opacity="0.3" stroke-width="0.89695"/>
<path d="M795.016 783.272C687.051 899.051 569.812 985.66 467.555 1032.1C416.425 1055.33 369.062 1068.5 328.49 1070.26C287.92 1072.03 254.176 1062.4 230.219 1040.06C206.261 1017.72 194.298 984.728 193.232 944.133C192.165 903.537 202 855.37 221.599 802.746C260.796 697.498 339.016 574.503 446.981 458.725C554.946 342.946 672.185 256.337 774.442 209.894C825.572 186.672 872.934 173.501 913.507 171.733C954.077 169.965 987.82 179.598 1011.78 201.939C1035.74 224.28 1047.7 257.269 1048.77 297.864C1049.83 338.461 1040 386.627 1020.4 439.251C981.201 544.499 902.981 667.494 795.016 783.272Z" stroke="url(#paint52_linear_294_16834)" stroke-opacity="0.3" stroke-width="0.896949"/>
<path d="M792.155 786.281C682.185 900.157 563.453 984.707 460.401 1029.36C408.874 1051.68 361.288 1064.03 320.691 1065.09C280.096 1066.15 246.526 1055.93 222.962 1033.17C199.398 1010.41 188.012 977.222 187.655 936.615C187.297 896.005 197.971 848.018 218.485 795.743C259.513 691.196 339.868 569.585 449.837 455.708C559.806 341.832 678.539 257.282 781.591 212.63C833.118 190.304 880.703 177.962 921.3 176.903C961.895 175.843 995.465 186.063 1019.03 208.819C1042.59 231.574 1053.98 264.767 1054.34 305.374C1054.69 345.984 1044.02 393.971 1023.51 446.246C982.479 550.793 902.124 672.404 792.155 786.281Z" stroke="url(#paint53_linear_294_16834)" stroke-opacity="0.3" stroke-width="0.896949"/>
<path d="M789.246 789.242C677.306 901.182 557.116 983.647 453.3 1026.49C401.391 1047.92 353.598 1059.43 312.989 1059.78C272.381 1060.13 238.995 1049.32 215.831 1026.16C192.668 1003 181.863 969.61 182.215 929.003C182.566 888.394 194.075 840.6 215.499 788.691C258.345 684.876 340.81 564.686 452.75 452.746C564.69 340.806 684.88 258.341 788.695 215.495C840.604 194.071 888.398 182.562 929.007 182.211C969.614 181.86 1003 192.664 1026.16 215.828C1049.33 238.991 1060.13 272.378 1059.78 312.985C1059.43 353.594 1047.92 401.388 1026.5 453.296C983.651 557.112 901.186 677.302 789.246 789.242Z" stroke="url(#paint54_linear_294_16834)" stroke-opacity="0.3" stroke-width="0.896949"/>
<path d="M786.284 792.157C672.408 902.126 550.796 982.481 446.249 1023.51C393.974 1044.02 345.987 1054.7 305.378 1054.34C264.771 1053.98 231.578 1042.6 208.822 1019.03C186.067 995.468 175.846 961.898 176.906 921.303C177.966 880.706 190.308 833.12 212.634 781.593C257.285 678.541 341.835 559.809 455.712 449.839C569.588 339.87 691.199 259.515 795.747 218.488C848.022 197.973 896.009 187.3 936.618 187.657C977.225 188.015 1010.42 199.401 1033.17 222.965C1055.93 246.529 1066.15 280.099 1065.09 320.694C1064.03 361.291 1051.69 408.876 1029.36 460.403C984.71 563.455 900.16 682.188 786.284 792.157Z" stroke="url(#paint55_linear_294_16834)" stroke-opacity="0.3" stroke-width="0.896949"/>
<path d="M783.267 795.014C667.488 902.979 544.493 981.2 439.246 1020.4C386.621 1040 338.455 1049.83 297.858 1048.76C257.263 1047.7 224.274 1035.73 201.933 1011.78C179.592 987.819 169.959 954.075 171.727 913.505C173.496 872.933 186.666 825.57 209.888 774.441C256.331 672.184 342.941 554.945 458.719 446.98C574.497 339.015 697.492 260.794 802.74 221.597C855.365 201.999 903.531 192.164 944.128 193.23C984.722 194.297 1017.71 206.26 1040.05 230.218C1062.39 254.175 1072.03 287.919 1070.26 328.489C1068.49 369.061 1055.32 416.424 1032.1 467.553C985.654 569.81 899.045 687.05 783.267 795.014Z" stroke="url(#paint56_linear_294_16834)" stroke-opacity="0.3" stroke-width="0.896949"/>
<path d="M780.21 797.822C662.565 903.75 538.224 979.812 432.308 1017.17C379.349 1035.84 331.019 1044.84 290.447 1043.06C249.877 1041.29 217.101 1028.75 195.182 1004.41C173.263 980.062 164.22 946.155 166.696 905.622C169.172 865.087 183.167 817.961 207.278 767.245C255.499 665.814 344.141 550.104 461.786 444.176C579.431 338.248 703.772 262.187 809.688 224.833C862.647 206.155 910.977 197.163 951.549 198.937C992.119 200.712 1024.89 213.249 1046.81 237.593C1068.73 261.937 1077.78 295.843 1075.3 336.376C1072.82 376.912 1058.83 424.037 1034.72 474.754C986.497 576.185 897.855 691.894 780.21 797.822Z" stroke="url(#paint57_linear_294_16834)" stroke-opacity="0.3" stroke-width="0.896949"/>
<path d="M777.096 800.573C657.62 904.432 531.97 978.312 425.419 1013.81C372.142 1031.56 323.662 1039.71 283.127 1037.23C242.595 1034.74 210.043 1021.64 188.552 996.915C167.061 972.192 158.611 938.133 161.794 897.65C164.977 857.164 179.793 810.289 204.785 760.001C254.769 659.428 345.417 545.283 464.892 441.424C584.368 337.565 710.018 263.685 816.569 228.185C869.846 210.435 918.326 202.287 958.861 204.77C999.394 207.252 1031.95 220.36 1053.44 245.082C1074.93 269.805 1083.38 303.864 1080.19 344.348C1077.01 384.834 1062.2 431.708 1037.2 481.996C987.22 582.57 896.572 696.715 777.096 800.573Z" stroke="url(#paint58_linear_294_16834)" stroke-opacity="0.3" stroke-width="0.896949"/>
<path d="M773.939 803.268C652.669 905.026 525.749 976.702 418.594 1010.34C365.015 1027.15 316.4 1034.46 275.915 1031.27C235.432 1028.08 203.114 1014.4 182.058 989.309C161.001 964.215 153.148 930.013 157.036 889.591C160.925 849.167 176.557 802.559 202.423 752.714C254.154 653.028 346.781 540.483 468.051 438.725C589.321 336.967 716.241 265.291 823.396 231.656C876.974 214.839 925.589 207.538 966.074 210.728C1006.56 213.917 1038.88 227.591 1059.93 252.685C1080.99 277.779 1088.84 311.98 1084.95 352.402C1081.06 392.826 1065.43 439.435 1039.57 489.279C987.835 588.965 895.209 701.511 773.939 803.268Z" stroke="url(#paint59_linear_294_16834)" stroke-opacity="0.3" stroke-width="0.896949"/>
<path d="M770.734 805.912C647.707 905.538 519.555 974.988 411.829 1006.75C357.965 1022.63 309.231 1029.08 268.807 1025.18C228.386 1021.29 196.311 1007.05 175.696 981.594C155.081 956.136 147.825 921.803 152.419 881.455C157.013 841.105 173.455 794.776 200.187 745.391C253.651 646.623 348.227 535.711 471.255 436.085C594.282 336.46 722.434 267.01 830.159 235.25C884.023 219.37 932.758 212.919 973.182 216.815C1013.6 220.71 1045.68 234.946 1066.29 260.403C1086.91 285.861 1094.16 320.194 1089.57 360.542C1084.98 400.892 1068.53 447.221 1041.8 496.606C988.338 595.374 893.762 706.286 770.734 805.912Z" stroke="url(#paint60_linear_294_16834)" stroke-opacity="0.3" stroke-width="0.896949"/>
<path d="M767.486 808.497C642.739 905.96 513.394 973.163 405.131 1003.04C350.998 1017.98 302.158 1023.57 261.809 1018.97C221.462 1014.37 189.64 999.581 169.473 973.767C149.305 947.954 142.65 913.499 147.947 873.237C153.244 832.974 170.493 786.939 198.082 738.028C253.261 640.208 349.759 530.963 474.507 433.5C599.254 336.037 728.598 268.834 836.862 238.959C890.994 224.021 939.834 218.422 980.184 223.023C1020.53 227.623 1052.35 242.416 1072.52 268.229C1092.69 294.043 1099.34 328.498 1094.05 368.759C1088.75 409.023 1071.5 455.058 1043.91 503.969C988.731 601.789 892.233 711.033 767.486 808.497Z" stroke="url(#paint61_linear_294_16834)" stroke-opacity="0.3" stroke-width="0.896949"/>
<path d="M764.189 811.023C637.759 906.295 507.262 971.23 398.493 999.211C344.108 1013.2 295.178 1017.95 254.915 1012.64C214.654 1007.34 183.096 991.994 163.382 965.832C143.668 939.671 137.615 905.105 143.614 864.942C149.613 824.777 167.662 779.05 196.102 730.628C252.979 633.786 351.369 526.242 477.798 430.971C604.228 335.699 734.725 270.764 843.494 242.783C897.879 228.793 946.809 224.047 987.072 229.351C1027.33 234.655 1058.89 250.001 1078.6 276.162C1098.32 302.324 1104.37 336.889 1098.37 377.052C1092.37 417.218 1074.32 462.944 1045.89 511.366C989.008 608.208 890.618 715.752 764.189 811.023Z" stroke="url(#paint62_linear_294_16834)" stroke-opacity="0.3" stroke-width="0.896949"/>
<path d="M760.853 813.494C632.781 906.544 501.17 969.192 391.93 995.27C337.309 1008.31 288.303 1012.2 248.139 1006.19C207.977 1000.19 176.691 984.295 157.437 957.793C138.182 931.291 132.733 896.625 139.432 856.573C146.132 816.519 164.976 771.114 194.256 723.196C252.815 627.361 353.067 521.551 481.14 428.501C609.213 335.45 740.823 272.802 850.063 246.724C904.685 233.685 953.69 229.793 993.854 235.799C1034.02 241.805 1065.3 257.699 1084.56 284.201C1103.81 310.703 1109.26 345.369 1102.56 385.421C1095.86 425.475 1077.02 470.88 1047.74 518.798C989.178 614.633 888.926 720.443 760.853 813.494Z" stroke="url(#paint63_linear_294_16834)" stroke-opacity="0.3" stroke-width="0.896949"/>
<path d="M757.471 815.904C627.794 906.705 495.109 967.046 385.431 991.214C330.59 1003.3 281.524 1006.33 241.471 999.628C201.42 992.922 170.417 976.484 151.627 949.65C132.838 922.817 127.995 888.061 135.392 848.132C142.79 808.2 162.424 763.131 192.536 715.731C252.758 620.933 354.841 516.889 484.519 426.088C614.196 335.287 746.88 274.945 856.559 250.777C911.399 238.693 960.465 235.658 1000.52 242.364C1040.57 249.07 1071.57 265.508 1090.36 292.341C1109.15 319.175 1113.99 353.931 1106.6 393.86C1099.2 433.791 1079.57 478.86 1049.45 526.26C989.231 621.058 887.148 725.103 757.471 815.904Z" stroke="url(#paint64_linear_294_16834)" stroke-opacity="0.3" stroke-width="0.896949"/>
<path d="M754.05 818.259C622.808 906.783 489.091 964.8 379.007 987.05C323.964 998.175 274.853 1000.35 234.923 992.949C194.995 985.546 164.283 968.569 145.965 941.412C127.647 914.254 123.411 879.419 131.504 839.625C139.597 799.829 160.015 755.11 190.949 708.242C252.817 614.51 356.701 512.263 487.943 423.739C619.185 335.215 752.902 277.198 862.986 254.948C918.029 243.823 967.141 241.644 1007.07 249.048C1047 256.452 1077.71 273.428 1096.03 300.586C1114.35 327.743 1118.58 362.578 1110.49 402.372C1102.4 442.169 1081.98 486.888 1051.04 533.755C989.176 627.488 885.293 729.735 754.05 818.259Z" stroke="url(#paint65_linear_294_16834)" stroke-opacity="0.3" stroke-width="0.896949"/>
<path d="M750.588 820.548C617.821 906.769 483.112 962.442 372.657 982.768C317.428 992.931 268.286 994.252 228.491 986.152C188.698 978.053 158.287 960.543 140.446 933.07C122.605 905.597 118.978 870.693 127.764 831.046C136.551 791.398 157.745 747.041 189.493 700.721C252.988 608.082 358.639 507.664 491.407 421.444C624.174 335.224 758.883 279.55 869.338 259.225C924.567 249.062 973.709 247.74 1013.5 255.84C1053.3 263.94 1083.71 281.45 1101.55 308.923C1119.39 336.396 1123.02 371.299 1114.23 410.946C1105.44 450.595 1084.25 494.951 1052.5 541.271C989.007 633.91 883.355 734.328 750.588 820.548Z" stroke="url(#paint66_linear_294_16834)" stroke-opacity="0.3" stroke-width="0.896949"/>
<path d="M747.086 822.785C612.834 906.675 477.174 959.99 366.381 978.384C310.983 987.582 261.826 988.045 222.178 979.252C182.533 970.459 152.432 952.421 135.073 924.641C117.714 896.861 114.697 861.899 124.174 822.412C133.651 782.922 155.617 738.943 188.168 693.184C253.269 601.667 360.658 503.108 494.909 419.218C629.161 335.328 764.822 282.014 875.615 263.619C931.012 254.422 980.17 253.958 1019.82 262.751C1059.46 271.544 1089.56 289.582 1106.92 317.362C1124.28 345.143 1127.3 380.104 1117.82 419.592C1108.34 459.081 1086.38 503.061 1053.83 548.82C988.726 640.336 881.338 738.895 747.086 822.785Z" stroke="url(#paint67_linear_294_16834)" stroke-opacity="0.3" stroke-width="0.896949"/>
<path d="M743.544 824.951C607.848 906.485 471.278 957.424 360.181 973.882C304.631 982.111 255.473 981.717 215.985 972.233C176.499 962.75 146.718 944.189 129.847 916.11C112.975 888.031 110.568 853.022 120.733 813.706C130.897 774.388 153.627 730.799 186.972 685.615C253.661 595.248 362.753 498.578 498.449 417.044C634.144 335.51 770.714 284.571 881.812 268.113C937.361 259.884 986.52 260.279 1026.01 269.762C1065.49 279.246 1095.27 297.806 1112.15 325.885C1129.02 353.964 1131.42 388.973 1121.26 428.289C1111.1 467.607 1088.37 511.197 1055.02 556.381C988.331 646.747 879.239 743.417 743.544 824.951Z" stroke="url(#paint68_linear_294_16834)" stroke-opacity="0.3" stroke-width="0.896949"/>
<path d="M739.963 827.059C602.866 906.212 465.427 954.76 354.06 969.276C298.375 976.535 249.231 975.282 209.914 965.111C170.6 954.94 141.147 935.863 124.769 907.493C108.39 879.124 106.594 844.079 117.443 804.946C128.293 765.812 151.78 722.625 185.909 678.03C254.164 588.841 364.927 494.09 502.025 414.937C639.122 335.783 776.561 287.236 887.928 272.719C943.613 265.46 992.757 266.713 1032.07 276.884C1071.39 287.055 1100.84 306.133 1117.22 334.502C1133.6 362.871 1135.39 397.916 1124.54 437.049C1113.7 476.184 1090.21 519.37 1056.08 563.965C987.824 653.154 877.061 747.905 739.963 827.059Z" stroke="url(#paint69_linear_294_16834)" stroke-opacity="0.3" stroke-width="0.896949"/>
<path d="M736.35 829.106C597.892 905.855 459.627 951.996 348.023 964.567C292.22 970.853 243.106 968.743 203.973 957.887C164.842 947.031 135.727 927.443 119.845 898.792C103.964 870.141 102.781 835.07 114.311 796.132C125.842 757.193 150.079 714.423 184.981 670.43C254.782 582.447 367.182 489.643 505.64 412.894C644.098 336.145 782.363 290.004 893.967 277.433C949.77 271.147 998.885 273.257 1038.02 284.113C1077.15 294.968 1106.26 314.557 1122.15 343.208C1138.03 371.858 1139.21 406.93 1127.68 445.867C1116.15 484.807 1091.91 527.576 1057.01 571.569C987.208 659.553 874.809 752.357 736.35 829.106Z" stroke="url(#paint70_linear_294_16834)" stroke-opacity="0.3" stroke-width="0.896949"/>
<path d="M732.704 831.082C592.928 905.402 453.879 949.124 342.072 959.745C286.168 965.056 237.098 962.089 198.16 950.552C159.225 939.015 130.456 918.921 115.077 889.998C99.6983 861.074 99.1271 825.988 111.335 787.257C123.544 748.525 148.524 706.185 184.188 662.808C255.515 576.056 369.517 485.227 509.293 410.907C649.07 336.586 788.119 292.865 899.925 282.243C955.83 276.933 1004.9 279.9 1043.84 291.437C1082.77 302.974 1111.54 323.067 1126.92 351.991C1142.3 380.914 1142.87 416.001 1130.66 454.731C1118.45 493.464 1093.47 535.804 1057.81 579.181C986.483 665.933 872.481 756.761 732.704 831.082Z" stroke="url(#paint71_linear_294_16834)" stroke-opacity="0.3" stroke-width="0.896949"/>
<path d="M729.02 833C587.967 904.87 448.176 946.158 336.202 954.826C280.213 959.161 231.202 955.338 192.472 943.123C153.744 930.908 125.33 910.315 110.458 881.128C95.5865 851.941 95.6277 816.849 108.51 778.338C121.393 739.825 147.108 697.927 183.524 655.179C256.353 569.685 371.923 480.86 512.976 408.99C654.028 337.12 793.819 295.832 905.794 287.164C961.782 282.829 1010.79 286.652 1049.52 298.867C1088.25 311.082 1116.67 331.675 1131.54 360.862C1146.41 390.05 1146.37 425.141 1133.49 463.652C1120.6 502.166 1094.89 544.063 1058.47 586.811C985.642 672.306 870.072 761.13 729.02 833Z" stroke="url(#paint72_linear_294_16834)" stroke-opacity="0.3" stroke-width="0.896949"/>
<path d="M725.302 834.858C583.016 904.255 442.526 943.097 330.417 949.81C274.362 953.167 225.425 948.489 186.914 935.6C148.405 922.712 120.355 901.626 105.995 872.183C91.6345 842.741 92.288 807.655 105.84 769.375C119.393 731.092 145.836 689.65 182.992 647.544C257.303 563.334 374.405 476.539 516.69 407.142C658.976 337.745 799.466 298.903 911.575 292.19C967.63 288.834 1016.57 293.511 1055.08 306.4C1093.59 319.289 1121.64 340.375 1136 369.817C1150.36 399.26 1149.7 434.345 1136.15 472.625C1122.6 510.908 1096.16 552.351 1059 594.457C984.689 678.667 867.587 765.461 725.302 834.858Z" stroke="url(#paint73_linear_294_16834)" stroke-opacity="0.3" stroke-width="0.896949"/>
<path d="M721.552 836.646C578.077 903.549 436.93 939.934 324.722 944.689C268.616 947.067 219.768 941.536 181.488 927.976C143.21 914.418 115.532 892.846 101.688 863.157C87.8436 833.468 89.1094 798.4 103.328 760.362C117.547 722.321 144.709 681.347 182.594 639.896C258.363 556.995 376.962 472.258 520.437 405.354C663.912 338.451 805.059 302.067 917.268 297.312C973.373 294.934 1022.22 300.465 1060.5 314.024C1098.78 327.583 1126.46 349.155 1140.3 378.843C1154.15 408.532 1152.88 443.601 1138.66 481.639C1124.44 519.679 1097.28 560.654 1059.4 602.105C983.626 685.005 865.027 769.743 721.552 836.646Z" stroke="url(#paint74_linear_294_16834)" stroke-opacity="0.3" stroke-width="0.896949"/>
<path d="M717.772 838.365C573.152 902.755 431.392 936.67 319.117 939.466C262.978 940.864 214.234 934.482 176.197 920.256C138.161 906.032 110.864 883.98 97.5398 854.054C84.216 824.128 86.0936 789.087 100.974 751.303C115.854 713.517 143.727 673.022 182.33 632.239C259.535 550.673 379.595 468.019 524.215 403.629C668.836 339.24 810.596 305.325 922.871 302.529C979.009 301.13 1027.75 307.513 1065.79 321.738C1103.83 335.963 1131.12 358.015 1144.45 387.941C1157.77 417.866 1155.89 452.908 1141.01 490.692C1126.13 528.478 1098.26 568.973 1059.66 609.756C982.453 691.322 862.393 773.976 717.772 838.365Z" stroke="url(#paint75_linear_294_16834)" stroke-opacity="0.3" stroke-width="0.896949"/>
<path d="M713.97 840.022C568.248 901.877 425.917 933.313 313.611 934.149C257.456 934.568 208.831 927.335 171.048 912.448C133.266 897.562 106.358 875.037 93.5582 844.884C80.7587 814.73 83.2477 779.727 98.7848 742.208C114.323 704.687 142.898 664.685 182.207 624.582C260.823 544.376 382.308 463.829 528.03 401.974C673.752 340.118 816.082 308.682 928.389 307.846C984.543 307.428 1033.17 314.66 1070.95 329.547C1108.73 344.433 1135.64 366.958 1148.44 397.112C1161.24 427.266 1158.75 462.269 1143.21 499.788C1127.68 537.308 1099.1 577.31 1059.79 617.414C981.177 697.62 859.692 778.166 713.97 840.022Z" stroke="url(#paint76_linear_294_16834)" stroke-opacity="0.3" stroke-width="0.896949"/>
<path d="M710.131 841.609C563.352 900.912 420.494 929.859 308.19 928.735C252.037 928.173 203.546 920.093 166.028 904.549C128.511 889.006 102.001 866.015 89.7292 835.642C77.4579 805.27 80.5574 770.316 96.7469 733.074C112.937 695.83 142.206 656.333 182.209 616.921C262.213 538.1 385.085 459.686 531.864 400.383C678.644 341.08 821.501 312.133 933.805 313.256C989.959 313.818 1038.45 321.898 1075.97 337.442C1113.48 352.986 1140 375.977 1152.27 406.349C1164.54 436.722 1161.44 471.676 1145.25 508.918C1129.06 546.162 1099.79 585.659 1059.79 625.07C979.782 703.892 856.911 782.306 710.131 841.609Z" stroke="url(#paint77_linear_294_16834)" stroke-opacity="0.3" stroke-width="0.896949"/>
<path d="M706.265 843.133C558.473 899.865 415.132 926.315 302.865 923.231C246.73 921.689 198.387 912.764 161.146 896.568C123.907 880.372 97.8013 856.922 86.0619 826.34C74.3226 795.757 78.0316 760.863 94.8687 723.909C111.707 686.953 141.661 647.973 182.345 609.266C263.713 531.853 387.934 455.595 535.726 398.863C683.518 342.131 826.859 315.681 939.126 318.764C995.261 320.306 1043.6 329.231 1080.85 345.428C1118.08 361.624 1144.19 385.074 1155.93 415.656C1167.67 446.238 1163.96 481.133 1147.12 518.086C1130.28 555.042 1100.33 594.022 1059.65 632.73C978.279 710.143 854.058 786.401 706.265 843.133Z" stroke="url(#paint78_linear_294_16834)" stroke-opacity="0.3" stroke-width="0.896949"/>
<path d="M702.38 844.584C553.62 898.728 409.839 922.672 297.643 917.629C241.544 915.108 193.364 905.341 156.411 888.497C119.46 871.653 93.7677 847.751 82.5639 816.969C71.36 786.187 75.6775 751.362 93.157 714.708C110.637 678.051 141.267 639.6 182.621 601.609C265.327 525.627 390.86 451.549 539.62 397.405C688.38 343.261 832.16 319.317 944.357 324.359C1000.46 326.881 1048.64 336.648 1085.59 353.492C1122.54 370.335 1148.23 394.237 1159.44 425.02C1170.64 455.802 1166.32 490.627 1148.84 527.281C1131.36 563.937 1100.73 602.389 1059.38 640.38C976.673 716.361 851.14 790.439 702.38 844.584Z" stroke="url(#paint79_linear_294_16834)" stroke-opacity="0.3" stroke-width="0.896949"/>
<path d="M698.46 845.971C548.778 897.511 404.602 918.942 292.51 911.942C236.464 908.442 188.461 897.836 151.808 880.349C115.157 862.864 89.8856 838.517 79.2207 807.544C68.5558 776.571 73.4804 741.826 91.5969 705.483C109.714 669.137 141.01 631.226 183.021 593.962C267.041 519.436 393.848 447.56 543.53 396.02C693.212 344.481 837.388 323.049 949.48 330.049C1005.53 333.549 1053.53 344.156 1090.18 361.642C1126.83 379.128 1152.1 403.475 1162.77 434.448C1173.43 465.421 1168.51 500.165 1150.39 536.509C1132.28 572.854 1100.98 610.766 1058.97 648.029C974.949 722.556 848.142 794.432 698.46 845.971Z" stroke="url(#paint80_linear_294_16834)" stroke-opacity="0.3" stroke-width="0.896949"/>
<path d="M694.526 847.29C543.967 896.209 399.439 915.121 287.486 906.166C231.509 901.688 183.7 890.246 147.357 872.122C111.017 854 86.174 829.215 76.0513 798.061C65.9286 766.906 71.4588 732.253 90.2068 696.231C108.956 660.208 140.909 622.848 183.563 586.323C268.871 513.275 396.913 443.623 547.472 394.703C698.03 345.784 842.559 326.872 954.511 335.827C1010.49 340.305 1058.3 351.748 1094.64 369.871C1130.98 387.994 1155.82 412.778 1165.95 443.933C1176.07 475.087 1170.54 509.74 1151.79 545.762C1133.04 581.786 1101.09 619.145 1058.43 655.67C973.127 728.718 845.085 798.37 694.526 847.29Z" stroke="url(#paint81_linear_294_16834)" stroke-opacity="0.3" stroke-width="0.896949"/>
<path d="M690.564 848.538C539.175 894.822 394.338 911.209 282.559 900.301C226.669 894.847 179.066 882.572 143.045 863.817C107.027 845.063 82.6204 819.849 73.043 788.522C63.4655 757.196 69.5997 722.645 88.9735 686.955C108.348 651.264 140.948 614.469 184.234 578.694C270.803 507.145 400.042 439.738 551.431 393.454C702.821 347.169 847.657 330.783 959.436 341.69C1015.33 347.144 1062.93 359.42 1098.95 378.175C1134.97 396.929 1159.37 422.143 1168.95 453.469C1178.53 484.796 1172.4 519.347 1153.02 555.036C1133.65 590.727 1101.05 627.523 1057.76 663.298C971.192 734.847 841.954 802.253 690.564 848.538Z" stroke="url(#paint82_linear_294_16834)" stroke-opacity="0.3" stroke-width="0.896949"/>
<path d="M686.583 849.717C534.409 893.352 389.308 907.208 277.737 894.351C221.95 887.923 174.569 874.819 138.881 855.438C103.195 836.058 79.2324 810.422 70.2031 778.933C61.1738 747.444 67.91 713.005 87.9038 677.66C107.899 642.312 141.136 606.091 185.039 571.077C272.844 501.05 403.239 435.909 555.413 392.274C707.588 348.639 852.688 334.782 964.259 347.639C1020.05 354.068 1067.43 367.172 1103.12 386.553C1138.8 405.932 1162.76 431.569 1171.79 463.057C1180.82 494.546 1174.09 528.985 1154.09 564.331C1134.1 599.678 1100.86 635.9 1056.96 670.914C969.152 740.941 838.757 806.081 686.583 849.717Z" stroke="url(#paint83_linear_294_16834)" stroke-opacity="0.3" stroke-width="0.896949"/>
<path d="M682.579 850.829C529.666 891.802 384.346 903.124 273.016 888.322C217.35 880.921 170.205 866.992 134.86 846.991C99.5181 826.991 76.0067 800.941 67.5283 769.299C59.05 737.658 66.3862 703.341 86.9938 668.35C107.602 633.357 141.467 597.721 185.974 563.479C274.988 494.995 406.5 432.14 559.413 391.167C712.325 350.194 857.646 338.872 968.976 353.674C1024.64 361.075 1071.79 375.005 1107.13 395.005C1142.47 415.005 1165.98 441.055 1174.46 472.697C1182.94 504.339 1175.61 538.655 1155 573.646C1134.39 608.639 1100.52 644.275 1056.02 678.517C967.003 747.001 835.492 809.856 682.579 850.829Z" stroke="url(#paint84_linear_294_16834)" stroke-opacity="0.3" stroke-width="0.896949"/>
<path d="M678.56 851.866C524.955 890.164 379.459 898.947 268.405 882.205C212.876 873.833 165.981 859.083 130.992 838.469C96.0038 817.856 72.9506 791.399 65.0258 759.614C57.101 727.829 65.0349 693.646 86.2501 659.02C107.466 624.392 141.947 589.353 187.046 555.892C277.241 488.972 409.83 428.422 563.434 390.124C717.039 351.826 862.535 343.042 973.589 359.785C1029.12 368.156 1076.01 382.906 1111 403.521C1145.99 424.134 1169.04 450.591 1176.97 482.376C1184.89 514.16 1176.96 548.343 1155.74 582.969C1134.53 617.598 1100.05 652.637 1054.95 686.097C964.753 753.017 832.164 813.568 678.56 851.866Z" stroke="url(#paint85_linear_294_16834)" stroke-opacity="0.3" stroke-width="0.896949"/>
<path d="M674.524 852.836C520.275 888.448 374.648 894.691 263.902 876.013C208.529 866.673 161.898 851.107 127.273 829.885C92.6507 808.664 70.0628 781.809 62.6939 749.891C55.325 717.973 63.8543 683.934 85.6705 649.683C107.488 615.43 142.575 580.998 188.251 548.33C279.6 482.994 413.226 424.767 567.475 389.156C721.725 353.544 867.352 347.301 978.097 365.979C1033.47 375.319 1080.1 390.885 1114.73 412.107C1149.35 433.328 1171.94 460.183 1179.31 492.101C1186.67 524.019 1178.15 558.058 1156.33 592.309C1134.51 626.562 1099.42 660.994 1053.75 693.662C962.399 758.998 828.774 817.225 674.524 852.836Z" stroke="url(#paint86_linear_294_16834)" stroke-opacity="0.3" stroke-width="0.896949"/>
<path d="M670.466 853.736C515.619 886.65 369.905 890.35 259.502 869.742C204.3 859.438 157.948 843.06 123.699 821.237C89.4522 799.416 67.3364 772.17 60.5257 740.128C53.7149 708.086 62.8371 674.201 85.2477 640.336C107.659 606.47 143.342 572.655 189.581 540.789C282.057 477.058 416.678 421.171 571.526 388.257C726.373 355.343 872.087 351.643 982.49 372.251C1037.69 382.555 1084.04 398.933 1118.29 420.756C1152.54 442.578 1174.66 469.823 1181.47 501.865C1188.28 533.907 1179.16 567.792 1156.74 601.657C1134.33 635.524 1098.65 669.338 1052.41 701.204C959.935 764.936 825.314 820.822 670.466 853.736Z" stroke="url(#paint87_linear_294_16834)" stroke-opacity="0.3" stroke-width="0.896949"/>
<path d="M666.397 854.562C510.999 884.769 365.243 885.926 255.216 863.394C200.202 852.128 154.143 834.944 120.28 812.527C86.4193 790.11 64.7824 762.483 58.5319 730.327C52.2814 698.171 61.9935 664.45 84.9917 630.982C107.991 597.512 144.259 564.325 191.047 533.271C284.621 471.163 420.197 417.634 575.595 387.428C730.993 357.222 876.75 356.065 986.776 378.597C1041.79 389.863 1087.85 407.047 1121.71 429.464C1155.57 451.88 1177.21 479.507 1183.46 511.663C1189.71 543.819 1180 577.54 1157 611.009C1134 644.479 1097.73 677.666 1050.95 708.72C957.371 770.828 821.795 824.356 666.397 854.562Z" stroke="url(#paint88_linear_294_16834)" stroke-opacity="0.3" stroke-width="0.896949"/>
<path d="M662.313 855.319C506.411 882.809 360.657 881.422 251.041 856.973C196.232 844.748 150.48 826.763 117.013 803.758C83.5484 780.755 62.3969 752.754 56.7086 720.494C51.0203 688.234 61.3194 654.688 84.8982 621.625C108.478 588.562 145.32 556.013 192.642 525.78C287.286 465.315 423.776 414.161 579.678 386.671C735.579 359.181 881.334 360.568 990.95 385.017C1045.76 397.241 1091.51 415.226 1124.98 438.231C1158.44 461.235 1179.59 489.236 1185.28 521.496C1190.97 553.756 1180.67 587.302 1157.09 620.364C1133.51 653.428 1096.67 685.977 1049.35 716.21C954.704 776.675 818.215 827.829 662.313 855.319Z" stroke="url(#paint89_linear_294_16834)" stroke-opacity="0.3" stroke-width="0.896949"/>
<path d="M658.22 856.007C501.862 880.772 356.154 876.842 246.981 850.484C192.394 837.304 146.963 818.523 113.903 794.938C80.8445 771.354 60.1849 742.988 55.0605 710.634C49.936 678.279 60.8191 644.918 84.9713 612.272C109.125 579.625 146.529 547.724 194.372 518.322C290.056 459.517 427.418 410.753 583.776 385.989C740.134 361.224 885.841 365.154 995.014 391.512C1049.6 404.692 1095.03 423.473 1128.09 447.058C1161.15 470.642 1181.81 499.008 1186.93 531.362C1192.06 563.717 1181.18 597.078 1157.02 629.724C1132.87 662.371 1095.47 694.272 1047.62 723.674C951.939 782.479 814.577 831.243 658.22 856.007Z" stroke="url(#paint90_linear_294_16834)" stroke-opacity="0.3" stroke-width="0.896949"/>
<path d="M654.11 856.619C497.344 878.651 351.727 872.178 243.031 843.919C188.681 829.789 143.585 810.218 110.942 786.059C78.3003 761.902 58.1389 733.18 53.5799 700.741C49.0209 668.302 60.4845 635.136 85.2028 602.917C109.922 570.696 147.877 539.453 196.226 510.89C292.923 453.764 431.114 407.405 587.881 385.373C744.647 363.341 890.264 369.813 998.96 398.073C1053.31 412.203 1098.41 431.774 1131.05 455.933C1163.69 480.09 1183.85 508.812 1188.41 541.251C1192.97 573.69 1181.51 606.856 1156.79 639.075C1132.07 671.296 1094.11 702.539 1045.76 731.102C949.068 788.228 810.876 834.587 654.11 856.619Z" stroke="url(#paint91_linear_294_16834)" stroke-opacity="0.3" stroke-width="0.896949"/>
<path d="M649.995 857.164C492.868 876.457 347.386 867.444 239.2 837.292C185.106 822.215 140.358 801.86 108.141 777.136C75.9261 752.412 56.269 723.343 52.2769 690.829C48.2847 658.315 60.3254 625.354 85.6023 593.572C110.88 561.787 149.375 531.211 198.215 503.496C295.893 448.067 434.873 404.127 592 384.834C749.127 365.541 894.609 374.554 1002.8 404.706C1056.89 419.783 1101.64 440.138 1133.85 464.863C1166.07 489.586 1185.73 518.655 1189.72 551.169C1193.71 583.683 1181.67 616.644 1156.39 648.426C1131.11 680.211 1092.62 710.787 1043.78 738.502C946.102 793.931 807.122 837.871 649.995 857.164Z" stroke="url(#paint92_linear_294_16834)" stroke-opacity="0.3" stroke-width="0.896949"/>
<path d="M645.87 857.634C488.43 874.182 343.128 862.631 235.484 830.595C181.661 814.577 137.275 793.444 105.495 768.161C73.7164 742.879 54.5696 713.471 51.1455 680.893C47.7214 648.314 60.3355 615.568 86.1632 584.232C111.992 552.893 151.014 522.994 200.331 496.135C298.962 442.419 438.687 400.911 596.127 384.363C753.567 367.816 898.869 379.367 1006.51 411.402C1060.34 427.42 1104.72 448.553 1136.5 473.837C1168.28 499.119 1187.43 528.526 1190.85 561.105C1194.28 593.683 1181.66 626.429 1155.83 657.766C1130 689.104 1090.98 719.004 1041.67 745.862C943.035 799.578 803.309 841.087 645.87 857.634Z" stroke="url(#paint93_linear_294_16834)" stroke-opacity="0.3" stroke-width="0.896949"/>
<path d="M641.735 858.031C484.03 871.829 338.952 857.744 231.884 823.834C178.348 806.879 134.338 784.975 103.004 759.141C71.6714 733.308 53.0409 703.571 50.1858 670.937C47.3308 638.304 60.5145 605.783 86.8851 574.902C113.257 544.019 152.795 514.805 202.573 488.812C302.126 436.825 442.555 397.762 600.259 383.964C757.964 370.167 903.043 384.252 1010.11 418.161C1063.65 435.116 1107.66 457.021 1138.99 482.855C1170.32 508.688 1188.95 538.425 1191.81 571.058C1194.66 603.692 1181.48 636.212 1155.11 667.094C1128.74 697.976 1089.2 727.19 1039.42 753.184C939.868 805.17 799.439 844.234 641.735 858.031Z" stroke="url(#paint94_linear_294_16834)" stroke-opacity="0.3" stroke-width="0.896949"/>
<path d="M637.596 858.354C479.674 869.397 334.864 852.783 228.403 817.01C175.172 799.123 131.551 776.454 100.673 750.077C69.7957 723.701 51.6869 693.643 49.4019 660.965C47.1168 628.287 60.8661 596.001 87.7717 565.585C114.679 535.167 154.72 506.648 204.944 481.527C305.39 431.286 446.479 394.679 604.4 383.636C762.321 372.593 907.132 389.208 1013.59 424.981C1066.82 442.867 1110.44 465.536 1141.32 491.914C1172.2 518.289 1190.31 548.347 1192.59 581.025C1194.88 613.703 1181.13 645.989 1154.22 676.405C1127.32 706.823 1087.28 735.343 1037.05 760.464C936.606 810.705 795.517 847.311 637.596 858.354Z" stroke="url(#paint95_linear_294_16834)" stroke-opacity="0.3" stroke-width="0.896949"/>
<path d="M633.449 858.611C475.359 866.896 330.86 847.756 225.04 810.131C172.129 791.318 128.91 767.891 98.497 740.979C68.0852 714.068 50.5037 683.699 48.7893 650.986C47.0749 618.273 61.3855 586.232 88.8179 556.29C116.252 526.346 156.785 498.53 207.44 474.29C308.747 425.809 450.453 391.67 608.543 383.385C766.633 375.1 911.132 394.24 1016.95 431.865C1069.86 450.678 1113.08 474.105 1143.49 501.017C1173.91 527.927 1191.49 558.297 1193.2 591.01C1194.92 623.723 1180.61 655.764 1153.17 685.706C1125.74 715.649 1085.21 743.466 1034.55 767.706C933.245 816.187 791.538 850.325 633.449 858.611Z" stroke="url(#paint96_linear_294_16834)" stroke-opacity="0.3" stroke-width="0.896949"/>
<path d="M629.3 858.791C471.09 864.316 326.947 842.657 221.8 803.191C169.226 783.457 126.422 759.28 96.4832 731.841C66.5456 704.404 49.4969 673.732 48.3537 640.994C47.2104 608.256 62.078 576.47 90.0288 547.011C117.981 517.551 158.994 490.446 210.064 467.093C312.201 420.389 454.482 388.728 612.692 383.203C770.903 377.678 915.045 399.337 1020.19 438.803C1072.77 458.537 1115.57 482.714 1145.51 510.153C1175.45 537.59 1192.5 568.262 1193.64 601C1194.78 633.738 1179.91 665.524 1151.96 694.983C1124.01 724.443 1083 751.548 1031.93 774.901C929.791 821.605 787.511 853.266 629.3 858.791Z" stroke="url(#paint97_linear_294_16834)" stroke-opacity="0.3" stroke-width="0.896949"/>
<path d="M625.152 858.898C466.869 861.661 323.126 837.49 218.684 796.195C166.462 775.547 124.087 750.626 94.6312 722.669C65.1771 694.713 48.6662 663.749 48.0945 630.996C47.5228 598.243 62.9429 566.721 91.4035 537.754C119.866 508.786 161.345 482.402 212.815 459.944C315.752 415.029 458.564 385.856 616.846 383.093C775.129 380.33 918.872 404.501 1023.31 445.796C1075.54 466.445 1117.91 491.365 1147.37 519.323C1176.82 547.278 1193.33 578.243 1193.9 610.996C1194.48 643.748 1179.06 675.27 1150.59 704.237C1122.13 733.205 1080.65 759.589 1029.18 782.048C926.246 826.963 783.434 856.135 625.152 858.898Z" stroke="url(#paint98_linear_294_16834)" stroke-opacity="0.3" stroke-width="0.896949"/>
<path d="M620.999 858.935C462.692 858.935 319.393 832.26 215.688 789.148C163.834 767.591 121.9 741.935 92.9371 713.468C63.9753 685.002 48.0074 653.754 48.0074 620.997C48.0074 588.239 63.9753 556.991 92.9371 528.525C121.9 500.058 163.834 474.402 215.688 452.845C319.393 409.734 462.692 383.058 620.999 383.058C779.306 383.058 922.605 409.734 1026.31 452.845C1078.16 474.402 1120.1 500.059 1149.06 528.525C1178.02 556.991 1193.99 588.239 1193.99 620.997C1193.99 653.754 1178.02 685.003 1149.06 713.468C1120.1 741.935 1078.16 767.591 1026.31 789.148C922.605 832.26 779.306 858.935 620.999 858.935Z" stroke="url(#paint99_linear_294_16834)" stroke-opacity="0.3" stroke-width="0.896949"/>
<defs>
<linearGradient id="paint0_linear_294_16834" x1="483.8" y1="643.93" x2="763.869" y2="599.572" gradientUnits="userSpaceOnUse">
<stop stop-color="#DE701D"/>
<stop offset="1" stop-color="#121212"/>
</linearGradient>
<linearGradient id="paint1_linear_294_16834" x1="483.418" y1="641.533" x2="764.219" y2="602.069" gradientUnits="userSpaceOnUse">
<stop stop-color="#DE701D"/>
<stop offset="1" stop-color="#121212"/>
</linearGradient>
<linearGradient id="paint2_linear_294_16834" x1="483.08" y1="639.127" x2="764.527" y2="604.569" gradientUnits="userSpaceOnUse">
<stop stop-color="#DE701D"/>
<stop offset="1" stop-color="#121212"/>
</linearGradient>
<linearGradient id="paint3_linear_294_16834" x1="482.786" y1="636.718" x2="764.793" y2="607.078" gradientUnits="userSpaceOnUse">
<stop stop-color="#DE701D"/>
<stop offset="1" stop-color="#121212"/>
</linearGradient>
<linearGradient id="paint4_linear_294_16834" x1="482.53" y1="634.307" x2="765.011" y2="609.593" gradientUnits="userSpaceOnUse">
<stop stop-color="#DE701D"/>
<stop offset="1" stop-color="#121212"/>
</linearGradient>
<linearGradient id="paint5_linear_294_16834" x1="482.32" y1="631.884" x2="765.19" y2="612.103" gradientUnits="userSpaceOnUse">
<stop stop-color="#DE701D"/>
<stop offset="1" stop-color="#121212"/>
</linearGradient>
<linearGradient id="paint6_linear_294_16834" x1="482.152" y1="629.464" x2="765.324" y2="614.623" gradientUnits="userSpaceOnUse">
<stop stop-color="#DE701D"/>
<stop offset="1" stop-color="#121212"/>
</linearGradient>
<linearGradient id="paint7_linear_294_16834" x1="482.027" y1="627.039" x2="765.414" y2="617.143" gradientUnits="userSpaceOnUse">
<stop stop-color="#DE701D"/>
<stop offset="1" stop-color="#121212"/>
</linearGradient>
<linearGradient id="paint8_linear_294_16834" x1="481.947" y1="624.612" x2="765.464" y2="619.663" gradientUnits="userSpaceOnUse">
<stop stop-color="#DE701D"/>
<stop offset="1" stop-color="#121212"/>
</linearGradient>
<linearGradient id="paint9_linear_294_16834" x1="481.9" y1="622.182" x2="765.46" y2="622.182" gradientUnits="userSpaceOnUse">
<stop stop-color="#DE701D"/>
<stop offset="1" stop-color="#121212"/>
</linearGradient>
<linearGradient id="paint10_linear_294_16834" x1="481.899" y1="619.757" x2="765.416" y2="624.706" gradientUnits="userSpaceOnUse">
<stop stop-color="#DE701D"/>
<stop offset="1" stop-color="#121212"/>
</linearGradient>
<linearGradient id="paint11_linear_294_16834" x1="481.944" y1="617.329" x2="765.331" y2="627.225" gradientUnits="userSpaceOnUse">
<stop stop-color="#DE701D"/>
<stop offset="1" stop-color="#121212"/>
</linearGradient>
<linearGradient id="paint12_linear_294_16834" x1="482.028" y1="614.904" x2="765.2" y2="629.744" gradientUnits="userSpaceOnUse">
<stop stop-color="#DE701D"/>
<stop offset="1" stop-color="#121212"/>
</linearGradient>
<linearGradient id="paint13_linear_294_16834" x1="482.156" y1="612.478" x2="765.026" y2="632.258" gradientUnits="userSpaceOnUse">
<stop stop-color="#DE701D"/>
<stop offset="1" stop-color="#121212"/>
</linearGradient>
<linearGradient id="paint14_linear_294_16834" x1="482.323" y1="610.055" x2="764.804" y2="634.769" gradientUnits="userSpaceOnUse">
<stop stop-color="#DE701D"/>
<stop offset="1" stop-color="#121212"/>
</linearGradient>
<linearGradient id="paint15_linear_294_16834" x1="482.539" y1="607.636" x2="764.546" y2="637.276" gradientUnits="userSpaceOnUse">
<stop stop-color="#DE701D"/>
<stop offset="1" stop-color="#121212"/>
</linearGradient>
<linearGradient id="paint16_linear_294_16834" x1="482.791" y1="605.222" x2="764.237" y2="639.779" gradientUnits="userSpaceOnUse">
<stop stop-color="#DE701D"/>
<stop offset="1" stop-color="#121212"/>
</linearGradient>
<linearGradient id="paint17_linear_294_16834" x1="483.084" y1="602.815" x2="763.885" y2="642.279" gradientUnits="userSpaceOnUse">
<stop stop-color="#DE701D"/>
<stop offset="1" stop-color="#121212"/>
</linearGradient>
<linearGradient id="paint18_linear_294_16834" x1="483.427" y1="600.41" x2="763.496" y2="644.768" gradientUnits="userSpaceOnUse">
<stop stop-color="#DE701D"/>
<stop offset="1" stop-color="#121212"/>
</linearGradient>
<linearGradient id="paint19_linear_294_16834" x1="483.808" y1="598.014" x2="763.06" y2="647.254" gradientUnits="userSpaceOnUse">
<stop stop-color="#DE701D"/>
<stop offset="1" stop-color="#121212"/>
</linearGradient>
<linearGradient id="paint20_linear_294_16834" x1="484.227" y1="595.621" x2="762.577" y2="649.727" gradientUnits="userSpaceOnUse">
<stop stop-color="#DE701D"/>
<stop offset="1" stop-color="#121212"/>
</linearGradient>
<linearGradient id="paint21_linear_294_16834" x1="484.69" y1="593.238" x2="762.054" y2="652.193" gradientUnits="userSpaceOnUse">
<stop stop-color="#DE701D"/>
<stop offset="1" stop-color="#121212"/>
</linearGradient>
<linearGradient id="paint22_linear_294_16834" x1="485.2" y1="590.86" x2="761.492" y2="654.647" gradientUnits="userSpaceOnUse">
<stop stop-color="#DE701D"/>
<stop offset="1" stop-color="#121212"/>
</linearGradient>
<linearGradient id="paint23_linear_294_16834" x1="485.744" y1="588.501" x2="760.882" y2="657.1" gradientUnits="userSpaceOnUse">
<stop stop-color="#DE701D"/>
<stop offset="1" stop-color="#121212"/>
</linearGradient>
<linearGradient id="paint24_linear_294_16834" x1="486.331" y1="586.14" x2="760.23" y2="659.531" gradientUnits="userSpaceOnUse">
<stop stop-color="#DE701D"/>
<stop offset="1" stop-color="#121212"/>
</linearGradient>
<linearGradient id="paint25_linear_294_16834" x1="486.96" y1="583.798" x2="759.535" y2="661.958" gradientUnits="userSpaceOnUse">
<stop stop-color="#DE701D"/>
<stop offset="1" stop-color="#121212"/>
</linearGradient>
<linearGradient id="paint26_linear_294_16834" x1="487.629" y1="581.467" x2="758.799" y2="664.372" gradientUnits="userSpaceOnUse">
<stop stop-color="#DE701D"/>
<stop offset="1" stop-color="#121212"/>
</linearGradient>
<linearGradient id="paint27_linear_294_16834" x1="488.342" y1="579.143" x2="758.024" y2="666.768" gradientUnits="userSpaceOnUse">
<stop stop-color="#DE701D"/>
<stop offset="1" stop-color="#121212"/>
</linearGradient>
<linearGradient id="paint28_linear_294_16834" x1="489.09" y1="576.834" x2="757.201" y2="669.153" gradientUnits="userSpaceOnUse">
<stop stop-color="#DE701D"/>
<stop offset="1" stop-color="#121212"/>
</linearGradient>
<linearGradient id="paint29_linear_294_16834" x1="489.884" y1="574.538" x2="756.343" y2="671.521" gradientUnits="userSpaceOnUse">
<stop stop-color="#DE701D"/>
<stop offset="1" stop-color="#121212"/>
</linearGradient>
<linearGradient id="paint30_linear_294_16834" x1="490.713" y1="572.255" x2="755.439" y2="673.873" gradientUnits="userSpaceOnUse">
<stop stop-color="#DE701D"/>
<stop offset="1" stop-color="#121212"/>
</linearGradient>
<linearGradient id="paint31_linear_294_16834" x1="491.589" y1="569.988" x2="754.501" y2="676.211" gradientUnits="userSpaceOnUse">
<stop stop-color="#DE701D"/>
<stop offset="1" stop-color="#121212"/>
</linearGradient>
<linearGradient id="paint32_linear_294_16834" x1="492.494" y1="567.743" x2="753.512" y2="678.539" gradientUnits="userSpaceOnUse">
<stop stop-color="#DE701D"/>
<stop offset="1" stop-color="#121212"/>
</linearGradient>
<linearGradient id="paint33_linear_294_16834" x1="493.444" y1="565.505" x2="752.489" y2="680.84" gradientUnits="userSpaceOnUse">
<stop stop-color="#DE701D"/>
<stop offset="1" stop-color="#121212"/>
</linearGradient>
<linearGradient id="paint34_linear_294_16834" x1="494.433" y1="563.287" x2="751.426" y2="683.124" gradientUnits="userSpaceOnUse">
<stop stop-color="#DE701D"/>
<stop offset="1" stop-color="#121212"/>
</linearGradient>
<linearGradient id="paint35_linear_294_16834" x1="495.459" y1="561.088" x2="750.321" y2="685.392" gradientUnits="userSpaceOnUse">
<stop stop-color="#DE701D"/>
<stop offset="1" stop-color="#121212"/>
</linearGradient>
<linearGradient id="paint36_linear_294_16834" x1="496.521" y1="558.906" x2="749.175" y2="687.639" gradientUnits="userSpaceOnUse">
<stop stop-color="#DE701D"/>
<stop offset="1" stop-color="#121212"/>
</linearGradient>
<linearGradient id="paint37_linear_294_16834" x1="497.622" y1="556.742" x2="747.991" y2="689.865" gradientUnits="userSpaceOnUse">
<stop stop-color="#DE701D"/>
<stop offset="1" stop-color="#121212"/>
</linearGradient>
<linearGradient id="paint38_linear_294_16834" x1="498.767" y1="554.6" x2="746.774" y2="692.073" gradientUnits="userSpaceOnUse">
<stop stop-color="#DE701D"/>
<stop offset="1" stop-color="#121212"/>
</linearGradient>
<linearGradient id="paint39_linear_294_16834" x1="499.942" y1="552.479" x2="745.512" y2="694.259" gradientUnits="userSpaceOnUse">
<stop stop-color="#DE701D"/>
<stop offset="1" stop-color="#121212"/>
</linearGradient>
<linearGradient id="paint40_linear_294_16834" x1="501.154" y1="550.378" x2="744.212" y2="696.422" gradientUnits="userSpaceOnUse">
<stop stop-color="#DE701D"/>
<stop offset="1" stop-color="#121212"/>
</linearGradient>
<linearGradient id="paint41_linear_294_16834" x1="502.408" y1="548.295" x2="742.881" y2="698.559" gradientUnits="userSpaceOnUse">
<stop stop-color="#DE701D"/>
<stop offset="1" stop-color="#121212"/>
</linearGradient>
<linearGradient id="paint42_linear_294_16834" x1="503.696" y1="546.235" x2="741.51" y2="700.673" gradientUnits="userSpaceOnUse">
<stop stop-color="#DE701D"/>
<stop offset="1" stop-color="#121212"/>
</linearGradient>
<linearGradient id="paint43_linear_294_16834" x1="505.019" y1="544.199" x2="740.101" y2="702.764" gradientUnits="userSpaceOnUse">
<stop stop-color="#DE701D"/>
<stop offset="1" stop-color="#121212"/>
</linearGradient>
<linearGradient id="paint44_linear_294_16834" x1="506.374" y1="542.185" x2="738.653" y2="704.829" gradientUnits="userSpaceOnUse">
<stop stop-color="#DE701D"/>
<stop offset="1" stop-color="#121212"/>
</linearGradient>
<linearGradient id="paint45_linear_294_16834" x1="507.768" y1="540.198" x2="737.173" y2="706.87" gradientUnits="userSpaceOnUse">
<stop stop-color="#DE701D"/>
<stop offset="1" stop-color="#121212"/>
</linearGradient>
<linearGradient id="paint46_linear_294_16834" x1="509.194" y1="538.231" x2="735.656" y2="708.882" gradientUnits="userSpaceOnUse">
<stop stop-color="#DE701D"/>
<stop offset="1" stop-color="#121212"/>
</linearGradient>
<linearGradient id="paint47_linear_294_16834" x1="510.658" y1="536.298" x2="734.106" y2="710.875" gradientUnits="userSpaceOnUse">
<stop stop-color="#DE701D"/>
<stop offset="1" stop-color="#121212"/>
</linearGradient>
<linearGradient id="paint48_linear_294_16834" x1="512.15" y1="534.383" x2="732.518" y2="712.833" gradientUnits="userSpaceOnUse">
<stop stop-color="#DE701D"/>
<stop offset="1" stop-color="#121212"/>
</linearGradient>
<linearGradient id="paint49_linear_294_16834" x1="513.68" y1="532.497" x2="730.9" y2="714.766" gradientUnits="userSpaceOnUse">
<stop stop-color="#DE701D"/>
<stop offset="1" stop-color="#121212"/>
</linearGradient>
<linearGradient id="paint50_linear_294_16834" x1="515.241" y1="530.638" x2="729.247" y2="716.67" gradientUnits="userSpaceOnUse">
<stop stop-color="#DE701D"/>
<stop offset="1" stop-color="#121212"/>
</linearGradient>
<linearGradient id="paint51_linear_294_16834" x1="516.834" y1="528.802" x2="727.56" y2="718.541" gradientUnits="userSpaceOnUse">
<stop stop-color="#DE701D"/>
<stop offset="1" stop-color="#121212"/>
</linearGradient>
<linearGradient id="paint52_linear_294_16834" x1="518.46" y1="527.003" x2="725.843" y2="720.391" gradientUnits="userSpaceOnUse">
<stop stop-color="#DE701D"/>
<stop offset="1" stop-color="#121212"/>
</linearGradient>
<linearGradient id="paint53_linear_294_16834" x1="520.113" y1="525.224" x2="724.089" y2="722.201" gradientUnits="userSpaceOnUse">
<stop stop-color="#DE701D"/>
<stop offset="1" stop-color="#121212"/>
</linearGradient>
<linearGradient id="paint54_linear_294_16834" x1="521.802" y1="523.477" x2="722.309" y2="723.985" gradientUnits="userSpaceOnUse">
<stop stop-color="#DE701D"/>
<stop offset="1" stop-color="#121212"/>
</linearGradient>
<linearGradient id="paint55_linear_294_16834" x1="523.519" y1="521.765" x2="720.497" y2="725.741" gradientUnits="userSpaceOnUse">
<stop stop-color="#DE701D"/>
<stop offset="1" stop-color="#121212"/>
</linearGradient>
<linearGradient id="paint56_linear_294_16834" x1="525.261" y1="520.078" x2="718.648" y2="727.461" gradientUnits="userSpaceOnUse">
<stop stop-color="#DE701D"/>
<stop offset="1" stop-color="#121212"/>
</linearGradient>
<linearGradient id="paint57_linear_294_16834" x1="527.042" y1="518.425" x2="716.781" y2="729.151" gradientUnits="userSpaceOnUse">
<stop stop-color="#DE701D"/>
<stop offset="1" stop-color="#121212"/>
</linearGradient>
<linearGradient id="paint58_linear_294_16834" x1="528.843" y1="516.8" x2="714.875" y2="730.806" gradientUnits="userSpaceOnUse">
<stop stop-color="#DE701D"/>
<stop offset="1" stop-color="#121212"/>
</linearGradient>
<linearGradient id="paint59_linear_294_16834" x1="530.676" y1="515.206" x2="712.945" y2="732.425" gradientUnits="userSpaceOnUse">
<stop stop-color="#DE701D"/>
<stop offset="1" stop-color="#121212"/>
</linearGradient>
<linearGradient id="paint60_linear_294_16834" x1="532.535" y1="513.648" x2="710.986" y2="734.015" gradientUnits="userSpaceOnUse">
<stop stop-color="#DE701D"/>
<stop offset="1" stop-color="#121212"/>
</linearGradient>
<linearGradient id="paint61_linear_294_16834" x1="534.424" y1="512.12" x2="709.001" y2="735.568" gradientUnits="userSpaceOnUse">
<stop stop-color="#DE701D"/>
<stop offset="1" stop-color="#121212"/>
</linearGradient>
<linearGradient id="paint62_linear_294_16834" x1="536.335" y1="510.624" x2="706.986" y2="737.085" gradientUnits="userSpaceOnUse">
<stop stop-color="#DE701D"/>
<stop offset="1" stop-color="#121212"/>
</linearGradient>
<linearGradient id="paint63_linear_294_16834" x1="538.277" y1="509.163" x2="704.95" y2="738.568" gradientUnits="userSpaceOnUse">
<stop stop-color="#DE701D"/>
<stop offset="1" stop-color="#121212"/>
</linearGradient>
<linearGradient id="paint64_linear_294_16834" x1="540.24" y1="507.736" x2="702.883" y2="740.014" gradientUnits="userSpaceOnUse">
<stop stop-color="#DE701D"/>
<stop offset="1" stop-color="#121212"/>
</linearGradient>
<linearGradient id="paint65_linear_294_16834" x1="542.231" y1="506.346" x2="700.795" y2="741.428" gradientUnits="userSpaceOnUse">
<stop stop-color="#DE701D"/>
<stop offset="1" stop-color="#121212"/>
</linearGradient>
<linearGradient id="paint66_linear_294_16834" x1="544.244" y1="504.987" x2="698.682" y2="742.8" gradientUnits="userSpaceOnUse">
<stop stop-color="#DE701D"/>
<stop offset="1" stop-color="#121212"/>
</linearGradient>
<linearGradient id="paint67_linear_294_16834" x1="546.281" y1="503.67" x2="696.545" y2="744.143" gradientUnits="userSpaceOnUse">
<stop stop-color="#DE701D"/>
<stop offset="1" stop-color="#121212"/>
</linearGradient>
<linearGradient id="paint68_linear_294_16834" x1="548.339" y1="502.38" x2="694.383" y2="745.439" gradientUnits="userSpaceOnUse">
<stop stop-color="#DE701D"/>
<stop offset="1" stop-color="#121212"/>
</linearGradient>
<linearGradient id="paint69_linear_294_16834" x1="550.418" y1="501.13" x2="692.198" y2="746.7" gradientUnits="userSpaceOnUse">
<stop stop-color="#DE701D"/>
<stop offset="1" stop-color="#121212"/>
</linearGradient>
<linearGradient id="paint70_linear_294_16834" x1="552.522" y1="499.919" x2="689.994" y2="747.926" gradientUnits="userSpaceOnUse">
<stop stop-color="#DE701D"/>
<stop offset="1" stop-color="#121212"/>
</linearGradient>
<linearGradient id="paint71_linear_294_16834" x1="554.649" y1="498.737" x2="687.772" y2="749.106" gradientUnits="userSpaceOnUse">
<stop stop-color="#DE701D"/>
<stop offset="1" stop-color="#121212"/>
</linearGradient>
<linearGradient id="paint72_linear_294_16834" x1="556.791" y1="497.598" x2="685.525" y2="750.252" gradientUnits="userSpaceOnUse">
<stop stop-color="#DE701D"/>
<stop offset="1" stop-color="#121212"/>
</linearGradient>
<linearGradient id="paint73_linear_294_16834" x1="558.953" y1="496.502" x2="683.258" y2="751.364" gradientUnits="userSpaceOnUse">
<stop stop-color="#DE701D"/>
<stop offset="1" stop-color="#121212"/>
</linearGradient>
<linearGradient id="paint74_linear_294_16834" x1="561.134" y1="495.438" x2="680.971" y2="752.431" gradientUnits="userSpaceOnUse">
<stop stop-color="#DE701D"/>
<stop offset="1" stop-color="#121212"/>
</linearGradient>
<linearGradient id="paint75_linear_294_16834" x1="563.333" y1="494.409" x2="678.668" y2="753.454" gradientUnits="userSpaceOnUse">
<stop stop-color="#DE701D"/>
<stop offset="1" stop-color="#121212"/>
</linearGradient>
<linearGradient id="paint76_linear_294_16834" x1="565.558" y1="493.423" x2="676.353" y2="754.441" gradientUnits="userSpaceOnUse">
<stop stop-color="#DE701D"/>
<stop offset="1" stop-color="#121212"/>
</linearGradient>
<linearGradient id="paint77_linear_294_16834" x1="567.791" y1="492.472" x2="674.014" y2="755.385" gradientUnits="userSpaceOnUse">
<stop stop-color="#DE701D"/>
<stop offset="1" stop-color="#121212"/>
</linearGradient>
<linearGradient id="paint78_linear_294_16834" x1="570.04" y1="491.565" x2="671.659" y2="756.292" gradientUnits="userSpaceOnUse">
<stop stop-color="#DE701D"/>
<stop offset="1" stop-color="#121212"/>
</linearGradient>
<linearGradient id="paint79_linear_294_16834" x1="572.311" y1="490.692" x2="669.294" y2="757.152" gradientUnits="userSpaceOnUse">
<stop stop-color="#DE701D"/>
<stop offset="1" stop-color="#121212"/>
</linearGradient>
<linearGradient id="paint80_linear_294_16834" x1="574.587" y1="489.864" x2="666.905" y2="757.975" gradientUnits="userSpaceOnUse">
<stop stop-color="#DE701D"/>
<stop offset="1" stop-color="#121212"/>
</linearGradient>
<linearGradient id="paint81_linear_294_16834" x1="576.886" y1="489.075" x2="664.511" y2="758.757" gradientUnits="userSpaceOnUse">
<stop stop-color="#DE701D"/>
<stop offset="1" stop-color="#121212"/>
</linearGradient>
<linearGradient id="paint82_linear_294_16834" x1="579.194" y1="488.324" x2="662.099" y2="759.494" gradientUnits="userSpaceOnUse">
<stop stop-color="#DE701D"/>
<stop offset="1" stop-color="#121212"/>
</linearGradient>
<linearGradient id="paint83_linear_294_16834" x1="581.517" y1="487.614" x2="659.676" y2="760.19" gradientUnits="userSpaceOnUse">
<stop stop-color="#DE701D"/>
<stop offset="1" stop-color="#121212"/>
</linearGradient>
<linearGradient id="paint84_linear_294_16834" x1="583.848" y1="486.948" x2="657.239" y2="760.846" gradientUnits="userSpaceOnUse">
<stop stop-color="#DE701D"/>
<stop offset="1" stop-color="#121212"/>
</linearGradient>
<linearGradient id="paint85_linear_294_16834" x1="586.195" y1="486.317" x2="654.794" y2="761.454" gradientUnits="userSpaceOnUse">
<stop stop-color="#DE701D"/>
<stop offset="1" stop-color="#121212"/>
</linearGradient>
<linearGradient id="paint86_linear_294_16834" x1="588.553" y1="485.732" x2="652.34" y2="762.024" gradientUnits="userSpaceOnUse">
<stop stop-color="#DE701D"/>
<stop offset="1" stop-color="#121212"/>
</linearGradient>
<linearGradient id="paint87_linear_294_16834" x1="590.915" y1="485.187" x2="649.871" y2="762.55" gradientUnits="userSpaceOnUse">
<stop stop-color="#DE701D"/>
<stop offset="1" stop-color="#121212"/>
</linearGradient>
<linearGradient id="paint88_linear_294_16834" x1="593.29" y1="484.681" x2="647.396" y2="763.031" gradientUnits="userSpaceOnUse">
<stop stop-color="#DE701D"/>
<stop offset="1" stop-color="#121212"/>
</linearGradient>
<linearGradient id="paint89_linear_294_16834" x1="595.672" y1="484.218" x2="644.912" y2="763.47" gradientUnits="userSpaceOnUse">
<stop stop-color="#DE701D"/>
<stop offset="1" stop-color="#121212"/>
</linearGradient>
<linearGradient id="paint90_linear_294_16834" x1="598.066" y1="483.8" x2="642.424" y2="763.869" gradientUnits="userSpaceOnUse">
<stop stop-color="#DE701D"/>
<stop offset="1" stop-color="#121212"/>
</linearGradient>
<linearGradient id="paint91_linear_294_16834" x1="600.461" y1="483.418" x2="639.925" y2="764.219" gradientUnits="userSpaceOnUse">
<stop stop-color="#DE701D"/>
<stop offset="1" stop-color="#121212"/>
</linearGradient>
<linearGradient id="paint92_linear_294_16834" x1="602.868" y1="483.084" x2="637.425" y2="764.53" gradientUnits="userSpaceOnUse">
<stop stop-color="#DE701D"/>
<stop offset="1" stop-color="#121212"/>
</linearGradient>
<linearGradient id="paint93_linear_294_16834" x1="605.278" y1="482.788" x2="634.918" y2="764.795" gradientUnits="userSpaceOnUse">
<stop stop-color="#DE701D"/>
<stop offset="1" stop-color="#121212"/>
</linearGradient>
<linearGradient id="paint94_linear_294_16834" x1="607.691" y1="482.534" x2="632.405" y2="765.015" gradientUnits="userSpaceOnUse">
<stop stop-color="#DE701D"/>
<stop offset="1" stop-color="#121212"/>
</linearGradient>
<linearGradient id="paint95_linear_294_16834" x1="610.111" y1="482.32" x2="629.891" y2="765.19" gradientUnits="userSpaceOnUse">
<stop stop-color="#DE701D"/>
<stop offset="1" stop-color="#121212"/>
</linearGradient>
<linearGradient id="paint96_linear_294_16834" x1="612.53" y1="482.154" x2="627.371" y2="765.326" gradientUnits="userSpaceOnUse">
<stop stop-color="#DE701D"/>
<stop offset="1" stop-color="#121212"/>
</linearGradient>
<linearGradient id="paint97_linear_294_16834" x1="614.955" y1="482.027" x2="624.852" y2="765.414" gradientUnits="userSpaceOnUse">
<stop stop-color="#DE701D"/>
<stop offset="1" stop-color="#121212"/>
</linearGradient>
<linearGradient id="paint98_linear_294_16834" x1="617.384" y1="481.941" x2="622.333" y2="765.458" gradientUnits="userSpaceOnUse">
<stop stop-color="#DE701D"/>
<stop offset="1" stop-color="#121212"/>
</linearGradient>
<linearGradient id="paint99_linear_294_16834" x1="619.812" y1="481.9" x2="619.812" y2="765.46" gradientUnits="userSpaceOnUse">
<stop stop-color="#DE701D"/>
<stop offset="1" stop-color="#121212"/>
</linearGradient>
</defs>
</svg>
