<svg width="642" height="1405" viewBox="0 0 642 1405" fill="none" xmlns="http://www.w3.org/2000/svg">
<path d="M814.973 856.059C917.369 781.664 997.522 697.067 1044.34 620.445C1067.75 582.134 1082.82 545.832 1088.17 513.808C1093.53 481.786 1089.17 454.07 1073.78 432.881C1058.38 411.693 1033.37 398.985 1001.26 394.183C969.149 389.381 929.968 392.493 886.298 402.918C798.958 423.768 693.734 473.856 591.337 548.251C488.941 622.646 408.788 707.243 361.969 783.864C338.559 822.176 323.493 858.478 318.137 890.502C312.781 922.524 317.137 950.24 332.532 971.429C347.926 992.617 372.939 1005.33 405.049 1010.13C437.161 1014.93 476.342 1011.82 520.012 1001.39C607.352 980.542 712.577 930.454 814.973 856.059Z" stroke="url(#paint0_linear_311_18637)" stroke-opacity="0.3" stroke-width="0.717125"/>
<path d="M817.642 854.087C918.724 777.916 997.388 691.933 1042.86 614.506C1065.6 575.792 1080.03 539.233 1084.83 507.12C1089.62 475.009 1084.78 447.374 1069.02 426.457C1053.26 405.54 1028.03 393.271 995.841 389.031C963.65 384.79 924.529 388.584 881.048 399.77C794.086 422.141 689.751 474.058 588.669 550.229C487.586 626.4 408.922 712.383 363.448 789.81C340.71 828.524 326.279 865.083 321.483 897.196C316.686 929.307 321.526 956.942 337.288 977.859C353.05 998.776 378.281 1011.05 410.47 1015.29C442.661 1019.53 481.781 1015.73 525.263 1004.55C612.225 982.175 716.56 930.258 817.642 854.087Z" stroke="url(#paint1_linear_311_18637)" stroke-opacity="0.3" stroke-width="0.717125"/>
<path d="M820.274 852.064C920.012 774.14 997.163 686.798 1041.28 608.589C1063.34 569.484 1077.13 532.678 1081.36 500.487C1085.6 468.297 1080.28 440.75 1064.15 420.112C1048.03 399.473 1022.59 387.646 990.33 383.968C958.07 380.29 919.021 384.766 875.741 396.709C789.183 420.595 685.77 474.325 586.033 552.248C486.295 630.172 409.144 717.514 365.027 795.723C342.969 834.828 329.179 871.633 324.943 903.825C320.708 936.015 326.029 963.562 342.153 984.2C358.278 1004.84 383.719 1016.67 415.978 1020.34C448.237 1024.02 487.286 1019.55 530.566 1007.6C617.124 983.717 720.537 929.987 820.274 852.064Z" stroke="url(#paint2_linear_311_18637)" stroke-opacity="0.3" stroke-width="0.717125"/>
<path d="M822.874 850C921.236 770.347 996.852 681.672 1039.6 602.705C1060.97 563.221 1074.11 526.18 1077.79 493.92C1081.46 461.661 1075.66 434.211 1059.18 413.857C1042.7 393.503 1017.05 382.122 984.734 379.007C952.415 375.893 913.45 381.05 870.385 393.747C784.257 419.139 681.798 474.665 583.435 554.318C485.073 633.97 409.458 722.646 366.713 801.613C345.34 841.097 332.194 878.137 328.521 910.398C324.849 942.657 330.65 970.107 347.132 990.46C363.614 1010.81 389.258 1022.2 421.575 1025.31C453.895 1028.42 492.859 1023.27 535.924 1010.57C622.052 985.178 724.511 929.652 822.874 850Z" stroke="url(#paint3_linear_311_18637)" stroke-opacity="0.3" stroke-width="0.717125"/>
<path d="M825.436 847.883C922.394 766.526 996.45 676.544 1037.81 596.843C1058.49 556.992 1070.99 519.728 1074.1 487.408C1077.21 455.09 1070.93 427.745 1054.09 407.682C1037.26 387.619 1011.42 376.687 979.052 374.137C946.683 371.587 907.815 377.424 864.978 390.87C779.306 417.762 677.831 475.068 580.874 556.425C483.917 637.781 409.86 727.763 368.5 807.464C347.82 847.315 335.322 884.58 332.213 916.899C329.104 949.217 335.383 976.562 352.218 996.625C369.053 1016.69 394.892 1027.62 427.259 1030.17C459.627 1032.72 498.496 1026.88 541.332 1013.44C627.004 986.546 728.479 929.24 825.436 847.883Z" stroke="url(#paint4_linear_311_18637)" stroke-opacity="0.3" stroke-width="0.717125"/>
<path d="M827.958 845.727C923.48 762.691 995.955 671.43 1035.92 591.02C1055.9 550.814 1067.74 513.337 1070.29 480.968C1072.83 448.601 1066.08 421.37 1048.9 401.604C1031.71 381.838 1005.69 371.358 973.282 369.373C940.873 367.388 902.113 373.903 859.517 388.094C774.328 416.477 673.869 475.545 578.346 558.582C482.823 641.619 410.349 732.879 370.386 813.29C350.404 853.496 338.559 890.972 336.014 923.342C333.47 955.709 340.225 982.94 357.407 1002.71C374.59 1022.47 400.615 1032.95 433.022 1034.94C465.43 1036.92 504.191 1030.41 546.786 1016.22C631.976 987.832 732.435 928.764 827.958 845.727Z" stroke="url(#paint5_linear_311_18637)" stroke-opacity="0.3" stroke-width="0.717125"/>
<path d="M830.446 843.53C924.505 758.839 995.376 666.327 1033.93 585.231C1053.21 544.683 1064.4 507.005 1066.37 474.596C1068.35 442.19 1061.12 415.081 1043.6 395.618C1026.08 376.154 999.871 366.131 967.434 364.712C934.996 363.293 896.355 370.482 854.014 385.415C769.333 415.281 669.92 476.093 575.861 560.784C481.802 645.475 410.931 737.987 372.378 819.082C353.101 859.631 341.912 897.309 339.932 929.717C337.953 962.124 345.182 989.233 362.707 1008.7C380.232 1028.16 406.436 1038.18 438.873 1039.6C471.311 1041.02 509.952 1033.83 552.293 1018.9C636.974 989.033 736.387 928.221 830.446 843.53Z" stroke="url(#paint6_linear_311_18637)" stroke-opacity="0.3" stroke-width="0.717125"/>
<path d="M832.894 841.288C925.46 754.968 994.706 661.234 1031.84 579.478C1050.4 538.599 1060.93 500.732 1062.35 468.294C1063.76 435.857 1056.06 408.879 1038.2 389.724C1020.34 370.57 993.961 361.005 961.505 360.152C929.047 359.3 890.537 367.163 848.463 382.832C764.316 414.171 665.979 476.709 573.413 563.029C480.846 649.349 411.601 743.083 374.469 824.839C355.902 865.718 345.372 903.585 343.959 936.023C342.545 968.46 350.247 995.438 368.109 1014.59C385.97 1033.75 412.346 1043.31 444.802 1044.16C477.26 1045.02 515.769 1037.15 557.844 1021.48C641.991 990.146 740.327 927.608 832.894 841.288Z" stroke="url(#paint7_linear_311_18637)" stroke-opacity="0.3" stroke-width="0.717125"/>
<path d="M835.305 839.002C926.351 751.08 993.95 656.152 1029.65 573.76C1047.5 532.563 1057.37 494.518 1058.21 462.06C1059.06 429.604 1050.89 402.764 1032.7 383.924C1014.5 365.084 987.965 355.981 955.499 355.695C923.031 355.409 884.665 363.943 842.87 380.345C759.283 413.147 662.053 477.392 571.007 565.314C479.961 653.236 412.362 748.165 376.662 830.556C358.812 871.753 348.945 909.798 348.097 942.256C347.25 974.712 355.422 1001.55 373.615 1020.39C391.808 1039.23 418.347 1048.33 450.813 1048.62C483.28 1048.91 521.647 1040.37 563.441 1023.97C647.029 991.169 744.259 926.924 835.305 839.002Z" stroke="url(#paint8_linear_311_18637)" stroke-opacity="0.3" stroke-width="0.717125"/>
<path d="M837.669 836.675C927.167 747.178 993.099 651.084 1027.36 568.081C1044.48 526.58 1053.69 488.368 1053.97 455.9C1054.25 423.434 1045.61 396.741 1027.09 378.221C1008.57 359.702 981.877 351.064 949.411 351.344C916.943 351.625 878.731 360.827 837.229 377.955C754.227 412.212 658.133 478.144 568.635 567.641C479.138 657.139 413.206 753.233 378.949 836.235C361.821 877.737 352.619 915.949 352.338 948.417C352.058 980.883 360.696 1007.58 379.215 1026.1C397.735 1044.61 424.428 1053.25 456.894 1052.97C489.362 1052.69 527.574 1043.49 569.075 1026.36C652.078 992.105 748.172 926.173 837.669 836.675Z" stroke="url(#paint9_linear_311_18637)" stroke-opacity="0.3" stroke-width="0.717125"/>
<path d="M839.996 834.307C927.918 743.261 992.163 646.031 1024.97 562.443C1041.37 520.649 1049.9 482.282 1049.61 449.814C1049.33 417.348 1040.23 390.81 1021.39 372.617C1002.55 354.423 975.706 346.252 943.25 347.099C910.792 347.947 872.746 357.814 831.55 375.664C749.158 411.364 654.229 478.963 566.307 570.009C478.385 661.055 414.14 758.285 381.338 841.872C364.936 883.667 356.403 922.033 356.689 954.501C356.975 986.967 366.078 1013.51 384.918 1031.7C403.757 1049.89 430.597 1058.06 463.053 1057.22C495.511 1056.37 533.557 1046.5 574.753 1028.65C657.145 992.952 752.074 925.353 839.996 834.307Z" stroke="url(#paint10_linear_311_18637)" stroke-opacity="0.3" stroke-width="0.717125"/>
<path d="M842.282 831.899C928.602 739.333 991.14 640.996 1022.48 556.849C1038.15 514.775 1046.01 476.265 1045.16 443.807C1044.31 411.351 1034.74 384.976 1015.59 367.114C996.432 349.252 969.454 341.55 937.018 342.964C904.579 344.377 866.712 354.908 825.833 373.474C744.077 410.606 650.343 479.851 564.023 572.418C477.703 664.985 415.165 763.321 383.826 847.468C368.157 889.543 360.294 928.052 361.147 960.51C361.999 992.966 371.564 1019.34 390.718 1037.2C409.873 1055.07 436.851 1062.77 469.288 1061.35C501.726 1059.94 539.593 1049.41 580.472 1030.84C662.228 993.711 755.963 924.466 842.282 831.899Z" stroke="url(#paint11_linear_311_18637)" stroke-opacity="0.3" stroke-width="0.717125"/>
<path d="M844.526 829.452C929.217 735.393 990.029 635.98 1019.89 551.299C1034.83 508.958 1042.02 470.317 1040.6 437.879C1039.18 405.442 1029.16 379.238 1009.69 361.713C990.229 344.188 963.12 336.959 930.713 338.938C898.305 340.918 860.627 352.107 820.078 371.384C738.983 409.937 646.471 480.808 561.78 574.867C477.089 668.926 416.277 768.339 386.411 853.02C371.478 895.361 364.289 934.002 365.708 966.44C367.127 998.877 377.15 1025.08 396.614 1042.61C416.077 1060.13 443.186 1067.36 475.592 1065.38C508.001 1063.4 545.679 1052.21 586.227 1032.94C667.323 994.382 759.835 923.511 844.526 829.452Z" stroke="url(#paint12_linear_311_18637)" stroke-opacity="0.3" stroke-width="0.717125"/>
<path d="M846.728 826.961C929.764 731.438 988.833 630.979 1017.22 545.79C1031.41 503.194 1037.92 464.433 1035.94 432.025C1033.95 399.619 1023.47 373.593 1003.71 356.411C983.94 339.228 956.709 332.473 924.342 335.017C891.973 337.562 854.496 349.407 814.29 369.389C733.88 409.352 642.619 481.826 559.582 577.349C476.546 672.872 417.477 773.331 389.095 858.52C374.903 901.116 368.389 939.877 370.374 972.285C372.358 1004.69 382.838 1030.72 402.604 1047.9C422.37 1065.08 449.601 1071.84 481.968 1069.29C514.337 1066.75 551.814 1054.9 592.02 1034.92C672.431 994.958 763.691 922.484 846.728 826.961Z" stroke="url(#paint13_linear_311_18637)" stroke-opacity="0.3" stroke-width="0.717125"/>
<path d="M848.878 824.437C930.235 727.479 987.541 626.005 1014.43 540.333C1027.88 497.496 1033.72 458.628 1031.17 426.259C1028.62 393.892 1017.68 368.053 997.62 351.218C977.557 334.384 950.212 328.104 917.894 331.213C885.575 334.323 848.31 346.82 808.459 367.501C728.758 408.861 638.777 482.917 557.42 579.874C476.063 676.832 418.757 778.306 391.865 863.978C378.419 906.815 372.582 945.683 375.132 978.052C377.682 1010.42 388.615 1036.26 408.678 1053.09C428.741 1069.93 456.085 1076.21 488.403 1073.1C520.723 1069.99 557.987 1057.49 597.838 1036.81C677.539 995.45 767.521 921.394 848.878 824.437Z" stroke="url(#paint14_linear_311_18637)" stroke-opacity="0.3" stroke-width="0.717125"/>
<path d="M850.994 821.878C930.646 723.516 986.172 621.056 1011.56 534.928C1024.26 491.863 1029.42 452.899 1026.3 420.58C1023.19 388.262 1011.81 362.618 991.454 346.136C971.101 329.654 943.651 323.853 911.392 327.526C879.131 331.199 842.091 344.344 802.607 365.717C723.64 408.462 634.964 484.077 555.312 582.44C475.659 680.802 420.133 783.262 394.741 869.39C382.044 912.455 376.887 951.419 380.001 983.738C383.116 1016.06 394.497 1041.7 414.851 1058.18C435.205 1074.66 462.655 1080.47 494.914 1076.79C527.174 1073.12 564.215 1059.97 603.699 1038.6C682.666 995.856 771.342 920.241 850.994 821.878Z" stroke="url(#paint15_linear_311_18637)" stroke-opacity="0.3" stroke-width="0.717125"/>
<path d="M853.06 819.277C930.984 719.54 984.714 616.127 1008.6 529.569C1020.54 486.289 1025.02 447.24 1021.34 414.98C1017.66 382.722 1005.84 357.281 985.197 341.156C964.559 325.032 937.012 319.711 904.822 323.946C872.63 328.181 835.825 341.972 796.72 364.03C718.511 408.147 631.168 485.298 553.245 585.036C475.321 684.773 421.592 788.186 397.706 874.744C385.763 918.024 381.287 957.073 384.965 989.333C388.643 1021.59 400.47 1047.03 421.108 1063.16C441.747 1079.28 469.294 1084.6 501.484 1080.37C533.675 1076.13 570.481 1062.34 609.586 1040.28C687.794 996.166 775.137 919.015 853.06 819.277Z" stroke="url(#paint16_linear_311_18637)" stroke-opacity="0.3" stroke-width="0.717125"/>
<path d="M855.081 816.641C931.252 715.559 983.169 611.224 1005.54 524.262C1016.73 480.78 1020.52 441.659 1016.28 409.469C1012.04 377.279 999.769 352.048 978.853 336.286C957.936 320.525 930.3 315.685 898.189 320.481C866.077 325.278 829.518 339.709 790.803 362.446C713.377 407.921 627.394 486.585 551.223 587.667C475.052 688.75 423.135 793.084 400.764 880.046C389.578 923.528 385.784 962.649 390.024 994.84C394.265 1027.03 406.534 1052.26 427.451 1068.02C448.367 1083.78 476.003 1088.62 508.114 1083.83C540.227 1079.03 576.786 1064.6 615.5 1041.86C692.927 996.387 778.91 917.723 855.081 816.641Z" stroke="url(#paint17_linear_311_18637)" stroke-opacity="0.3" stroke-width="0.717125"/>
<path d="M857.059 813.976C931.454 711.58 981.542 606.355 1002.39 519.015C1012.82 475.345 1015.93 436.164 1011.13 404.052C1006.33 371.942 993.617 346.929 972.429 331.535C951.24 316.14 923.524 311.784 891.502 317.14C859.478 322.496 823.176 337.562 784.865 360.972C708.243 407.791 623.646 487.944 549.251 590.34C474.856 692.736 424.768 797.961 403.918 885.301C393.493 928.971 390.382 968.152 395.183 1000.26C399.985 1032.37 412.693 1057.39 433.881 1072.78C455.07 1088.18 482.786 1092.53 514.808 1087.18C546.832 1081.82 583.134 1066.75 621.446 1043.34C698.067 996.525 782.664 916.372 857.059 813.976Z" stroke="url(#paint18_linear_311_18637)" stroke-opacity="0.3" stroke-width="0.717125"/>
<path d="M858.987 811.269C931.583 707.59 979.827 601.507 999.15 513.818C1008.81 469.972 1011.24 430.743 1005.88 398.719C1000.52 366.698 987.373 341.91 965.919 326.888C944.465 311.866 916.677 307.994 884.753 313.908C852.827 319.822 816.794 335.52 778.897 359.595C703.104 407.744 619.919 489.361 547.322 593.04C474.726 696.719 426.482 802.802 407.159 890.492C397.498 934.338 395.071 973.567 400.432 1005.59C405.794 1037.61 418.936 1062.4 440.39 1077.42C461.844 1092.44 489.632 1096.32 521.556 1090.4C553.482 1084.49 589.515 1068.79 627.412 1044.71C703.205 996.566 786.39 914.949 858.987 811.269Z" stroke="url(#paint19_linear_311_18637)" stroke-opacity="0.3" stroke-width="0.717125"/>
<path d="M860.862 808.537C931.638 703.607 978.023 596.698 995.812 508.684C1004.71 464.676 1006.45 425.411 1000.53 393.486C994.61 361.563 981.037 337.009 959.324 322.363C937.611 307.718 909.76 304.331 877.944 310.801C846.127 317.272 810.373 333.596 772.902 358.329C697.961 407.793 616.213 490.85 545.437 595.78C474.66 700.71 428.275 807.619 410.486 895.633C401.591 939.64 399.849 978.906 405.769 1010.83C411.688 1042.75 425.261 1067.31 446.974 1081.95C468.687 1096.6 496.538 1099.99 528.354 1093.52C560.172 1087.04 595.925 1070.72 633.397 1045.99C708.337 996.523 790.085 913.467 860.862 808.537Z" stroke="url(#paint20_linear_311_18637)" stroke-opacity="0.3" stroke-width="0.717125"/>
<path d="M862.696 805.765C931.63 699.616 976.142 591.914 992.393 503.603C1000.52 459.447 1001.57 420.157 995.098 388.34C988.623 356.526 974.623 332.212 952.658 317.947C930.693 303.683 902.787 300.783 871.089 307.808C839.389 314.833 803.926 331.778 766.892 357.161C692.826 407.926 612.54 492.396 543.605 598.546C474.671 704.695 430.159 812.397 413.908 900.708C405.783 944.864 404.727 984.154 411.202 1015.97C417.678 1047.79 431.678 1072.1 453.643 1086.36C475.608 1100.63 503.514 1103.53 535.212 1096.5C566.912 1089.48 602.375 1072.53 639.409 1047.15C713.475 996.385 793.761 911.915 862.696 805.765Z" stroke="url(#paint21_linear_311_18637)" stroke-opacity="0.3" stroke-width="0.717125"/>
<path d="M864.481 802.97C931.552 695.633 974.178 587.171 988.885 498.59C996.238 454.299 996.609 414.996 989.579 383.297C982.549 351.6 968.127 327.535 945.916 313.656C923.706 299.777 895.753 297.365 864.183 304.941C832.61 312.518 797.448 330.08 760.863 356.106C687.694 408.155 608.894 494.014 541.823 601.35C474.752 708.687 432.126 817.149 417.419 905.73C410.066 950.022 409.695 989.324 416.725 1021.02C423.755 1052.72 438.177 1076.79 460.388 1090.66C482.598 1104.54 510.551 1106.96 542.121 1099.38C573.694 1091.8 608.856 1074.24 645.441 1048.21C718.61 996.165 797.41 910.306 864.481 802.97Z" stroke="url(#paint22_linear_311_18637)" stroke-opacity="0.3" stroke-width="0.717125"/>
<path d="M866.219 800.133C931.407 691.643 972.133 582.453 985.292 493.629C991.871 449.216 991.556 409.913 983.974 378.342C976.392 346.772 961.552 322.962 939.102 309.473C916.653 295.984 888.663 294.059 857.229 302.186C825.794 310.313 790.943 328.486 754.818 355.146C682.568 408.464 605.279 495.685 540.091 604.176C474.904 712.666 434.177 821.857 421.019 910.681C414.439 955.093 414.755 994.396 422.337 1025.97C429.919 1057.54 444.759 1081.35 467.208 1094.84C489.658 1108.33 517.648 1110.25 549.082 1102.12C580.517 1094 615.368 1075.82 651.493 1049.16C723.742 995.845 801.032 908.624 866.219 800.133Z" stroke="url(#paint23_linear_311_18637)" stroke-opacity="0.3" stroke-width="0.717125"/>
<path d="M867.901 797.275C931.186 687.663 970 577.779 981.607 488.739C987.41 444.218 986.409 404.926 978.276 373.492C970.145 342.06 954.892 318.512 932.21 305.417C909.529 292.322 881.509 290.886 850.222 299.56C818.933 308.234 784.405 327.013 748.751 354.299C677.443 408.871 601.688 497.427 538.403 607.039C475.119 716.651 436.304 826.535 424.698 915.575C418.895 960.096 419.896 999.387 428.028 1030.82C436.16 1062.25 451.413 1085.8 474.094 1098.9C496.776 1111.99 524.795 1113.43 556.083 1104.75C587.371 1096.08 621.899 1077.3 657.554 1050.01C728.862 995.443 804.617 906.887 867.901 797.275Z" stroke="url(#paint24_linear_311_18637)" stroke-opacity="0.3" stroke-width="0.717125"/>
<path d="M869.538 794.386C930.9 683.686 967.791 573.141 977.841 483.912C982.867 439.297 981.18 400.029 972.5 368.741C963.821 337.456 948.16 314.178 925.253 301.48C902.346 288.783 874.306 287.837 843.175 297.055C812.042 306.274 777.847 325.653 742.674 353.557C672.33 409.365 598.132 499.23 536.77 609.929C475.408 720.629 438.517 831.174 428.467 920.403C423.441 965.018 425.128 1004.29 433.808 1035.57C442.487 1066.86 458.148 1090.14 481.055 1102.83C503.962 1115.53 532.002 1116.48 563.133 1107.26C594.266 1098.04 628.461 1078.66 663.634 1050.76C733.978 994.95 808.176 905.085 869.538 794.386Z" stroke="url(#paint25_linear_311_18637)" stroke-opacity="0.3" stroke-width="0.717125"/>
<path d="M871.121 791.468C930.541 679.715 965.497 568.543 973.989 479.152C978.235 434.456 975.863 395.223 966.639 364.092C957.415 332.963 941.35 309.961 918.225 297.666C895.1 285.37 867.048 284.913 836.082 294.674C805.115 304.435 771.264 324.407 736.583 352.921C667.223 409.948 594.605 501.094 535.184 612.848C475.764 724.601 440.808 835.773 432.316 925.164C428.07 969.86 430.442 1009.09 439.666 1040.22C448.89 1071.35 464.955 1094.35 488.08 1106.65C511.205 1118.95 539.257 1119.4 570.223 1109.64C601.19 1099.88 635.041 1079.91 669.722 1051.4C739.082 994.368 811.7 903.222 871.121 791.468Z" stroke="url(#paint26_linear_311_18637)" stroke-opacity="0.3" stroke-width="0.717125"/>
<path d="M872.655 788.522C930.116 675.749 963.126 563.984 970.056 474.458C973.522 429.695 970.465 390.51 960.699 359.544C950.934 328.581 934.469 305.863 911.133 293.973C887.798 282.083 859.741 282.116 828.951 292.415C798.159 302.715 764.661 323.275 730.484 352.39C662.13 410.619 591.113 503.018 533.652 615.792C476.191 728.566 443.18 840.331 436.25 929.856C432.785 974.62 435.841 1013.8 445.607 1044.77C455.373 1075.73 471.837 1098.45 495.173 1110.34C518.509 1122.23 546.565 1122.2 577.355 1111.9C608.147 1101.6 641.645 1081.04 675.823 1051.92C744.177 993.696 815.194 901.296 872.655 788.522Z" stroke="url(#paint27_linear_311_18637)" stroke-opacity="0.3" stroke-width="0.717125"/>
<path d="M874.135 785.551C929.619 671.791 960.674 559.467 966.041 469.834C968.725 425.017 964.985 385.891 954.68 355.101C944.375 324.313 927.517 301.886 903.977 290.405C880.437 278.924 852.386 279.446 821.78 290.282C791.173 301.117 758.039 322.259 724.374 351.966C657.047 411.378 587.654 505.004 532.169 618.763C476.685 732.522 445.631 844.846 440.264 934.479C437.58 979.296 441.32 1018.42 451.625 1049.21C461.929 1080 478.788 1102.43 502.328 1113.91C525.867 1125.39 553.919 1124.87 584.525 1114.03C615.132 1103.2 648.266 1082.05 681.93 1052.35C749.258 992.935 818.651 899.31 874.135 785.551Z" stroke="url(#paint28_linear_311_18637)" stroke-opacity="0.3" stroke-width="0.717125"/>
<path d="M875.567 782.556C929.058 667.846 958.147 554.997 961.949 465.284C963.85 420.426 959.428 381.372 948.587 350.766C937.747 320.162 920.5 298.033 896.763 286.965C873.027 275.896 844.989 276.908 814.577 288.276C784.163 299.644 751.403 321.361 718.262 351.651C651.982 412.229 584.233 507.051 530.743 621.762C477.253 736.472 448.163 849.321 444.361 939.034C442.46 983.891 446.882 1022.95 457.723 1053.55C468.563 1084.16 485.81 1106.28 509.547 1117.35C533.283 1128.42 561.321 1127.41 591.734 1116.04C622.147 1104.67 654.907 1082.96 688.048 1052.67C754.328 992.088 822.077 897.266 875.567 782.556Z" stroke="url(#paint29_linear_311_18637)" stroke-opacity="0.3" stroke-width="0.717125"/>
<path d="M876.941 779.533C928.421 663.907 955.537 550.567 957.772 460.802C958.89 415.918 953.787 376.947 942.414 346.535C931.041 316.125 913.41 294.3 889.484 283.647C865.558 272.995 837.542 274.496 807.333 286.393C777.122 298.29 744.746 320.575 712.139 351.439C646.926 413.165 580.843 509.155 529.363 624.781C477.882 740.408 450.767 853.747 448.531 943.513C447.413 988.396 452.516 1027.37 463.889 1057.78C475.262 1088.19 492.893 1110.01 516.819 1120.67C540.745 1131.32 568.761 1129.82 598.97 1117.92C629.181 1106.02 661.557 1083.74 694.164 1052.88C759.377 991.149 825.461 895.159 876.941 779.533Z" stroke="url(#paint30_linear_311_18637)" stroke-opacity="0.3" stroke-width="0.717125"/>
<path d="M878.269 776.489C927.723 659.982 952.857 546.187 953.525 456.396C953.86 411.5 948.077 372.623 936.175 342.415C924.273 312.207 906.264 290.694 882.156 280.461C858.047 270.227 830.062 272.217 800.065 284.639C770.067 297.062 738.084 319.909 706.021 351.337C641.895 414.192 577.497 511.32 528.043 627.827C478.588 744.334 453.455 858.13 452.786 947.921C452.452 992.817 458.234 1031.69 470.136 1061.9C482.038 1092.11 500.047 1113.62 524.155 1123.86C548.264 1134.09 576.249 1132.1 606.246 1119.68C636.245 1107.25 668.227 1084.41 700.29 1052.98C764.416 990.125 828.814 892.997 878.269 776.489Z" stroke="url(#paint31_linear_311_18637)" stroke-opacity="0.3" stroke-width="0.717125"/>
<path d="M879.539 773.419C926.952 656.067 950.096 541.85 949.198 452.061C948.748 407.166 942.288 368.396 929.86 338.4C917.433 308.405 899.052 287.209 874.768 277.398C850.485 267.587 822.539 270.065 792.763 283.009C762.986 295.953 731.407 319.354 699.897 351.337C636.878 415.302 574.185 513.539 526.772 630.892C479.358 748.245 456.214 862.461 457.113 952.25C457.562 997.145 464.022 1035.91 476.45 1065.91C488.877 1095.91 507.258 1117.1 531.542 1126.91C555.825 1136.72 583.772 1134.25 613.547 1121.3C643.324 1108.36 674.903 1084.96 706.413 1052.97C769.432 989.009 832.125 890.772 879.539 773.419Z" stroke="url(#paint32_linear_311_18637)" stroke-opacity="0.3" stroke-width="0.717125"/>
<path d="M880.754 770.334C926.112 652.172 947.259 537.568 944.794 447.809C943.561 402.928 936.426 364.277 923.476 334.502C910.528 304.729 891.779 283.857 867.328 274.471C842.877 265.086 814.978 268.051 785.433 281.512C755.886 294.975 724.721 318.923 693.774 351.451C631.881 416.506 570.912 515.823 525.553 633.985C480.195 752.147 459.048 866.75 461.514 956.51C462.746 1001.39 469.882 1040.04 482.831 1069.82C495.78 1099.59 514.529 1120.46 538.98 1129.85C563.43 1139.23 591.33 1136.27 620.875 1122.81C650.421 1109.34 681.586 1085.4 712.534 1052.87C774.427 987.813 835.396 888.496 880.754 770.334Z" stroke="url(#paint33_linear_311_18637)" stroke-opacity="0.3" stroke-width="0.717125"/>
<path d="M881.917 767.224C925.206 648.288 944.35 533.333 940.318 443.63C938.302 398.778 930.493 360.257 917.026 330.713C903.56 301.17 884.45 280.629 859.839 271.671C835.228 262.714 807.385 266.165 778.079 280.14C748.772 294.116 718.029 318.605 687.655 351.668C626.906 417.793 567.68 518.159 524.391 637.095C481.102 756.03 461.958 870.985 465.989 960.688C468.005 1005.54 475.814 1044.06 489.281 1073.61C502.748 1103.15 521.858 1123.69 546.469 1132.65C571.08 1141.6 598.923 1138.15 628.228 1124.18C657.536 1110.2 688.278 1085.71 718.653 1052.65C779.401 986.525 838.628 886.159 881.917 767.224Z" stroke="url(#paint34_linear_311_18637)" stroke-opacity="0.3" stroke-width="0.717125"/>
<path d="M883.026 764.096C924.233 644.423 941.368 529.151 935.771 439.532C932.973 394.722 924.493 356.344 910.512 327.039C896.532 297.736 877.067 277.531 852.303 269.004C827.54 260.477 799.761 264.415 770.704 278.899C741.645 293.384 711.334 318.406 681.541 351.994C621.956 419.169 564.49 520.553 523.284 640.226C482.077 759.899 464.942 875.171 470.539 964.79C473.337 1009.6 481.817 1047.98 495.798 1077.28C509.778 1106.59 529.243 1126.79 554.007 1135.32C578.77 1143.84 606.549 1139.91 635.606 1125.42C664.665 1110.94 694.976 1085.92 724.769 1052.33C784.354 985.153 841.82 883.769 883.026 764.096Z" stroke="url(#paint35_linear_311_18637)" stroke-opacity="0.3" stroke-width="0.717125"/>
<path d="M884.076 760.941C923.188 640.567 938.308 525.014 931.149 435.507C927.569 390.752 918.42 352.528 903.93 323.471C889.441 294.416 869.626 274.554 844.717 266.461C819.809 258.368 792.103 262.789 763.303 277.779C734.501 292.769 704.632 318.316 675.43 352.419C617.026 420.623 561.338 522.995 522.226 643.369C483.115 763.743 467.994 879.296 475.154 968.803C478.734 1013.56 487.883 1051.78 502.373 1080.84C516.862 1109.89 536.677 1129.76 561.586 1137.85C586.494 1145.94 614.2 1141.52 643 1126.53C671.802 1111.54 701.671 1085.99 730.873 1051.89C789.277 983.687 844.964 881.315 884.076 760.941Z" stroke="url(#paint36_linear_311_18637)" stroke-opacity="0.3" stroke-width="0.717125"/>
<path d="M885.075 757.778C922.08 636.74 935.181 520.94 926.46 431.572C922.1 386.886 912.285 348.827 897.291 320.028C882.296 291.23 862.137 271.717 837.091 264.06C812.045 256.403 784.421 261.307 755.887 276.797C727.352 292.287 697.933 318.351 669.33 352.959C612.126 422.172 558.233 525.5 521.228 646.539C484.223 767.577 471.121 883.376 479.842 972.745C484.203 1017.43 494.017 1055.49 509.012 1084.29C524.006 1113.09 544.165 1132.6 569.211 1140.26C594.257 1147.91 621.881 1143.01 650.415 1127.52C678.951 1112.03 708.37 1085.97 736.972 1051.36C794.177 982.144 848.069 878.816 885.075 757.778Z" stroke="url(#paint37_linear_311_18637)" stroke-opacity="0.3" stroke-width="0.717125"/>
<path d="M886.02 754.593C920.908 632.928 931.986 516.917 921.707 427.714C916.567 383.112 906.09 345.23 890.595 316.697C875.1 288.166 854.604 269.007 829.428 261.788C804.252 254.569 776.718 259.955 748.458 275.94C720.197 291.926 691.238 318.5 663.244 353.601C607.256 423.803 555.175 528.055 520.288 649.721C485.401 771.387 474.322 887.397 484.602 976.6C489.741 1021.2 500.218 1059.08 515.713 1087.62C531.208 1116.15 551.704 1135.31 576.88 1142.53C602.056 1149.75 629.59 1144.36 657.85 1128.37C686.111 1112.39 715.07 1085.81 743.064 1050.71C799.052 980.512 851.133 876.259 886.02 754.593Z" stroke="url(#paint38_linear_311_18637)" stroke-opacity="0.3" stroke-width="0.717125"/>
<path d="M886.908 751.393C919.667 629.137 928.719 512.951 916.884 423.941C910.967 379.436 899.83 341.742 883.839 313.484C867.849 285.227 847.022 266.429 821.724 259.651C796.426 252.872 768.989 258.738 741.013 275.214C713.036 291.691 684.544 318.766 657.167 354.35C602.413 425.518 552.159 530.664 519.401 652.92C486.642 775.176 477.591 891.362 489.425 980.372C495.342 1024.88 506.479 1062.57 522.47 1090.83C538.46 1119.09 559.287 1137.88 584.585 1144.66C609.883 1151.44 637.32 1145.58 665.296 1129.1C693.273 1112.62 721.765 1085.55 749.142 1049.96C803.896 978.795 854.15 873.65 886.908 751.393Z" stroke="url(#paint39_linear_311_18637)" stroke-opacity="0.3" stroke-width="0.717125"/>
<path d="M887.74 748.174C918.359 625.365 925.382 509.039 911.996 420.249C905.303 375.853 893.51 338.36 877.029 310.385C860.548 282.411 839.395 263.98 813.983 257.644C788.57 251.308 761.241 257.651 733.556 274.613C705.871 291.576 677.856 319.144 651.104 355.201C597.6 427.313 549.189 533.32 518.57 656.129C487.95 778.939 480.927 895.265 494.313 984.055C501.006 1028.45 512.799 1065.94 529.28 1093.92C545.761 1121.89 566.914 1140.32 592.326 1146.66C617.739 1153 645.068 1146.65 672.753 1129.69C700.438 1112.73 728.453 1085.16 755.205 1049.1C808.709 976.99 857.12 870.983 887.74 748.174Z" stroke="url(#paint40_linear_311_18637)" stroke-opacity="0.3" stroke-width="0.717125"/>
<path d="M888.516 744.948C916.988 621.623 921.98 505.192 907.046 416.65C899.579 372.377 887.134 335.096 870.167 307.413C853.2 279.731 831.729 261.672 806.21 255.78C780.691 249.889 753.476 256.708 726.092 274.15C698.706 291.594 671.177 319.647 645.058 356.165C592.822 429.2 546.268 536.036 517.796 659.361C489.324 782.686 484.333 899.117 499.266 987.66C506.733 1031.93 519.179 1069.21 536.146 1096.9C553.112 1124.58 574.584 1142.64 600.103 1148.53C625.622 1154.42 652.837 1147.6 680.221 1130.16C707.606 1112.72 735.135 1084.66 761.254 1048.14C813.491 975.109 860.045 868.273 888.516 744.948Z" stroke="url(#paint41_linear_311_18637)" stroke-opacity="0.3" stroke-width="0.717125"/>
<path d="M889.233 741.712C915.548 617.909 918.507 501.408 902.03 413.14C893.792 369.004 880.697 331.946 863.25 304.563C845.803 277.182 824.02 259.5 798.402 254.055C772.784 248.609 745.692 255.902 718.616 273.82C691.539 291.739 664.504 320.268 639.027 357.237C588.072 431.172 543.39 538.804 517.075 662.607C490.76 786.41 487.801 902.911 504.278 991.179C512.516 1035.31 525.61 1072.37 543.058 1099.76C560.505 1127.14 582.288 1144.82 607.906 1150.26C633.524 1155.71 660.616 1148.42 687.692 1130.5C714.768 1112.58 741.804 1084.05 767.281 1047.08C818.235 973.146 862.918 865.515 889.233 741.712Z" stroke="url(#paint42_linear_311_18637)" stroke-opacity="0.3" stroke-width="0.717125"/>
<path d="M889.896 738.459C914.047 614.215 914.972 497.681 896.957 409.713C887.95 365.729 874.211 328.904 856.288 301.83C838.366 274.757 816.277 257.458 790.568 252.461C764.859 247.464 737.899 255.229 711.14 273.616C684.38 292.005 657.847 321.001 633.018 358.409C583.362 433.223 540.565 541.618 516.415 665.861C492.265 790.105 491.34 906.639 509.354 994.607C518.362 1038.59 532.1 1075.42 550.023 1102.49C567.946 1129.56 590.034 1146.86 615.743 1151.86C641.452 1156.86 668.413 1149.09 695.171 1130.7C721.931 1112.32 748.464 1083.32 773.293 1045.91C822.949 971.097 865.746 862.702 889.896 738.459Z" stroke="url(#paint43_linear_311_18637)" stroke-opacity="0.3" stroke-width="0.717125"/>
<path d="M890.5 735.192C912.478 610.546 911.369 494.013 891.822 406.373C882.048 362.552 867.669 325.973 849.276 299.216C830.884 272.46 808.497 255.549 782.705 251.001C756.912 246.454 730.092 254.688 703.658 273.539C677.223 292.392 651.2 321.847 627.028 359.683C578.685 435.352 537.787 544.477 515.808 669.123C493.83 793.769 494.939 910.302 514.486 997.942C524.259 1041.76 538.639 1078.34 557.032 1105.1C575.424 1131.85 597.81 1148.77 623.603 1153.31C649.395 1157.86 676.216 1149.63 702.65 1130.78C729.085 1111.92 755.108 1082.47 779.28 1044.63C827.623 968.963 868.521 859.838 890.5 735.192Z" stroke="url(#paint44_linear_311_18637)" stroke-opacity="0.3" stroke-width="0.717125"/>
<path d="M891.046 731.917C910.846 606.907 907.704 490.411 886.63 403.126C876.093 359.482 861.077 323.159 842.22 296.727C823.364 270.297 800.686 253.779 774.818 249.682C748.95 245.585 722.277 254.286 696.176 273.596C670.074 292.907 644.569 322.812 621.061 361.064C574.046 437.565 535.059 547.388 515.259 672.398C495.459 797.409 498.602 913.904 519.675 1001.19C530.212 1044.83 545.228 1081.16 564.085 1107.59C582.941 1134.02 605.62 1150.54 631.488 1154.63C657.355 1158.73 684.028 1150.03 710.129 1130.72C736.231 1111.41 761.736 1081.5 785.244 1043.25C832.259 966.75 871.247 856.928 891.046 731.917Z" stroke="url(#paint45_linear_311_18637)" stroke-opacity="0.3" stroke-width="0.717125"/>
<path d="M891.535 728.633C909.15 603.296 903.975 486.873 881.381 399.969C870.084 356.516 854.437 320.461 835.121 294.362C815.807 268.264 792.843 252.145 766.908 248.5C740.972 244.855 714.455 254.02 688.696 273.783C662.935 293.547 637.955 323.892 615.119 362.548C569.446 439.858 532.381 550.345 514.766 675.682C497.151 801.019 502.326 917.442 524.92 1004.35C536.217 1047.8 551.864 1083.85 571.18 1109.95C590.494 1136.05 613.457 1152.17 639.393 1155.82C665.328 1159.46 691.845 1150.29 717.605 1130.53C743.366 1110.77 768.345 1080.42 791.182 1041.77C836.855 964.457 873.92 853.97 891.535 728.633Z" stroke="url(#paint46_linear_311_18637)" stroke-opacity="0.3" stroke-width="0.717125"/>
<path d="M891.973 725.343C907.398 599.717 900.192 483.402 876.085 396.906C864.031 353.656 847.757 317.88 827.989 292.122C808.222 266.365 784.981 250.649 758.985 247.458C732.99 244.266 706.637 253.892 681.227 274.102C655.814 294.312 631.368 325.089 609.21 364.137C564.893 442.233 529.762 553.349 514.337 678.975C498.912 804.6 506.119 920.915 530.226 1007.41C542.279 1050.66 558.554 1086.44 578.322 1112.2C598.088 1137.95 621.33 1153.67 647.325 1156.86C673.32 1160.05 699.673 1150.43 725.084 1130.22C750.496 1110.01 774.942 1079.23 797.1 1040.18C841.417 962.085 876.548 850.968 891.973 725.343Z" stroke="url(#paint47_linear_311_18637)" stroke-opacity="0.3" stroke-width="0.717125"/>
<path d="M892.345 722.044C905.575 596.168 896.34 479.997 870.727 393.934C857.921 350.902 841.025 315.415 820.81 290.006C800.597 264.598 777.085 249.29 751.038 246.553C724.991 243.815 698.81 253.9 673.756 274.55C648.7 295.201 624.795 326.399 603.321 365.829C560.375 444.686 527.188 556.398 513.958 682.274C500.728 808.149 509.963 924.321 535.576 1010.38C548.383 1053.42 565.279 1088.9 585.493 1114.31C605.707 1139.72 629.219 1155.03 655.266 1157.77C681.312 1160.5 707.493 1150.42 732.548 1129.77C757.603 1109.12 781.508 1077.92 802.982 1038.49C845.929 959.632 879.115 847.919 892.345 722.044Z" stroke="url(#paint48_linear_311_18637)" stroke-opacity="0.3" stroke-width="0.717125"/>
<path d="M892.668 718.735C903.699 592.648 892.438 476.655 865.327 391.053C851.771 348.25 834.258 313.063 813.603 288.011C792.95 262.96 769.174 248.065 743.083 245.782C716.993 243.5 690.992 254.04 666.302 275.124C641.61 296.209 618.253 327.82 597.471 367.618C555.907 447.213 524.675 559.488 513.644 685.575C502.613 811.662 513.874 927.655 540.985 1013.26C554.541 1056.06 572.054 1091.25 592.708 1116.3C613.362 1141.35 637.138 1156.24 663.228 1158.53C689.319 1160.81 715.32 1150.27 740.01 1129.19C764.702 1108.1 788.058 1076.49 808.841 1036.69C850.405 957.097 881.637 844.822 892.668 718.735Z" stroke="url(#paint49_linear_311_18637)" stroke-opacity="0.3" stroke-width="0.717125"/>
<path d="M892.925 715.427C901.754 589.166 888.47 473.388 859.869 388.271C845.569 345.712 827.444 310.836 806.356 286.148C785.268 261.462 761.236 246.984 735.109 245.157C708.983 243.33 683.17 254.322 658.851 275.834C634.532 297.346 611.73 329.36 591.645 369.515C551.477 449.823 522.209 562.626 513.38 688.886C504.551 815.147 517.835 930.925 546.436 1016.04C560.737 1058.6 578.861 1093.48 599.95 1118.16C621.038 1142.85 645.07 1157.33 671.196 1159.16C697.323 1160.98 723.136 1149.99 747.454 1128.48C771.774 1106.97 794.575 1074.95 814.66 1034.8C854.828 954.49 884.096 841.687 892.925 715.427Z" stroke="url(#paint50_linear_311_18637)" stroke-opacity="0.3" stroke-width="0.717125"/>
<path d="M893.125 712.116C899.749 585.721 884.447 470.192 854.365 385.588C839.324 343.285 820.593 308.73 799.077 284.414C777.561 260.1 753.281 246.043 727.126 244.672C700.972 243.302 675.354 254.743 651.415 276.676C627.475 298.609 605.235 331.016 585.854 371.516C547.094 452.512 519.799 565.809 513.175 692.204C506.551 818.599 521.853 934.128 551.935 1018.73C566.977 1061.04 585.707 1095.59 607.223 1119.91C628.739 1144.22 653.02 1158.28 679.174 1159.65C705.329 1161.02 730.946 1149.58 754.885 1127.64C778.826 1105.71 801.065 1073.3 820.446 1032.8C859.206 951.808 886.501 838.512 893.125 712.116Z" stroke="url(#paint51_linear_311_18637)" stroke-opacity="0.3" stroke-width="0.717125"/>
<path d="M893.274 708.795C897.692 582.303 880.375 467.059 848.821 382.992C833.044 340.958 813.714 306.736 791.776 282.799C769.84 258.864 745.317 245.233 719.143 244.319C692.968 243.405 667.554 255.292 644.002 277.639C620.448 299.987 598.777 332.777 580.106 373.609C542.765 455.269 517.452 569.025 513.035 695.517C508.617 822.008 525.934 937.253 557.488 1021.32C573.265 1063.35 592.595 1097.58 614.533 1121.51C636.47 1145.45 660.992 1159.08 687.167 1159.99C713.341 1160.91 738.755 1149.02 762.307 1126.67C785.861 1104.32 807.532 1071.53 826.203 1030.7C863.544 949.042 888.857 835.287 893.274 708.795Z" stroke="url(#paint52_linear_311_18637)" stroke-opacity="0.3" stroke-width="0.717125"/>
<path d="M893.356 705.48C895.565 578.931 876.24 464.006 843.223 380.503C826.715 338.751 806.79 304.871 784.438 281.321C762.087 257.772 737.33 244.571 711.144 244.114C684.958 243.657 659.755 255.985 636.596 278.74C613.436 301.496 592.341 334.66 574.385 375.81C538.475 458.11 515.151 572.29 512.942 698.84C510.733 825.389 530.058 940.314 563.074 1023.82C579.583 1065.57 599.507 1099.45 621.86 1123C644.211 1146.55 668.967 1159.75 695.154 1160.21C721.34 1160.66 746.542 1148.33 769.701 1125.58C792.862 1102.82 813.957 1069.66 831.912 1028.51C867.823 946.21 891.147 832.03 893.356 705.48Z" stroke="url(#paint53_linear_311_18637)" stroke-opacity="0.3" stroke-width="0.717125"/>
<path d="M893.387 702.162C893.387 575.594 872.059 461.024 837.59 378.11C820.356 336.652 799.843 303.125 777.083 279.969C754.325 256.813 729.341 244.047 703.151 244.047C676.961 244.047 651.977 256.813 629.219 279.969C606.459 303.125 585.946 336.652 568.712 378.11C534.243 461.024 512.915 575.594 512.915 702.162C512.915 828.731 534.243 943.301 568.712 1026.22C585.946 1067.67 606.459 1101.2 629.219 1124.36C651.977 1147.51 676.961 1160.28 703.151 1160.28C729.341 1160.28 754.325 1147.51 777.083 1124.36C799.843 1101.2 820.356 1067.67 837.59 1026.22C872.059 943.301 893.387 828.731 893.387 702.162Z" stroke="url(#paint54_linear_311_18637)" stroke-opacity="0.3" stroke-width="0.717125"/>
<path d="M893.363 698.836C891.154 572.286 867.83 458.106 831.919 375.806C813.964 334.655 792.869 301.492 769.708 278.736C746.549 255.981 721.347 243.653 695.16 244.11C668.974 244.567 644.217 257.768 621.866 281.317C599.514 304.867 579.59 338.746 563.081 380.499C530.065 464.002 510.74 578.926 512.949 705.476C515.158 832.025 538.482 946.205 574.392 1028.51C592.348 1069.66 613.443 1102.82 636.603 1125.58C659.762 1148.33 684.964 1160.66 711.151 1160.2C737.337 1159.74 762.094 1146.54 784.445 1123C806.797 1099.44 826.722 1065.57 843.23 1023.81C876.246 940.31 895.571 825.385 893.363 698.836Z" stroke="url(#paint55_linear_311_18637)" stroke-opacity="0.3" stroke-width="0.717125"/>
<path d="M893.271 695.514C888.854 569.022 863.541 455.267 826.2 373.606C807.529 332.775 785.858 299.985 762.304 277.636C738.752 255.289 713.338 243.403 687.164 244.317C660.989 245.231 636.467 258.861 614.53 282.797C592.592 306.734 573.262 340.956 557.485 382.99C525.931 467.056 508.614 582.301 513.032 708.792C517.449 835.284 542.762 949.04 580.103 1030.7C598.774 1071.53 620.445 1104.32 643.999 1126.67C667.551 1149.02 692.965 1160.9 719.14 1159.99C745.314 1159.08 769.837 1145.45 791.773 1121.51C813.711 1097.57 833.041 1063.35 848.818 1021.32C880.372 937.25 897.689 822.006 893.271 695.514Z" stroke="url(#paint56_linear_311_18637)" stroke-opacity="0.3" stroke-width="0.717125"/>
<path d="M893.132 692.199C886.508 565.804 859.213 452.508 820.452 371.511C801.072 331.012 778.832 298.605 754.892 276.671C730.953 254.738 705.335 243.297 679.181 244.668C653.026 246.038 628.745 260.095 607.23 284.41C585.713 308.726 566.983 343.28 551.942 385.583C521.86 470.188 506.558 585.716 513.182 712.112C519.806 838.507 547.1 951.804 585.861 1032.8C605.242 1073.3 627.481 1105.71 651.422 1127.64C675.361 1149.57 700.978 1161.01 727.133 1159.64C753.287 1158.27 777.568 1144.22 799.084 1119.9C820.6 1095.59 839.33 1061.03 854.372 1018.73C884.454 934.124 899.756 818.595 893.132 692.199Z" stroke="url(#paint57_linear_311_18637)" stroke-opacity="0.3" stroke-width="0.717125"/>
<path d="M892.925 688.882C884.096 562.621 854.828 449.819 814.66 369.511C794.575 329.356 771.773 297.342 747.454 275.83C723.135 254.318 697.322 243.325 671.196 245.152C645.069 246.979 621.037 261.457 599.95 286.144C578.861 310.832 560.736 345.708 546.436 388.267C517.835 473.383 504.551 589.162 513.38 715.422C522.209 841.683 551.477 954.486 591.645 1034.79C611.73 1074.95 634.531 1106.96 658.851 1128.47C683.169 1149.99 708.982 1160.98 735.109 1159.15C761.236 1157.32 785.267 1142.85 806.355 1118.16C827.444 1093.47 845.568 1058.6 859.869 1016.04C888.47 930.921 901.754 815.142 892.925 688.882Z" stroke="url(#paint58_linear_311_18637)" stroke-opacity="0.3" stroke-width="0.717125"/>
<path d="M892.663 685.579C881.631 559.492 850.399 447.217 808.836 367.622C788.053 327.824 764.696 296.213 740.005 275.128C715.315 254.044 689.314 243.504 663.223 245.787C637.133 248.069 613.357 262.965 592.703 288.015C572.048 313.068 554.535 348.254 540.98 391.057C513.869 476.659 502.608 592.652 513.639 718.739C524.67 844.826 555.902 957.101 597.466 1036.7C618.248 1076.49 641.605 1108.1 666.296 1129.19C690.986 1150.27 716.987 1160.81 743.078 1158.53C769.169 1156.25 792.944 1141.35 813.598 1116.3C834.253 1091.25 851.766 1056.06 865.322 1013.26C892.433 927.659 903.694 811.666 892.663 685.579Z" stroke="url(#paint59_linear_311_18637)" stroke-opacity="0.3" stroke-width="0.717125"/>
<path d="M892.346 682.269C879.116 556.393 845.929 444.681 802.982 365.823C781.509 326.394 757.603 295.195 732.548 274.545C707.494 253.895 681.313 243.81 655.266 246.548C629.219 249.285 605.707 264.593 585.494 290.001C565.279 315.41 548.383 350.897 535.576 393.929C509.963 479.992 500.728 596.163 513.958 722.039C527.188 847.914 560.375 959.627 603.322 1038.48C624.796 1077.91 648.701 1109.11 673.756 1129.76C698.81 1150.41 724.991 1160.5 751.038 1157.76C777.085 1155.02 800.597 1139.71 820.81 1114.31C841.025 1088.9 857.921 1053.41 870.728 1010.38C896.341 924.316 905.576 808.144 892.346 682.269Z" stroke="url(#paint60_linear_311_18637)" stroke-opacity="0.3" stroke-width="0.717125"/>
<path d="M891.971 678.973C876.546 553.348 841.415 442.231 797.098 364.136C774.94 325.087 750.494 294.31 725.082 274.1C699.671 253.891 673.318 244.264 647.323 247.456C621.328 250.648 598.087 266.364 578.32 292.12C558.552 317.878 542.278 353.655 530.224 396.904C506.117 483.401 498.911 599.716 514.335 725.341C529.76 850.966 564.892 962.083 609.208 1040.18C631.367 1079.23 655.812 1110 681.225 1130.21C706.635 1150.42 732.988 1160.05 758.983 1156.86C784.979 1153.67 808.22 1137.95 827.987 1112.19C847.755 1086.44 864.029 1050.66 876.083 1007.41C900.19 920.913 907.396 804.598 891.971 678.973Z" stroke="url(#paint61_linear_311_18637)" stroke-opacity="0.3" stroke-width="0.717125"/>
<path d="M891.535 675.682C873.92 550.345 836.855 439.858 791.183 362.548C768.346 323.892 743.367 293.547 717.606 273.783C691.846 254.02 665.329 244.855 639.394 248.5C613.458 252.145 590.495 268.264 571.18 294.362C551.865 320.461 536.218 356.516 524.92 399.969C502.327 486.873 497.152 603.296 514.767 728.633C532.382 853.97 569.447 964.456 615.119 1041.77C637.956 1080.42 662.935 1110.77 688.696 1130.53C714.456 1150.29 740.973 1159.46 766.908 1155.81C792.844 1152.17 815.807 1136.05 835.122 1109.95C854.437 1083.85 870.084 1047.8 881.381 1004.35C903.975 917.442 909.15 801.019 891.535 675.682Z" stroke="url(#paint62_linear_311_18637)" stroke-opacity="0.3" stroke-width="0.717125"/>
<path d="M891.047 672.396C871.248 547.386 832.26 437.563 785.245 361.062C761.737 322.81 736.232 292.905 710.13 273.594C684.029 254.284 657.356 245.583 631.488 249.68C605.621 253.777 582.942 270.295 564.086 296.725C545.229 323.157 530.213 359.48 519.676 403.124C498.603 490.409 495.46 606.905 515.26 731.915C535.06 856.926 574.047 966.748 621.062 1043.25C644.57 1081.5 670.075 1111.41 696.177 1130.72C722.278 1150.03 748.951 1158.73 774.819 1154.63C800.687 1150.53 823.365 1134.02 842.221 1107.59C861.078 1081.15 876.094 1044.83 886.631 1001.19C907.704 913.902 910.847 797.407 891.047 672.396Z" stroke="url(#paint63_linear_311_18637)" stroke-opacity="0.3" stroke-width="0.717125"/>
<path d="M890.498 669.122C868.519 544.476 827.621 435.351 779.278 359.682C755.106 321.846 729.083 292.391 702.648 273.538C676.214 254.687 649.394 246.453 623.601 251C597.809 255.548 575.422 272.459 557.03 299.215C538.637 325.972 524.258 362.551 514.484 406.372C494.937 494.012 493.828 610.545 515.806 735.19C537.785 859.836 578.683 968.962 627.026 1044.63C651.198 1082.47 677.221 1111.92 703.656 1130.77C730.09 1149.63 756.91 1157.86 782.703 1153.31C808.495 1148.76 830.882 1131.85 849.274 1105.1C867.667 1078.34 882.046 1041.76 891.82 997.941C911.367 910.301 912.476 793.768 890.498 669.122Z" stroke="url(#paint64_linear_311_18637)" stroke-opacity="0.3" stroke-width="0.717125"/>
<path d="M889.895 665.858C865.745 541.614 822.948 433.219 773.292 358.405C748.463 320.997 721.93 292.001 695.17 273.612C668.411 255.225 641.451 247.46 615.742 252.457C590.033 257.455 567.944 274.754 550.022 301.826C532.099 328.9 518.36 365.725 509.353 409.71C491.338 497.677 492.263 614.212 516.414 738.455C540.564 862.698 583.361 971.093 633.017 1045.91C657.846 1083.32 684.379 1112.31 711.139 1130.7C737.898 1149.09 764.858 1156.85 790.567 1151.86C816.276 1146.86 838.365 1129.56 856.287 1102.49C874.21 1075.41 887.949 1038.59 896.956 994.603C914.971 906.635 914.046 790.101 889.895 665.858Z" stroke="url(#paint65_linear_311_18637)" stroke-opacity="0.3" stroke-width="0.717125"/>
<path d="M889.231 662.608C862.916 538.805 818.234 431.173 767.279 357.237C741.802 320.268 714.767 291.739 687.69 273.821C660.614 255.903 633.523 248.61 607.905 254.055C582.286 259.5 560.503 277.182 543.057 304.563C525.609 331.946 512.515 369.005 504.276 413.14C487.8 501.409 490.758 617.909 517.073 741.712C543.389 865.515 588.071 973.147 639.025 1047.08C664.502 1084.05 691.538 1112.58 718.615 1130.5C745.69 1148.42 772.782 1155.71 798.4 1150.26C824.018 1144.82 845.801 1127.14 863.248 1099.76C880.696 1072.37 893.79 1035.31 902.028 991.18C918.505 902.911 915.546 786.411 889.231 662.608Z" stroke="url(#paint66_linear_311_18637)" stroke-opacity="0.3" stroke-width="0.717125"/>
<path d="M888.515 659.362C860.043 536.037 813.49 429.202 761.253 356.166C735.134 319.648 707.605 291.595 680.22 274.152C652.836 256.71 625.621 249.89 600.102 255.782C574.582 261.673 553.111 279.733 536.145 307.414C519.178 335.097 506.732 372.379 499.265 416.651C484.332 505.194 489.323 621.625 517.795 744.95C546.267 868.274 592.821 975.11 645.057 1048.15C671.176 1084.66 698.705 1112.72 726.091 1130.16C753.475 1147.6 780.69 1154.42 806.209 1148.53C831.728 1142.64 853.199 1124.58 870.165 1096.9C887.133 1069.21 899.578 1031.93 907.045 987.661C921.978 899.118 916.987 782.687 888.515 659.362Z" stroke="url(#paint67_linear_311_18637)" stroke-opacity="0.3" stroke-width="0.717125"/>
<path d="M887.738 656.134C857.118 533.325 808.707 427.318 755.203 355.206C728.451 319.149 700.437 291.58 672.751 274.618C645.067 257.656 617.737 251.313 592.324 257.649C566.912 263.985 545.759 282.416 529.279 310.389C512.797 338.364 501.004 375.858 494.311 420.253C480.925 509.043 487.948 625.369 518.568 748.179C549.187 870.988 597.599 976.995 651.102 1049.11C677.854 1085.16 705.869 1112.73 733.555 1129.7C761.239 1146.66 788.568 1153 813.981 1146.66C839.393 1140.33 860.546 1121.9 877.027 1093.92C893.508 1065.95 905.301 1028.46 911.994 984.06C925.38 895.27 918.357 778.943 887.738 656.134Z" stroke="url(#paint68_linear_311_18637)" stroke-opacity="0.3" stroke-width="0.717125"/>
<path d="M886.907 652.922C854.148 530.665 803.894 425.52 749.14 354.352C721.763 318.767 693.272 291.692 665.294 275.215C637.318 258.739 609.882 252.874 584.584 259.652C559.286 266.431 538.458 285.229 522.468 313.485C506.477 341.744 495.341 379.437 489.423 423.943C477.589 512.953 486.641 629.139 519.399 751.395C552.158 873.651 602.412 978.797 657.165 1049.96C684.543 1085.55 713.034 1112.62 741.012 1129.1C768.988 1145.58 796.424 1151.44 821.722 1144.66C847.02 1137.89 867.848 1119.09 883.838 1090.83C899.829 1062.57 910.965 1024.88 916.883 980.374C928.717 891.363 919.665 775.178 886.907 652.922Z" stroke="url(#paint69_linear_311_18637)" stroke-opacity="0.3" stroke-width="0.717125"/>
<path d="M886.021 649.717C851.134 528.052 799.053 423.799 743.066 353.598C715.071 318.496 686.112 291.922 657.851 275.936C629.591 259.951 602.057 254.565 576.881 261.784C551.705 269.003 531.209 288.162 515.714 316.693C500.219 345.226 489.742 383.108 484.602 427.711C474.323 516.914 485.401 632.924 520.289 754.59C555.176 876.255 607.257 980.508 663.244 1050.71C691.239 1085.81 720.198 1112.38 748.459 1128.37C776.718 1144.36 804.253 1149.74 829.429 1142.52C854.604 1135.3 875.101 1116.15 890.595 1087.61C906.091 1059.08 916.568 1021.2 921.707 976.597C931.987 887.393 920.908 771.383 886.021 649.717Z" stroke="url(#paint70_linear_311_18637)" stroke-opacity="0.3" stroke-width="0.717125"/>
<path d="M885.077 646.539C848.072 525.501 794.179 422.173 736.975 352.959C708.372 318.352 678.953 292.287 650.417 276.797C621.883 261.307 594.259 256.403 569.213 264.06C544.167 271.717 524.008 291.231 509.014 320.028C494.019 348.827 484.205 386.886 479.844 431.572C471.124 520.94 484.225 636.74 521.23 757.778C558.235 878.816 612.128 982.144 669.332 1051.36C697.934 1085.97 727.353 1112.03 755.889 1127.52C784.423 1143.01 812.047 1147.91 837.093 1140.26C862.139 1132.6 882.298 1113.09 897.292 1084.29C912.287 1055.49 922.102 1017.43 926.462 972.745C935.183 883.377 922.082 767.577 885.077 646.539Z" stroke="url(#paint71_linear_311_18637)" stroke-opacity="0.3" stroke-width="0.717125"/>
<path d="M884.079 643.372C844.967 522.998 789.28 420.626 730.876 352.421C701.674 318.318 671.805 292.771 643.003 277.781C614.203 262.792 586.497 258.371 561.589 266.464C536.68 274.557 516.865 294.419 502.376 323.474C487.886 352.53 478.737 390.755 475.157 435.509C467.997 525.017 483.117 640.57 522.229 760.944C561.341 881.318 617.029 983.69 675.432 1051.89C704.635 1086 734.504 1111.54 763.305 1126.53C792.106 1141.52 819.811 1145.95 844.72 1137.85C869.628 1129.76 889.444 1109.9 903.933 1080.84C918.423 1051.79 927.572 1013.56 931.151 968.806C938.311 879.299 923.191 763.746 884.079 643.372Z" stroke="url(#paint72_linear_311_18637)" stroke-opacity="0.3" stroke-width="0.717125"/>
<path d="M883.027 640.221C841.82 520.548 784.354 419.164 724.769 351.989C694.976 318.4 664.665 293.379 635.607 278.894C606.549 264.409 578.771 260.472 554.007 268.999C529.244 277.525 509.778 297.73 495.798 327.033C481.817 356.338 473.337 394.717 470.539 439.527C464.942 529.146 482.077 644.417 523.284 764.09C564.49 883.763 621.956 985.148 681.541 1052.32C711.334 1085.91 741.645 1110.93 770.703 1125.42C799.761 1139.9 827.539 1143.84 852.303 1135.31C877.066 1126.79 896.532 1106.58 910.512 1077.28C924.493 1047.97 932.973 1009.59 935.771 964.784C941.368 875.166 924.233 759.894 883.027 640.221Z" stroke="url(#paint73_linear_311_18637)" stroke-opacity="0.3" stroke-width="0.717125"/>
<path d="M881.917 637.087C838.628 518.152 779.402 417.786 718.653 351.661C688.279 318.598 657.536 294.109 628.229 280.133C598.923 266.158 571.08 262.706 546.469 271.664C521.858 280.621 502.748 301.163 489.282 330.706C475.815 360.25 468.006 398.771 465.99 443.623C461.958 533.326 481.102 648.281 524.391 767.216C567.68 886.152 626.907 986.518 687.655 1052.64C718.029 1085.71 748.772 1110.19 778.079 1124.17C807.385 1138.15 835.228 1141.6 859.839 1132.64C884.45 1123.68 903.56 1103.14 917.026 1073.6C930.494 1044.05 938.303 1005.53 940.318 960.681C944.35 870.978 925.206 756.023 881.917 637.087Z" stroke="url(#paint74_linear_311_18637)" stroke-opacity="0.3" stroke-width="0.717125"/>
<path d="M880.753 633.98C835.395 515.818 774.425 416.501 712.532 351.447C681.585 318.919 650.42 294.97 620.873 281.508C591.328 268.046 563.429 265.081 538.978 274.467C514.528 283.853 495.779 304.724 482.83 334.498C469.881 364.273 462.745 402.924 461.512 447.804C459.047 537.564 480.194 652.167 525.552 770.329C570.91 888.491 631.879 987.808 693.772 1052.86C724.719 1085.39 755.885 1109.34 785.431 1122.8C814.976 1136.26 842.875 1139.23 867.326 1129.84C891.777 1120.46 910.526 1099.59 923.475 1069.81C936.424 1040.04 943.56 1001.39 944.792 956.505C947.258 866.746 926.111 752.143 880.753 633.98Z" stroke="url(#paint75_linear_311_18637)" stroke-opacity="0.3" stroke-width="0.717125"/>
<path d="M879.538 630.893C832.124 513.54 769.431 415.303 706.412 351.338C674.902 319.355 643.324 295.954 613.546 283.01C583.771 270.066 555.824 267.588 531.541 277.399C507.258 287.21 488.876 308.406 476.449 338.401C464.021 368.397 457.561 407.167 457.112 452.062C456.213 541.851 479.357 656.068 526.771 773.42C574.184 890.773 636.877 989.01 699.896 1052.97C731.406 1084.96 762.985 1108.36 792.762 1121.3C822.537 1134.25 850.484 1136.73 874.767 1126.91C899.051 1117.1 917.432 1095.91 929.859 1065.91C942.287 1035.92 948.747 997.146 949.197 952.251C950.095 862.462 926.951 748.246 879.538 630.893Z" stroke="url(#paint76_linear_311_18637)" stroke-opacity="0.3" stroke-width="0.717125"/>
<path d="M878.268 627.826C828.813 511.319 764.415 414.19 700.289 351.335C668.226 319.907 636.244 297.061 606.245 284.638C576.249 272.216 548.263 270.226 524.155 280.459C500.046 290.693 482.037 312.206 470.135 342.413C458.233 372.622 452.451 411.498 452.785 456.395C453.454 546.186 478.587 659.981 528.042 776.488C577.496 892.995 641.894 990.124 706.02 1052.98C738.083 1084.41 770.065 1107.25 800.064 1119.68C830.061 1132.1 858.046 1134.09 882.155 1123.86C906.263 1113.62 924.272 1092.11 936.174 1061.9C948.076 1031.69 953.858 992.816 953.524 947.92C952.856 858.129 927.722 744.333 878.268 627.826Z" stroke="url(#paint77_linear_311_18637)" stroke-opacity="0.3" stroke-width="0.717125"/>
<path d="M876.943 624.781C825.463 509.155 759.379 413.165 694.166 351.438C661.559 320.575 629.183 298.29 598.973 286.393C568.764 274.496 540.748 272.995 516.821 283.647C492.895 294.3 475.265 316.124 463.892 346.534C452.518 376.946 447.415 415.918 448.533 460.801C450.769 550.567 477.885 663.906 529.365 779.533C580.845 895.159 646.929 991.149 712.141 1052.88C744.749 1083.74 777.124 1106.02 807.335 1117.92C837.544 1129.82 865.56 1131.32 889.486 1120.67C913.412 1110.01 931.043 1088.19 942.416 1057.78C953.789 1027.37 958.892 988.396 957.775 943.512C955.539 853.747 928.423 740.407 876.943 624.781Z" stroke="url(#paint78_linear_311_18637)" stroke-opacity="0.3" stroke-width="0.717125"/>
<path d="M875.565 621.762C822.075 507.052 754.326 412.23 688.046 351.651C654.905 321.361 622.145 299.645 591.732 288.276C561.32 276.909 533.282 275.897 509.545 286.965C485.809 298.034 468.561 320.163 457.721 350.767C446.88 381.372 442.458 420.427 444.359 465.284C448.161 554.997 477.251 667.846 530.741 782.556C584.231 897.266 651.98 992.088 718.26 1052.67C751.401 1082.96 784.161 1104.67 814.575 1116.04C844.987 1127.41 873.025 1128.42 896.761 1117.35C920.498 1106.28 937.745 1084.16 948.585 1053.55C959.426 1022.95 963.848 983.891 961.947 939.034C958.145 849.321 929.056 736.472 875.565 621.762Z" stroke="url(#paint79_linear_311_18637)" stroke-opacity="0.3" stroke-width="0.717125"/>
<path d="M874.136 618.762C818.652 505.003 749.259 411.378 681.931 351.965C648.267 322.258 615.133 301.117 584.525 290.281C553.92 279.446 525.868 278.923 502.328 290.404C478.789 301.886 461.93 324.312 451.626 355.101C441.321 385.891 437.581 425.017 440.264 469.834C445.631 559.467 476.686 671.791 532.17 785.55C587.655 899.309 657.048 992.934 724.375 1052.35C758.039 1082.05 791.173 1103.2 821.781 1114.03C852.387 1124.87 880.438 1125.39 903.978 1113.91C927.518 1102.43 944.376 1080 954.681 1049.21C964.986 1018.42 968.725 979.296 966.042 934.478C960.675 844.846 929.62 732.522 874.136 618.762Z" stroke="url(#paint80_linear_311_18637)" stroke-opacity="0.3" stroke-width="0.717125"/>
<path d="M872.656 615.795C815.195 503.021 744.178 410.621 675.824 352.393C641.646 323.278 608.148 302.718 577.356 292.418C546.566 282.118 518.51 282.086 495.174 293.976C471.838 305.866 455.374 328.583 445.608 359.547C435.842 390.512 432.786 429.697 436.251 474.461C443.182 563.986 476.192 675.751 533.653 788.525C591.114 901.299 662.131 993.698 730.485 1051.93C764.662 1081.04 798.16 1101.6 828.952 1111.9C859.743 1122.2 887.799 1122.23 911.135 1110.34C934.47 1098.45 950.935 1075.74 960.7 1044.77C970.467 1013.81 973.523 974.622 970.058 929.859C963.127 840.333 930.117 728.568 872.656 615.795Z" stroke="url(#paint81_linear_311_18637)" stroke-opacity="0.3" stroke-width="0.717125"/>
<path d="M871.122 612.848C811.701 501.094 739.083 409.948 669.723 352.921C635.042 324.407 601.191 304.435 570.224 294.674C539.258 284.913 511.206 285.37 488.081 297.666C464.956 309.961 448.891 332.962 439.667 364.092C430.443 395.223 428.071 434.455 432.317 479.152C440.809 568.543 475.765 679.715 535.185 791.468C594.606 903.222 667.224 994.368 736.584 1051.39C771.265 1079.91 805.116 1099.88 836.083 1109.64C867.049 1119.4 895.101 1118.95 918.226 1106.65C941.351 1094.35 957.416 1071.35 966.64 1040.22C975.864 1009.09 978.236 969.86 973.99 925.164C965.498 835.773 930.542 724.601 871.122 612.848Z" stroke="url(#paint82_linear_311_18637)" stroke-opacity="0.3" stroke-width="0.717125"/>
<path d="M869.539 609.93C808.177 499.23 733.979 409.365 663.635 353.558C628.462 325.653 594.267 306.275 563.134 297.056C532.003 287.837 503.963 288.784 481.056 301.481C458.15 314.178 442.488 337.456 433.809 368.742C425.13 400.03 423.443 439.297 428.468 483.913C438.519 573.142 475.41 683.687 536.771 794.386C598.133 905.086 672.331 994.951 742.676 1050.76C777.849 1078.66 812.044 1098.04 843.176 1107.26C874.307 1116.48 902.348 1115.53 925.254 1102.84C948.161 1090.14 963.822 1066.86 972.501 1035.57C981.181 1004.29 982.868 965.019 977.842 920.403C967.792 831.174 930.901 720.63 869.539 609.93Z" stroke="url(#paint83_linear_311_18637)" stroke-opacity="0.3" stroke-width="0.717125"/>
<path d="M867.903 607.038C804.619 497.427 728.864 408.87 657.556 354.299C621.901 327.012 587.373 308.234 556.085 299.56C524.798 290.886 496.778 292.321 474.097 305.416C451.415 318.512 436.162 342.059 428.03 373.492C419.898 404.926 418.897 444.217 424.7 488.738C436.306 577.778 475.121 687.662 538.405 797.274C601.69 906.886 677.445 995.442 748.753 1050.01C784.407 1077.3 818.935 1096.08 850.224 1104.75C881.511 1113.43 909.531 1111.99 932.212 1098.9C954.894 1085.8 970.147 1062.25 978.278 1030.82C986.411 999.387 987.412 960.095 981.609 915.574C970.002 826.534 931.188 716.65 867.903 607.038Z" stroke="url(#paint84_linear_311_18637)" stroke-opacity="0.3" stroke-width="0.717125"/>
<path d="M866.217 604.177C801.03 495.687 723.741 408.466 651.491 355.147C615.366 328.488 580.515 310.315 549.08 302.188C517.646 294.061 489.656 295.985 467.207 309.474C444.757 322.963 429.917 346.774 422.335 378.343C414.753 409.915 414.438 449.217 421.017 493.63C434.176 582.454 474.902 691.644 540.09 800.135C605.277 908.625 682.567 995.846 754.816 1049.16C790.941 1075.82 825.792 1094 857.227 1102.12C888.661 1110.25 916.651 1108.33 939.101 1094.84C961.55 1081.35 976.39 1057.54 983.972 1025.97C991.554 994.398 991.87 955.095 985.29 910.682C972.132 821.858 931.405 712.668 866.217 604.177Z" stroke="url(#paint85_linear_311_18637)" stroke-opacity="0.3" stroke-width="0.717125"/>
<path d="M864.484 601.351C797.413 494.015 718.614 408.156 645.445 356.107C608.86 330.081 573.697 312.519 542.125 304.942C510.554 297.365 482.602 299.778 460.391 313.657C438.18 327.536 423.758 351.601 416.729 383.298C409.698 414.997 410.069 454.299 417.422 498.591C432.129 587.171 474.755 695.634 541.826 802.97C608.897 910.307 687.697 996.166 760.866 1048.22C797.451 1074.24 832.613 1091.8 864.186 1099.38C895.757 1106.96 923.709 1104.54 945.92 1090.67C968.13 1076.79 982.552 1052.72 989.582 1021.02C996.612 989.325 996.242 950.022 988.888 905.731C974.181 817.15 931.556 708.688 864.484 601.351Z" stroke="url(#paint86_linear_311_18637)" stroke-opacity="0.3" stroke-width="0.717125"/>
<path d="M862.7 598.545C793.765 492.395 713.479 407.925 639.413 357.16C602.379 331.777 566.916 314.832 535.216 307.807C503.518 300.782 475.612 303.682 453.647 317.946C431.682 332.211 417.682 356.525 411.207 388.339C404.731 420.156 405.787 459.446 413.912 503.602C430.163 591.913 474.675 699.615 543.609 805.765C612.544 911.914 692.83 996.384 766.896 1047.15C803.93 1072.53 839.393 1089.48 871.093 1096.5C902.791 1103.53 930.697 1100.63 952.662 1086.36C974.627 1072.1 988.627 1047.78 995.103 1015.97C1001.58 984.153 1000.52 944.863 992.397 900.707C976.146 812.396 931.634 704.694 862.7 598.545Z" stroke="url(#paint87_linear_311_18637)" stroke-opacity="0.3" stroke-width="0.717125"/>
<path d="M860.866 595.778C790.09 490.848 708.342 407.792 633.401 358.327C595.93 333.595 560.176 317.27 528.359 310.8C496.543 304.33 468.692 307.716 446.979 322.362C425.266 337.007 411.693 361.561 405.773 393.485C399.854 425.409 401.596 464.675 410.491 508.682C428.28 596.696 474.665 703.605 545.441 808.535C616.218 913.465 697.966 996.522 772.906 1045.99C810.378 1070.72 846.131 1087.04 877.949 1093.51C909.765 1099.98 937.616 1096.6 959.329 1081.95C981.042 1067.31 994.615 1042.75 1000.53 1010.83C1006.45 978.904 1004.71 939.639 995.817 895.631C978.028 807.617 931.643 700.708 860.866 595.778Z" stroke="url(#paint88_linear_311_18637)" stroke-opacity="0.3" stroke-width="0.717125"/>
<path d="M858.984 593.044C786.387 489.365 703.202 407.748 627.409 359.599C589.512 335.524 553.479 319.826 521.553 313.912C489.629 307.998 461.841 311.87 440.387 326.892C418.933 341.914 405.791 366.702 400.43 398.723C395.068 430.746 397.495 469.976 407.156 513.821C426.479 601.511 474.723 707.594 547.32 811.273C619.917 914.952 703.102 996.569 778.894 1044.72C816.791 1068.79 852.825 1084.49 884.75 1090.41C916.675 1096.32 944.462 1092.45 965.916 1077.42C987.37 1062.4 1000.51 1037.62 1005.87 1005.59C1011.24 973.57 1008.81 934.341 999.147 890.496C979.825 802.806 931.581 696.723 858.984 593.044Z" stroke="url(#paint89_linear_311_18637)" stroke-opacity="0.3" stroke-width="0.717125"/>
<path d="M857.059 590.338C782.664 487.941 698.067 407.789 621.445 360.97C583.134 337.56 546.832 322.494 514.808 317.137C482.786 311.781 455.07 316.138 433.881 331.532C412.693 346.926 399.985 371.94 395.183 404.05C390.381 436.162 393.493 475.343 403.918 519.013C424.768 606.352 474.856 711.577 549.251 813.973C623.646 916.37 708.243 996.522 784.864 1043.34C823.176 1066.75 859.478 1081.82 891.502 1087.17C923.524 1092.53 951.24 1088.17 972.429 1072.78C993.617 1057.38 1006.33 1032.37 1011.13 1000.26C1015.93 968.149 1012.82 928.969 1002.39 885.298C981.542 797.959 931.454 692.734 857.059 590.338Z" stroke="url(#paint90_linear_311_18637)" stroke-opacity="0.3" stroke-width="0.717125"/>
<path d="M855.081 587.672C778.91 486.59 692.927 407.926 615.501 362.451C576.786 339.714 540.227 325.283 508.114 320.487C476.003 315.69 448.368 320.53 427.451 336.292C406.535 352.053 394.265 377.285 390.025 409.474C385.784 441.665 389.578 480.785 400.764 524.267C423.135 611.229 475.052 715.564 551.223 816.646C627.394 917.728 713.377 996.392 790.804 1041.87C829.518 1064.6 866.077 1079.04 898.19 1083.83C930.301 1088.63 957.937 1083.79 978.853 1068.03C999.77 1052.26 1012.04 1027.03 1016.28 994.845C1020.52 962.654 1016.73 923.533 1005.54 880.051C983.169 793.09 931.252 688.755 855.081 587.672Z" stroke="url(#paint91_linear_311_18637)" stroke-opacity="0.3" stroke-width="0.717125"/>
<path d="M853.064 585.036C775.14 485.299 687.798 408.147 609.589 364.031C570.484 341.972 533.678 328.182 501.487 323.946C469.297 319.711 441.75 325.032 421.112 341.157C400.473 357.281 388.646 382.723 384.968 414.981C381.29 447.241 385.766 486.289 397.709 529.569C421.595 616.127 475.325 719.54 553.248 819.278C631.172 919.015 718.514 996.167 796.723 1040.28C835.828 1062.34 872.633 1076.13 904.825 1080.37C937.015 1084.6 964.562 1079.28 985.2 1063.16C1005.84 1047.03 1017.67 1021.59 1021.34 989.333C1025.02 957.073 1020.55 918.025 1008.6 874.745C984.717 788.187 930.987 684.774 853.064 585.036Z" stroke="url(#paint92_linear_311_18637)" stroke-opacity="0.3" stroke-width="0.717125"/>
<path d="M850.996 582.437C771.344 484.074 682.668 408.459 603.701 365.714C564.217 344.341 527.176 331.196 494.916 327.523C462.657 323.85 435.207 329.651 414.853 346.133C394.5 362.615 383.118 388.259 380.004 420.577C376.889 452.896 382.046 491.86 394.743 534.925C420.135 621.053 475.662 723.513 555.314 821.875C634.966 920.238 723.642 995.853 802.609 1038.6C842.093 1059.97 879.133 1073.12 911.394 1076.79C943.653 1080.46 971.103 1074.66 991.456 1058.18C1011.81 1041.7 1023.19 1016.05 1026.31 983.735C1029.42 951.416 1024.26 912.452 1011.57 869.387C986.174 783.258 930.648 680.799 850.996 582.437Z" stroke="url(#paint93_linear_311_18637)" stroke-opacity="0.3" stroke-width="0.717125"/>
<path d="M848.883 579.878C767.526 482.921 677.544 408.864 597.843 367.505C557.992 346.824 520.728 334.327 488.408 331.217C456.09 328.108 428.745 334.387 408.682 351.222C388.619 368.057 377.687 393.896 375.137 426.263C372.587 458.631 378.424 497.5 391.87 540.337C418.762 626.009 476.068 727.483 557.425 824.441C638.781 921.398 728.763 995.454 808.464 1036.81C848.315 1057.49 885.58 1069.99 917.899 1073.1C950.217 1076.21 977.562 1069.93 997.625 1053.1C1017.69 1036.26 1028.62 1010.42 1031.17 978.056C1033.72 945.687 1027.88 906.819 1014.44 863.982C987.546 778.31 930.24 676.835 848.883 579.878Z" stroke="url(#paint94_linear_311_18637)" stroke-opacity="0.3" stroke-width="0.717125"/>
<path d="M846.727 577.353C763.691 481.83 672.43 409.356 592.02 369.393C551.814 349.411 514.337 337.566 481.968 335.021C449.601 332.476 422.37 339.232 402.604 356.414C382.838 373.597 372.358 399.622 370.373 432.029C368.388 464.437 374.903 503.198 389.094 545.793C417.477 630.983 476.545 731.442 559.582 826.965C642.619 922.487 733.879 994.962 814.29 1034.92C854.496 1054.91 891.972 1066.75 924.342 1069.3C956.709 1071.84 983.94 1065.09 1003.71 1047.9C1023.47 1030.72 1033.95 1004.7 1035.94 972.289C1037.92 939.88 1031.41 901.12 1017.22 858.524C988.832 773.335 929.764 672.875 846.727 577.353Z" stroke="url(#paint95_linear_311_18637)" stroke-opacity="0.3" stroke-width="0.717125"/>
<path d="M844.526 574.864C759.835 480.805 667.323 409.935 586.227 371.381C545.679 352.104 508.001 340.915 475.592 338.936C443.186 336.956 416.077 344.186 396.614 361.711C377.15 379.235 367.127 405.44 365.708 437.876C364.289 470.314 371.479 508.955 386.411 551.296C416.277 635.978 477.089 735.391 561.78 829.45C646.471 923.509 738.983 994.379 820.079 1032.93C860.627 1052.21 898.305 1063.4 930.713 1065.38C963.12 1067.36 990.229 1060.13 1009.69 1042.6C1029.16 1025.08 1039.18 998.874 1040.6 966.438C1042.02 934 1034.83 895.359 1019.89 853.018C990.029 768.336 929.217 668.923 844.526 574.864Z" stroke="url(#paint96_linear_311_18637)" stroke-opacity="0.3" stroke-width="0.717125"/>
<path d="M842.282 572.417C755.963 479.85 662.228 410.605 580.472 373.473C539.593 354.906 501.726 344.376 469.288 342.963C436.851 341.549 409.873 349.251 390.718 367.113C371.564 384.974 361.999 411.35 361.147 443.806C360.294 476.264 368.157 514.773 383.826 556.848C415.165 640.995 477.703 739.331 564.023 831.898C650.343 924.464 744.077 993.71 825.833 1030.84C866.712 1049.41 904.579 1059.94 937.017 1061.35C969.454 1062.77 996.432 1055.06 1015.59 1037.2C1034.74 1019.34 1044.31 992.965 1045.16 960.509C1046.01 928.051 1038.15 889.541 1022.48 847.467C991.14 763.32 928.602 664.983 842.282 572.417Z" stroke="url(#paint97_linear_311_18637)" stroke-opacity="0.3" stroke-width="0.717125"/>
<path d="M839.998 570.01C752.076 478.964 657.148 411.365 574.756 375.665C533.559 357.815 495.514 347.947 463.056 347.1C430.6 346.253 403.76 354.424 384.92 372.618C366.08 390.811 356.977 417.349 356.691 449.815C356.405 482.283 364.939 520.65 381.341 562.444C414.143 646.032 478.388 743.262 566.31 834.308C654.232 925.353 749.161 992.953 831.552 1028.65C872.749 1046.5 910.794 1056.37 943.252 1057.22C975.709 1058.06 1002.55 1049.89 1021.39 1031.7C1040.23 1013.51 1049.33 986.968 1049.62 954.502C1049.9 922.034 1041.37 883.668 1024.97 841.873C992.165 758.286 927.92 661.056 839.998 570.01Z" stroke="url(#paint98_linear_311_18637)" stroke-opacity="0.3" stroke-width="0.717125"/>
<path d="M837.671 567.643C748.174 478.146 652.08 412.213 569.078 377.957C527.576 360.829 489.364 351.627 456.896 351.346C424.43 351.065 397.737 359.704 379.218 378.223C360.698 396.743 352.06 423.436 352.34 455.902C352.621 488.37 361.823 526.581 378.951 568.083C413.208 651.086 479.14 747.18 568.637 836.677C658.135 926.175 754.229 992.107 837.231 1026.36C878.733 1043.49 916.945 1052.69 949.413 1052.97C981.879 1053.25 1008.57 1044.62 1027.09 1026.1C1045.61 1007.58 1054.25 980.884 1053.97 948.418C1053.69 915.951 1044.49 877.739 1027.36 836.237C993.101 753.235 927.169 657.141 837.671 567.643Z" stroke="url(#paint99_linear_311_18637)" stroke-opacity="0.3" stroke-width="0.717125"/>
<defs>
<linearGradient id="paint0_linear_311_18637" x1="638.555" y1="611.626" x2="771.813" y2="795.039" gradientUnits="userSpaceOnUse">
<stop stop-color="#DE701D"/>
<stop offset="1" stop-color="#121212"/>
</linearGradient>
<linearGradient id="paint1_linear_311_18637" x1="636.986" y1="612.771" x2="773.424" y2="793.83" gradientUnits="userSpaceOnUse">
<stop stop-color="#DE701D"/>
<stop offset="1" stop-color="#121212"/>
</linearGradient>
<linearGradient id="paint2_linear_311_18637" x1="635.434" y1="613.937" x2="775.011" y2="792.587" gradientUnits="userSpaceOnUse">
<stop stop-color="#DE701D"/>
<stop offset="1" stop-color="#121212"/>
</linearGradient>
<linearGradient id="paint3_linear_311_18637" x1="633.906" y1="615.135" x2="776.579" y2="791.322" gradientUnits="userSpaceOnUse">
<stop stop-color="#DE701D"/>
<stop offset="1" stop-color="#121212"/>
</linearGradient>
<linearGradient id="paint4_linear_311_18637" x1="632.398" y1="616.352" x2="778.125" y2="790.022" gradientUnits="userSpaceOnUse">
<stop stop-color="#DE701D"/>
<stop offset="1" stop-color="#121212"/>
</linearGradient>
<linearGradient id="paint5_linear_311_18637" x1="630.908" y1="617.601" x2="779.644" y2="788.702" gradientUnits="userSpaceOnUse">
<stop stop-color="#DE701D"/>
<stop offset="1" stop-color="#121212"/>
</linearGradient>
<linearGradient id="paint6_linear_311_18637" x1="629.445" y1="618.877" x2="781.144" y2="787.356" gradientUnits="userSpaceOnUse">
<stop stop-color="#DE701D"/>
<stop offset="1" stop-color="#121212"/>
</linearGradient>
<linearGradient id="paint7_linear_311_18637" x1="628.003" y1="620.177" x2="782.619" y2="785.983" gradientUnits="userSpaceOnUse">
<stop stop-color="#DE701D"/>
<stop offset="1" stop-color="#121212"/>
</linearGradient>
<linearGradient id="paint8_linear_311_18637" x1="626.586" y1="621.501" x2="784.072" y2="784.583" gradientUnits="userSpaceOnUse">
<stop stop-color="#DE701D"/>
<stop offset="1" stop-color="#121212"/>
</linearGradient>
<linearGradient id="paint9_linear_311_18637" x1="625.186" y1="622.85" x2="785.495" y2="783.159" gradientUnits="userSpaceOnUse">
<stop stop-color="#DE701D"/>
<stop offset="1" stop-color="#121212"/>
</linearGradient>
<linearGradient id="paint10_linear_311_18637" x1="623.813" y1="624.222" x2="786.895" y2="781.709" gradientUnits="userSpaceOnUse">
<stop stop-color="#DE701D"/>
<stop offset="1" stop-color="#121212"/>
</linearGradient>
<linearGradient id="paint11_linear_311_18637" x1="622.466" y1="625.619" x2="788.272" y2="780.236" gradientUnits="userSpaceOnUse">
<stop stop-color="#DE701D"/>
<stop offset="1" stop-color="#121212"/>
</linearGradient>
<linearGradient id="paint12_linear_311_18637" x1="621.143" y1="627.04" x2="789.622" y2="778.739" gradientUnits="userSpaceOnUse">
<stop stop-color="#DE701D"/>
<stop offset="1" stop-color="#121212"/>
</linearGradient>
<linearGradient id="paint13_linear_311_18637" x1="619.847" y1="628.478" x2="790.947" y2="777.214" gradientUnits="userSpaceOnUse">
<stop stop-color="#DE701D"/>
<stop offset="1" stop-color="#121212"/>
</linearGradient>
<linearGradient id="paint14_linear_311_18637" x1="618.567" y1="629.944" x2="792.238" y2="775.671" gradientUnits="userSpaceOnUse">
<stop stop-color="#DE701D"/>
<stop offset="1" stop-color="#121212"/>
</linearGradient>
<linearGradient id="paint15_linear_311_18637" x1="617.324" y1="631.435" x2="793.511" y2="774.108" gradientUnits="userSpaceOnUse">
<stop stop-color="#DE701D"/>
<stop offset="1" stop-color="#121212"/>
</linearGradient>
<linearGradient id="paint16_linear_311_18637" x1="616.102" y1="632.941" x2="794.753" y2="772.518" gradientUnits="userSpaceOnUse">
<stop stop-color="#DE701D"/>
<stop offset="1" stop-color="#121212"/>
</linearGradient>
<linearGradient id="paint17_linear_311_18637" x1="614.907" y1="634.468" x2="795.966" y2="770.906" gradientUnits="userSpaceOnUse">
<stop stop-color="#DE701D"/>
<stop offset="1" stop-color="#121212"/>
</linearGradient>
<linearGradient id="paint18_linear_311_18637" x1="613.742" y1="636.023" x2="797.155" y2="769.28" gradientUnits="userSpaceOnUse">
<stop stop-color="#DE701D"/>
<stop offset="1" stop-color="#121212"/>
</linearGradient>
<linearGradient id="paint19_linear_311_18637" x1="612.601" y1="637.59" x2="798.312" y2="767.626" gradientUnits="userSpaceOnUse">
<stop stop-color="#DE701D"/>
<stop offset="1" stop-color="#121212"/>
</linearGradient>
<linearGradient id="paint20_linear_311_18637" x1="611.483" y1="639.184" x2="799.434" y2="765.959" gradientUnits="userSpaceOnUse">
<stop stop-color="#DE701D"/>
<stop offset="1" stop-color="#121212"/>
</linearGradient>
<linearGradient id="paint21_linear_311_18637" x1="610.399" y1="640.79" x2="800.535" y2="764.266" gradientUnits="userSpaceOnUse">
<stop stop-color="#DE701D"/>
<stop offset="1" stop-color="#121212"/>
</linearGradient>
<linearGradient id="paint22_linear_311_18637" x1="609.344" y1="642.423" x2="801.605" y2="762.561" gradientUnits="userSpaceOnUse">
<stop stop-color="#DE701D"/>
<stop offset="1" stop-color="#121212"/>
</linearGradient>
<linearGradient id="paint23_linear_311_18637" x1="608.319" y1="644.064" x2="802.648" y2="760.828" gradientUnits="userSpaceOnUse">
<stop stop-color="#DE701D"/>
<stop offset="1" stop-color="#121212"/>
</linearGradient>
<linearGradient id="paint24_linear_311_18637" x1="607.316" y1="645.73" x2="803.654" y2="759.085" gradientUnits="userSpaceOnUse">
<stop stop-color="#DE701D"/>
<stop offset="1" stop-color="#121212"/>
</linearGradient>
<linearGradient id="paint25_linear_311_18637" x1="606.348" y1="647.412" x2="804.634" y2="757.323" gradientUnits="userSpaceOnUse">
<stop stop-color="#DE701D"/>
<stop offset="1" stop-color="#121212"/>
</linearGradient>
<linearGradient id="paint26_linear_311_18637" x1="605.406" y1="649.11" x2="805.579" y2="755.544" gradientUnits="userSpaceOnUse">
<stop stop-color="#DE701D"/>
<stop offset="1" stop-color="#121212"/>
</linearGradient>
<linearGradient id="paint27_linear_311_18637" x1="604.495" y1="650.823" x2="806.496" y2="753.748" gradientUnits="userSpaceOnUse">
<stop stop-color="#DE701D"/>
<stop offset="1" stop-color="#121212"/>
</linearGradient>
<linearGradient id="paint28_linear_311_18637" x1="603.614" y1="652.552" x2="807.38" y2="751.936" gradientUnits="userSpaceOnUse">
<stop stop-color="#DE701D"/>
<stop offset="1" stop-color="#121212"/>
</linearGradient>
<linearGradient id="paint29_linear_311_18637" x1="602.766" y1="654.299" x2="808.236" y2="750.111" gradientUnits="userSpaceOnUse">
<stop stop-color="#DE701D"/>
<stop offset="1" stop-color="#121212"/>
</linearGradient>
<linearGradient id="paint30_linear_311_18637" x1="601.942" y1="656.057" x2="809.053" y2="748.268" gradientUnits="userSpaceOnUse">
<stop stop-color="#DE701D"/>
<stop offset="1" stop-color="#121212"/>
</linearGradient>
<linearGradient id="paint31_linear_311_18637" x1="601.157" y1="657.831" x2="809.846" y2="746.414" gradientUnits="userSpaceOnUse">
<stop stop-color="#DE701D"/>
<stop offset="1" stop-color="#121212"/>
</linearGradient>
<linearGradient id="paint32_linear_311_18637" x1="600.399" y1="659.616" x2="810.601" y2="744.543" gradientUnits="userSpaceOnUse">
<stop stop-color="#DE701D"/>
<stop offset="1" stop-color="#121212"/>
</linearGradient>
<linearGradient id="paint33_linear_311_18637" x1="599.671" y1="661.419" x2="811.323" y2="742.665" gradientUnits="userSpaceOnUse">
<stop stop-color="#DE701D"/>
<stop offset="1" stop-color="#121212"/>
</linearGradient>
<linearGradient id="paint34_linear_311_18637" x1="598.975" y1="663.231" x2="812.014" y2="740.771" gradientUnits="userSpaceOnUse">
<stop stop-color="#DE701D"/>
<stop offset="1" stop-color="#121212"/>
</linearGradient>
<linearGradient id="paint35_linear_311_18637" x1="598.313" y1="665.057" x2="812.672" y2="738.867" gradientUnits="userSpaceOnUse">
<stop stop-color="#DE701D"/>
<stop offset="1" stop-color="#121212"/>
</linearGradient>
<linearGradient id="paint36_linear_311_18637" x1="597.678" y1="666.887" x2="813.293" y2="736.944" gradientUnits="userSpaceOnUse">
<stop stop-color="#DE701D"/>
<stop offset="1" stop-color="#121212"/>
</linearGradient>
<linearGradient id="paint37_linear_311_18637" x1="597.078" y1="668.736" x2="813.883" y2="735.02" gradientUnits="userSpaceOnUse">
<stop stop-color="#DE701D"/>
<stop offset="1" stop-color="#121212"/>
</linearGradient>
<linearGradient id="paint38_linear_311_18637" x1="596.514" y1="670.591" x2="814.442" y2="733.081" gradientUnits="userSpaceOnUse">
<stop stop-color="#DE701D"/>
<stop offset="1" stop-color="#121212"/>
</linearGradient>
<linearGradient id="paint39_linear_311_18637" x1="595.98" y1="672.457" x2="814.966" y2="731.134" gradientUnits="userSpaceOnUse">
<stop stop-color="#DE701D"/>
<stop offset="1" stop-color="#121212"/>
</linearGradient>
<linearGradient id="paint40_linear_311_18637" x1="595.478" y1="674.327" x2="815.454" y2="729.173" gradientUnits="userSpaceOnUse">
<stop stop-color="#DE701D"/>
<stop offset="1" stop-color="#121212"/>
</linearGradient>
<linearGradient id="paint41_linear_311_18637" x1="595.01" y1="676.213" x2="815.91" y2="727.212" gradientUnits="userSpaceOnUse">
<stop stop-color="#DE701D"/>
<stop offset="1" stop-color="#121212"/>
</linearGradient>
<linearGradient id="paint42_linear_311_18637" x1="594.572" y1="678.109" x2="816.328" y2="725.245" gradientUnits="userSpaceOnUse">
<stop stop-color="#DE701D"/>
<stop offset="1" stop-color="#121212"/>
</linearGradient>
<linearGradient id="paint43_linear_311_18637" x1="594.17" y1="680.008" x2="816.716" y2="723.267" gradientUnits="userSpaceOnUse">
<stop stop-color="#DE701D"/>
<stop offset="1" stop-color="#121212"/>
</linearGradient>
<linearGradient id="paint44_linear_311_18637" x1="593.798" y1="681.911" x2="817.065" y2="721.279" gradientUnits="userSpaceOnUse">
<stop stop-color="#DE701D"/>
<stop offset="1" stop-color="#121212"/>
</linearGradient>
<linearGradient id="paint45_linear_311_18637" x1="593.46" y1="683.823" x2="817.38" y2="719.288" gradientUnits="userSpaceOnUse">
<stop stop-color="#DE701D"/>
<stop offset="1" stop-color="#121212"/>
</linearGradient>
<linearGradient id="paint46_linear_311_18637" x1="593.155" y1="685.74" x2="817.659" y2="717.292" gradientUnits="userSpaceOnUse">
<stop stop-color="#DE701D"/>
<stop offset="1" stop-color="#121212"/>
</linearGradient>
<linearGradient id="paint47_linear_311_18637" x1="592.89" y1="687.664" x2="817.911" y2="715.293" gradientUnits="userSpaceOnUse">
<stop stop-color="#DE701D"/>
<stop offset="1" stop-color="#121212"/>
</linearGradient>
<linearGradient id="paint48_linear_311_18637" x1="592.65" y1="689.59" x2="818.119" y2="713.288" gradientUnits="userSpaceOnUse">
<stop stop-color="#DE701D"/>
<stop offset="1" stop-color="#121212"/>
</linearGradient>
<linearGradient id="paint49_linear_311_18637" x1="592.452" y1="691.517" x2="818.3" y2="711.276" gradientUnits="userSpaceOnUse">
<stop stop-color="#DE701D"/>
<stop offset="1" stop-color="#121212"/>
</linearGradient>
<linearGradient id="paint50_linear_311_18637" x1="592.28" y1="693.452" x2="818.438" y2="709.266" gradientUnits="userSpaceOnUse">
<stop stop-color="#DE701D"/>
<stop offset="1" stop-color="#121212"/>
</linearGradient>
<linearGradient id="paint51_linear_311_18637" x1="592.142" y1="695.392" x2="818.542" y2="707.257" gradientUnits="userSpaceOnUse">
<stop stop-color="#DE701D"/>
<stop offset="1" stop-color="#121212"/>
</linearGradient>
<linearGradient id="paint52_linear_311_18637" x1="592.046" y1="697.326" x2="818.618" y2="705.238" gradientUnits="userSpaceOnUse">
<stop stop-color="#DE701D"/>
<stop offset="1" stop-color="#121212"/>
</linearGradient>
<linearGradient id="paint53_linear_311_18637" x1="591.972" y1="699.27" x2="818.649" y2="703.227" gradientUnits="userSpaceOnUse">
<stop stop-color="#DE701D"/>
<stop offset="1" stop-color="#121212"/>
</linearGradient>
<linearGradient id="paint54_linear_311_18637" x1="591.941" y1="701.213" x2="818.652" y2="701.213" gradientUnits="userSpaceOnUse">
<stop stop-color="#DE701D"/>
<stop offset="1" stop-color="#121212"/>
</linearGradient>
<linearGradient id="paint55_linear_311_18637" x1="591.946" y1="703.148" x2="818.622" y2="699.191" gradientUnits="userSpaceOnUse">
<stop stop-color="#DE701D"/>
<stop offset="1" stop-color="#121212"/>
</linearGradient>
<linearGradient id="paint56_linear_311_18637" x1="591.976" y1="705.086" x2="818.549" y2="697.174" gradientUnits="userSpaceOnUse">
<stop stop-color="#DE701D"/>
<stop offset="1" stop-color="#121212"/>
</linearGradient>
<linearGradient id="paint57_linear_311_18637" x1="592.05" y1="707.028" x2="818.45" y2="695.163" gradientUnits="userSpaceOnUse">
<stop stop-color="#DE701D"/>
<stop offset="1" stop-color="#121212"/>
</linearGradient>
<linearGradient id="paint58_linear_311_18637" x1="592.147" y1="708.963" x2="818.306" y2="693.148" gradientUnits="userSpaceOnUse">
<stop stop-color="#DE701D"/>
<stop offset="1" stop-color="#121212"/>
</linearGradient>
<linearGradient id="paint59_linear_311_18637" x1="592.281" y1="710.906" x2="818.129" y2="691.147" gradientUnits="userSpaceOnUse">
<stop stop-color="#DE701D"/>
<stop offset="1" stop-color="#121212"/>
</linearGradient>
<linearGradient id="paint60_linear_311_18637" x1="592.452" y1="712.834" x2="817.921" y2="689.137" gradientUnits="userSpaceOnUse">
<stop stop-color="#DE701D"/>
<stop offset="1" stop-color="#121212"/>
</linearGradient>
<linearGradient id="paint61_linear_311_18637" x1="592.657" y1="714.768" x2="817.677" y2="687.139" gradientUnits="userSpaceOnUse">
<stop stop-color="#DE701D"/>
<stop offset="1" stop-color="#121212"/>
</linearGradient>
<linearGradient id="paint62_linear_311_18637" x1="592.891" y1="716.695" x2="817.396" y2="685.143" gradientUnits="userSpaceOnUse">
<stop stop-color="#DE701D"/>
<stop offset="1" stop-color="#121212"/>
</linearGradient>
<linearGradient id="paint63_linear_311_18637" x1="593.164" y1="718.615" x2="817.084" y2="683.15" gradientUnits="userSpaceOnUse">
<stop stop-color="#DE701D"/>
<stop offset="1" stop-color="#121212"/>
</linearGradient>
<linearGradient id="paint64_linear_311_18637" x1="593.467" y1="720.533" x2="816.733" y2="681.165" gradientUnits="userSpaceOnUse">
<stop stop-color="#DE701D"/>
<stop offset="1" stop-color="#121212"/>
</linearGradient>
<linearGradient id="paint65_linear_311_18637" x1="593.807" y1="722.444" x2="816.352" y2="679.186" gradientUnits="userSpaceOnUse">
<stop stop-color="#DE701D"/>
<stop offset="1" stop-color="#121212"/>
</linearGradient>
<linearGradient id="paint66_linear_311_18637" x1="594.175" y1="724.353" x2="815.932" y2="677.217" gradientUnits="userSpaceOnUse">
<stop stop-color="#DE701D"/>
<stop offset="1" stop-color="#121212"/>
</linearGradient>
<linearGradient id="paint67_linear_311_18637" x1="594.582" y1="726.248" x2="815.482" y2="675.249" gradientUnits="userSpaceOnUse">
<stop stop-color="#DE701D"/>
<stop offset="1" stop-color="#121212"/>
</linearGradient>
<linearGradient id="paint68_linear_311_18637" x1="595.017" y1="728.14" x2="814.993" y2="673.293" gradientUnits="userSpaceOnUse">
<stop stop-color="#DE701D"/>
<stop offset="1" stop-color="#121212"/>
</linearGradient>
<linearGradient id="paint69_linear_311_18637" x1="595.487" y1="730.025" x2="814.473" y2="671.347" gradientUnits="userSpaceOnUse">
<stop stop-color="#DE701D"/>
<stop offset="1" stop-color="#121212"/>
</linearGradient>
<linearGradient id="paint70_linear_311_18637" x1="595.992" y1="731.895" x2="813.92" y2="669.405" gradientUnits="userSpaceOnUse">
<stop stop-color="#DE701D"/>
<stop offset="1" stop-color="#121212"/>
</linearGradient>
<linearGradient id="paint71_linear_311_18637" x1="596.525" y1="733.765" x2="813.33" y2="667.482" gradientUnits="userSpaceOnUse">
<stop stop-color="#DE701D"/>
<stop offset="1" stop-color="#121212"/>
</linearGradient>
<linearGradient id="paint72_linear_311_18637" x1="597.094" y1="735.621" x2="812.709" y2="665.563" gradientUnits="userSpaceOnUse">
<stop stop-color="#DE701D"/>
<stop offset="1" stop-color="#121212"/>
</linearGradient>
<linearGradient id="paint73_linear_311_18637" x1="597.695" y1="737.464" x2="812.054" y2="663.655" gradientUnits="userSpaceOnUse">
<stop stop-color="#DE701D"/>
<stop offset="1" stop-color="#121212"/>
</linearGradient>
<linearGradient id="paint74_linear_311_18637" x1="598.326" y1="739.296" x2="811.365" y2="661.756" gradientUnits="userSpaceOnUse">
<stop stop-color="#DE701D"/>
<stop offset="1" stop-color="#121212"/>
</linearGradient>
<linearGradient id="paint75_linear_311_18637" x1="598.989" y1="741.123" x2="810.642" y2="659.877" gradientUnits="userSpaceOnUse">
<stop stop-color="#DE701D"/>
<stop offset="1" stop-color="#121212"/>
</linearGradient>
<linearGradient id="paint76_linear_311_18637" x1="599.687" y1="742.936" x2="809.889" y2="658.009" gradientUnits="userSpaceOnUse">
<stop stop-color="#DE701D"/>
<stop offset="1" stop-color="#121212"/>
</linearGradient>
<linearGradient id="paint77_linear_311_18637" x1="600.414" y1="744.737" x2="809.103" y2="656.154" gradientUnits="userSpaceOnUse">
<stop stop-color="#DE701D"/>
<stop offset="1" stop-color="#121212"/>
</linearGradient>
<linearGradient id="paint78_linear_311_18637" x1="601.173" y1="746.523" x2="808.283" y2="654.311" gradientUnits="userSpaceOnUse">
<stop stop-color="#DE701D"/>
<stop offset="1" stop-color="#121212"/>
</linearGradient>
<linearGradient id="paint79_linear_311_18637" x1="601.962" y1="748.298" x2="807.431" y2="652.486" gradientUnits="userSpaceOnUse">
<stop stop-color="#DE701D"/>
<stop offset="1" stop-color="#121212"/>
</linearGradient>
<linearGradient id="paint80_linear_311_18637" x1="602.782" y1="750.054" x2="806.549" y2="650.671" gradientUnits="userSpaceOnUse">
<stop stop-color="#DE701D"/>
<stop offset="1" stop-color="#121212"/>
</linearGradient>
<linearGradient id="paint81_linear_311_18637" x1="603.635" y1="751.802" x2="805.635" y2="648.878" gradientUnits="userSpaceOnUse">
<stop stop-color="#DE701D"/>
<stop offset="1" stop-color="#121212"/>
</linearGradient>
<linearGradient id="paint82_linear_311_18637" x1="604.515" y1="753.53" x2="804.689" y2="647.095" gradientUnits="userSpaceOnUse">
<stop stop-color="#DE701D"/>
<stop offset="1" stop-color="#121212"/>
</linearGradient>
<linearGradient id="paint83_linear_311_18637" x1="605.429" y1="755.244" x2="803.714" y2="645.332" gradientUnits="userSpaceOnUse">
<stop stop-color="#DE701D"/>
<stop offset="1" stop-color="#121212"/>
</linearGradient>
<linearGradient id="paint84_linear_311_18637" x1="606.369" y1="756.939" x2="802.707" y2="643.584" gradientUnits="userSpaceOnUse">
<stop stop-color="#DE701D"/>
<stop offset="1" stop-color="#121212"/>
</linearGradient>
<linearGradient id="paint85_linear_311_18637" x1="607.339" y1="758.62" x2="801.668" y2="641.855" gradientUnits="userSpaceOnUse">
<stop stop-color="#DE701D"/>
<stop offset="1" stop-color="#121212"/>
</linearGradient>
<linearGradient id="paint86_linear_311_18637" x1="608.341" y1="760.288" x2="800.603" y2="640.15" gradientUnits="userSpaceOnUse">
<stop stop-color="#DE701D"/>
<stop offset="1" stop-color="#121212"/>
</linearGradient>
<linearGradient id="paint87_linear_311_18637" x1="609.369" y1="761.928" x2="799.505" y2="638.452" gradientUnits="userSpaceOnUse">
<stop stop-color="#DE701D"/>
<stop offset="1" stop-color="#121212"/>
</linearGradient>
<linearGradient id="paint88_linear_311_18637" x1="610.426" y1="763.558" x2="798.378" y2="636.782" gradientUnits="userSpaceOnUse">
<stop stop-color="#DE701D"/>
<stop offset="1" stop-color="#121212"/>
</linearGradient>
<linearGradient id="paint89_linear_311_18637" x1="611.51" y1="765.168" x2="797.22" y2="635.132" gradientUnits="userSpaceOnUse">
<stop stop-color="#DE701D"/>
<stop offset="1" stop-color="#121212"/>
</linearGradient>
<linearGradient id="paint90_linear_311_18637" x1="612.626" y1="766.755" x2="796.039" y2="633.498" gradientUnits="userSpaceOnUse">
<stop stop-color="#DE701D"/>
<stop offset="1" stop-color="#121212"/>
</linearGradient>
<linearGradient id="paint91_linear_311_18637" x1="613.765" y1="768.329" x2="794.824" y2="631.891" gradientUnits="userSpaceOnUse">
<stop stop-color="#DE701D"/>
<stop offset="1" stop-color="#121212"/>
</linearGradient>
<linearGradient id="paint92_linear_311_18637" x1="614.937" y1="769.877" x2="793.587" y2="630.3" gradientUnits="userSpaceOnUse">
<stop stop-color="#DE701D"/>
<stop offset="1" stop-color="#121212"/>
</linearGradient>
<linearGradient id="paint93_linear_311_18637" x1="616.131" y1="771.405" x2="792.319" y2="628.731" gradientUnits="userSpaceOnUse">
<stop stop-color="#DE701D"/>
<stop offset="1" stop-color="#121212"/>
</linearGradient>
<linearGradient id="paint94_linear_311_18637" x1="617.352" y1="772.917" x2="791.022" y2="627.19" gradientUnits="userSpaceOnUse">
<stop stop-color="#DE701D"/>
<stop offset="1" stop-color="#121212"/>
</linearGradient>
<linearGradient id="paint95_linear_311_18637" x1="618.601" y1="774.403" x2="789.702" y2="625.667" gradientUnits="userSpaceOnUse">
<stop stop-color="#DE701D"/>
<stop offset="1" stop-color="#121212"/>
</linearGradient>
<linearGradient id="paint96_linear_311_18637" x1="619.873" y1="775.866" x2="788.352" y2="624.166" gradientUnits="userSpaceOnUse">
<stop stop-color="#DE701D"/>
<stop offset="1" stop-color="#121212"/>
</linearGradient>
<linearGradient id="paint97_linear_311_18637" x1="621.172" y1="777.308" x2="786.977" y2="622.692" gradientUnits="userSpaceOnUse">
<stop stop-color="#DE701D"/>
<stop offset="1" stop-color="#121212"/>
</linearGradient>
<linearGradient id="paint98_linear_311_18637" x1="622.497" y1="778.729" x2="785.579" y2="621.242" gradientUnits="userSpaceOnUse">
<stop stop-color="#DE701D"/>
<stop offset="1" stop-color="#121212"/>
</linearGradient>
<linearGradient id="paint99_linear_311_18637" x1="623.846" y1="780.126" x2="784.155" y2="619.818" gradientUnits="userSpaceOnUse">
<stop stop-color="#DE701D"/>
<stop offset="1" stop-color="#121212"/>
</linearGradient>
</defs>
</svg>
