<svg width="1091" height="1181" viewBox="0 0 1091 1181" fill="none" xmlns="http://www.w3.org/2000/svg">
<path d="M600.616 780.012C726.99 772.993 840.2 745.345 921.076 706.332C961.514 686.825 993.851 664.484 1015.71 640.475C1037.57 616.468 1048.93 590.815 1047.48 564.665C1046.02 538.515 1031.89 514.278 1007.51 492.839C983.128 471.398 948.515 452.776 906.165 437.867C821.467 408.049 705.891 393.107 579.517 400.126C453.143 407.144 339.933 434.792 259.057 473.806C218.619 493.313 186.281 515.653 164.422 539.662C142.565 563.67 131.203 589.323 132.656 615.473C134.108 641.623 148.24 665.86 172.622 687.299C197.005 708.74 231.618 727.362 273.967 742.271C358.665 772.089 474.242 787.03 600.616 780.012Z" stroke="url(#paint0_linear_307_18238)" stroke-opacity="0.3" stroke-width="0.717125"/>
<path d="M603.928 779.795C730.161 770.572 842.872 740.953 923.054 700.534C963.146 680.324 995.088 657.422 1016.52 633.036C1037.96 608.65 1048.87 582.803 1046.96 556.682C1045.06 530.562 1030.5 506.575 1005.75 485.564C980.996 464.553 946.064 446.537 903.461 432.37C818.255 404.035 702.436 391.112 576.203 400.335C449.971 409.558 337.26 439.178 257.078 479.597C216.986 499.807 185.044 522.708 163.607 547.095C142.172 571.48 131.26 597.327 133.168 623.448C135.077 649.569 149.63 673.556 174.382 694.566C199.136 715.578 234.068 733.593 276.671 747.761C361.877 776.096 477.696 789.018 603.928 779.795Z" stroke="url(#paint1_linear_307_18238)" stroke-opacity="0.3" stroke-width="0.717125"/>
<path d="M607.236 779.524C733.288 768.099 845.465 736.517 924.93 694.705C964.662 673.799 996.201 650.343 1017.21 625.586C1038.21 600.83 1048.67 574.797 1046.31 548.713C1043.95 522.63 1028.98 498.901 1003.86 478.325C978.745 457.749 943.504 440.346 900.659 426.924C814.972 400.08 698.945 389.181 572.893 400.606C446.841 412.03 334.664 443.613 255.2 485.425C215.467 506.331 183.928 529.787 162.921 554.544C141.914 579.3 131.455 605.333 133.819 631.417C136.183 657.5 151.153 681.229 176.268 701.805C201.384 722.381 236.626 739.784 279.47 753.206C365.157 780.05 481.184 790.949 607.236 779.524Z" stroke="url(#paint2_linear_307_18238)" stroke-opacity="0.3" stroke-width="0.717125"/>
<path d="M610.541 779.197C736.374 765.574 847.983 732.039 926.706 688.846C966.068 667.249 997.192 643.247 1017.76 618.127C1038.34 593.009 1048.34 566.796 1045.52 540.758C1042.7 514.72 1027.32 491.256 1001.85 471.122C976.377 450.987 940.838 434.202 897.765 421.529C811.623 396.185 695.423 387.313 569.59 400.936C443.756 414.558 332.148 448.094 253.425 491.286C214.063 512.883 182.939 536.885 162.367 562.005C141.795 587.124 131.792 613.336 134.611 639.374C137.43 665.413 152.811 688.877 178.282 709.011C203.753 729.146 239.293 745.931 282.365 758.603C368.508 783.947 484.707 792.82 610.541 779.197Z" stroke="url(#paint3_linear_307_18238)" stroke-opacity="0.3" stroke-width="0.717125"/>
<path d="M613.843 778.808C739.419 762.992 850.426 727.514 928.382 682.954C967.362 660.673 998.062 636.131 1018.19 610.656C1038.32 585.183 1047.87 558.8 1044.59 532.815C1041.32 506.83 1025.53 483.637 999.715 463.951C973.895 444.264 938.068 428.101 894.781 416.183C808.21 392.346 691.873 385.503 566.296 401.319C440.72 417.136 329.713 452.614 251.757 497.174C212.777 519.455 182.077 543.996 161.946 569.472C141.816 594.945 132.272 621.328 135.545 647.313C138.818 673.298 154.606 696.49 180.424 716.177C206.244 735.864 242.071 752.027 285.358 763.945C371.929 787.782 488.266 794.625 613.843 778.808Z" stroke="url(#paint4_linear_307_18238)" stroke-opacity="0.3" stroke-width="0.717125"/>
<path d="M617.128 778.365C742.409 760.359 852.78 722.949 929.947 677.036C968.531 654.078 998.799 629.004 1018.48 603.182C1038.16 577.361 1047.25 550.815 1043.52 524.891C1039.79 498.967 1023.6 476.054 997.446 456.821C971.287 437.588 935.183 422.053 891.695 410.891C804.721 388.569 688.282 383.757 563.001 401.764C437.719 419.77 327.349 457.18 250.182 503.093C211.598 526.051 181.33 551.124 161.647 576.947C141.965 602.768 132.882 629.314 136.608 655.238C140.334 681.162 156.525 704.075 182.683 723.307C208.842 742.541 244.945 758.076 288.434 769.237C375.408 791.56 491.847 796.371 617.128 778.365Z" stroke="url(#paint5_linear_307_18238)" stroke-opacity="0.3" stroke-width="0.717125"/>
<path d="M620.411 777.866C745.359 757.676 855.06 718.346 931.414 671.093C969.592 647.465 999.417 621.867 1018.65 595.705C1037.87 569.544 1046.49 542.844 1042.31 516.989C1038.14 491.134 1021.55 468.507 995.06 449.734C968.569 430.96 932.199 416.057 888.523 405.657C801.172 384.856 684.668 382.077 559.719 402.267C434.771 422.456 325.071 461.787 248.717 509.04C210.539 532.667 180.714 558.266 161.484 584.428C142.256 610.589 133.638 637.288 137.816 663.143C141.993 688.998 158.582 711.625 185.071 730.399C211.562 749.173 247.931 764.075 291.607 774.476C378.958 795.277 495.463 798.056 620.411 777.866Z" stroke="url(#paint6_linear_307_18238)" stroke-opacity="0.3" stroke-width="0.717125"/>
<path d="M623.684 777.31C748.261 754.943 857.258 713.704 932.776 665.125C970.536 640.835 999.91 614.72 1018.68 588.226C1037.45 561.734 1045.6 534.888 1040.97 509.11C1036.34 483.332 1019.36 460.998 992.549 442.689C965.735 424.38 929.111 410.115 885.26 400.478C797.559 381.205 681.023 380.459 556.447 402.827C431.87 425.194 322.873 466.433 247.355 515.012C209.595 539.302 180.221 565.417 161.451 591.911C142.682 618.403 134.532 645.249 139.16 671.027C143.788 696.805 160.769 719.139 187.582 737.448C214.396 755.757 251.02 770.022 294.871 779.659C382.572 798.932 499.107 799.678 623.684 777.31Z" stroke="url(#paint7_linear_307_18238)" stroke-opacity="0.3" stroke-width="0.717125"/>
<path d="M626.948 776.696C751.115 752.158 859.376 709.023 934.035 659.133C971.365 634.188 1000.28 607.565 1018.58 580.747C1036.89 553.931 1044.57 526.947 1039.49 501.253C1034.41 475.56 1017.04 453.526 989.916 435.688C962.787 417.85 925.919 404.226 881.907 395.356C793.883 377.616 677.352 378.905 553.185 403.443C429.018 427.981 320.757 471.116 246.098 521.005C208.768 545.951 179.854 572.574 161.55 599.391C143.246 626.207 135.565 653.192 140.643 678.885C145.72 704.579 163.088 726.613 190.216 744.45C217.346 762.289 254.213 775.913 298.226 784.783C386.25 802.523 502.78 801.234 626.948 776.696Z" stroke="url(#paint8_linear_307_18238)" stroke-opacity="0.3" stroke-width="0.717125"/>
<path d="M630.197 776.022C753.917 749.32 861.409 704.303 935.185 653.118C972.074 627.525 1000.52 600.401 1018.35 573.268C1036.19 546.137 1043.39 519.023 1037.87 493.422C1032.34 467.821 1014.59 446.093 987.159 428.732C959.722 411.369 922.622 398.391 878.461 390.29C790.142 374.089 673.651 377.412 549.931 404.113C426.211 430.815 318.719 475.833 244.942 527.017C208.053 552.61 179.609 579.734 161.775 606.867C143.942 633.998 136.733 661.113 142.258 686.714C147.783 712.314 165.533 734.042 192.969 751.404C220.406 768.766 257.505 781.744 301.666 789.845C389.986 806.046 506.476 802.723 630.197 776.022Z" stroke="url(#paint9_linear_307_18238)" stroke-opacity="0.3" stroke-width="0.717125"/>
<path d="M633.437 775.292C756.672 746.435 863.362 699.548 936.234 647.084C972.67 620.851 1000.64 593.234 1017.99 565.794C1035.35 538.356 1042.09 511.12 1036.11 485.62C1030.14 460.119 1012.02 438.704 984.283 421.824C956.547 404.944 919.227 392.615 874.932 385.286C786.342 370.629 669.928 375.984 546.692 404.84C423.457 433.697 316.767 480.584 243.895 533.048C207.459 559.281 179.492 586.898 162.134 614.338C144.777 641.776 138.043 669.012 144.014 694.512C149.985 720.013 168.111 741.428 195.846 758.308C223.582 775.188 260.902 787.517 305.197 794.846C393.786 809.503 510.201 804.148 633.437 775.292Z" stroke="url(#paint10_linear_307_18238)" stroke-opacity="0.3" stroke-width="0.717125"/>
<path d="M636.663 774.507C759.376 743.505 865.231 694.763 937.176 641.034C973.149 614.17 1000.63 586.069 1017.51 558.331C1034.38 530.594 1040.64 503.244 1034.22 477.852C1027.81 452.459 1009.31 431.364 981.287 414.971C953.261 398.577 915.731 386.901 871.314 380.347C782.483 367.238 666.179 374.624 543.466 405.627C420.753 436.63 314.898 485.371 242.953 539.1C206.98 565.964 179.499 594.065 162.623 621.803C145.747 649.54 139.489 676.89 145.905 702.282C152.32 727.675 170.817 748.77 198.842 765.163C226.868 781.557 264.398 793.233 308.815 799.787C397.646 812.896 513.95 805.51 636.663 774.507Z" stroke="url(#paint11_linear_307_18238)" stroke-opacity="0.3" stroke-width="0.717125"/>
<path d="M639.875 773.669C762.028 740.529 867.017 689.947 938.013 634.971C973.512 607.483 1000.5 578.907 1016.89 550.878C1033.28 522.851 1039.06 495.396 1032.2 470.12C1025.34 444.843 1006.48 424.074 978.172 408.172C949.864 392.27 912.136 381.251 867.612 375.472C778.566 363.916 662.408 373.331 540.255 406.47C418.102 439.61 313.114 490.192 242.117 545.168C206.618 572.656 179.632 601.232 163.242 629.261C146.854 657.288 141.074 684.743 147.932 710.019C154.789 735.296 173.652 756.065 201.958 771.967C230.266 787.869 267.994 798.888 312.518 804.666C401.565 816.223 517.722 806.808 639.875 773.669Z" stroke="url(#paint12_linear_307_18238)" stroke-opacity="0.3" stroke-width="0.717125"/>
<path d="M643.073 772.77C764.629 737.503 868.719 685.097 938.745 628.89C973.759 600.787 1000.24 571.744 1016.14 543.434C1032.04 515.125 1037.34 487.573 1030.04 462.42C1022.74 437.267 1003.52 416.83 974.94 401.425C946.359 386.019 908.444 375.66 863.826 370.66C774.591 360.659 658.616 372.099 537.06 407.366C415.504 442.633 311.414 495.039 241.388 551.246C206.374 579.349 179.89 608.392 163.993 636.702C148.096 665.012 142.796 692.563 150.093 717.716C157.391 742.869 176.613 763.306 205.193 778.711C233.774 794.117 271.689 804.476 316.307 809.476C405.542 819.477 521.517 808.037 643.073 772.77Z" stroke="url(#paint13_linear_307_18238)" stroke-opacity="0.3" stroke-width="0.717125"/>
<path d="M646.249 771.814C767.171 734.431 870.33 680.216 939.365 622.796C973.883 594.086 999.855 564.586 1015.26 536.002C1030.66 507.42 1035.48 479.78 1027.74 454.758C1020 429.736 1000.43 409.638 971.584 394.734C942.738 379.829 904.649 370.134 859.95 365.913C770.555 357.471 654.797 370.934 533.875 408.316C412.952 445.699 309.793 499.914 240.758 557.334C206.24 586.045 180.268 615.545 164.867 644.129C149.466 672.711 144.648 700.35 152.384 725.372C160.119 750.394 179.695 770.492 208.539 785.396C237.385 800.301 275.475 809.997 320.173 814.218C409.569 822.659 525.327 809.197 646.249 771.814Z" stroke="url(#paint14_linear_307_18238)" stroke-opacity="0.3" stroke-width="0.717125"/>
<path d="M649.415 770.809C769.667 731.321 871.864 675.314 939.886 616.698C973.898 587.389 999.351 557.44 1014.25 528.592C1029.15 499.746 1033.49 472.026 1025.31 447.143C1017.14 422.26 997.22 402.507 968.12 388.108C939.019 373.709 900.766 364.68 856 361.239C766.471 354.359 650.966 369.84 530.714 409.327C410.463 448.815 308.266 504.822 240.243 563.438C206.232 592.747 180.778 622.696 165.878 651.544C150.979 680.39 146.644 708.11 154.815 732.993C162.986 757.876 182.91 777.629 212.009 792.028C241.111 806.427 279.364 815.456 324.129 818.897C413.659 825.777 529.164 810.296 649.415 770.809Z" stroke="url(#paint15_linear_307_18238)" stroke-opacity="0.3" stroke-width="0.717125"/>
<path d="M652.561 769.744C772.105 728.164 873.31 670.382 940.298 610.587C973.793 580.69 998.72 550.301 1013.11 521.197C1027.51 492.095 1031.36 464.304 1022.75 439.567C1014.15 414.831 993.885 395.428 964.538 381.54C935.19 367.651 896.785 359.29 851.967 356.632C762.331 351.315 647.114 368.809 527.57 410.39C408.026 451.97 306.821 509.752 239.833 569.546C206.338 599.444 181.411 629.832 167.016 658.936C152.623 688.039 148.772 715.829 157.376 740.566C165.98 765.303 186.246 784.705 215.592 798.594C244.941 812.483 283.345 820.843 328.164 823.502C417.8 828.818 533.017 811.324 652.561 769.744Z" stroke="url(#paint16_linear_307_18238)" stroke-opacity="0.3" stroke-width="0.717125"/>
<path d="M655.688 768.624C774.488 724.964 874.668 665.424 940.603 604.47C973.571 573.992 997.964 543.173 1011.85 513.822C1025.73 484.473 1029.1 456.62 1020.06 432.037C1011.03 407.454 990.427 388.408 960.842 375.034C931.256 361.659 892.711 353.97 847.853 352.094C758.138 348.343 643.244 367.845 524.443 411.505C405.643 455.165 305.463 514.705 239.528 575.659C206.56 606.137 182.167 636.956 168.283 666.307C154.399 695.656 151.034 723.51 160.069 748.092C169.103 772.675 189.704 791.721 219.289 805.095C248.875 818.47 287.42 826.159 332.278 828.035C421.993 831.786 536.888 812.284 655.688 768.624Z" stroke="url(#paint17_linear_307_18238)" stroke-opacity="0.3" stroke-width="0.717125"/>
<path d="M658.793 767.455C776.813 721.728 875.939 660.449 940.801 598.353C973.232 567.305 997.083 536.065 1010.45 506.476C1023.82 476.889 1026.7 448.981 1017.24 424.56C1007.78 400.138 986.846 381.455 957.032 368.599C927.217 355.742 888.544 348.727 843.66 347.635C753.893 345.45 639.356 366.954 521.337 412.681C403.317 458.408 304.19 519.687 239.329 581.783C206.898 612.831 183.047 644.071 169.677 673.659C156.308 703.246 153.429 731.155 162.892 755.576C172.354 779.997 193.284 798.681 223.097 811.537C252.913 824.393 291.586 831.408 336.47 832.501C426.237 834.686 540.773 813.181 658.793 767.455Z" stroke="url(#paint18_linear_307_18238)" stroke-opacity="0.3" stroke-width="0.717125"/>
<path d="M661.881 766.227C779.085 718.448 877.127 655.448 940.894 592.23C972.779 560.62 996.081 528.969 1008.93 499.151C1021.78 469.336 1024.17 441.381 1014.29 417.129C1004.4 392.876 983.147 374.561 953.114 362.227C923.079 349.893 884.289 343.554 839.393 343.245C749.602 342.627 635.458 366.127 518.254 413.907C401.05 461.686 303.008 524.686 239.241 587.904C207.356 619.514 184.054 651.166 171.202 680.983C158.352 710.799 155.961 738.753 165.848 763.005C175.734 787.258 196.988 805.573 227.021 817.907C257.056 830.241 295.846 836.58 340.742 836.889C430.533 837.507 544.677 814.007 661.881 766.227Z" stroke="url(#paint19_linear_307_18238)" stroke-opacity="0.3" stroke-width="0.717125"/>
<path d="M664.94 764.946C781.293 715.128 878.22 650.427 940.874 586.105C972.202 553.944 994.949 521.89 1007.28 491.853C1019.61 461.818 1021.51 433.826 1011.2 409.75C1000.89 385.674 979.322 367.732 949.078 355.925C918.832 344.116 879.938 338.456 835.043 338.93C745.255 339.879 631.538 365.368 515.186 415.185C398.834 465.003 301.907 529.704 239.252 594.026C207.924 626.187 185.178 658.241 172.849 688.278C160.52 718.313 158.618 746.305 168.926 770.381C179.235 794.457 200.804 812.399 231.048 824.207C261.294 836.015 300.188 841.676 345.083 841.201C434.872 840.252 548.588 814.763 664.94 764.946Z" stroke="url(#paint20_linear_307_18238)" stroke-opacity="0.3" stroke-width="0.717125"/>
<path d="M667.982 763.612C783.447 711.772 879.23 645.389 940.753 579.983C971.514 547.28 993.698 514.835 1005.5 484.587C1017.3 454.341 1018.72 426.32 1007.99 402.428C997.263 378.535 975.383 360.972 944.938 349.695C914.491 338.416 875.503 333.435 830.623 334.693C740.865 337.209 627.611 364.678 512.146 416.519C396.681 468.36 300.898 534.743 239.375 600.148C208.614 632.851 186.43 665.296 174.627 695.544C162.825 725.79 161.411 753.811 172.138 777.704C182.865 801.596 204.745 819.159 235.19 830.437C265.637 841.715 304.625 846.696 349.505 845.438C439.263 842.923 552.517 815.453 667.982 763.612Z" stroke="url(#paint21_linear_307_18238)" stroke-opacity="0.3" stroke-width="0.717125"/>
<path d="M670.997 762.23C785.54 708.382 880.15 640.338 940.521 573.869C970.707 540.634 992.321 507.806 1003.59 477.357C1014.87 446.909 1015.79 418.868 1004.65 395.167C993.507 371.465 971.324 354.287 940.687 343.542C910.047 332.797 870.979 328.497 826.128 330.538C736.427 334.619 623.67 364.061 509.127 417.909C394.584 471.757 299.974 539.802 239.603 606.271C209.416 639.506 187.803 672.334 176.529 702.783C165.256 733.23 164.332 761.271 175.474 784.973C186.617 808.675 208.8 825.853 239.437 836.598C270.077 847.343 309.145 851.643 353.996 849.602C443.697 845.52 556.454 816.078 670.997 762.23Z" stroke="url(#paint22_linear_307_18238)" stroke-opacity="0.3" stroke-width="0.717125"/>
<path d="M673.994 760.787C787.58 704.948 880.988 635.263 940.19 567.75C969.792 533.993 990.83 500.794 1001.57 470.152C1012.31 439.513 1012.74 411.46 1001.19 387.956C989.636 364.452 967.157 347.664 936.336 337.456C905.514 327.247 866.376 323.629 821.568 326.453C731.952 332.099 619.726 363.505 506.14 419.344C392.554 475.183 299.146 544.868 239.944 612.38C210.342 646.137 189.305 679.337 178.564 709.978C167.825 740.618 167.39 768.671 178.944 792.174C190.499 815.678 212.978 832.466 243.798 842.675C274.621 852.884 313.758 856.501 358.567 853.678C448.182 848.031 560.409 816.626 673.994 760.787Z" stroke="url(#paint23_linear_307_18238)" stroke-opacity="0.3" stroke-width="0.717125"/>
<path d="M676.958 759.297C789.552 701.485 881.729 630.18 939.744 561.644C968.752 527.376 989.207 493.814 999.411 462.99C1009.61 432.168 1009.56 404.112 997.597 380.813C985.634 357.514 962.866 341.121 931.871 331.452C900.876 321.783 861.681 318.849 816.929 322.454C727.425 329.664 615.764 363.023 503.17 420.835C390.576 478.648 298.399 549.953 240.384 618.488C211.376 652.757 190.921 686.319 180.717 717.143C170.513 747.965 170.568 776.021 182.531 799.32C194.494 822.618 217.263 839.012 248.257 848.681C279.252 858.35 318.447 861.284 363.199 857.679C452.703 850.469 564.364 817.11 676.958 759.297Z" stroke="url(#paint24_linear_307_18238)" stroke-opacity="0.3" stroke-width="0.717125"/>
<path d="M679.9 757.757C791.468 697.988 882.387 625.085 939.197 555.547C967.603 520.778 987.469 486.864 997.134 455.867C1006.8 424.871 1006.25 396.82 993.885 373.734C981.517 350.648 958.466 334.654 927.308 325.528C896.148 316.401 856.909 314.151 812.226 318.537C722.862 327.307 611.8 362.61 500.232 422.379C388.665 482.148 297.745 555.051 240.935 624.588C212.53 659.358 192.663 693.272 182.999 724.269C173.335 755.265 173.88 783.316 186.247 806.402C198.615 829.488 221.666 845.482 252.824 854.608C283.984 863.735 323.224 865.985 367.907 861.599C457.271 852.828 568.333 817.526 679.9 757.757Z" stroke="url(#paint25_linear_307_18238)" stroke-opacity="0.3" stroke-width="0.717125"/>
<path d="M682.812 756.16C793.319 694.453 882.952 619.975 938.54 549.456C966.334 514.196 985.606 479.941 994.728 448.78C1003.85 417.62 1002.82 389.583 990.046 366.716C977.278 343.849 953.951 328.26 922.638 319.679C891.324 311.097 852.051 309.533 807.451 314.698C718.254 325.027 607.825 362.262 497.317 423.969C386.81 485.676 297.177 560.155 241.589 630.673C213.795 665.933 194.523 700.188 185.401 731.35C176.28 762.509 177.314 790.546 190.083 813.413C202.851 836.28 226.178 851.869 257.491 860.45C288.805 869.032 328.078 870.597 372.678 865.432C461.875 855.103 572.304 817.867 682.812 756.16Z" stroke="url(#paint26_linear_307_18238)" stroke-opacity="0.3" stroke-width="0.717125"/>
<path d="M685.696 754.518C795.11 690.892 883.43 614.861 937.778 543.383C964.953 507.644 983.624 473.057 992.2 441.741C1000.78 410.427 999.254 382.413 986.088 359.772C972.922 337.131 949.326 321.952 917.869 313.919C886.409 305.885 847.115 305.006 802.613 310.948C713.609 322.832 603.847 361.99 494.433 425.616C385.019 489.242 296.7 565.273 242.351 636.751C215.176 672.491 196.506 707.077 187.929 738.393C179.353 769.707 180.876 797.722 194.042 820.362C207.208 843.003 230.803 858.182 262.261 866.216C293.72 874.25 333.014 875.128 377.517 869.186C466.52 857.302 576.283 818.145 685.696 754.518Z" stroke="url(#paint27_linear_307_18238)" stroke-opacity="0.3" stroke-width="0.717125"/>
<path d="M688.553 752.823C796.84 687.297 883.819 609.736 936.912 537.321C963.459 501.112 981.523 466.205 989.552 434.745C997.58 403.286 995.568 375.302 982.009 352.894C968.45 330.487 944.593 315.722 913 308.239C881.406 300.755 842.102 300.562 797.71 307.28C708.927 320.716 599.865 361.783 491.578 427.309C383.292 492.835 296.313 570.396 243.22 642.811C216.673 679.02 198.609 713.927 190.58 745.387C182.551 776.846 184.563 804.83 198.122 827.238C211.681 849.645 235.538 864.41 267.131 871.894C298.726 879.377 338.029 879.57 382.421 872.852C471.204 859.416 580.266 818.35 688.553 752.823Z" stroke="url(#paint28_linear_307_18238)" stroke-opacity="0.3" stroke-width="0.717125"/>
<path d="M691.378 751.082C798.505 683.676 884.117 604.609 935.938 531.278C961.849 494.612 979.301 459.395 986.78 427.799C994.258 396.204 991.758 368.26 977.81 346.092C963.862 323.925 939.751 309.578 908.032 302.648C876.312 295.716 837.011 296.21 792.743 303.701C704.208 318.685 595.879 361.649 488.753 429.055C381.626 496.461 296.014 575.528 244.193 648.859C218.282 685.525 200.83 720.742 193.351 752.338C185.873 783.932 188.373 811.877 202.321 834.044C216.269 856.211 240.38 870.558 272.098 877.489C303.819 884.42 343.12 883.927 387.388 876.435C475.923 861.452 584.252 818.488 691.378 751.082Z" stroke="url(#paint29_linear_307_18238)" stroke-opacity="0.3" stroke-width="0.717125"/>
<path d="M694.172 749.289C800.106 680.024 884.325 599.475 934.858 525.25C960.125 488.138 976.96 452.621 983.886 420.9C990.812 389.18 987.825 361.283 973.492 339.362C959.159 317.442 934.802 303.518 902.967 297.142C871.13 290.766 831.844 291.944 787.713 300.208C699.454 316.734 591.891 361.582 485.957 430.847C380.023 500.113 295.804 580.662 245.271 654.886C220.004 691.999 203.169 727.515 196.243 759.237C189.317 790.957 192.304 818.854 206.637 840.774C220.97 862.695 245.327 876.618 277.162 882.994C308.999 889.371 348.285 888.192 392.416 879.929C480.675 863.403 588.238 818.555 694.172 749.289Z" stroke="url(#paint30_linear_307_18238)" stroke-opacity="0.3" stroke-width="0.717125"/>
<path d="M696.935 747.449C801.644 676.345 884.445 594.338 933.675 519.244C958.291 481.696 974.503 445.891 980.875 414.053C987.246 382.217 983.772 354.377 969.059 332.71C954.346 311.043 929.749 297.546 897.808 291.727C865.865 285.907 826.605 287.771 782.625 296.803C694.667 314.867 587.904 361.586 483.195 432.689C378.486 503.793 295.685 585.8 246.455 660.894C221.84 698.442 205.627 734.247 199.256 766.085C192.885 797.921 196.358 825.761 211.071 847.428C225.785 869.095 250.381 882.592 282.323 888.411C314.266 894.231 353.526 892.367 397.505 883.335C485.463 865.271 592.227 818.552 696.935 747.449Z" stroke="url(#paint31_linear_307_18238)" stroke-opacity="0.3" stroke-width="0.717125"/>
<path d="M699.669 745.559C803.121 672.639 884.478 589.2 932.39 513.257C956.346 475.285 971.932 439.203 977.746 407.259C983.561 375.317 979.602 347.541 964.513 326.134C949.424 304.727 924.595 291.662 892.557 286.401C860.517 281.139 821.296 283.689 777.481 293.487C689.852 313.083 583.92 361.658 480.468 434.578C377.016 507.498 295.659 590.937 247.747 666.88C223.79 704.852 208.205 740.934 202.39 772.878C196.576 804.821 200.535 832.596 215.624 854.003C230.713 875.41 255.541 888.475 287.579 893.736C319.619 898.998 358.841 896.449 402.656 886.65C490.285 867.054 596.217 818.479 699.669 745.559Z" stroke="url(#paint32_linear_307_18238)" stroke-opacity="0.3" stroke-width="0.717125"/>
<path d="M702.362 743.624C804.525 668.91 884.414 584.063 930.993 507.296C954.283 468.912 969.236 432.563 974.493 400.522C979.749 368.483 975.306 340.781 959.845 319.641C944.385 298.501 919.332 285.871 887.207 281.169C855.08 276.468 815.91 279.701 772.272 290.263C684.998 311.385 579.93 361.801 477.767 436.516C375.603 511.23 295.715 596.077 249.135 672.844C225.845 711.228 210.892 747.577 205.636 779.618C200.38 811.657 204.823 839.359 220.283 860.499C235.743 881.639 260.796 894.269 292.921 898.971C325.048 903.672 364.219 900.439 407.856 889.877C495.13 868.755 600.198 818.339 702.362 743.624Z" stroke="url(#paint33_linear_307_18238)" stroke-opacity="0.3" stroke-width="0.717125"/>
<path d="M705.024 741.639C805.868 665.153 884.264 578.925 929.496 501.357C952.113 462.572 966.429 425.968 971.126 393.84C975.822 361.714 970.896 334.094 955.069 313.226C939.242 292.359 913.973 280.169 881.77 276.029C849.567 271.888 810.458 275.805 767.011 287.126C680.12 309.769 575.947 362.011 475.103 438.497C374.259 514.983 295.864 601.211 250.631 678.779C228.015 717.564 213.698 754.168 209.002 786.296C204.306 818.422 209.231 846.042 225.058 866.91C240.885 887.777 266.155 899.967 298.357 904.107C330.561 908.248 369.669 904.331 413.116 893.01C500.008 870.367 604.18 818.125 705.024 741.639Z" stroke="url(#paint34_linear_307_18238)" stroke-opacity="0.3" stroke-width="0.717125"/>
<path d="M707.653 739.611C807.147 661.376 884.026 573.793 927.898 495.447C949.834 456.273 963.51 419.425 967.644 387.22C971.779 355.018 966.372 327.487 950.183 306.899C933.995 286.312 908.516 274.564 876.247 270.986C843.976 267.409 804.941 272.007 761.699 284.085C675.216 308.241 571.971 362.293 472.477 440.527C372.983 518.762 296.105 606.345 252.233 684.691C230.296 723.865 216.621 760.713 212.486 792.917C208.351 825.12 213.758 852.651 229.947 873.239C246.136 893.826 271.614 905.574 303.884 909.152C336.155 912.729 375.189 908.131 418.432 896.053C504.915 871.897 608.16 817.845 707.653 739.611Z" stroke="url(#paint35_linear_307_18238)" stroke-opacity="0.3" stroke-width="0.717125"/>
<path d="M710.244 737.534C808.357 657.575 883.695 568.664 926.193 489.564C947.443 450.014 960.473 412.932 964.045 380.66C967.617 348.39 961.73 320.959 945.185 300.656C928.639 280.354 902.96 269.053 870.633 266.039C838.304 263.025 799.356 268.304 756.331 281.135C670.282 306.796 567.997 362.642 469.883 442.601C371.77 522.56 296.432 611.471 253.934 690.571C232.685 730.122 219.654 767.203 216.082 799.475C212.51 831.745 218.397 859.177 234.942 879.479C251.488 899.781 277.167 911.083 309.494 914.096C341.823 917.11 380.771 911.831 423.796 899C509.845 873.339 612.13 817.493 710.244 737.534Z" stroke="url(#paint36_linear_307_18238)" stroke-opacity="0.3" stroke-width="0.717125"/>
<path d="M712.797 735.413C809.5 653.754 883.275 563.541 924.386 483.712C944.942 443.797 957.323 406.493 960.332 374.164C963.34 341.837 956.975 314.512 940.078 294.501C923.181 274.491 897.308 263.64 864.933 261.191C832.557 258.742 793.707 264.699 750.912 278.279C665.325 305.438 564.029 363.061 467.326 444.72C370.623 526.379 296.848 616.591 255.737 696.421C235.181 736.336 222.8 773.639 219.792 805.969C216.784 838.296 223.148 865.621 240.045 885.632C256.943 905.642 282.816 916.493 315.19 918.942C347.567 921.391 386.417 915.433 429.211 901.854C514.799 874.695 616.094 817.072 712.797 735.413Z" stroke="url(#paint37_linear_307_18238)" stroke-opacity="0.3" stroke-width="0.717125"/>
<path d="M715.317 733.251C810.58 649.916 882.77 558.43 922.481 477.895C942.337 437.627 954.066 400.114 956.509 367.737C958.953 335.362 952.113 308.152 934.868 288.44C917.624 268.727 891.566 258.329 859.154 256.445C826.739 254.562 787.999 261.197 745.448 275.521C660.348 304.17 560.074 363.551 464.811 446.886C369.548 530.22 297.358 621.706 257.647 702.241C237.79 742.509 226.062 780.023 223.619 812.4C221.175 844.775 228.015 871.984 245.259 891.697C262.503 911.409 288.562 921.807 320.974 923.691C353.388 925.575 392.128 918.94 434.679 904.615C519.78 875.967 620.054 816.585 715.317 733.251Z" stroke="url(#paint38_linear_307_18238)" stroke-opacity="0.3" stroke-width="0.717125"/>
<path d="M717.799 731.042C811.593 646.058 882.175 553.325 920.475 472.11C939.625 431.501 950.697 393.789 952.575 361.374C954.453 328.961 947.139 301.875 929.553 282.467C911.968 263.058 885.732 253.116 853.292 251.799C820.85 250.481 782.231 257.791 739.937 272.856C655.349 302.986 556.126 364.108 462.332 449.092C368.538 534.077 297.956 626.809 259.656 708.025C240.506 748.633 229.434 786.346 227.556 818.76C225.678 851.173 232.992 878.259 250.578 897.668C268.163 917.076 294.399 927.018 326.839 928.336C359.282 929.653 397.9 922.343 440.194 907.278C524.782 877.149 624.005 816.026 717.799 731.042Z" stroke="url(#paint39_linear_307_18238)" stroke-opacity="0.3" stroke-width="0.717125"/>
<path d="M720.241 728.786C812.538 642.178 881.491 548.228 918.367 466.356C936.806 425.42 947.218 387.52 948.53 355.077C949.842 322.637 942.056 295.682 924.135 276.584C906.213 257.485 879.808 248.003 847.35 247.252C814.889 246.5 776.405 254.483 734.379 270.284C650.33 301.885 552.19 364.73 459.893 451.338C367.596 537.947 298.644 631.897 261.767 713.768C243.328 754.705 232.917 792.605 231.604 825.047C230.292 857.488 238.078 884.442 255.999 903.541C273.921 922.639 300.326 932.122 332.785 932.873C365.245 933.625 403.73 925.641 445.755 909.841C529.804 878.239 627.945 815.395 720.241 728.786Z" stroke="url(#paint40_linear_307_18238)" stroke-opacity="0.3" stroke-width="0.717125"/>
<path d="M722.643 726.499C813.414 638.293 880.717 543.154 916.159 460.651C933.881 419.399 943.629 381.323 944.375 348.863C945.121 316.404 936.866 289.59 918.614 270.807C900.362 252.024 873.795 243.004 841.328 242.819C808.86 242.634 770.52 251.288 728.777 267.82C645.293 300.883 548.264 365.431 457.493 453.637C366.721 541.843 299.419 636.982 263.977 719.485C246.255 760.737 236.507 798.813 235.761 831.273C235.015 863.732 243.27 890.546 261.522 909.329C279.774 928.112 306.341 937.132 338.807 937.317C371.276 937.501 409.616 928.848 451.359 912.316C534.843 879.253 631.872 814.705 722.643 726.499Z" stroke="url(#paint41_linear_307_18238)" stroke-opacity="0.3" stroke-width="0.717125"/>
<path d="M724.999 724.167C814.217 634.39 879.849 538.091 913.846 454.982C930.844 413.427 939.927 375.187 940.106 342.718C940.286 310.252 931.564 283.585 912.987 265.124C894.41 246.662 867.69 238.107 835.225 238.489C802.758 238.871 764.575 248.193 723.127 265.45C640.232 299.966 544.344 366.197 455.126 455.974C365.909 545.75 300.277 642.05 266.28 725.159C249.281 766.714 240.198 804.954 240.019 837.422C239.84 869.889 248.562 896.555 267.139 915.017C285.716 933.478 312.436 942.033 344.901 941.651C377.368 941.269 415.55 931.948 456.999 914.69C539.893 880.175 635.781 813.943 724.999 724.167Z" stroke="url(#paint42_linear_307_18238)" stroke-opacity="0.3" stroke-width="0.717125"/>
<path d="M727.32 721.794C814.958 630.474 878.899 533.044 911.44 449.354C927.711 407.509 936.125 369.116 935.738 336.649C935.351 304.184 926.165 277.674 907.268 259.54C888.372 241.405 861.506 233.318 829.053 234.266C796.598 235.215 758.584 245.201 717.443 263.18C635.163 299.136 540.446 367.031 452.808 458.351C365.171 549.671 301.23 647.101 268.689 730.791C252.418 772.636 244.004 811.029 244.391 843.496C244.778 875.961 253.964 902.471 272.861 920.605C291.757 938.74 318.622 946.827 351.076 945.879C383.531 944.93 421.545 934.944 462.686 916.965C544.966 881.009 639.683 813.114 727.32 721.794Z" stroke="url(#paint43_linear_307_18238)" stroke-opacity="0.3" stroke-width="0.717125"/>
<path d="M729.598 719.374C815.629 626.539 877.86 528.008 908.936 443.763C924.474 401.64 932.216 363.106 931.262 330.651C930.309 298.198 920.661 271.852 901.451 254.05C882.241 236.248 855.239 228.631 822.807 230.146C790.373 231.661 752.539 242.309 711.718 261.003C630.079 298.39 536.561 367.928 450.53 460.763C364.5 553.599 302.269 652.13 271.193 736.374C255.655 778.498 247.912 817.032 248.866 849.486C249.82 881.94 259.467 908.285 278.677 926.087C297.888 943.889 324.89 951.507 357.322 949.992C389.755 948.477 427.59 937.829 468.41 919.135C550.05 881.748 643.568 812.21 729.598 719.374Z" stroke="url(#paint44_linear_307_18238)" stroke-opacity="0.3" stroke-width="0.717125"/>
<path d="M731.833 716.92C816.23 622.597 876.732 522.995 906.332 438.221C921.133 395.833 928.202 357.17 926.682 324.737C925.162 292.305 915.056 266.132 895.538 248.668C876.021 231.204 848.889 224.059 816.489 226.139C784.087 228.22 746.444 239.527 705.956 258.93C624.981 297.737 532.691 368.896 448.294 463.219C363.897 557.542 303.395 657.144 273.794 741.918C258.994 784.306 251.925 822.969 253.445 855.402C254.965 887.834 265.07 914.007 284.588 931.471C304.106 948.935 331.237 956.08 363.638 953.999C396.04 951.919 433.683 940.612 474.171 921.208C555.146 882.402 647.436 811.243 731.833 716.92Z" stroke="url(#paint45_linear_307_18238)" stroke-opacity="0.3" stroke-width="0.717125"/>
<path d="M734.023 714.426C816.761 618.645 875.515 518.002 903.632 432.724C917.69 390.084 924.083 351.304 921.997 318.902C919.912 286.501 909.351 260.509 889.531 243.388C869.712 226.267 842.46 219.597 810.101 222.243C777.739 224.889 740.3 236.851 700.157 256.958C619.871 297.171 528.837 369.93 446.099 465.712C363.361 561.493 304.607 662.136 276.49 747.414C262.431 790.054 256.038 828.834 258.124 861.236C260.21 893.636 270.771 919.629 290.59 936.75C310.41 953.871 337.662 960.541 370.021 957.895C402.382 955.249 439.822 943.287 479.965 923.18C560.25 882.967 651.284 810.208 734.023 714.426Z" stroke="url(#paint46_linear_307_18238)" stroke-opacity="0.3" stroke-width="0.717125"/>
<path d="M736.176 711.896C817.23 614.685 874.219 513.032 900.843 427.276C914.155 384.398 919.87 345.511 917.219 313.151C914.568 280.792 903.556 254.987 883.44 238.215C863.325 221.443 835.961 215.249 803.652 218.459C771.343 221.67 734.117 234.283 694.331 255.088C614.76 296.696 525.009 371.033 443.956 468.244C362.902 565.455 305.913 667.108 279.289 752.864C265.976 795.742 260.261 834.628 262.912 866.989C265.563 899.348 276.576 925.152 296.691 941.925C316.807 958.697 344.171 964.891 376.479 961.68C408.789 958.47 446.014 945.857 485.8 925.052C565.372 883.443 655.122 809.106 736.176 711.896Z" stroke="url(#paint47_linear_307_18238)" stroke-opacity="0.3" stroke-width="0.717125"/>
<path d="M738.277 709.324C817.622 610.713 872.828 508.081 897.952 421.874C910.514 378.77 915.55 339.79 912.334 307.48C909.119 275.173 897.657 249.564 877.252 233.146C856.847 216.727 829.379 211.012 797.132 214.785C764.883 218.559 727.884 231.82 688.467 253.316C609.634 296.307 521.194 372.199 441.849 470.81C362.504 569.42 307.298 672.052 282.175 758.259C269.613 801.364 264.577 840.344 267.792 872.653C271.008 904.961 282.469 930.569 302.874 946.988C323.279 963.406 350.747 969.122 382.995 965.348C415.244 961.575 452.243 948.313 491.66 926.817C570.493 883.826 658.932 807.935 738.277 709.324Z" stroke="url(#paint48_linear_307_18238)" stroke-opacity="0.3" stroke-width="0.717125"/>
<path d="M740.34 706.722C817.951 606.742 871.358 503.161 894.973 416.529C906.781 373.212 911.136 334.15 907.357 301.902C903.578 269.655 891.671 244.251 870.983 228.191C850.294 212.131 822.731 206.896 790.554 211.231C758.376 215.567 721.614 229.472 682.578 251.653C604.507 296.013 517.406 373.437 439.794 473.417C362.182 573.397 308.776 676.978 285.161 763.61C273.353 806.927 268.998 845.989 272.777 878.237C276.556 910.484 288.462 935.888 309.151 951.948C329.839 968.008 357.403 973.243 389.579 968.908C421.757 964.572 458.52 950.667 497.556 928.486C575.626 884.126 662.728 806.702 740.34 706.722Z" stroke="url(#paint49_linear_307_18238)" stroke-opacity="0.3" stroke-width="0.717125"/>
<path d="M742.35 704.081C818.205 602.761 869.796 498.265 891.895 411.234C902.945 367.717 906.617 328.585 902.276 296.408C897.935 264.232 885.587 239.039 864.622 223.343C843.656 207.646 816.005 202.893 783.909 207.79C751.812 212.686 715.298 227.231 676.655 250.089C599.37 295.805 513.633 374.737 437.778 476.057C361.923 577.377 310.332 681.873 288.233 768.904C277.183 812.421 273.51 851.553 277.852 883.73C282.193 915.906 294.541 941.099 315.506 956.795C336.472 972.492 364.123 977.245 396.219 972.348C428.316 967.452 464.83 952.907 503.473 930.049C580.758 884.333 666.495 805.401 742.35 704.081Z" stroke="url(#paint50_linear_307_18238)" stroke-opacity="0.3" stroke-width="0.717125"/>
<path d="M744.314 701.404C818.389 598.776 868.148 493.395 888.726 405.991C899.015 362.289 902.003 323.098 897.101 291.002C892.2 258.907 879.414 233.933 858.177 218.605C836.941 203.277 809.211 199.007 777.206 204.463C745.199 209.919 708.944 225.099 670.706 248.628C594.231 295.686 509.885 376.102 435.809 478.73C361.734 581.358 311.975 686.739 291.398 774.143C281.109 817.846 278.12 857.036 283.022 889.133C287.924 921.228 300.71 946.201 321.946 961.529C343.183 976.857 370.912 981.127 402.918 975.671C434.925 970.215 471.179 955.036 509.418 931.506C585.892 884.448 670.239 804.032 744.314 701.404Z" stroke="url(#paint51_linear_307_18238)" stroke-opacity="0.3" stroke-width="0.717125"/>
<path d="M746.237 698.694C818.51 594.789 866.423 488.556 885.471 400.806C894.996 356.931 897.3 317.694 891.839 285.688C886.378 253.683 873.158 228.937 851.657 213.982C830.157 199.027 802.357 195.241 770.451 201.255C738.544 207.269 702.56 223.079 664.738 247.272C589.096 295.657 506.166 377.534 433.894 481.439C361.621 585.344 313.708 691.577 294.659 779.327C285.135 823.202 282.83 862.439 288.292 894.445C293.753 926.45 306.973 951.196 328.474 966.151C349.974 981.107 377.774 984.892 409.68 978.878C441.587 972.864 477.571 957.054 515.392 932.861C591.034 884.476 673.964 802.6 746.237 698.694Z" stroke="url(#paint52_linear_307_18238)" stroke-opacity="0.3" stroke-width="0.717125"/>
<path d="M748.105 695.951C818.553 590.8 864.605 483.747 882.119 395.679C890.876 351.643 892.496 312.373 886.476 280.466C880.458 248.562 866.808 224.05 845.049 209.472C823.291 194.895 795.429 191.595 763.634 198.165C731.836 204.735 696.134 221.17 658.74 246.02C583.954 295.718 502.466 379.029 432.017 484.18C361.569 589.33 315.517 696.384 298.003 784.452C289.246 828.488 287.626 867.758 293.646 899.664C299.664 931.569 313.314 956.081 335.073 970.658C356.831 985.236 384.693 988.536 416.488 981.966C448.286 975.396 483.988 958.96 521.382 934.111C596.168 884.413 677.656 801.102 748.105 695.951Z" stroke="url(#paint53_linear_307_18238)" stroke-opacity="0.3" stroke-width="0.717125"/>
<path d="M749.929 693.181C818.532 586.817 862.708 478.976 878.682 390.616C886.67 346.434 887.604 307.141 881.028 275.345C874.453 243.55 860.378 219.28 838.369 205.085C816.359 190.889 788.444 188.076 756.768 195.2C725.09 202.324 689.68 219.38 652.725 244.878C578.818 295.874 498.796 380.594 430.194 486.959C361.591 593.323 317.415 701.163 301.44 789.524C293.453 833.706 292.519 872.999 299.094 904.795C305.669 936.589 319.745 960.859 341.754 975.055C363.764 989.251 391.678 992.064 423.355 984.94C455.032 977.816 490.443 960.76 527.397 935.262C601.304 884.266 681.326 799.545 749.929 693.181Z" stroke="url(#paint54_linear_307_18238)" stroke-opacity="0.3" stroke-width="0.717125"/>
<path d="M751.709 690.372C818.445 582.827 860.732 474.232 875.162 385.605C882.377 341.291 882.625 301.988 875.496 270.312C868.367 238.637 853.871 214.616 831.617 200.807C809.363 186.997 781.403 184.672 749.856 192.347C718.307 200.023 683.2 217.694 646.696 243.834C573.69 296.112 495.159 382.216 428.423 489.761C361.687 597.306 319.4 705.901 304.97 794.528C297.755 838.842 297.507 878.145 304.636 909.822C311.765 941.497 326.262 965.517 348.516 979.327C370.77 993.136 398.729 995.461 430.276 987.786C461.825 980.11 496.932 962.439 533.436 936.299C606.442 884.022 684.973 797.917 751.709 690.372Z" stroke="url(#paint55_linear_307_18238)" stroke-opacity="0.3" stroke-width="0.717125"/>
<path d="M753.434 687.534C818.283 578.841 858.668 469.524 871.549 380.66C877.99 336.227 877.552 296.925 869.871 265.377C862.191 233.832 847.277 210.068 824.785 196.649C802.294 183.23 774.298 181.393 742.89 189.618C711.48 197.843 676.686 216.124 640.644 242.897C568.562 296.441 491.545 383.902 426.696 492.596C361.847 601.29 321.462 710.606 308.581 799.471C302.14 843.904 302.578 883.206 310.259 914.753C317.94 946.299 332.853 970.063 355.345 983.482C377.836 996.901 405.832 998.738 437.241 990.513C468.651 982.288 503.444 964.006 539.486 937.234C611.569 883.69 688.585 796.228 753.434 687.534Z" stroke="url(#paint56_linear_307_18238)" stroke-opacity="0.3" stroke-width="0.717125"/>
<path d="M755.113 684.671C818.055 574.863 856.526 464.858 867.855 375.782C873.519 331.243 872.395 291.955 864.165 260.547C855.935 229.14 840.608 205.64 817.886 192.615C795.164 179.591 767.14 178.243 735.88 187.014C704.619 195.786 670.149 214.673 634.58 242.07C563.443 296.864 487.965 385.656 425.023 495.465C362.081 605.274 323.609 715.279 312.281 804.354C306.617 848.893 307.741 888.181 315.971 919.59C324.201 950.997 339.527 974.497 362.249 987.521C384.972 1000.55 412.995 1001.89 444.255 993.122C475.517 984.35 509.986 965.464 545.555 938.066C616.693 883.273 692.171 794.48 755.113 684.671Z" stroke="url(#paint57_linear_307_18238)" stroke-opacity="0.3" stroke-width="0.717125"/>
<path d="M756.739 681.774C817.755 570.884 854.3 460.224 864.072 370.964C868.958 326.333 867.149 287.071 858.372 255.811C849.595 224.552 833.861 201.323 810.915 188.698C787.969 176.072 759.926 175.213 728.824 184.529C697.72 193.845 663.585 213.33 628.5 241.344C558.33 297.371 484.413 387.467 423.397 498.358C362.381 609.248 325.835 719.907 316.063 809.168C311.177 853.798 312.986 893.061 321.764 924.321C330.54 955.579 346.274 978.808 369.221 991.434C392.167 1004.06 420.21 1004.92 451.312 995.603C482.416 986.287 516.55 966.802 551.636 938.788C621.805 882.761 695.723 792.665 756.739 681.774Z" stroke="url(#paint58_linear_307_18238)" stroke-opacity="0.3" stroke-width="0.717125"/>
<path d="M758.309 678.85C817.38 566.911 851.989 455.631 860.202 366.214C864.308 321.504 861.814 282.28 852.492 251.177C843.172 220.077 827.034 197.126 803.871 184.903C780.708 172.679 752.655 172.31 721.72 182.167C690.783 192.025 656.994 212.102 622.403 240.724C553.221 297.968 480.888 389.34 421.817 501.279C362.745 613.217 328.136 724.497 319.924 813.914C315.817 858.624 318.312 897.849 327.633 928.951C336.954 960.051 353.091 983.002 376.254 995.226C399.417 1007.45 427.471 1007.82 458.406 997.961C489.342 988.103 523.131 968.026 557.723 939.404C626.904 882.161 699.238 790.788 758.309 678.85Z" stroke="url(#paint59_linear_307_18238)" stroke-opacity="0.3" stroke-width="0.717125"/>
<path d="M759.836 675.901C816.945 562.948 849.607 451.081 856.258 361.534C859.583 316.76 856.404 277.585 846.542 246.65C836.679 215.717 820.144 193.051 796.771 181.234C773.399 169.416 745.343 169.537 714.585 179.932C683.825 190.328 650.391 210.993 616.305 240.214C548.133 298.656 477.405 391.277 420.296 504.229C363.187 617.182 330.526 729.049 323.875 818.596C320.55 863.37 323.728 902.545 333.591 933.48C343.453 964.413 359.988 987.079 383.361 998.896C406.734 1010.71 434.79 1010.59 465.548 1000.2C496.308 989.801 529.741 969.137 563.828 939.916C632 881.474 702.728 788.853 759.836 675.901Z" stroke="url(#paint60_linear_307_18238)" stroke-opacity="0.3" stroke-width="0.717125"/>
<path d="M761.307 672.926C816.435 558.995 847.139 446.574 852.227 356.925C854.77 312.1 850.908 272.986 840.507 242.228C830.107 211.471 813.178 189.098 789.603 177.69C766.027 166.283 737.978 166.893 707.406 177.823C676.832 188.755 643.765 209.999 610.193 239.811C543.052 299.434 473.951 393.275 418.822 507.207C363.693 621.139 332.989 733.559 327.902 823.208C325.358 868.034 329.22 907.148 339.622 937.906C350.022 968.662 366.95 991.036 390.526 1002.44C414.101 1013.85 442.151 1013.24 472.723 1002.31C503.296 991.379 536.364 970.134 569.936 940.322C637.077 880.7 706.178 786.858 761.307 672.926Z" stroke="url(#paint61_linear_307_18238)" stroke-opacity="0.3" stroke-width="0.717125"/>
<path d="M762.727 669.922C815.859 555.045 844.596 442.106 848.118 352.382C849.879 307.519 845.335 268.478 834.399 237.907C823.463 207.336 806.147 185.262 782.376 174.267C758.605 163.273 730.57 164.372 700.194 175.835C669.815 187.298 637.123 209.117 604.077 239.51C537.987 300.295 470.534 395.328 417.402 510.205C364.27 625.081 335.533 738.021 332.011 827.745C330.25 872.608 334.794 911.648 345.731 942.22C356.666 972.79 373.982 994.865 397.753 1005.86C421.524 1016.85 449.559 1015.75 479.936 1004.29C510.314 992.828 543.006 971.01 576.052 940.617C642.142 879.831 709.595 784.798 762.727 669.922Z" stroke="url(#paint62_linear_307_18238)" stroke-opacity="0.3" stroke-width="0.717125"/>
<path d="M764.096 666.902C815.215 551.115 841.977 437.692 843.933 347.92C844.91 303.033 839.686 264.077 828.218 233.701C816.75 203.327 799.051 181.557 775.092 170.979C751.133 160.402 723.121 161.99 692.95 173.981C662.776 185.973 630.47 208.359 597.959 239.324C532.94 301.253 467.156 397.449 416.037 513.236C364.918 629.022 338.156 742.445 336.201 832.217C335.223 877.104 340.448 916.06 351.916 946.436C363.384 976.81 381.082 998.58 405.042 1009.16C429.001 1019.74 457.012 1018.15 487.184 1006.16C517.357 994.164 549.663 971.778 582.174 940.813C647.194 878.884 712.978 782.688 764.096 666.902Z" stroke="url(#paint63_linear_307_18238)" stroke-opacity="0.3" stroke-width="0.717125"/>
<path d="M765.407 663.849C814.498 547.188 839.276 433.315 839.664 343.522C839.858 298.625 833.955 259.767 821.958 229.595C809.962 199.426 791.886 177.969 767.746 167.81C743.606 157.652 715.626 159.73 685.669 172.245C655.709 184.762 623.798 207.708 591.833 239.236C527.904 302.291 463.809 399.62 414.719 516.281C365.628 632.942 340.85 746.815 340.462 836.607C340.268 881.505 346.171 920.363 358.168 950.534C370.164 980.704 388.24 1002.16 412.38 1012.32C436.52 1022.48 464.5 1020.4 494.457 1007.88C524.417 995.368 556.328 972.422 588.293 940.894C652.222 877.839 716.317 780.51 765.407 663.849Z" stroke="url(#paint64_linear_307_18238)" stroke-opacity="0.3" stroke-width="0.717125"/>
<path d="M766.672 660.778C813.719 543.278 836.506 428.99 835.327 339.204C834.738 294.311 828.157 255.561 815.636 225.604C803.115 195.648 784.667 174.51 760.353 164.774C736.039 155.039 708.101 157.604 678.366 170.641C648.629 183.679 617.124 207.178 585.714 239.259C522.895 303.42 460.509 401.853 413.462 519.353C366.415 636.853 343.627 751.141 344.806 840.927C345.396 885.821 351.977 924.57 364.498 954.527C377.019 984.483 395.466 1005.62 419.78 1015.36C444.094 1025.09 472.033 1022.53 501.768 1009.49C531.504 996.453 563.01 972.953 594.42 940.872C657.239 876.711 719.625 778.278 766.672 660.778Z" stroke="url(#paint65_linear_307_18238)" stroke-opacity="0.3" stroke-width="0.717125"/>
<path d="M767.875 657.689C812.864 539.386 833.653 424.717 830.907 334.966C829.535 290.089 822.278 251.461 809.236 221.726C796.194 191.994 777.381 171.18 752.901 161.871C728.421 152.562 700.531 155.614 671.028 169.168C641.524 182.722 610.433 206.768 579.588 239.392C517.898 304.64 457.239 404.146 412.25 522.45C367.261 640.753 346.472 755.421 349.217 845.173C350.59 890.049 357.846 928.678 370.889 958.412C383.93 988.145 402.744 1008.96 427.224 1018.27C451.704 1027.58 479.594 1024.52 509.097 1010.97C538.601 997.416 569.692 973.371 600.537 940.746C662.227 875.499 722.886 775.992 767.875 657.689Z" stroke="url(#paint66_linear_307_18238)" stroke-opacity="0.3" stroke-width="0.717125"/>
<path d="M769.033 654.572C811.95 535.501 830.735 420.487 826.423 330.798C824.268 285.952 816.338 247.456 802.779 217.954C789.221 188.453 770.046 167.971 745.408 159.091C720.769 150.21 692.937 153.749 663.675 167.815C634.411 181.882 603.745 206.467 573.474 239.625C512.933 305.939 454.02 406.489 411.102 525.559C368.184 644.63 349.4 759.644 353.711 849.333C355.867 894.179 363.796 932.675 377.355 962.177C390.914 991.678 410.088 1012.16 434.727 1021.04C459.366 1029.92 487.198 1026.38 516.46 1012.32C545.723 998.249 576.389 973.664 606.66 940.506C667.202 874.192 726.115 773.642 769.033 654.572Z" stroke="url(#paint67_linear_307_18238)" stroke-opacity="0.3" stroke-width="0.717125"/>
<path d="M770.128 651.441C810.961 531.64 827.736 416.315 821.859 326.714C818.921 281.913 810.321 243.561 796.249 214.3C782.178 185.041 762.649 164.897 737.859 156.447C713.069 147.998 685.303 152.022 656.291 166.597C627.278 181.173 597.045 206.289 567.357 239.97C507.982 307.331 450.833 408.894 410 528.695C369.167 648.496 352.393 763.82 358.269 853.421C361.207 898.223 369.807 936.574 383.879 965.835C397.95 995.095 417.479 1015.24 442.269 1023.69C467.059 1032.14 494.825 1028.11 523.837 1013.54C552.85 998.963 583.083 973.847 612.771 940.166C672.146 872.805 729.295 771.242 770.128 651.441Z" stroke="url(#paint68_linear_307_18238)" stroke-opacity="0.3" stroke-width="0.717125"/>
<path d="M771.172 648.288C809.908 527.792 824.667 412.193 817.228 322.708C813.509 277.965 804.241 239.769 789.66 210.758C775.08 181.748 755.203 161.948 730.269 153.933C705.336 145.917 677.644 150.425 648.891 165.504C620.136 180.584 590.347 206.224 561.251 240.418C503.061 308.805 447.693 411.35 408.957 531.846C370.221 652.341 355.461 767.941 362.9 857.425C366.62 902.169 375.888 940.364 390.469 969.375C405.048 998.385 424.926 1018.18 449.859 1026.2C474.793 1034.22 502.485 1029.71 531.238 1014.63C559.993 999.549 589.782 973.909 618.878 939.715C677.068 871.328 732.436 768.783 771.172 648.288Z" stroke="url(#paint69_linear_307_18238)" stroke-opacity="0.3" stroke-width="0.717125"/>
<path d="M772.164 645.115C808.792 523.962 821.531 408.122 812.532 318.781C808.032 274.109 798.099 236.081 783.014 207.329C767.93 178.578 747.71 159.128 722.64 151.549C697.571 143.97 669.962 148.96 641.476 164.539C612.989 180.119 583.652 206.275 555.157 240.971C498.169 310.363 444.599 413.859 407.972 535.012C371.345 656.165 358.605 772.005 367.605 861.346C372.105 906.017 382.038 944.046 397.123 972.798C412.207 1001.55 432.426 1021 457.496 1028.58C482.566 1036.16 510.175 1031.17 538.66 1015.59C567.147 1000.01 596.485 973.852 624.979 939.156C681.967 869.764 735.537 766.268 772.164 645.115Z" stroke="url(#paint70_linear_307_18238)" stroke-opacity="0.3" stroke-width="0.717125"/>
<path d="M773.093 641.937C807.6 520.163 818.316 404.118 807.759 314.948C802.48 270.362 791.885 232.513 776.301 204.028C760.717 175.545 740.161 156.451 714.963 149.31C689.765 142.17 662.247 147.641 634.038 163.715C605.827 179.789 576.951 206.453 549.066 241.642C493.298 312.018 441.542 416.432 407.035 538.206C372.528 659.98 361.812 776.025 372.369 865.195C377.648 909.781 388.243 947.63 403.827 976.115C419.411 1004.6 439.967 1023.69 465.165 1030.83C490.363 1037.97 517.881 1032.5 546.09 1016.43C574.301 1000.35 603.178 973.69 631.062 938.501C686.83 868.125 738.586 763.711 773.093 641.937Z" stroke="url(#paint71_linear_307_18238)" stroke-opacity="0.3" stroke-width="0.717125"/>
<path d="M773.972 638.732C806.349 516.374 815.038 400.161 802.926 311.188C796.869 266.701 785.615 229.043 769.536 200.834C753.458 172.628 732.572 153.895 707.253 147.195C681.934 140.496 654.516 146.447 626.591 163.01C598.665 179.574 570.259 206.738 542.993 242.408C488.461 313.747 438.536 419.049 406.159 541.406C373.782 663.764 365.093 779.978 377.205 868.95C383.261 913.438 394.516 951.096 410.595 979.304C426.673 1007.51 447.559 1026.24 472.878 1032.94C498.197 1039.64 525.615 1033.69 553.539 1017.13C581.465 1000.56 609.872 973.4 637.138 937.73C691.67 866.392 741.595 761.09 773.972 638.732Z" stroke="url(#paint72_linear_307_18238)" stroke-opacity="0.3" stroke-width="0.717125"/>
<path d="M774.794 635.512C805.031 512.608 811.69 396.26 798.027 307.513C791.196 263.138 779.286 225.682 762.717 197.758C746.149 169.837 724.939 151.471 699.507 145.215C674.075 138.958 646.765 145.387 619.134 162.435C591.501 179.484 563.573 207.139 536.934 243.279C483.655 315.559 435.575 421.716 405.339 544.62C375.103 667.524 368.443 783.872 382.106 872.62C388.938 916.994 400.848 954.451 417.416 982.374C433.984 1010.3 455.194 1028.66 480.626 1034.92C506.058 1041.17 533.368 1034.75 560.999 1017.7C588.632 1000.65 616.56 972.993 643.2 936.853C696.478 864.574 744.558 758.416 774.794 635.512Z" stroke="url(#paint73_linear_307_18238)" stroke-opacity="0.3" stroke-width="0.717125"/>
<path d="M775.561 632.279C803.648 508.865 808.276 392.419 793.066 303.924C785.461 259.675 772.899 222.432 755.846 194.802C738.793 167.174 717.266 149.182 691.728 143.37C666.191 137.558 638.997 144.462 611.668 161.99C584.337 179.519 556.896 207.657 530.891 244.257C478.882 317.455 432.662 424.435 404.575 547.849C376.489 671.262 371.861 787.708 387.07 876.204C394.676 920.452 407.237 957.695 424.291 985.325C441.343 1012.95 462.871 1030.95 488.408 1036.76C513.946 1042.57 541.139 1035.67 568.469 1018.14C595.799 1000.61 623.241 972.47 649.246 935.87C701.254 862.672 747.474 755.692 775.561 632.279Z" stroke="url(#paint74_linear_307_18238)" stroke-opacity="0.3" stroke-width="0.717125"/>
<path d="M776.267 629.035C802.196 505.15 804.791 388.641 788.039 300.424C779.663 256.315 766.453 219.297 748.92 191.969C731.388 164.642 709.55 147.029 683.915 141.663C658.28 136.298 631.211 143.676 604.192 161.678C577.171 179.681 550.225 208.294 524.863 245.342C474.139 319.437 429.793 427.208 403.865 551.092C377.936 674.977 375.341 791.486 392.093 879.702C400.469 923.812 413.679 960.83 431.212 988.158C448.744 1015.48 470.583 1033.1 496.217 1038.46C521.852 1043.83 548.921 1036.45 575.941 1018.45C602.961 1000.45 629.907 971.832 655.27 934.784C705.993 860.69 750.339 752.919 776.267 629.035Z" stroke="url(#paint75_linear_307_18238)" stroke-opacity="0.3" stroke-width="0.717125"/>
<path d="M776.919 625.786C800.682 501.468 801.243 384.932 782.954 297.02C773.81 253.064 759.956 216.282 741.948 189.265C723.942 162.248 701.8 145.018 676.075 140.101C650.35 135.184 623.414 143.033 596.713 161.504C570.011 179.976 543.568 209.055 518.856 246.54C469.434 321.508 426.976 430.037 403.213 554.355C379.451 678.673 378.889 795.21 397.178 883.121C406.323 927.077 420.177 963.859 438.184 990.877C456.191 1017.89 478.333 1035.12 504.058 1040.04C529.782 1044.96 556.718 1037.11 583.419 1018.64C610.122 1000.17 636.564 971.086 661.276 933.601C710.698 858.633 753.157 750.104 776.919 625.786Z" stroke="url(#paint76_linear_307_18238)" stroke-opacity="0.3" stroke-width="0.717125"/>
<path d="M777.513 622.521C799.103 497.807 797.63 381.278 777.81 293.699C767.899 249.909 753.406 213.375 734.929 186.676C716.454 159.978 694.014 143.137 668.208 138.669C642.401 134.202 615.606 142.52 589.232 161.454C562.856 180.389 536.925 209.925 512.871 247.836C464.765 323.655 424.207 432.908 402.618 557.622C381.028 682.336 382.501 798.865 402.321 886.443C412.232 930.233 426.725 966.768 445.202 993.467C463.677 1020.17 486.116 1037.01 511.923 1041.47C537.729 1045.94 564.524 1037.62 590.899 1018.69C617.275 999.754 643.206 970.217 667.26 932.307C715.366 856.487 755.924 747.234 777.513 622.521Z" stroke="url(#paint77_linear_307_18238)" stroke-opacity="0.3" stroke-width="0.717125"/>
<path d="M778.051 619.24C797.46 494.168 793.954 377.683 772.608 290.464C761.935 246.853 746.806 210.577 727.867 184.204C708.928 157.833 686.198 141.386 660.318 137.37C634.437 133.354 607.792 142.138 581.751 161.529C555.71 180.922 530.298 210.906 506.91 249.231C460.134 325.879 421.489 435.822 402.08 560.894C382.67 685.966 386.176 802.451 407.522 889.67C418.195 933.281 433.324 969.556 452.264 995.929C471.202 1022.3 493.932 1038.75 519.813 1042.76C545.693 1046.78 572.339 1038 598.379 1018.6C624.421 999.212 649.832 969.228 673.221 930.903C719.997 854.255 758.642 744.311 778.051 619.24Z" stroke="url(#paint78_linear_307_18238)" stroke-opacity="0.3" stroke-width="0.717125"/>
<path d="M778.529 615.958C795.753 490.567 790.214 374.161 767.349 287.327C755.916 243.91 740.157 207.903 720.76 181.865C701.364 155.828 678.35 139.78 652.404 136.216C626.457 132.652 599.969 141.9 574.271 161.743C548.572 181.587 523.687 212.011 500.971 250.738C455.54 328.19 418.82 438.792 401.597 564.183C384.373 689.574 389.911 805.981 412.776 892.814C424.209 936.232 439.969 972.238 459.366 998.276C478.761 1024.31 501.775 1040.36 527.722 1043.92C553.668 1047.49 580.157 1038.24 605.854 1018.4C631.554 998.554 656.438 968.13 679.154 929.404C724.585 851.951 761.305 741.35 778.529 615.958Z" stroke="url(#paint79_linear_307_18238)" stroke-opacity="0.3" stroke-width="0.717125"/>
<path d="M778.953 612.662C793.986 486.99 786.416 370.698 762.04 284.277C749.851 241.065 733.465 205.34 713.617 179.644C693.77 153.949 670.479 138.306 644.474 135.195C618.469 132.084 592.147 141.793 566.799 162.082C541.45 182.371 517.1 213.224 495.064 252.342C450.991 330.575 416.207 441.801 401.175 567.474C386.142 693.147 393.711 809.438 418.088 895.86C430.277 939.071 446.662 974.797 466.511 1000.49C486.358 1026.19 509.648 1041.83 535.653 1044.94C561.658 1048.05 587.981 1038.34 613.328 1018.05C638.677 997.765 663.027 966.912 685.064 927.794C729.136 849.561 763.92 738.335 778.953 612.662Z" stroke="url(#paint80_linear_307_18238)" stroke-opacity="0.3" stroke-width="0.717125"/>
<path d="M779.321 609.363C792.159 483.447 782.561 367.305 756.679 281.322C743.738 238.33 726.732 202.896 706.438 177.55C686.145 152.206 662.586 136.971 636.53 134.315C610.475 131.659 584.326 141.825 559.336 162.553C534.345 183.282 510.538 214.555 489.187 254.051C446.487 333.042 413.649 444.858 400.812 570.774C387.975 696.69 397.572 812.832 423.454 898.815C436.395 941.807 453.402 977.241 473.695 1002.59C493.988 1027.93 517.548 1043.17 543.603 1045.82C569.658 1048.48 595.808 1038.31 620.797 1017.58C645.788 996.855 669.596 965.581 690.946 926.085C733.647 847.095 766.484 735.279 779.321 609.363Z" stroke="url(#paint81_linear_307_18238)" stroke-opacity="0.3" stroke-width="0.717125"/>
<path d="M779.627 606.057C790.264 479.936 778.641 363.979 751.263 278.462C737.574 235.702 719.951 200.57 699.218 175.582C678.487 150.596 654.665 135.775 628.567 133.574C602.469 131.373 576.501 141.994 551.877 163.155C527.252 184.317 503.994 216.001 483.336 255.864C442.02 335.587 411.139 447.959 400.501 574.08C389.864 700.201 401.487 816.158 428.865 901.676C442.554 944.436 460.177 979.568 480.91 1004.56C501.642 1029.54 525.464 1044.36 551.561 1046.56C577.659 1048.76 603.627 1038.14 628.251 1016.98C652.877 995.821 676.135 964.137 696.793 924.274C738.108 844.55 768.989 732.178 779.627 606.057Z" stroke="url(#paint82_linear_307_18238)" stroke-opacity="0.3" stroke-width="0.717125"/>
<path d="M779.879 602.749C788.314 476.461 774.669 360.725 745.802 275.698C731.369 233.184 713.136 198.364 691.97 173.743C670.805 149.122 646.728 134.719 620.596 132.973C594.464 131.228 568.685 142.301 544.434 163.889C520.182 185.477 497.48 217.562 477.521 257.779C437.604 338.212 408.688 451.106 400.253 577.393C391.819 703.68 405.464 819.417 434.33 904.444C448.763 946.958 466.996 981.777 488.162 1006.4C509.327 1031.02 533.404 1045.42 559.536 1047.17C585.668 1048.91 611.447 1037.84 635.698 1016.25C659.95 994.665 682.652 962.58 702.611 922.362C742.529 841.93 771.444 729.036 779.879 602.749Z" stroke="url(#paint83_linear_307_18238)" stroke-opacity="0.3" stroke-width="0.717125"/>
<path d="M780.073 599.431C786.302 473.015 770.639 357.535 740.293 273.025C725.12 230.769 706.282 196.273 684.69 172.024C663.099 147.777 638.774 133.796 612.615 132.507C586.457 131.218 560.875 142.739 537.005 164.747C513.133 186.755 490.995 219.231 471.74 259.791C433.233 340.908 406.292 454.289 400.062 580.704C393.833 707.12 409.496 822.6 439.842 907.111C455.015 949.366 473.853 983.862 495.445 1008.11C517.036 1032.36 541.361 1046.34 567.52 1047.63C593.678 1048.92 619.26 1037.4 643.13 1015.39C667.002 993.38 689.14 960.904 708.395 920.344C746.902 839.227 773.843 725.846 780.073 599.431Z" stroke="url(#paint84_linear_307_18238)" stroke-opacity="0.3" stroke-width="0.717125"/>
<path d="M780.206 596.114C784.228 469.609 766.552 354.419 734.736 270.452C718.828 228.467 699.391 194.306 677.378 170.437C655.367 146.57 630.802 133.016 604.625 132.184C578.448 131.352 553.072 143.318 529.589 165.738C506.105 188.16 484.537 221.018 465.993 261.907C428.907 343.684 403.949 457.518 399.927 584.023C395.904 710.527 413.58 825.717 445.396 909.685C461.305 951.669 480.742 985.831 502.754 1009.7C524.765 1033.57 549.33 1047.12 575.507 1047.95C601.685 1048.78 627.061 1036.82 650.544 1014.4C674.028 991.977 695.596 959.119 714.14 918.23C751.226 836.453 776.184 722.619 780.206 596.114Z" stroke="url(#paint85_linear_307_18238)" stroke-opacity="0.3" stroke-width="0.717125"/>
<path d="M780.281 592.796C782.095 466.24 762.412 351.377 729.135 267.977C712.496 226.277 692.466 192.459 670.04 168.979C647.616 145.5 622.818 132.377 596.631 132.001C570.443 131.626 545.279 144.033 522.191 166.86C499.102 189.688 478.111 222.917 460.284 264.124C424.63 346.536 401.663 460.788 399.849 587.344C398.035 713.899 417.719 828.763 450.995 912.163C467.634 953.863 487.665 987.68 510.09 1011.16C532.514 1034.64 557.312 1047.76 583.5 1048.14C609.688 1048.51 634.851 1036.11 657.939 1013.28C681.028 990.452 702.02 957.223 719.847 916.016C755.5 833.604 778.468 719.352 780.281 592.796Z" stroke="url(#paint86_linear_307_18238)" stroke-opacity="0.3" stroke-width="0.717125"/>
<path d="M780.302 589.472C779.906 462.904 758.221 348.401 723.494 265.595C706.13 224.191 685.513 190.729 662.681 167.643C639.85 144.559 614.827 131.87 588.637 131.952C562.446 132.034 537.503 144.878 514.817 168.105C492.13 191.332 471.721 224.923 454.616 266.434C420.407 349.456 399.437 464.091 399.832 590.66C400.227 717.228 421.912 831.73 456.639 914.537C474.003 955.94 494.621 989.403 517.453 1012.49C540.283 1035.57 565.306 1048.26 591.497 1048.18C617.687 1048.1 642.63 1035.25 665.316 1012.03C688.004 988.799 708.412 955.209 725.517 913.697C759.727 830.676 780.697 716.04 780.302 589.472Z" stroke="url(#paint87_linear_307_18238)" stroke-opacity="0.3" stroke-width="0.717125"/>
<path d="M780.261 586.155C777.657 459.613 753.976 345.506 717.809 263.319C699.725 222.224 678.527 189.127 655.296 166.443C632.066 143.761 606.825 131.511 580.64 132.05C554.455 132.589 529.74 145.867 507.463 169.485C485.184 193.105 465.365 227.047 448.987 268.851C416.232 352.456 397.266 467.441 399.87 593.983C402.473 720.525 426.154 834.631 462.321 916.819C480.405 957.913 501.603 991.011 524.834 1013.69C548.064 1036.38 573.305 1048.63 599.49 1048.09C625.675 1047.55 650.39 1034.27 672.667 1010.65C694.946 987.032 714.765 953.091 731.143 911.287C763.898 827.681 782.864 712.697 780.261 586.155Z" stroke="url(#paint88_linear_307_18238)" stroke-opacity="0.3" stroke-width="0.717125"/>
<path d="M780.161 582.835C775.349 456.358 749.681 342.682 712.085 261.138C693.287 220.366 671.514 187.643 647.89 165.369C624.268 143.095 598.817 131.288 572.646 132.283C546.475 133.279 521.995 146.986 500.133 170.99C478.27 194.995 459.047 229.278 443.401 271.361C412.109 355.525 395.153 470.823 399.965 597.3C404.777 723.778 430.445 837.454 468.041 918.998C486.839 959.77 508.612 992.493 532.236 1014.77C555.858 1037.04 581.309 1048.85 607.48 1047.85C633.651 1046.86 658.131 1033.15 679.993 1009.15C701.856 985.141 721.079 950.858 736.725 908.775C768.017 824.61 784.973 709.313 780.161 582.835Z" stroke="url(#paint89_linear_307_18238)" stroke-opacity="0.3" stroke-width="0.717125"/>
<path d="M780.01 579.519C772.991 453.145 745.343 339.934 706.33 259.059C686.823 218.621 664.482 186.283 640.473 164.424C616.466 142.567 590.813 131.205 564.663 132.657C538.513 134.11 514.276 148.242 492.837 172.624C471.396 197.007 452.774 231.62 437.865 273.969C408.047 358.667 393.105 474.243 400.124 600.617C407.142 726.991 434.79 840.202 473.804 921.077C493.311 961.516 515.651 993.853 539.66 1015.71C563.668 1037.57 589.321 1048.93 615.471 1047.48C641.621 1046.03 665.858 1031.89 687.297 1007.51C708.738 983.13 727.36 948.517 742.269 906.167C772.087 821.469 787.029 705.893 780.01 579.519Z" stroke="url(#paint90_linear_307_18238)" stroke-opacity="0.3" stroke-width="0.717125"/>
<path d="M779.793 576.204C770.57 449.972 740.951 337.261 700.532 257.079C680.322 216.987 657.42 185.045 633.034 163.608C608.648 142.173 582.801 131.26 556.681 133.169C530.56 135.077 506.573 149.631 485.563 174.383C464.551 199.136 446.535 234.069 432.368 276.672C404.033 361.878 391.11 477.697 400.333 603.929C409.556 730.162 439.176 842.873 479.595 923.055C499.805 963.146 522.706 995.089 547.093 1016.53C571.478 1037.96 597.326 1048.87 623.446 1046.96C649.567 1045.06 673.554 1030.5 694.564 1005.75C715.576 980.997 733.591 946.065 747.759 903.461C776.094 818.256 789.017 702.437 779.793 576.204Z" stroke="url(#paint91_linear_307_18238)" stroke-opacity="0.3" stroke-width="0.717125"/>
<path d="M779.528 572.897C768.103 446.845 736.521 334.668 694.709 255.203C673.802 215.47 650.347 183.932 625.59 162.924C600.834 141.918 574.801 131.459 548.717 133.823C522.634 136.187 498.905 151.156 478.329 176.271C457.753 201.388 440.35 236.629 426.928 279.474C400.084 365.161 389.185 481.188 400.61 607.24C412.034 733.292 443.617 845.469 485.429 924.933C506.335 964.666 529.791 996.204 554.548 1017.21C579.303 1038.22 605.337 1048.68 631.421 1046.31C657.504 1043.95 681.233 1028.98 701.809 1003.87C722.385 978.749 739.788 943.507 753.21 900.663C780.054 814.976 790.953 698.949 779.528 572.897Z" stroke="url(#paint92_linear_307_18238)" stroke-opacity="0.3" stroke-width="0.717125"/>
<path d="M779.197 569.594C765.574 443.76 732.039 332.152 688.846 253.429C667.249 214.067 643.247 182.943 618.127 162.371C593.009 141.799 566.796 131.796 540.758 134.615C514.72 137.434 491.256 152.815 471.122 178.286C450.987 203.758 434.202 239.297 421.529 282.369C396.185 368.512 387.313 484.711 400.936 610.545C414.558 736.378 448.094 847.987 491.286 926.71C512.883 966.072 536.885 997.196 562.005 1017.77C587.124 1038.34 613.336 1048.34 639.374 1045.52C665.413 1042.71 688.877 1027.32 709.011 1001.85C729.146 976.381 745.931 940.842 758.603 897.77C783.947 811.627 792.82 695.427 779.197 569.594Z" stroke="url(#paint93_linear_307_18238)" stroke-opacity="0.3" stroke-width="0.717125"/>
<path d="M778.81 566.294C762.994 440.717 727.516 329.711 682.956 251.754C660.675 212.775 636.133 182.075 610.658 161.944C585.185 141.814 558.802 132.27 532.817 135.543C506.832 138.816 483.639 154.604 463.953 180.422C444.266 206.241 428.103 242.069 416.184 285.355C392.348 371.927 385.504 488.264 401.321 613.84C417.138 739.417 452.616 850.423 497.176 928.38C519.457 967.359 543.998 998.06 569.474 1018.19C594.947 1038.32 621.33 1047.86 647.315 1044.59C673.3 1041.32 696.492 1025.53 716.179 999.712C735.866 973.893 752.029 938.066 763.947 894.779C787.784 808.208 794.627 691.871 778.81 566.294Z" stroke="url(#paint94_linear_307_18238)" stroke-opacity="0.3" stroke-width="0.717125"/>
<path d="M778.367 563.007C760.361 437.725 722.951 327.355 677.038 250.188C654.08 211.603 629.006 181.336 603.184 161.653C577.363 141.971 550.817 132.888 524.893 136.614C498.969 140.34 476.056 156.531 456.823 182.689C437.59 208.848 422.055 244.951 410.893 288.439C388.571 375.414 383.759 491.853 401.766 617.134C419.772 742.415 457.181 852.786 503.095 929.953C526.052 968.537 551.126 998.805 576.949 1018.49C602.77 1038.17 629.316 1047.25 655.24 1043.53C681.163 1039.8 704.076 1023.61 723.309 997.452C742.543 971.293 758.078 935.189 769.239 891.701C791.562 804.727 796.373 688.288 778.367 563.007Z" stroke="url(#paint95_linear_307_18238)" stroke-opacity="0.3" stroke-width="0.717125"/>
<path d="M777.864 559.722C757.674 434.774 718.344 325.073 671.091 248.719C647.463 210.541 621.865 180.716 595.703 161.486C569.542 142.258 542.842 133.64 516.987 137.818C491.132 141.996 468.505 158.584 449.732 185.073C430.958 211.564 416.055 247.933 405.655 291.61C384.854 378.96 382.075 495.465 402.265 620.413C422.454 745.361 461.785 855.062 509.038 931.416C532.665 969.594 558.264 999.419 584.426 1018.65C610.587 1037.88 637.287 1046.5 663.142 1042.32C688.997 1038.14 711.623 1021.55 730.397 995.062C749.171 968.571 764.073 932.202 774.474 888.525C795.275 801.175 798.054 684.67 777.864 559.722Z" stroke="url(#paint96_linear_307_18238)" stroke-opacity="0.3" stroke-width="0.717125"/>
<path d="M777.306 556.449C754.939 431.872 713.7 322.874 665.121 247.357C640.831 209.597 614.716 180.223 588.223 161.453C561.73 142.684 534.884 134.533 509.106 139.162C483.328 143.79 460.994 160.771 442.685 187.584C424.376 214.398 410.111 251.022 400.474 294.873C381.201 382.574 380.456 499.109 402.823 623.686C425.19 748.263 466.429 857.26 515.008 932.778C539.298 970.538 565.413 999.912 591.907 1018.68C618.399 1037.45 645.245 1045.6 671.023 1040.97C696.802 1036.34 719.136 1019.36 737.444 992.551C755.753 965.737 770.018 929.113 779.655 885.261C798.929 797.561 799.674 681.025 777.306 556.449Z" stroke="url(#paint97_linear_307_18238)" stroke-opacity="0.3" stroke-width="0.717125"/>
<path d="M776.69 553.189C752.152 429.022 709.017 320.76 659.127 246.102C634.182 208.772 607.559 179.858 580.741 161.553C553.925 143.25 526.941 135.569 501.248 140.646C475.554 145.724 453.52 163.092 435.682 190.22C417.844 217.35 404.22 254.217 395.35 298.23C377.61 386.254 378.899 502.784 403.437 626.952C427.975 751.119 471.11 859.38 521 934.039C545.945 971.369 572.568 1000.28 599.386 1018.59C626.202 1036.89 653.186 1044.57 678.879 1039.49C704.573 1034.42 726.607 1017.05 744.445 989.92C762.283 962.791 775.907 925.923 784.777 881.911C802.517 793.887 801.228 677.356 776.69 553.189Z" stroke="url(#paint98_linear_307_18238)" stroke-opacity="0.3" stroke-width="0.717125"/>
<path d="M776.02 549.936C749.319 426.216 704.301 318.724 653.116 244.948C627.523 208.059 600.399 179.614 573.266 161.78C546.135 143.947 519.021 136.739 493.42 142.264C467.819 147.789 446.091 165.539 428.73 192.974C411.367 220.411 398.389 257.511 390.288 301.671C374.088 389.991 377.41 506.482 404.111 630.202C430.813 753.922 475.831 861.414 527.015 935.191C552.608 972.08 579.732 1000.52 606.865 1018.36C633.996 1036.19 661.111 1043.4 686.712 1037.87C712.312 1032.35 734.04 1014.6 751.402 987.164C768.764 959.727 781.742 922.628 789.843 878.467C806.044 790.147 802.721 673.656 776.02 549.936Z" stroke="url(#paint99_linear_307_18238)" stroke-opacity="0.3" stroke-width="0.717125"/>
<defs>
<linearGradient id="paint0_linear_307_18238" x1="584.847" y1="478.977" x2="597.419" y2="705.339" gradientUnits="userSpaceOnUse">
<stop stop-color="#DE701D"/>
<stop offset="1" stop-color="#121212"/>
</linearGradient>
<linearGradient id="paint1_linear_307_18238" x1="582.909" y1="479.082" x2="599.429" y2="705.19" gradientUnits="userSpaceOnUse">
<stop stop-color="#DE701D"/>
<stop offset="1" stop-color="#121212"/>
</linearGradient>
<linearGradient id="paint2_linear_307_18238" x1="580.972" y1="479.223" x2="601.436" y2="705.009" gradientUnits="userSpaceOnUse">
<stop stop-color="#DE701D"/>
<stop offset="1" stop-color="#121212"/>
</linearGradient>
<linearGradient id="paint3_linear_307_18238" x1="579.039" y1="479.4" x2="603.441" y2="704.794" gradientUnits="userSpaceOnUse">
<stop stop-color="#DE701D"/>
<stop offset="1" stop-color="#121212"/>
</linearGradient>
<linearGradient id="paint4_linear_307_18238" x1="577.114" y1="479.607" x2="605.445" y2="704.541" gradientUnits="userSpaceOnUse">
<stop stop-color="#DE701D"/>
<stop offset="1" stop-color="#121212"/>
</linearGradient>
<linearGradient id="paint5_linear_307_18238" x1="575.183" y1="479.851" x2="607.436" y2="704.255" gradientUnits="userSpaceOnUse">
<stop stop-color="#DE701D"/>
<stop offset="1" stop-color="#121212"/>
</linearGradient>
<linearGradient id="paint6_linear_307_18238" x1="573.262" y1="480.129" x2="609.427" y2="703.937" gradientUnits="userSpaceOnUse">
<stop stop-color="#DE701D"/>
<stop offset="1" stop-color="#121212"/>
</linearGradient>
<linearGradient id="paint7_linear_307_18238" x1="571.347" y1="480.441" x2="611.411" y2="703.584" gradientUnits="userSpaceOnUse">
<stop stop-color="#DE701D"/>
<stop offset="1" stop-color="#121212"/>
</linearGradient>
<linearGradient id="paint8_linear_307_18238" x1="569.437" y1="480.785" x2="613.39" y2="703.195" gradientUnits="userSpaceOnUse">
<stop stop-color="#DE701D"/>
<stop offset="1" stop-color="#121212"/>
</linearGradient>
<linearGradient id="paint9_linear_307_18238" x1="567.53" y1="481.16" x2="615.358" y2="702.769" gradientUnits="userSpaceOnUse">
<stop stop-color="#DE701D"/>
<stop offset="1" stop-color="#121212"/>
</linearGradient>
<linearGradient id="paint10_linear_307_18238" x1="565.634" y1="481.569" x2="617.322" y2="702.309" gradientUnits="userSpaceOnUse">
<stop stop-color="#DE701D"/>
<stop offset="1" stop-color="#121212"/>
</linearGradient>
<linearGradient id="paint11_linear_307_18238" x1="563.744" y1="482.013" x2="619.277" y2="701.817" gradientUnits="userSpaceOnUse">
<stop stop-color="#DE701D"/>
<stop offset="1" stop-color="#121212"/>
</linearGradient>
<linearGradient id="paint12_linear_307_18238" x1="561.863" y1="482.491" x2="621.223" y2="701.292" gradientUnits="userSpaceOnUse">
<stop stop-color="#DE701D"/>
<stop offset="1" stop-color="#121212"/>
</linearGradient>
<linearGradient id="paint13_linear_307_18238" x1="559.991" y1="482.998" x2="623.161" y2="700.73" gradientUnits="userSpaceOnUse">
<stop stop-color="#DE701D"/>
<stop offset="1" stop-color="#121212"/>
</linearGradient>
<linearGradient id="paint14_linear_307_18238" x1="558.122" y1="483.536" x2="625.082" y2="700.133" gradientUnits="userSpaceOnUse">
<stop stop-color="#DE701D"/>
<stop offset="1" stop-color="#121212"/>
</linearGradient>
<linearGradient id="paint15_linear_307_18238" x1="556.271" y1="484.113" x2="627.001" y2="699.508" gradientUnits="userSpaceOnUse">
<stop stop-color="#DE701D"/>
<stop offset="1" stop-color="#121212"/>
</linearGradient>
<linearGradient id="paint16_linear_307_18238" x1="554.428" y1="484.718" x2="628.906" y2="698.845" gradientUnits="userSpaceOnUse">
<stop stop-color="#DE701D"/>
<stop offset="1" stop-color="#121212"/>
</linearGradient>
<linearGradient id="paint17_linear_307_18238" x1="552.595" y1="485.353" x2="630.799" y2="698.149" gradientUnits="userSpaceOnUse">
<stop stop-color="#DE701D"/>
<stop offset="1" stop-color="#121212"/>
</linearGradient>
<linearGradient id="paint18_linear_307_18238" x1="550.772" y1="486.026" x2="632.678" y2="697.424" gradientUnits="userSpaceOnUse">
<stop stop-color="#DE701D"/>
<stop offset="1" stop-color="#121212"/>
</linearGradient>
<linearGradient id="paint19_linear_307_18238" x1="548.965" y1="486.727" x2="634.548" y2="696.664" gradientUnits="userSpaceOnUse">
<stop stop-color="#DE701D"/>
<stop offset="1" stop-color="#121212"/>
</linearGradient>
<linearGradient id="paint20_linear_307_18238" x1="547.163" y1="487.459" x2="636.397" y2="695.87" gradientUnits="userSpaceOnUse">
<stop stop-color="#DE701D"/>
<stop offset="1" stop-color="#121212"/>
</linearGradient>
<linearGradient id="paint21_linear_307_18238" x1="545.38" y1="488.223" x2="638.237" y2="695.045" gradientUnits="userSpaceOnUse">
<stop stop-color="#DE701D"/>
<stop offset="1" stop-color="#121212"/>
</linearGradient>
<linearGradient id="paint22_linear_307_18238" x1="543.607" y1="489.023" x2="640.06" y2="694.192" gradientUnits="userSpaceOnUse">
<stop stop-color="#DE701D"/>
<stop offset="1" stop-color="#121212"/>
</linearGradient>
<linearGradient id="paint23_linear_307_18238" x1="541.856" y1="489.844" x2="641.875" y2="693.299" gradientUnits="userSpaceOnUse">
<stop stop-color="#DE701D"/>
<stop offset="1" stop-color="#121212"/>
</linearGradient>
<linearGradient id="paint24_linear_307_18238" x1="540.111" y1="490.702" x2="643.666" y2="692.381" gradientUnits="userSpaceOnUse">
<stop stop-color="#DE701D"/>
<stop offset="1" stop-color="#121212"/>
</linearGradient>
<linearGradient id="paint25_linear_307_18238" x1="538.387" y1="491.591" x2="645.445" y2="691.431" gradientUnits="userSpaceOnUse">
<stop stop-color="#DE701D"/>
<stop offset="1" stop-color="#121212"/>
</linearGradient>
<linearGradient id="paint26_linear_307_18238" x1="536.674" y1="492.504" x2="647.204" y2="690.446" gradientUnits="userSpaceOnUse">
<stop stop-color="#DE701D"/>
<stop offset="1" stop-color="#121212"/>
</linearGradient>
<linearGradient id="paint27_linear_307_18238" x1="534.98" y1="493.453" x2="648.948" y2="689.436" gradientUnits="userSpaceOnUse">
<stop stop-color="#DE701D"/>
<stop offset="1" stop-color="#121212"/>
</linearGradient>
<linearGradient id="paint28_linear_307_18238" x1="533.303" y1="494.429" x2="650.674" y2="688.392" gradientUnits="userSpaceOnUse">
<stop stop-color="#DE701D"/>
<stop offset="1" stop-color="#121212"/>
</linearGradient>
<linearGradient id="paint29_linear_307_18238" x1="531.642" y1="495.436" x2="652.38" y2="687.322" gradientUnits="userSpaceOnUse">
<stop stop-color="#DE701D"/>
<stop offset="1" stop-color="#121212"/>
</linearGradient>
<linearGradient id="paint30_linear_307_18238" x1="529.999" y1="496.47" x2="654.067" y2="686.219" gradientUnits="userSpaceOnUse">
<stop stop-color="#DE701D"/>
<stop offset="1" stop-color="#121212"/>
</linearGradient>
<linearGradient id="paint31_linear_307_18238" x1="528.375" y1="497.533" x2="655.736" y2="685.088" gradientUnits="userSpaceOnUse">
<stop stop-color="#DE701D"/>
<stop offset="1" stop-color="#121212"/>
</linearGradient>
<linearGradient id="paint32_linear_307_18238" x1="526.773" y1="498.624" x2="657.388" y2="683.927" gradientUnits="userSpaceOnUse">
<stop stop-color="#DE701D"/>
<stop offset="1" stop-color="#121212"/>
</linearGradient>
<linearGradient id="paint33_linear_307_18238" x1="525.182" y1="499.744" x2="659.011" y2="682.74" gradientUnits="userSpaceOnUse">
<stop stop-color="#DE701D"/>
<stop offset="1" stop-color="#121212"/>
</linearGradient>
<linearGradient id="paint34_linear_307_18238" x1="523.615" y1="500.888" x2="660.618" y2="681.52" gradientUnits="userSpaceOnUse">
<stop stop-color="#DE701D"/>
<stop offset="1" stop-color="#121212"/>
</linearGradient>
<linearGradient id="paint35_linear_307_18238" x1="522.071" y1="502.062" x2="662.205" y2="680.276" gradientUnits="userSpaceOnUse">
<stop stop-color="#DE701D"/>
<stop offset="1" stop-color="#121212"/>
</linearGradient>
<linearGradient id="paint36_linear_307_18238" x1="520.543" y1="503.261" x2="663.766" y2="679.002" gradientUnits="userSpaceOnUse">
<stop stop-color="#DE701D"/>
<stop offset="1" stop-color="#121212"/>
</linearGradient>
<linearGradient id="paint37_linear_307_18238" x1="519.037" y1="504.486" x2="665.305" y2="677.701" gradientUnits="userSpaceOnUse">
<stop stop-color="#DE701D"/>
<stop offset="1" stop-color="#121212"/>
</linearGradient>
<linearGradient id="paint38_linear_307_18238" x1="517.557" y1="505.74" x2="666.825" y2="676.376" gradientUnits="userSpaceOnUse">
<stop stop-color="#DE701D"/>
<stop offset="1" stop-color="#121212"/>
</linearGradient>
<linearGradient id="paint39_linear_307_18238" x1="516.097" y1="507.017" x2="668.322" y2="675.022" gradientUnits="userSpaceOnUse">
<stop stop-color="#DE701D"/>
<stop offset="1" stop-color="#121212"/>
</linearGradient>
<linearGradient id="paint40_linear_307_18238" x1="514.661" y1="508.316" x2="669.794" y2="673.639" gradientUnits="userSpaceOnUse">
<stop stop-color="#DE701D"/>
<stop offset="1" stop-color="#121212"/>
</linearGradient>
<linearGradient id="paint41_linear_307_18238" x1="513.246" y1="509.65" x2="671.241" y2="672.24" gradientUnits="userSpaceOnUse">
<stop stop-color="#DE701D"/>
<stop offset="1" stop-color="#121212"/>
</linearGradient>
<linearGradient id="paint42_linear_307_18238" x1="511.85" y1="511.006" x2="672.658" y2="670.813" gradientUnits="userSpaceOnUse">
<stop stop-color="#DE701D"/>
<stop offset="1" stop-color="#121212"/>
</linearGradient>
<linearGradient id="paint43_linear_307_18238" x1="510.483" y1="512.385" x2="674.056" y2="669.362" gradientUnits="userSpaceOnUse">
<stop stop-color="#DE701D"/>
<stop offset="1" stop-color="#121212"/>
</linearGradient>
<linearGradient id="paint44_linear_307_18238" x1="509.139" y1="513.782" x2="675.427" y2="667.88" gradientUnits="userSpaceOnUse">
<stop stop-color="#DE701D"/>
<stop offset="1" stop-color="#121212"/>
</linearGradient>
<linearGradient id="paint45_linear_307_18238" x1="507.819" y1="515.207" x2="676.771" y2="666.379" gradientUnits="userSpaceOnUse">
<stop stop-color="#DE701D"/>
<stop offset="1" stop-color="#121212"/>
</linearGradient>
<linearGradient id="paint46_linear_307_18238" x1="506.523" y1="516.653" x2="678.087" y2="664.854" gradientUnits="userSpaceOnUse">
<stop stop-color="#DE701D"/>
<stop offset="1" stop-color="#121212"/>
</linearGradient>
<linearGradient id="paint47_linear_307_18238" x1="505.259" y1="518.123" x2="679.384" y2="663.307" gradientUnits="userSpaceOnUse">
<stop stop-color="#DE701D"/>
<stop offset="1" stop-color="#121212"/>
</linearGradient>
<linearGradient id="paint48_linear_307_18238" x1="504.014" y1="519.611" x2="680.646" y2="661.734" gradientUnits="userSpaceOnUse">
<stop stop-color="#DE701D"/>
<stop offset="1" stop-color="#121212"/>
</linearGradient>
<linearGradient id="paint49_linear_307_18238" x1="502.801" y1="521.126" x2="681.886" y2="660.145" gradientUnits="userSpaceOnUse">
<stop stop-color="#DE701D"/>
<stop offset="1" stop-color="#121212"/>
</linearGradient>
<linearGradient id="paint50_linear_307_18238" x1="501.608" y1="522.659" x2="683.092" y2="658.531" gradientUnits="userSpaceOnUse">
<stop stop-color="#DE701D"/>
<stop offset="1" stop-color="#121212"/>
</linearGradient>
<linearGradient id="paint51_linear_307_18238" x1="500.443" y1="524.211" x2="684.271" y2="656.895" gradientUnits="userSpaceOnUse">
<stop stop-color="#DE701D"/>
<stop offset="1" stop-color="#121212"/>
</linearGradient>
<linearGradient id="paint52_linear_307_18238" x1="499.311" y1="525.785" x2="685.427" y2="655.24" gradientUnits="userSpaceOnUse">
<stop stop-color="#DE701D"/>
<stop offset="1" stop-color="#121212"/>
</linearGradient>
<linearGradient id="paint53_linear_307_18238" x1="498.199" y1="527.377" x2="686.545" y2="653.565" gradientUnits="userSpaceOnUse">
<stop stop-color="#DE701D"/>
<stop offset="1" stop-color="#121212"/>
</linearGradient>
<linearGradient id="paint54_linear_307_18238" x1="497.119" y1="528.994" x2="687.639" y2="651.876" gradientUnits="userSpaceOnUse">
<stop stop-color="#DE701D"/>
<stop offset="1" stop-color="#121212"/>
</linearGradient>
<linearGradient id="paint55_linear_307_18238" x1="496.072" y1="530.622" x2="688.708" y2="650.16" gradientUnits="userSpaceOnUse">
<stop stop-color="#DE701D"/>
<stop offset="1" stop-color="#121212"/>
</linearGradient>
<linearGradient id="paint56_linear_307_18238" x1="495.048" y1="532.271" x2="689.74" y2="648.428" gradientUnits="userSpaceOnUse">
<stop stop-color="#DE701D"/>
<stop offset="1" stop-color="#121212"/>
</linearGradient>
<linearGradient id="paint57_linear_307_18238" x1="494.056" y1="533.941" x2="690.746" y2="646.683" gradientUnits="userSpaceOnUse">
<stop stop-color="#DE701D"/>
<stop offset="1" stop-color="#121212"/>
</linearGradient>
<linearGradient id="paint58_linear_307_18238" x1="493.091" y1="535.623" x2="691.719" y2="644.915" gradientUnits="userSpaceOnUse">
<stop stop-color="#DE701D"/>
<stop offset="1" stop-color="#121212"/>
</linearGradient>
<linearGradient id="paint59_linear_307_18238" x1="492.151" y1="537.322" x2="692.656" y2="643.13" gradientUnits="userSpaceOnUse">
<stop stop-color="#DE701D"/>
<stop offset="1" stop-color="#121212"/>
</linearGradient>
<linearGradient id="paint60_linear_307_18238" x1="491.249" y1="539.039" x2="693.57" y2="641.333" gradientUnits="userSpaceOnUse">
<stop stop-color="#DE701D"/>
<stop offset="1" stop-color="#121212"/>
</linearGradient>
<linearGradient id="paint61_linear_307_18238" x1="490.371" y1="540.773" x2="694.447" y2="639.52" gradientUnits="userSpaceOnUse">
<stop stop-color="#DE701D"/>
<stop offset="1" stop-color="#121212"/>
</linearGradient>
<linearGradient id="paint62_linear_307_18238" x1="489.526" y1="542.517" x2="695.294" y2="637.688" gradientUnits="userSpaceOnUse">
<stop stop-color="#DE701D"/>
<stop offset="1" stop-color="#121212"/>
</linearGradient>
<linearGradient id="paint63_linear_307_18238" x1="488.714" y1="544.284" x2="696.112" y2="635.849" gradientUnits="userSpaceOnUse">
<stop stop-color="#DE701D"/>
<stop offset="1" stop-color="#121212"/>
</linearGradient>
<linearGradient id="paint64_linear_307_18238" x1="487.927" y1="546.057" x2="696.891" y2="633.988" gradientUnits="userSpaceOnUse">
<stop stop-color="#DE701D"/>
<stop offset="1" stop-color="#121212"/>
</linearGradient>
<linearGradient id="paint65_linear_307_18238" x1="487.178" y1="547.847" x2="697.645" y2="632.117" gradientUnits="userSpaceOnUse">
<stop stop-color="#DE701D"/>
<stop offset="1" stop-color="#121212"/>
</linearGradient>
<linearGradient id="paint66_linear_307_18238" x1="486.453" y1="549.652" x2="698.358" y2="630.237" gradientUnits="userSpaceOnUse">
<stop stop-color="#DE701D"/>
<stop offset="1" stop-color="#121212"/>
</linearGradient>
<linearGradient id="paint67_linear_307_18238" x1="485.768" y1="551.463" x2="699.047" y2="628.337" gradientUnits="userSpaceOnUse">
<stop stop-color="#DE701D"/>
<stop offset="1" stop-color="#121212"/>
</linearGradient>
<linearGradient id="paint68_linear_307_18238" x1="485.107" y1="553.291" x2="699.695" y2="626.432" gradientUnits="userSpaceOnUse">
<stop stop-color="#DE701D"/>
<stop offset="1" stop-color="#121212"/>
</linearGradient>
<linearGradient id="paint69_linear_307_18238" x1="484.481" y1="555.128" x2="700.314" y2="624.512" gradientUnits="userSpaceOnUse">
<stop stop-color="#DE701D"/>
<stop offset="1" stop-color="#121212"/>
</linearGradient>
<linearGradient id="paint70_linear_307_18238" x1="483.892" y1="556.972" x2="700.902" y2="622.579" gradientUnits="userSpaceOnUse">
<stop stop-color="#DE701D"/>
<stop offset="1" stop-color="#121212"/>
</linearGradient>
<linearGradient id="paint71_linear_307_18238" x1="483.326" y1="558.838" x2="701.448" y2="620.648" gradientUnits="userSpaceOnUse">
<stop stop-color="#DE701D"/>
<stop offset="1" stop-color="#121212"/>
</linearGradient>
<linearGradient id="paint72_linear_307_18238" x1="482.798" y1="560.704" x2="701.966" y2="618.697" gradientUnits="userSpaceOnUse">
<stop stop-color="#DE701D"/>
<stop offset="1" stop-color="#121212"/>
</linearGradient>
<linearGradient id="paint73_linear_307_18238" x1="482.304" y1="562.577" x2="702.45" y2="616.737" gradientUnits="userSpaceOnUse">
<stop stop-color="#DE701D"/>
<stop offset="1" stop-color="#121212"/>
</linearGradient>
<linearGradient id="paint74_linear_307_18238" x1="481.842" y1="564.46" x2="702.9" y2="614.769" gradientUnits="userSpaceOnUse">
<stop stop-color="#DE701D"/>
<stop offset="1" stop-color="#121212"/>
</linearGradient>
<linearGradient id="paint75_linear_307_18238" x1="481.409" y1="566.352" x2="703.312" y2="612.795" gradientUnits="userSpaceOnUse">
<stop stop-color="#DE701D"/>
<stop offset="1" stop-color="#121212"/>
</linearGradient>
<linearGradient id="paint76_linear_307_18238" x1="481.012" y1="568.259" x2="703.692" y2="610.823" gradientUnits="userSpaceOnUse">
<stop stop-color="#DE701D"/>
<stop offset="1" stop-color="#121212"/>
</linearGradient>
<linearGradient id="paint77_linear_307_18238" x1="480.647" y1="570.167" x2="704.036" y2="608.837" gradientUnits="userSpaceOnUse">
<stop stop-color="#DE701D"/>
<stop offset="1" stop-color="#121212"/>
</linearGradient>
<linearGradient id="paint78_linear_307_18238" x1="480.316" y1="572.075" x2="704.346" y2="606.841" gradientUnits="userSpaceOnUse">
<stop stop-color="#DE701D"/>
<stop offset="1" stop-color="#121212"/>
</linearGradient>
<linearGradient id="paint79_linear_307_18238" x1="480.017" y1="573.997" x2="704.618" y2="604.848" gradientUnits="userSpaceOnUse">
<stop stop-color="#DE701D"/>
<stop offset="1" stop-color="#121212"/>
</linearGradient>
<linearGradient id="paint80_linear_307_18238" x1="479.754" y1="575.917" x2="704.86" y2="602.844" gradientUnits="userSpaceOnUse">
<stop stop-color="#DE701D"/>
<stop offset="1" stop-color="#121212"/>
</linearGradient>
<linearGradient id="paint81_linear_307_18238" x1="479.527" y1="577.845" x2="705.068" y2="600.839" gradientUnits="userSpaceOnUse">
<stop stop-color="#DE701D"/>
<stop offset="1" stop-color="#121212"/>
</linearGradient>
<linearGradient id="paint82_linear_307_18238" x1="479.328" y1="579.776" x2="705.236" y2="598.83" gradientUnits="userSpaceOnUse">
<stop stop-color="#DE701D"/>
<stop offset="1" stop-color="#121212"/>
</linearGradient>
<linearGradient id="paint83_linear_307_18238" x1="479.167" y1="581.712" x2="705.374" y2="596.821" gradientUnits="userSpaceOnUse">
<stop stop-color="#DE701D"/>
<stop offset="1" stop-color="#121212"/>
</linearGradient>
<linearGradient id="paint84_linear_307_18238" x1="479.039" y1="583.646" x2="705.475" y2="594.804" gradientUnits="userSpaceOnUse">
<stop stop-color="#DE701D"/>
<stop offset="1" stop-color="#121212"/>
</linearGradient>
<linearGradient id="paint85_linear_307_18238" x1="478.943" y1="585.585" x2="705.539" y2="592.79" gradientUnits="userSpaceOnUse">
<stop stop-color="#DE701D"/>
<stop offset="1" stop-color="#121212"/>
</linearGradient>
<linearGradient id="paint86_linear_307_18238" x1="478.88" y1="587.527" x2="705.568" y2="590.776" gradientUnits="userSpaceOnUse">
<stop stop-color="#DE701D"/>
<stop offset="1" stop-color="#121212"/>
</linearGradient>
<linearGradient id="paint87_linear_307_18238" x1="478.854" y1="589.464" x2="705.564" y2="588.756" gradientUnits="userSpaceOnUse">
<stop stop-color="#DE701D"/>
<stop offset="1" stop-color="#121212"/>
</linearGradient>
<linearGradient id="paint88_linear_307_18238" x1="478.859" y1="591.408" x2="705.522" y2="586.744" gradientUnits="userSpaceOnUse">
<stop stop-color="#DE701D"/>
<stop offset="1" stop-color="#121212"/>
</linearGradient>
<linearGradient id="paint89_linear_307_18238" x1="478.898" y1="593.347" x2="705.444" y2="584.728" gradientUnits="userSpaceOnUse">
<stop stop-color="#DE701D"/>
<stop offset="1" stop-color="#121212"/>
</linearGradient>
<linearGradient id="paint90_linear_307_18238" x1="478.975" y1="595.287" x2="705.337" y2="582.716" gradientUnits="userSpaceOnUse">
<stop stop-color="#DE701D"/>
<stop offset="1" stop-color="#121212"/>
</linearGradient>
<linearGradient id="paint91_linear_307_18238" x1="479.08" y1="597.224" x2="705.188" y2="580.704" gradientUnits="userSpaceOnUse">
<stop stop-color="#DE701D"/>
<stop offset="1" stop-color="#121212"/>
</linearGradient>
<linearGradient id="paint92_linear_307_18238" x1="479.227" y1="599.161" x2="705.013" y2="578.697" gradientUnits="userSpaceOnUse">
<stop stop-color="#DE701D"/>
<stop offset="1" stop-color="#121212"/>
</linearGradient>
<linearGradient id="paint93_linear_307_18238" x1="479.4" y1="601.096" x2="704.794" y2="576.694" gradientUnits="userSpaceOnUse">
<stop stop-color="#DE701D"/>
<stop offset="1" stop-color="#121212"/>
</linearGradient>
<linearGradient id="paint94_linear_307_18238" x1="479.609" y1="603.023" x2="704.543" y2="574.692" gradientUnits="userSpaceOnUse">
<stop stop-color="#DE701D"/>
<stop offset="1" stop-color="#121212"/>
</linearGradient>
<linearGradient id="paint95_linear_307_18238" x1="479.853" y1="604.952" x2="704.257" y2="572.699" gradientUnits="userSpaceOnUse">
<stop stop-color="#DE701D"/>
<stop offset="1" stop-color="#121212"/>
</linearGradient>
<linearGradient id="paint96_linear_307_18238" x1="480.127" y1="606.87" x2="703.935" y2="570.706" gradientUnits="userSpaceOnUse">
<stop stop-color="#DE701D"/>
<stop offset="1" stop-color="#121212"/>
</linearGradient>
<linearGradient id="paint97_linear_307_18238" x1="480.437" y1="608.786" x2="703.58" y2="568.722" gradientUnits="userSpaceOnUse">
<stop stop-color="#DE701D"/>
<stop offset="1" stop-color="#121212"/>
</linearGradient>
<linearGradient id="paint98_linear_307_18238" x1="480.78" y1="610.7" x2="703.189" y2="566.747" gradientUnits="userSpaceOnUse">
<stop stop-color="#DE701D"/>
<stop offset="1" stop-color="#121212"/>
</linearGradient>
<linearGradient id="paint99_linear_307_18238" x1="481.158" y1="612.603" x2="702.767" y2="564.775" gradientUnits="userSpaceOnUse">
<stop stop-color="#DE701D"/>
<stop offset="1" stop-color="#121212"/>
</linearGradient>
</defs>
</svg>
