<svg width="677" height="1116" viewBox="0 0 677 1116" fill="none" xmlns="http://www.w3.org/2000/svg">
<path d="M85.9728 856.059C188.369 781.664 268.522 697.067 315.341 620.445C338.751 582.134 353.817 545.832 359.173 513.808C364.529 481.786 360.173 454.07 344.778 432.881C329.384 411.693 304.371 398.985 272.261 394.183C240.149 389.381 200.968 392.493 157.298 402.918C69.9585 423.768 -35.2665 473.856 -137.663 548.251C-240.059 622.646 -320.212 707.243 -367.031 783.864C-390.441 822.176 -405.507 858.478 -410.863 890.502C-416.219 922.524 -411.863 950.24 -396.468 971.429C-381.074 992.617 -356.061 1005.33 -323.951 1010.13C-291.839 1014.93 -252.658 1011.82 -208.988 1001.39C-121.648 980.542 -16.4235 930.454 85.9728 856.059Z" stroke="url(#paint0_linear_311_18738)" stroke-opacity="0.3" stroke-width="0.717125"/>
<path d="M88.6421 854.087C189.724 777.916 268.388 691.933 313.863 614.506C336.601 575.792 351.031 539.233 355.828 507.12C360.624 475.009 355.785 447.374 340.023 426.457C324.261 405.54 299.03 393.271 266.841 389.031C234.65 384.79 195.529 388.584 152.048 399.77C65.0856 422.141 -39.2491 474.058 -140.331 550.229C-241.414 626.4 -320.078 712.383 -365.552 789.81C-388.29 828.524 -402.721 865.083 -407.517 897.196C-412.314 929.307 -407.474 956.942 -391.712 977.859C-375.95 998.776 -350.719 1011.05 -318.53 1015.29C-286.339 1019.53 -247.219 1015.73 -203.737 1004.55C-116.775 982.175 -12.4403 930.258 88.6421 854.087Z" stroke="url(#paint1_linear_311_18738)" stroke-opacity="0.3" stroke-width="0.717125"/>
<path d="M91.2744 852.064C191.012 774.14 268.163 686.798 312.28 608.589C334.338 569.484 348.129 532.678 352.364 500.487C356.599 468.297 351.278 440.75 335.154 420.112C319.029 399.473 293.588 387.646 261.33 383.968C229.07 380.29 190.021 384.766 146.741 396.709C60.1831 420.595 -43.2297 474.325 -142.967 552.248C-242.705 630.172 -319.856 717.514 -363.973 795.723C-386.031 834.828 -399.821 871.633 -404.057 903.825C-408.292 936.015 -402.971 963.562 -386.847 984.2C-370.722 1004.84 -345.281 1016.67 -313.022 1020.34C-280.763 1024.02 -241.714 1019.55 -198.434 1007.6C-111.876 983.717 -8.46314 929.987 91.2744 852.064Z" stroke="url(#paint2_linear_311_18738)" stroke-opacity="0.3" stroke-width="0.717125"/>
<path d="M93.8739 850C192.236 770.347 267.852 681.672 310.596 602.705C331.969 563.221 345.115 526.18 348.788 493.92C352.461 461.661 346.66 434.211 330.177 413.857C313.695 393.503 288.051 382.122 255.734 379.007C223.415 375.893 184.45 381.05 141.385 393.747C55.2571 419.139 -47.2022 474.665 -145.565 554.318C-243.927 633.97 -319.542 722.646 -362.287 801.613C-383.66 841.097 -396.806 878.137 -400.479 910.398C-404.151 942.657 -398.35 970.107 -381.868 990.46C-365.386 1010.81 -339.742 1022.2 -307.425 1025.31C-275.105 1028.42 -236.141 1023.27 -193.076 1010.57C-106.948 985.178 -4.48852 929.652 93.8739 850Z" stroke="url(#paint3_linear_311_18738)" stroke-opacity="0.3" stroke-width="0.717125"/>
<path d="M96.4363 847.883C193.394 766.526 267.45 676.544 308.81 596.843C329.49 556.992 341.988 519.728 345.097 487.408C348.206 455.09 341.927 427.745 325.092 407.682C308.257 387.619 282.419 376.687 250.052 374.137C217.683 371.587 178.815 377.424 135.978 390.87C50.3059 417.762 -51.1688 475.068 -148.126 556.425C-245.083 637.781 -319.14 727.763 -360.5 807.464C-381.18 847.315 -393.678 884.58 -396.787 916.899C-399.896 949.217 -393.617 976.562 -376.782 996.625C-359.947 1016.69 -334.108 1027.62 -301.741 1030.17C-269.373 1032.72 -230.504 1026.88 -187.668 1013.44C-101.996 986.546 -0.520989 929.24 96.4363 847.883Z" stroke="url(#paint4_linear_311_18738)" stroke-opacity="0.3" stroke-width="0.717125"/>
<path d="M98.9577 845.727C194.48 762.691 266.955 671.43 306.918 591.02C326.899 550.814 338.745 513.337 341.289 480.968C343.834 448.601 337.079 421.37 319.896 401.604C302.714 381.838 276.688 371.358 244.282 369.373C211.873 367.388 173.113 373.903 130.517 388.094C45.3277 416.477 -55.1314 475.545 -150.654 558.582C-246.177 641.619 -318.651 732.879 -358.614 813.29C-378.596 853.496 -390.441 890.972 -392.986 923.342C-395.53 955.709 -388.775 982.94 -371.593 1002.71C-354.41 1022.47 -328.385 1032.95 -295.978 1034.94C-263.57 1036.92 -224.809 1030.41 -182.214 1016.22C-97.024 987.832 3.43506 928.764 98.9577 845.727Z" stroke="url(#paint5_linear_311_18738)" stroke-opacity="0.3" stroke-width="0.717125"/>
<path d="M101.446 843.53C195.505 758.839 266.376 666.327 304.929 585.231C324.206 544.683 335.395 507.005 337.375 474.596C339.354 442.19 332.125 415.081 314.6 395.618C297.075 376.154 270.871 366.131 238.434 364.712C205.996 363.293 167.355 370.482 125.014 385.415C40.3328 415.281 -59.0801 476.093 -153.139 560.784C-247.198 645.475 -318.069 737.987 -356.622 819.082C-375.899 859.631 -387.088 897.309 -389.068 929.717C-391.047 962.124 -383.818 989.233 -366.293 1008.7C-348.768 1028.16 -322.564 1038.18 -290.127 1039.6C-257.689 1041.02 -219.048 1033.83 -176.707 1018.9C-92.0257 989.033 7.38718 928.221 101.446 843.53Z" stroke="url(#paint6_linear_311_18738)" stroke-opacity="0.3" stroke-width="0.717125"/>
<path d="M103.894 841.288C196.46 754.968 265.706 661.234 302.838 579.478C321.404 538.599 331.934 500.732 333.348 468.294C334.762 435.857 327.06 408.879 309.198 389.724C291.336 370.57 264.961 361.005 232.505 360.152C200.047 359.3 161.537 367.163 119.463 382.832C35.3158 414.171 -63.0206 476.709 -155.587 563.029C-248.154 649.349 -317.399 743.083 -354.531 824.839C-373.098 865.718 -383.628 903.585 -385.041 936.023C-386.455 968.46 -378.753 995.438 -360.891 1014.59C-343.03 1033.75 -316.654 1043.31 -284.198 1044.16C-251.74 1045.02 -213.231 1037.15 -171.156 1021.48C-87.0092 990.146 11.3273 927.608 103.894 841.288Z" stroke="url(#paint7_linear_311_18738)" stroke-opacity="0.3" stroke-width="0.717125"/>
<path d="M106.305 839.002C197.351 751.08 264.95 656.152 300.649 573.76C318.499 532.563 328.367 494.518 329.214 462.06C330.062 429.604 321.89 402.764 303.697 383.924C285.503 365.084 258.965 355.981 226.499 355.695C194.031 355.409 155.665 363.943 113.87 380.345C30.2829 413.147 -66.9471 477.392 -157.993 565.314C-249.039 653.236 -316.638 748.165 -352.338 830.556C-370.188 871.753 -380.055 909.798 -380.903 942.256C-381.75 974.712 -373.578 1001.55 -355.385 1020.39C-337.192 1039.23 -310.653 1048.33 -278.187 1048.62C-245.72 1048.91 -207.353 1040.37 -165.559 1023.97C-81.9713 991.169 15.2587 926.924 106.305 839.002Z" stroke="url(#paint8_linear_311_18738)" stroke-opacity="0.3" stroke-width="0.717125"/>
<path d="M108.669 836.675C198.167 747.178 264.099 651.084 298.355 568.081C315.484 526.58 324.686 488.368 324.966 455.9C325.247 423.434 316.609 396.741 298.089 378.221C279.57 359.702 252.877 351.064 220.411 351.344C187.943 351.625 149.731 360.827 108.229 377.955C25.227 412.212 -70.867 478.144 -160.365 567.641C-249.862 657.139 -315.794 753.233 -350.051 836.235C-367.179 877.737 -376.381 915.949 -376.662 948.417C-376.942 980.883 -368.304 1007.58 -349.785 1026.1C-331.265 1044.61 -304.572 1053.25 -272.106 1052.97C-239.638 1052.69 -201.426 1043.49 -159.925 1026.36C-76.9223 992.105 19.1717 926.173 108.669 836.675Z" stroke="url(#paint9_linear_311_18738)" stroke-opacity="0.3" stroke-width="0.717125"/>
<path d="M110.996 834.307C198.918 743.261 263.163 646.031 295.965 562.443C312.367 520.649 320.9 482.282 320.614 449.814C320.328 417.348 311.225 390.81 292.385 372.617C273.546 354.423 246.706 346.252 214.25 347.099C181.792 347.947 143.746 357.814 102.55 375.664C20.1581 411.364 -74.7706 478.963 -162.693 570.009C-250.615 661.055 -314.86 758.285 -347.662 841.872C-364.064 883.667 -372.597 922.033 -372.311 954.501C-372.025 986.967 -362.922 1013.51 -344.082 1031.7C-325.243 1049.89 -298.403 1058.06 -265.947 1057.22C-233.489 1056.37 -195.443 1046.5 -154.247 1028.65C-71.8551 992.952 23.0736 925.353 110.996 834.307Z" stroke="url(#paint10_linear_311_18738)" stroke-opacity="0.3" stroke-width="0.717125"/>
<path d="M113.282 831.899C199.602 739.333 262.14 640.996 293.479 556.849C309.148 514.775 317.011 476.265 316.159 443.807C315.306 411.351 305.741 384.976 286.587 367.114C267.432 349.252 240.454 341.55 208.018 342.964C175.579 344.377 137.712 354.908 96.8332 373.474C15.0772 410.606 -78.6573 479.851 -164.977 572.418C-251.297 664.985 -313.835 763.321 -345.174 847.468C-360.843 889.543 -368.706 928.052 -367.853 960.51C-367.001 992.966 -357.436 1019.34 -338.282 1037.2C-319.127 1055.07 -292.149 1062.77 -259.712 1061.35C-227.274 1059.94 -189.407 1049.41 -148.528 1030.84C-66.7718 993.711 26.9627 924.466 113.282 831.899Z" stroke="url(#paint11_linear_311_18738)" stroke-opacity="0.3" stroke-width="0.717125"/>
<path d="M115.526 829.452C200.217 735.393 261.029 635.98 290.894 551.299C305.827 508.958 313.017 470.317 311.598 437.879C310.179 405.442 300.155 379.238 280.692 361.713C261.229 344.188 234.12 336.959 201.713 338.938C169.305 340.918 131.627 352.107 91.0784 371.384C9.98284 409.937 -82.5289 480.808 -167.22 574.867C-251.911 668.926 -312.723 768.339 -342.589 853.02C-357.522 895.361 -364.711 934.002 -363.292 966.44C-361.873 998.877 -351.85 1025.08 -332.386 1042.61C-312.923 1060.13 -285.814 1067.36 -253.408 1065.38C-220.999 1063.4 -183.321 1052.21 -142.773 1032.94C-61.6771 994.382 30.8346 923.511 115.526 829.452Z" stroke="url(#paint12_linear_311_18738)" stroke-opacity="0.3" stroke-width="0.717125"/>
<path d="M117.728 826.961C200.764 731.438 259.833 630.979 288.216 545.79C302.407 503.194 308.921 464.433 306.937 432.025C304.952 399.619 294.472 373.593 274.706 356.411C254.94 339.228 227.709 332.473 195.342 335.017C162.973 337.562 125.496 349.407 85.29 369.389C4.87964 409.352 -86.3811 481.826 -169.418 577.349C-252.454 672.872 -311.523 773.331 -339.905 858.52C-354.097 901.116 -360.611 939.877 -358.626 972.285C-356.642 1004.69 -346.162 1030.72 -326.396 1047.9C-306.63 1065.08 -279.399 1071.84 -247.032 1069.29C-214.663 1066.75 -177.186 1054.9 -136.98 1034.92C-56.5695 994.958 34.6913 922.484 117.728 826.961Z" stroke="url(#paint13_linear_311_18738)" stroke-opacity="0.3" stroke-width="0.717125"/>
<path d="M119.878 824.437C201.235 727.479 258.541 626.005 285.432 540.333C298.878 497.496 304.715 458.628 302.165 426.259C299.615 393.892 288.683 368.053 268.62 351.218C248.557 334.384 221.212 328.104 188.894 331.213C156.575 334.323 119.31 346.82 79.4592 367.501C-0.241504 408.861 -90.2235 482.917 -171.58 579.874C-252.937 676.832 -310.243 778.306 -337.135 863.978C-350.581 906.815 -356.418 945.683 -353.868 978.052C-351.318 1010.42 -340.385 1036.26 -320.322 1053.09C-300.259 1069.93 -272.915 1076.21 -240.597 1073.1C-208.277 1069.99 -171.013 1057.49 -131.162 1036.81C-51.461 995.45 38.5209 921.394 119.878 824.437Z" stroke="url(#paint14_linear_311_18738)" stroke-opacity="0.3" stroke-width="0.717125"/>
<path d="M121.994 821.878C201.646 723.516 257.172 621.056 282.565 534.928C295.261 491.863 300.419 452.899 297.304 420.58C294.19 388.262 282.808 362.618 262.454 346.136C242.101 329.654 214.651 323.853 182.392 327.526C150.131 331.199 113.091 344.344 73.6067 365.717C-5.36003 408.462 -94.0359 484.077 -173.688 582.44C-253.341 680.802 -308.867 783.262 -334.259 869.39C-346.956 912.455 -352.113 951.419 -348.999 983.738C-345.884 1016.06 -334.503 1041.7 -314.149 1058.18C-293.795 1074.66 -266.345 1080.47 -234.086 1076.79C-201.826 1073.12 -164.785 1059.97 -125.301 1038.6C-46.3343 995.856 42.3415 920.241 121.994 821.878Z" stroke="url(#paint15_linear_311_18738)" stroke-opacity="0.3" stroke-width="0.717125"/>
<path d="M124.06 819.277C201.984 719.54 255.714 616.127 279.599 529.569C291.542 486.289 296.019 447.24 292.34 414.98C288.662 382.722 276.835 357.281 256.197 341.156C235.559 325.032 208.012 319.711 175.822 323.946C143.63 328.181 106.825 341.972 67.7196 364.03C-10.4891 408.147 -97.8317 485.298 -175.755 585.036C-253.679 684.773 -307.408 788.186 -331.294 874.744C-343.237 918.024 -347.713 957.073 -344.035 989.333C-340.357 1021.59 -328.53 1047.03 -307.892 1063.16C-287.253 1079.28 -259.706 1084.6 -227.516 1080.37C-195.325 1076.13 -158.519 1062.34 -119.414 1040.28C-41.2057 996.166 46.1369 919.015 124.06 819.277Z" stroke="url(#paint16_linear_311_18738)" stroke-opacity="0.3" stroke-width="0.717125"/>
<path d="M126.081 816.641C202.252 715.559 254.169 611.224 276.54 524.262C287.726 480.78 291.52 441.659 287.279 409.469C283.039 377.279 270.769 352.048 249.853 336.286C228.936 320.525 201.3 315.685 169.189 320.481C137.077 325.278 100.518 339.709 61.8034 362.446C-15.6235 407.921 -101.606 486.585 -177.777 587.667C-253.948 688.75 -305.865 793.084 -328.236 880.046C-339.422 923.528 -343.216 962.649 -338.976 994.84C-334.735 1027.03 -322.466 1052.26 -301.549 1068.02C-280.633 1083.78 -252.997 1088.62 -220.886 1083.83C-188.773 1079.03 -152.214 1064.6 -113.5 1041.86C-36.073 996.387 49.9099 917.723 126.081 816.641Z" stroke="url(#paint17_linear_311_18738)" stroke-opacity="0.3" stroke-width="0.717125"/>
<path d="M128.059 813.976C202.454 711.58 252.542 606.355 273.392 519.015C283.818 475.345 286.929 436.164 282.127 404.052C277.325 371.942 264.617 346.929 243.429 331.535C222.24 316.14 194.524 311.784 162.502 317.14C130.478 322.496 94.1762 337.562 55.8647 360.972C-20.7567 407.791 -105.354 487.944 -179.749 590.34C-254.144 692.736 -304.232 797.961 -325.082 885.301C-335.507 928.971 -338.618 968.152 -333.817 1000.26C-329.015 1032.37 -316.307 1057.39 -295.119 1072.78C-273.93 1088.18 -246.214 1092.53 -214.192 1087.18C-182.168 1081.82 -145.866 1066.75 -107.554 1043.34C-30.933 996.525 53.6639 916.372 128.059 813.976Z" stroke="url(#paint18_linear_311_18738)" stroke-opacity="0.3" stroke-width="0.717125"/>
<path d="M129.987 811.269C202.583 707.59 250.827 601.507 270.15 513.818C279.811 469.972 282.238 430.743 276.877 398.719C271.515 366.698 258.373 341.91 236.919 326.888C215.465 311.866 187.677 307.994 155.753 313.908C123.827 319.822 87.7942 335.52 49.8971 359.595C-25.8955 407.744 -109.081 489.361 -181.678 593.04C-254.274 696.719 -302.518 802.802 -321.841 890.492C-331.502 934.338 -333.929 973.567 -328.568 1005.59C-323.206 1037.61 -310.064 1062.4 -288.61 1077.42C-267.156 1092.44 -239.368 1096.32 -207.444 1090.4C-175.518 1084.49 -139.485 1068.79 -101.588 1044.71C-25.7955 996.566 57.3897 914.949 129.987 811.269Z" stroke="url(#paint19_linear_311_18738)" stroke-opacity="0.3" stroke-width="0.717125"/>
<path d="M131.862 808.537C202.638 703.607 249.023 596.698 266.812 508.684C275.707 464.676 277.449 425.411 271.529 393.486C265.61 361.563 252.037 337.009 230.324 322.363C208.611 307.718 180.76 304.331 148.944 310.801C117.127 317.272 81.3729 333.596 43.9017 358.329C-31.0391 407.793 -112.787 490.85 -183.563 595.78C-254.34 700.71 -300.725 807.619 -318.514 895.633C-327.409 939.64 -329.151 978.906 -323.231 1010.83C-317.312 1042.75 -303.739 1067.31 -282.026 1081.95C-260.313 1096.6 -232.462 1099.99 -200.646 1093.52C-168.828 1087.04 -133.075 1070.72 -95.6035 1045.99C-20.6627 996.523 61.0854 913.467 131.862 808.537Z" stroke="url(#paint20_linear_311_18738)" stroke-opacity="0.3" stroke-width="0.717125"/>
<path d="M133.696 805.765C202.63 699.616 247.142 591.914 263.393 503.603C271.518 459.447 272.574 420.157 266.098 388.34C259.623 356.526 245.623 332.212 223.658 317.947C201.693 303.683 173.787 300.783 142.089 307.808C110.389 314.833 74.9256 331.778 37.8918 357.161C-36.1743 407.926 -116.46 492.396 -185.395 598.546C-254.329 704.695 -298.841 812.397 -315.092 900.708C-323.217 944.864 -324.273 984.154 -317.798 1015.97C-311.322 1047.79 -297.322 1072.1 -275.357 1086.36C-253.392 1100.63 -225.486 1103.53 -193.788 1096.5C-162.088 1089.48 -126.625 1072.53 -89.5908 1047.15C-15.5247 996.385 64.7614 911.915 133.696 805.765Z" stroke="url(#paint21_linear_311_18738)" stroke-opacity="0.3" stroke-width="0.717125"/>
<path d="M135.481 802.97C202.552 695.633 245.178 587.171 259.885 498.59C267.238 454.299 267.609 414.996 260.579 383.297C253.549 351.6 239.127 327.535 216.916 313.656C194.706 299.777 166.753 297.365 135.183 304.941C103.61 312.518 68.4478 330.08 31.8626 356.106C-41.3062 408.155 -120.106 494.014 -187.177 601.35C-254.248 708.687 -296.874 817.149 -311.581 905.73C-318.934 950.022 -319.305 989.324 -312.275 1021.02C-305.245 1052.72 -290.823 1076.79 -268.612 1090.66C-246.402 1104.54 -218.449 1106.96 -186.879 1099.38C-155.306 1091.8 -120.144 1074.24 -83.5586 1048.21C-10.3898 996.165 68.4099 910.306 135.481 802.97Z" stroke="url(#paint22_linear_311_18738)" stroke-opacity="0.3" stroke-width="0.717125"/>
<path d="M137.219 800.133C202.407 691.643 243.133 582.453 256.292 493.629C262.871 449.216 262.556 409.913 254.974 378.342C247.392 346.772 232.552 322.962 210.102 309.473C187.653 295.984 159.663 294.059 128.229 302.186C96.7936 310.313 61.9431 328.486 25.8178 355.146C-46.4316 408.464 -123.721 495.685 -188.909 604.176C-254.096 712.666 -294.823 821.857 -307.981 910.681C-314.561 955.093 -314.245 994.396 -306.663 1025.97C-299.081 1057.54 -284.241 1081.35 -261.792 1094.84C-239.342 1108.33 -211.352 1110.25 -179.918 1102.12C-148.483 1094 -113.632 1075.82 -77.507 1049.16C-5.25765 995.845 72.0316 908.624 137.219 800.133Z" stroke="url(#paint23_linear_311_18738)" stroke-opacity="0.3" stroke-width="0.717125"/>
<path d="M138.901 797.275C202.186 687.663 241 577.779 252.607 488.739C258.41 444.218 257.409 404.926 249.276 373.492C241.145 342.06 225.892 318.512 203.21 305.417C180.529 292.322 152.509 290.886 121.222 299.56C89.9332 308.234 55.4052 327.013 19.7506 354.299C-51.5572 408.871 -127.312 497.427 -190.597 607.039C-253.881 716.651 -292.696 826.535 -304.302 915.575C-310.105 960.096 -309.104 999.387 -300.972 1030.82C-292.84 1062.25 -277.587 1085.8 -254.906 1098.9C-232.224 1111.99 -204.205 1113.43 -172.917 1104.75C-141.629 1096.08 -107.101 1077.3 -71.4461 1050.01C-0.13827 995.443 75.617 906.887 138.901 797.275Z" stroke="url(#paint24_linear_311_18738)" stroke-opacity="0.3" stroke-width="0.717125"/>
<path d="M140.538 794.386C201.9 683.686 238.791 573.141 248.841 483.912C253.867 439.297 252.18 400.029 243.5 368.741C234.821 337.456 219.16 314.178 196.253 301.48C173.346 288.783 145.306 287.837 114.175 297.055C83.0424 306.274 48.8474 325.653 13.6745 353.557C-56.6701 409.365 -130.868 499.23 -192.23 609.929C-253.592 720.629 -290.483 831.174 -300.533 920.403C-305.559 965.018 -303.872 1004.29 -295.192 1035.57C-286.513 1066.86 -270.852 1090.14 -247.945 1102.83C-225.038 1115.53 -196.998 1116.48 -165.867 1107.26C-134.734 1098.04 -100.539 1078.66 -65.3664 1050.76C4.97808 994.95 79.1762 905.085 140.538 794.386Z" stroke="url(#paint25_linear_311_18738)" stroke-opacity="0.3" stroke-width="0.717125"/>
<path d="M142.121 791.468C201.541 679.715 236.497 568.543 244.989 479.152C249.235 434.456 246.863 395.223 237.639 364.092C228.415 332.963 212.35 309.961 189.225 297.666C166.1 285.37 138.048 284.913 107.082 294.674C76.1152 304.435 42.2636 324.407 7.58298 352.921C-61.7769 409.948 -134.395 501.094 -193.816 612.848C-253.236 724.601 -288.192 835.773 -296.684 925.164C-300.93 969.86 -298.558 1009.09 -289.334 1040.22C-280.11 1071.35 -264.045 1094.35 -240.92 1106.65C-217.795 1118.95 -189.743 1119.4 -158.777 1109.64C-127.81 1099.88 -93.9586 1079.91 -59.278 1051.4C10.0818 994.368 82.7003 903.222 142.121 791.468Z" stroke="url(#paint26_linear_311_18738)" stroke-opacity="0.3" stroke-width="0.717125"/>
<path d="M143.655 788.522C201.116 675.749 234.126 563.984 241.056 474.458C244.522 429.695 241.465 390.51 231.699 359.544C221.934 328.581 205.469 305.863 182.133 293.973C158.798 282.083 130.741 282.116 99.9511 292.415C69.1592 302.715 35.6613 323.275 1.48359 352.39C-66.8704 410.619 -137.887 503.018 -195.348 615.792C-252.809 728.566 -285.82 840.331 -292.75 929.856C-296.215 974.62 -293.159 1013.8 -283.393 1044.77C-273.627 1075.73 -257.163 1098.45 -233.827 1110.34C-210.491 1122.23 -182.435 1122.2 -151.645 1111.9C-120.853 1101.6 -87.3548 1081.04 -53.1772 1051.92C15.1768 993.696 86.1935 901.296 143.655 788.522Z" stroke="url(#paint27_linear_311_18738)" stroke-opacity="0.3" stroke-width="0.717125"/>
<path d="M145.135 785.551C200.619 671.791 231.674 559.467 237.041 469.834C239.725 425.017 235.985 385.891 225.68 355.101C215.375 324.313 198.517 301.886 174.977 290.405C151.437 278.924 123.386 279.446 92.7801 290.282C62.1725 301.117 29.0386 322.259 -4.62577 351.966C-71.9531 411.378 -141.346 505.004 -196.831 618.763C-252.315 732.522 -283.369 844.846 -288.736 934.479C-291.42 979.296 -287.68 1018.42 -277.375 1049.21C-267.071 1080 -250.212 1102.43 -226.672 1113.91C-203.133 1125.39 -175.081 1124.87 -144.475 1114.03C-113.868 1103.2 -80.734 1082.05 -47.0697 1052.35C20.2577 992.935 89.651 899.31 145.135 785.551Z" stroke="url(#paint28_linear_311_18738)" stroke-opacity="0.3" stroke-width="0.717125"/>
<path d="M146.567 782.556C200.058 667.846 229.147 554.997 232.949 465.284C234.85 420.426 230.428 381.372 219.587 350.766C208.747 320.162 191.5 298.033 167.763 286.965C144.027 275.896 115.989 276.908 85.5766 288.276C55.1628 299.644 22.4029 321.361 -10.7379 351.651C-77.0181 412.229 -144.767 507.051 -198.257 621.762C-251.747 736.472 -280.837 849.321 -284.639 939.034C-286.54 983.891 -282.118 1022.95 -271.277 1053.55C-260.437 1084.16 -243.19 1106.28 -219.453 1117.35C-195.717 1128.42 -167.679 1127.41 -137.266 1116.04C-106.853 1104.67 -74.0928 1082.96 -40.952 1052.67C25.3282 992.088 93.077 897.266 146.567 782.556Z" stroke="url(#paint29_linear_311_18738)" stroke-opacity="0.3" stroke-width="0.717125"/>
<path d="M147.941 779.533C199.421 663.907 226.537 550.567 228.772 460.802C229.89 415.918 224.787 376.947 213.414 346.535C202.041 316.125 184.41 294.3 160.484 283.647C136.558 272.995 108.542 274.496 78.3329 286.393C48.1222 298.29 15.7462 320.575 -16.8609 351.439C-82.0737 413.165 -148.157 509.155 -199.637 624.781C-251.118 740.408 -278.233 853.747 -280.469 943.513C-281.587 988.396 -276.484 1027.37 -265.111 1057.78C-253.738 1088.19 -236.107 1110.01 -212.181 1120.67C-188.255 1131.32 -160.239 1129.82 -130.03 1117.92C-99.819 1106.02 -67.443 1083.74 -34.8359 1052.88C30.377 991.149 96.4606 895.159 147.941 779.533Z" stroke="url(#paint30_linear_311_18738)" stroke-opacity="0.3" stroke-width="0.717125"/>
<path d="M149.269 776.489C198.723 659.982 223.857 546.187 224.525 456.396C224.86 411.5 219.077 372.623 207.175 342.415C195.273 312.207 177.264 290.694 153.156 280.461C129.047 270.227 101.062 272.217 71.0651 284.639C41.0666 297.062 9.08447 319.909 -22.979 351.337C-87.1047 414.192 -151.503 511.32 -200.957 627.827C-250.412 744.334 -275.545 858.13 -276.214 947.921C-276.548 992.817 -270.766 1031.69 -258.864 1061.9C-246.962 1092.11 -228.953 1113.62 -204.845 1123.86C-180.736 1134.09 -152.751 1132.1 -122.754 1119.68C-92.7554 1107.25 -60.7733 1084.41 -28.7098 1052.98C35.4159 990.125 99.8141 892.997 149.269 776.489Z" stroke="url(#paint31_linear_311_18738)" stroke-opacity="0.3" stroke-width="0.717125"/>
<path d="M150.539 773.419C197.952 656.067 221.096 541.85 220.198 452.061C219.748 407.166 213.288 368.396 200.86 338.4C188.433 308.405 170.052 287.209 145.768 277.398C121.485 267.587 93.5385 270.065 63.763 283.009C33.9859 295.953 2.4074 319.354 -29.1027 351.337C-92.1216 415.302 -154.815 513.539 -202.228 630.892C-249.642 748.245 -272.786 862.461 -271.887 952.25C-271.438 997.145 -264.978 1035.91 -252.55 1065.91C-240.123 1095.91 -221.742 1117.1 -197.458 1126.91C-173.175 1136.72 -145.228 1134.25 -115.453 1121.3C-85.6759 1108.36 -54.0973 1084.96 -22.5872 1052.97C40.4317 989.009 103.125 890.772 150.539 773.419Z" stroke="url(#paint32_linear_311_18738)" stroke-opacity="0.3" stroke-width="0.717125"/>
<path d="M151.754 770.334C197.112 652.172 218.259 537.568 215.794 447.809C214.561 402.928 207.426 364.277 194.476 334.502C181.528 304.729 162.779 283.857 138.328 274.471C113.877 265.086 85.978 268.051 56.433 281.512C26.8864 294.975 -4.27896 318.923 -35.2261 351.451C-97.1191 416.506 -158.088 515.823 -203.447 633.985C-248.805 752.147 -269.952 866.75 -267.486 956.51C-266.254 1001.39 -259.118 1040.04 -246.169 1069.82C-233.22 1099.59 -214.471 1120.46 -190.02 1129.85C-165.57 1139.23 -137.67 1136.27 -108.125 1122.81C-78.5788 1109.34 -47.4135 1085.4 -16.4664 1052.87C45.4266 987.813 106.396 888.496 151.754 770.334Z" stroke="url(#paint33_linear_311_18738)" stroke-opacity="0.3" stroke-width="0.717125"/>
<path d="M152.917 767.224C196.206 648.288 215.35 533.333 211.318 443.63C209.302 398.778 201.493 360.257 188.026 330.713C174.56 301.17 155.45 280.629 130.839 271.671C106.228 262.714 78.3848 266.165 49.0792 280.14C19.772 294.116 -10.9706 318.605 -41.3453 351.668C-102.094 417.793 -161.32 518.159 -204.609 637.095C-247.898 756.03 -267.042 870.985 -263.011 960.688C-260.995 1005.54 -253.186 1044.06 -239.719 1073.61C-226.252 1103.15 -207.142 1123.69 -182.531 1132.65C-157.92 1141.6 -130.077 1138.15 -100.772 1124.18C-71.4644 1110.2 -40.7218 1085.71 -10.3471 1052.65C50.4011 986.525 109.628 886.159 152.917 767.224Z" stroke="url(#paint34_linear_311_18738)" stroke-opacity="0.3" stroke-width="0.717125"/>
<path d="M154.026 764.096C195.233 644.423 212.368 529.151 206.771 439.532C203.973 394.722 195.493 356.344 181.512 327.039C167.532 297.736 148.067 277.531 123.303 269.004C98.5395 260.477 70.761 264.415 41.7037 278.899C12.6449 293.384 -17.6656 318.406 -47.4587 351.994C-107.044 419.169 -164.51 520.553 -205.716 640.226C-246.923 759.899 -264.058 875.171 -258.461 964.79C-255.663 1009.6 -247.183 1047.98 -233.202 1077.28C-219.222 1106.59 -199.757 1126.79 -174.993 1135.32C-150.23 1143.84 -122.451 1139.91 -93.3938 1125.42C-64.335 1110.94 -34.0244 1085.92 -4.23134 1052.33C55.3536 985.153 112.82 883.769 154.026 764.096Z" stroke="url(#paint35_linear_311_18738)" stroke-opacity="0.3" stroke-width="0.717125"/>
<path d="M155.076 760.941C194.188 640.567 209.308 525.014 202.149 435.507C198.569 390.752 189.42 352.528 174.93 323.471C160.441 294.416 140.626 274.554 115.717 266.461C90.8086 258.368 63.1029 262.789 34.3029 277.779C5.50134 292.769 -24.3679 318.316 -53.5702 352.419C-111.974 420.623 -167.662 522.995 -206.774 643.369C-245.885 763.743 -261.006 879.296 -253.846 968.803C-250.266 1013.56 -241.117 1051.78 -226.627 1080.84C-212.138 1109.89 -192.323 1129.76 -167.414 1137.85C-142.506 1145.94 -114.8 1141.52 -86.0001 1126.53C-57.1985 1111.54 -27.3292 1085.99 1.87309 1051.89C60.2766 983.687 115.964 881.315 155.076 760.941Z" stroke="url(#paint36_linear_311_18738)" stroke-opacity="0.3" stroke-width="0.717125"/>
<path d="M156.075 757.778C193.08 636.74 206.181 520.94 197.46 431.572C193.1 386.886 183.285 348.827 168.291 320.028C153.296 291.23 133.137 271.717 108.091 264.06C83.0454 256.403 55.4212 261.307 26.8871 276.797C-1.64847 292.287 -31.0673 318.351 -59.67 352.959C-116.874 422.172 -170.767 525.5 -207.772 646.539C-244.777 767.577 -257.879 883.376 -249.158 972.745C-244.797 1017.43 -234.983 1055.49 -219.988 1084.29C-204.994 1113.09 -184.835 1132.6 -159.789 1140.26C-134.743 1147.91 -107.119 1143.01 -78.5847 1127.52C-50.0492 1112.03 -20.6303 1085.97 7.97238 1051.36C65.1766 982.144 119.069 878.816 156.075 757.778Z" stroke="url(#paint37_linear_311_18738)" stroke-opacity="0.3" stroke-width="0.717125"/>
<path d="M157.02 754.593C191.908 632.928 202.986 516.917 192.707 427.714C187.567 383.112 177.09 345.23 161.595 316.697C146.1 288.166 125.604 269.007 100.428 261.788C75.2522 254.569 47.7177 259.955 19.4584 275.94C-8.8025 291.926 -37.762 318.5 -65.7563 353.601C-121.744 423.803 -173.825 528.055 -208.712 649.721C-243.599 771.387 -254.678 887.397 -244.398 976.6C-239.259 1021.2 -228.782 1059.08 -213.287 1087.62C-197.792 1116.15 -177.296 1135.31 -152.12 1142.53C-126.944 1149.75 -99.4096 1144.36 -71.1502 1128.37C-42.8894 1112.39 -13.9299 1085.81 14.0645 1050.71C70.052 980.512 122.133 876.259 157.02 754.593Z" stroke="url(#paint38_linear_311_18738)" stroke-opacity="0.3" stroke-width="0.717125"/>
<path d="M157.908 751.393C190.667 629.137 199.719 512.951 187.884 423.941C181.967 379.436 170.83 341.742 154.839 313.484C138.849 285.227 118.022 266.429 92.7237 259.651C67.4257 252.872 39.9894 258.738 12.0133 275.214C-15.9642 291.691 -44.4555 318.766 -71.833 354.35C-126.587 425.518 -176.841 530.664 -209.599 652.92C-242.358 775.176 -251.409 891.362 -239.575 980.372C-233.658 1024.88 -222.521 1062.57 -206.53 1090.83C-190.54 1119.09 -169.713 1137.88 -144.415 1144.66C-119.117 1151.44 -91.6803 1145.58 -63.7042 1129.1C-35.7267 1112.62 -7.23537 1085.55 20.1421 1049.96C74.896 978.795 125.15 873.65 157.908 751.393Z" stroke="url(#paint39_linear_311_18738)" stroke-opacity="0.3" stroke-width="0.717125"/>
<path d="M158.74 748.174C189.359 625.365 196.382 509.039 182.996 420.249C176.303 375.853 164.51 338.36 148.029 310.385C131.548 282.411 110.395 263.98 84.9828 257.644C59.5703 251.308 32.2406 257.651 4.55636 274.613C-23.1294 291.576 -51.1438 319.144 -77.8961 355.201C-131.4 427.313 -179.811 533.32 -210.43 656.129C-241.05 778.939 -248.073 895.265 -234.687 984.055C-227.994 1028.45 -216.201 1065.94 -199.72 1093.92C-183.239 1121.89 -162.086 1140.32 -136.674 1146.66C-111.261 1153 -83.9316 1146.65 -56.2473 1129.69C-28.5616 1112.73 -0.547141 1085.16 26.2051 1049.1C79.7086 976.99 128.12 870.983 158.74 748.174Z" stroke="url(#paint40_linear_311_18738)" stroke-opacity="0.3" stroke-width="0.717125"/>
<path d="M159.516 744.948C187.988 621.623 192.98 505.192 178.046 416.65C170.579 372.377 158.134 335.096 141.167 307.413C124.2 279.731 102.729 261.672 77.2099 255.78C51.6908 249.889 24.4759 256.708 -2.90808 274.15C-30.2936 291.594 -57.8226 319.647 -83.9415 356.165C-136.178 429.2 -182.732 536.036 -211.204 659.361C-239.676 782.686 -244.667 899.117 -229.734 987.66C-222.267 1031.93 -209.821 1069.21 -192.854 1096.9C-175.888 1124.58 -154.416 1142.64 -128.897 1148.53C-103.378 1154.42 -76.1634 1147.6 -48.7793 1130.16C-21.3938 1112.72 6.13518 1084.66 32.2541 1048.14C84.4909 975.109 131.045 868.273 159.516 744.948Z" stroke="url(#paint41_linear_311_18738)" stroke-opacity="0.3" stroke-width="0.717125"/>
<path d="M160.233 741.712C186.548 617.909 189.507 501.408 173.03 413.14C164.792 369.004 151.697 331.946 134.25 304.563C116.803 277.182 95.0196 259.5 69.4016 254.055C43.7835 248.609 16.6918 255.902 -10.3836 273.82C-37.4605 291.739 -64.4958 320.268 -89.9734 357.237C-140.928 431.172 -185.61 538.804 -211.925 662.607C-238.24 786.41 -241.199 902.911 -224.722 991.179C-216.484 1035.31 -203.39 1072.37 -185.942 1099.76C-168.495 1127.14 -146.712 1144.82 -121.094 1150.26C-95.4756 1155.71 -68.3839 1148.42 -41.3085 1130.5C-14.2316 1112.58 12.8037 1084.05 38.2813 1047.08C89.2355 973.146 133.918 865.515 160.233 741.712Z" stroke="url(#paint42_linear_311_18738)" stroke-opacity="0.3" stroke-width="0.717125"/>
<path d="M160.896 738.459C185.047 614.215 185.972 497.681 167.957 409.713C158.95 365.729 145.211 328.904 127.288 301.83C109.366 274.757 87.2775 257.458 61.5683 252.461C35.8591 247.464 8.89882 255.229 -17.8598 273.616C-44.6199 292.005 -71.1531 321.001 -95.9816 358.409C-145.638 433.223 -188.435 541.618 -212.585 665.861C-236.735 790.105 -237.66 906.639 -219.646 994.607C-210.638 1038.59 -196.9 1075.42 -178.977 1102.49C-161.054 1129.56 -138.966 1146.86 -113.257 1151.86C-87.5477 1156.86 -60.5874 1149.09 -33.8288 1130.7C-7.06875 1112.32 19.4645 1083.32 44.293 1045.91C93.9491 971.097 136.746 862.702 160.896 738.459Z" stroke="url(#paint43_linear_311_18738)" stroke-opacity="0.3" stroke-width="0.717125"/>
<path d="M161.5 735.192C183.478 610.546 182.369 494.013 162.822 406.373C153.048 362.552 138.669 325.973 120.276 299.216C101.884 272.46 79.4974 255.549 53.7049 251.001C27.9124 246.454 1.09172 254.688 -25.3419 273.539C-51.777 292.392 -77.8001 321.847 -101.972 359.683C-150.315 435.352 -191.213 544.477 -213.192 669.123C-235.17 793.769 -234.061 910.302 -214.514 997.942C-204.741 1041.76 -190.361 1078.34 -171.968 1105.1C-153.576 1131.85 -131.19 1148.77 -105.397 1153.31C-79.6046 1157.86 -52.7839 1149.63 -26.3503 1130.78C0.0847695 1111.92 26.1079 1082.47 50.2798 1044.63C98.6227 968.963 139.521 859.838 161.5 735.192Z" stroke="url(#paint44_linear_311_18738)" stroke-opacity="0.3" stroke-width="0.717125"/>
<path d="M162.046 731.917C181.846 606.907 178.704 490.411 157.63 403.126C147.093 359.482 132.077 323.159 113.22 296.727C94.3642 270.297 71.6856 253.779 45.8177 249.682C19.9498 245.585 -6.72309 254.286 -32.8237 273.596C-58.9257 292.907 -84.4308 322.812 -107.939 361.064C-154.954 437.565 -193.941 547.388 -213.741 672.398C-233.541 797.409 -230.398 913.904 -209.325 1001.19C-198.788 1044.83 -183.772 1081.16 -164.915 1107.59C-146.059 1134.02 -123.38 1150.54 -97.5125 1154.63C-71.6446 1158.73 -44.9717 1150.03 -18.8711 1130.72C7.23092 1111.41 32.736 1081.5 56.2439 1043.25C103.259 966.75 142.247 856.928 162.046 731.917Z" stroke="url(#paint45_linear_311_18738)" stroke-opacity="0.3" stroke-width="0.717125"/>
<path d="M162.535 728.633C180.15 603.296 174.975 486.873 152.381 399.969C141.084 356.516 125.437 320.461 106.121 294.362C86.8067 268.264 63.8432 252.145 37.9077 248.5C11.9722 244.855 -14.5447 254.02 -40.3043 273.783C-66.0653 293.547 -91.0446 323.892 -113.881 362.548C-159.554 439.858 -196.619 550.345 -214.234 675.682C-231.849 801.019 -226.674 917.442 -204.08 1004.35C-192.783 1047.8 -177.136 1083.85 -157.82 1109.95C-138.506 1136.05 -115.543 1152.17 -89.607 1155.82C-63.6715 1159.46 -37.1546 1150.29 -11.395 1130.53C14.3661 1110.77 39.3453 1080.42 62.1821 1041.77C107.855 964.457 144.92 853.97 162.535 728.633Z" stroke="url(#paint46_linear_311_18738)" stroke-opacity="0.3" stroke-width="0.717125"/>
<path d="M162.973 725.343C178.398 599.717 171.192 483.402 147.085 396.906C135.031 353.656 118.757 317.88 98.9888 292.122C79.2219 266.365 55.9806 250.649 29.9854 247.458C3.99027 244.266 -22.3627 253.892 -47.7735 274.102C-73.1856 294.312 -97.6315 325.089 -119.79 364.137C-164.107 442.233 -199.238 553.349 -214.663 678.975C-230.088 804.6 -222.881 920.915 -198.774 1007.41C-186.721 1050.66 -170.446 1086.44 -150.678 1112.2C-130.912 1137.95 -107.67 1153.67 -81.6751 1156.86C-55.68 1160.05 -29.327 1150.43 -3.91623 1130.22C21.4959 1110.01 45.9418 1079.23 68.1005 1040.18C112.417 962.085 147.548 850.968 162.973 725.343Z" stroke="url(#paint47_linear_311_18738)" stroke-opacity="0.3" stroke-width="0.717125"/>
<path d="M163.345 722.044C176.575 596.168 167.34 479.997 141.727 393.934C128.921 350.902 112.025 315.415 91.8102 290.006C71.5968 264.598 48.0848 249.29 22.0378 246.553C-4.00907 243.815 -30.19 253.9 -55.2442 274.55C-80.2998 295.201 -104.205 326.399 -125.679 365.829C-168.625 444.686 -201.812 556.398 -215.042 682.274C-228.272 808.149 -219.037 924.321 -193.424 1010.38C-180.617 1053.42 -163.721 1088.9 -143.507 1114.31C-123.293 1139.72 -99.7814 1155.03 -73.7345 1157.77C-47.6876 1160.5 -21.5066 1150.42 3.5476 1129.77C28.6032 1109.12 52.5082 1077.92 73.982 1038.49C116.929 959.632 150.115 847.919 163.345 722.044Z" stroke="url(#paint48_linear_311_18738)" stroke-opacity="0.3" stroke-width="0.717125"/>
<path d="M163.668 718.735C174.699 592.648 163.438 476.655 136.327 391.053C122.771 348.25 105.258 313.063 84.6034 288.011C63.9496 262.96 40.174 248.065 14.0833 245.782C-12.0074 243.5 -38.0083 254.04 -62.6984 275.124C-87.3897 296.209 -110.747 327.82 -131.529 367.618C-173.093 447.213 -204.325 559.488 -215.356 685.575C-226.387 811.662 -215.126 927.655 -188.015 1013.26C-174.459 1056.06 -156.946 1091.25 -136.292 1116.3C-115.638 1141.35 -91.8622 1156.24 -65.7715 1158.53C-39.6808 1160.81 -13.6798 1150.27 11.0102 1129.19C35.7015 1108.1 59.0584 1076.49 79.8408 1036.69C121.405 957.097 152.637 844.822 163.668 718.735Z" stroke="url(#paint49_linear_311_18738)" stroke-opacity="0.3" stroke-width="0.717125"/>
<path d="M163.925 715.427C172.754 589.166 159.47 473.388 130.869 388.271C116.569 345.712 98.4445 310.836 77.3555 286.148C56.2677 261.462 32.2358 246.984 6.1092 245.157C-20.0174 243.33 -45.8304 254.322 -70.1487 275.834C-94.4683 297.346 -117.27 329.36 -137.355 369.515C-177.523 449.823 -206.791 562.626 -215.62 688.886C-224.449 815.147 -211.165 930.925 -182.564 1016.04C-168.263 1058.6 -150.139 1093.48 -129.05 1118.16C-107.962 1142.85 -83.9305 1157.33 -57.8039 1159.16C-31.6773 1160.98 -5.8643 1149.99 18.454 1128.48C42.7736 1106.97 65.5752 1074.95 85.6599 1034.8C125.828 954.49 155.096 841.687 163.925 715.427Z" stroke="url(#paint50_linear_311_18738)" stroke-opacity="0.3" stroke-width="0.717125"/>
<path d="M164.125 712.116C170.749 585.721 155.447 470.192 125.365 385.588C110.324 343.285 91.5935 308.73 70.0769 284.414C48.5614 260.1 24.2805 246.043 -1.87398 244.672C-28.0285 243.302 -53.6457 254.743 -77.5849 276.676C-101.525 298.609 -123.765 331.016 -143.146 371.516C-181.906 452.512 -209.201 565.809 -215.825 692.204C-222.449 818.599 -207.147 934.128 -177.065 1018.73C-162.023 1061.04 -143.293 1095.59 -121.777 1119.91C-100.261 1144.22 -75.9803 1158.28 -49.8258 1159.65C-23.6713 1161.02 1.94591 1149.58 25.8851 1127.64C49.8255 1105.71 72.065 1073.3 91.4457 1032.8C130.206 951.808 157.501 838.512 164.125 712.116Z" stroke="url(#paint51_linear_311_18738)" stroke-opacity="0.3" stroke-width="0.717125"/>
<path d="M164.274 708.795C168.692 582.303 151.375 467.059 119.821 382.992C104.044 340.958 84.7137 306.736 62.776 282.799C40.8395 258.864 16.317 245.233 -9.85746 244.319C-36.0319 243.405 -61.4455 255.292 -84.9983 277.639C-108.552 299.987 -130.223 332.777 -148.894 373.609C-186.235 455.269 -211.548 569.025 -215.965 695.517C-220.383 822.008 -203.066 937.253 -171.512 1021.32C-155.735 1063.35 -136.405 1097.58 -114.467 1121.51C-92.5305 1145.45 -68.0079 1159.08 -41.8335 1159.99C-15.6591 1160.91 9.75459 1149.02 33.3073 1126.67C56.8613 1104.32 78.5318 1071.53 97.2028 1030.7C134.544 949.042 159.857 835.287 164.274 708.795Z" stroke="url(#paint52_linear_311_18738)" stroke-opacity="0.3" stroke-width="0.717125"/>
<path d="M164.356 705.48C166.565 578.931 147.24 464.006 114.223 380.503C97.7148 338.751 77.7902 304.871 55.4381 281.321C33.0872 257.772 8.33044 244.571 -17.856 244.114C-44.0423 243.657 -69.2447 255.985 -92.4038 278.74C-115.564 301.496 -136.659 334.66 -154.615 375.81C-190.525 458.11 -213.849 572.29 -216.058 698.84C-218.267 825.389 -198.942 940.314 -165.926 1023.82C-149.417 1065.57 -129.493 1099.45 -107.14 1123C-84.7895 1146.55 -60.0328 1159.75 -33.8464 1160.21C-7.65998 1160.66 17.5423 1148.33 40.7015 1125.58C63.8619 1102.82 84.9568 1069.66 102.912 1028.51C138.823 946.21 162.147 832.03 164.356 705.48Z" stroke="url(#paint53_linear_311_18738)" stroke-opacity="0.3" stroke-width="0.717125"/>
<path d="M164.387 702.162C164.387 575.594 143.059 461.024 108.59 378.11C91.3558 336.652 70.8429 303.125 48.0832 279.969C25.3247 256.813 0.341339 244.047 -25.849 244.047C-52.0394 244.047 -77.0227 256.813 -99.7812 279.969C-122.541 303.125 -143.054 336.652 -160.288 378.11C-194.757 461.024 -216.085 575.594 -216.085 702.162C-216.085 828.731 -194.757 943.301 -160.288 1026.22C-143.054 1067.67 -122.541 1101.2 -99.7812 1124.36C-77.0227 1147.51 -52.0394 1160.28 -25.849 1160.28C0.341339 1160.28 25.3247 1147.51 48.0832 1124.36C70.8429 1101.2 91.3558 1067.67 108.59 1026.22C143.059 943.301 164.387 828.731 164.387 702.162Z" stroke="url(#paint54_linear_311_18738)" stroke-opacity="0.3" stroke-width="0.717125"/>
<path d="M164.363 698.836C162.154 572.286 138.83 458.106 102.919 375.806C84.9636 334.655 63.8687 301.492 40.7083 278.736C17.5492 255.981 -7.65315 243.653 -33.8395 244.11C-60.0259 244.567 -84.7827 257.768 -107.134 281.317C-129.486 304.867 -149.41 338.746 -165.919 380.499C-198.935 464.002 -218.26 578.926 -216.051 705.476C-213.842 832.025 -190.518 946.205 -154.608 1028.51C-136.652 1069.66 -115.557 1102.82 -92.397 1125.58C-69.2378 1148.33 -44.0355 1160.66 -17.8491 1160.2C8.33727 1159.74 33.094 1146.54 55.4449 1123C77.797 1099.44 97.7217 1065.57 114.23 1023.81C147.246 940.31 166.571 825.385 164.363 698.836Z" stroke="url(#paint55_linear_311_18738)" stroke-opacity="0.3" stroke-width="0.717125"/>
<path d="M164.271 695.514C159.854 569.022 134.541 455.267 97.1998 373.606C78.5288 332.775 56.8583 299.985 33.3043 277.636C9.75159 255.289 -15.6621 243.403 -41.8365 244.317C-68.0109 245.231 -92.5335 258.861 -114.47 282.797C-136.408 306.734 -155.738 340.956 -171.515 382.99C-203.069 467.056 -220.386 582.301 -215.968 708.792C-211.551 835.284 -186.238 949.04 -148.897 1030.7C-130.226 1071.53 -108.555 1104.32 -85.0013 1126.67C-61.4485 1149.02 -36.0349 1160.9 -9.86046 1159.99C16.314 1159.08 40.8365 1145.45 62.773 1121.51C84.7107 1097.57 104.041 1063.35 119.818 1021.32C151.372 937.25 168.689 822.006 164.271 695.514Z" stroke="url(#paint56_linear_311_18738)" stroke-opacity="0.3" stroke-width="0.717125"/>
<path d="M164.132 692.199C157.508 565.804 130.213 452.508 91.4525 371.511C72.0717 331.012 49.8323 298.605 25.8918 276.671C1.95263 254.738 -23.6646 243.297 -49.8191 244.668C-75.9736 246.038 -100.255 260.095 -121.77 284.41C-143.287 308.726 -162.017 343.28 -177.058 385.583C-207.14 470.188 -222.442 585.716 -215.818 712.112C-209.194 838.507 -181.9 951.804 -143.139 1032.8C-123.758 1073.3 -101.519 1105.71 -77.5781 1127.64C-53.639 1149.57 -28.0217 1161.01 -1.86725 1159.64C24.2872 1158.27 48.5682 1144.22 70.0836 1119.9C91.6002 1095.59 110.33 1061.03 125.372 1018.73C155.454 934.124 170.756 818.595 164.132 692.199Z" stroke="url(#paint57_linear_311_18738)" stroke-opacity="0.3" stroke-width="0.717125"/>
<path d="M163.925 688.882C155.096 562.621 125.828 449.819 85.6596 369.511C65.575 329.356 42.7733 297.342 18.4537 275.83C-5.86456 254.318 -31.6776 243.325 -57.8042 245.152C-83.9307 246.979 -107.963 261.457 -129.05 286.144C-150.139 310.832 -168.264 345.708 -182.564 388.267C-211.165 473.383 -224.449 589.162 -215.62 715.422C-206.791 841.683 -177.523 954.486 -137.355 1034.79C-117.27 1074.95 -94.4685 1106.96 -70.149 1128.47C-45.8307 1149.99 -20.0177 1160.98 6.10892 1159.15C32.2355 1157.32 56.2674 1142.85 77.3552 1118.16C98.4442 1093.47 116.568 1058.6 130.869 1016.04C159.47 930.921 172.754 815.142 163.925 688.882Z" stroke="url(#paint58_linear_311_18738)" stroke-opacity="0.3" stroke-width="0.717125"/>
<path d="M163.663 685.579C152.631 559.492 121.399 447.217 79.8355 367.622C59.0531 327.824 35.6963 296.213 11.0049 275.128C-13.6851 254.044 -39.686 243.504 -65.7767 245.787C-91.8675 248.069 -115.643 262.965 -136.297 288.015C-156.952 313.068 -174.465 348.254 -188.02 391.057C-215.131 476.659 -226.392 592.652 -215.361 718.739C-204.33 844.826 -173.098 957.101 -131.534 1036.7C-110.752 1076.49 -87.3949 1108.1 -62.7036 1129.19C-38.0136 1150.27 -12.0127 1160.81 14.0781 1158.53C40.1688 1156.25 63.9444 1141.35 84.5981 1116.3C105.253 1091.25 122.766 1056.06 136.322 1013.26C163.433 927.659 174.694 811.666 163.663 685.579Z" stroke="url(#paint59_linear_311_18738)" stroke-opacity="0.3" stroke-width="0.717125"/>
<path d="M163.346 682.269C150.116 556.393 116.929 444.681 73.9823 365.823C52.5085 326.394 28.6035 295.195 3.54793 274.545C-21.5063 253.895 -47.6872 243.81 -73.7341 246.548C-99.781 249.285 -123.293 264.593 -143.506 290.001C-163.721 315.41 -180.617 350.897 -193.424 393.929C-219.037 479.992 -228.272 596.163 -215.042 722.039C-201.812 847.914 -168.625 959.627 -125.678 1038.48C-104.204 1077.91 -80.2995 1109.11 -55.2439 1129.76C-30.1897 1150.41 -4.00875 1160.5 22.0382 1157.76C48.0851 1155.02 71.5971 1139.71 91.8105 1114.31C112.025 1088.9 128.921 1053.41 141.728 1010.38C167.341 924.316 176.576 808.144 163.346 682.269Z" stroke="url(#paint60_linear_311_18738)" stroke-opacity="0.3" stroke-width="0.717125"/>
<path d="M162.971 678.973C147.546 553.348 112.415 442.231 68.0985 364.136C45.9399 325.087 21.494 294.31 -3.91817 274.1C-29.3289 253.891 -55.6819 244.264 -81.677 247.456C-107.672 250.648 -130.913 266.364 -150.68 292.12C-170.448 317.878 -186.722 353.655 -198.776 396.904C-222.883 483.401 -230.089 599.716 -214.665 725.341C-199.24 850.966 -164.108 962.083 -119.792 1040.18C-97.6334 1079.23 -73.1876 1110 -47.7754 1130.21C-22.3646 1150.42 3.9883 1160.05 29.9835 1156.86C55.9786 1153.67 79.2199 1137.95 98.9868 1112.19C118.755 1086.44 135.029 1050.66 147.083 1007.41C171.19 920.913 178.396 804.598 162.971 678.973Z" stroke="url(#paint61_linear_311_18738)" stroke-opacity="0.3" stroke-width="0.717125"/>
<path d="M162.535 675.682C144.92 550.345 107.855 439.858 62.1826 362.548C39.3459 323.892 14.3666 293.547 -11.3944 273.783C-37.154 254.02 -63.6709 244.855 -89.6064 248.5C-115.542 252.145 -138.505 268.264 -157.82 294.362C-177.135 320.461 -192.782 356.516 -204.08 399.969C-226.673 486.873 -231.848 603.296 -214.233 728.633C-196.618 853.97 -159.553 964.456 -113.881 1041.77C-91.044 1080.42 -66.0647 1110.77 -40.3037 1130.53C-14.5441 1150.29 11.9728 1159.46 37.9083 1155.81C63.8438 1152.17 86.8072 1136.05 106.122 1109.95C125.437 1083.85 141.084 1047.8 152.381 1004.35C174.975 917.442 180.15 801.019 162.535 675.682Z" stroke="url(#paint62_linear_311_18738)" stroke-opacity="0.3" stroke-width="0.717125"/>
<path d="M162.047 672.396C142.248 547.386 103.26 437.563 56.2449 361.062C32.737 322.81 7.23189 292.905 -18.8701 273.594C-44.9707 254.284 -71.6436 245.583 -97.5115 249.68C-123.379 253.777 -146.058 270.295 -164.914 296.725C-183.771 323.157 -198.787 359.48 -209.324 403.124C-230.397 490.409 -233.54 606.905 -213.74 731.915C-193.94 856.926 -154.953 966.748 -107.938 1043.25C-84.4298 1081.5 -58.9247 1111.41 -32.8227 1130.72C-6.72213 1150.03 19.9507 1158.73 45.8187 1154.63C71.6866 1150.53 94.3652 1134.02 113.221 1107.59C132.078 1081.15 147.094 1044.83 157.631 1001.19C178.704 913.902 181.847 797.407 162.047 672.396Z" stroke="url(#paint63_linear_311_18738)" stroke-opacity="0.3" stroke-width="0.717125"/>
<path d="M161.498 669.122C139.519 544.476 98.6207 435.351 50.2779 359.682C26.106 321.846 0.0828657 292.391 -26.3522 273.538C-52.7858 254.687 -79.6065 246.453 -105.399 251C-131.191 255.548 -153.578 272.459 -171.97 299.215C-190.363 325.972 -204.742 362.551 -214.516 406.372C-234.063 494.012 -235.172 610.545 -213.194 735.19C-191.215 859.836 -150.317 968.962 -101.974 1044.63C-77.802 1082.47 -51.7789 1111.92 -25.3438 1130.77C1.08979 1149.63 27.9104 1157.86 53.7029 1153.31C79.4954 1148.76 101.882 1131.85 120.274 1105.1C138.667 1078.34 153.046 1041.76 162.82 997.941C182.367 910.301 183.476 793.768 161.498 669.122Z" stroke="url(#paint64_linear_311_18738)" stroke-opacity="0.3" stroke-width="0.717125"/>
<path d="M160.895 665.858C136.745 541.614 93.9478 433.219 44.2918 358.405C19.4633 320.997 -7.06995 292.001 -33.83 273.612C-60.5886 255.225 -87.5489 247.46 -113.258 252.457C-138.967 257.455 -161.056 274.754 -178.978 301.826C-196.901 328.9 -210.64 365.725 -219.647 409.71C-237.662 497.677 -236.737 614.212 -212.586 738.455C-188.436 862.698 -145.639 971.093 -95.9827 1045.91C-71.1542 1083.32 -44.621 1112.31 -17.861 1130.7C8.89766 1149.09 35.8579 1156.85 61.5671 1151.86C87.2763 1146.86 109.365 1129.56 127.287 1102.49C145.21 1075.41 158.949 1038.59 167.956 994.603C185.971 906.635 185.046 790.101 160.895 665.858Z" stroke="url(#paint65_linear_311_18738)" stroke-opacity="0.3" stroke-width="0.717125"/>
<path d="M160.231 662.608C133.916 538.805 89.2336 431.173 38.2794 357.237C12.8018 320.268 -14.2334 291.739 -41.3103 273.821C-68.3857 255.903 -95.4774 248.61 -121.095 254.055C-146.714 259.5 -168.497 277.182 -185.943 304.563C-203.391 331.946 -216.485 369.005 -224.724 413.14C-241.2 501.409 -238.242 617.909 -211.927 741.712C-185.611 865.515 -140.929 973.147 -89.9752 1047.08C-64.4976 1084.05 -37.4623 1112.58 -10.3854 1130.5C16.69 1148.42 43.7817 1155.71 69.3997 1150.26C95.0178 1144.82 116.801 1127.14 134.248 1099.76C151.696 1072.37 164.79 1035.31 173.028 991.18C189.505 902.911 186.546 786.411 160.231 662.608Z" stroke="url(#paint66_linear_311_18738)" stroke-opacity="0.3" stroke-width="0.717125"/>
<path d="M159.515 659.362C131.043 536.037 84.4898 429.202 32.253 356.166C6.13411 319.648 -21.3949 291.595 -48.7804 274.152C-76.1644 256.71 -103.379 249.89 -128.898 255.782C-154.418 261.673 -175.889 279.733 -192.855 307.414C-209.822 335.097 -222.268 372.379 -229.735 416.651C-244.668 505.194 -239.677 621.625 -211.205 744.95C-182.733 868.274 -136.179 975.11 -83.9426 1048.15C-57.8237 1084.66 -30.2947 1112.72 -2.90917 1130.16C24.4748 1147.6 51.6897 1154.42 77.2088 1148.53C102.728 1142.64 124.199 1124.58 141.165 1096.9C158.133 1069.21 170.578 1031.93 178.045 987.661C192.978 899.118 187.987 782.687 159.515 659.362Z" stroke="url(#paint67_linear_311_18738)" stroke-opacity="0.3" stroke-width="0.717125"/>
<path d="M158.738 656.134C128.118 533.325 79.7068 427.318 26.2033 355.206C-0.548991 319.149 -28.5634 291.58 -56.2492 274.618C-83.9334 257.656 -111.263 251.313 -136.676 257.649C-162.088 263.985 -183.241 282.416 -199.721 310.389C-216.203 338.364 -227.996 375.858 -234.689 420.253C-248.075 509.043 -241.052 625.369 -210.432 748.179C-179.813 870.988 -131.401 976.995 -77.8979 1049.11C-51.1457 1085.16 -23.1312 1112.73 4.5545 1129.7C32.2388 1146.66 59.5685 1153 84.9809 1146.66C110.393 1140.33 131.546 1121.9 148.027 1093.92C164.508 1065.95 176.301 1028.46 182.994 984.06C196.38 895.27 189.357 778.943 158.738 656.134Z" stroke="url(#paint68_linear_311_18738)" stroke-opacity="0.3" stroke-width="0.717125"/>
<path d="M157.907 652.922C125.148 530.665 74.8944 425.52 20.1405 354.352C-7.23699 318.767 -35.7283 291.692 -63.7058 275.215C-91.6819 258.739 -119.118 252.874 -144.416 259.652C-169.714 266.431 -190.542 285.229 -206.532 313.485C-222.523 341.744 -233.659 379.437 -239.577 423.943C-251.411 512.953 -242.359 629.139 -209.601 751.395C-176.842 873.651 -126.588 978.797 -71.8346 1049.96C-44.4571 1085.55 -15.9658 1112.62 12.0117 1129.1C39.9878 1145.58 67.4241 1151.44 92.722 1144.66C118.02 1137.89 138.848 1119.09 154.838 1090.83C170.829 1062.57 181.965 1024.88 187.883 980.374C199.717 891.363 190.665 775.178 157.907 652.922Z" stroke="url(#paint69_linear_311_18738)" stroke-opacity="0.3" stroke-width="0.717125"/>
<path d="M157.021 649.717C122.134 528.052 70.0531 423.799 14.0655 353.598C-13.9288 318.496 -42.8883 291.922 -71.1491 275.936C-99.4085 259.951 -126.943 254.565 -152.119 261.784C-177.295 269.003 -197.791 288.162 -213.286 316.693C-228.781 345.226 -239.258 383.108 -244.398 427.711C-254.677 516.914 -243.599 632.924 -208.711 754.59C-173.824 876.255 -121.743 980.508 -65.7556 1050.71C-37.7613 1085.81 -8.80185 1112.38 19.459 1128.37C47.7184 1144.36 75.2528 1149.74 100.429 1142.52C125.604 1135.3 146.101 1116.15 161.595 1087.61C177.091 1059.08 187.568 1021.2 192.707 976.597C202.987 887.393 191.908 771.383 157.021 649.717Z" stroke="url(#paint70_linear_311_18738)" stroke-opacity="0.3" stroke-width="0.717125"/>
<path d="M156.077 646.539C119.072 525.501 65.1788 422.173 7.97454 352.959C-20.6281 318.352 -50.047 292.287 -78.5825 276.797C-107.117 261.307 -134.741 256.403 -159.787 264.06C-184.833 271.717 -204.992 291.231 -219.986 320.028C-234.981 348.827 -244.795 386.886 -249.156 431.572C-257.876 520.94 -244.775 636.74 -207.77 757.778C-170.765 878.816 -116.872 982.144 -59.6682 1051.36C-31.0655 1085.97 -1.64672 1112.03 26.8888 1127.52C55.4229 1143.01 83.0471 1147.91 108.093 1140.26C133.139 1132.6 153.298 1113.09 168.292 1084.29C183.287 1055.49 193.102 1017.43 197.462 972.745C206.183 883.377 193.082 767.577 156.077 646.539Z" stroke="url(#paint71_linear_311_18738)" stroke-opacity="0.3" stroke-width="0.717125"/>
<path d="M155.079 643.372C115.967 522.998 60.2795 420.626 1.87607 352.421C-27.3262 318.318 -57.1955 292.771 -85.997 277.781C-114.797 262.792 -142.503 258.371 -167.411 266.464C-192.32 274.557 -212.135 294.419 -226.624 323.474C-241.114 352.53 -250.263 390.755 -253.843 435.509C-261.003 525.017 -245.883 640.57 -206.771 760.944C-167.659 881.318 -111.971 983.69 -53.5676 1051.89C-24.3653 1086 5.50391 1111.54 34.3055 1126.53C63.1055 1141.52 90.8111 1145.95 115.72 1137.85C140.628 1129.76 160.444 1109.9 174.933 1080.84C189.423 1051.79 198.572 1013.56 202.151 968.806C209.311 879.299 194.191 763.746 155.079 643.372Z" stroke="url(#paint72_linear_311_18738)" stroke-opacity="0.3" stroke-width="0.717125"/>
<path d="M154.027 640.221C112.82 520.548 55.3538 419.164 -4.23109 351.989C-34.0241 318.4 -64.3347 293.379 -93.3934 278.894C-122.451 264.409 -150.229 260.472 -174.993 268.999C-199.756 277.525 -219.222 297.73 -233.202 327.033C-247.183 356.338 -255.663 394.717 -258.461 439.527C-264.058 529.146 -246.923 644.417 -205.716 764.09C-164.51 883.763 -107.044 985.148 -47.4589 1052.32C-17.6659 1085.91 12.6447 1110.93 41.7035 1125.42C70.7607 1139.9 98.5393 1143.84 123.303 1135.31C148.066 1126.79 167.532 1106.58 181.512 1077.28C195.493 1047.97 203.973 1009.59 206.771 964.784C212.368 875.166 195.233 759.894 154.027 640.221Z" stroke="url(#paint73_linear_311_18738)" stroke-opacity="0.3" stroke-width="0.717125"/>
<path d="M152.917 637.087C109.628 518.152 50.4017 417.786 -10.3465 351.661C-40.7212 318.598 -71.4638 294.109 -100.771 280.133C-130.077 266.158 -157.92 262.706 -182.531 271.664C-207.142 280.621 -226.252 301.163 -239.718 330.706C-253.185 360.25 -260.994 398.771 -263.01 443.623C-267.042 533.326 -247.898 648.281 -204.609 767.216C-161.32 886.152 -102.093 986.518 -41.3452 1052.64C-10.9705 1085.71 19.7721 1110.19 49.0793 1124.17C78.3849 1138.15 106.228 1141.6 130.839 1132.64C155.45 1123.68 174.56 1103.14 188.026 1073.6C201.494 1044.05 209.303 1005.53 211.318 960.681C215.35 870.978 196.206 756.023 152.917 637.087Z" stroke="url(#paint74_linear_311_18738)" stroke-opacity="0.3" stroke-width="0.717125"/>
<path d="M151.753 633.98C106.395 515.818 45.4254 416.501 -16.4676 351.447C-47.4147 318.919 -78.58 294.97 -108.127 281.508C-137.672 268.046 -165.571 265.081 -190.022 274.467C-214.472 283.853 -233.221 304.724 -246.17 334.498C-259.119 364.273 -266.255 402.924 -267.488 447.804C-269.953 537.564 -248.806 652.167 -203.448 770.329C-158.09 888.491 -97.1207 987.808 -35.2277 1052.86C-4.28064 1085.39 26.8847 1109.34 56.4313 1122.8C85.9763 1136.26 113.875 1139.23 138.326 1129.84C162.777 1120.46 181.526 1099.59 194.475 1069.81C207.424 1040.04 214.56 1001.39 215.792 956.505C218.258 866.746 197.111 752.143 151.753 633.98Z" stroke="url(#paint75_linear_311_18738)" stroke-opacity="0.3" stroke-width="0.717125"/>
<path d="M150.538 630.893C103.124 513.54 40.431 415.303 -22.5879 351.338C-54.098 319.355 -85.6765 295.954 -115.454 283.01C-145.229 270.066 -173.176 267.588 -197.459 277.399C-221.742 287.21 -240.124 308.406 -252.551 338.401C-264.979 368.397 -271.439 407.167 -271.888 452.062C-272.787 541.851 -249.643 656.068 -202.229 773.42C-154.816 890.773 -92.1227 989.01 -29.1038 1052.97C2.40632 1084.96 33.9849 1108.36 63.7619 1121.3C93.5374 1134.25 121.484 1136.73 145.767 1126.91C170.051 1117.1 188.432 1095.91 200.859 1065.91C213.287 1035.92 219.747 997.146 220.197 952.251C221.095 862.462 197.951 748.246 150.538 630.893Z" stroke="url(#paint76_linear_311_18738)" stroke-opacity="0.3" stroke-width="0.717125"/>
<path d="M149.268 627.826C99.8132 511.319 35.415 414.19 -28.7106 351.335C-60.7741 319.907 -92.7562 297.061 -122.755 284.638C-152.751 272.216 -180.737 270.226 -204.845 280.459C-228.954 290.693 -246.963 312.206 -258.865 342.413C-270.767 372.622 -276.549 411.498 -276.215 456.395C-275.546 546.186 -250.413 659.981 -200.958 776.488C-151.504 892.995 -87.1059 990.124 -22.9803 1052.98C9.08317 1084.41 41.0653 1107.25 71.0637 1119.68C101.061 1132.1 129.046 1134.09 153.155 1123.86C177.263 1113.62 195.272 1092.11 207.174 1061.9C219.076 1031.69 224.858 992.816 224.524 947.92C223.856 858.129 198.722 744.333 149.268 627.826Z" stroke="url(#paint77_linear_311_18738)" stroke-opacity="0.3" stroke-width="0.717125"/>
<path d="M147.943 624.781C96.4628 509.155 30.3792 413.165 -34.8336 351.438C-67.4407 320.575 -99.8167 298.29 -130.027 286.393C-160.236 274.496 -188.252 272.995 -212.179 283.647C-236.105 294.3 -253.735 316.124 -265.108 346.534C-276.482 376.946 -281.585 415.918 -280.467 460.801C-278.231 550.567 -251.115 663.906 -199.635 779.533C-148.155 895.159 -82.0714 991.149 -16.8586 1052.88C15.7485 1083.74 48.1245 1106.02 78.3352 1117.92C108.544 1129.82 136.56 1131.32 160.486 1120.67C184.412 1110.01 202.043 1088.19 213.416 1057.78C224.789 1027.37 229.892 988.396 228.775 943.512C226.539 853.747 199.423 740.407 147.943 624.781Z" stroke="url(#paint78_linear_311_18738)" stroke-opacity="0.3" stroke-width="0.717125"/>
<path d="M146.565 621.762C93.0751 507.052 25.3264 412.23 -40.9538 351.651C-74.0946 321.361 -106.855 299.645 -137.268 288.276C-167.68 276.909 -195.718 275.897 -219.455 286.965C-243.191 298.034 -260.439 320.163 -271.279 350.767C-282.12 381.372 -286.542 420.427 -284.641 465.284C-280.839 554.997 -251.749 667.846 -198.259 782.556C-144.769 897.266 -77.0199 992.088 -10.7397 1052.67C22.4011 1082.96 55.161 1104.67 85.5748 1116.04C115.987 1127.41 144.025 1128.42 167.761 1117.35C191.498 1106.28 208.745 1084.16 219.585 1053.55C230.426 1022.95 234.848 983.891 232.947 939.034C229.145 849.321 200.056 736.472 146.565 621.762Z" stroke="url(#paint79_linear_311_18738)" stroke-opacity="0.3" stroke-width="0.717125"/>
<path d="M145.136 618.762C89.6519 505.003 20.2586 411.378 -47.0687 351.965C-80.7331 322.258 -113.867 301.117 -144.475 290.281C-175.08 279.446 -203.132 278.923 -226.672 290.404C-250.211 301.886 -267.07 324.312 -277.374 355.101C-287.679 385.891 -291.419 425.017 -288.736 469.834C-283.369 559.467 -252.314 671.791 -196.83 785.55C-141.345 899.309 -71.9522 992.934 -4.62483 1052.35C29.0395 1082.05 62.1735 1103.2 92.781 1114.03C123.387 1124.87 151.438 1125.39 174.978 1113.91C198.518 1102.43 215.376 1080 225.681 1049.21C235.986 1018.42 239.725 979.296 237.042 934.478C231.675 844.846 200.62 732.522 145.136 618.762Z" stroke="url(#paint80_linear_311_18738)" stroke-opacity="0.3" stroke-width="0.717125"/>
<path d="M143.656 615.795C86.1947 503.021 15.178 410.621 -53.176 352.393C-87.3537 323.278 -120.852 302.718 -151.644 292.418C-182.434 282.118 -210.49 282.086 -233.826 293.976C-257.162 305.866 -273.626 328.583 -283.392 359.547C-293.158 390.512 -296.214 429.697 -292.749 474.461C-285.818 563.986 -252.808 675.751 -195.347 788.525C-137.886 901.299 -66.8692 993.698 1.48477 1051.93C35.6624 1081.04 69.1603 1101.6 99.9523 1111.9C130.743 1122.2 158.799 1122.23 182.135 1110.34C205.47 1098.45 221.935 1075.74 231.7 1044.77C241.467 1013.81 244.523 974.622 241.058 929.859C234.127 840.333 201.117 728.568 143.656 615.795Z" stroke="url(#paint81_linear_311_18738)" stroke-opacity="0.3" stroke-width="0.717125"/>
<path d="M142.122 612.848C82.7013 501.094 10.0828 409.948 -59.277 352.921C-93.9576 324.407 -127.809 304.435 -158.776 294.674C-189.742 284.913 -217.794 285.37 -240.919 297.666C-264.044 309.961 -280.109 332.962 -289.333 364.092C-298.557 395.223 -300.929 434.455 -296.683 479.152C-288.191 568.543 -253.235 679.715 -193.815 791.468C-134.394 903.222 -61.7758 994.368 7.58404 1051.39C42.2646 1079.91 76.1162 1099.88 107.083 1109.64C138.049 1119.4 166.101 1118.95 189.226 1106.65C212.351 1094.35 228.416 1071.35 237.64 1040.22C246.864 1009.09 249.236 969.86 244.99 925.164C236.498 835.773 201.542 724.601 142.122 612.848Z" stroke="url(#paint82_linear_311_18738)" stroke-opacity="0.3" stroke-width="0.717125"/>
<path d="M140.539 609.93C79.1775 499.23 4.97929 409.365 -65.3652 353.558C-100.538 325.653 -134.733 306.275 -165.866 297.056C-196.997 287.837 -225.037 288.784 -247.944 301.481C-270.85 314.178 -286.512 337.456 -295.191 368.742C-303.87 400.03 -305.557 439.297 -300.532 483.913C-290.481 573.142 -253.59 683.687 -192.229 794.386C-130.867 905.086 -56.6688 994.951 13.6757 1050.76C48.8486 1078.66 83.0437 1098.04 114.176 1107.26C145.307 1116.48 173.348 1115.53 196.254 1102.84C219.161 1090.14 234.822 1066.86 243.501 1035.57C252.181 1004.29 253.868 965.019 248.842 920.403C238.792 831.174 201.901 720.63 140.539 609.93Z" stroke="url(#paint83_linear_311_18738)" stroke-opacity="0.3" stroke-width="0.717125"/>
<path d="M138.903 607.038C75.6191 497.427 -0.136186 408.87 -71.444 354.299C-107.099 327.012 -141.627 308.234 -172.915 299.56C-204.202 290.886 -232.222 292.321 -254.903 305.416C-277.585 318.512 -292.838 342.059 -300.97 373.492C-309.102 404.926 -310.103 444.217 -304.3 488.738C-292.694 577.778 -253.879 687.662 -190.595 797.274C-127.31 906.886 -51.555 995.442 19.7528 1050.01C55.4073 1077.3 89.9353 1096.08 121.224 1104.75C152.511 1113.43 180.531 1111.99 203.212 1098.9C225.894 1085.8 241.147 1062.25 249.278 1030.82C257.411 999.387 258.412 960.095 252.609 915.574C241.002 826.534 202.188 716.65 138.903 607.038Z" stroke="url(#paint84_linear_311_18738)" stroke-opacity="0.3" stroke-width="0.717125"/>
<path d="M137.217 604.177C72.0297 495.687 -5.25947 408.466 -77.5088 355.147C-113.634 328.488 -148.485 310.315 -179.92 302.188C-211.354 294.061 -239.344 295.985 -261.793 309.474C-284.243 322.963 -299.083 346.774 -306.665 378.343C-314.247 409.915 -314.562 449.217 -307.983 493.63C-294.824 582.454 -254.098 691.644 -188.91 800.135C-123.723 908.625 -46.4334 995.846 25.8159 1049.16C61.9413 1075.82 96.7917 1094 128.227 1102.12C159.661 1110.25 187.651 1108.33 210.101 1094.84C232.55 1081.35 247.39 1057.54 254.972 1025.97C262.554 994.398 262.87 955.095 256.29 910.682C243.132 821.858 202.405 712.668 137.217 604.177Z" stroke="url(#paint85_linear_311_18738)" stroke-opacity="0.3" stroke-width="0.717125"/>
<path d="M135.484 601.351C68.4132 494.015 -10.3864 408.156 -83.5553 356.107C-120.14 330.081 -155.303 312.519 -186.875 304.942C-218.446 297.365 -246.398 299.778 -268.609 313.657C-290.82 327.536 -305.242 351.601 -312.271 383.298C-319.302 414.997 -318.931 454.299 -311.578 498.591C-296.871 587.171 -254.245 695.634 -187.174 802.97C-120.103 910.307 -41.3029 996.166 31.866 1048.22C68.4511 1074.24 103.613 1091.8 135.186 1099.38C166.757 1106.96 194.709 1104.54 216.92 1090.67C239.13 1076.79 253.552 1052.72 260.582 1021.02C267.612 989.325 267.242 950.022 259.888 905.731C245.181 817.15 202.556 708.688 135.484 601.351Z" stroke="url(#paint86_linear_311_18738)" stroke-opacity="0.3" stroke-width="0.717125"/>
<path d="M133.7 598.545C64.7654 492.395 -15.5207 407.925 -89.5868 357.16C-126.621 331.777 -162.084 314.832 -193.784 307.807C-225.482 300.782 -253.388 303.682 -275.353 317.946C-297.318 332.211 -311.318 356.525 -317.793 388.339C-324.269 420.156 -323.213 459.446 -315.088 503.602C-298.837 591.913 -254.325 699.615 -185.391 805.765C-116.456 911.914 -36.1702 996.384 37.8959 1047.15C74.9296 1072.53 110.393 1089.48 142.093 1096.5C173.791 1103.53 201.697 1100.63 223.662 1086.36C245.627 1072.1 259.627 1047.78 266.103 1015.97C272.578 984.153 271.522 944.863 263.397 900.707C247.146 812.396 202.634 704.694 133.7 598.545Z" stroke="url(#paint87_linear_311_18738)" stroke-opacity="0.3" stroke-width="0.717125"/>
<path d="M131.866 595.778C61.0901 490.848 -20.658 407.792 -95.5988 358.327C-133.07 333.595 -168.824 317.27 -200.641 310.8C-232.457 304.33 -260.308 307.716 -282.021 322.362C-303.734 337.007 -317.307 361.561 -323.227 393.485C-329.146 425.409 -327.404 464.675 -318.509 508.682C-300.72 596.696 -254.335 703.605 -183.559 808.535C-112.782 913.465 -31.0344 996.522 43.9064 1045.99C81.3775 1070.72 117.131 1087.04 148.949 1093.51C180.765 1099.98 208.616 1096.6 230.329 1081.95C252.042 1067.31 265.615 1042.75 271.534 1010.83C277.454 978.904 275.712 939.639 266.817 895.631C249.028 807.617 202.643 700.708 131.866 595.778Z" stroke="url(#paint88_linear_311_18738)" stroke-opacity="0.3" stroke-width="0.717125"/>
<path d="M129.984 593.044C57.387 489.365 -25.7981 407.748 -101.591 359.599C-139.488 335.524 -175.521 319.826 -207.447 313.912C-239.371 307.998 -267.159 311.87 -288.613 326.892C-310.067 341.914 -323.209 366.702 -328.57 398.723C-333.932 430.746 -331.505 469.976 -321.844 513.821C-302.521 601.511 -254.277 707.594 -181.68 811.273C-109.083 914.952 -25.8983 996.569 49.8944 1044.72C87.7914 1068.79 123.825 1084.49 155.75 1090.41C187.675 1096.32 215.462 1092.45 236.916 1077.42C258.37 1062.4 271.513 1037.62 276.874 1005.59C282.236 973.57 279.809 934.341 270.147 890.496C250.825 802.806 202.581 696.723 129.984 593.044Z" stroke="url(#paint89_linear_311_18738)" stroke-opacity="0.3" stroke-width="0.717125"/>
<path d="M128.059 590.338C53.6637 487.941 -30.9332 407.789 -107.555 360.97C-145.866 337.56 -182.168 322.494 -214.192 317.137C-246.214 311.781 -273.93 316.138 -295.119 331.532C-316.307 346.926 -329.015 371.94 -333.817 404.05C-338.619 436.162 -335.507 475.343 -325.082 519.013C-304.232 606.352 -254.144 711.577 -179.749 813.973C-105.354 916.37 -20.7569 996.522 55.8645 1043.34C94.1759 1066.75 130.478 1081.82 162.502 1087.17C194.524 1092.53 222.24 1088.17 243.429 1072.78C264.617 1057.38 277.325 1032.37 282.127 1000.26C286.929 968.149 283.817 928.969 273.392 885.298C252.542 797.959 202.454 692.734 128.059 590.338Z" stroke="url(#paint90_linear_311_18738)" stroke-opacity="0.3" stroke-width="0.717125"/>
<path d="M126.081 587.672C49.9103 486.59 -36.0726 407.926 -113.499 362.451C-152.214 339.714 -188.773 325.283 -220.886 320.487C-252.997 315.69 -280.632 320.53 -301.549 336.292C-322.465 352.053 -334.735 377.285 -338.975 409.474C-343.216 441.665 -339.422 480.785 -328.236 524.267C-305.865 611.229 -253.948 715.564 -177.777 816.646C-101.606 917.728 -15.623 996.392 61.8038 1041.87C100.518 1064.6 137.077 1079.04 169.19 1083.83C201.301 1088.63 228.937 1083.79 249.853 1068.03C270.77 1052.26 283.039 1027.03 287.28 994.845C291.52 962.654 287.726 923.533 276.54 880.051C254.169 793.09 202.252 688.755 126.081 587.672Z" stroke="url(#paint91_linear_311_18738)" stroke-opacity="0.3" stroke-width="0.717125"/>
<path d="M124.064 585.036C46.1402 485.299 -41.2025 408.147 -119.411 364.031C-158.516 341.972 -195.322 328.182 -227.513 323.946C-259.703 319.711 -287.25 325.032 -307.888 341.157C-328.527 357.281 -340.354 382.723 -344.032 414.981C-347.71 447.241 -343.234 486.289 -331.291 529.569C-307.405 616.127 -253.675 719.54 -175.752 819.278C-97.8284 919.015 -10.4858 996.167 67.7229 1040.28C106.828 1062.34 143.633 1076.13 175.825 1080.37C208.015 1084.6 235.562 1079.28 256.2 1063.16C276.838 1047.03 288.666 1021.59 292.344 989.333C296.022 957.073 291.545 918.025 279.602 874.745C255.717 788.187 201.987 684.774 124.064 585.036Z" stroke="url(#paint92_linear_311_18738)" stroke-opacity="0.3" stroke-width="0.717125"/>
<path d="M121.996 582.437C42.3436 484.074 -46.3323 408.459 -125.299 365.714C-164.783 344.341 -201.824 331.196 -234.084 327.523C-266.343 323.85 -293.793 329.651 -314.147 346.133C-334.5 362.615 -345.882 388.259 -348.996 420.577C-352.111 452.896 -346.954 491.86 -334.257 534.925C-308.865 621.053 -253.338 723.513 -173.686 821.875C-94.0338 920.238 -5.35799 995.853 73.6087 1038.6C113.093 1059.97 150.133 1073.12 182.394 1076.79C214.653 1080.46 242.103 1074.66 262.456 1058.18C282.81 1041.7 294.192 1016.05 297.306 983.735C300.421 951.416 295.263 912.452 282.567 869.387C257.174 783.258 201.648 680.799 121.996 582.437Z" stroke="url(#paint93_linear_311_18738)" stroke-opacity="0.3" stroke-width="0.717125"/>
<path d="M119.883 579.878C38.5259 482.921 -51.4561 408.864 -131.157 367.505C-171.008 346.824 -208.272 334.327 -240.592 331.217C-272.91 328.108 -300.255 334.387 -320.318 351.222C-340.381 368.057 -351.313 393.896 -353.863 426.263C-356.413 458.631 -350.576 497.5 -337.13 540.337C-310.238 626.009 -252.932 727.483 -171.575 824.441C-90.2186 921.398 -0.236601 995.454 79.4641 1036.81C119.315 1057.49 156.58 1069.99 188.899 1073.1C221.217 1076.21 248.562 1069.93 268.625 1053.1C288.688 1036.26 299.62 1010.42 302.17 978.056C304.72 945.687 298.883 906.819 285.437 863.982C258.546 778.31 201.24 676.835 119.883 579.878Z" stroke="url(#paint94_linear_311_18738)" stroke-opacity="0.3" stroke-width="0.717125"/>
<path d="M117.727 577.353C34.6909 481.83 -56.5698 409.356 -136.98 369.393C-177.186 349.411 -214.663 337.566 -247.032 335.021C-279.399 332.476 -306.63 339.232 -326.396 356.414C-346.162 373.597 -356.642 399.622 -358.627 432.029C-360.612 464.437 -354.097 503.198 -339.906 545.793C-311.523 630.983 -252.455 731.442 -169.418 826.965C-86.3814 922.487 4.87932 994.962 85.2897 1034.92C125.496 1054.91 162.972 1066.75 195.342 1069.3C227.709 1071.84 254.94 1065.09 274.706 1047.9C294.472 1030.72 304.951 1004.7 306.936 972.289C308.921 939.88 302.407 901.12 288.215 858.524C259.832 773.335 200.764 672.875 117.727 577.353Z" stroke="url(#paint95_linear_311_18738)" stroke-opacity="0.3" stroke-width="0.717125"/>
<path d="M115.526 574.864C30.8346 480.805 -61.677 409.935 -142.773 371.381C-183.321 352.104 -220.999 340.915 -253.408 338.936C-285.814 336.956 -312.923 344.186 -332.386 361.711C-351.85 379.235 -361.873 405.44 -363.292 437.876C-364.711 470.314 -357.521 508.955 -342.589 551.296C-312.723 635.978 -251.911 735.391 -167.22 829.45C-82.5287 923.509 9.98294 994.379 91.0785 1032.93C131.627 1052.21 169.305 1063.4 201.713 1065.38C234.12 1067.36 261.229 1060.13 280.692 1042.6C300.155 1025.08 310.179 998.874 311.598 966.438C313.017 934 305.827 895.359 290.894 853.018C261.029 768.336 200.217 668.923 115.526 574.864Z" stroke="url(#paint96_linear_311_18738)" stroke-opacity="0.3" stroke-width="0.717125"/>
<path d="M113.282 572.417C26.9626 479.85 -66.7719 410.605 -148.528 373.473C-189.407 354.906 -227.274 344.376 -259.712 342.963C-292.149 341.549 -319.127 349.251 -338.282 367.113C-357.436 384.974 -367.001 411.35 -367.853 443.806C-368.706 476.264 -360.843 514.773 -345.174 556.848C-313.835 640.995 -251.297 739.331 -164.977 831.898C-78.6574 924.464 15.0771 993.71 96.8332 1030.84C137.712 1049.41 175.579 1059.94 208.017 1061.35C240.454 1062.77 267.432 1055.06 286.587 1037.2C305.741 1019.34 315.306 992.965 316.159 960.509C317.011 928.051 309.148 889.541 293.479 847.467C262.14 763.32 199.602 664.983 113.282 572.417Z" stroke="url(#paint97_linear_311_18738)" stroke-opacity="0.3" stroke-width="0.717125"/>
<path d="M110.998 570.01C23.0764 478.964 -71.8523 411.365 -154.244 375.665C-195.441 357.815 -233.486 347.947 -265.944 347.1C-298.4 346.253 -325.24 354.424 -344.08 372.618C-362.92 390.811 -372.023 417.349 -372.309 449.815C-372.595 482.283 -364.061 520.65 -347.659 562.444C-314.857 646.032 -250.612 743.262 -162.69 834.308C-74.7679 925.353 20.1608 992.953 102.552 1028.65C143.749 1046.5 181.794 1056.37 214.252 1057.22C246.709 1058.06 273.548 1049.89 292.388 1031.7C311.228 1013.51 320.331 986.968 320.617 954.502C320.903 922.034 312.369 883.668 295.968 841.873C263.165 758.286 198.92 661.056 110.998 570.01Z" stroke="url(#paint98_linear_311_18738)" stroke-opacity="0.3" stroke-width="0.717125"/>
<path d="M108.671 567.643C19.1738 478.146 -76.9203 412.213 -159.922 377.957C-201.424 360.829 -239.636 351.627 -272.104 351.346C-304.57 351.065 -331.263 359.704 -349.782 378.223C-368.302 396.743 -376.94 423.436 -376.66 455.902C-376.379 488.37 -367.177 526.581 -350.049 568.083C-315.792 651.086 -249.86 747.18 -160.363 836.677C-70.865 926.175 25.229 992.107 108.231 1026.36C149.733 1043.49 187.945 1052.69 220.413 1052.97C252.879 1053.25 279.572 1044.62 298.091 1026.1C316.611 1007.58 325.249 980.884 324.969 948.418C324.688 915.951 315.486 877.739 298.357 836.237C264.101 753.235 198.169 657.141 108.671 567.643Z" stroke="url(#paint99_linear_311_18738)" stroke-opacity="0.3" stroke-width="0.717125"/>
<defs>
<linearGradient id="paint0_linear_311_18738" x1="-90.4446" y1="611.626" x2="42.8126" y2="795.039" gradientUnits="userSpaceOnUse">
<stop stop-color="#DE701D"/>
<stop offset="1" stop-color="#121212"/>
</linearGradient>
<linearGradient id="paint1_linear_311_18738" x1="-92.0144" y1="612.771" x2="44.4236" y2="793.83" gradientUnits="userSpaceOnUse">
<stop stop-color="#DE701D"/>
<stop offset="1" stop-color="#121212"/>
</linearGradient>
<linearGradient id="paint2_linear_311_18738" x1="-93.566" y1="613.937" x2="46.011" y2="792.587" gradientUnits="userSpaceOnUse">
<stop stop-color="#DE701D"/>
<stop offset="1" stop-color="#121212"/>
</linearGradient>
<linearGradient id="paint3_linear_311_18738" x1="-95.0943" y1="615.135" x2="47.5794" y2="791.322" gradientUnits="userSpaceOnUse">
<stop stop-color="#DE701D"/>
<stop offset="1" stop-color="#121212"/>
</linearGradient>
<linearGradient id="paint4_linear_311_18738" x1="-96.6021" y1="616.352" x2="49.1248" y2="790.022" gradientUnits="userSpaceOnUse">
<stop stop-color="#DE701D"/>
<stop offset="1" stop-color="#121212"/>
</linearGradient>
<linearGradient id="paint5_linear_311_18738" x1="-98.092" y1="617.601" x2="50.6436" y2="788.702" gradientUnits="userSpaceOnUse">
<stop stop-color="#DE701D"/>
<stop offset="1" stop-color="#121212"/>
</linearGradient>
<linearGradient id="paint6_linear_311_18738" x1="-99.555" y1="618.877" x2="52.1441" y2="787.356" gradientUnits="userSpaceOnUse">
<stop stop-color="#DE701D"/>
<stop offset="1" stop-color="#121212"/>
</linearGradient>
<linearGradient id="paint7_linear_311_18738" x1="-100.997" y1="620.177" x2="53.6189" y2="785.983" gradientUnits="userSpaceOnUse">
<stop stop-color="#DE701D"/>
<stop offset="1" stop-color="#121212"/>
</linearGradient>
<linearGradient id="paint8_linear_311_18738" x1="-102.414" y1="621.501" x2="55.0723" y2="784.583" gradientUnits="userSpaceOnUse">
<stop stop-color="#DE701D"/>
<stop offset="1" stop-color="#121212"/>
</linearGradient>
<linearGradient id="paint9_linear_311_18738" x1="-103.814" y1="622.85" x2="56.495" y2="783.159" gradientUnits="userSpaceOnUse">
<stop stop-color="#DE701D"/>
<stop offset="1" stop-color="#121212"/>
</linearGradient>
<linearGradient id="paint10_linear_311_18738" x1="-105.187" y1="624.222" x2="57.8953" y2="781.709" gradientUnits="userSpaceOnUse">
<stop stop-color="#DE701D"/>
<stop offset="1" stop-color="#121212"/>
</linearGradient>
<linearGradient id="paint11_linear_311_18738" x1="-106.534" y1="625.619" x2="59.2721" y2="780.236" gradientUnits="userSpaceOnUse">
<stop stop-color="#DE701D"/>
<stop offset="1" stop-color="#121212"/>
</linearGradient>
<linearGradient id="paint12_linear_311_18738" x1="-107.857" y1="627.04" x2="60.6219" y2="778.739" gradientUnits="userSpaceOnUse">
<stop stop-color="#DE701D"/>
<stop offset="1" stop-color="#121212"/>
</linearGradient>
<linearGradient id="paint13_linear_311_18738" x1="-109.153" y1="628.478" x2="61.9475" y2="777.214" gradientUnits="userSpaceOnUse">
<stop stop-color="#DE701D"/>
<stop offset="1" stop-color="#121212"/>
</linearGradient>
<linearGradient id="paint14_linear_311_18738" x1="-110.433" y1="629.944" x2="63.2377" y2="775.671" gradientUnits="userSpaceOnUse">
<stop stop-color="#DE701D"/>
<stop offset="1" stop-color="#121212"/>
</linearGradient>
<linearGradient id="paint15_linear_311_18738" x1="-111.676" y1="631.435" x2="64.5113" y2="774.108" gradientUnits="userSpaceOnUse">
<stop stop-color="#DE701D"/>
<stop offset="1" stop-color="#121212"/>
</linearGradient>
<linearGradient id="paint16_linear_311_18738" x1="-112.898" y1="632.941" x2="65.7529" y2="772.518" gradientUnits="userSpaceOnUse">
<stop stop-color="#DE701D"/>
<stop offset="1" stop-color="#121212"/>
</linearGradient>
<linearGradient id="paint17_linear_311_18738" x1="-114.093" y1="634.468" x2="66.9661" y2="770.906" gradientUnits="userSpaceOnUse">
<stop stop-color="#DE701D"/>
<stop offset="1" stop-color="#121212"/>
</linearGradient>
<linearGradient id="paint18_linear_311_18738" x1="-115.258" y1="636.023" x2="68.1553" y2="769.28" gradientUnits="userSpaceOnUse">
<stop stop-color="#DE701D"/>
<stop offset="1" stop-color="#121212"/>
</linearGradient>
<linearGradient id="paint19_linear_311_18738" x1="-116.399" y1="637.59" x2="69.3117" y2="767.626" gradientUnits="userSpaceOnUse">
<stop stop-color="#DE701D"/>
<stop offset="1" stop-color="#121212"/>
</linearGradient>
<linearGradient id="paint20_linear_311_18738" x1="-117.517" y1="639.184" x2="70.4345" y2="765.959" gradientUnits="userSpaceOnUse">
<stop stop-color="#DE701D"/>
<stop offset="1" stop-color="#121212"/>
</linearGradient>
<linearGradient id="paint21_linear_311_18738" x1="-118.601" y1="640.79" x2="71.5347" y2="764.266" gradientUnits="userSpaceOnUse">
<stop stop-color="#DE701D"/>
<stop offset="1" stop-color="#121212"/>
</linearGradient>
<linearGradient id="paint22_linear_311_18738" x1="-119.656" y1="642.423" x2="72.6053" y2="762.561" gradientUnits="userSpaceOnUse">
<stop stop-color="#DE701D"/>
<stop offset="1" stop-color="#121212"/>
</linearGradient>
<linearGradient id="paint23_linear_311_18738" x1="-120.681" y1="644.064" x2="73.6479" y2="760.828" gradientUnits="userSpaceOnUse">
<stop stop-color="#DE701D"/>
<stop offset="1" stop-color="#121212"/>
</linearGradient>
<linearGradient id="paint24_linear_311_18738" x1="-121.684" y1="645.73" x2="74.6536" y2="759.085" gradientUnits="userSpaceOnUse">
<stop stop-color="#DE701D"/>
<stop offset="1" stop-color="#121212"/>
</linearGradient>
<linearGradient id="paint25_linear_311_18738" x1="-122.652" y1="647.412" x2="75.6336" y2="757.323" gradientUnits="userSpaceOnUse">
<stop stop-color="#DE701D"/>
<stop offset="1" stop-color="#121212"/>
</linearGradient>
<linearGradient id="paint26_linear_311_18738" x1="-123.594" y1="649.11" x2="76.5794" y2="755.544" gradientUnits="userSpaceOnUse">
<stop stop-color="#DE701D"/>
<stop offset="1" stop-color="#121212"/>
</linearGradient>
<linearGradient id="paint27_linear_311_18738" x1="-124.505" y1="650.823" x2="77.4962" y2="753.748" gradientUnits="userSpaceOnUse">
<stop stop-color="#DE701D"/>
<stop offset="1" stop-color="#121212"/>
</linearGradient>
<linearGradient id="paint28_linear_311_18738" x1="-125.386" y1="652.552" x2="78.3799" y2="751.936" gradientUnits="userSpaceOnUse">
<stop stop-color="#DE701D"/>
<stop offset="1" stop-color="#121212"/>
</linearGradient>
<linearGradient id="paint29_linear_311_18738" x1="-126.234" y1="654.299" x2="79.2356" y2="750.111" gradientUnits="userSpaceOnUse">
<stop stop-color="#DE701D"/>
<stop offset="1" stop-color="#121212"/>
</linearGradient>
<linearGradient id="paint30_linear_311_18738" x1="-127.058" y1="656.057" x2="80.053" y2="748.268" gradientUnits="userSpaceOnUse">
<stop stop-color="#DE701D"/>
<stop offset="1" stop-color="#121212"/>
</linearGradient>
<linearGradient id="paint31_linear_311_18738" x1="-127.843" y1="657.831" x2="80.8456" y2="746.414" gradientUnits="userSpaceOnUse">
<stop stop-color="#DE701D"/>
<stop offset="1" stop-color="#121212"/>
</linearGradient>
<linearGradient id="paint32_linear_311_18738" x1="-128.601" y1="659.616" x2="81.6012" y2="744.543" gradientUnits="userSpaceOnUse">
<stop stop-color="#DE701D"/>
<stop offset="1" stop-color="#121212"/>
</linearGradient>
<linearGradient id="paint33_linear_311_18738" x1="-129.329" y1="661.419" x2="82.3233" y2="742.665" gradientUnits="userSpaceOnUse">
<stop stop-color="#DE701D"/>
<stop offset="1" stop-color="#121212"/>
</linearGradient>
<linearGradient id="paint34_linear_311_18738" x1="-130.025" y1="663.231" x2="83.0138" y2="740.771" gradientUnits="userSpaceOnUse">
<stop stop-color="#DE701D"/>
<stop offset="1" stop-color="#121212"/>
</linearGradient>
<linearGradient id="paint35_linear_311_18738" x1="-130.687" y1="665.057" x2="83.6722" y2="738.867" gradientUnits="userSpaceOnUse">
<stop stop-color="#DE701D"/>
<stop offset="1" stop-color="#121212"/>
</linearGradient>
<linearGradient id="paint36_linear_311_18738" x1="-131.322" y1="666.887" x2="84.2926" y2="736.944" gradientUnits="userSpaceOnUse">
<stop stop-color="#DE701D"/>
<stop offset="1" stop-color="#121212"/>
</linearGradient>
<linearGradient id="paint37_linear_311_18738" x1="-131.922" y1="668.736" x2="84.8828" y2="735.02" gradientUnits="userSpaceOnUse">
<stop stop-color="#DE701D"/>
<stop offset="1" stop-color="#121212"/>
</linearGradient>
<linearGradient id="paint38_linear_311_18738" x1="-132.486" y1="670.591" x2="85.4423" y2="733.081" gradientUnits="userSpaceOnUse">
<stop stop-color="#DE701D"/>
<stop offset="1" stop-color="#121212"/>
</linearGradient>
<linearGradient id="paint39_linear_311_18738" x1="-133.02" y1="672.457" x2="85.9656" y2="731.134" gradientUnits="userSpaceOnUse">
<stop stop-color="#DE701D"/>
<stop offset="1" stop-color="#121212"/>
</linearGradient>
<linearGradient id="paint40_linear_311_18738" x1="-133.522" y1="674.327" x2="86.4542" y2="729.173" gradientUnits="userSpaceOnUse">
<stop stop-color="#DE701D"/>
<stop offset="1" stop-color="#121212"/>
</linearGradient>
<linearGradient id="paint41_linear_311_18738" x1="-133.99" y1="676.213" x2="86.9105" y2="727.212" gradientUnits="userSpaceOnUse">
<stop stop-color="#DE701D"/>
<stop offset="1" stop-color="#121212"/>
</linearGradient>
<linearGradient id="paint42_linear_311_18738" x1="-134.428" y1="678.109" x2="87.3282" y2="725.245" gradientUnits="userSpaceOnUse">
<stop stop-color="#DE701D"/>
<stop offset="1" stop-color="#121212"/>
</linearGradient>
<linearGradient id="paint43_linear_311_18738" x1="-134.83" y1="680.008" x2="87.7156" y2="723.267" gradientUnits="userSpaceOnUse">
<stop stop-color="#DE701D"/>
<stop offset="1" stop-color="#121212"/>
</linearGradient>
<linearGradient id="paint44_linear_311_18738" x1="-135.202" y1="681.911" x2="88.0649" y2="721.279" gradientUnits="userSpaceOnUse">
<stop stop-color="#DE701D"/>
<stop offset="1" stop-color="#121212"/>
</linearGradient>
<linearGradient id="paint45_linear_311_18738" x1="-135.54" y1="683.823" x2="88.38" y2="719.288" gradientUnits="userSpaceOnUse">
<stop stop-color="#DE701D"/>
<stop offset="1" stop-color="#121212"/>
</linearGradient>
<linearGradient id="paint46_linear_311_18738" x1="-135.845" y1="685.74" x2="88.6593" y2="717.292" gradientUnits="userSpaceOnUse">
<stop stop-color="#DE701D"/>
<stop offset="1" stop-color="#121212"/>
</linearGradient>
<linearGradient id="paint47_linear_311_18738" x1="-136.11" y1="687.664" x2="88.9108" y2="715.293" gradientUnits="userSpaceOnUse">
<stop stop-color="#DE701D"/>
<stop offset="1" stop-color="#121212"/>
</linearGradient>
<linearGradient id="paint48_linear_311_18738" x1="-136.35" y1="689.59" x2="89.1191" y2="713.288" gradientUnits="userSpaceOnUse">
<stop stop-color="#DE701D"/>
<stop offset="1" stop-color="#121212"/>
</linearGradient>
<linearGradient id="paint49_linear_311_18738" x1="-136.548" y1="691.517" x2="89.3" y2="711.276" gradientUnits="userSpaceOnUse">
<stop stop-color="#DE701D"/>
<stop offset="1" stop-color="#121212"/>
</linearGradient>
<linearGradient id="paint50_linear_311_18738" x1="-136.72" y1="693.452" x2="89.4384" y2="709.266" gradientUnits="userSpaceOnUse">
<stop stop-color="#DE701D"/>
<stop offset="1" stop-color="#121212"/>
</linearGradient>
<linearGradient id="paint51_linear_311_18738" x1="-136.858" y1="695.392" x2="89.5424" y2="707.257" gradientUnits="userSpaceOnUse">
<stop stop-color="#DE701D"/>
<stop offset="1" stop-color="#121212"/>
</linearGradient>
<linearGradient id="paint52_linear_311_18738" x1="-136.954" y1="697.326" x2="89.6182" y2="705.238" gradientUnits="userSpaceOnUse">
<stop stop-color="#DE701D"/>
<stop offset="1" stop-color="#121212"/>
</linearGradient>
<linearGradient id="paint53_linear_311_18738" x1="-137.028" y1="699.27" x2="89.6487" y2="703.227" gradientUnits="userSpaceOnUse">
<stop stop-color="#DE701D"/>
<stop offset="1" stop-color="#121212"/>
</linearGradient>
<linearGradient id="paint54_linear_311_18738" x1="-137.059" y1="701.213" x2="89.6519" y2="701.213" gradientUnits="userSpaceOnUse">
<stop stop-color="#DE701D"/>
<stop offset="1" stop-color="#121212"/>
</linearGradient>
<linearGradient id="paint55_linear_311_18738" x1="-137.054" y1="703.148" x2="89.6224" y2="699.191" gradientUnits="userSpaceOnUse">
<stop stop-color="#DE701D"/>
<stop offset="1" stop-color="#121212"/>
</linearGradient>
<linearGradient id="paint56_linear_311_18738" x1="-137.024" y1="705.086" x2="89.5489" y2="697.174" gradientUnits="userSpaceOnUse">
<stop stop-color="#DE701D"/>
<stop offset="1" stop-color="#121212"/>
</linearGradient>
<linearGradient id="paint57_linear_311_18738" x1="-136.95" y1="707.028" x2="89.4498" y2="695.163" gradientUnits="userSpaceOnUse">
<stop stop-color="#DE701D"/>
<stop offset="1" stop-color="#121212"/>
</linearGradient>
<linearGradient id="paint58_linear_311_18738" x1="-136.853" y1="708.963" x2="89.3057" y2="693.148" gradientUnits="userSpaceOnUse">
<stop stop-color="#DE701D"/>
<stop offset="1" stop-color="#121212"/>
</linearGradient>
<linearGradient id="paint59_linear_311_18738" x1="-136.719" y1="710.906" x2="89.1293" y2="691.147" gradientUnits="userSpaceOnUse">
<stop stop-color="#DE701D"/>
<stop offset="1" stop-color="#121212"/>
</linearGradient>
<linearGradient id="paint60_linear_311_18738" x1="-136.548" y1="712.834" x2="88.921" y2="689.137" gradientUnits="userSpaceOnUse">
<stop stop-color="#DE701D"/>
<stop offset="1" stop-color="#121212"/>
</linearGradient>
<linearGradient id="paint61_linear_311_18738" x1="-136.343" y1="714.768" x2="88.6775" y2="687.139" gradientUnits="userSpaceOnUse">
<stop stop-color="#DE701D"/>
<stop offset="1" stop-color="#121212"/>
</linearGradient>
<linearGradient id="paint62_linear_311_18738" x1="-136.109" y1="716.695" x2="88.3957" y2="685.143" gradientUnits="userSpaceOnUse">
<stop stop-color="#DE701D"/>
<stop offset="1" stop-color="#121212"/>
</linearGradient>
<linearGradient id="paint63_linear_311_18738" x1="-135.836" y1="718.615" x2="88.084" y2="683.15" gradientUnits="userSpaceOnUse">
<stop stop-color="#DE701D"/>
<stop offset="1" stop-color="#121212"/>
</linearGradient>
<linearGradient id="paint64_linear_311_18738" x1="-135.533" y1="720.533" x2="87.7333" y2="681.165" gradientUnits="userSpaceOnUse">
<stop stop-color="#DE701D"/>
<stop offset="1" stop-color="#121212"/>
</linearGradient>
<linearGradient id="paint65_linear_311_18738" x1="-135.193" y1="722.444" x2="87.3522" y2="679.186" gradientUnits="userSpaceOnUse">
<stop stop-color="#DE701D"/>
<stop offset="1" stop-color="#121212"/>
</linearGradient>
<linearGradient id="paint66_linear_311_18738" x1="-134.825" y1="724.353" x2="86.9317" y2="677.217" gradientUnits="userSpaceOnUse">
<stop stop-color="#DE701D"/>
<stop offset="1" stop-color="#121212"/>
</linearGradient>
<linearGradient id="paint67_linear_311_18738" x1="-134.418" y1="726.248" x2="86.4823" y2="675.249" gradientUnits="userSpaceOnUse">
<stop stop-color="#DE701D"/>
<stop offset="1" stop-color="#121212"/>
</linearGradient>
<linearGradient id="paint68_linear_311_18738" x1="-133.983" y1="728.14" x2="85.9931" y2="673.293" gradientUnits="userSpaceOnUse">
<stop stop-color="#DE701D"/>
<stop offset="1" stop-color="#121212"/>
</linearGradient>
<linearGradient id="paint69_linear_311_18738" x1="-133.513" y1="730.025" x2="85.4726" y2="671.347" gradientUnits="userSpaceOnUse">
<stop stop-color="#DE701D"/>
<stop offset="1" stop-color="#121212"/>
</linearGradient>
<linearGradient id="paint70_linear_311_18738" x1="-133.008" y1="731.895" x2="84.9199" y2="669.405" gradientUnits="userSpaceOnUse">
<stop stop-color="#DE701D"/>
<stop offset="1" stop-color="#121212"/>
</linearGradient>
<linearGradient id="paint71_linear_311_18738" x1="-132.475" y1="733.765" x2="84.3297" y2="667.482" gradientUnits="userSpaceOnUse">
<stop stop-color="#DE701D"/>
<stop offset="1" stop-color="#121212"/>
</linearGradient>
<linearGradient id="paint72_linear_311_18738" x1="-131.906" y1="735.621" x2="83.7088" y2="665.563" gradientUnits="userSpaceOnUse">
<stop stop-color="#DE701D"/>
<stop offset="1" stop-color="#121212"/>
</linearGradient>
<linearGradient id="paint73_linear_311_18738" x1="-131.305" y1="737.464" x2="83.0542" y2="663.655" gradientUnits="userSpaceOnUse">
<stop stop-color="#DE701D"/>
<stop offset="1" stop-color="#121212"/>
</linearGradient>
<linearGradient id="paint74_linear_311_18738" x1="-130.674" y1="739.296" x2="82.3648" y2="661.756" gradientUnits="userSpaceOnUse">
<stop stop-color="#DE701D"/>
<stop offset="1" stop-color="#121212"/>
</linearGradient>
<linearGradient id="paint75_linear_311_18738" x1="-130.011" y1="741.123" x2="81.6416" y2="659.877" gradientUnits="userSpaceOnUse">
<stop stop-color="#DE701D"/>
<stop offset="1" stop-color="#121212"/>
</linearGradient>
<linearGradient id="paint76_linear_311_18738" x1="-129.313" y1="742.936" x2="80.8892" y2="658.009" gradientUnits="userSpaceOnUse">
<stop stop-color="#DE701D"/>
<stop offset="1" stop-color="#121212"/>
</linearGradient>
<linearGradient id="paint77_linear_311_18738" x1="-128.586" y1="744.737" x2="80.1028" y2="656.154" gradientUnits="userSpaceOnUse">
<stop stop-color="#DE701D"/>
<stop offset="1" stop-color="#121212"/>
</linearGradient>
<linearGradient id="paint78_linear_311_18738" x1="-127.827" y1="746.523" x2="79.2831" y2="654.311" gradientUnits="userSpaceOnUse">
<stop stop-color="#DE701D"/>
<stop offset="1" stop-color="#121212"/>
</linearGradient>
<linearGradient id="paint79_linear_311_18738" x1="-127.038" y1="748.298" x2="78.4315" y2="652.486" gradientUnits="userSpaceOnUse">
<stop stop-color="#DE701D"/>
<stop offset="1" stop-color="#121212"/>
</linearGradient>
<linearGradient id="paint80_linear_311_18738" x1="-126.218" y1="750.054" x2="77.5486" y2="650.671" gradientUnits="userSpaceOnUse">
<stop stop-color="#DE701D"/>
<stop offset="1" stop-color="#121212"/>
</linearGradient>
<linearGradient id="paint81_linear_311_18738" x1="-125.365" y1="751.802" x2="76.6355" y2="648.878" gradientUnits="userSpaceOnUse">
<stop stop-color="#DE701D"/>
<stop offset="1" stop-color="#121212"/>
</linearGradient>
<linearGradient id="paint82_linear_311_18738" x1="-124.485" y1="753.53" x2="75.6891" y2="647.095" gradientUnits="userSpaceOnUse">
<stop stop-color="#DE701D"/>
<stop offset="1" stop-color="#121212"/>
</linearGradient>
<linearGradient id="paint83_linear_311_18738" x1="-123.571" y1="755.244" x2="74.7144" y2="645.332" gradientUnits="userSpaceOnUse">
<stop stop-color="#DE701D"/>
<stop offset="1" stop-color="#121212"/>
</linearGradient>
<linearGradient id="paint84_linear_311_18738" x1="-122.631" y1="756.939" x2="73.7065" y2="643.584" gradientUnits="userSpaceOnUse">
<stop stop-color="#DE701D"/>
<stop offset="1" stop-color="#121212"/>
</linearGradient>
<linearGradient id="paint85_linear_311_18738" x1="-121.661" y1="758.62" x2="72.6683" y2="641.855" gradientUnits="userSpaceOnUse">
<stop stop-color="#DE701D"/>
<stop offset="1" stop-color="#121212"/>
</linearGradient>
<linearGradient id="paint86_linear_311_18738" x1="-120.659" y1="760.288" x2="71.6027" y2="640.15" gradientUnits="userSpaceOnUse">
<stop stop-color="#DE701D"/>
<stop offset="1" stop-color="#121212"/>
</linearGradient>
<linearGradient id="paint87_linear_311_18738" x1="-119.631" y1="761.928" x2="70.5048" y2="638.452" gradientUnits="userSpaceOnUse">
<stop stop-color="#DE701D"/>
<stop offset="1" stop-color="#121212"/>
</linearGradient>
<linearGradient id="paint88_linear_311_18738" x1="-118.574" y1="763.558" x2="69.3776" y2="636.782" gradientUnits="userSpaceOnUse">
<stop stop-color="#DE701D"/>
<stop offset="1" stop-color="#121212"/>
</linearGradient>
<linearGradient id="paint89_linear_311_18738" x1="-117.49" y1="765.168" x2="68.2202" y2="635.132" gradientUnits="userSpaceOnUse">
<stop stop-color="#DE701D"/>
<stop offset="1" stop-color="#121212"/>
</linearGradient>
<linearGradient id="paint90_linear_311_18738" x1="-116.374" y1="766.755" x2="67.0392" y2="633.498" gradientUnits="userSpaceOnUse">
<stop stop-color="#DE701D"/>
<stop offset="1" stop-color="#121212"/>
</linearGradient>
<linearGradient id="paint91_linear_311_18738" x1="-115.235" y1="768.329" x2="65.8241" y2="631.891" gradientUnits="userSpaceOnUse">
<stop stop-color="#DE701D"/>
<stop offset="1" stop-color="#121212"/>
</linearGradient>
<linearGradient id="paint92_linear_311_18738" x1="-114.063" y1="769.877" x2="64.5874" y2="630.3" gradientUnits="userSpaceOnUse">
<stop stop-color="#DE701D"/>
<stop offset="1" stop-color="#121212"/>
</linearGradient>
<linearGradient id="paint93_linear_311_18738" x1="-112.869" y1="771.405" x2="63.3186" y2="628.731" gradientUnits="userSpaceOnUse">
<stop stop-color="#DE701D"/>
<stop offset="1" stop-color="#121212"/>
</linearGradient>
<linearGradient id="paint94_linear_311_18738" x1="-111.648" y1="772.917" x2="62.0223" y2="627.19" gradientUnits="userSpaceOnUse">
<stop stop-color="#DE701D"/>
<stop offset="1" stop-color="#121212"/>
</linearGradient>
<linearGradient id="paint95_linear_311_18738" x1="-110.399" y1="774.403" x2="60.7016" y2="625.667" gradientUnits="userSpaceOnUse">
<stop stop-color="#DE701D"/>
<stop offset="1" stop-color="#121212"/>
</linearGradient>
<linearGradient id="paint96_linear_311_18738" x1="-109.127" y1="775.866" x2="59.3517" y2="624.166" gradientUnits="userSpaceOnUse">
<stop stop-color="#DE701D"/>
<stop offset="1" stop-color="#121212"/>
</linearGradient>
<linearGradient id="paint97_linear_311_18738" x1="-107.828" y1="777.308" x2="57.9773" y2="622.692" gradientUnits="userSpaceOnUse">
<stop stop-color="#DE701D"/>
<stop offset="1" stop-color="#121212"/>
</linearGradient>
<linearGradient id="paint98_linear_311_18738" x1="-106.503" y1="778.729" x2="56.5793" y2="621.242" gradientUnits="userSpaceOnUse">
<stop stop-color="#DE701D"/>
<stop offset="1" stop-color="#121212"/>
</linearGradient>
<linearGradient id="paint99_linear_311_18738" x1="-105.154" y1="780.126" x2="55.1547" y2="619.818" gradientUnits="userSpaceOnUse">
<stop stop-color="#DE701D"/>
<stop offset="1" stop-color="#121212"/>
</linearGradient>
</defs>
</svg>
