<svg width="762" height="1386" viewBox="0 0 762 1386" fill="none" xmlns="http://www.w3.org/2000/svg">
<path d="M430.338 651.322C402.728 825.644 407.11 988.092 436.496 1109.81C451.19 1170.67 472.129 1221.32 498.424 1258.18C524.718 1295.03 556.342 1318.07 592.414 1323.78C628.486 1329.49 665.68 1317.36 702.076 1290.43C738.474 1263.5 774.04 1221.8 806.82 1168.46C872.381 1061.78 926.747 908.64 954.357 734.319C981.967 559.997 977.585 397.549 948.199 275.833C933.505 214.974 912.567 164.323 886.272 127.465C859.978 90.609 828.353 67.5759 792.282 61.8627C756.21 56.1495 719.016 68.2829 682.62 95.21C646.221 122.139 610.656 163.84 577.875 217.18C512.315 323.857 457.948 477 430.338 651.322Z" stroke="url(#paint0_linear_254_9020)" stroke-opacity="0.3"/>
<path d="M429.656 655.904C405.093 830.681 412.309 993.028 443.815 1114.21C459.569 1174.81 481.388 1225.08 508.323 1261.48C535.256 1297.87 567.277 1320.35 603.443 1325.43C639.609 1330.51 676.586 1317.73 712.506 1290.17C748.429 1262.61 783.262 1220.3 815.106 1166.39C878.795 1058.59 930.481 904.519 955.044 729.742C979.607 554.965 972.391 392.618 940.885 271.434C925.131 210.841 903.312 160.563 876.377 124.17C849.444 87.7778 817.423 65.3001 781.257 60.2173C745.091 55.1345 708.114 67.9151 672.194 95.4733C636.271 123.033 601.438 165.349 569.594 219.252C505.905 327.058 454.219 481.127 429.656 655.904Z" stroke="url(#paint1_linear_254_9020)" stroke-opacity="0.3"/>
<path d="M429.054 660.493C407.545 835.672 417.593 997.868 451.21 1118.48C468.018 1178.79 490.712 1228.68 518.277 1264.6C545.841 1300.52 578.25 1322.43 614.499 1326.88C650.748 1331.33 687.497 1317.91 722.931 1289.73C758.367 1261.55 792.456 1218.63 823.355 1164.18C885.152 1055.28 934.141 900.33 955.65 725.151C977.16 549.972 967.111 387.775 933.495 267.159C916.686 206.85 893.993 156.961 866.427 121.043C838.863 85.127 806.454 63.2115 770.205 58.7607C733.956 54.3099 697.208 67.7339 661.774 95.9148C626.338 124.097 592.249 167.014 561.35 221.466C499.552 330.366 450.563 485.314 429.054 660.493Z" stroke="url(#paint2_linear_254_9020)" stroke-opacity="0.3"/>
<path d="M428.527 665.092C410.078 840.62 422.956 1002.62 458.672 1122.63C476.53 1182.63 500.091 1232.12 528.279 1267.55C556.466 1302.98 589.253 1324.33 625.574 1328.14C661.895 1331.96 698.403 1317.9 733.34 1289.1C768.279 1260.31 801.614 1216.8 831.558 1161.82C891.445 1051.86 937.723 896.077 956.171 720.549C974.62 545.022 961.742 383.026 926.026 263.014C908.168 203.008 884.607 153.523 856.419 118.091C828.232 82.6614 795.445 61.3149 759.124 57.4974C722.803 53.6799 686.295 67.7432 651.358 96.5383C616.419 125.335 583.084 168.84 553.14 223.823C493.253 333.785 446.975 489.564 428.527 665.092Z" stroke="url(#paint3_linear_254_9020)" stroke-opacity="0.3"/>
<path d="M428.087 669.704C412.704 845.527 428.407 1007.27 466.213 1126.64C485.115 1186.33 509.536 1235.4 538.339 1270.33C567.139 1305.26 600.294 1326.03 636.676 1329.22C673.058 1332.4 709.315 1317.7 743.745 1288.3C778.176 1258.9 810.746 1214.82 839.726 1159.32C897.685 1048.33 941.237 891.767 956.619 715.944C972.002 540.121 956.298 378.374 918.493 259.005C899.59 199.319 875.17 150.252 846.367 115.318C817.566 80.386 784.412 59.6149 748.03 56.4319C711.648 53.2488 675.39 67.9472 640.961 97.3476C606.53 126.75 573.96 170.83 544.98 226.327C487.021 337.318 443.469 493.88 428.087 669.704Z" stroke="url(#paint4_linear_254_9020)" stroke-opacity="0.3"/>
<path d="M427.722 674.317C415.41 850.382 433.934 1011.83 473.816 1130.52C493.758 1189.87 519.032 1238.5 548.439 1272.93C577.845 1307.35 611.357 1327.54 647.789 1330.09C684.222 1332.64 720.217 1317.31 754.128 1287.31C788.04 1257.31 819.836 1212.67 847.843 1156.68C903.856 1044.69 944.669 887.391 956.981 711.326C969.292 535.261 950.769 373.813 910.886 255.122C890.944 195.775 865.671 147.142 836.263 112.716C806.857 78.2918 773.346 58.1025 736.913 55.5549C700.481 53.0073 664.486 68.3362 630.575 98.333C596.662 128.331 564.866 172.974 536.859 228.968C480.846 340.953 440.033 498.252 427.722 674.317Z" stroke="url(#paint5_linear_254_9020)" stroke-opacity="0.3"/>
<path d="M427.44 678.941C418.203 855.193 439.541 1016.29 481.489 1134.27C502.464 1193.26 528.582 1241.44 558.586 1275.35C588.588 1309.26 622.447 1328.86 658.918 1330.77C695.39 1332.68 731.112 1316.73 764.494 1286.14C797.878 1255.56 828.89 1210.37 855.915 1153.89C909.966 1040.95 948.027 882.96 957.264 706.707C966.501 530.455 945.162 369.355 903.214 251.377C882.24 192.387 856.121 144.203 826.118 110.295C796.115 76.3895 762.256 56.7882 725.785 54.8768C689.314 52.9654 653.592 68.9202 620.21 99.5042C586.826 130.09 555.814 175.28 528.788 231.754C474.738 344.701 436.677 502.688 427.44 678.941Z" stroke="url(#paint6_linear_254_9020)" stroke-opacity="0.3"/>
<path d="M427.236 683.562C421.076 859.949 445.223 1020.65 489.224 1137.88C511.224 1196.49 538.18 1244.22 568.771 1277.59C599.36 1310.97 633.556 1329.98 670.055 1331.25C706.554 1332.53 741.992 1315.95 774.836 1284.79C807.681 1253.63 837.899 1207.9 863.935 1150.96C916.006 1037.09 951.304 878.465 957.464 702.078C963.623 525.691 939.476 364.988 895.476 247.76C873.475 189.146 846.52 141.424 815.929 108.045C785.339 74.6684 751.143 55.6609 714.644 54.3864C678.145 53.1118 642.707 69.6875 609.864 100.85C577.019 132.013 546.8 177.738 520.764 234.675C468.693 348.547 433.395 507.175 427.236 683.562Z" stroke="url(#paint7_linear_254_9020)" stroke-opacity="0.3"/>
<path d="M427.11 688.192C424.03 864.659 450.978 1024.92 497.018 1141.36C520.038 1199.58 547.822 1246.82 578.991 1279.66C610.158 1312.5 644.681 1330.91 681.196 1331.55C717.712 1332.18 752.856 1314.99 785.15 1283.26C817.446 1251.53 846.862 1205.28 871.901 1147.9C921.976 1033.14 954.5 873.919 957.581 697.451C960.661 520.983 933.713 360.726 887.673 244.284C864.653 186.063 836.869 138.819 805.7 105.979C774.532 73.141 740.01 54.7333 703.494 54.0959C666.979 53.4585 631.835 70.6502 599.541 102.381C567.244 134.113 537.829 180.358 512.79 237.741C462.715 352.505 430.19 511.724 427.11 688.192Z" stroke="url(#paint8_linear_254_9020)" stroke-opacity="0.3"/>
<path d="M427.074 692.821C427.074 869.316 456.814 1029.08 504.879 1144.7C528.912 1202.51 557.517 1249.26 589.254 1281.55C620.99 1313.84 655.828 1331.64 692.349 1331.64C728.871 1331.64 763.709 1313.84 795.445 1281.55C827.182 1249.26 855.787 1202.51 879.819 1144.7C927.884 1029.08 957.625 869.315 957.625 692.821C957.625 516.326 927.884 356.564 879.819 240.943C855.786 183.132 827.182 136.381 795.445 104.09C763.709 71.8005 728.871 53.9981 692.349 53.9981C655.828 53.9981 620.99 71.8005 589.254 104.09C557.517 136.381 528.912 183.132 504.879 240.943C456.814 356.564 427.074 516.326 427.074 692.821Z" stroke="url(#paint9_linear_254_9020)" stroke-opacity="0.3"/>
<path d="M427.115 697.451C430.195 873.918 462.72 1033.14 512.795 1147.9C537.834 1205.28 567.249 1251.53 599.546 1283.26C631.84 1314.99 666.984 1332.18 703.499 1331.55C740.015 1330.91 774.537 1312.5 805.705 1279.66C836.874 1246.82 864.658 1199.58 887.678 1141.36C933.718 1024.92 960.666 864.659 957.586 688.191C954.505 511.723 921.981 352.504 871.905 237.74C846.867 180.357 817.451 134.112 785.155 102.38C752.861 70.6497 717.717 53.458 681.201 54.0954C644.686 54.7328 610.163 73.1405 578.996 105.979C547.827 138.819 520.043 186.062 497.023 244.284C450.983 360.725 424.035 520.983 427.115 697.451Z" stroke="url(#paint10_linear_254_9020)" stroke-opacity="0.3"/>
<path d="M427.235 702.08C433.394 878.467 468.692 1037.09 520.763 1150.97C546.799 1207.9 577.018 1253.63 609.863 1284.79C642.706 1315.95 678.144 1332.53 714.643 1331.26C751.143 1329.98 785.338 1310.97 815.928 1277.6C846.519 1244.22 873.474 1196.5 895.475 1137.88C939.476 1020.65 963.622 859.951 957.463 683.564C951.303 507.177 916.005 348.55 863.934 234.677C837.898 177.74 807.68 132.015 774.835 100.852C741.991 69.6896 706.553 53.1139 670.054 54.3884C633.555 55.663 599.359 74.6704 568.77 108.048C538.179 141.426 511.223 189.148 489.223 247.762C445.222 364.99 421.075 525.693 427.235 702.08Z" stroke="url(#paint11_linear_254_9020)" stroke-opacity="0.3"/>
<path d="M427.439 706.705C436.676 882.957 474.737 1040.94 528.787 1153.89C555.813 1210.36 586.825 1255.56 620.209 1286.14C653.591 1316.72 689.313 1332.68 725.784 1330.77C762.256 1328.86 796.114 1309.26 826.117 1275.35C856.121 1241.44 882.239 1193.26 903.214 1134.27C945.162 1016.29 966.5 855.19 957.263 678.938C948.026 502.685 909.965 344.698 855.915 231.751C828.889 175.277 797.877 130.087 764.493 99.5012C731.111 68.9171 695.389 52.9624 658.918 54.8738C622.446 56.7852 588.587 76.3865 558.585 110.292C528.581 144.2 502.463 192.384 481.488 251.374C439.54 369.352 418.202 530.452 427.439 706.705Z" stroke="url(#paint12_linear_254_9020)" stroke-opacity="0.3"/>
<path d="M427.72 711.325C440.032 887.39 480.844 1044.69 536.858 1156.67C564.865 1212.67 596.661 1257.31 630.573 1287.31C664.484 1317.31 700.479 1332.63 736.912 1330.09C773.344 1327.54 806.856 1307.35 836.262 1272.93C865.669 1238.5 890.943 1189.87 910.884 1130.52C950.767 1011.83 969.291 850.381 956.979 674.316C944.667 498.251 903.855 340.952 847.842 228.967C819.834 172.973 788.039 128.33 754.126 98.332C720.215 68.3353 684.22 53.0064 647.788 55.554C611.355 58.1016 577.844 78.2908 548.438 112.715C519.03 147.141 493.757 195.774 473.815 255.121C433.932 373.813 415.409 535.261 427.72 711.325Z" stroke="url(#paint13_linear_254_9020)" stroke-opacity="0.3"/>
<path d="M428.087 715.942C443.469 891.765 487.021 1048.33 544.98 1159.32C573.96 1214.81 606.53 1258.9 640.961 1288.3C675.391 1317.7 711.648 1332.4 748.03 1329.21C784.412 1326.03 817.566 1305.26 846.367 1270.33C875.17 1235.39 899.59 1186.33 918.493 1126.64C956.298 1007.27 972.002 845.524 956.619 669.701C941.237 493.878 897.685 337.315 839.726 226.324C810.746 170.828 778.176 126.747 743.745 97.3452C709.315 67.9448 673.058 53.2465 636.676 56.4296C600.293 59.6126 567.139 80.3836 538.339 115.316C509.536 150.25 485.115 199.317 466.213 259.002C428.407 378.372 412.704 540.119 428.087 715.942Z" stroke="url(#paint14_linear_254_9020)" stroke-opacity="0.3"/>
<path d="M428.527 720.547C446.976 896.075 493.253 1051.85 553.141 1161.82C583.085 1216.8 616.419 1260.3 651.358 1289.1C686.295 1317.9 722.803 1331.96 759.125 1328.14C795.446 1324.32 828.232 1302.98 856.419 1267.55C884.607 1232.12 908.168 1182.63 926.027 1122.62C961.743 1002.61 974.621 840.617 956.172 665.09C937.723 489.562 891.446 333.783 831.559 223.82C801.614 168.838 768.28 125.333 733.341 96.536C698.404 67.741 661.896 53.6777 625.574 57.4952C589.253 61.3127 556.467 82.6592 528.28 118.089C500.092 153.52 476.531 203.006 458.672 263.012C422.956 383.023 410.078 545.019 428.527 720.547Z" stroke="url(#paint15_linear_254_9020)" stroke-opacity="0.3"/>
<path d="M429.054 725.149C450.563 900.328 499.552 1055.28 561.349 1164.18C592.249 1218.63 626.337 1261.54 661.773 1289.73C697.208 1317.91 733.956 1331.33 770.205 1326.88C806.454 1322.43 838.863 1300.52 866.427 1264.6C893.993 1228.68 916.686 1178.79 933.495 1118.48C967.111 997.867 977.159 835.67 955.65 660.491C934.141 485.312 885.152 330.365 823.354 221.464C792.455 167.013 758.366 124.096 722.93 95.9133C687.496 67.7324 650.748 54.3084 614.499 58.7592C578.25 63.2101 545.841 85.1255 518.277 121.042C490.711 156.96 468.018 206.849 451.209 267.158C417.593 387.774 407.544 549.97 429.054 725.149Z" stroke="url(#paint16_linear_254_9020)" stroke-opacity="0.3"/>
<path d="M429.66 729.741C454.223 904.519 505.909 1058.59 569.597 1166.39C601.442 1220.3 636.275 1262.61 672.197 1290.17C708.118 1317.73 745.095 1330.51 781.261 1325.43C817.427 1320.35 849.448 1297.87 876.381 1261.48C903.316 1225.08 925.135 1174.8 940.889 1114.21C972.395 993.027 979.611 830.68 955.048 655.903C930.485 481.126 878.799 327.057 815.11 219.251C783.265 165.348 748.433 123.032 712.51 95.4725C676.59 67.9142 639.613 55.1336 603.447 60.2164C567.281 65.2992 535.259 87.7769 508.326 124.169C481.392 160.562 459.572 210.84 443.819 271.433C412.313 392.618 405.097 554.964 429.66 729.741Z" stroke="url(#paint17_linear_254_9020)" stroke-opacity="0.3"/>
<path d="M430.341 734.319C457.951 908.641 512.317 1061.78 577.878 1168.46C610.658 1221.8 646.224 1263.5 682.622 1290.43C719.018 1317.36 756.213 1329.49 792.284 1323.78C828.356 1318.07 859.98 1295.03 886.274 1258.18C912.57 1221.32 933.508 1170.67 948.202 1109.81C977.588 988.093 981.97 825.645 954.36 651.323C926.75 477.001 872.383 323.858 806.823 217.18C774.042 163.84 738.477 122.139 702.079 95.2106C665.682 68.2834 628.488 56.1501 592.417 61.8633C556.345 67.5765 524.72 90.6096 498.427 127.466C472.131 164.324 451.193 214.975 436.499 275.834C407.113 397.549 402.731 559.998 430.341 734.319Z" stroke="url(#paint18_linear_254_9020)" stroke-opacity="0.3"/>
<path d="M431.104 738.887C461.752 912.7 518.783 1064.87 586.196 1170.39C619.902 1223.15 656.19 1264.22 693.053 1290.51C729.913 1316.8 767.314 1328.28 803.28 1321.94C839.247 1315.6 870.464 1292.02 896.111 1254.71C921.759 1217.4 941.81 1166.39 955.439 1105.28C982.697 983.071 984.243 820.571 953.595 646.757C922.947 472.944 865.916 320.773 798.504 215.256C764.797 162.496 728.509 121.422 691.647 95.1327C654.786 68.8449 617.386 57.3625 581.419 63.7044C545.453 70.0463 514.235 93.6278 488.589 130.937C462.941 168.249 442.889 219.257 429.26 280.363C402.002 402.574 400.456 565.073 431.104 738.887Z" stroke="url(#paint19_linear_254_9020)" stroke-opacity="0.3"/>
<path d="M431.95 743.439C465.627 916.691 525.305 1067.84 594.549 1172.17C629.171 1224.33 666.17 1264.77 703.486 1290.41C740.8 1316.05 778.395 1326.88 814.245 1319.91C850.095 1312.94 880.897 1288.82 905.888 1251.06C930.881 1213.31 950.039 1161.96 962.6 1100.63C987.72 977.959 986.43 815.457 952.754 642.205C919.077 468.953 859.399 317.801 790.155 213.476C755.533 161.313 718.533 120.878 681.218 95.2362C643.904 69.5957 606.309 58.7678 570.459 65.7364C534.608 72.705 503.807 96.8278 478.816 134.579C453.823 172.333 434.664 223.683 422.104 285.018C396.983 407.685 398.273 570.187 431.95 743.439Z" stroke="url(#paint20_linear_254_9020)" stroke-opacity="0.3"/>
<path d="M432.875 747.975C469.57 920.612 531.877 1070.7 602.931 1173.8C638.458 1225.35 676.157 1265.13 713.915 1290.12C751.671 1315.11 789.449 1325.28 825.172 1317.68C860.895 1310.09 891.271 1285.43 915.6 1247.25C939.93 1209.07 958.189 1157.39 969.677 1095.85C992.653 972.759 988.527 810.305 951.832 637.667C915.137 465.029 852.83 314.941 781.776 211.841C746.249 160.289 708.549 120.507 670.792 95.5202C633.036 70.5348 595.258 60.3647 559.535 67.9579C523.811 75.5511 493.436 100.208 469.107 138.39C444.777 176.573 426.517 228.25 415.029 289.795C392.053 412.882 396.179 575.337 432.875 747.975Z" stroke="url(#paint21_linear_254_9020)" stroke-opacity="0.3"/>
<path d="M433.872 752.493C473.575 924.464 538.492 1073.44 611.334 1175.29C647.756 1226.21 686.144 1265.33 724.331 1289.65C762.517 1313.98 800.467 1323.48 836.053 1315.27C871.638 1307.05 901.578 1281.87 925.237 1243.27C948.897 1204.67 966.252 1152.68 976.664 1090.94C997.488 967.474 990.528 805.116 950.825 633.145C911.123 461.174 846.206 312.196 773.364 210.352C736.942 159.428 698.554 120.31 660.366 95.9858C622.18 71.6631 584.23 62.1539 548.645 70.3694C513.059 78.5849 483.119 103.768 459.46 142.369C435.8 180.971 418.445 232.959 408.033 294.695C387.209 418.164 394.169 580.522 433.872 752.493Z" stroke="url(#paint22_linear_254_9020)" stroke-opacity="0.3"/>
<path d="M434.954 756.998C477.652 928.25 545.159 1076.07 619.767 1176.63C657.072 1226.91 696.137 1265.35 734.744 1289.01C773.348 1312.66 811.458 1321.5 846.895 1312.67C882.331 1303.83 911.828 1278.13 934.81 1239.12C957.792 1200.11 974.237 1147.83 983.57 1085.92C1002.24 962.11 992.443 799.899 949.745 628.646C907.048 457.394 839.54 309.572 764.932 209.015C727.627 158.735 688.562 120.292 649.956 96.6381C611.351 72.9856 573.241 64.1401 537.804 72.9755C502.368 81.8108 472.871 107.513 449.89 146.52C426.907 185.53 410.463 237.813 401.129 299.721C382.463 423.535 392.256 585.746 434.954 756.998Z" stroke="url(#paint23_linear_254_9020)" stroke-opacity="0.3"/>
<path d="M436.114 761.479C481.795 931.96 551.871 1078.58 628.223 1177.82C666.4 1227.44 706.13 1265.2 745.143 1288.17C784.155 1311.15 822.414 1319.33 857.69 1309.88C892.967 1300.42 922.011 1274.21 944.308 1234.81C966.607 1195.4 982.136 1142.84 990.388 1080.78C1006.89 956.659 994.268 794.643 948.588 624.162C902.907 453.681 832.831 307.06 756.479 207.819C718.302 158.198 678.572 120.443 639.558 97.4667C600.547 74.4915 562.288 66.3125 527.011 75.7649C491.734 85.2173 462.691 111.43 440.394 150.833C418.095 190.238 402.566 242.799 394.314 304.861C377.812 428.982 390.434 590.998 436.114 761.479Z" stroke="url(#paint24_linear_254_9020)" stroke-opacity="0.3"/>
<path d="M437.351 765.942C486 935.599 558.625 1080.98 636.697 1178.87C675.734 1227.82 716.117 1264.87 755.525 1287.16C794.932 1309.45 833.328 1316.96 868.434 1306.9C903.541 1296.83 932.122 1270.12 953.729 1230.33C975.336 1190.54 989.946 1137.72 997.113 1075.52C1011.45 951.131 995.999 789.36 947.35 619.702C898.701 450.044 826.076 304.668 748.004 206.776C708.967 157.828 668.585 120.772 629.176 98.4804C589.769 76.1896 551.374 68.6795 516.267 78.7461C481.161 88.8128 452.579 115.528 430.973 155.314C409.365 195.102 394.756 247.927 387.589 310.123C373.255 434.513 388.703 596.284 437.351 765.942Z" stroke="url(#paint25_linear_254_9020)" stroke-opacity="0.3"/>
<path d="M438.667 770.382C490.269 939.165 565.42 1083.25 645.189 1179.77C685.074 1228.03 726.097 1264.37 765.889 1285.97C805.679 1307.57 844.199 1314.41 879.125 1303.73C914.05 1293.05 942.161 1265.84 963.07 1225.69C983.98 1185.53 997.665 1132.46 1003.75 1070.14C1015.91 945.524 997.638 784.047 946.035 615.264C894.433 446.481 819.282 302.395 739.513 205.88C699.628 157.621 658.605 121.275 618.813 99.6746C579.024 78.0749 540.503 71.2361 505.577 81.9139C470.652 92.5917 442.541 119.802 421.632 159.959C400.723 200.118 387.037 253.19 380.956 315.501C368.796 440.122 387.065 601.599 438.667 770.382Z" stroke="url(#paint26_linear_254_9020)" stroke-opacity="0.3"/>
<path d="M440.057 774.796C494.596 942.652 572.251 1085.41 653.692 1180.51C694.413 1228.07 736.065 1263.69 776.227 1284.6C816.388 1305.5 855.022 1311.66 889.756 1300.38C924.49 1289.09 952.121 1261.4 972.326 1220.88C992.532 1180.36 1005.29 1127.06 1010.28 1064.65C1020.26 939.837 999.181 778.703 944.641 610.847C890.101 442.99 812.447 300.237 731.005 205.129C690.284 157.574 648.633 121.95 608.47 101.047C568.31 80.1447 529.675 73.9792 494.942 85.2649C460.208 96.5506 432.576 124.247 412.371 164.763C392.166 205.281 379.408 258.583 374.416 320.992C364.432 445.806 385.517 606.94 440.057 774.796Z" stroke="url(#paint27_linear_254_9020)" stroke-opacity="0.3"/>
<path d="M441.528 779.188C498.989 946.067 579.123 1087.44 662.212 1181.12C703.757 1227.95 746.024 1262.84 786.545 1283.04C827.064 1303.24 865.8 1308.73 900.332 1296.84C934.863 1284.95 962.007 1256.78 981.502 1215.91C1001 1175.05 1012.82 1121.53 1016.72 1059.05C1024.53 934.077 1000.64 773.336 943.174 606.457C885.713 439.578 805.579 298.202 722.491 204.529C680.946 157.692 638.679 122.801 598.158 102.602C557.639 82.4037 518.903 76.9134 484.371 88.8036C449.839 100.694 422.695 128.868 403.201 169.731C383.705 210.595 371.88 264.112 367.978 326.598C360.174 451.568 384.067 612.309 441.528 779.188Z" stroke="url(#paint28_linear_254_9020)" stroke-opacity="0.3"/>
<path d="M443.072 783.549C503.437 949.4 586.026 1089.36 670.736 1181.56C713.093 1227.67 755.962 1261.82 796.829 1281.31C837.695 1300.79 876.521 1305.61 910.84 1293.12C945.159 1280.63 971.807 1251.98 990.585 1210.79C1009.36 1169.59 1020.25 1115.87 1023.06 1053.33C1028.69 928.241 1001.99 767.941 941.627 602.09C881.262 436.239 798.673 296.284 713.962 204.075C671.606 157.97 628.737 123.822 587.869 104.333C547.004 84.8452 508.178 80.0318 473.859 92.5228C439.54 105.014 412.892 133.658 394.114 174.854C375.334 216.053 364.445 269.768 361.634 332.312C356.012 457.399 382.707 617.699 443.072 783.549Z" stroke="url(#paint29_linear_254_9020)" stroke-opacity="0.3"/>
<path d="M444.693 787.886C507.943 952.658 592.962 1091.15 679.269 1181.87C722.424 1227.23 765.882 1260.62 807.084 1279.39C848.283 1298.17 887.187 1302.3 921.283 1289.21C955.379 1276.12 981.523 1247.02 999.579 1205.5C1017.64 1163.98 1027.59 1110.08 1029.31 1047.5C1032.74 922.335 1003.26 762.525 940.005 597.753C876.755 432.981 791.736 294.488 705.429 203.772C662.275 158.413 618.816 125.018 577.615 106.246C536.415 87.4742 497.511 83.339 463.416 96.4271C429.32 109.515 403.176 138.62 385.119 180.138C367.062 221.658 357.111 275.555 355.392 338.139C351.954 463.305 381.443 623.114 444.693 787.886Z" stroke="url(#paint30_linear_254_9020)" stroke-opacity="0.3"/>
<path d="M446.386 792.193C512.502 955.836 599.925 1092.82 687.802 1182.02C731.741 1226.62 775.776 1259.25 817.299 1277.3C858.82 1295.35 897.79 1298.81 931.652 1285.13C965.514 1271.44 991.147 1241.89 1008.48 1200.06C1025.81 1158.23 1034.81 1104.17 1035.44 1041.57C1036.69 916.359 1004.42 757.088 938.304 593.445C872.188 429.802 784.765 292.814 696.888 203.618C652.949 159.019 608.914 126.388 567.391 108.337C525.87 90.2875 486.9 86.832 453.038 100.513C419.176 114.194 393.543 143.751 376.214 185.577C358.884 227.406 349.876 281.469 349.25 344.073C347.997 469.28 380.27 628.55 446.386 792.193Z" stroke="url(#paint31_linear_254_9020)" stroke-opacity="0.3"/>
<path d="M448.161 796.474C517.123 958.939 606.924 1094.38 696.344 1182.03C741.056 1225.85 785.653 1257.71 827.485 1275.04C869.314 1292.36 908.339 1295.13 941.957 1280.86C975.575 1266.59 1000.69 1236.59 1017.28 1194.47C1033.88 1152.35 1041.94 1098.13 1041.48 1035.53C1040.55 910.319 1005.5 751.636 936.536 589.172C867.574 426.707 777.774 291.266 688.353 203.617C643.642 159.792 599.045 127.934 557.213 110.611C515.384 93.2884 476.359 90.5136 442.741 104.784C409.123 119.054 384.01 149.053 367.414 191.176C350.816 233.301 342.753 287.512 343.219 350.118C344.152 475.327 379.199 634.01 448.161 796.474Z" stroke="url(#paint32_linear_254_9020)" stroke-opacity="0.3"/>
<path d="M450.008 800.718C521.795 961.954 613.945 1095.81 704.882 1181.88C750.351 1224.92 795.498 1256 837.625 1272.59C879.751 1289.18 918.818 1291.27 952.182 1276.41C985.546 1261.56 1010.13 1231.13 1025.99 1188.72C1041.85 1146.31 1048.97 1091.97 1047.41 1029.38C1044.29 904.207 1006.48 746.16 934.691 584.924C862.904 423.688 770.753 289.834 679.816 203.759C634.347 160.721 589.2 129.646 547.073 113.056C504.948 96.4661 465.881 94.3728 432.517 109.227C399.153 124.082 374.567 154.515 358.709 196.921C342.849 239.329 335.733 293.673 337.292 356.261C340.409 481.435 378.221 639.482 450.008 800.718Z" stroke="url(#paint33_linear_254_9020)" stroke-opacity="0.3"/>
<path d="M451.927 804.931C526.517 964.89 620.989 1097.11 713.414 1181.59C759.628 1223.83 805.31 1254.11 847.721 1269.96C890.129 1285.81 929.227 1287.23 962.326 1271.79C995.426 1256.36 1019.48 1225.5 1034.59 1182.82C1049.71 1140.14 1055.88 1085.68 1053.23 1023.13C1047.92 898.032 1007.36 740.669 932.769 580.711C858.18 420.752 763.707 288.527 671.282 204.053C625.069 161.815 579.386 131.532 536.976 115.679C494.567 99.8276 455.47 98.4163 422.37 113.851C389.27 129.286 365.22 160.143 350.104 202.819C334.986 245.498 328.82 299.958 331.471 362.509C336.772 487.61 377.337 644.973 451.927 804.931Z" stroke="url(#paint34_linear_254_9020)" stroke-opacity="0.3"/>
<path d="M453.92 809.11C531.29 967.743 628.056 1098.3 721.941 1181.15C768.884 1222.57 815.088 1252.05 857.769 1267.16C900.448 1282.27 939.564 1283 972.389 1266.99C1005.21 1250.98 1028.72 1219.71 1043.09 1176.78C1057.46 1133.84 1062.68 1079.28 1058.93 1016.78C1051.45 891.795 1008.15 735.164 930.776 576.532C853.406 417.9 756.64 287.343 662.755 204.495C615.811 163.07 569.607 133.589 526.927 118.479C484.248 103.37 445.132 102.641 412.306 118.651C379.481 134.661 355.973 165.934 341.604 208.867C327.234 251.803 322.019 306.362 325.761 368.858C333.245 493.847 376.55 650.478 453.92 809.11Z" stroke="url(#paint35_linear_254_9020)" stroke-opacity="0.3"/>
<path d="M455.988 813.252C536.115 970.51 635.145 1099.36 730.462 1180.56C778.121 1221.15 824.832 1249.82 867.77 1264.19C910.706 1278.55 949.829 1278.6 982.37 1262.01C1014.91 1245.43 1037.87 1213.76 1051.49 1170.58C1065.11 1127.4 1069.37 1072.76 1064.54 1010.34C1054.87 885.496 1008.84 729.645 928.713 572.387C848.586 415.129 749.556 286.282 654.24 205.084C606.58 164.485 559.869 135.815 516.931 121.452C473.995 107.09 434.872 107.044 402.331 123.625C369.791 140.205 346.832 171.883 333.214 215.061C319.595 258.241 315.333 312.883 320.166 375.304C329.83 500.143 375.861 655.994 455.988 813.252Z" stroke="url(#paint36_linear_254_9020)" stroke-opacity="0.3"/>
<path d="M458.128 817.361C540.988 973.196 642.251 1100.3 738.97 1179.82C787.331 1219.58 834.536 1247.43 877.718 1261.04C920.898 1274.65 960.016 1274.01 992.262 1256.87C1024.51 1239.72 1046.91 1207.65 1059.77 1164.24C1072.64 1120.83 1075.94 1066.12 1070.02 1003.79C1058.18 879.142 1009.44 724.117 926.577 568.282C843.718 412.446 742.455 285.347 645.735 205.825C597.375 166.064 550.17 138.214 506.988 124.602C463.808 110.992 424.69 111.628 392.444 128.774C360.197 145.92 337.795 177.994 324.933 221.403C312.07 264.814 308.762 319.522 314.683 381.849C326.525 506.501 375.269 661.525 458.128 817.361Z" stroke="url(#paint37_linear_254_9020)" stroke-opacity="0.3"/>
<path d="M460.334 821.428C545.9 975.793 649.366 1101.11 747.458 1178.93C796.505 1217.84 844.189 1244.86 887.602 1257.72C931.013 1270.57 970.114 1269.25 1002.06 1251.55C1034 1233.84 1055.84 1201.38 1067.94 1157.75C1080.04 1114.12 1082.4 1059.37 1075.39 997.153C1061.37 872.727 1009.93 718.577 924.364 564.211C838.798 409.846 735.332 284.533 637.239 206.711C588.192 167.8 540.509 140.778 497.095 127.922C453.685 115.067 414.584 116.387 382.641 134.093C350.699 151.798 328.86 184.259 316.757 227.885C304.654 271.514 302.302 326.272 309.309 388.486C323.324 512.912 374.767 667.062 460.334 821.428Z" stroke="url(#paint38_linear_254_9020)" stroke-opacity="0.3"/>
<path d="M462.615 825.459C550.862 978.308 656.5 1101.8 755.935 1177.89C805.654 1215.94 853.802 1242.13 897.433 1254.22C941.061 1266.32 980.133 1264.32 1011.76 1246.06C1043.39 1227.8 1064.66 1194.96 1076 1151.13C1087.34 1107.3 1088.74 1052.51 1080.64 990.424C1064.46 866.261 1010.33 713.032 922.086 560.183C833.838 407.334 728.201 283.846 628.765 207.749C579.047 169.699 530.899 143.514 487.268 131.418C443.639 119.322 404.567 121.324 372.939 139.585C341.311 157.845 320.041 190.682 308.702 234.513C297.362 278.346 295.965 333.136 304.058 395.219C320.242 519.381 374.368 672.61 462.615 825.459Z" stroke="url(#paint39_linear_254_9020)" stroke-opacity="0.3"/>
<path d="M464.966 829.45C555.868 980.735 663.644 1102.36 764.393 1176.71C814.768 1213.89 863.366 1239.23 907.201 1250.56C951.034 1261.89 990.065 1259.21 1021.37 1240.4C1052.67 1221.59 1073.37 1188.39 1083.94 1144.37C1094.51 1100.34 1094.95 1045.53 1085.78 983.603C1067.43 859.742 1010.64 707.481 919.738 556.196C828.836 404.91 721.06 283.284 620.311 208.934C569.936 171.758 521.338 146.416 477.503 135.084C433.67 123.752 394.639 126.435 363.334 145.245C332.029 164.055 311.336 197.257 300.763 241.28C290.19 285.304 289.75 340.111 298.925 402.042C317.274 525.903 374.065 678.164 464.966 829.45Z" stroke="url(#paint40_linear_254_9020)" stroke-opacity="0.3"/>
<path d="M467.382 833.395C560.91 983.071 670.792 1102.8 772.823 1175.38C823.84 1211.67 872.872 1236.16 916.898 1246.73C960.923 1257.29 999.901 1253.93 1030.87 1234.57C1061.84 1215.22 1081.96 1181.66 1091.76 1137.46C1101.56 1093.26 1101.04 1038.45 1090.79 976.691C1070.28 853.169 1010.84 701.922 917.315 552.246C823.787 402.57 713.904 282.844 611.873 210.263C560.857 173.972 511.824 149.482 467.798 138.916C423.774 128.351 384.796 131.715 353.824 151.068C322.852 170.422 302.741 203.98 292.938 248.181C283.135 292.383 283.652 347.189 293.906 408.951C314.414 532.473 373.854 683.719 467.382 833.395Z" stroke="url(#paint41_linear_254_9020)" stroke-opacity="0.3"/>
<path d="M469.868 837.299C565.994 985.32 677.949 1103.11 781.231 1173.9C832.873 1209.29 882.326 1232.92 926.53 1242.72C970.732 1252.52 1009.65 1248.47 1040.27 1228.58C1070.9 1208.69 1090.43 1174.79 1099.46 1130.42C1108.49 1086.05 1107.01 1031.27 1095.68 969.692C1073.02 846.547 1010.95 696.361 914.826 548.34C818.7 400.319 706.744 282.529 603.462 211.74C551.82 176.344 502.368 152.715 458.164 142.919C413.962 133.123 375.048 137.167 344.419 157.058C313.79 176.949 294.268 210.853 285.238 255.218C276.208 299.585 277.681 354.373 289.011 415.947C311.672 539.092 373.742 689.278 469.868 837.299Z" stroke="url(#paint42_linear_254_9020)" stroke-opacity="0.3"/>
<path d="M472.423 841.162C571.118 987.483 685.112 1103.3 789.613 1172.28C841.865 1206.77 891.722 1229.53 936.091 1238.55C980.457 1247.57 1019.29 1242.85 1049.57 1222.43C1079.85 1202.01 1098.78 1167.77 1107.03 1123.25C1115.29 1078.73 1112.86 1023.98 1100.45 962.614C1075.65 839.882 1010.96 690.803 912.27 544.482C813.575 398.161 699.581 282.343 595.079 213.367C542.828 178.878 492.97 156.115 448.602 147.092C404.236 138.069 365.399 142.792 335.121 163.214C304.844 183.637 285.917 217.877 277.662 262.392C269.408 306.91 271.837 361.664 284.24 423.031C309.046 545.762 373.728 694.842 472.423 841.162Z" stroke="url(#paint43_linear_254_9020)" stroke-opacity="0.3"/>
<path d="M475.05 844.977C576.283 989.553 692.281 1103.36 797.971 1170.51C850.817 1204.08 901.064 1225.97 945.583 1234.21C990.1 1242.46 1028.85 1237.06 1058.76 1216.11C1088.68 1195.17 1107.01 1160.6 1114.48 1115.95C1121.96 1071.29 1118.58 1016.59 1105.1 955.449C1078.16 833.169 1010.89 685.241 909.652 540.665C808.419 396.089 692.421 282.278 586.731 215.136C533.886 181.565 483.639 159.675 439.12 151.428C394.603 143.181 355.854 148.58 325.937 169.528C296.021 190.476 277.694 225.041 270.218 269.694C262.742 314.349 266.126 369.052 279.598 430.193C306.543 552.473 373.817 700.401 475.05 844.977Z" stroke="url(#paint44_linear_254_9020)" stroke-opacity="0.3"/>
<path d="M477.737 848.746C581.478 991.533 699.445 1103.3 806.29 1168.59C859.714 1201.23 910.335 1222.24 954.991 1229.71C999.645 1237.18 1038.29 1231.11 1067.84 1209.64C1097.39 1188.17 1115.11 1153.29 1121.8 1108.52C1128.5 1063.74 1124.16 1009.1 1109.62 948.205C1080.55 826.414 1010.7 679.683 906.962 536.896C803.221 394.108 685.254 282.339 578.409 217.052C524.985 184.408 474.364 163.399 429.708 155.929C385.054 148.461 346.405 154.536 316.859 176.002C287.313 197.469 269.592 232.349 262.896 277.125C256.2 321.904 260.539 376.54 275.076 437.436C304.151 559.227 373.996 705.959 477.737 848.746Z" stroke="url(#paint45_linear_254_9020)" stroke-opacity="0.3"/>
<path d="M480.491 852.466C586.708 993.421 706.608 1103.11 814.576 1166.53C868.561 1198.23 919.542 1218.36 964.321 1225.04C1009.1 1231.73 1047.64 1224.98 1076.8 1203.01C1105.97 1181.03 1123.08 1145.84 1128.99 1100.96C1134.91 1056.07 1129.61 1001.52 1114.02 940.882C1082.82 819.617 1010.43 674.127 904.208 533.172C797.991 392.217 678.092 282.523 570.123 219.111C516.138 187.404 465.158 167.282 420.378 160.593C375.601 153.905 337.064 160.653 307.897 182.632C278.729 204.611 261.62 239.795 255.707 284.682C249.793 329.57 255.085 384.122 270.683 444.756C301.878 566.02 374.274 711.511 480.491 852.466Z" stroke="url(#paint46_linear_254_9020)" stroke-opacity="0.3"/>
<path d="M483.308 856.142C591.969 995.221 713.765 1102.81 822.823 1164.32C877.354 1195.08 928.677 1214.31 973.567 1220.22C1018.45 1226.13 1056.87 1218.71 1085.65 1196.22C1114.43 1173.74 1130.92 1138.26 1136.05 1093.28C1141.18 1048.29 1134.93 993.84 1118.28 933.488C1084.97 812.786 1010.05 668.581 901.388 529.501C792.727 390.422 670.932 282.837 561.873 221.319C507.343 190.559 456.019 171.329 411.129 165.423C366.242 159.517 327.829 166.937 299.05 189.422C270.27 211.907 253.778 247.384 248.649 292.367C243.52 337.352 249.762 391.803 266.416 452.155C299.723 572.857 374.647 717.062 483.308 856.142Z" stroke="url(#paint47_linear_254_9020)" stroke-opacity="0.3"/>
<path d="M486.193 859.765C597.265 996.927 720.919 1102.37 831.035 1161.98C886.094 1191.78 937.745 1210.11 982.731 1215.23C1027.72 1220.35 1065.99 1212.26 1094.38 1189.28C1122.76 1166.3 1138.63 1130.54 1142.97 1085.47C1147.31 1040.4 1140.12 986.07 1122.42 926.018C1087.01 805.916 1009.58 663.041 898.509 525.879C787.437 388.716 663.783 283.274 553.667 223.668C498.608 193.865 446.957 175.534 401.971 170.412C356.987 165.29 318.709 173.38 290.327 196.363C261.944 219.347 246.073 255.107 241.73 300.172C237.387 345.24 244.579 399.574 262.284 459.626C297.692 579.728 375.121 722.603 486.193 859.765Z" stroke="url(#paint48_linear_254_9020)" stroke-opacity="0.3"/>
<path d="M489.136 863.337C602.585 998.54 728.061 1101.81 839.2 1159.48C894.77 1188.32 946.734 1205.75 991.802 1210.08C1036.87 1214.42 1075 1205.66 1102.98 1182.19C1130.95 1158.71 1146.2 1122.68 1149.75 1077.55C1153.31 1032.41 1145.17 978.21 1126.42 918.476C1088.92 799.01 1009.01 657.508 895.562 522.305C782.113 387.103 656.637 283.834 545.498 226.16C489.927 197.322 437.964 179.895 392.895 175.559C347.829 171.223 309.699 179.979 281.722 203.455C253.745 226.93 238.5 262.961 234.944 308.095C231.388 353.232 239.527 407.432 258.277 467.166C295.777 586.632 375.687 728.134 489.136 863.337Z" stroke="url(#paint49_linear_254_9020)" stroke-opacity="0.3"/>
<path d="M492.142 866.857C607.933 1000.06 735.192 1101.12 847.321 1156.85C903.387 1184.71 955.646 1201.23 1000.78 1204.78C1045.92 1208.33 1083.89 1198.91 1111.45 1174.95C1139.02 1150.99 1153.63 1114.69 1156.4 1069.5C1159.17 1024.31 1150.08 970.263 1130.29 910.865C1090.71 792.072 1008.35 651.986 892.554 518.784C776.763 385.582 649.504 284.519 537.375 228.793C481.31 200.929 429.05 184.412 383.913 180.863C338.778 177.315 300.806 186.735 273.243 210.695C245.68 234.655 231.066 270.947 228.299 316.136C225.531 361.328 234.615 415.378 254.404 474.776C293.983 593.569 376.351 733.655 492.142 866.857Z" stroke="url(#paint50_linear_254_9020)" stroke-opacity="0.3"/>
<path d="M495.213 870.323C613.311 1001.48 742.314 1100.31 855.399 1154.07C911.942 1180.95 964.482 1196.56 1009.67 1199.32C1054.86 1202.08 1092.67 1191.99 1119.81 1167.56C1146.95 1143.12 1160.93 1106.58 1162.9 1061.35C1164.88 1016.11 1154.86 962.231 1134.03 903.187C1092.39 785.103 1007.59 646.476 889.489 515.315C771.391 384.154 642.388 285.327 529.303 231.567C472.76 204.686 420.22 189.083 375.028 186.322C329.838 183.562 292.036 193.644 264.895 218.081C237.754 242.519 223.777 279.06 221.798 324.291C219.82 369.524 229.845 423.407 250.669 482.451C292.314 600.535 377.115 739.162 495.213 870.323Z" stroke="url(#paint51_linear_254_9020)" stroke-opacity="0.3"/>
<path d="M498.338 873.739C618.707 1002.82 749.416 1099.38 863.421 1151.16C920.425 1177.05 973.229 1191.73 1018.46 1193.7C1063.69 1195.67 1101.31 1184.93 1128.02 1160.03C1154.73 1135.12 1168.07 1098.34 1169.26 1053.08C1170.45 1007.82 1159.49 954.121 1137.63 895.45C1093.93 778.11 1006.73 640.984 886.358 511.904C765.989 382.824 635.281 286.264 521.275 234.485C464.272 208.595 411.467 193.911 366.234 191.94C321.002 189.969 283.382 200.709 256.672 225.616C229.962 250.524 216.624 287.303 215.435 332.562C214.247 377.823 225.211 431.523 247.062 490.194C290.762 607.533 377.969 744.659 498.338 873.739Z" stroke="url(#paint52_linear_254_9020)" stroke-opacity="0.3"/>
<path d="M501.529 877.096C624.132 1004.06 756.506 1098.32 871.398 1148.1C928.845 1172.99 981.897 1186.75 1027.16 1187.93C1072.42 1189.12 1109.84 1177.72 1136.12 1152.35C1162.39 1126.98 1175.08 1089.97 1175.48 1044.7C1175.88 999.427 1163.98 945.927 1141.11 887.646C1095.37 771.087 1005.78 635.504 883.175 508.544C760.572 381.585 628.198 287.321 513.306 237.539C455.859 212.648 402.806 198.888 357.545 197.707C312.287 196.525 274.859 207.92 248.588 233.29C222.317 258.659 209.623 295.666 209.224 340.939C208.825 386.213 220.725 439.714 243.597 497.994C289.338 614.553 378.925 750.136 501.529 877.096Z" stroke="url(#paint53_linear_254_9020)" stroke-opacity="0.3"/>
<path d="M504.771 880.398C629.571 1005.2 763.57 1097.14 879.313 1144.91C937.186 1168.79 990.47 1181.62 1035.75 1182.01C1081.02 1182.41 1118.24 1170.36 1144.06 1144.54C1169.89 1118.71 1181.94 1081.49 1181.54 1036.22C1181.15 990.941 1168.32 937.656 1144.44 879.784C1096.67 764.041 1004.73 630.042 879.927 505.241C755.126 380.441 621.127 288.501 505.384 240.733C447.512 216.848 394.227 204.016 348.952 203.624C303.68 203.233 266.457 215.279 240.633 241.104C214.808 266.928 202.762 304.151 203.154 349.423C203.545 394.698 216.377 447.983 240.262 505.855C288.03 621.598 379.97 755.597 504.771 880.398Z" stroke="url(#paint54_linear_254_9020)" stroke-opacity="0.3"/>
<path d="M508.073 883.644C635.033 1006.25 770.616 1095.83 887.175 1141.58C945.456 1164.45 998.956 1176.35 1044.23 1175.95C1089.5 1175.55 1126.51 1162.86 1151.88 1136.58C1177.25 1110.31 1188.64 1072.89 1187.46 1027.63C1186.28 982.366 1172.52 929.314 1147.63 871.867C1097.85 756.975 1003.58 624.601 876.625 501.998C749.665 379.394 614.082 289.808 497.523 244.066C439.243 221.195 385.742 209.295 340.467 209.694C295.195 210.093 258.188 222.786 232.818 249.058C207.449 275.329 196.054 312.756 197.235 358.015C198.417 403.276 212.177 456.328 237.068 513.775C286.849 628.667 381.113 761.041 508.073 883.644Z" stroke="url(#paint55_linear_254_9020)" stroke-opacity="0.3"/>
<path d="M511.436 886.831C640.516 1007.2 777.642 1094.41 894.982 1138.11C953.653 1159.96 1007.35 1170.92 1052.61 1169.73C1097.87 1168.54 1134.65 1155.21 1159.56 1128.5C1184.47 1101.79 1195.21 1064.17 1193.24 1018.94C1191.26 973.702 1176.58 920.897 1150.69 863.893C1098.91 749.888 1002.35 619.179 873.271 498.81C744.191 378.441 607.065 291.234 489.726 247.534C431.055 225.684 377.355 214.719 332.094 215.908C286.835 217.097 250.056 230.435 225.148 257.145C200.241 283.855 189.501 321.475 191.472 366.706C193.443 411.94 208.127 464.744 234.017 521.748C285.796 635.753 382.356 766.462 511.436 886.831Z" stroke="url(#paint56_linear_254_9020)" stroke-opacity="0.3"/>
<path d="M514.845 889.96C646.006 1008.06 784.633 1092.86 902.717 1134.5C961.761 1155.33 1015.64 1165.35 1060.88 1163.37C1106.11 1161.4 1142.65 1147.42 1167.09 1120.28C1191.52 1093.14 1201.61 1055.33 1198.85 1010.14C1196.09 964.953 1180.48 912.413 1153.6 855.869C1099.84 742.785 1001.01 613.781 869.853 495.683C738.692 377.585 600.065 292.785 481.98 251.139C422.937 230.316 369.054 220.29 323.821 222.269C278.59 224.248 242.049 238.225 217.611 265.366C193.174 292.506 183.092 330.308 185.852 375.498C188.613 420.691 204.216 473.231 231.097 529.774C284.857 642.858 383.684 771.862 514.845 889.96Z" stroke="url(#paint57_linear_254_9020)" stroke-opacity="0.3"/>
<path d="M518.317 893.027C651.519 1008.82 791.605 1091.19 910.398 1130.77C969.796 1150.55 1023.85 1159.64 1069.04 1156.87C1114.23 1154.1 1150.52 1139.49 1174.48 1111.93C1198.44 1084.36 1207.86 1046.39 1204.31 1001.26C1200.76 956.119 1184.24 903.86 1156.38 847.794C1100.65 735.666 999.592 608.406 866.39 492.615C733.188 376.825 593.102 294.456 474.308 254.878C414.911 235.088 360.861 226.004 315.669 228.772C270.479 231.54 234.188 246.153 210.228 273.716C186.268 301.279 176.847 339.251 180.396 384.386C183.944 429.523 200.462 481.783 228.326 537.849C284.052 649.977 385.115 777.237 518.317 893.027Z" stroke="url(#paint58_linear_254_9020)" stroke-opacity="0.3"/>
<path d="M521.836 896.033C657.039 1009.48 798.541 1089.39 918.007 1126.89C977.741 1145.64 1031.94 1153.78 1077.08 1150.22C1122.21 1146.67 1158.24 1131.42 1181.72 1103.45C1205.19 1075.47 1213.95 1037.34 1209.61 992.273C1205.28 947.205 1187.85 895.241 1159.01 839.671C1101.34 728.532 998.07 603.056 862.868 489.607C727.665 376.159 586.163 296.248 466.697 258.748C406.963 239.998 352.763 231.859 307.626 235.415C262.492 238.971 226.461 254.216 202.985 282.193C179.51 310.17 170.754 348.3 175.089 393.367C179.425 438.435 196.852 490.398 225.69 545.969C283.365 657.108 386.633 782.584 521.836 896.033Z" stroke="url(#paint59_linear_254_9020)" stroke-opacity="0.3"/>
<path d="M525.409 898.981C662.572 1010.05 805.447 1087.48 925.549 1122.89C985.601 1140.59 1039.94 1147.79 1085 1143.44C1130.07 1139.1 1165.83 1123.23 1188.81 1094.85C1211.79 1066.46 1219.88 1028.19 1214.76 983.203C1209.64 938.217 1191.31 886.566 1161.51 831.507C1101.9 721.391 996.458 597.737 859.296 486.665C722.134 375.593 579.259 298.164 459.157 262.755C399.105 245.051 344.771 237.859 299.703 242.202C254.637 246.545 218.878 262.416 195.894 290.799C172.911 319.181 164.821 357.459 169.943 402.442C175.065 447.428 193.396 499.08 223.199 554.139C282.805 664.254 388.247 787.909 525.409 898.981Z" stroke="url(#paint60_linear_254_9020)" stroke-opacity="0.3"/>
<path d="M529.031 901.862C668.111 1010.52 812.315 1085.45 933.017 1118.75C993.369 1135.41 1047.82 1141.65 1092.81 1136.52C1137.79 1131.39 1173.27 1114.9 1195.75 1086.12C1218.23 1057.34 1225.65 1018.93 1219.75 974.04C1213.84 929.151 1194.61 877.827 1163.85 823.297C1102.34 714.238 994.751 592.443 855.671 483.782C716.591 375.121 572.386 300.197 451.685 266.89C391.333 250.236 336.881 243.993 291.896 249.122C246.914 254.251 211.437 270.744 188.952 299.523C166.467 328.302 159.047 366.715 164.953 411.603C170.859 456.492 190.089 507.816 220.849 562.346C282.367 671.405 389.951 793.201 529.031 901.862Z" stroke="url(#paint61_linear_254_9020)" stroke-opacity="0.3"/>
<path d="M532.706 904.681C673.661 1010.9 819.151 1083.29 940.416 1114.49C1001.05 1130.09 1055.6 1135.38 1100.49 1129.46C1145.38 1123.55 1180.56 1106.44 1202.54 1077.28C1224.52 1048.11 1231.27 1009.57 1224.58 964.794C1217.89 920.014 1197.77 869.034 1166.06 815.049C1102.65 707.08 992.955 587.181 852 480.964C711.045 374.747 565.554 302.351 444.29 271.155C383.656 255.557 329.104 250.266 284.216 256.18C239.329 262.093 204.146 279.202 182.166 308.369C160.187 337.537 153.439 376.073 160.127 420.851C166.816 465.63 186.939 516.611 218.645 570.596C282.057 678.564 391.751 798.464 532.706 904.681Z" stroke="url(#paint62_linear_254_9020)" stroke-opacity="0.3"/>
<path d="M536.425 907.433C679.212 1011.17 825.943 1081.02 947.734 1110.09C1008.63 1124.63 1063.27 1128.97 1108.05 1122.27C1152.82 1115.58 1187.7 1097.86 1209.17 1068.31C1230.63 1038.76 1236.71 1000.12 1229.24 955.462C1221.77 910.806 1200.76 860.185 1168.12 806.761C1102.83 699.916 991.062 581.949 848.275 478.208C705.487 374.467 558.756 304.622 436.965 275.548C376.069 261.01 321.433 256.672 276.654 263.368C231.878 270.063 196.998 287.784 175.531 317.33C154.065 346.877 147.99 385.525 155.458 430.179C162.927 474.836 183.937 525.457 216.581 578.88C281.868 685.726 393.637 803.692 536.425 907.433Z" stroke="url(#paint63_linear_254_9020)" stroke-opacity="0.3"/>
<path d="M540.196 910.122C684.772 1011.36 832.7 1078.63 954.98 1105.57C1016.12 1119.05 1070.82 1122.43 1115.48 1114.95C1160.13 1107.48 1194.7 1089.15 1215.64 1059.23C1236.59 1029.32 1241.99 990.57 1233.74 946.053C1225.5 901.534 1203.61 851.287 1170.04 798.441C1102.89 692.751 989.083 576.753 844.508 475.52C699.932 374.287 552.003 307.013 429.724 280.068C368.583 266.596 313.879 263.212 269.224 270.688C224.572 278.164 190.007 296.491 169.059 326.408C148.111 356.324 142.711 395.073 150.958 439.59C159.206 484.109 181.095 534.356 214.667 587.201C281.809 692.891 395.62 808.889 540.196 910.122Z" stroke="url(#paint64_linear_254_9020)" stroke-opacity="0.3"/>
<path d="M544.01 912.745C690.331 1011.44 839.41 1076.12 962.142 1100.93C1023.51 1113.33 1078.26 1115.76 1122.78 1107.51C1167.3 1099.25 1201.54 1080.32 1221.96 1050.05C1242.38 1019.77 1247.1 980.932 1238.08 936.566C1229.06 892.197 1206.29 842.34 1171.81 790.088C1102.83 685.586 987.011 571.592 840.69 472.898C694.37 374.203 545.29 309.521 422.559 284.715C361.192 272.311 306.438 269.882 261.92 278.137C217.405 286.391 183.164 305.318 162.742 335.596C142.319 365.874 137.597 404.711 146.62 449.077C155.643 493.445 178.406 543.302 212.895 595.554C281.871 700.056 397.689 814.05 544.01 912.745Z" stroke="url(#paint65_linear_254_9020)" stroke-opacity="0.3"/>
<path d="M547.87 915.3C695.891 1011.43 846.077 1073.5 969.222 1096.16C1030.8 1107.49 1085.58 1108.96 1129.95 1099.93C1174.32 1090.9 1208.22 1071.38 1228.11 1040.75C1248 1010.12 1252.05 971.206 1242.25 927.004C1232.45 882.8 1208.82 833.347 1173.43 781.705C1102.64 678.423 984.85 566.468 836.829 470.342C688.808 374.216 538.622 312.146 415.476 289.485C353.903 278.155 299.114 276.682 254.748 285.712C210.383 294.742 176.478 314.264 156.588 344.893C136.697 375.523 132.653 414.436 142.448 458.638C152.244 502.842 175.874 552.294 211.269 603.936C282.059 707.218 399.849 819.174 547.87 915.3Z" stroke="url(#paint66_linear_254_9020)" stroke-opacity="0.3"/>
<path d="M551.774 917.791C701.45 1011.32 852.696 1070.76 976.218 1091.27C1037.98 1101.52 1092.79 1102.04 1136.99 1092.23C1181.19 1082.43 1214.75 1062.32 1234.1 1031.35C1253.45 1000.38 1256.82 961.399 1246.25 917.374C1235.69 873.348 1211.2 824.316 1174.91 773.299C1102.33 671.268 982.599 561.386 832.923 467.858C683.247 374.33 532.001 314.89 408.479 294.382C346.716 284.128 291.911 283.611 247.708 293.415C203.508 303.218 169.95 323.328 150.596 354.3C131.243 385.272 127.879 424.25 138.444 468.274C149.01 512.301 173.5 561.333 209.791 612.349C282.372 714.38 402.098 824.263 551.774 917.791Z" stroke="url(#paint67_linear_254_9020)" stroke-opacity="0.3"/>
<path d="M555.723 920.206C707.009 1011.11 859.27 1067.9 983.131 1086.25C1045.06 1095.42 1099.87 1094.98 1143.89 1084.41C1187.92 1073.84 1221.12 1053.14 1239.93 1021.84C1258.74 990.533 1261.42 951.502 1250.09 907.669C1238.76 863.834 1213.42 815.236 1176.24 764.861C1101.89 664.112 980.263 556.336 828.978 465.435C677.692 374.533 525.431 317.742 401.57 299.393C339.638 290.218 284.832 290.658 240.807 301.231C196.785 311.804 163.582 332.497 144.773 363.802C125.963 395.107 123.279 434.138 134.611 477.971C145.944 521.807 171.286 570.404 208.462 620.779C282.812 721.528 404.438 829.304 555.723 920.206Z" stroke="url(#paint68_linear_254_9020)" stroke-opacity="0.3"/>
<path d="M559.714 922.559C712.563 1010.81 865.792 1064.93 989.955 1081.12C1052.04 1089.21 1106.83 1087.81 1150.66 1076.47C1194.49 1065.13 1227.33 1043.86 1245.59 1012.24C1263.85 980.607 1265.85 941.535 1253.76 897.906C1241.66 854.275 1215.47 806.128 1177.42 756.409C1101.33 656.973 977.839 551.336 824.99 463.089C672.141 374.841 518.912 320.716 394.75 304.531C332.667 296.439 277.877 297.835 234.044 309.175C190.213 320.515 157.376 341.784 139.116 373.413C120.855 405.041 118.853 444.113 130.949 487.742C143.045 531.372 169.23 579.52 207.28 629.239C283.377 728.675 406.866 834.312 559.714 922.559Z" stroke="url(#paint69_linear_254_9020)" stroke-opacity="0.3"/>
<path d="M563.743 924.838C718.108 1010.4 872.258 1061.85 996.684 1075.86C1058.9 1082.87 1113.66 1080.52 1157.28 1068.41C1200.91 1056.31 1233.37 1034.47 1251.08 1002.53C1268.78 970.587 1270.1 931.487 1257.25 888.076C1244.39 844.663 1217.37 796.979 1178.46 747.932C1100.64 649.84 975.325 546.373 820.959 460.807C666.593 375.241 512.443 323.798 388.017 309.783C325.803 302.775 271.045 305.127 227.417 317.231C183.79 329.333 151.33 351.173 133.624 383.115C115.918 415.057 114.598 454.158 127.453 497.569C140.309 540.982 167.331 588.666 206.243 637.713C284.064 735.805 409.377 839.271 563.743 924.838Z" stroke="url(#paint70_linear_254_9020)" stroke-opacity="0.3"/>
<path d="M567.808 927.044C723.643 1009.9 878.668 1058.65 1003.32 1070.49C1065.65 1076.41 1120.35 1073.1 1163.77 1060.24C1207.17 1047.38 1239.25 1024.98 1256.39 992.729C1273.54 960.482 1274.18 921.364 1260.57 878.184C1246.95 835.002 1219.1 787.798 1179.34 739.437C1099.82 642.718 972.722 541.454 816.887 458.595C661.051 375.736 506.027 326.991 381.375 315.15C319.048 309.229 264.34 312.537 220.929 325.399C177.52 338.261 145.446 360.664 128.3 392.91C111.154 425.157 110.518 464.275 124.128 507.455C137.74 550.637 165.59 597.842 205.351 646.202C284.873 742.921 411.972 844.185 567.808 927.044Z" stroke="url(#paint71_linear_254_9020)" stroke-opacity="0.3"/>
<path d="M571.916 929.182C729.174 1009.31 885.025 1055.34 1009.86 1065C1072.29 1069.84 1126.93 1065.58 1170.11 1051.96C1213.28 1038.34 1244.96 1015.38 1261.54 982.839C1278.12 950.299 1278.08 911.175 1263.72 868.24C1249.35 825.302 1220.68 778.59 1180.08 730.931C1098.89 635.614 970.039 536.584 812.781 456.458C655.523 376.331 499.672 330.299 374.832 320.635C312.411 315.803 257.769 320.065 214.589 333.683C171.412 347.301 139.733 370.26 123.153 402.8C106.573 435.341 106.619 474.464 120.981 517.4C135.344 560.338 164.013 607.05 204.613 654.709C285.81 750.026 414.658 849.055 571.916 929.182Z" stroke="url(#paint72_linear_254_9020)" stroke-opacity="0.3"/>
<path d="M576.062 931.252C734.694 1008.62 891.325 1051.93 1016.31 1059.41C1078.81 1063.15 1133.37 1057.94 1176.31 1043.57C1219.24 1029.2 1250.51 1005.69 1266.52 972.865C1282.53 940.04 1281.8 900.924 1266.69 858.245C1251.58 815.564 1222.1 769.36 1180.68 722.417C1097.83 628.532 967.273 531.766 808.64 454.396C650.008 377.025 493.377 333.721 368.388 326.237C305.892 322.495 251.333 327.71 208.397 342.08C165.464 356.449 134.191 379.957 118.181 412.782C102.171 445.607 102.9 484.724 118.009 527.402C133.119 570.083 162.6 616.287 204.025 663.231C286.874 757.116 417.43 853.882 576.062 931.252Z" stroke="url(#paint73_linear_254_9020)" stroke-opacity="0.3"/>
<path d="M580.241 933.245C740.2 1007.84 897.563 1048.4 1022.66 1053.7C1085.21 1056.35 1139.67 1050.19 1182.35 1035.07C1225.03 1019.95 1255.89 995.902 1271.32 962.802C1286.76 929.702 1285.35 890.605 1269.49 848.196C1253.64 805.786 1223.36 760.103 1181.12 713.89C1096.65 621.465 964.42 526.992 804.462 452.402C644.503 377.813 487.14 337.248 362.04 331.947C299.488 329.296 245.028 335.462 202.35 350.579C159.674 365.696 128.816 389.746 113.382 422.846C97.9469 455.945 99.3581 495.043 115.21 537.451C131.063 579.862 161.345 625.544 203.583 671.758C288.058 764.183 420.283 858.655 580.241 933.245Z" stroke="url(#paint74_linear_254_9020)" stroke-opacity="0.3"/>
<path d="M584.457 935.164C745.693 1006.95 903.74 1044.76 1028.91 1047.88C1091.5 1049.44 1145.85 1042.32 1188.25 1026.46C1230.66 1010.6 1261.09 986.019 1275.95 952.655C1290.8 919.291 1288.71 880.224 1272.12 838.099C1255.53 795.971 1224.45 750.824 1181.42 705.355C1095.34 614.419 961.487 522.268 800.251 450.481C639.015 378.694 480.968 340.882 355.794 337.765C293.206 336.206 238.862 343.322 196.454 359.182C154.048 375.04 123.615 399.626 108.76 432.99C93.9058 466.354 95.9992 505.421 112.589 547.546C129.179 589.674 160.254 634.821 203.292 680.29C289.367 771.226 423.221 863.377 584.457 935.164Z" stroke="url(#paint75_linear_254_9020)" stroke-opacity="0.3"/>
<path d="M588.695 937.01C751.159 1005.97 909.842 1041.02 1035.05 1041.95C1097.66 1042.42 1151.87 1034.35 1193.99 1017.76C1236.12 1001.16 1266.12 976.048 1280.39 942.43C1294.66 908.812 1291.88 869.787 1274.56 827.958C1257.24 786.127 1225.38 741.529 1181.55 696.818C1093.9 607.397 958.462 517.597 795.998 448.635C633.533 379.673 474.851 344.625 349.641 343.692C287.035 343.226 232.824 351.289 190.699 367.887C148.576 384.483 118.577 409.596 104.307 443.214C90.0368 476.832 92.8116 515.857 110.134 557.686C127.457 599.518 159.315 644.115 203.14 688.827C290.789 778.247 426.231 868.048 588.695 937.01Z" stroke="url(#paint76_linear_254_9020)" stroke-opacity="0.3"/>
<path d="M592.975 938.781C756.618 1004.9 915.888 1037.17 1041.09 1035.92C1103.7 1035.29 1157.76 1026.28 1199.59 1008.95C1241.42 991.623 1270.97 965.991 1284.66 932.129C1298.34 898.267 1294.88 859.297 1276.83 817.776C1258.78 776.253 1226.15 732.218 1181.55 688.279C1092.35 600.402 955.366 512.978 791.723 446.862C628.08 380.746 468.81 348.473 343.603 349.726C280.998 350.353 226.936 359.361 185.107 376.691C143.281 394.02 113.724 419.652 100.043 453.514C86.3618 487.376 89.8173 526.347 107.867 567.867C125.917 609.39 158.549 653.425 203.148 697.365C292.344 785.242 429.332 872.665 592.975 938.781Z" stroke="url(#paint77_linear_254_9020)" stroke-opacity="0.3"/>
<path d="M597.284 940.478C762.056 1003.73 921.865 1033.22 1047.03 1029.78C1109.61 1028.06 1163.51 1018.11 1205.03 1000.05C1246.55 981.995 1275.65 955.851 1288.74 921.755C1301.83 887.66 1297.7 848.756 1278.92 807.556C1260.15 766.355 1226.76 722.896 1181.4 679.742C1090.68 593.435 952.188 508.416 787.416 445.165C622.644 381.915 462.835 352.427 337.669 355.865C275.085 357.584 221.188 367.534 179.668 385.592C138.151 403.648 109.046 429.792 95.9577 463.888C82.8696 497.984 87.0047 536.888 105.776 578.087C124.549 619.288 157.944 662.747 203.303 705.902C294.019 792.209 432.512 877.228 597.284 940.478Z" stroke="url(#paint78_linear_254_9020)" stroke-opacity="0.3"/>
<path d="M601.617 942.096C767.468 1002.46 927.767 1029.16 1052.85 1023.53C1115.4 1020.72 1169.11 1009.83 1210.31 991.054C1251.51 972.276 1280.15 945.628 1292.64 911.309C1305.13 876.99 1300.32 838.164 1280.83 797.299C1261.34 756.431 1227.2 713.562 1181.09 671.206C1088.88 586.495 948.927 503.906 783.076 443.541C617.226 383.176 456.926 356.481 331.839 362.103C269.295 364.914 215.58 375.804 174.381 394.583C133.185 413.361 104.541 440.01 92.0497 474.329C79.5587 508.647 84.3722 547.473 103.86 588.339C123.349 629.206 157.497 672.076 203.602 714.432C295.811 799.142 435.766 881.731 601.617 942.096Z" stroke="url(#paint79_linear_254_9020)" stroke-opacity="0.3"/>
<path d="M605.987 943.645C772.866 1001.11 933.607 1025 1058.58 1017.19C1121.06 1013.29 1174.58 1001.47 1215.44 981.972C1256.31 962.478 1284.48 935.334 1296.37 900.802C1308.26 866.27 1302.77 827.534 1282.57 787.015C1262.37 746.494 1227.48 704.227 1180.64 662.682C1086.97 579.594 945.596 499.46 778.717 441.999C611.838 384.538 451.097 360.644 326.128 368.448C263.642 372.35 210.125 384.176 169.26 403.671C128.398 423.165 100.224 450.31 88.3334 484.841C76.4432 519.373 81.9335 558.109 102.131 598.628C122.33 639.149 157.222 681.416 204.059 722.961C297.732 806.05 439.108 886.184 605.987 943.645Z" stroke="url(#paint80_linear_254_9020)" stroke-opacity="0.3"/>
<path d="M610.373 945.113C778.23 999.653 939.363 1020.74 1064.18 1010.75C1126.59 1005.76 1179.89 993.004 1220.41 972.799C1260.92 952.594 1288.62 924.962 1299.9 890.228C1311.19 855.494 1305.02 816.86 1284.12 776.7C1263.22 736.537 1227.6 694.886 1180.04 654.165C1084.93 572.723 942.179 495.069 774.323 440.529C606.466 385.989 445.333 364.905 320.519 374.889C258.11 379.881 204.808 392.638 164.29 412.844C123.774 433.049 96.0774 460.68 84.7917 495.414C73.506 530.148 79.6715 568.782 100.573 608.943C121.477 649.105 157.101 690.757 204.656 731.478C299.764 812.919 442.517 890.574 610.373 945.113Z" stroke="url(#paint81_linear_254_9020)" stroke-opacity="0.3"/>
<path d="M614.789 946.505C783.572 998.107 945.049 1016.38 1069.67 1004.22C1131.98 998.135 1185.05 984.449 1225.21 963.539C1265.37 942.631 1292.58 914.52 1303.26 879.594C1313.94 844.669 1307.1 806.148 1285.5 766.358C1263.9 726.567 1227.55 685.543 1179.29 645.658C1082.78 565.889 938.69 490.738 769.907 439.136C601.124 387.534 439.647 369.265 315.026 381.426C252.715 387.506 199.643 401.192 159.484 422.102C119.327 443.01 92.1167 471.121 81.4389 506.047C70.7611 540.973 77.5999 579.493 99.1996 619.283C120.8 659.074 157.146 700.098 205.405 739.983C301.92 819.752 446.006 894.903 614.789 946.505Z" stroke="url(#paint82_linear_254_9020)" stroke-opacity="0.3"/>
<path d="M619.228 947.819C788.885 996.468 950.656 1011.92 1075.05 997.582C1137.24 990.415 1190.07 975.805 1229.86 954.198C1269.64 932.592 1296.36 904.01 1306.42 868.904C1316.49 833.797 1308.98 795.401 1286.69 755.995C1264.4 716.586 1227.34 676.204 1178.39 637.167C1080.5 559.094 935.125 486.469 765.467 437.821C595.81 389.172 434.039 373.724 309.649 388.058C247.453 395.225 194.628 409.835 154.84 431.442C115.054 453.049 88.3384 481.63 78.2718 516.737C68.2051 551.843 75.7152 590.239 98.0061 629.645C120.298 669.054 157.354 709.437 206.301 748.474C304.194 826.546 449.57 899.171 619.228 947.819Z" stroke="url(#paint83_linear_254_9020)" stroke-opacity="0.3"/>
<path d="M623.692 949.058C794.173 994.738 956.189 1007.36 1080.31 990.858C1142.37 982.606 1194.93 967.077 1234.34 944.778C1273.74 922.481 1299.95 893.438 1309.41 858.161C1318.86 822.884 1310.68 784.625 1287.7 745.614C1264.73 706.6 1226.97 666.87 1177.35 628.694C1078.11 552.342 931.489 482.265 761.008 436.585C590.528 390.904 428.512 378.282 304.391 394.785C242.329 403.036 189.768 418.566 150.363 440.864C110.96 463.161 84.7472 492.205 75.2948 527.482C65.8424 562.759 74.0214 601.017 96.9966 640.029C119.973 679.042 157.728 718.772 207.349 756.949C306.59 833.301 453.211 903.378 623.692 949.058Z" stroke="url(#paint84_linear_254_9020)" stroke-opacity="0.3"/>
<path d="M628.174 950.216C799.426 992.914 961.637 1002.71 1085.45 984.041C1147.36 974.708 1199.64 958.263 1238.65 935.28C1277.66 912.299 1303.36 882.802 1312.2 847.366C1321.03 811.929 1312.19 773.819 1288.53 735.214C1264.88 696.608 1226.44 657.543 1176.16 620.238C1075.6 545.63 927.777 478.123 756.525 435.425C585.273 392.727 423.062 382.934 299.248 401.6C237.34 410.933 185.057 427.378 146.047 450.361C107.04 473.342 81.338 502.839 72.5027 538.275C63.6674 573.712 72.5129 611.822 96.1654 650.426C119.819 689.033 158.262 728.098 208.542 765.403C309.1 840.011 456.922 907.518 628.174 950.216Z" stroke="url(#paint85_linear_254_9020)" stroke-opacity="0.3"/>
<path d="M632.674 951.298C804.645 991 967.003 997.961 1090.47 977.137C1152.21 966.724 1204.2 949.37 1242.8 925.71C1281.4 902.051 1306.58 872.11 1314.8 836.525C1323.01 800.94 1313.5 762.99 1289.18 724.804C1264.86 686.616 1225.74 648.228 1174.82 611.806C1072.97 538.964 923.993 474.047 752.022 434.344C580.05 394.642 417.693 387.681 294.223 408.506C232.488 418.918 180.5 436.272 141.897 459.933C103.297 483.591 78.1135 513.532 69.898 549.117C61.6824 584.703 71.1917 622.653 95.5144 660.838C119.838 699.026 158.957 737.414 209.88 773.836C311.725 846.678 460.702 911.595 632.674 951.298Z" stroke="url(#paint86_linear_254_9020)" stroke-opacity="0.3"/>
<path d="M637.196 952.299C809.834 988.994 972.289 993.12 1095.38 970.144C1156.92 958.656 1208.6 940.397 1246.78 916.067C1284.96 891.738 1309.62 861.362 1317.21 825.639C1324.81 789.916 1314.64 752.137 1289.65 714.382C1264.66 676.624 1224.88 638.925 1173.33 603.397C1070.23 532.344 920.142 470.037 747.504 433.341C574.866 396.646 412.411 392.52 289.324 415.496C227.78 426.984 176.103 445.243 137.919 469.574C99.737 493.903 75.0803 524.278 67.4871 560.001C59.8939 595.725 70.064 633.503 95.0494 671.258C120.036 709.016 159.819 746.716 211.37 782.243C314.47 853.296 464.558 915.604 637.196 952.299Z" stroke="url(#paint87_linear_254_9020)" stroke-opacity="0.3"/>
<path d="M641.733 953.222C814.985 986.899 977.487 988.189 1100.15 963.068C1161.49 950.508 1212.84 931.35 1250.59 906.357C1288.34 881.365 1312.47 850.564 1319.44 814.714C1326.4 778.863 1315.58 741.268 1289.94 703.955C1264.29 666.639 1223.86 629.639 1171.7 595.017C1067.37 525.774 916.219 466.096 742.967 432.419C569.715 398.742 407.213 397.452 284.546 422.573C223.211 435.133 171.861 454.291 134.108 479.284C96.3562 504.276 72.2334 535.077 65.2648 570.927C58.2962 606.778 69.1241 644.373 94.7646 681.686C120.406 719.002 160.841 756.002 213.004 790.624C317.329 859.867 468.482 919.545 641.733 953.222Z" stroke="url(#paint88_linear_254_9020)" stroke-opacity="0.3"/>
<path d="M646.286 954.065C820.1 984.713 982.6 983.167 1104.81 955.909C1165.92 942.28 1216.92 922.229 1254.24 896.581C1291.55 870.934 1315.13 839.717 1321.47 803.75C1327.81 767.783 1316.33 730.383 1290.04 693.523C1263.75 656.66 1222.68 620.372 1169.92 586.665C1064.4 519.253 912.229 462.222 738.416 431.574C564.602 400.926 402.103 402.472 279.892 429.73C218.786 443.359 167.778 463.41 130.466 489.058C93.1569 514.705 69.5754 545.923 63.2335 581.889C56.8917 617.856 68.374 655.256 94.6618 692.117C120.951 728.979 162.025 765.267 214.785 798.974C320.302 866.386 472.473 923.417 646.286 954.065Z" stroke="url(#paint89_linear_254_9020)" stroke-opacity="0.3"/>
<path d="M650.852 954.83C825.173 982.44 987.621 978.058 1109.34 948.672C1170.2 933.978 1220.85 913.039 1257.7 886.744C1294.56 860.45 1317.59 828.826 1323.31 792.754C1329.02 756.682 1316.89 719.488 1289.96 683.092C1263.03 646.694 1221.33 611.128 1167.99 578.348C1061.31 512.787 908.17 458.42 733.848 430.811C559.526 403.201 397.078 407.583 275.362 436.969C214.503 451.662 163.853 472.601 126.995 498.896C90.1383 525.19 67.1052 556.815 61.392 592.886C55.6788 628.958 67.8122 666.152 94.7393 702.548C121.668 738.947 163.369 774.512 216.709 807.293C323.387 872.853 476.53 927.22 650.852 954.83Z" stroke="url(#paint90_linear_254_9020)" stroke-opacity="0.3"/>
<path d="M655.433 955.516C830.21 980.079 992.557 972.863 1113.74 941.357C1174.33 925.603 1224.61 903.784 1261.01 876.849C1297.4 849.916 1319.88 817.895 1324.96 781.729C1330.04 745.563 1317.26 708.586 1289.7 672.665C1262.14 636.743 1219.83 601.91 1165.92 570.065C1058.12 506.377 904.049 454.691 729.272 430.128C554.494 405.565 392.148 412.781 270.963 444.287C210.37 460.04 160.092 481.86 123.699 508.794C87.3071 535.727 64.8294 567.749 59.7466 603.915C54.6638 640.081 67.4444 677.058 95.0026 712.978C122.562 748.901 164.878 783.733 218.782 815.578C326.587 879.267 480.656 930.953 655.433 955.516Z" stroke="url(#paint91_linear_254_9020)" stroke-opacity="0.3"/>
<path d="M660.02 956.12C835.199 977.629 997.395 967.58 1118.01 933.964C1178.32 917.156 1228.21 894.462 1264.13 866.897C1300.04 839.333 1321.96 806.924 1326.41 770.674C1330.86 734.425 1317.44 697.677 1289.26 662.243C1261.07 626.807 1218.16 592.718 1163.71 561.819C1054.8 500.022 899.857 451.033 724.678 429.523C549.499 408.014 387.303 418.063 266.687 451.679C206.377 468.487 156.488 491.181 120.57 518.747C84.6543 546.311 62.7389 578.72 58.288 614.969C53.8372 651.218 67.2612 687.966 95.4421 723.4C123.625 758.836 166.542 792.925 220.993 823.824C329.894 885.622 484.841 934.611 660.02 956.12Z" stroke="url(#paint92_linear_254_9020)" stroke-opacity="0.3"/>
<path d="M664.619 956.643C840.147 975.092 1002.14 962.214 1122.15 926.498C1182.16 908.64 1231.65 885.079 1267.08 856.891C1302.51 828.704 1323.85 795.917 1327.67 759.596C1331.49 723.275 1317.43 686.767 1288.63 651.83C1259.83 616.891 1216.33 583.556 1161.35 553.612C1051.38 493.725 895.605 447.447 720.077 428.998C544.549 410.55 382.553 423.428 262.542 459.144C202.535 477.002 153.05 500.563 117.618 528.751C82.1888 556.938 60.8423 589.724 57.0248 626.046C53.2072 662.367 67.2706 698.875 96.0656 733.812C124.862 768.751 168.368 802.086 223.35 832.03C333.313 891.917 489.091 938.195 664.619 956.643Z" stroke="url(#paint93_linear_254_9020)" stroke-opacity="0.3"/>
<path d="M669.229 957.087C845.052 972.47 1006.8 956.766 1126.17 918.961C1185.85 900.058 1234.92 875.637 1269.85 846.835C1304.79 818.034 1325.56 784.88 1328.74 748.498C1331.92 712.116 1317.23 675.858 1287.83 641.429C1258.42 606.998 1214.34 574.428 1158.85 545.448C1047.86 487.489 891.293 443.937 715.469 428.555C539.646 413.172 377.9 428.875 258.53 466.68C198.844 485.583 149.778 510.004 114.844 538.807C79.9114 567.607 59.1403 600.761 55.9573 637.144C52.7742 673.526 67.4726 709.783 96.873 744.213C126.275 778.644 170.355 811.214 225.852 840.194C336.843 898.153 493.406 941.705 669.229 957.087Z" stroke="url(#paint94_linear_254_9020)" stroke-opacity="0.3"/>
<path d="M673.844 957.45C849.909 969.762 1011.36 951.238 1130.05 911.355C1189.4 891.414 1238.03 866.14 1272.45 836.733C1306.88 807.327 1327.07 773.815 1329.62 737.383C1332.16 700.95 1316.83 664.955 1286.84 631.044C1256.84 597.132 1212.2 565.336 1156.2 537.329C1044.22 481.316 886.918 440.503 710.854 428.191C534.789 415.88 373.341 434.403 254.649 474.286C195.302 494.228 146.67 519.501 112.243 548.909C77.8191 578.315 57.6299 611.826 55.0823 648.259C52.5347 684.691 67.8636 720.686 97.8603 754.597C127.859 788.51 172.501 820.306 228.495 848.313C340.481 904.326 497.779 945.138 673.844 957.45Z" stroke="url(#paint95_linear_254_9020)" stroke-opacity="0.3"/>
<path d="M678.468 957.732C854.721 966.969 1015.82 945.631 1133.8 903.683C1192.79 882.708 1240.97 856.59 1274.88 826.586C1308.79 796.583 1328.39 762.725 1330.3 726.253C1332.21 689.782 1316.26 654.06 1285.67 620.678C1255.09 587.294 1209.9 556.282 1153.42 529.256C1040.47 475.206 882.488 437.145 706.235 427.908C529.982 418.671 368.882 440.01 250.905 481.958C191.915 502.932 143.73 529.05 109.823 559.054C75.9168 589.057 56.3155 622.915 54.4042 659.387C52.4928 695.858 68.4475 731.58 99.0315 764.962C129.617 798.346 174.808 829.358 231.282 856.384C344.228 910.434 502.215 948.495 678.468 957.732Z" stroke="url(#paint96_linear_254_9020)" stroke-opacity="0.3"/>
<path d="M683.093 957.934C859.48 964.094 1020.18 939.947 1137.41 895.946C1196.03 873.946 1243.75 846.99 1277.13 816.399C1310.5 785.81 1329.51 751.614 1330.78 715.115C1332.06 678.616 1315.48 643.178 1284.32 610.334C1253.16 577.489 1207.43 547.271 1150.5 521.235C1036.62 469.164 877.996 433.866 701.609 427.706C525.222 421.547 364.519 445.694 247.292 489.694C188.677 511.695 140.956 538.65 107.577 569.241C74.1996 599.831 55.1922 634.027 53.9176 670.526C52.643 707.025 69.2188 742.463 100.381 775.306C131.544 808.151 177.269 838.37 234.206 864.406C348.079 916.477 506.706 951.775 683.093 957.934Z" stroke="url(#paint97_linear_254_9020)" stroke-opacity="0.3"/>
<path d="M687.717 958.056C864.185 961.136 1024.44 934.188 1140.88 888.148C1199.11 865.128 1246.35 837.344 1279.19 806.175C1312.03 775.008 1330.43 740.485 1331.07 703.97C1331.71 667.454 1314.52 632.31 1282.79 600.016C1251.06 567.72 1204.81 538.304 1147.43 513.265C1032.66 463.19 873.444 430.666 696.976 427.585C520.509 424.505 360.251 451.453 243.81 497.493C185.588 520.513 138.344 548.297 105.505 579.466C72.6664 610.634 54.2587 645.156 53.6213 681.672C52.9839 718.187 70.1756 753.331 101.906 785.625C133.638 817.922 179.883 847.337 237.266 872.376C352.03 922.451 511.249 954.976 687.717 958.056Z" stroke="url(#paint98_linear_254_9020)" stroke-opacity="0.3"/>
<path d="M692.348 958.096C868.843 958.096 1028.61 928.355 1144.23 880.29C1202.04 856.257 1248.79 827.653 1281.08 795.916C1313.37 764.18 1331.17 729.342 1331.17 692.82C1331.17 656.299 1313.37 621.461 1281.08 589.725C1248.79 557.988 1202.04 529.383 1144.23 505.35C1028.61 457.285 868.843 427.545 692.348 427.545C515.853 427.545 356.091 457.285 240.471 505.35C182.659 529.383 135.908 557.988 103.617 589.725C71.3278 621.461 53.5254 656.299 53.5254 692.82C53.5254 729.342 71.3278 764.18 103.617 795.916C135.908 827.653 182.659 856.258 240.471 880.29C356.091 928.355 515.853 958.096 692.348 958.096Z" stroke="url(#paint99_linear_254_9020)" stroke-opacity="0.3"/>
<defs>
<linearGradient id="paint0_linear_254_9020" x1="845.309" y1="718.387" x2="533.063" y2="668.932" gradientUnits="userSpaceOnUse">
<stop stop-color="#FF7400"/>
<stop offset="1" stop-color="#121212"/>
</linearGradient>
<linearGradient id="paint1_linear_254_9020" x1="845.734" y1="715.716" x2="532.672" y2="671.718" gradientUnits="userSpaceOnUse">
<stop stop-color="#FF7400"/>
<stop offset="1" stop-color="#121212"/>
</linearGradient>
<linearGradient id="paint2_linear_254_9020" x1="846.112" y1="713.035" x2="532.33" y2="674.507" gradientUnits="userSpaceOnUse">
<stop stop-color="#FF7400"/>
<stop offset="1" stop-color="#121212"/>
</linearGradient>
<linearGradient id="paint3_linear_254_9020" x1="846.438" y1="710.347" x2="532.032" y2="677.302" gradientUnits="userSpaceOnUse">
<stop stop-color="#FF7400"/>
<stop offset="1" stop-color="#121212"/>
</linearGradient>
<linearGradient id="paint4_linear_254_9020" x1="846.725" y1="707.658" x2="531.789" y2="680.105" gradientUnits="userSpaceOnUse">
<stop stop-color="#FF7400"/>
<stop offset="1" stop-color="#121212"/>
</linearGradient>
<linearGradient id="paint5_linear_254_9020" x1="846.958" y1="704.96" x2="531.59" y2="682.907" gradientUnits="userSpaceOnUse">
<stop stop-color="#FF7400"/>
<stop offset="1" stop-color="#121212"/>
</linearGradient>
<linearGradient id="paint6_linear_254_9020" x1="847.147" y1="702.262" x2="531.442" y2="685.717" gradientUnits="userSpaceOnUse">
<stop stop-color="#FF7400"/>
<stop offset="1" stop-color="#121212"/>
</linearGradient>
<linearGradient id="paint7_linear_254_9020" x1="847.286" y1="699.555" x2="531.341" y2="688.522" gradientUnits="userSpaceOnUse">
<stop stop-color="#FF7400"/>
<stop offset="1" stop-color="#121212"/>
</linearGradient>
<linearGradient id="paint8_linear_254_9020" x1="847.376" y1="696.851" x2="531.286" y2="691.334" gradientUnits="userSpaceOnUse">
<stop stop-color="#FF7400"/>
<stop offset="1" stop-color="#121212"/>
</linearGradient>
<linearGradient id="paint9_linear_254_9020" x1="847.427" y1="694.144" x2="531.288" y2="694.144" gradientUnits="userSpaceOnUse">
<stop stop-color="#FF7400"/>
<stop offset="1" stop-color="#121212"/>
</linearGradient>
<linearGradient id="paint10_linear_254_9020" x1="847.427" y1="691.438" x2="531.337" y2="696.955" gradientUnits="userSpaceOnUse">
<stop stop-color="#FF7400"/>
<stop offset="1" stop-color="#121212"/>
</linearGradient>
<linearGradient id="paint11_linear_254_9020" x1="847.378" y1="688.733" x2="531.432" y2="699.766" gradientUnits="userSpaceOnUse">
<stop stop-color="#FF7400"/>
<stop offset="1" stop-color="#121212"/>
</linearGradient>
<linearGradient id="paint12_linear_254_9020" x1="847.285" y1="686.027" x2="531.58" y2="702.572" gradientUnits="userSpaceOnUse">
<stop stop-color="#FF7400"/>
<stop offset="1" stop-color="#121212"/>
</linearGradient>
<linearGradient id="paint13_linear_254_9020" x1="847.141" y1="683.323" x2="531.773" y2="705.376" gradientUnits="userSpaceOnUse">
<stop stop-color="#FF7400"/>
<stop offset="1" stop-color="#121212"/>
</linearGradient>
<linearGradient id="paint14_linear_254_9020" x1="846.955" y1="680.624" x2="532.02" y2="708.177" gradientUnits="userSpaceOnUse">
<stop stop-color="#FF7400"/>
<stop offset="1" stop-color="#121212"/>
</linearGradient>
<linearGradient id="paint15_linear_254_9020" x1="846.716" y1="677.925" x2="532.309" y2="710.97" gradientUnits="userSpaceOnUse">
<stop stop-color="#FF7400"/>
<stop offset="1" stop-color="#121212"/>
</linearGradient>
<linearGradient id="paint16_linear_254_9020" x1="846.435" y1="675.235" x2="532.653" y2="713.762" gradientUnits="userSpaceOnUse">
<stop stop-color="#FF7400"/>
<stop offset="1" stop-color="#121212"/>
</linearGradient>
<linearGradient id="paint17_linear_254_9020" x1="846.106" y1="672.55" x2="533.044" y2="716.548" gradientUnits="userSpaceOnUse">
<stop stop-color="#FF7400"/>
<stop offset="1" stop-color="#121212"/>
</linearGradient>
<linearGradient id="paint18_linear_254_9020" x1="845.726" y1="669.869" x2="533.479" y2="719.324" gradientUnits="userSpaceOnUse">
<stop stop-color="#FF7400"/>
<stop offset="1" stop-color="#121212"/>
</linearGradient>
<linearGradient id="paint19_linear_254_9020" x1="845.301" y1="667.197" x2="533.965" y2="722.094" gradientUnits="userSpaceOnUse">
<stop stop-color="#FF7400"/>
<stop offset="1" stop-color="#121212"/>
</linearGradient>
<linearGradient id="paint20_linear_254_9020" x1="844.833" y1="664.531" x2="534.503" y2="724.853" gradientUnits="userSpaceOnUse">
<stop stop-color="#FF7400"/>
<stop offset="1" stop-color="#121212"/>
</linearGradient>
<linearGradient id="paint21_linear_254_9020" x1="844.317" y1="661.873" x2="535.087" y2="727.602" gradientUnits="userSpaceOnUse">
<stop stop-color="#FF7400"/>
<stop offset="1" stop-color="#121212"/>
</linearGradient>
<linearGradient id="paint22_linear_254_9020" x1="843.749" y1="659.224" x2="535.713" y2="730.34" gradientUnits="userSpaceOnUse">
<stop stop-color="#FF7400"/>
<stop offset="1" stop-color="#121212"/>
</linearGradient>
<linearGradient id="paint23_linear_254_9020" x1="843.141" y1="656.59" x2="536.393" y2="733.071" gradientUnits="userSpaceOnUse">
<stop stop-color="#FF7400"/>
<stop offset="1" stop-color="#121212"/>
</linearGradient>
<linearGradient id="paint24_linear_254_9020" x1="842.487" y1="653.962" x2="537.12" y2="735.785" gradientUnits="userSpaceOnUse">
<stop stop-color="#FF7400"/>
<stop offset="1" stop-color="#121212"/>
</linearGradient>
<linearGradient id="paint25_linear_254_9020" x1="841.785" y1="651.349" x2="537.894" y2="738.489" gradientUnits="userSpaceOnUse">
<stop stop-color="#FF7400"/>
<stop offset="1" stop-color="#121212"/>
</linearGradient>
<linearGradient id="paint26_linear_254_9020" x1="841.039" y1="648.749" x2="538.715" y2="741.179" gradientUnits="userSpaceOnUse">
<stop stop-color="#FF7400"/>
<stop offset="1" stop-color="#121212"/>
</linearGradient>
<linearGradient id="paint27_linear_254_9020" x1="840.245" y1="646.159" x2="539.58" y2="743.851" gradientUnits="userSpaceOnUse">
<stop stop-color="#FF7400"/>
<stop offset="1" stop-color="#121212"/>
</linearGradient>
<linearGradient id="paint28_linear_254_9020" x1="839.411" y1="643.586" x2="540.496" y2="746.51" gradientUnits="userSpaceOnUse">
<stop stop-color="#FF7400"/>
<stop offset="1" stop-color="#121212"/>
</linearGradient>
<linearGradient id="paint29_linear_254_9020" x1="838.527" y1="641.024" x2="541.454" y2="749.15" gradientUnits="userSpaceOnUse">
<stop stop-color="#FF7400"/>
<stop offset="1" stop-color="#121212"/>
</linearGradient>
<linearGradient id="paint30_linear_254_9020" x1="837.601" y1="638.481" x2="542.46" y2="751.774" gradientUnits="userSpaceOnUse">
<stop stop-color="#FF7400"/>
<stop offset="1" stop-color="#121212"/>
</linearGradient>
<linearGradient id="paint31_linear_254_9020" x1="836.626" y1="635.954" x2="543.508" y2="754.381" gradientUnits="userSpaceOnUse">
<stop stop-color="#FF7400"/>
<stop offset="1" stop-color="#121212"/>
</linearGradient>
<linearGradient id="paint32_linear_254_9020" x1="835.616" y1="633.448" x2="544.609" y2="756.973" gradientUnits="userSpaceOnUse">
<stop stop-color="#FF7400"/>
<stop offset="1" stop-color="#121212"/>
</linearGradient>
<linearGradient id="paint33_linear_254_9020" x1="834.558" y1="630.955" x2="545.751" y2="759.54" gradientUnits="userSpaceOnUse">
<stop stop-color="#FF7400"/>
<stop offset="1" stop-color="#121212"/>
</linearGradient>
<linearGradient id="paint34_linear_254_9020" x1="833.455" y1="628.482" x2="546.937" y2="762.088" gradientUnits="userSpaceOnUse">
<stop stop-color="#FF7400"/>
<stop offset="1" stop-color="#121212"/>
</linearGradient>
<linearGradient id="paint35_linear_254_9020" x1="832.311" y1="626.029" x2="548.167" y2="764.615" gradientUnits="userSpaceOnUse">
<stop stop-color="#FF7400"/>
<stop offset="1" stop-color="#121212"/>
</linearGradient>
<linearGradient id="paint36_linear_254_9020" x1="831.126" y1="623.595" x2="549.445" y2="767.119" gradientUnits="userSpaceOnUse">
<stop stop-color="#FF7400"/>
<stop offset="1" stop-color="#121212"/>
</linearGradient>
<linearGradient id="paint37_linear_254_9020" x1="829.899" y1="621.185" x2="550.766" y2="769.603" gradientUnits="userSpaceOnUse">
<stop stop-color="#FF7400"/>
<stop offset="1" stop-color="#121212"/>
</linearGradient>
<linearGradient id="paint38_linear_254_9020" x1="828.624" y1="618.794" x2="552.123" y2="772.061" gradientUnits="userSpaceOnUse">
<stop stop-color="#FF7400"/>
<stop offset="1" stop-color="#121212"/>
</linearGradient>
<linearGradient id="paint39_linear_254_9020" x1="827.313" y1="616.429" x2="553.529" y2="774.498" gradientUnits="userSpaceOnUse">
<stop stop-color="#FF7400"/>
<stop offset="1" stop-color="#121212"/>
</linearGradient>
<linearGradient id="paint40_linear_254_9020" x1="825.961" y1="614.086" x2="554.978" y2="776.91" gradientUnits="userSpaceOnUse">
<stop stop-color="#FF7400"/>
<stop offset="1" stop-color="#121212"/>
</linearGradient>
<linearGradient id="paint41_linear_254_9020" x1="824.563" y1="611.765" x2="556.462" y2="779.293" gradientUnits="userSpaceOnUse">
<stop stop-color="#FF7400"/>
<stop offset="1" stop-color="#121212"/>
</linearGradient>
<linearGradient id="paint42_linear_254_9020" x1="823.127" y1="609.469" x2="557.991" y2="781.65" gradientUnits="userSpaceOnUse">
<stop stop-color="#FF7400"/>
<stop offset="1" stop-color="#121212"/>
</linearGradient>
<linearGradient id="paint43_linear_254_9020" x1="821.652" y1="607.201" x2="559.561" y2="783.984" gradientUnits="userSpaceOnUse">
<stop stop-color="#FF7400"/>
<stop offset="1" stop-color="#121212"/>
</linearGradient>
<linearGradient id="paint44_linear_254_9020" x1="820.142" y1="604.957" x2="561.177" y2="786.286" gradientUnits="userSpaceOnUse">
<stop stop-color="#FF7400"/>
<stop offset="1" stop-color="#121212"/>
</linearGradient>
<linearGradient id="paint45_linear_254_9020" x1="818.588" y1="602.739" x2="562.826" y2="788.561" gradientUnits="userSpaceOnUse">
<stop stop-color="#FF7400"/>
<stop offset="1" stop-color="#121212"/>
</linearGradient>
<linearGradient id="paint46_linear_254_9020" x1="816.997" y1="600.548" x2="564.517" y2="790.805" gradientUnits="userSpaceOnUse">
<stop stop-color="#FF7400"/>
<stop offset="1" stop-color="#121212"/>
</linearGradient>
<linearGradient id="paint47_linear_254_9020" x1="815.366" y1="598.389" x2="566.245" y2="793.024" gradientUnits="userSpaceOnUse">
<stop stop-color="#FF7400"/>
<stop offset="1" stop-color="#121212"/>
</linearGradient>
<linearGradient id="paint48_linear_254_9020" x1="813.702" y1="596.257" x2="568.016" y2="795.21" gradientUnits="userSpaceOnUse">
<stop stop-color="#FF7400"/>
<stop offset="1" stop-color="#121212"/>
</linearGradient>
<linearGradient id="paint49_linear_254_9020" x1="811.996" y1="594.153" x2="569.82" y2="797.363" gradientUnits="userSpaceOnUse">
<stop stop-color="#FF7400"/>
<stop offset="1" stop-color="#121212"/>
</linearGradient>
<linearGradient id="paint50_linear_254_9020" x1="810.255" y1="592.08" x2="571.662" y2="799.485" gradientUnits="userSpaceOnUse">
<stop stop-color="#FF7400"/>
<stop offset="1" stop-color="#121212"/>
</linearGradient>
<linearGradient id="paint51_linear_254_9020" x1="808.481" y1="590.036" x2="573.545" y2="801.573" gradientUnits="userSpaceOnUse">
<stop stop-color="#FF7400"/>
<stop offset="1" stop-color="#121212"/>
</linearGradient>
<linearGradient id="paint52_linear_254_9020" x1="806.667" y1="588.027" x2="575.458" y2="803.633" gradientUnits="userSpaceOnUse">
<stop stop-color="#FF7400"/>
<stop offset="1" stop-color="#121212"/>
</linearGradient>
<linearGradient id="paint53_linear_254_9020" x1="804.825" y1="586.047" x2="577.414" y2="805.655" gradientUnits="userSpaceOnUse">
<stop stop-color="#FF7400"/>
<stop offset="1" stop-color="#121212"/>
</linearGradient>
<linearGradient id="paint54_linear_254_9020" x1="802.941" y1="584.099" x2="579.397" y2="807.643" gradientUnits="userSpaceOnUse">
<stop stop-color="#FF7400"/>
<stop offset="1" stop-color="#121212"/>
</linearGradient>
<linearGradient id="paint55_linear_254_9020" x1="801.027" y1="582.187" x2="581.419" y2="809.598" gradientUnits="userSpaceOnUse">
<stop stop-color="#FF7400"/>
<stop offset="1" stop-color="#121212"/>
</linearGradient>
<linearGradient id="paint56_linear_254_9020" x1="799.084" y1="580.307" x2="583.478" y2="811.516" gradientUnits="userSpaceOnUse">
<stop stop-color="#FF7400"/>
<stop offset="1" stop-color="#121212"/>
</linearGradient>
<linearGradient id="paint57_linear_254_9020" x1="797.1" y1="578.462" x2="585.562" y2="813.399" gradientUnits="userSpaceOnUse">
<stop stop-color="#FF7400"/>
<stop offset="1" stop-color="#121212"/>
</linearGradient>
<linearGradient id="paint58_linear_254_9020" x1="795.092" y1="576.651" x2="587.687" y2="815.244" gradientUnits="userSpaceOnUse">
<stop stop-color="#FF7400"/>
<stop offset="1" stop-color="#121212"/>
</linearGradient>
<linearGradient id="paint59_linear_254_9020" x1="793.048" y1="574.875" x2="589.838" y2="817.051" gradientUnits="userSpaceOnUse">
<stop stop-color="#FF7400"/>
<stop offset="1" stop-color="#121212"/>
</linearGradient>
<linearGradient id="paint60_linear_254_9020" x1="790.975" y1="573.138" x2="592.022" y2="818.824" gradientUnits="userSpaceOnUse">
<stop stop-color="#FF7400"/>
<stop offset="1" stop-color="#121212"/>
</linearGradient>
<linearGradient id="paint61_linear_254_9020" x1="788.869" y1="571.434" x2="594.235" y2="820.554" gradientUnits="userSpaceOnUse">
<stop stop-color="#FF7400"/>
<stop offset="1" stop-color="#121212"/>
</linearGradient>
<linearGradient id="paint62_linear_254_9020" x1="786.738" y1="569.769" x2="596.481" y2="822.248" gradientUnits="userSpaceOnUse">
<stop stop-color="#FF7400"/>
<stop offset="1" stop-color="#121212"/>
</linearGradient>
<linearGradient id="paint63_linear_254_9020" x1="784.573" y1="568.139" x2="598.751" y2="823.9" gradientUnits="userSpaceOnUse">
<stop stop-color="#FF7400"/>
<stop offset="1" stop-color="#121212"/>
</linearGradient>
<linearGradient id="paint64_linear_254_9020" x1="782.385" y1="566.548" x2="601.055" y2="825.514" gradientUnits="userSpaceOnUse">
<stop stop-color="#FF7400"/>
<stop offset="1" stop-color="#121212"/>
</linearGradient>
<linearGradient id="paint65_linear_254_9020" x1="780.166" y1="564.996" x2="603.383" y2="827.087" gradientUnits="userSpaceOnUse">
<stop stop-color="#FF7400"/>
<stop offset="1" stop-color="#121212"/>
</linearGradient>
<linearGradient id="paint66_linear_254_9020" x1="777.921" y1="563.483" x2="605.739" y2="828.619" gradientUnits="userSpaceOnUse">
<stop stop-color="#FF7400"/>
<stop offset="1" stop-color="#121212"/>
</linearGradient>
<linearGradient id="paint67_linear_254_9020" x1="775.649" y1="562.013" x2="608.122" y2="830.113" gradientUnits="userSpaceOnUse">
<stop stop-color="#FF7400"/>
<stop offset="1" stop-color="#121212"/>
</linearGradient>
<linearGradient id="paint68_linear_254_9020" x1="773.356" y1="560.575" x2="610.533" y2="831.558" gradientUnits="userSpaceOnUse">
<stop stop-color="#FF7400"/>
<stop offset="1" stop-color="#121212"/>
</linearGradient>
<linearGradient id="paint69_linear_254_9020" x1="771.037" y1="559.185" x2="612.968" y2="832.969" gradientUnits="userSpaceOnUse">
<stop stop-color="#FF7400"/>
<stop offset="1" stop-color="#121212"/>
</linearGradient>
<linearGradient id="paint70_linear_254_9020" x1="768.691" y1="557.83" x2="615.425" y2="834.331" gradientUnits="userSpaceOnUse">
<stop stop-color="#FF7400"/>
<stop offset="1" stop-color="#121212"/>
</linearGradient>
<linearGradient id="paint71_linear_254_9020" x1="766.32" y1="556.516" x2="617.902" y2="835.649" gradientUnits="userSpaceOnUse">
<stop stop-color="#FF7400"/>
<stop offset="1" stop-color="#121212"/>
</linearGradient>
<linearGradient id="paint72_linear_254_9020" x1="763.931" y1="555.246" x2="620.407" y2="836.927" gradientUnits="userSpaceOnUse">
<stop stop-color="#FF7400"/>
<stop offset="1" stop-color="#121212"/>
</linearGradient>
<linearGradient id="paint73_linear_254_9020" x1="761.522" y1="554.021" x2="622.936" y2="838.165" gradientUnits="userSpaceOnUse">
<stop stop-color="#FF7400"/>
<stop offset="1" stop-color="#121212"/>
</linearGradient>
<linearGradient id="paint74_linear_254_9020" x1="759.09" y1="552.835" x2="625.484" y2="839.354" gradientUnits="userSpaceOnUse">
<stop stop-color="#FF7400"/>
<stop offset="1" stop-color="#121212"/>
</linearGradient>
<linearGradient id="paint75_linear_254_9020" x1="756.639" y1="551.691" x2="628.054" y2="840.497" gradientUnits="userSpaceOnUse">
<stop stop-color="#FF7400"/>
<stop offset="1" stop-color="#121212"/>
</linearGradient>
<linearGradient id="paint76_linear_254_9020" x1="754.158" y1="550.59" x2="630.633" y2="841.597" gradientUnits="userSpaceOnUse">
<stop stop-color="#FF7400"/>
<stop offset="1" stop-color="#121212"/>
</linearGradient>
<linearGradient id="paint77_linear_254_9020" x1="751.669" y1="549.532" x2="633.242" y2="842.651" gradientUnits="userSpaceOnUse">
<stop stop-color="#FF7400"/>
<stop offset="1" stop-color="#121212"/>
</linearGradient>
<linearGradient id="paint78_linear_254_9020" x1="749.16" y1="548.519" x2="635.867" y2="843.659" gradientUnits="userSpaceOnUse">
<stop stop-color="#FF7400"/>
<stop offset="1" stop-color="#121212"/>
</linearGradient>
<linearGradient id="paint79_linear_254_9020" x1="746.63" y1="547.546" x2="638.504" y2="844.619" gradientUnits="userSpaceOnUse">
<stop stop-color="#FF7400"/>
<stop offset="1" stop-color="#121212"/>
</linearGradient>
<linearGradient id="paint80_linear_254_9020" x1="744.092" y1="546.624" x2="641.167" y2="845.539" gradientUnits="userSpaceOnUse">
<stop stop-color="#FF7400"/>
<stop offset="1" stop-color="#121212"/>
</linearGradient>
<linearGradient id="paint81_linear_254_9020" x1="741.528" y1="545.743" x2="643.836" y2="846.408" gradientUnits="userSpaceOnUse">
<stop stop-color="#FF7400"/>
<stop offset="1" stop-color="#121212"/>
</linearGradient>
<linearGradient id="paint82_linear_254_9020" x1="738.954" y1="544.906" x2="646.524" y2="847.231" gradientUnits="userSpaceOnUse">
<stop stop-color="#FF7400"/>
<stop offset="1" stop-color="#121212"/>
</linearGradient>
<linearGradient id="paint83_linear_254_9020" x1="736.365" y1="544.115" x2="649.225" y2="848.007" gradientUnits="userSpaceOnUse">
<stop stop-color="#FF7400"/>
<stop offset="1" stop-color="#121212"/>
</linearGradient>
<linearGradient id="paint84_linear_254_9020" x1="733.766" y1="543.371" x2="651.943" y2="848.737" gradientUnits="userSpaceOnUse">
<stop stop-color="#FF7400"/>
<stop offset="1" stop-color="#121212"/>
</linearGradient>
<linearGradient id="paint85_linear_254_9020" x1="731.15" y1="542.67" x2="654.67" y2="849.417" gradientUnits="userSpaceOnUse">
<stop stop-color="#FF7400"/>
<stop offset="1" stop-color="#121212"/>
</linearGradient>
<linearGradient id="paint86_linear_254_9020" x1="728.522" y1="542.016" x2="657.406" y2="850.052" gradientUnits="userSpaceOnUse">
<stop stop-color="#FF7400"/>
<stop offset="1" stop-color="#121212"/>
</linearGradient>
<linearGradient id="paint87_linear_254_9020" x1="725.887" y1="541.407" x2="660.158" y2="850.637" gradientUnits="userSpaceOnUse">
<stop stop-color="#FF7400"/>
<stop offset="1" stop-color="#121212"/>
</linearGradient>
<linearGradient id="paint88_linear_254_9020" x1="723.24" y1="540.845" x2="662.918" y2="851.175" gradientUnits="userSpaceOnUse">
<stop stop-color="#FF7400"/>
<stop offset="1" stop-color="#121212"/>
</linearGradient>
<linearGradient id="paint89_linear_254_9020" x1="720.584" y1="540.328" x2="665.687" y2="851.664" gradientUnits="userSpaceOnUse">
<stop stop-color="#FF7400"/>
<stop offset="1" stop-color="#121212"/>
</linearGradient>
<linearGradient id="paint90_linear_254_9020" x1="717.917" y1="539.859" x2="668.462" y2="852.105" gradientUnits="userSpaceOnUse">
<stop stop-color="#FF7400"/>
<stop offset="1" stop-color="#121212"/>
</linearGradient>
<linearGradient id="paint91_linear_254_9020" x1="715.246" y1="539.438" x2="671.248" y2="852.5" gradientUnits="userSpaceOnUse">
<stop stop-color="#FF7400"/>
<stop offset="1" stop-color="#121212"/>
</linearGradient>
<linearGradient id="paint92_linear_254_9020" x1="712.562" y1="539.062" x2="674.034" y2="852.843" gradientUnits="userSpaceOnUse">
<stop stop-color="#FF7400"/>
<stop offset="1" stop-color="#121212"/>
</linearGradient>
<linearGradient id="paint93_linear_254_9020" x1="709.874" y1="538.731" x2="676.829" y2="853.138" gradientUnits="userSpaceOnUse">
<stop stop-color="#FF7400"/>
<stop offset="1" stop-color="#121212"/>
</linearGradient>
<linearGradient id="paint94_linear_254_9020" x1="707.184" y1="538.449" x2="679.63" y2="853.384" gradientUnits="userSpaceOnUse">
<stop stop-color="#FF7400"/>
<stop offset="1" stop-color="#121212"/>
</linearGradient>
<linearGradient id="paint95_linear_254_9020" x1="704.487" y1="538.214" x2="682.434" y2="853.582" gradientUnits="userSpaceOnUse">
<stop stop-color="#FF7400"/>
<stop offset="1" stop-color="#121212"/>
</linearGradient>
<linearGradient id="paint96_linear_254_9020" x1="701.789" y1="538.025" x2="685.244" y2="853.73" gradientUnits="userSpaceOnUse">
<stop stop-color="#FF7400"/>
<stop offset="1" stop-color="#121212"/>
</linearGradient>
<linearGradient id="paint97_linear_254_9020" x1="699.086" y1="537.884" x2="688.053" y2="853.829" gradientUnits="userSpaceOnUse">
<stop stop-color="#FF7400"/>
<stop offset="1" stop-color="#121212"/>
</linearGradient>
<linearGradient id="paint98_linear_254_9020" x1="696.377" y1="537.79" x2="690.859" y2="853.88" gradientUnits="userSpaceOnUse">
<stop stop-color="#FF7400"/>
<stop offset="1" stop-color="#121212"/>
</linearGradient>
<linearGradient id="paint99_linear_254_9020" x1="693.672" y1="537.743" x2="693.672" y2="853.881" gradientUnits="userSpaceOnUse">
<stop stop-color="#FF7400"/>
<stop offset="1" stop-color="#121212"/>
</linearGradient>
</defs>
</svg>
