<svg width="752" height="1858" viewBox="0 0 752 1858" fill="none" xmlns="http://www.w3.org/2000/svg">
<path d="M-67.4309 697.752C86.3957 770.84 213.323 862.919 294.188 952.689C334.622 997.574 363.522 1041.86 378.522 1082.89C393.521 1123.92 394.61 1161.65 379.488 1193.48C364.367 1225.31 334.429 1248.29 293.147 1262.58C251.863 1276.87 199.273 1282.44 138.935 1279.45C18.2621 1273.46 -133.296 1233.22 -287.123 1160.13C-440.95 1087.05 -567.877 994.968 -648.742 905.198C-689.176 860.312 -718.076 816.023 -733.076 774.993C-748.075 733.964 -749.164 696.233 -734.042 664.407C-718.921 632.582 -688.983 609.593 -647.701 595.305C-606.417 581.016 -553.827 575.446 -493.489 578.439C-372.816 584.427 -221.258 624.664 -67.4309 697.752Z" stroke="url(#paint0_linear_252_6723)" stroke-opacity="0.3"/>
<path d="M-63.4106 699.706C89.117 775.467 214.418 869.748 293.704 960.915C333.348 1006.5 361.471 1051.29 375.753 1092.57C390.034 1133.86 390.464 1171.6 374.789 1203.16C359.115 1234.71 328.78 1257.18 287.255 1270.74C245.728 1284.31 193.048 1288.96 132.772 1284.91C12.2219 1276.82 -138.611 1233.95 -291.139 1158.18C-443.667 1082.42 -568.967 988.143 -648.254 896.976C-687.898 851.391 -716.021 806.604 -730.302 765.318C-744.583 724.034 -745.013 686.289 -729.339 654.733C-713.664 623.176 -683.329 600.713 -641.804 587.147C-600.277 573.582 -547.598 568.93 -487.322 572.976C-366.771 581.069 -215.938 623.945 -63.4106 699.706Z" stroke="url(#paint1_linear_252_6723)" stroke-opacity="0.3"/>
<path d="M-59.4289 701.73C91.7533 780.142 215.389 876.595 293.073 969.132C331.915 1015.4 359.252 1060.67 372.811 1102.2C386.369 1143.73 386.14 1181.47 369.918 1212.75C353.695 1244.03 322.972 1265.96 281.217 1278.8C239.46 1291.64 186.707 1295.37 126.511 1290.27C6.11998 1280.08 -143.942 1234.58 -295.124 1156.16C-446.306 1077.75 -569.942 981.3 -647.626 888.763C-686.468 842.493 -713.805 797.222 -727.364 755.693C-740.922 714.166 -740.693 676.42 -724.471 645.142C-708.248 613.863 -677.525 591.933 -635.77 579.094C-594.013 566.255 -541.26 562.524 -481.064 567.621C-360.673 577.816 -210.611 623.319 -59.4289 701.73Z" stroke="url(#paint2_linear_252_6723)" stroke-opacity="0.3"/>
<path d="M-55.4806 703.818C94.3101 784.856 216.244 883.452 292.3 977.331C330.329 1024.27 356.872 1070.01 369.705 1111.77C382.536 1153.53 381.648 1191.27 364.882 1222.26C348.116 1253.25 317.015 1274.64 275.042 1286.75C233.067 1298.85 180.257 1301.66 120.159 1295.52C-0.0352233 1283.22 -149.28 1235.11 -299.071 1154.07C-448.862 1073.03 -570.796 974.435 -646.852 880.557C-684.881 833.616 -711.424 787.875 -724.256 746.116C-737.087 704.358 -736.2 666.622 -719.433 635.631C-702.667 604.641 -671.567 583.25 -629.594 571.142C-587.619 559.034 -534.809 556.223 -474.711 562.371C-354.516 574.666 -205.271 622.78 -55.4806 703.818Z" stroke="url(#paint3_linear_252_6723)" stroke-opacity="0.3"/>
<path d="M-51.5707 705.983C96.7829 789.623 216.978 890.332 291.384 985.524C328.588 1033.12 354.329 1079.32 366.43 1121.3C378.531 1163.27 376.984 1200.99 359.68 1231.68C342.375 1262.37 310.906 1283.22 268.729 1294.59C226.548 1305.96 173.698 1307.85 113.716 1300.66C-6.24576 1286.27 -154.628 1235.55 -302.982 1151.91C-451.335 1068.27 -571.53 967.566 -645.937 872.374C-683.141 824.777 -708.881 778.579 -720.983 736.602C-733.083 694.627 -731.537 656.912 -714.232 626.219C-696.928 595.526 -665.459 574.681 -623.281 563.308C-581.101 551.934 -528.25 550.045 -468.268 557.241C-348.307 571.631 -199.924 622.343 -51.5707 705.983Z" stroke="url(#paint4_linear_252_6723)" stroke-opacity="0.3"/>
<path d="M-47.6962 708.207C99.175 794.424 217.594 897.215 290.328 993.691C326.695 1041.93 351.626 1088.57 362.993 1130.75C374.359 1172.93 372.155 1210.61 354.317 1241C336.479 1271.39 304.651 1291.68 262.282 1302.31C219.909 1312.95 167.034 1313.92 107.186 1305.68C-12.5055 1289.19 -159.98 1235.9 -306.852 1149.68C-453.723 1063.47 -572.142 960.676 -644.875 864.2C-681.243 815.961 -706.173 769.321 -717.54 727.139C-728.907 684.959 -726.702 647.277 -708.865 616.891C-691.027 586.504 -659.199 566.211 -616.829 555.576C-574.457 544.94 -521.582 543.974 -461.734 552.215C-342.042 568.697 -194.568 621.991 -47.6962 708.207Z" stroke="url(#paint5_linear_252_6723)" stroke-opacity="0.3"/>
<path d="M-43.8656 710.504C101.479 799.271 218.085 904.113 289.124 1001.84C324.644 1050.71 348.757 1097.78 359.386 1140.15C370.015 1182.52 367.153 1220.16 348.788 1250.23C330.423 1280.3 298.245 1300.04 255.696 1309.93C213.145 1319.83 160.26 1319.87 100.566 1310.58C-18.8199 1292.02 -165.342 1236.16 -310.686 1147.39C-456.031 1058.62 -572.637 953.781 -643.676 856.051C-679.196 807.184 -703.309 760.117 -713.938 717.743C-724.567 675.371 -721.705 637.733 -703.34 607.662C-684.975 577.592 -652.797 557.858 -610.248 547.963C-567.697 538.069 -514.812 538.026 -455.118 547.31C-335.732 565.878 -189.21 621.738 -43.8656 710.504Z" stroke="url(#paint6_linear_252_6723)" stroke-opacity="0.3"/>
<path d="M-40.0753 712.862C103.698 804.151 218.457 911.013 287.779 1009.97C322.441 1059.45 345.729 1106.93 355.617 1149.48C365.504 1192.03 361.986 1229.61 343.099 1259.36C324.212 1289.11 291.695 1308.27 248.98 1317.43C206.262 1326.58 153.385 1325.7 93.8617 1315.37C-25.1822 1294.72 -170.707 1236.31 -314.48 1145.02C-458.253 1053.73 -573.012 946.873 -642.335 847.918C-676.997 798.439 -700.284 750.958 -710.172 708.405C-720.059 665.854 -716.541 628.272 -697.654 598.526C-678.767 568.781 -646.25 549.611 -603.535 540.461C-560.817 531.31 -507.94 532.19 -448.417 542.515C-329.373 563.164 -183.848 621.572 -40.0753 712.862Z" stroke="url(#paint7_linear_252_6723)" stroke-opacity="0.3"/>
<path d="M-36.3223 715.288C105.835 809.072 218.712 917.92 286.297 1018.07C320.09 1068.15 342.546 1116.03 351.689 1158.75C360.833 1201.46 356.659 1238.98 337.256 1268.39C317.852 1297.8 285.006 1316.4 242.137 1324.8C199.267 1333.21 146.413 1331.4 87.079 1320.04C-31.5863 1297.32 -176.07 1236.38 -318.228 1142.6C-460.385 1048.81 -573.262 939.963 -640.847 839.812C-674.64 789.736 -697.096 741.856 -706.239 699.136C-715.383 656.42 -711.209 618.904 -691.806 589.493C-672.402 560.082 -639.556 541.483 -596.687 533.079C-553.817 524.676 -500.963 526.478 -441.629 537.84C-322.964 560.564 -178.48 621.503 -36.3223 715.288Z" stroke="url(#paint8_linear_252_6723)" stroke-opacity="0.3"/>
<path d="M-32.6169 717.783C107.882 814.035 218.842 924.836 284.669 1026.15C317.583 1076.81 339.199 1125.07 347.596 1167.95C355.992 1210.82 351.165 1248.25 331.251 1277.32C311.338 1306.39 278.171 1324.41 235.163 1332.07C192.152 1339.72 139.338 1337 80.2112 1324.6C-38.0395 1299.81 -181.438 1236.36 -321.937 1140.11C-462.436 1043.85 -573.396 933.053 -639.223 831.738C-672.137 781.08 -693.753 732.815 -702.15 689.943C-710.546 647.073 -705.719 609.636 -685.805 580.568C-665.891 551.5 -632.725 533.477 -589.717 525.823C-546.706 518.169 -493.892 520.894 -434.765 533.289C-316.514 558.08 -173.116 621.531 -32.6169 717.783Z" stroke="url(#paint9_linear_252_6723)" stroke-opacity="0.3"/>
<path d="M-28.9535 720.34C109.845 819.029 218.854 931.75 282.902 1034.2C314.927 1085.42 335.698 1134.06 343.345 1177.07C350.992 1220.08 345.512 1257.43 325.094 1286.14C304.676 1314.86 271.2 1332.3 228.065 1339.2C184.927 1346.11 132.168 1342.46 73.267 1329.03C-44.533 1302.18 -186.802 1236.24 -325.6 1137.55C-464.398 1038.86 -573.407 926.139 -637.456 823.691C-669.481 772.466 -690.251 723.831 -697.899 680.819C-705.546 637.809 -700.066 600.463 -679.648 571.746C-659.23 543.03 -625.754 525.589 -582.618 518.687C-539.48 511.784 -486.722 515.43 -427.821 528.856C-310.02 555.707 -167.752 621.651 -28.9535 720.34Z" stroke="url(#paint10_linear_252_6723)" stroke-opacity="0.3"/>
<path d="M-25.3326 722.961C111.722 824.057 218.747 938.663 280.998 1042.21C312.124 1093.99 332.043 1142.98 338.938 1186.12C345.834 1229.26 339.702 1266.5 318.786 1294.86C297.87 1323.21 264.095 1340.07 220.846 1346.21C177.594 1352.36 124.907 1347.8 66.2492 1333.35C-51.0643 1304.44 -192.161 1236.03 -329.215 1134.93C-466.27 1033.83 -573.295 919.226 -635.546 815.676C-666.672 763.9 -686.591 714.91 -693.486 671.771C-700.381 628.634 -694.25 591.389 -673.334 563.033C-652.418 534.678 -618.643 517.823 -575.394 511.675C-532.142 505.526 -479.455 510.093 -420.797 524.545C-303.483 553.447 -162.387 621.864 -25.3326 722.961Z" stroke="url(#paint11_linear_252_6723)" stroke-opacity="0.3"/>
<path d="M-21.7621 725.644C113.507 829.117 218.516 945.574 278.95 1050.19C309.168 1102.51 328.229 1151.84 334.37 1195.09C340.511 1238.34 333.731 1275.47 312.324 1303.46C290.916 1331.44 256.852 1347.71 213.502 1353.1C170.149 1358.49 117.55 1353.01 59.1531 1337.53C-57.6382 1306.59 -197.519 1235.72 -332.788 1132.25C-468.058 1028.77 -573.067 912.317 -633.501 807.696C-663.718 755.384 -682.779 706.054 -688.921 662.801C-695.062 619.551 -688.282 582.418 -666.874 554.432C-645.466 526.446 -611.402 510.183 -568.052 504.791C-524.7 499.398 -472.1 504.883 -413.703 520.356C-296.912 551.302 -157.032 622.171 -21.7621 725.644Z" stroke="url(#paint12_linear_252_6723)" stroke-opacity="0.3"/>
<path d="M-18.2386 728.388C115.204 834.206 218.165 952.477 276.764 1058.14C306.064 1110.97 324.261 1160.62 329.647 1203.98C335.032 1247.33 327.605 1284.34 305.712 1311.94C283.819 1339.55 249.476 1355.22 206.039 1359.85C162.599 1364.49 110.103 1358.09 51.9853 1341.6C-64.248 1308.62 -202.871 1235.32 -336.314 1129.5C-469.756 1023.68 -572.717 905.41 -631.316 799.751C-660.616 746.92 -678.813 697.265 -684.199 653.911C-689.584 610.56 -682.157 573.551 -660.264 545.943C-638.371 518.335 -604.028 502.669 -560.591 498.034C-517.151 493.399 -464.655 499.801 -406.537 516.291C-290.304 549.27 -151.682 622.57 -18.2386 728.388Z" stroke="url(#paint13_linear_252_6723)" stroke-opacity="0.3"/>
<path d="M-14.762 731.198C116.814 839.328 217.695 959.379 274.441 1066.05C302.814 1119.38 320.142 1169.34 324.77 1212.79C329.398 1256.22 321.326 1293.1 298.955 1320.32C276.583 1347.54 241.973 1362.61 198.461 1366.48C154.946 1370.36 102.57 1363.04 44.7493 1345.54C-70.8908 1310.54 -208.213 1234.83 -339.789 1126.7C-471.365 1018.57 -572.245 898.516 -628.991 791.85C-657.365 738.516 -674.693 688.551 -679.321 645.11C-683.949 601.671 -675.877 564.798 -653.505 537.576C-631.134 510.354 -596.523 495.29 -553.011 491.414C-509.497 487.537 -457.121 494.855 -399.3 512.357C-283.66 547.359 -146.338 623.067 -14.762 731.198Z" stroke="url(#paint14_linear_252_6723)" stroke-opacity="0.3"/>
<path d="M-11.3362 734.06C118.332 844.47 217.103 966.263 271.979 1073.9C299.417 1127.72 315.87 1177.98 319.739 1221.5C323.608 1265.01 314.894 1301.74 292.051 1328.57C269.208 1355.39 234.34 1369.85 190.767 1372.97C147.191 1376.08 94.9512 1367.85 37.4442 1349.35C-77.5673 1312.33 -213.547 1234.24 -343.216 1123.83C-472.885 1013.42 -571.655 891.624 -626.531 783.983C-653.969 730.162 -670.422 679.902 -674.291 636.387C-678.161 592.874 -669.446 556.147 -646.603 529.32C-623.76 502.492 -588.892 488.035 -545.319 484.918C-501.743 481.802 -449.503 490.033 -391.996 508.541C-276.985 545.557 -141.005 623.649 -11.3362 734.06Z" stroke="url(#paint15_linear_252_6723)" stroke-opacity="0.3"/>
<path d="M-7.95951 736.987C119.762 849.644 216.392 973.142 269.381 1081.72C295.876 1136.02 311.449 1186.56 314.558 1230.13C317.668 1273.7 308.314 1310.27 285.006 1336.7C261.698 1363.12 226.583 1376.97 182.962 1379.33C139.339 1381.68 87.2504 1372.54 30.0753 1353.03C-84.2728 1314.01 -218.869 1233.56 -346.591 1120.9C-474.313 1008.25 -570.943 884.748 -623.932 776.166C-650.427 721.874 -666 671.335 -669.109 627.759C-672.218 584.185 -662.864 547.616 -639.557 521.191C-616.249 494.767 -581.133 480.92 -537.513 478.565C-493.89 476.209 -441.801 485.35 -384.626 504.859C-270.278 543.876 -135.681 624.33 -7.95951 736.987Z" stroke="url(#paint16_linear_252_6723)" stroke-opacity="0.3"/>
<path d="M-4.63544 739.974C121.101 854.842 215.56 980.008 266.646 1089.5C292.19 1144.24 306.878 1195.05 309.227 1238.67C311.575 1282.29 301.584 1318.69 277.819 1344.71C254.054 1370.72 218.702 1383.95 175.047 1385.55C131.389 1387.14 79.468 1377.09 22.6421 1356.59C-91.0076 1315.58 -224.179 1232.79 -349.916 1117.92C-475.652 1003.05 -570.112 877.887 -621.198 768.397C-646.741 713.651 -661.43 662.847 -663.778 619.223C-666.126 575.602 -656.136 539.202 -632.37 513.188C-608.605 487.174 -573.253 473.942 -529.598 472.348C-485.94 470.754 -434.019 480.803 -377.193 501.307C-263.544 542.314 -130.372 625.105 -4.63544 739.974Z" stroke="url(#paint17_linear_252_6723)" stroke-opacity="0.3"/>
<path d="M-1.3642 743.013C122.348 860.059 214.609 986.854 263.776 1097.22C288.36 1152.4 302.16 1203.45 303.747 1247.11C305.333 1290.77 294.709 1326.99 270.493 1352.58C246.277 1378.18 210.7 1390.79 167.024 1391.62C123.345 1392.46 71.6073 1381.5 15.1478 1360.01C-97.7689 1317.02 -229.475 1231.92 -353.188 1114.88C-476.9 997.831 -569.161 871.036 -618.328 760.671C-642.912 705.488 -656.712 654.436 -658.299 610.778C-659.886 567.122 -649.261 530.902 -625.045 505.306C-600.83 479.711 -565.252 467.099 -521.576 466.267C-477.897 465.435 -426.159 476.388 -369.7 497.881C-256.783 540.865 -125.077 625.968 -1.3642 743.013Z" stroke="url(#paint18_linear_252_6723)" stroke-opacity="0.3"/>
<path d="M1.85486 746.111C123.506 865.298 213.539 993.684 260.773 1104.89C284.39 1160.49 297.297 1211.78 298.122 1255.46C298.946 1299.14 287.691 1335.16 263.032 1360.33C238.374 1385.5 202.582 1397.49 158.897 1397.56C115.211 1397.63 63.6721 1385.78 7.59629 1363.3C-104.553 1318.35 -234.754 1230.96 -356.405 1111.78C-478.056 992.591 -568.09 864.205 -615.324 752.999C-638.941 697.395 -651.848 646.11 -652.672 602.431C-653.497 558.754 -642.242 522.724 -617.583 497.556C-592.924 472.387 -557.132 460.397 -513.448 460.328C-469.761 460.259 -418.222 472.113 -362.147 494.588C-249.997 539.536 -119.796 626.924 1.85486 746.111Z" stroke="url(#paint19_linear_252_6723)" stroke-opacity="0.3"/>
<path d="M5.01782 749.267C124.57 870.559 212.349 1000.5 257.635 1112.51C280.278 1168.52 292.288 1220.02 292.35 1263.71C292.412 1307.39 280.53 1343.22 255.436 1367.95C230.342 1392.69 194.346 1404.05 150.667 1403.36C106.986 1402.67 55.6619 1389.91 -0.0131007 1366.46C-111.361 1319.56 -240.017 1229.92 -359.57 1108.63C-479.122 987.334 -566.901 857.396 -612.187 745.383C-634.83 689.375 -646.84 637.872 -646.902 594.186C-646.964 550.501 -635.082 514.673 -609.988 489.939C-584.893 465.205 -548.897 453.841 -505.219 454.534C-461.538 455.227 -410.214 467.98 -354.539 491.43C-243.191 538.328 -114.534 627.975 5.01782 749.267Z" stroke="url(#paint20_linear_252_6723)" stroke-opacity="0.3"/>
<path d="M8.12532 752.475C125.543 875.835 211.041 1007.28 254.365 1120.07C276.027 1176.47 287.136 1228.17 286.436 1271.85C285.735 1315.53 273.23 1351.15 247.708 1375.44C222.185 1399.73 185.997 1410.46 142.337 1409.01C98.6745 1407.55 47.5808 1393.91 -7.67642 1369.49C-118.189 1320.65 -245.261 1228.78 -362.678 1105.42C-480.095 982.056 -565.594 850.607 -608.917 737.82C-630.58 681.425 -641.689 629.721 -640.989 586.04C-640.288 542.361 -627.783 506.746 -602.26 482.453C-576.738 458.16 -540.55 447.427 -496.89 448.882C-453.227 450.338 -402.134 463.984 -346.876 488.402C-236.364 537.237 -109.292 629.115 8.12532 752.475Z" stroke="url(#paint21_linear_252_6723)" stroke-opacity="0.3"/>
<path d="M11.1776 755.735C126.424 881.125 209.615 1014.05 250.964 1127.57C271.639 1184.34 281.844 1236.23 280.381 1279.89C278.919 1323.55 265.793 1358.94 239.851 1382.78C213.909 1406.63 177.539 1416.73 133.911 1414.51C90.2802 1412.29 39.4325 1397.76 -15.3901 1372.38C-125.033 1321.62 -250.483 1227.54 -365.729 1102.15C-480.976 976.76 -564.167 843.838 -605.515 730.313C-626.19 673.549 -636.395 621.658 -634.933 577.996C-633.47 534.336 -620.345 498.945 -594.403 475.101C-568.46 451.258 -532.09 441.157 -488.462 443.374C-444.832 445.592 -393.984 460.127 -339.161 485.506C-229.518 536.262 -104.069 630.345 11.1776 755.735Z" stroke="url(#paint22_linear_252_6723)" stroke-opacity="0.3"/>
<path d="M14.1715 759.051C127.212 886.434 208.071 1020.79 247.432 1135.02C267.113 1192.13 276.411 1244.19 274.186 1287.82C271.962 1331.45 258.221 1366.61 231.867 1390C205.512 1413.38 168.971 1422.85 125.389 1419.87C81.8035 1416.89 31.2173 1401.47 -23.1541 1375.14C-131.895 1322.48 -255.683 1226.22 -368.724 1098.84C-481.764 971.454 -562.623 837.1 -601.984 722.87C-621.665 665.754 -630.963 613.693 -628.738 570.063C-626.514 526.436 -612.773 491.279 -586.419 467.892C-560.064 444.504 -523.523 435.041 -479.941 438.019C-436.356 440.997 -385.769 456.418 -331.398 482.749C-222.657 535.412 -98.8691 631.669 14.1715 759.051Z" stroke="url(#paint23_linear_252_6723)" stroke-opacity="0.3"/>
<path d="M17.1075 762.419C127.908 891.755 206.409 1027.5 243.771 1142.4C262.452 1199.85 270.84 1252.06 267.854 1295.65C264.869 1339.23 250.517 1374.14 223.758 1397.07C197 1419.99 160.299 1428.82 116.775 1425.08C73.2483 1421.34 22.939 1405.04 -30.9646 1377.76C-138.77 1323.21 -260.859 1224.81 -371.659 1095.47C-482.46 966.134 -560.961 830.39 -598.323 715.49C-617.004 658.039 -625.392 605.824 -622.406 562.239C-619.421 518.657 -605.069 483.746 -578.31 460.822C-551.551 437.898 -514.851 429.073 -471.327 432.812C-427.8 436.55 -377.491 452.852 -323.587 480.128C-215.782 534.68 -93.6927 633.083 17.1075 762.419Z" stroke="url(#paint24_linear_252_6723)" stroke-opacity="0.3"/>
<path d="M19.9843 765.837C128.51 897.087 204.631 1034.18 239.981 1149.72C257.657 1207.48 265.132 1259.84 261.387 1303.36C257.641 1346.89 242.682 1381.54 215.527 1404C188.373 1426.45 151.524 1434.63 108.071 1430.13C64.6168 1425.64 14.5996 1408.46 -38.8197 1380.25C-145.656 1323.82 -266.01 1223.3 -374.536 1092.05C-483.062 960.803 -559.182 823.709 -594.533 708.175C-612.209 650.406 -619.684 598.053 -615.938 554.527C-612.193 511.004 -597.234 476.348 -570.079 453.895C-542.924 431.441 -506.075 423.258 -462.623 427.756C-419.168 432.253 -369.151 449.43 -315.732 477.643C-208.895 534.068 -88.5418 634.587 19.9843 765.837Z" stroke="url(#paint25_linear_252_6723)" stroke-opacity="0.3"/>
<path d="M22.8027 769.306C129.022 902.43 202.738 1040.83 236.067 1156.96C252.732 1215.03 259.292 1267.51 254.787 1310.96C250.283 1354.41 234.721 1388.8 207.179 1410.78C179.636 1432.76 142.65 1440.29 99.2828 1435.04C55.9134 1429.78 6.20357 1411.74 -46.7152 1382.6C-152.551 1324.31 -271.132 1221.71 -377.351 1088.59C-483.57 955.462 -557.286 817.061 -590.615 700.927C-607.28 642.859 -613.84 590.383 -609.335 546.929C-604.831 503.478 -589.269 469.088 -561.727 447.113C-534.184 425.137 -497.198 417.598 -453.831 422.853C-410.461 428.108 -360.752 446.156 -307.833 475.297C-201.997 533.578 -83.4163 636.182 22.8027 769.306Z" stroke="url(#paint26_linear_252_6723)" stroke-opacity="0.3"/>
<path d="M25.5575 772.821C129.437 907.778 200.727 1047.44 232.024 1164.14C247.672 1222.49 253.316 1275.07 248.054 1318.44C242.791 1361.81 226.632 1395.92 198.71 1417.41C170.788 1438.91 133.676 1445.8 90.4074 1439.79C47.1363 1433.78 -2.25103 1414.86 -54.6532 1384.8C-159.455 1324.68 -276.228 1220.03 -380.107 1085.07C-483.986 950.111 -555.276 810.444 -586.573 693.747C-602.222 635.397 -607.865 582.814 -602.603 539.446C-597.341 496.08 -581.181 461.967 -553.259 440.475C-525.338 418.983 -488.226 412.091 -444.957 418.102C-401.686 424.114 -352.298 443.026 -299.896 473.086C-195.094 533.205 -78.3219 637.863 25.5575 772.821Z" stroke="url(#paint27_linear_252_6723)" stroke-opacity="0.3"/>
<path d="M28.2501 776.385C129.758 913.135 198.6 1054.02 227.855 1171.25C242.483 1229.86 247.208 1282.54 241.19 1325.81C235.172 1369.08 218.419 1402.9 190.126 1423.9C161.834 1444.9 124.607 1451.15 81.4498 1444.38C38.2902 1437.62 -10.7595 1417.84 -62.629 1386.87C-166.366 1324.94 -281.294 1218.26 -382.802 1081.51C-484.311 944.756 -553.152 803.866 -582.407 686.64C-597.035 628.026 -601.761 575.353 -595.742 532.083C-589.724 488.815 -572.971 454.99 -544.679 433.988C-516.386 412.987 -479.159 406.744 -436.002 413.509C-392.842 420.275 -343.793 440.046 -291.923 471.016C-188.186 532.955 -73.2582 639.635 28.2501 776.385Z" stroke="url(#paint28_linear_252_6723)" stroke-opacity="0.3"/>
<path d="M30.8809 779.993C129.987 918.494 196.359 1060.56 223.564 1178.28C237.167 1237.14 240.972 1289.89 234.2 1333.05C227.427 1376.2 210.087 1409.73 181.432 1430.24C152.777 1450.74 115.447 1456.33 72.4145 1448.82C29.3795 1441.3 -19.3176 1420.67 -70.6388 1388.8C-173.279 1325.06 -286.328 1216.39 -385.434 1077.89C-484.54 939.393 -550.912 797.323 -578.117 679.605C-591.72 620.744 -595.525 567.997 -588.752 524.838C-581.98 481.682 -564.64 448.154 -535.985 427.65C-507.33 407.146 -470 401.553 -426.967 409.07C-383.932 416.588 -335.235 437.212 -283.914 469.083C-181.274 532.823 -68.2253 641.493 30.8809 779.993Z" stroke="url(#paint29_linear_252_6723)" stroke-opacity="0.3"/>
<path d="M33.4494 783.649C130.123 923.858 194.006 1067.06 219.152 1185.24C231.726 1244.33 234.61 1297.13 227.085 1340.17C219.56 1383.2 201.637 1416.42 172.629 1436.42C143.621 1456.42 106.199 1461.36 63.304 1453.1C20.4068 1444.83 -27.923 1423.36 -78.6801 1390.6C-180.192 1325.07 -291.327 1214.45 -388.001 1074.24C-484.675 934.029 -548.557 790.823 -573.704 672.647C-586.278 613.558 -589.162 560.752 -581.637 517.719C-574.112 474.687 -556.189 441.467 -527.181 421.466C-498.173 401.465 -460.751 396.525 -417.856 404.792C-374.959 413.06 -326.629 434.531 -275.872 467.292C-174.359 532.814 -63.2245 643.44 33.4494 783.649Z" stroke="url(#paint30_linear_252_6723)" stroke-opacity="0.3"/>
<path d="M35.9544 787.346C130.167 929.221 191.54 1073.52 214.62 1192.12C226.161 1251.42 228.123 1304.26 219.848 1347.16C211.573 1390.05 193.073 1422.96 163.721 1442.45C134.368 1461.94 96.8651 1466.23 54.1211 1457.21C11.3747 1448.2 -36.573 1425.88 -86.7507 1392.24C-187.104 1324.96 -296.291 1212.41 -390.503 1070.54C-484.716 928.661 -546.089 784.361 -569.169 665.765C-580.71 606.465 -582.672 553.617 -574.397 510.721C-566.122 467.828 -547.622 434.925 -518.269 415.434C-488.917 395.942 -451.414 391.656 -408.67 400.67C-365.924 409.685 -317.976 431.997 -267.798 465.639C-167.445 532.922 -58.2578 645.471 35.9544 787.346Z" stroke="url(#paint31_linear_252_6723)" stroke-opacity="0.3"/>
<path d="M38.3935 791.094C130.115 934.591 188.961 1079.94 209.968 1198.92C220.472 1258.41 221.511 1311.29 212.489 1354.03C203.467 1396.77 184.396 1429.35 154.707 1448.33C125.019 1467.3 87.4468 1470.93 44.8667 1461.17C2.28408 1451.41 -45.2669 1428.27 -94.8498 1393.76C-194.014 1324.73 -301.22 1210.3 -392.942 1066.8C-484.663 923.3 -543.509 777.951 -564.516 658.97C-575.02 599.478 -576.059 546.604 -567.037 503.859C-558.015 461.117 -538.944 428.542 -509.255 409.566C-479.567 390.589 -441.995 386.958 -399.415 396.717C-356.832 406.477 -309.281 429.622 -259.698 464.135C-160.535 533.159 -53.3283 647.596 38.3935 791.094Z" stroke="url(#paint32_linear_252_6723)" stroke-opacity="0.3"/>
<path d="M40.7639 794.877C129.967 939.953 186.267 1086.31 205.195 1205.64C214.659 1265.3 214.775 1318.19 205.008 1360.77C195.242 1403.35 175.605 1435.58 145.589 1454.04C115.574 1472.49 77.9449 1475.47 35.5416 1464.97C-6.86419 1454.47 -54.004 1430.5 -102.977 1395.12C-200.921 1324.38 -306.114 1208.09 -395.317 1063.01C-484.521 917.934 -540.821 771.581 -559.748 652.251C-569.212 592.585 -569.328 539.701 -559.561 497.12C-549.795 454.541 -530.158 422.304 -500.143 403.849C-470.128 385.393 -432.498 382.419 -390.095 392.92C-347.689 403.421 -300.549 427.392 -251.576 462.765C-153.632 533.51 -48.4395 649.8 40.7639 794.877Z" stroke="url(#paint33_linear_252_6723)" stroke-opacity="0.3"/>
<path d="M43.073 798.702C129.731 945.314 183.468 1092.63 200.31 1212.27C208.731 1272.09 207.924 1324.97 197.416 1367.37C186.908 1409.78 166.711 1441.66 136.379 1459.59C106.046 1477.52 68.3704 1479.84 26.1568 1468.6C-16.0592 1457.36 -62.7735 1432.57 -111.122 1396.35C-207.816 1323.91 -310.963 1205.8 -397.621 1059.19C-484.279 912.574 -538.016 765.26 -554.858 645.618C-563.279 585.796 -562.473 532.918 -551.964 490.514C-541.456 448.112 -521.26 416.223 -490.927 398.294C-460.594 380.365 -422.919 378.048 -380.705 389.287C-338.489 400.527 -291.775 425.317 -243.427 461.539C-146.732 533.982 -43.5849 652.091 43.073 798.702Z" stroke="url(#paint34_linear_252_6723)" stroke-opacity="0.3"/>
<path d="M45.3121 802.567C129.398 950.668 180.556 1098.9 195.307 1218.81C202.683 1278.77 200.954 1331.63 189.707 1373.85C178.461 1416.06 157.71 1447.59 127.069 1464.99C96.4284 1482.38 58.7181 1484.04 16.7071 1472.07C-25.3064 1460.09 -71.5809 1434.49 -119.29 1397.43C-214.705 1323.31 -315.775 1203.42 -399.861 1055.32C-483.947 907.217 -535.105 758.988 -549.856 639.071C-557.232 579.111 -555.503 526.254 -544.256 484.04C-533.01 441.828 -512.259 410.297 -481.618 392.9C-450.977 375.503 -413.267 373.843 -371.256 385.818C-329.243 397.793 -282.968 423.394 -235.259 460.455C-139.844 534.575 -38.7739 654.466 45.3121 802.567Z" stroke="url(#paint35_linear_252_6723)" stroke-opacity="0.3"/>
<path d="M47.4809 806.474C128.969 956.02 177.533 1105.12 190.189 1225.28C196.517 1285.36 193.865 1338.17 181.884 1380.19C169.902 1422.19 148.605 1453.36 117.665 1470.22C86.725 1487.08 48.9915 1488.08 7.19583 1475.37C-34.6022 1462.67 -80.4229 1436.26 -127.477 1398.37C-221.585 1322.6 -320.547 1200.96 -402.036 1051.42C-483.524 901.872 -532.087 752.772 -544.744 632.615C-551.072 572.536 -548.42 519.718 -536.438 477.706C-524.457 435.697 -503.16 404.533 -472.22 387.673C-441.28 370.814 -403.546 369.812 -361.751 382.518C-319.953 395.225 -274.132 421.63 -227.077 459.517C-132.97 535.291 -34.0076 656.928 47.4809 806.474Z" stroke="url(#paint36_linear_252_6723)" stroke-opacity="0.3"/>
<path d="M49.5849 810.416C128.451 961.361 174.405 1111.29 184.962 1231.64C190.241 1291.83 186.668 1344.59 173.954 1386.39C161.242 1428.18 139.404 1458.97 108.174 1475.28C76.9448 1491.6 39.1996 1491.94 -2.368 1478.51C-43.9379 1465.08 -89.2908 1437.88 -135.677 1399.17C-228.447 1321.77 -325.272 1198.42 -404.138 1047.48C-483.004 896.532 -528.958 746.607 -539.515 626.248C-544.794 566.067 -541.221 513.303 -528.508 471.507C-515.795 429.714 -493.957 398.925 -462.727 382.609C-431.498 366.292 -393.753 365.949 -352.185 379.382C-310.615 392.816 -265.262 420.017 -218.876 458.72C-126.106 536.125 -29.2812 659.47 49.5849 810.416Z" stroke="url(#paint37_linear_252_6723)" stroke-opacity="0.3"/>
<path d="M51.6197 814.388C127.839 966.687 171.17 1117.39 179.625 1237.92C183.852 1298.18 179.359 1350.87 165.918 1392.44C152.478 1434.01 130.106 1464.41 98.5966 1480.18C67.0871 1495.95 29.3417 1495.63 -11.9851 1481.47C-53.3142 1467.32 -98.1855 1439.33 -143.889 1399.82C-235.295 1320.81 -329.952 1195.79 -406.171 1043.49C-482.391 891.196 -525.721 740.492 -534.176 619.967C-538.404 559.703 -533.911 507.01 -520.47 465.442C-507.03 423.877 -484.658 393.474 -453.148 377.705C-421.639 361.936 -383.893 362.252 -342.567 376.409C-301.238 390.566 -256.366 418.554 -210.663 458.061C-119.257 537.073 -24.6001 662.089 51.6197 814.388Z" stroke="url(#paint38_linear_252_6723)" stroke-opacity="0.3"/>
<path d="M53.5852 818.403C127.135 972.009 167.829 1123.45 174.179 1244.1C177.354 1304.43 171.942 1357.04 157.778 1398.36C143.614 1439.69 120.715 1469.69 88.9353 1484.91C57.1554 1500.13 19.4212 1499.15 -21.6523 1484.28C-62.728 1469.4 -107.104 1440.63 -152.111 1400.34C-242.124 1319.74 -334.585 1193.09 -408.135 1039.49C-481.685 885.879 -522.378 734.442 -528.729 613.788C-531.904 553.46 -526.492 500.853 -512.327 459.526C-498.164 418.201 -475.265 388.194 -443.485 372.977C-411.705 357.76 -373.971 358.735 -332.897 373.611C-291.822 388.487 -247.446 417.254 -202.438 457.553C-112.426 538.148 -19.965 664.797 53.5852 818.403Z" stroke="url(#paint39_linear_252_6723)" stroke-opacity="0.3"/>
<path d="M55.477 822.452C126.335 977.319 164.379 1129.44 168.623 1250.19C170.745 1310.56 164.415 1363.07 149.532 1404.14C134.65 1445.21 111.23 1474.82 79.1896 1489.48C47.149 1504.14 9.43757 1502.5 -31.37 1486.91C-72.1798 1471.32 -116.047 1441.78 -160.344 1400.71C-248.936 1318.55 -339.173 1190.31 -410.031 1035.44C-480.889 880.577 -518.933 728.453 -523.177 607.706C-525.299 547.331 -518.969 494.827 -504.086 453.754C-489.203 412.683 -465.784 383.079 -433.743 368.419C-401.703 353.759 -363.991 355.393 -323.184 370.983C-282.374 386.574 -238.507 416.111 -194.21 457.189C-105.617 539.342 -15.3811 667.586 55.477 822.452Z" stroke="url(#paint40_linear_252_6723)" stroke-opacity="0.3"/>
<path d="M57.3013 826.527C125.446 982.606 160.829 1135.37 162.965 1256.17C164.033 1316.58 156.788 1368.96 141.19 1409.77C125.593 1450.57 101.661 1479.76 69.3691 1493.86C37.0775 1507.96 -0.599707 1505.67 -41.129 1489.37C-81.6605 1473.07 -125.005 1442.77 -168.579 1400.93C-255.724 1317.24 -343.708 1187.44 -411.853 1031.36C-479.998 875.281 -515.381 722.517 -517.517 601.714C-518.585 541.312 -511.34 488.926 -495.742 448.118C-480.145 407.313 -456.212 378.123 -423.921 364.025C-391.629 349.926 -353.952 352.217 -313.423 368.517C-272.891 384.818 -229.546 415.117 -185.973 456.961C-98.8278 540.648 -10.8433 670.447 57.3013 826.527Z" stroke="url(#paint41_linear_252_6723)" stroke-opacity="0.3"/>
<path d="M59.0537 830.634C124.464 987.879 157.176 1141.24 157.203 1262.06C157.217 1322.47 149.058 1374.72 132.751 1415.25C116.444 1455.78 92.0058 1484.55 59.473 1498.08C26.9403 1511.61 -10.6912 1508.66 -50.9298 1491.66C-91.1706 1474.65 -133.98 1443.6 -176.817 1401C-262.488 1315.81 -348.194 1184.49 -413.604 1027.25C-479.014 870.004 -511.726 716.645 -511.753 595.824C-511.767 535.412 -503.609 483.16 -487.301 442.631C-470.994 402.105 -446.556 373.337 -414.023 359.804C-381.491 346.271 -343.859 349.219 -303.621 366.224C-263.38 383.23 -220.57 414.28 -177.734 456.879C-92.0623 542.074 -6.35656 673.389 59.0537 830.634Z" stroke="url(#paint42_linear_252_6723)" stroke-opacity="0.3"/>
<path d="M60.7344 834.774C123.39 993.137 153.421 1147.04 151.339 1267.85C150.299 1328.25 141.23 1380.35 124.217 1420.59C107.206 1460.82 82.2691 1489.16 49.5051 1502.12C16.7411 1515.09 -20.8331 1511.48 -60.7688 1493.78C-100.707 1476.07 -142.968 1444.28 -185.054 1400.94C-269.226 1314.26 -352.627 1181.47 -415.283 1023.11C-477.939 864.748 -507.969 710.841 -505.888 590.038C-504.847 529.635 -495.778 477.533 -478.766 437.295C-461.754 397.06 -436.817 368.723 -404.053 355.76C-371.29 342.797 -333.715 346.401 -293.78 364.106C-253.842 381.811 -211.58 413.604 -169.494 456.944C-85.3226 543.621 -1.92162 676.412 60.7344 834.774Z" stroke="url(#paint43_linear_252_6723)" stroke-opacity="0.3"/>
<path d="M62.3414 838.946C122.224 998.377 149.564 1152.78 145.374 1273.53C143.28 1333.91 133.303 1385.84 115.591 1425.78C97.8796 1465.71 72.4522 1493.61 39.467 1506C6.48179 1518.39 -31.0239 1514.13 -70.6445 1495.73C-110.267 1477.33 -151.967 1444.8 -193.291 1400.74C-275.937 1312.6 -357.007 1178.38 -416.89 1018.95C-476.773 859.513 -504.113 705.106 -499.923 584.357C-497.828 523.982 -487.852 472.047 -470.14 432.112C-452.428 392.179 -427.001 364.281 -394.016 351.892C-361.031 339.503 -323.525 343.763 -283.904 362.162C-244.281 380.562 -202.582 413.087 -161.258 457.154C-78.612 545.288 2.45874 679.514 62.3414 838.946Z" stroke="url(#paint44_linear_252_6723)" stroke-opacity="0.3"/>
<path d="M63.8728 843.14C120.964 1003.59 145.605 1158.45 139.309 1279.11C136.16 1339.44 125.279 1391.19 106.872 1430.81C88.467 1470.43 62.5566 1497.88 29.3602 1509.69C-3.83619 1521.5 -41.2618 1516.59 -80.5553 1497.5C-119.851 1478.41 -160.977 1445.17 -201.525 1400.38C-282.62 1310.82 -361.336 1175.2 -418.427 1014.75C-475.518 854.296 -500.159 699.435 -493.863 578.778C-490.715 518.448 -479.833 466.695 -461.427 427.075C-443.021 387.458 -417.111 360.008 -383.915 348.197C-350.718 336.385 -313.293 341.299 -273.999 360.386C-234.703 379.475 -193.577 412.723 -153.029 457.505C-71.934 547.067 6.78175 682.688 63.8728 843.14Z" stroke="url(#paint45_linear_252_6723)" stroke-opacity="0.3"/>
<path d="M65.335 847.361C119.617 1008.79 141.552 1164.05 133.151 1284.58C128.95 1344.85 117.167 1396.4 98.0717 1435.69C78.9776 1474.99 52.5922 1501.98 19.1947 1513.21C-14.2028 1524.44 -51.537 1518.87 -90.4913 1499.1C-129.448 1479.33 -169.987 1445.37 -209.748 1399.89C-289.268 1308.92 -365.604 1171.95 -419.887 1010.53C-474.169 849.101 -496.103 693.834 -487.702 573.305C-483.501 513.039 -471.718 461.484 -452.623 422.191C-433.529 382.901 -407.144 355.908 -373.746 344.677C-340.349 333.447 -303.015 339.013 -264.06 358.783C-225.104 378.555 -184.564 412.516 -144.804 457.999C-65.284 548.963 11.0529 685.936 65.335 847.361Z" stroke="url(#paint46_linear_252_6723)" stroke-opacity="0.3"/>
<path d="M66.7221 851.607C118.179 1013.95 137.4 1169.58 126.897 1289.95C121.645 1350.13 108.964 1401.47 89.186 1440.42C69.4092 1479.37 42.5566 1505.9 8.96821 1516.55C-24.6202 1527.19 -61.8515 1520.98 -100.455 1500.53C-139.06 1480.08 -179.001 1445.42 -217.962 1399.25C-295.882 1306.91 -369.817 1168.63 -421.273 1006.28C-472.73 843.932 -491.951 688.305 -481.448 567.941C-476.196 507.758 -463.515 456.416 -443.737 417.463C-423.96 378.512 -397.108 351.983 -363.519 341.337C-329.931 330.691 -292.699 336.908 -254.096 357.356C-215.491 377.804 -175.55 412.467 -136.589 458.637C-58.6693 550.975 15.2655 689.26 66.7221 851.607Z" stroke="url(#paint47_linear_252_6723)" stroke-opacity="0.3"/>
<path d="M68.0344 855.88C116.65 1019.1 133.152 1175.04 120.55 1295.2C114.249 1355.28 100.673 1406.4 80.2187 1445C59.765 1483.6 32.4536 1509.65 -1.3155 1519.71C-35.0846 1529.77 -72.2017 1522.9 -110.442 1501.79C-148.685 1480.67 -188.015 1445.31 -226.164 1398.47C-302.46 1304.79 -373.97 1165.23 -422.586 1002.01C-471.201 838.791 -487.704 682.852 -475.101 562.69C-468.8 502.608 -455.225 451.495 -434.77 412.893C-414.316 374.293 -387.005 348.237 -353.236 338.179C-319.467 328.121 -282.35 334.986 -244.109 356.104C-205.866 377.223 -166.537 412.578 -128.388 459.421C-52.0911 553.105 19.4191 692.659 68.0344 855.88Z" stroke="url(#paint48_linear_252_6723)" stroke-opacity="0.3"/>
<path d="M69.2725 860.171C115.032 1024.22 128.81 1180.42 114.113 1300.34C106.764 1360.31 92.2986 1411.17 71.1733 1449.41C50.0491 1487.65 22.2871 1513.22 -11.6524 1522.69C-45.5919 1532.16 -82.5836 1524.65 -120.45 1502.86C-158.318 1481.08 -197.025 1445.05 -234.35 1397.54C-309 1302.54 -378.064 1161.76 -423.823 997.718C-469.583 833.674 -483.361 677.471 -468.664 557.547C-461.315 497.584 -446.85 446.716 -425.724 408.477C-404.6 370.239 -376.838 344.664 -342.899 335.197C-308.959 325.73 -271.967 333.242 -234.101 355.024C-196.233 376.807 -157.526 412.843 -120.201 460.345C-45.5506 555.346 23.5131 696.127 69.2725 860.171Z" stroke="url(#paint49_linear_252_6723)" stroke-opacity="0.3"/>
<path d="M70.4346 864.483C113.324 1029.3 124.374 1185.72 107.586 1305.37C99.1917 1365.2 83.841 1415.8 62.0515 1453.67C40.2632 1491.53 12.059 1516.62 -22.0405 1525.49C-56.14 1534.36 -92.9949 1526.21 -130.475 1503.77C-167.958 1481.33 -206.029 1444.62 -242.52 1396.48C-315.501 1300.19 -382.097 1158.22 -424.987 993.404C-467.876 828.586 -478.926 672.167 -462.138 552.517C-453.744 492.691 -438.393 442.084 -416.604 404.219C-394.815 366.356 -366.611 341.269 -332.512 332.396C-298.412 323.522 -261.557 331.679 -224.077 354.119C-186.594 376.56 -148.523 413.266 -112.032 461.411C-39.051 557.701 27.5451 699.666 70.4346 864.483Z" stroke="url(#paint50_linear_252_6723)" stroke-opacity="0.3"/>
<path d="M71.5214 868.817C111.528 1034.36 119.846 1190.95 100.973 1310.28C91.5354 1369.96 75.3039 1420.29 52.8569 1457.77C30.4111 1495.24 1.7734 1519.83 -32.4758 1528.11C-66.725 1536.39 -103.432 1527.59 -140.515 1504.5C-177.6 1481.41 -215.025 1444.04 -250.671 1395.27C-321.96 1297.72 -386.068 1154.61 -426.074 989.072C-466.081 823.53 -474.399 666.942 -455.526 547.604C-446.088 487.934 -429.857 437.602 -407.41 400.123C-384.964 362.646 -356.326 338.056 -322.077 329.779C-287.828 321.502 -251.121 330.3 -214.038 353.391C-176.953 376.482 -139.528 413.847 -103.882 462.622C-32.5934 560.171 31.515 703.276 71.5214 868.817Z" stroke="url(#paint51_linear_252_6723)" stroke-opacity="0.3"/>
<path d="M72.5335 873.167C109.645 1039.38 115.229 1196.09 94.2755 1315.08C83.7984 1374.58 66.6909 1424.62 43.5932 1461.7C20.4968 1498.78 -8.56568 1522.87 -42.9541 1530.55C-77.3426 1538.22 -113.89 1528.78 -150.565 1505.05C-187.241 1481.32 -224.009 1443.3 -258.797 1393.91C-328.373 1295.14 -389.974 1150.93 -427.085 984.719C-464.196 818.505 -469.781 661.795 -448.827 542.805C-438.35 483.308 -421.243 433.267 -398.145 396.186C-375.049 359.107 -345.986 335.02 -311.598 327.341C-277.209 319.663 -240.661 329.102 -203.987 352.836C-167.311 376.571 -130.543 414.583 -95.7546 463.973C-26.1789 562.751 35.4222 706.953 72.5335 873.167Z" stroke="url(#paint52_linear_252_6723)" stroke-opacity="0.3"/>
<path d="M73.4676 877.538C107.672 1044.37 110.521 1201.16 87.4938 1319.76C75.98 1379.07 58.0017 1428.8 34.2604 1465.48C10.5204 1502.15 -18.9581 1525.72 -53.4753 1532.8C-87.9925 1539.88 -124.37 1529.8 -160.625 1505.43C-196.881 1481.06 -232.98 1442.41 -266.901 1392.42C-334.742 1292.45 -393.817 1147.19 -428.022 980.353C-462.227 813.517 -465.075 656.734 -442.048 538.127C-430.534 478.822 -412.556 429.087 -388.815 392.415C-365.075 355.744 -335.596 332.168 -301.079 325.091C-266.562 318.015 -230.184 328.089 -193.93 352.46C-157.673 376.831 -121.575 415.479 -87.6534 465.469C-19.8122 565.446 39.2628 710.701 73.4676 877.538Z" stroke="url(#paint53_linear_252_6723)" stroke-opacity="0.3"/>
<path d="M74.3281 881.918C105.616 1049.33 105.728 1206.14 80.6343 1324.32C68.0872 1383.42 49.2438 1432.83 24.866 1469.08C0.489587 1505.33 -29.3958 1528.39 -64.0313 1534.86C-98.6667 1541.34 -134.863 1530.63 -170.687 1505.63C-206.512 1480.63 -241.931 1441.36 -274.974 1390.78C-341.06 1289.64 -397.591 1143.37 -428.879 975.965C-460.167 808.557 -460.279 651.748 -435.186 533.561C-422.638 474.467 -403.795 425.053 -379.417 388.801C-355.041 352.55 -325.155 329.492 -290.52 323.019C-255.884 316.545 -219.688 327.253 -183.865 352.253C-148.039 377.254 -112.62 416.526 -79.5767 467.1C-13.4907 568.245 43.0403 714.51 74.3281 881.918Z" stroke="url(#paint54_linear_252_6723)" stroke-opacity="0.3"/>
<path d="M75.1102 886.318C103.472 1054.25 100.847 1211.03 73.6944 1328.76C60.1179 1387.63 40.4149 1436.71 15.4082 1472.53C-9.5972 1508.35 -39.8805 1530.88 -74.6236 1536.75C-109.367 1542.62 -145.371 1531.28 -180.753 1505.66C-216.137 1480.04 -250.864 1440.15 -283.02 1389.01C-347.331 1286.73 -401.301 1139.5 -429.662 971.569C-458.023 803.64 -455.399 646.853 -428.246 529.122C-414.67 470.255 -394.967 421.178 -369.96 385.357C-344.955 349.537 -314.671 327.004 -279.928 321.136C-245.185 315.268 -209.181 326.606 -173.799 352.227C-138.415 377.849 -103.688 417.734 -71.5317 468.877C-7.22098 571.16 46.7488 718.389 75.1102 886.318Z" stroke="url(#paint55_linear_252_6723)" stroke-opacity="0.3"/>
<path d="M75.8143 890.732C101.241 1059.13 95.8801 1215.85 66.677 1333.09C52.0752 1391.71 31.5187 1440.43 5.89059 1475.81C-19.7361 1511.19 -50.408 1533.19 -85.2483 1538.45C-120.089 1543.71 -155.889 1531.75 -190.818 1505.51C-225.75 1479.28 -259.776 1438.79 -291.035 1387.1C-353.55 1283.71 -404.942 1135.56 -430.369 967.16C-455.795 798.762 -450.435 642.045 -421.231 524.806C-406.63 466.185 -386.073 417.459 -360.445 382.08C-334.818 346.702 -304.146 324.701 -269.306 319.44C-234.466 314.179 -198.666 326.144 -163.736 352.379C-128.805 378.614 -94.7784 419.099 -63.5199 470.795C-1.00402 574.186 50.388 722.334 75.8143 890.732Z" stroke="url(#paint56_linear_252_6723)" stroke-opacity="0.3"/>
<path d="M76.4456 895.152C98.9291 1063.97 90.8342 1220.57 59.5895 1337.28C43.9668 1395.64 22.563 1444 -3.6786 1478.92C-29.9188 1513.85 -60.97 1535.31 -95.8968 1539.96C-130.824 1544.61 -166.41 1532.03 -200.876 1505.19C-235.344 1478.34 -268.659 1437.27 -299.01 1385.04C-359.712 1280.57 -408.511 1131.55 -430.994 962.734C-453.478 793.918 -445.383 637.318 -414.138 520.607C-398.516 462.25 -377.112 413.89 -350.87 378.963C-324.63 344.038 -293.579 322.575 -258.652 317.924C-223.725 313.272 -188.139 325.859 -153.673 352.699C-119.205 379.541 -85.89 420.613 -55.5385 472.847C5.1634 577.313 53.9621 726.335 76.4456 895.152Z" stroke="url(#paint57_linear_252_6723)" stroke-opacity="0.3"/>
<path d="M76.9928 899.589C96.5267 1068.77 85.7 1225.21 52.4231 1341.36C35.7844 1399.43 13.5399 1447.41 -13.3073 1481.87C-40.1531 1516.34 -71.5742 1537.25 -106.577 1541.29C-141.579 1545.34 -176.94 1532.13 -210.933 1504.69C-244.928 1477.25 -277.52 1435.6 -306.956 1382.85C-365.825 1277.34 -412.015 1127.49 -431.549 958.305C-451.083 789.123 -440.256 632.688 -406.98 516.539C-390.341 458.464 -368.096 410.485 -341.249 376.021C-314.403 341.56 -282.982 320.642 -247.98 316.601C-212.977 312.559 -177.616 325.766 -143.623 353.204C-109.629 380.643 -77.0361 422.29 -47.6009 475.046C11.2686 580.555 57.459 730.406 76.9928 899.589Z" stroke="url(#paint58_linear_252_6723)" stroke-opacity="0.3"/>
<path d="M77.4672 904.028C94.0454 1073.53 80.4902 1229.75 45.1914 1345.3C27.5416 1403.07 4.46311 1450.66 -22.9815 1484.65C-50.4246 1518.64 -82.2059 1539 -117.274 1542.43C-152.342 1545.86 -187.467 1532.04 -220.975 1504.01C-254.486 1475.98 -286.347 1433.78 -314.857 1380.51C-371.876 1273.99 -415.444 1123.36 -432.022 953.86C-448.6 784.362 -435.045 628.14 -399.746 512.59C-382.097 454.814 -359.018 407.231 -331.574 373.241C-304.13 339.253 -272.349 318.887 -237.281 315.457C-202.213 312.027 -167.088 325.849 -133.58 353.875C-100.069 381.903 -68.2083 424.113 -39.6982 477.374C17.3209 583.895 60.889 734.53 77.4672 904.028Z" stroke="url(#paint59_linear_252_6723)" stroke-opacity="0.3"/>
<path d="M77.8634 908.481C91.481 1078.24 75.2014 1234.2 37.8913 1349.12C19.2359 1406.58 -4.66952 1453.75 -32.7031 1487.26C-60.7352 1520.76 -92.8672 1540.57 -127.99 1543.39C-163.112 1546.21 -197.99 1531.77 -231.005 1503.17C-264.021 1474.56 -295.14 1431.8 -322.717 1378.05C-377.868 1270.55 -418.8 1119.17 -432.418 949.413C-446.036 779.652 -429.756 623.69 -392.446 508.774C-373.79 451.314 -349.885 404.141 -321.851 370.635C-293.819 337.131 -261.687 317.323 -226.565 314.506C-191.443 311.688 -156.564 326.121 -123.55 354.728C-90.5335 383.337 -59.4142 426.096 -31.838 479.847C23.3134 587.347 64.2459 738.719 77.8634 908.481Z" stroke="url(#paint60_linear_252_6723)" stroke-opacity="0.3"/>
<path d="M78.1849 912.934C88.8376 1082.91 69.8386 1238.56 30.5286 1352.81C10.8732 1409.93 -13.8518 1456.68 -42.4659 1489.69C-71.0785 1522.7 -103.551 1541.95 -138.717 1544.15C-173.884 1546.36 -208.505 1531.32 -241.015 1502.14C-273.527 1472.96 -303.895 1429.66 -330.529 1375.44C-383.796 1266.99 -422.081 1114.93 -432.733 944.955C-443.386 774.981 -424.387 619.328 -385.077 505.08C-365.422 447.955 -340.697 401.206 -312.082 368.195C-283.47 335.185 -250.997 315.941 -215.831 313.737C-180.665 311.533 -146.043 326.572 -113.533 355.751C-81.0215 384.931 -50.6531 428.227 -24.0192 482.451C29.2477 590.897 67.5322 742.961 78.1849 912.934Z" stroke="url(#paint61_linear_252_6723)" stroke-opacity="0.3"/>
<path d="M78.4227 917.397C86.1074 1087.53 64.3948 1242.83 23.0968 1356.37C2.44748 1413.15 -23.0896 1459.46 -52.2755 1491.96C-81.4598 1524.47 -114.263 1543.14 -149.463 1544.73C-184.662 1546.32 -219.016 1530.68 -251.012 1500.94C-283.009 1471.2 -312.617 1427.38 -338.301 1372.7C-389.667 1263.34 -425.292 1110.63 -432.976 940.496C-440.661 770.363 -418.948 615.064 -377.65 501.52C-357.001 444.747 -331.464 398.437 -302.278 365.93C-273.094 333.424 -240.29 314.75 -205.091 313.16C-169.892 311.57 -135.538 327.211 -103.542 356.953C-71.5445 386.697 -41.9363 430.516 -16.2528 485.196C35.1133 594.555 70.7381 747.264 78.4227 917.397Z" stroke="url(#paint62_linear_252_6723)" stroke-opacity="0.3"/>
<path d="M78.588 921.859C83.3023 1092.1 58.8826 1247 15.6094 1359.8C-6.02771 1416.21 -32.3692 1462.06 -62.1179 1494.06C-91.8651 1526.05 -124.99 1544.15 -160.211 1545.12C-195.433 1546.1 -229.508 1529.86 -260.98 1499.56C-292.454 1469.27 -321.293 1424.94 -346.018 1369.82C-395.468 1259.58 -428.422 1106.27 -433.136 936.03C-437.851 765.788 -413.431 610.892 -370.158 498.086C-348.521 441.682 -322.179 395.824 -292.43 363.832C-262.683 331.841 -229.559 313.741 -194.337 312.766C-159.115 311.791 -125.04 328.029 -93.568 358.325C-62.0943 388.622 -33.2555 432.952 -8.5301 488.072C40.9196 598.311 73.8738 751.618 78.588 921.859Z" stroke="url(#paint63_linear_252_6723)" stroke-opacity="0.3"/>
<path d="M78.6702 926.327C80.4126 1096.63 53.2934 1251.07 8.05795 1363.11C-14.5602 1419.12 -41.698 1464.51 -72.0006 1495.98C-102.302 1527.45 -135.737 1544.97 -170.97 1545.33C-206.204 1545.69 -239.99 1528.86 -270.929 1498.02C-301.869 1467.18 -329.93 1422.35 -353.689 1366.81C-401.208 1255.72 -431.481 1101.86 -433.224 931.565C-434.966 761.267 -407.847 606.821 -362.611 494.787C-339.993 438.769 -312.855 393.378 -282.553 361.909C-252.252 330.443 -218.817 312.924 -183.583 312.564C-148.35 312.203 -114.563 329.034 -83.6246 359.874C-52.6845 390.716 -24.6236 435.542 -0.864046 491.086C46.6542 602.171 76.9278 756.029 78.6702 926.327Z" stroke="url(#paint64_linear_252_6723)" stroke-opacity="0.3"/>
<path d="M78.6783 930.793C77.4483 1101.1 47.6378 1255.04 0.453979 1366.27C-23.1384 1421.89 -51.0642 1466.8 -81.9114 1497.73C-112.757 1528.67 -146.493 1545.6 -181.727 1545.34C-216.961 1545.09 -250.449 1527.67 -280.845 1496.3C-311.242 1464.92 -338.516 1419.61 -361.303 1363.66C-406.875 1251.76 -434.459 1097.4 -433.229 927.096C-431.999 756.793 -402.188 602.844 -355.005 491.617C-331.412 436.002 -303.486 391.092 -272.639 360.157C-241.794 329.223 -208.058 312.291 -172.823 312.546C-137.589 312.8 -104.101 330.218 -73.7058 361.593C-43.3086 392.971 -16.0344 438.28 6.75217 494.229C52.3245 606.127 79.9083 760.49 78.6783 930.793Z" stroke="url(#paint65_linear_252_6723)" stroke-opacity="0.3"/>
<path d="M78.6059 935.259C74.4039 1105.51 41.9111 1258.92 -7.20668 1369.31C-31.766 1424.5 -60.4714 1468.92 -91.8537 1499.31C-123.234 1529.7 -157.261 1546.04 -192.485 1545.17C-227.71 1544.3 -260.889 1526.3 -290.732 1494.4C-320.577 1462.5 -347.056 1416.72 -368.863 1360.38C-412.475 1247.7 -437.361 1092.88 -433.159 922.628C-428.957 752.373 -396.464 598.967 -347.346 488.58C-322.787 433.386 -294.082 388.97 -262.699 358.578C-231.318 328.188 -197.292 311.847 -162.068 312.716C-126.843 313.586 -93.6643 331.585 -63.8211 363.486C-33.9762 395.389 -7.49686 441.167 14.3098 497.506C57.9223 610.182 82.8079 765.003 78.6059 935.259Z" stroke="url(#paint66_linear_252_6723)" stroke-opacity="0.3"/>
<path d="M78.4583 939.726C71.2856 1109.88 36.1204 1262.7 -14.9164 1372.21C-40.4353 1426.97 -69.9114 1470.88 -101.819 1500.71C-133.726 1530.55 -168.032 1546.3 -203.236 1544.81C-238.44 1543.33 -271.3 1524.75 -300.582 1492.34C-329.865 1459.92 -355.541 1413.68 -376.362 1356.97C-418.001 1243.55 -440.181 1088.32 -433.008 918.166C-425.835 748.01 -390.67 595.195 -339.633 485.682C-314.114 430.924 -284.638 387.016 -252.73 357.177C-220.824 327.339 -186.518 311.594 -151.314 313.078C-116.11 314.562 -83.2502 333.138 -53.9682 365.555C-24.6846 397.974 0.99172 444.207 21.8118 500.918C63.4512 614.338 85.631 769.57 78.4583 939.726Z" stroke="url(#paint67_linear_252_6723)" stroke-opacity="0.3"/>
<path d="M78.231 944.185C68.0898 1114.19 30.263 1266.37 -22.6773 1374.97C-49.148 1429.28 -79.3859 1472.66 -111.81 1501.94C-144.232 1531.22 -178.808 1546.36 -213.981 1544.26C-249.153 1542.17 -281.684 1523.02 -310.396 1490.1C-339.109 1457.17 -363.974 1410.5 -383.802 1353.43C-423.455 1239.3 -442.922 1083.71 -432.781 913.701C-422.64 743.697 -384.813 591.519 -331.873 482.913C-305.402 428.609 -275.164 385.222 -242.74 355.944C-210.318 326.667 -175.742 311.524 -140.569 313.622C-105.397 315.72 -72.8663 334.867 -44.1546 367.79C-15.4413 400.715 9.42427 447.389 29.2515 504.455C68.9051 618.584 88.3723 774.18 78.231 944.185Z" stroke="url(#paint68_linear_252_6723)" stroke-opacity="0.3"/>
<path d="M77.9255 948.646C64.8188 1118.45 24.3419 1269.94 -30.4858 1377.61C-57.9001 1431.44 -88.8907 1474.29 -121.821 1503C-154.749 1531.71 -189.584 1546.25 -224.714 1543.53C-259.845 1540.82 -292.037 1521.11 -320.169 1487.69C-348.304 1454.27 -372.351 1407.17 -391.179 1349.77C-428.835 1234.96 -445.583 1079.05 -432.477 909.249C-419.37 739.447 -378.893 587.952 -324.066 480.287C-296.651 426.453 -265.661 383.601 -232.731 354.893C-199.803 326.186 -164.968 311.649 -129.837 314.36C-94.7062 317.072 -62.5148 336.783 -34.382 370.203C-6.24773 403.624 17.7995 450.725 36.6277 508.128C74.2834 622.932 91.0322 778.844 77.9255 948.646Z" stroke="url(#paint69_linear_252_6723)" stroke-opacity="0.3"/>
<path d="M77.5433 953.095C61.4751 1122.64 18.3604 1273.41 -38.3379 1380.1C-66.6876 1433.45 -98.4213 1475.75 -131.847 1503.88C-165.271 1532.01 -200.355 1545.93 -235.433 1542.61C-270.511 1539.29 -302.353 1519.02 -329.899 1485.11C-357.445 1451.2 -380.667 1403.69 -398.49 1345.97C-434.137 1230.52 -448.162 1074.34 -432.094 904.796C-416.026 735.249 -372.911 584.483 -316.213 477.792C-287.863 424.445 -256.129 382.139 -222.703 354.011C-189.279 325.883 -154.196 311.956 -119.118 315.28C-84.0396 318.605 -52.1972 338.875 -24.6519 372.78C2.89482 406.687 26.1163 454.201 43.9399 511.924C79.5863 627.367 93.6114 783.547 77.5433 953.095Z" stroke="url(#paint70_linear_252_6723)" stroke-opacity="0.3"/>
<path d="M77.082 957.535C58.0573 1126.78 12.318 1276.77 -46.2337 1382.45C-75.5102 1435.3 -107.977 1477.04 -141.889 1504.58C-175.799 1532.12 -211.12 1545.44 -246.135 1541.5C-281.15 1537.56 -312.633 1516.74 -339.583 1482.36C-366.533 1447.98 -388.922 1400.06 -405.736 1342.04C-439.362 1225.99 -450.659 1069.59 -431.634 900.35C-412.61 731.109 -366.87 581.119 -308.319 475.433C-279.042 422.589 -246.575 380.844 -212.663 353.303C-178.753 325.763 -143.432 312.45 -108.418 316.386C-73.4029 320.322 -41.9191 341.145 -14.9697 375.526C11.981 409.908 34.3698 457.82 51.1832 515.845C84.8094 631.893 96.1067 788.294 77.082 957.535Z" stroke="url(#paint71_linear_252_6723)" stroke-opacity="0.3"/>
<path d="M76.5452 961.971C54.5698 1130.85 6.2197 1280.02 -54.1676 1384.67C-84.3618 1437 -117.553 1478.17 -151.94 1505.11C-186.325 1532.06 -221.873 1544.75 -256.814 1540.2C-291.755 1535.66 -322.87 1514.29 -349.215 1479.44C-375.562 1444.6 -397.111 1396.3 -412.909 1337.99C-444.505 1221.37 -453.071 1064.8 -431.096 895.916C-409.12 727.032 -360.77 577.864 -300.383 473.216C-270.189 420.891 -236.998 379.719 -202.611 352.773C-168.225 325.83 -132.677 313.135 -97.7365 317.682C-62.7959 322.228 -31.6802 343.597 -5.33504 378.443C21.0116 413.291 42.5607 461.586 58.3589 519.896C89.9547 636.513 98.5207 793.088 76.5452 961.971Z" stroke="url(#paint72_linear_252_6723)" stroke-opacity="0.3"/>
<path d="M75.9306 966.399C51.011 1134.87 0.065019 1283.18 -62.1394 1386.75C-93.2423 1438.54 -127.147 1479.13 -161.999 1505.47C-196.849 1531.81 -232.614 1543.88 -267.469 1538.73C-302.325 1533.57 -333.063 1511.66 -358.796 1476.36C-384.531 1441.06 -405.234 1392.4 -420.012 1333.82C-449.568 1216.67 -455.4 1059.97 -430.48 891.495C-405.561 723.021 -354.615 574.718 -292.41 471.14C-261.307 419.35 -227.403 378.764 -192.551 352.423C-157.7 326.083 -121.936 314.011 -87.0802 319.167C-52.2243 324.322 -21.4863 346.231 4.24675 381.532C29.9812 416.834 50.6842 465.498 65.4623 524.074C95.018 641.225 100.85 797.926 75.9306 966.399Z" stroke="url(#paint73_linear_252_6723)" stroke-opacity="0.3"/>
<path d="M75.2379 970.813C47.3819 1138.83 -6.1446 1286.22 -70.1472 1388.69C-102.149 1439.93 -136.757 1479.92 -172.063 1505.65C-207.368 1531.38 -243.338 1542.82 -278.098 1537.06C-312.859 1531.3 -343.21 1508.85 -368.323 1473.11C-393.437 1437.36 -413.288 1388.35 -427.042 1329.52C-454.548 1211.87 -457.645 1055.09 -429.789 887.081C-401.932 719.068 -348.406 571.677 -284.403 469.2C-252.401 417.961 -217.794 377.972 -182.487 352.244C-147.182 326.516 -111.213 315.07 -76.4522 320.833C-41.6916 326.597 -11.3406 349.039 13.7724 384.783C38.8868 420.529 58.7373 469.547 72.4909 528.372C99.9976 646.021 103.094 802.799 75.2379 970.813Z" stroke="url(#paint74_linear_252_6723)" stroke-opacity="0.3"/>
<path d="M74.4669 975.214C43.6829 1142.72 -12.4078 1289.15 -78.1891 1390.49C-111.08 1441.17 -146.381 1480.55 -182.131 1505.65C-217.879 1530.76 -254.043 1541.58 -288.698 1535.21C-323.353 1528.84 -353.307 1505.87 -377.793 1469.69C-402.279 1433.52 -421.271 1384.16 -433.996 1325.1C-459.446 1206.99 -459.805 1050.18 -429.021 882.681C-398.237 715.18 -342.147 568.746 -276.365 467.401C-243.474 416.728 -208.174 377.35 -172.423 352.241C-136.675 327.134 -100.511 316.317 -65.8565 322.686C-31.2017 329.055 -1.24705 352.024 23.2383 388.201C47.725 424.38 66.7171 473.736 79.442 532.793C104.891 650.904 105.251 807.712 74.4669 975.214Z" stroke="url(#paint75_linear_252_6723)" stroke-opacity="0.3"/>
<path d="M73.6232 979.596C39.9206 1146.53 -18.7172 1291.97 -86.2572 1392.15C-120.028 1442.24 -156.01 1481 -192.193 1505.48C-228.374 1529.96 -264.721 1540.14 -299.26 1533.17C-333.798 1526.19 -363.347 1502.71 -387.197 1466.11C-411.049 1429.51 -429.177 1379.83 -440.869 1320.56C-464.253 1202.02 -461.876 1045.23 -428.173 878.29C-394.471 711.351 -335.833 565.918 -268.293 465.738C-234.522 415.646 -198.54 376.89 -162.357 352.409C-126.176 327.93 -89.829 317.746 -55.2906 324.719C-20.7523 331.691 8.79698 355.179 32.6472 391.778C56.4988 428.379 74.6266 478.059 86.3188 537.329C109.703 655.866 107.326 812.657 73.6232 979.596Z" stroke="url(#paint76_linear_252_6723)" stroke-opacity="0.3"/>
<path d="M72.7008 983.967C36.0898 1150.29 -25.0772 1294.68 -94.3553 1393.67C-128.995 1443.16 -165.648 1481.28 -202.253 1505.13C-238.856 1528.97 -275.375 1538.52 -309.786 1530.95C-344.198 1523.37 -373.333 1499.37 -396.54 1462.36C-419.75 1425.35 -437.008 1375.36 -447.664 1315.9C-468.975 1196.97 -463.862 1040.24 -427.251 873.919C-390.64 707.594 -329.473 563.207 -260.195 464.22C-225.555 414.726 -188.903 376.603 -152.298 352.758C-115.695 328.914 -79.1756 319.366 -44.7642 326.94C-10.3528 334.515 18.782 358.514 41.9899 395.524C65.1991 432.535 82.4571 482.525 93.1131 541.989C114.425 660.917 109.312 817.642 72.7008 983.967Z" stroke="url(#paint77_linear_252_6723)" stroke-opacity="0.3"/>
<path d="M71.7034 988.323C32.1953 1153.98 -31.4823 1297.28 -102.477 1395.04C-137.976 1443.93 -175.288 1481.4 -212.304 1504.61C-249.317 1527.81 -285.998 1536.72 -320.272 1528.54C-354.545 1520.37 -383.257 1495.87 -405.815 1458.46C-428.375 1421.05 -444.758 1370.76 -454.375 1311.12C-473.608 1191.84 -465.76 1035.23 -426.252 869.567C-386.744 703.906 -323.066 560.608 -252.071 462.845C-216.573 413.963 -179.26 376.486 -142.245 353.283C-105.231 330.081 -68.5509 321.172 -34.277 329.346C-0.00300014 337.52 28.7085 362.024 51.267 399.433C73.8267 436.844 90.2096 487.127 99.8262 546.769C119.059 666.05 111.212 822.662 71.7034 988.323Z" stroke="url(#paint78_linear_252_6723)" stroke-opacity="0.3"/>
<path d="M70.6272 992.655C28.2338 1157.6 -37.9349 1299.77 -110.625 1396.27C-146.971 1444.53 -184.932 1481.35 -222.347 1503.9C-259.76 1526.46 -296.59 1534.72 -330.716 1525.95C-364.842 1517.18 -393.122 1492.18 -415.024 1454.38C-436.927 1416.58 -452.43 1366.02 -461.004 1306.22C-478.153 1186.62 -467.573 1030.17 -425.18 865.226C-382.786 700.28 -316.618 558.116 -243.927 461.607C-207.581 413.352 -169.62 376.531 -132.205 353.978C-94.7926 331.426 -57.9624 323.158 -23.8364 331.929C10.2897 340.699 38.5692 365.701 60.4714 403.498C82.3747 441.297 97.8776 491.859 106.452 551.659C123.6 671.257 113.021 827.709 70.6272 992.655Z" stroke="url(#paint79_linear_252_6723)" stroke-opacity="0.3"/>
<path d="M69.4778 996.977C24.2122 1161.16 -44.4276 1302.15 -118.791 1397.37C-155.974 1444.99 -194.572 1481.14 -232.375 1503.03C-270.175 1524.93 -307.144 1532.55 -341.112 1523.19C-375.08 1513.82 -402.918 1488.33 -424.158 1450.16C-445.398 1411.98 -460.016 1361.16 -467.545 1301.22C-482.604 1181.34 -469.295 1025.1 -424.03 860.915C-378.764 696.733 -310.124 555.745 -235.761 460.52C-198.578 412.907 -159.98 376.754 -122.177 354.857C-84.3768 332.961 -47.408 325.338 -13.4401 334.703C20.5277 344.068 48.3665 369.559 69.6057 407.733C90.846 445.908 105.464 496.732 112.993 556.673C128.052 676.553 114.743 832.796 69.4778 996.977Z" stroke="url(#paint80_linear_252_6723)" stroke-opacity="0.3"/>
<path d="M68.2532 1001.27C20.1291 1164.64 -50.9608 1304.4 -126.975 1398.32C-164.983 1445.28 -204.206 1480.75 -242.385 1501.98C-280.562 1523.22 -317.658 1530.19 -351.458 1520.24C-385.257 1510.28 -412.646 1484.31 -433.216 1445.77C-453.787 1407.23 -467.516 1356.16 -473.998 1296.09C-486.962 1175.97 -470.929 1019.98 -422.804 856.615C-374.68 693.249 -303.591 553.481 -227.576 459.568C-189.568 412.61 -150.345 377.137 -112.166 355.903C-73.9893 334.67 -36.893 327.693 -3.09376 337.649C30.7054 347.606 58.0952 373.579 78.6649 412.118C99.2357 450.658 112.965 501.73 119.447 561.793C132.41 681.917 116.377 837.904 68.2532 1001.27Z" stroke="url(#paint81_linear_252_6723)" stroke-opacity="0.3"/>
<path d="M66.9535 1005.54C15.9857 1168.05 -57.5327 1306.55 -135.175 1399.12C-173.996 1445.41 -213.832 1480.19 -252.376 1500.76C-290.918 1521.32 -328.13 1527.65 -361.751 1517.11C-395.371 1506.56 -422.303 1480.11 -442.197 1441.22C-462.092 1402.33 -474.928 1351.02 -480.36 1290.86C-491.226 1170.53 -472.473 1014.84 -421.505 852.341C-370.537 689.839 -297.019 551.333 -219.377 458.761C-180.555 412.474 -140.719 377.691 -102.175 357.126C-63.6335 336.563 -26.4211 330.234 7.19922 340.779C40.8195 351.324 67.7518 377.771 87.6457 416.663C107.541 455.556 120.376 506.86 125.809 567.027C136.674 687.359 117.921 843.042 66.9535 1005.54Z" stroke="url(#paint82_linear_252_6723)" stroke-opacity="0.3"/>
<path d="M65.5787 1009.79C11.7825 1171.38 -64.1419 1308.58 -143.388 1399.79C-183.011 1445.39 -223.448 1479.47 -262.345 1499.36C-301.24 1519.25 -338.557 1524.93 -371.988 1513.8C-405.419 1502.67 -431.886 1475.75 -451.098 1436.52C-470.311 1397.29 -482.249 1345.77 -486.631 1285.51C-495.395 1165.01 -473.928 1009.68 -420.131 848.09C-366.335 686.503 -290.411 549.3 -211.165 458.098C-171.542 412.495 -131.105 378.413 -92.2079 358.524C-53.3131 338.636 -15.9959 332.958 17.4352 344.088C50.8663 355.218 77.3329 382.132 96.5451 421.364C115.758 460.599 127.697 512.119 132.078 572.371C140.842 692.875 119.375 848.207 65.5787 1009.79Z" stroke="url(#paint83_linear_252_6723)" stroke-opacity="0.3"/>
<path d="M64.1308 1014.02C7.52276 1174.65 -70.7846 1310.5 -151.61 1400.31C-192.023 1445.21 -233.049 1478.58 -272.287 1497.79C-311.523 1517 -348.934 1522.02 -382.165 1510.31C-415.397 1498.6 -441.39 1471.23 -459.915 1431.67C-478.44 1392.1 -489.477 1340.38 -492.807 1280.06C-499.466 1159.42 -475.291 1004.49 -418.683 843.866C-362.075 683.242 -283.768 547.386 -202.943 457.58C-162.529 412.676 -121.504 379.304 -82.2655 360.098C-43.0296 340.892 -5.61899 335.866 27.6128 347.577C60.8446 359.289 86.8374 386.66 105.362 426.222C123.888 465.787 134.925 517.507 138.254 577.827C144.914 698.465 120.739 853.399 64.1308 1014.02Z" stroke="url(#paint84_linear_252_6723)" stroke-opacity="0.3"/>
<path d="M62.6098 1018.22C3.20709 1177.83 -77.4594 1312.3 -159.84 1400.68C-201.031 1444.88 -242.632 1477.53 -282.2 1496.05C-321.765 1514.56 -359.257 1518.94 -392.28 1506.65C-425.302 1494.36 -450.813 1466.54 -468.645 1426.66C-486.477 1386.78 -496.61 1334.87 -498.886 1274.5C-503.439 1153.77 -476.564 999.277 -417.161 839.666C-357.758 680.055 -277.092 545.585 -194.712 457.204C-153.521 413.012 -111.919 380.362 -72.3516 361.842C-32.7865 343.324 4.70612 338.952 37.7285 351.242C70.7508 363.532 96.262 391.353 114.093 431.232C131.926 471.113 142.058 523.018 144.335 583.387C148.888 704.123 122.012 858.611 62.6098 1018.22Z" stroke="url(#paint85_linear_252_6723)" stroke-opacity="0.3"/>
<path d="M61.016 1022.39C-1.16327 1180.94 -84.1643 1313.98 -168.074 1400.92C-210.03 1444.38 -252.196 1476.3 -292.08 1494.13C-331.962 1511.95 -369.526 1515.67 -402.329 1502.8C-435.131 1489.94 -460.153 1461.68 -477.286 1421.49C-494.419 1381.31 -503.645 1329.23 -504.867 1268.83C-507.312 1148.04 -477.745 994.041 -415.566 835.491C-353.386 676.941 -270.385 543.9 -186.475 456.969C-144.519 413.503 -102.354 381.584 -62.4695 363.758C-22.5873 345.933 14.976 342.215 47.7788 355.08C80.5816 367.944 105.603 396.206 122.736 436.391C139.87 476.577 149.095 528.651 150.318 589.05C152.763 709.847 123.195 863.843 61.016 1022.39Z" stroke="url(#paint86_linear_252_6723)" stroke-opacity="0.3"/>
<path d="M59.3473 1026.54C-5.58953 1183.98 -90.8998 1315.55 -176.314 1401.01C-219.022 1443.73 -261.738 1474.91 -301.928 1492.04C-342.115 1509.16 -379.738 1512.23 -412.311 1498.79C-444.884 1485.36 -469.409 1456.66 -485.838 1416.18C-502.267 1375.7 -510.582 1323.48 -510.751 1263.07C-511.087 1142.25 -478.837 988.789 -413.9 831.348C-348.963 673.907 -263.653 542.335 -178.238 456.882C-135.53 414.155 -92.8141 382.976 -52.6246 365.849C-12.4373 348.723 25.1851 345.661 57.7584 359.096C90.3317 372.531 114.856 401.226 131.285 441.703C147.715 482.182 156.03 534.409 156.198 594.821C156.535 715.642 124.284 869.099 59.3473 1026.54Z" stroke="url(#paint87_linear_252_6723)" stroke-opacity="0.3"/>
<path d="M57.6099 1030.66C-10.0648 1186.94 -97.6582 1317 -184.551 1400.95C-227.998 1442.93 -271.252 1473.36 -311.734 1489.78C-352.214 1506.2 -389.884 1508.6 -422.218 1494.6C-454.552 1480.6 -478.572 1451.48 -494.292 1410.73C-510.013 1369.97 -517.415 1317.6 -516.529 1257.2C-514.757 1136.39 -479.833 983.518 -412.159 827.234C-344.484 670.95 -256.89 540.887 -169.997 456.938C-126.55 414.963 -83.2965 384.534 -42.8143 368.111C-2.33423 351.689 35.3359 349.285 67.6698 363.286C100.004 377.288 124.024 406.405 139.744 447.163C155.464 487.923 162.867 540.287 161.981 600.693C160.208 721.501 125.285 874.372 57.6099 1030.66Z" stroke="url(#paint88_linear_252_6723)" stroke-opacity="0.3"/>
<path d="M55.7982 1034.74C-14.5937 1189.82 -104.444 1318.33 -192.789 1400.75C-236.962 1441.96 -280.74 1471.63 -321.503 1487.35C-362.263 1503.06 -399.97 1504.81 -432.054 1490.24C-464.139 1475.68 -487.647 1446.15 -502.653 1405.12C-517.66 1364.09 -524.147 1311.61 -522.207 1251.23C-518.327 1130.47 -480.74 978.23 -410.349 823.151C-339.957 668.072 -250.107 539.557 -161.762 457.138C-117.589 415.927 -73.8105 386.258 -33.0478 370.544C7.71271 354.831 45.4191 353.084 77.5037 367.648C109.588 382.211 133.097 411.744 148.103 452.77C163.109 493.798 169.597 546.283 167.657 606.664C163.776 727.423 126.19 879.661 55.7982 1034.74Z" stroke="url(#paint89_linear_252_6723)" stroke-opacity="0.3"/>
<path d="M53.916 1038.79C-19.1717 1192.62 -111.251 1319.54 -201.021 1400.41C-245.906 1440.84 -290.196 1469.74 -331.226 1484.74C-372.255 1499.74 -409.986 1500.83 -441.812 1485.71C-473.637 1470.59 -496.626 1440.65 -510.914 1399.37C-525.203 1358.08 -530.773 1305.49 -527.78 1245.16C-521.792 1124.48 -481.555 972.924 -408.467 819.098C-335.379 665.271 -243.3 538.344 -153.53 457.479C-108.645 417.045 -64.3553 388.145 -23.3245 373.145C17.704 358.145 55.435 357.057 87.2606 372.178C119.086 387.3 142.075 417.238 156.363 458.52C170.652 499.804 176.222 552.394 173.229 612.732C167.241 733.405 127.004 884.963 53.916 1038.79Z" stroke="url(#paint90_linear_252_6723)" stroke-opacity="0.3"/>
<path d="M51.9637 1042.81C-23.7975 1195.34 -118.078 1320.64 -209.245 1399.92C-254.83 1439.57 -299.617 1467.69 -340.903 1481.97C-382.187 1496.25 -419.931 1496.68 -451.488 1481.01C-483.045 1465.34 -505.508 1435 -519.073 1393.48C-532.639 1351.95 -537.291 1299.27 -533.245 1238.99C-525.152 1118.44 -482.276 967.609 -406.515 815.082C-330.753 662.554 -236.473 537.254 -145.306 457.967C-99.7211 418.323 -54.9342 390.2 -13.6479 375.918C27.6361 361.637 65.3804 361.208 96.9372 376.882C128.494 392.556 150.957 422.892 164.522 464.416C178.088 505.943 182.74 558.623 178.694 618.899C170.601 739.449 127.725 890.282 51.9637 1042.81Z" stroke="url(#paint91_linear_252_6723)" stroke-opacity="0.3"/>
<path d="M49.9417 1046.79C-28.47 1197.97 -124.923 1321.61 -217.46 1399.29C-263.73 1438.14 -309 1465.47 -350.53 1479.03C-392.057 1492.59 -429.803 1492.36 -461.081 1476.14C-492.36 1459.92 -514.29 1429.19 -527.128 1387.44C-539.967 1345.68 -543.699 1292.93 -538.601 1232.73C-528.406 1112.34 -482.904 962.279 -404.492 811.097C-326.081 659.914 -229.628 536.278 -137.091 458.595C-90.8212 419.753 -45.5504 392.416 -4.02115 378.857C37.5058 365.298 75.2519 365.527 106.53 381.75C137.809 397.973 159.739 428.695 172.578 470.451C185.417 512.208 189.148 564.961 184.051 625.157C173.856 745.548 128.353 895.61 49.9417 1046.79Z" stroke="url(#paint92_linear_252_6723)" stroke-opacity="0.3"/>
<path d="M47.8499 1050.74C-33.1882 1200.53 -131.784 1322.46 -225.663 1398.52C-272.603 1436.55 -318.344 1463.09 -360.104 1475.92C-401.861 1488.75 -439.598 1487.87 -470.588 1471.1C-501.579 1454.33 -522.97 1423.23 -535.077 1381.26C-547.186 1339.29 -549.996 1286.48 -543.849 1226.38C-531.554 1106.18 -483.44 956.939 -402.402 807.148C-321.363 657.357 -222.767 535.423 -128.889 459.367C-81.9482 421.338 -36.2071 394.795 5.55244 381.963C47.3097 369.131 85.046 370.019 116.037 386.785C147.027 403.551 168.418 434.652 180.526 476.625C192.634 518.6 195.445 571.41 189.297 631.508C177.002 751.703 128.888 900.947 47.8499 1050.74Z" stroke="url(#paint93_linear_252_6723)" stroke-opacity="0.3"/>
<path d="M45.6889 1054.65C-37.9512 1203 -138.66 1323.2 -233.852 1397.6C-281.449 1434.81 -327.646 1460.55 -369.624 1472.65C-411.598 1484.75 -449.313 1483.2 -480.007 1465.9C-510.7 1448.59 -531.545 1417.13 -542.918 1374.95C-554.292 1332.77 -556.18 1279.92 -548.985 1219.93C-534.595 1099.97 -483.883 951.591 -400.243 803.237C-316.603 654.883 -215.894 534.689 -120.702 460.282C-73.1049 423.078 -26.9076 397.338 15.0696 385.236C57.0444 373.136 94.7595 374.682 125.453 391.986C156.146 409.291 176.991 440.76 188.364 482.938C199.738 525.118 201.626 577.969 194.431 637.951C180.041 757.912 129.329 906.294 45.6889 1054.65Z" stroke="url(#paint94_linear_252_6723)" stroke-opacity="0.3"/>
<path d="M43.4626 1058.52C-42.7538 1205.39 -145.545 1323.81 -242.021 1396.54C-290.26 1432.91 -336.9 1457.84 -379.082 1469.21C-421.261 1480.58 -458.944 1478.37 -489.33 1460.53C-519.717 1442.7 -540.009 1410.87 -550.645 1368.5C-561.281 1326.13 -562.246 1273.25 -554.005 1213.4C-537.523 1093.71 -484.23 946.236 -398.013 799.365C-311.797 652.494 -209.006 534.075 -112.53 461.341C-64.2906 424.974 -17.6511 400.043 24.5308 388.676C66.7105 377.31 104.393 379.514 134.779 397.352C165.166 415.189 185.458 447.018 196.094 489.387C206.73 531.76 207.696 584.635 199.455 644.482C182.973 764.174 129.679 911.649 43.4626 1058.52Z" stroke="url(#paint95_linear_252_6723)" stroke-opacity="0.3"/>
<path d="M41.1677 1062.36C-47.5989 1207.7 -152.441 1324.31 -250.172 1395.34C-299.038 1430.87 -346.106 1454.98 -388.48 1465.61C-430.851 1476.24 -468.489 1473.37 -498.56 1455.01C-528.631 1436.64 -548.365 1404.47 -558.259 1361.92C-568.154 1319.37 -568.197 1266.48 -558.912 1206.79C-540.344 1087.4 -484.485 940.879 -395.718 795.534C-306.952 650.19 -202.109 533.583 -104.379 462.544C-55.5123 427.024 -8.4448 402.912 33.9291 392.283C76.3007 381.654 113.939 384.516 144.009 402.881C174.08 421.246 193.814 453.423 203.708 495.972C213.603 538.524 213.646 591.408 204.362 651.103C185.794 770.489 129.934 917.011 41.1677 1062.36Z" stroke="url(#paint96_linear_252_6723)" stroke-opacity="0.3"/>
<path d="M38.8062 1066.15C-52.4834 1209.92 -159.345 1324.68 -258.301 1394C-307.779 1428.66 -355.26 1451.95 -397.813 1461.84C-440.364 1471.73 -477.947 1468.21 -507.692 1449.32C-537.438 1430.43 -556.607 1397.92 -565.757 1355.2C-574.908 1312.48 -574.028 1259.61 -563.703 1200.08C-543.054 1081.04 -484.646 935.515 -393.357 791.742C-302.067 647.97 -195.205 533.21 -96.2498 463.888C-46.771 429.226 0.710132 405.938 43.2631 396.05C85.8137 386.163 123.396 389.681 153.142 408.568C182.887 427.455 202.057 459.972 211.207 502.688C220.358 545.405 219.477 598.282 209.153 657.805C188.504 776.849 130.096 922.374 38.8062 1066.15Z" stroke="url(#paint97_linear_252_6723)" stroke-opacity="0.3"/>
<path d="M36.3805 1069.89C-57.4045 1212.05 -166.252 1324.93 -266.403 1392.51C-316.479 1426.31 -364.359 1448.76 -407.079 1457.91C-449.795 1467.05 -487.311 1462.88 -516.722 1443.47C-546.133 1424.07 -564.732 1391.22 -573.136 1348.35C-581.539 1305.48 -579.737 1252.63 -568.375 1193.3C-545.651 1074.63 -484.712 930.147 -390.927 787.989C-297.143 645.831 -188.295 532.955 -88.1442 465.37C-38.0679 431.576 9.81242 409.121 52.5315 399.977C95.2482 390.834 132.764 395.008 162.175 414.411C191.586 433.814 210.185 466.661 218.589 509.529C226.992 552.4 225.19 605.254 213.828 664.588C191.104 783.253 130.165 927.737 36.3805 1069.89Z" stroke="url(#paint98_linear_252_6723)" stroke-opacity="0.3"/>
<path d="M33.8868 1073.6C-62.3648 1214.1 -173.166 1325.06 -274.481 1390.89C-325.139 1423.8 -373.404 1445.42 -416.276 1453.82C-459.146 1462.21 -496.583 1457.39 -525.651 1437.47C-554.719 1417.56 -572.742 1384.39 -580.396 1341.38C-588.051 1298.37 -585.326 1245.56 -572.93 1186.43C-548.139 1068.18 -484.688 924.783 -388.436 784.284C-292.184 643.784 -181.383 532.825 -80.0684 466.998C-29.41 434.084 18.8549 412.467 61.7271 404.071C104.597 395.674 142.034 400.502 171.102 420.416C200.17 440.329 218.193 473.495 225.847 516.504C233.501 559.515 230.776 612.329 218.381 671.456C193.59 789.706 130.138 933.104 33.8868 1073.6Z" stroke="url(#paint99_linear_252_6723)" stroke-opacity="0.3"/>
<defs>
<linearGradient id="paint0_linear_252_6723" x1="-240.343" y1="1064.65" x2="-109.426" y2="789.115" gradientUnits="userSpaceOnUse">
<stop stop-color="#DE701D"/>
<stop offset="1" stop-color="#121212"/>
</linearGradient>
<linearGradient id="paint1_linear_252_6723" x1="-242.699" y1="1063.53" x2="-106.994" y2="790.322" gradientUnits="userSpaceOnUse">
<stop stop-color="#DE701D"/>
<stop offset="1" stop-color="#121212"/>
</linearGradient>
<linearGradient id="paint2_linear_252_6723" x1="-245.04" y1="1062.37" x2="-104.587" y2="791.572" gradientUnits="userSpaceOnUse">
<stop stop-color="#DE701D"/>
<stop offset="1" stop-color="#121212"/>
</linearGradient>
<linearGradient id="paint3_linear_252_6723" x1="-247.357" y1="1061.17" x2="-102.2" y2="792.858" gradientUnits="userSpaceOnUse">
<stop stop-color="#DE701D"/>
<stop offset="1" stop-color="#121212"/>
</linearGradient>
<linearGradient id="paint4_linear_252_6723" x1="-249.655" y1="1059.93" x2="-99.8368" y2="794.194" gradientUnits="userSpaceOnUse">
<stop stop-color="#DE701D"/>
<stop offset="1" stop-color="#121212"/>
</linearGradient>
<linearGradient id="paint5_linear_252_6723" x1="-251.927" y1="1058.64" x2="-97.4945" y2="795.563" gradientUnits="userSpaceOnUse">
<stop stop-color="#DE701D"/>
<stop offset="1" stop-color="#121212"/>
</linearGradient>
<linearGradient id="paint6_linear_252_6723" x1="-254.182" y1="1057.32" x2="-95.1808" y2="796.977" gradientUnits="userSpaceOnUse">
<stop stop-color="#DE701D"/>
<stop offset="1" stop-color="#121212"/>
</linearGradient>
<linearGradient id="paint7_linear_252_6723" x1="-256.412" y1="1055.96" x2="-92.8919" y2="798.426" gradientUnits="userSpaceOnUse">
<stop stop-color="#DE701D"/>
<stop offset="1" stop-color="#121212"/>
</linearGradient>
<linearGradient id="paint8_linear_252_6723" x1="-258.614" y1="1054.55" x2="-90.6242" y2="799.917" gradientUnits="userSpaceOnUse">
<stop stop-color="#DE701D"/>
<stop offset="1" stop-color="#121212"/>
</linearGradient>
<linearGradient id="paint9_linear_252_6723" x1="-260.796" y1="1053.12" x2="-88.3875" y2="801.452" gradientUnits="userSpaceOnUse">
<stop stop-color="#DE701D"/>
<stop offset="1" stop-color="#121212"/>
</linearGradient>
<linearGradient id="paint10_linear_252_6723" x1="-262.95" y1="1051.64" x2="-86.1758" y2="803.023" gradientUnits="userSpaceOnUse">
<stop stop-color="#DE701D"/>
<stop offset="1" stop-color="#121212"/>
</linearGradient>
<linearGradient id="paint11_linear_252_6723" x1="-265.075" y1="1050.13" x2="-83.9892" y2="804.632" gradientUnits="userSpaceOnUse">
<stop stop-color="#DE701D"/>
<stop offset="1" stop-color="#121212"/>
</linearGradient>
<linearGradient id="paint12_linear_252_6723" x1="-267.178" y1="1048.58" x2="-81.8351" y2="806.279" gradientUnits="userSpaceOnUse">
<stop stop-color="#DE701D"/>
<stop offset="1" stop-color="#121212"/>
</linearGradient>
<linearGradient id="paint13_linear_252_6723" x1="-269.253" y1="1046.99" x2="-79.7097" y2="807.962" gradientUnits="userSpaceOnUse">
<stop stop-color="#DE701D"/>
<stop offset="1" stop-color="#121212"/>
</linearGradient>
<linearGradient id="paint14_linear_252_6723" x1="-271.299" y1="1045.37" x2="-77.6125" y2="809.687" gradientUnits="userSpaceOnUse">
<stop stop-color="#DE701D"/>
<stop offset="1" stop-color="#121212"/>
</linearGradient>
<linearGradient id="paint15_linear_252_6723" x1="-273.317" y1="1043.71" x2="-75.547" y2="811.44" gradientUnits="userSpaceOnUse">
<stop stop-color="#DE701D"/>
<stop offset="1" stop-color="#121212"/>
</linearGradient>
<linearGradient id="paint16_linear_252_6723" x1="-275.304" y1="1042.01" x2="-73.511" y2="813.236" gradientUnits="userSpaceOnUse">
<stop stop-color="#DE701D"/>
<stop offset="1" stop-color="#121212"/>
</linearGradient>
<linearGradient id="paint17_linear_252_6723" x1="-277.263" y1="1040.29" x2="-71.5077" y2="815.066" gradientUnits="userSpaceOnUse">
<stop stop-color="#DE701D"/>
<stop offset="1" stop-color="#121212"/>
</linearGradient>
<linearGradient id="paint18_linear_252_6723" x1="-279.192" y1="1038.52" x2="-69.5368" y2="816.927" gradientUnits="userSpaceOnUse">
<stop stop-color="#DE701D"/>
<stop offset="1" stop-color="#121212"/>
</linearGradient>
<linearGradient id="paint19_linear_252_6723" x1="-281.088" y1="1036.73" x2="-67.5973" y2="818.824" gradientUnits="userSpaceOnUse">
<stop stop-color="#DE701D"/>
<stop offset="1" stop-color="#121212"/>
</linearGradient>
<linearGradient id="paint20_linear_252_6723" x1="-282.953" y1="1034.9" x2="-65.6928" y2="820.757" gradientUnits="userSpaceOnUse">
<stop stop-color="#DE701D"/>
<stop offset="1" stop-color="#121212"/>
</linearGradient>
<linearGradient id="paint21_linear_252_6723" x1="-284.787" y1="1033.04" x2="-63.8222" y2="822.72" gradientUnits="userSpaceOnUse">
<stop stop-color="#DE701D"/>
<stop offset="1" stop-color="#121212"/>
</linearGradient>
<linearGradient id="paint22_linear_252_6723" x1="-286.587" y1="1031.15" x2="-61.9849" y2="824.713" gradientUnits="userSpaceOnUse">
<stop stop-color="#DE701D"/>
<stop offset="1" stop-color="#121212"/>
</linearGradient>
<linearGradient id="paint23_linear_252_6723" x1="-288.354" y1="1029.22" x2="-60.1838" y2="826.743" gradientUnits="userSpaceOnUse">
<stop stop-color="#DE701D"/>
<stop offset="1" stop-color="#121212"/>
</linearGradient>
<linearGradient id="paint24_linear_252_6723" x1="-290.087" y1="1027.27" x2="-58.4178" y2="828.802" gradientUnits="userSpaceOnUse">
<stop stop-color="#DE701D"/>
<stop offset="1" stop-color="#121212"/>
</linearGradient>
<linearGradient id="paint25_linear_252_6723" x1="-291.786" y1="1025.29" x2="-56.6881" y2="830.892" gradientUnits="userSpaceOnUse">
<stop stop-color="#DE701D"/>
<stop offset="1" stop-color="#121212"/>
</linearGradient>
<linearGradient id="paint26_linear_252_6723" x1="-293.448" y1="1023.27" x2="-54.9933" y2="833.013" gradientUnits="userSpaceOnUse">
<stop stop-color="#DE701D"/>
<stop offset="1" stop-color="#121212"/>
</linearGradient>
<linearGradient id="paint27_linear_252_6723" x1="-295.077" y1="1021.23" x2="-53.3385" y2="835.16" gradientUnits="userSpaceOnUse">
<stop stop-color="#DE701D"/>
<stop offset="1" stop-color="#121212"/>
</linearGradient>
<linearGradient id="paint28_linear_252_6723" x1="-296.671" y1="1019.16" x2="-51.7219" y2="837.338" gradientUnits="userSpaceOnUse">
<stop stop-color="#DE701D"/>
<stop offset="1" stop-color="#121212"/>
</linearGradient>
<linearGradient id="paint29_linear_252_6723" x1="-298.228" y1="1017.06" x2="-50.1427" y2="839.542" gradientUnits="userSpaceOnUse">
<stop stop-color="#DE701D"/>
<stop offset="1" stop-color="#121212"/>
</linearGradient>
<linearGradient id="paint30_linear_252_6723" x1="-299.747" y1="1014.94" x2="-48.6011" y2="841.774" gradientUnits="userSpaceOnUse">
<stop stop-color="#DE701D"/>
<stop offset="1" stop-color="#121212"/>
</linearGradient>
<linearGradient id="paint31_linear_252_6723" x1="-301.228" y1="1012.79" x2="-47.098" y2="844.03" gradientUnits="userSpaceOnUse">
<stop stop-color="#DE701D"/>
<stop offset="1" stop-color="#121212"/>
</linearGradient>
<linearGradient id="paint32_linear_252_6723" x1="-302.672" y1="1010.61" x2="-45.6355" y2="846.32" gradientUnits="userSpaceOnUse">
<stop stop-color="#DE701D"/>
<stop offset="1" stop-color="#121212"/>
</linearGradient>
<linearGradient id="paint33_linear_252_6723" x1="-304.081" y1="1008.41" x2="-44.2161" y2="848.628" gradientUnits="userSpaceOnUse">
<stop stop-color="#DE701D"/>
<stop offset="1" stop-color="#121212"/>
</linearGradient>
<linearGradient id="paint34_linear_252_6723" x1="-305.446" y1="1006.19" x2="-42.8322" y2="850.962" gradientUnits="userSpaceOnUse">
<stop stop-color="#DE701D"/>
<stop offset="1" stop-color="#121212"/>
</linearGradient>
<linearGradient id="paint35_linear_252_6723" x1="-306.775" y1="1003.94" x2="-41.4921" y2="853.32" gradientUnits="userSpaceOnUse">
<stop stop-color="#DE701D"/>
<stop offset="1" stop-color="#121212"/>
</linearGradient>
<linearGradient id="paint36_linear_252_6723" x1="-308.067" y1="1001.67" x2="-40.1958" y2="855.704" gradientUnits="userSpaceOnUse">
<stop stop-color="#DE701D"/>
<stop offset="1" stop-color="#121212"/>
</linearGradient>
<linearGradient id="paint37_linear_252_6723" x1="-309.315" y1="999.375" x2="-38.9376" y2="858.108" gradientUnits="userSpaceOnUse">
<stop stop-color="#DE701D"/>
<stop offset="1" stop-color="#121212"/>
</linearGradient>
<linearGradient id="paint38_linear_252_6723" x1="-310.523" y1="997.055" x2="-37.7217" y2="860.528" gradientUnits="userSpaceOnUse">
<stop stop-color="#DE701D"/>
<stop offset="1" stop-color="#121212"/>
</linearGradient>
<linearGradient id="paint39_linear_252_6723" x1="-311.691" y1="994.722" x2="-36.5479" y2="862.977" gradientUnits="userSpaceOnUse">
<stop stop-color="#DE701D"/>
<stop offset="1" stop-color="#121212"/>
</linearGradient>
<linearGradient id="paint40_linear_252_6723" x1="-312.82" y1="992.369" x2="-35.4202" y2="865.446" gradientUnits="userSpaceOnUse">
<stop stop-color="#DE701D"/>
<stop offset="1" stop-color="#121212"/>
</linearGradient>
<linearGradient id="paint41_linear_252_6723" x1="-313.906" y1="989.99" x2="-34.3325" y2="867.928" gradientUnits="userSpaceOnUse">
<stop stop-color="#DE701D"/>
<stop offset="1" stop-color="#121212"/>
</linearGradient>
<linearGradient id="paint42_linear_252_6723" x1="-314.949" y1="987.594" x2="-33.2887" y2="870.43" gradientUnits="userSpaceOnUse">
<stop stop-color="#DE701D"/>
<stop offset="1" stop-color="#121212"/>
</linearGradient>
<linearGradient id="paint43_linear_252_6723" x1="-315.951" y1="985.183" x2="-32.2885" y2="872.952" gradientUnits="userSpaceOnUse">
<stop stop-color="#DE701D"/>
<stop offset="1" stop-color="#121212"/>
</linearGradient>
<linearGradient id="paint44_linear_252_6723" x1="-316.912" y1="982.757" x2="-31.3336" y2="875.494" gradientUnits="userSpaceOnUse">
<stop stop-color="#DE701D"/>
<stop offset="1" stop-color="#121212"/>
</linearGradient>
<linearGradient id="paint45_linear_252_6723" x1="-317.832" y1="980.311" x2="-30.4257" y2="878.048" gradientUnits="userSpaceOnUse">
<stop stop-color="#DE701D"/>
<stop offset="1" stop-color="#121212"/>
</linearGradient>
<linearGradient id="paint46_linear_252_6723" x1="-318.706" y1="977.849" x2="-29.5585" y2="880.618" gradientUnits="userSpaceOnUse">
<stop stop-color="#DE701D"/>
<stop offset="1" stop-color="#121212"/>
</linearGradient>
<linearGradient id="paint47_linear_252_6723" x1="-319.538" y1="975.373" x2="-28.7373" y2="883.203" gradientUnits="userSpaceOnUse">
<stop stop-color="#DE701D"/>
<stop offset="1" stop-color="#121212"/>
</linearGradient>
<linearGradient id="paint48_linear_252_6723" x1="-320.327" y1="972.886" x2="-27.9618" y2="885.805" gradientUnits="userSpaceOnUse">
<stop stop-color="#DE701D"/>
<stop offset="1" stop-color="#121212"/>
</linearGradient>
<linearGradient id="paint49_linear_252_6723" x1="-321.072" y1="970.382" x2="-27.2315" y2="888.416" gradientUnits="userSpaceOnUse">
<stop stop-color="#DE701D"/>
<stop offset="1" stop-color="#121212"/>
</linearGradient>
<linearGradient id="paint50_linear_252_6723" x1="-321.773" y1="967.865" x2="-26.5476" y2="891.04" gradientUnits="userSpaceOnUse">
<stop stop-color="#DE701D"/>
<stop offset="1" stop-color="#121212"/>
</linearGradient>
<linearGradient id="paint51_linear_252_6723" x1="-322.431" y1="965.338" x2="-25.9095" y2="893.678" gradientUnits="userSpaceOnUse">
<stop stop-color="#DE701D"/>
<stop offset="1" stop-color="#121212"/>
</linearGradient>
<linearGradient id="paint52_linear_252_6723" x1="-323.043" y1="962.798" x2="-25.3164" y2="896.323" gradientUnits="userSpaceOnUse">
<stop stop-color="#DE701D"/>
<stop offset="1" stop-color="#121212"/>
</linearGradient>
<linearGradient id="paint53_linear_252_6723" x1="-323.613" y1="960.251" x2="-24.7715" y2="898.983" gradientUnits="userSpaceOnUse">
<stop stop-color="#DE701D"/>
<stop offset="1" stop-color="#121212"/>
</linearGradient>
<linearGradient id="paint54_linear_252_6723" x1="-324.136" y1="957.689" x2="-24.2703" y2="901.645" gradientUnits="userSpaceOnUse">
<stop stop-color="#DE701D"/>
<stop offset="1" stop-color="#121212"/>
</linearGradient>
<linearGradient id="paint55_linear_252_6723" x1="-324.616" y1="955.123" x2="-23.8175" y2="904.321" gradientUnits="userSpaceOnUse">
<stop stop-color="#DE701D"/>
<stop offset="1" stop-color="#121212"/>
</linearGradient>
<linearGradient id="paint56_linear_252_6723" x1="-325.051" y1="952.55" x2="-23.4125" y2="907.006" gradientUnits="userSpaceOnUse">
<stop stop-color="#DE701D"/>
<stop offset="1" stop-color="#121212"/>
</linearGradient>
<linearGradient id="paint57_linear_252_6723" x1="-325.438" y1="949.964" x2="-23.0502" y2="909.691" gradientUnits="userSpaceOnUse">
<stop stop-color="#DE701D"/>
<stop offset="1" stop-color="#121212"/>
</linearGradient>
<linearGradient id="paint58_linear_252_6723" x1="-325.786" y1="947.38" x2="-22.7415" y2="912.39" gradientUnits="userSpaceOnUse">
<stop stop-color="#DE701D"/>
<stop offset="1" stop-color="#121212"/>
</linearGradient>
<linearGradient id="paint59_linear_252_6723" x1="-326.084" y1="944.782" x2="-22.4754" y2="915.087" gradientUnits="userSpaceOnUse">
<stop stop-color="#DE701D"/>
<stop offset="1" stop-color="#121212"/>
</linearGradient>
<linearGradient id="paint60_linear_252_6723" x1="-326.338" y1="942.185" x2="-22.2569" y2="917.793" gradientUnits="userSpaceOnUse">
<stop stop-color="#DE701D"/>
<stop offset="1" stop-color="#121212"/>
</linearGradient>
<linearGradient id="paint61_linear_252_6723" x1="-326.543" y1="939.579" x2="-22.0827" y2="920.498" gradientUnits="userSpaceOnUse">
<stop stop-color="#DE701D"/>
<stop offset="1" stop-color="#121212"/>
</linearGradient>
<linearGradient id="paint62_linear_252_6723" x1="-326.709" y1="936.975" x2="-21.9616" y2="923.21" gradientUnits="userSpaceOnUse">
<stop stop-color="#DE701D"/>
<stop offset="1" stop-color="#121212"/>
</linearGradient>
<linearGradient id="paint63_linear_252_6723" x1="-326.823" y1="934.363" x2="-21.8825" y2="925.919" gradientUnits="userSpaceOnUse">
<stop stop-color="#DE701D"/>
<stop offset="1" stop-color="#121212"/>
</linearGradient>
<linearGradient id="paint64_linear_252_6723" x1="-326.898" y1="931.754" x2="-21.8559" y2="928.633" gradientUnits="userSpaceOnUse">
<stop stop-color="#DE701D"/>
<stop offset="1" stop-color="#121212"/>
</linearGradient>
<linearGradient id="paint65_linear_252_6723" x1="-326.923" y1="929.141" x2="-21.8727" y2="931.344" gradientUnits="userSpaceOnUse">
<stop stop-color="#DE701D"/>
<stop offset="1" stop-color="#121212"/>
</linearGradient>
<linearGradient id="paint66_linear_252_6723" x1="-326.904" y1="926.528" x2="-21.9394" y2="934.055" gradientUnits="userSpaceOnUse">
<stop stop-color="#DE701D"/>
<stop offset="1" stop-color="#121212"/>
</linearGradient>
<linearGradient id="paint67_linear_252_6723" x1="-326.838" y1="923.92" x2="-22.0507" y2="936.767" gradientUnits="userSpaceOnUse">
<stop stop-color="#DE701D"/>
<stop offset="1" stop-color="#121212"/>
</linearGradient>
<linearGradient id="paint68_linear_252_6723" x1="-326.728" y1="921.307" x2="-22.211" y2="939.473" gradientUnits="userSpaceOnUse">
<stop stop-color="#DE701D"/>
<stop offset="1" stop-color="#121212"/>
</linearGradient>
<linearGradient id="paint69_linear_252_6723" x1="-326.572" y1="918.704" x2="-22.419" y2="942.181" gradientUnits="userSpaceOnUse">
<stop stop-color="#DE701D"/>
<stop offset="1" stop-color="#121212"/>
</linearGradient>
<linearGradient id="paint70_linear_252_6723" x1="-326.37" y1="916.098" x2="-22.6731" y2="944.88" gradientUnits="userSpaceOnUse">
<stop stop-color="#DE701D"/>
<stop offset="1" stop-color="#121212"/>
</linearGradient>
<linearGradient id="paint71_linear_252_6723" x1="-326.124" y1="913.495" x2="-22.9757" y2="947.573" gradientUnits="userSpaceOnUse">
<stop stop-color="#DE701D"/>
<stop offset="1" stop-color="#121212"/>
</linearGradient>
<linearGradient id="paint72_linear_252_6723" x1="-325.831" y1="910.901" x2="-23.3234" y2="950.264" gradientUnits="userSpaceOnUse">
<stop stop-color="#DE701D"/>
<stop offset="1" stop-color="#121212"/>
</linearGradient>
<linearGradient id="paint73_linear_252_6723" x1="-325.493" y1="908.315" x2="-23.7186" y2="952.951" gradientUnits="userSpaceOnUse">
<stop stop-color="#DE701D"/>
<stop offset="1" stop-color="#121212"/>
</linearGradient>
<linearGradient id="paint74_linear_252_6723" x1="-325.111" y1="905.731" x2="-24.1613" y2="955.627" gradientUnits="userSpaceOnUse">
<stop stop-color="#DE701D"/>
<stop offset="1" stop-color="#121212"/>
</linearGradient>
<linearGradient id="paint75_linear_252_6723" x1="-324.685" y1="903.155" x2="-24.6522" y2="958.296" gradientUnits="userSpaceOnUse">
<stop stop-color="#DE701D"/>
<stop offset="1" stop-color="#121212"/>
</linearGradient>
<linearGradient id="paint76_linear_252_6723" x1="-324.21" y1="900.582" x2="-25.1855" y2="960.951" gradientUnits="userSpaceOnUse">
<stop stop-color="#DE701D"/>
<stop offset="1" stop-color="#121212"/>
</linearGradient>
<linearGradient id="paint77_linear_252_6723" x1="-323.693" y1="898.022" x2="-25.7675" y2="963.601" gradientUnits="userSpaceOnUse">
<stop stop-color="#DE701D"/>
<stop offset="1" stop-color="#121212"/>
</linearGradient>
<linearGradient id="paint78_linear_252_6723" x1="-323.13" y1="895.473" x2="-26.3944" y2="966.241" gradientUnits="userSpaceOnUse">
<stop stop-color="#DE701D"/>
<stop offset="1" stop-color="#121212"/>
</linearGradient>
<linearGradient id="paint79_linear_252_6723" x1="-322.526" y1="892.928" x2="-27.0703" y2="968.864" gradientUnits="userSpaceOnUse">
<stop stop-color="#DE701D"/>
<stop offset="1" stop-color="#121212"/>
</linearGradient>
<linearGradient id="paint80_linear_252_6723" x1="-321.875" y1="890.404" x2="-27.7897" y2="971.485" gradientUnits="userSpaceOnUse">
<stop stop-color="#DE701D"/>
<stop offset="1" stop-color="#121212"/>
</linearGradient>
<linearGradient id="paint81_linear_252_6723" x1="-321.18" y1="887.883" x2="-28.5545" y2="974.084" gradientUnits="userSpaceOnUse">
<stop stop-color="#DE701D"/>
<stop offset="1" stop-color="#121212"/>
</linearGradient>
<linearGradient id="paint82_linear_252_6723" x1="-320.441" y1="885.378" x2="-29.365" y2="976.672" gradientUnits="userSpaceOnUse">
<stop stop-color="#DE701D"/>
<stop offset="1" stop-color="#121212"/>
</linearGradient>
<linearGradient id="paint83_linear_252_6723" x1="-319.66" y1="882.886" x2="-30.2213" y2="979.246" gradientUnits="userSpaceOnUse">
<stop stop-color="#DE701D"/>
<stop offset="1" stop-color="#121212"/>
</linearGradient>
<linearGradient id="paint84_linear_252_6723" x1="-318.834" y1="880.41" x2="-31.1214" y2="981.807" gradientUnits="userSpaceOnUse">
<stop stop-color="#DE701D"/>
<stop offset="1" stop-color="#121212"/>
</linearGradient>
<linearGradient id="paint85_linear_252_6723" x1="-317.965" y1="877.946" x2="-32.0657" y2="984.35" gradientUnits="userSpaceOnUse">
<stop stop-color="#DE701D"/>
<stop offset="1" stop-color="#121212"/>
</linearGradient>
<linearGradient id="paint86_linear_252_6723" x1="-317.053" y1="875.497" x2="-33.054" y2="986.874" gradientUnits="userSpaceOnUse">
<stop stop-color="#DE701D"/>
<stop offset="1" stop-color="#121212"/>
</linearGradient>
<linearGradient id="paint87_linear_252_6723" x1="-316.1" y1="873.067" x2="-34.0884" y2="989.383" gradientUnits="userSpaceOnUse">
<stop stop-color="#DE701D"/>
<stop offset="1" stop-color="#121212"/>
</linearGradient>
<linearGradient id="paint88_linear_252_6723" x1="-315.102" y1="870.654" x2="-35.1631" y2="991.874" gradientUnits="userSpaceOnUse">
<stop stop-color="#DE701D"/>
<stop offset="1" stop-color="#121212"/>
</linearGradient>
<linearGradient id="paint89_linear_252_6723" x1="-314.065" y1="868.258" x2="-36.2839" y2="994.345" gradientUnits="userSpaceOnUse">
<stop stop-color="#DE701D"/>
<stop offset="1" stop-color="#121212"/>
</linearGradient>
<linearGradient id="paint90_linear_252_6723" x1="-312.985" y1="865.878" x2="-37.447" y2="996.795" gradientUnits="userSpaceOnUse">
<stop stop-color="#DE701D"/>
<stop offset="1" stop-color="#121212"/>
</linearGradient>
<linearGradient id="paint91_linear_252_6723" x1="-311.864" y1="863.521" x2="-38.6525" y2="999.227" gradientUnits="userSpaceOnUse">
<stop stop-color="#DE701D"/>
<stop offset="1" stop-color="#121212"/>
</linearGradient>
<linearGradient id="paint92_linear_252_6723" x1="-310.701" y1="861.181" x2="-39.9001" y2="1001.63" gradientUnits="userSpaceOnUse">
<stop stop-color="#DE701D"/>
<stop offset="1" stop-color="#121212"/>
</linearGradient>
<linearGradient id="paint93_linear_252_6723" x1="-309.499" y1="858.861" x2="-41.19" y2="1004.02" gradientUnits="userSpaceOnUse">
<stop stop-color="#DE701D"/>
<stop offset="1" stop-color="#121212"/>
</linearGradient>
<linearGradient id="paint94_linear_252_6723" x1="-308.257" y1="856.564" x2="-42.5221" y2="1006.38" gradientUnits="userSpaceOnUse">
<stop stop-color="#DE701D"/>
<stop offset="1" stop-color="#121212"/>
</linearGradient>
<linearGradient id="paint95_linear_252_6723" x1="-306.972" y1="854.289" x2="-43.8926" y2="1008.72" gradientUnits="userSpaceOnUse">
<stop stop-color="#DE701D"/>
<stop offset="1" stop-color="#121212"/>
</linearGradient>
<linearGradient id="paint96_linear_252_6723" x1="-305.649" y1="852.039" x2="-45.3051" y2="1011.04" gradientUnits="userSpaceOnUse">
<stop stop-color="#DE701D"/>
<stop offset="1" stop-color="#121212"/>
</linearGradient>
<linearGradient id="paint97_linear_252_6723" x1="-304.287" y1="849.811" x2="-46.7579" y2="1013.33" gradientUnits="userSpaceOnUse">
<stop stop-color="#DE701D"/>
<stop offset="1" stop-color="#121212"/>
</linearGradient>
<linearGradient id="paint98_linear_252_6723" x1="-302.885" y1="847.603" x2="-48.2488" y2="1015.59" gradientUnits="userSpaceOnUse">
<stop stop-color="#DE701D"/>
<stop offset="1" stop-color="#121212"/>
</linearGradient>
<linearGradient id="paint99_linear_252_6723" x1="-301.448" y1="845.425" x2="-49.7819" y2="1017.83" gradientUnits="userSpaceOnUse">
<stop stop-color="#DE701D"/>
<stop offset="1" stop-color="#121212"/>
</linearGradient>
</defs>
</svg>
