<svg width="45" height="28" viewBox="0 0 45 28" fill="none" xmlns="http://www.w3.org/2000/svg">
<path d="M28.6246 3.27734H16.7266V24.5458H28.6246V3.27734Z" fill="#FF5A00"/>
<path d="M17.5195 13.9109C17.5195 9.58981 19.5612 5.75466 22.6941 3.27669C20.3884 1.47294 17.4799 0.382812 14.3074 0.382812C6.79196 0.382812 0.710938 6.43325 0.710938 13.9109C0.710938 21.3886 6.79196 27.439 14.3074 27.439C17.4799 27.439 20.3884 26.3489 22.6941 24.5452C19.5568 22.1022 17.5195 18.232 17.5195 13.9109Z" fill="#EB001B"/>
<path d="M44.6765 13.9109C44.6765 21.3886 38.5955 27.439 31.0801 27.439C27.9075 27.439 24.999 26.3489 22.6934 24.5452C25.8659 22.0628 27.8679 18.232 27.8679 13.9109C27.8679 9.58981 25.8263 5.75466 22.6934 3.27669C24.9946 1.47294 27.9031 0.382812 31.0757 0.382812C38.5955 0.382812 44.6765 6.47265 44.6765 13.9109Z" fill="#FF7400"/>
</svg>
