<svg width="81" height="23" viewBox="0 0 81 23" fill="none" xmlns="http://www.w3.org/2000/svg">
<path fill-rule="evenodd" clip-rule="evenodd" d="M7.90034 0.92172C8.61038 0.917413 10.7206 0.724693 11.6144 3.78368C12.2165 5.84425 13.1757 9.21955 14.4918 13.9096H15.0278C16.4392 8.96502 17.4088 5.58972 17.9365 3.78368C18.8397 0.692829 21.0976 0.921781 22.0007 0.921781L28.9688 0.921789V22.9011H21.8667V9.94833H21.3905L17.4315 22.9011H12.0881L8.12906 9.93873H7.65282V22.9011H0.550781V0.921789L7.90034 0.92172ZM39.1672 0.921789V13.8842H39.7337L44.5495 3.2253C45.4844 1.10415 47.4768 0.921789 47.4768 0.921789H54.3494V22.9012H47.0991V9.93873H46.5325L41.8111 20.5976C40.8763 22.7092 38.7895 22.9012 38.7895 22.9012H31.9168V0.921789H39.1672ZM79.4099 11.3665C78.3986 14.2726 75.2225 16.3538 71.7062 16.3538H64.1028V22.9012H57.2081V11.3665H79.4099Z" fill="#0F754E"/>
<path fill-rule="evenodd" clip-rule="evenodd" d="M72.0398 0.921875H56.8477C57.2092 5.81523 61.365 10.0043 65.6672 10.0043H79.8901C80.7109 5.93731 77.8853 0.921875 72.0398 0.921875Z" fill="url(#paint0_linear_709_2227)"/>
<defs>
<linearGradient id="paint0_linear_709_2227" x1="80.0296" y1="6.63509" x2="56.8477" y2="6.63509" gradientUnits="userSpaceOnUse">
<stop stop-color="#1F5CD7"/>
<stop offset="1" stop-color="#02AEFF"/>
</linearGradient>
</defs>
</svg>
