<svg width="1479" height="1489" viewBox="0 0 1479 1489" fill="none" xmlns="http://www.w3.org/2000/svg">
<path d="M818.884 697.535C665.057 770.623 538.13 862.702 457.265 952.472C416.831 997.358 387.931 1041.65 372.931 1082.68C357.932 1123.71 356.843 1161.44 371.965 1193.26C387.086 1225.09 417.024 1248.08 458.306 1262.37C499.59 1276.65 552.18 1282.22 612.518 1279.23C733.191 1273.24 884.75 1233.01 1038.58 1159.92C1192.4 1086.83 1319.33 994.751 1400.2 904.981C1440.63 860.096 1469.53 815.806 1484.53 774.776C1499.53 733.747 1500.62 696.016 1485.5 664.191C1470.37 632.365 1440.44 609.376 1399.15 595.088C1357.87 580.799 1305.28 575.229 1244.94 578.223C1124.27 584.21 972.711 624.447 818.884 697.535Z" stroke="url(#paint0_linear_259_3667)" stroke-opacity="0.3"/>
<path d="M814.864 699.489C662.336 775.251 537.035 869.531 457.749 960.698C418.105 1006.28 389.982 1051.07 375.7 1092.36C361.419 1133.64 360.99 1171.38 376.664 1202.94C392.338 1234.5 422.674 1256.96 464.198 1270.53C505.725 1284.09 558.405 1288.74 618.681 1284.7C739.231 1276.61 890.064 1233.73 1042.59 1157.97C1195.12 1082.21 1320.42 987.926 1399.71 896.759C1439.35 851.174 1467.47 806.387 1481.76 765.101C1496.04 723.817 1496.47 686.073 1480.79 654.516C1465.12 622.959 1434.78 600.496 1393.26 586.931C1351.73 573.365 1299.05 568.713 1238.77 572.759C1118.22 580.852 967.391 623.728 814.864 699.489Z" stroke="url(#paint1_linear_259_3667)" stroke-opacity="0.3"/>
<path d="M810.882 701.513C659.7 779.925 536.064 876.378 458.381 968.915C419.538 1015.18 392.201 1060.46 378.642 1101.98C365.084 1143.51 365.313 1181.26 381.536 1212.54C397.758 1243.81 428.481 1265.75 470.236 1278.58C511.993 1291.42 564.746 1295.15 624.943 1290.06C745.333 1279.86 895.395 1234.36 1046.58 1155.95C1197.76 1077.54 1321.4 981.083 1399.08 888.546C1437.92 842.276 1465.26 797.005 1478.82 755.476C1492.38 713.949 1492.15 676.203 1475.92 644.925C1459.7 613.646 1428.98 591.716 1387.22 578.878C1345.47 566.038 1292.71 562.307 1232.52 567.404C1112.13 577.599 962.064 623.102 810.882 701.513Z" stroke="url(#paint2_linear_259_3667)" stroke-opacity="0.3"/>
<path d="M806.934 703.601C657.143 784.639 535.209 883.235 459.153 977.114C421.124 1024.05 394.581 1069.8 381.749 1111.56C368.917 1153.31 369.805 1191.05 386.571 1222.04C403.337 1253.03 434.438 1274.42 476.411 1286.53C518.386 1298.64 571.196 1301.45 631.294 1295.3C751.488 1283.01 900.733 1234.89 1050.52 1153.85C1200.31 1072.81 1322.25 974.219 1398.31 880.34C1436.33 833.399 1462.88 787.658 1475.71 745.899C1488.54 704.141 1487.65 666.405 1470.89 635.415C1454.12 604.424 1423.02 583.033 1381.05 570.925C1339.07 558.817 1286.26 556.007 1226.16 562.154C1105.97 574.449 956.724 622.563 806.934 703.601Z" stroke="url(#paint3_linear_259_3667)" stroke-opacity="0.3"/>
<path d="M803.024 705.766C654.67 789.406 534.476 890.115 460.069 985.307C422.865 1032.9 397.125 1079.1 385.023 1121.08C372.922 1163.05 374.469 1200.77 391.773 1231.46C409.078 1262.15 440.547 1283 482.725 1294.37C524.905 1305.75 577.756 1307.64 637.737 1300.44C757.699 1286.05 906.081 1235.34 1054.43 1151.7C1202.79 1068.06 1322.98 967.349 1397.39 872.157C1434.59 824.56 1460.33 778.363 1472.44 736.385C1484.54 694.411 1482.99 656.696 1465.69 626.002C1448.38 595.309 1416.91 574.464 1374.73 563.091C1332.55 551.717 1279.7 549.829 1219.72 557.024C1099.76 571.414 951.377 622.126 803.024 705.766Z" stroke="url(#paint4_linear_259_3667)" stroke-opacity="0.3"/>
<path d="M799.149 707.991C652.278 794.207 533.859 896.998 461.126 993.474C424.758 1041.71 399.828 1088.35 388.461 1130.53C377.094 1172.71 379.299 1210.4 397.136 1240.78C414.974 1271.17 446.802 1291.46 489.172 1302.1C531.544 1312.73 584.419 1313.7 644.267 1305.46C763.959 1288.98 911.434 1235.68 1058.3 1149.47C1205.18 1063.25 1323.59 960.459 1396.33 863.983C1432.7 815.744 1457.63 769.104 1468.99 726.922C1480.36 684.743 1478.16 647.06 1460.32 616.674C1442.48 586.287 1410.65 565.995 1368.28 555.359C1325.91 544.723 1273.03 543.757 1213.19 551.999C1093.5 568.48 946.021 621.774 799.149 707.991Z" stroke="url(#paint5_linear_259_3667)" stroke-opacity="0.3"/>
<path d="M795.319 710.287C649.975 799.054 533.368 903.896 462.329 1001.63C426.809 1050.49 402.696 1097.56 392.067 1139.93C381.439 1182.31 384.3 1219.94 402.665 1250.02C421.03 1280.09 453.208 1299.82 495.757 1309.71C538.308 1319.61 591.193 1319.65 650.887 1310.37C770.273 1291.8 916.795 1235.94 1062.14 1147.17C1207.48 1058.41 1324.09 953.564 1395.13 855.834C1430.65 806.967 1454.76 759.9 1465.39 717.526C1476.02 675.154 1473.16 637.516 1454.79 607.446C1436.43 577.375 1404.25 557.641 1361.7 547.747C1319.15 537.852 1266.27 537.809 1206.57 547.093C1087.19 565.662 940.663 621.521 795.319 710.287Z" stroke="url(#paint6_linear_259_3667)" stroke-opacity="0.3"/>
<path d="M791.526 712.645C647.754 803.935 532.994 910.796 463.672 1009.75C429.01 1059.23 405.722 1106.71 395.834 1149.26C385.947 1191.82 389.465 1229.4 408.352 1259.14C427.239 1288.89 459.756 1308.06 502.472 1317.21C545.189 1326.36 598.066 1325.48 657.589 1315.15C776.633 1294.51 922.158 1236.1 1065.93 1144.81C1209.7 1053.52 1324.46 946.657 1393.79 847.701C1428.45 798.222 1451.74 750.741 1461.62 708.188C1471.51 665.637 1467.99 628.055 1449.11 598.309C1430.22 568.564 1397.7 549.395 1354.99 540.244C1312.27 531.094 1259.39 531.974 1199.87 542.298C1080.82 562.947 935.299 621.355 791.526 712.645Z" stroke="url(#paint7_linear_259_3667)" stroke-opacity="0.3"/>
<path d="M787.775 715.071C645.618 808.856 532.741 917.704 465.156 1017.85C431.363 1067.93 408.908 1115.81 399.764 1158.53C390.621 1201.25 394.794 1238.76 414.197 1268.17C433.601 1297.58 466.447 1316.18 509.316 1324.59C552.186 1332.99 605.04 1331.19 664.374 1319.83C783.039 1297.1 927.523 1236.16 1069.68 1142.38C1211.84 1048.59 1324.72 939.746 1392.3 839.595C1426.09 789.519 1448.55 741.639 1457.69 698.92C1466.84 656.203 1462.66 618.688 1443.26 589.276C1423.86 559.865 1391.01 541.266 1348.14 532.863C1305.27 524.459 1252.42 526.262 1193.08 537.624C1074.42 560.347 929.933 621.286 787.775 715.071Z" stroke="url(#paint8_linear_259_3667)" stroke-opacity="0.3"/>
<path d="M784.07 717.566C643.571 813.818 532.611 924.619 466.784 1025.93C433.87 1076.59 412.254 1124.86 403.857 1167.73C395.461 1210.6 400.288 1248.04 420.202 1277.1C440.116 1306.17 473.282 1324.2 516.29 1331.85C559.301 1339.5 612.115 1336.78 671.242 1324.38C789.493 1299.59 932.891 1236.14 1073.39 1139.89C1213.89 1043.64 1324.85 932.836 1390.68 831.521C1423.59 780.863 1445.21 732.598 1453.6 689.726C1462 646.856 1457.17 609.419 1437.26 580.351C1417.34 551.283 1384.18 533.26 1341.17 525.606C1298.16 517.952 1245.34 520.677 1186.22 533.073C1067.97 557.864 924.569 621.315 784.07 717.566Z" stroke="url(#paint9_linear_259_3667)" stroke-opacity="0.3"/>
<path d="M780.405 720.124C641.607 818.813 532.597 931.534 468.549 1033.98C436.524 1085.21 415.753 1133.84 408.106 1176.85C400.459 1219.86 405.939 1257.21 426.357 1285.93C446.775 1314.64 480.251 1332.08 523.386 1338.99C566.524 1345.89 619.283 1342.24 678.184 1328.82C795.984 1301.97 938.253 1236.02 1077.05 1137.33C1215.85 1038.64 1324.86 925.923 1388.91 823.475C1420.93 772.249 1441.7 723.615 1449.35 680.602C1457 637.593 1451.52 600.246 1431.1 571.53C1410.68 542.813 1377.21 525.372 1334.07 518.47C1290.93 511.567 1238.17 515.214 1179.27 528.639C1061.47 555.49 919.203 621.434 780.405 720.124Z" stroke="url(#paint10_linear_259_3667)" stroke-opacity="0.3"/>
<path d="M776.786 722.744C639.731 823.84 532.706 938.447 470.455 1042C439.329 1093.77 419.41 1142.76 412.515 1185.9C405.62 1229.04 411.751 1266.28 432.667 1294.64C453.583 1323 487.358 1339.85 530.607 1346C573.859 1352.15 626.546 1347.58 685.204 1333.13C802.517 1304.23 943.614 1235.81 1080.67 1134.71C1217.72 1033.62 1324.75 919.01 1387 815.459C1418.13 763.683 1438.04 714.693 1444.94 671.554C1451.83 628.417 1445.7 591.172 1424.79 562.816C1403.87 534.461 1370.1 517.606 1326.85 511.458C1283.59 505.309 1230.91 509.876 1172.25 524.328C1054.94 553.231 913.84 621.647 776.786 722.744Z" stroke="url(#paint11_linear_259_3667)" stroke-opacity="0.3"/>
<path d="M773.215 725.427C637.946 828.9 532.937 945.357 472.503 1049.98C442.285 1102.29 423.224 1151.62 417.083 1194.87C410.942 1238.12 417.722 1275.26 439.13 1303.24C460.537 1331.23 494.601 1347.49 537.951 1352.88C581.304 1358.28 633.903 1352.79 692.3 1337.32C809.091 1306.37 948.972 1235.5 1084.24 1132.03C1219.51 1028.56 1324.52 912.1 1384.95 807.479C1415.17 755.167 1434.23 705.837 1440.37 662.584C1446.51 619.334 1439.73 582.201 1418.33 554.215C1396.92 526.229 1362.86 509.966 1319.51 504.574C1276.15 499.181 1223.55 504.666 1165.16 520.139C1048.37 551.085 908.485 621.954 773.215 725.427Z" stroke="url(#paint12_linear_259_3667)" stroke-opacity="0.3"/>
<path d="M769.692 728.171C636.249 833.989 533.288 952.261 474.689 1057.92C445.389 1110.75 427.192 1160.41 421.807 1203.76C416.421 1247.11 423.848 1284.12 445.741 1311.73C467.634 1339.34 501.977 1355 545.414 1359.64C588.855 1364.27 641.35 1357.87 699.468 1341.38C815.701 1308.4 954.324 1235.1 1087.77 1129.28C1221.21 1023.47 1324.17 905.194 1382.77 799.534C1412.07 746.703 1430.27 697.048 1435.65 653.694C1441.04 610.343 1433.61 573.334 1411.72 545.726C1389.82 518.118 1355.48 502.452 1312.04 497.817C1268.6 493.182 1216.11 499.584 1157.99 516.074C1041.76 549.054 903.135 622.353 769.692 728.171Z" stroke="url(#paint13_linear_259_3667)" stroke-opacity="0.3"/>
<path d="M766.215 730.981C634.639 839.112 533.759 959.162 477.012 1065.83C448.639 1119.16 431.311 1169.13 426.683 1212.57C422.055 1256.01 430.127 1292.88 452.498 1320.1C474.87 1347.32 509.481 1362.39 552.993 1366.27C596.507 1370.14 648.883 1362.82 706.704 1345.32C822.344 1310.32 959.666 1234.61 1091.24 1126.48C1222.82 1018.35 1323.7 898.3 1380.44 791.633C1408.82 738.299 1426.15 688.334 1430.77 644.893C1435.4 601.455 1427.33 564.581 1404.96 537.359C1382.59 510.137 1347.98 495.073 1304.46 491.197C1260.95 487.32 1208.57 494.638 1150.75 512.14C1035.11 547.143 897.791 622.85 766.215 730.981Z" stroke="url(#paint14_linear_259_3667)" stroke-opacity="0.3"/>
<path d="M762.789 733.843C633.121 844.253 534.351 966.046 479.475 1073.69C452.036 1127.51 435.583 1177.77 431.714 1221.28C427.845 1264.8 436.559 1301.52 459.402 1328.35C482.245 1355.18 517.114 1369.64 560.686 1372.75C604.262 1375.87 656.502 1367.64 714.009 1349.13C829.02 1312.11 965.001 1234.02 1094.67 1123.61C1224.34 1013.2 1323.11 891.407 1377.98 783.766C1405.42 729.945 1421.88 679.685 1425.74 636.17C1429.61 592.657 1420.9 555.93 1398.06 529.103C1375.21 502.275 1340.34 487.818 1296.77 484.702C1253.2 481.585 1200.96 489.816 1143.45 508.324C1028.44 545.34 892.458 623.432 762.789 733.843Z" stroke="url(#paint15_linear_259_3667)" stroke-opacity="0.3"/>
<path d="M759.413 736.77C631.691 849.427 535.061 972.925 482.072 1081.51C455.577 1135.8 440.004 1186.34 436.895 1229.91C433.785 1273.49 443.139 1310.06 466.447 1336.48C489.755 1362.91 524.87 1376.75 568.491 1379.11C612.114 1381.46 664.203 1372.32 721.378 1352.81C835.726 1313.8 970.322 1233.34 1098.04 1120.69C1225.77 1008.03 1322.4 884.531 1375.38 775.949C1401.88 721.658 1417.45 671.118 1420.56 627.542C1423.67 583.969 1414.32 547.399 1391.01 520.975C1367.7 494.55 1332.59 480.703 1288.97 478.348C1245.34 475.992 1193.25 485.133 1136.08 504.642C1021.73 543.66 887.135 624.114 759.413 736.77Z" stroke="url(#paint16_linear_259_3667)" stroke-opacity="0.3"/>
<path d="M756.089 739.757C630.352 854.626 535.893 979.791 484.807 1089.28C459.263 1144.03 444.575 1194.83 442.226 1238.45C439.878 1282.08 449.869 1318.48 473.634 1344.49C497.4 1370.5 532.751 1383.74 576.406 1385.33C620.064 1386.92 671.985 1376.87 728.811 1356.37C842.461 1315.36 975.633 1232.57 1101.37 1117.7C1227.11 1002.84 1321.56 877.67 1372.65 768.18C1398.19 713.434 1412.88 662.63 1415.23 619.007C1417.58 575.385 1407.59 538.985 1383.82 512.971C1360.06 486.957 1324.71 473.725 1281.05 472.132C1237.39 470.538 1185.47 480.587 1128.65 501.09C1015 542.098 881.825 624.888 756.089 739.757Z" stroke="url(#paint17_linear_259_3667)" stroke-opacity="0.3"/>
<path d="M752.817 742.796C629.105 859.842 536.844 986.637 487.677 1097C463.093 1152.19 449.293 1203.24 447.706 1246.9C446.12 1290.55 456.744 1326.77 480.96 1352.37C505.176 1377.96 540.753 1390.57 584.429 1391.41C628.108 1392.24 679.846 1381.28 736.305 1359.79C849.222 1316.81 980.929 1231.71 1104.64 1114.66C1228.35 997.615 1320.61 870.819 1369.78 760.455C1394.37 705.271 1408.17 654.219 1409.75 610.561C1411.34 566.905 1400.71 530.685 1376.5 505.09C1352.28 479.494 1316.71 466.882 1273.03 466.05C1229.35 465.218 1177.61 476.172 1121.15 497.664C1008.24 540.649 876.53 625.751 752.817 742.796Z" stroke="url(#paint18_linear_259_3667)" stroke-opacity="0.3"/>
<path d="M749.598 745.894C627.947 865.081 537.914 993.467 490.68 1104.67C467.063 1160.28 454.156 1211.56 453.331 1255.24C452.507 1298.92 463.762 1334.95 488.421 1360.12C513.08 1385.29 548.872 1397.28 592.556 1397.34C636.242 1397.41 687.781 1385.56 743.857 1363.08C856.006 1318.14 986.208 1230.75 1107.86 1111.56C1229.51 992.375 1319.54 863.988 1366.78 752.782C1390.39 697.178 1403.3 645.893 1404.13 602.214C1404.95 558.537 1393.69 522.508 1369.04 497.339C1344.38 472.17 1308.59 460.18 1264.9 460.111C1221.21 460.042 1169.68 471.897 1113.6 494.371C1001.45 539.32 871.249 626.708 749.598 745.894Z" stroke="url(#paint19_linear_259_3667)" stroke-opacity="0.3"/>
<path d="M746.435 749.05C626.883 870.342 539.104 1000.28 493.818 1112.29C471.175 1168.3 459.165 1219.8 459.103 1263.49C459.041 1307.18 470.923 1343 496.017 1367.74C521.112 1392.47 557.107 1403.84 600.786 1403.14C644.467 1402.45 695.791 1389.7 751.466 1366.25C862.814 1319.35 991.47 1229.7 1111.02 1108.41C1230.57 987.117 1318.35 857.18 1363.64 745.166C1386.28 689.158 1398.29 637.655 1398.35 593.969C1398.42 550.285 1386.53 514.457 1361.44 489.722C1336.35 464.988 1300.35 453.624 1256.67 454.317C1212.99 455.011 1161.67 467.763 1105.99 491.213C994.644 538.112 865.988 627.759 746.435 749.05Z" stroke="url(#paint20_linear_259_3667)" stroke-opacity="0.3"/>
<path d="M743.328 752.258C625.911 875.618 540.412 1007.07 497.089 1119.85C475.426 1176.25 464.317 1227.95 465.017 1271.64C465.718 1315.31 478.223 1350.93 503.745 1375.22C529.268 1399.51 565.456 1410.25 609.116 1408.79C652.779 1407.34 703.872 1393.69 759.13 1369.27C869.642 1320.44 996.714 1228.56 1114.13 1105.2C1231.55 981.84 1317.05 850.39 1360.37 737.603C1382.03 681.208 1393.14 629.504 1392.44 585.823C1391.74 542.144 1379.24 506.529 1353.71 482.236C1328.19 457.944 1292 447.21 1248.34 448.665C1204.68 450.121 1153.59 463.767 1098.33 488.185C987.817 537.02 860.745 628.899 743.328 752.258Z" stroke="url(#paint21_linear_259_3667)" stroke-opacity="0.3"/>
<path d="M740.276 755.518C625.029 880.908 541.838 1013.83 500.489 1127.36C479.814 1184.12 469.609 1236.01 471.072 1279.67C472.534 1323.33 485.66 1358.72 511.602 1382.57C537.544 1406.41 573.915 1416.51 617.543 1414.29C661.173 1412.08 712.021 1397.54 766.843 1372.16C876.486 1321.41 1001.94 1227.32 1117.18 1101.93C1232.43 976.544 1315.62 843.622 1356.97 730.096C1377.64 673.332 1387.85 621.441 1386.39 577.779C1384.92 534.119 1371.8 498.728 1345.86 474.884C1319.91 451.041 1283.54 440.941 1239.92 443.158C1196.28 445.375 1145.44 459.91 1090.61 485.289C980.971 536.045 855.522 630.128 740.276 755.518Z" stroke="url(#paint22_linear_259_3667)" stroke-opacity="0.3"/>
<path d="M737.282 758.835C624.241 886.217 543.383 1020.57 504.021 1134.8C484.34 1191.92 475.043 1243.98 477.267 1287.61C479.491 1331.24 493.232 1366.39 519.586 1389.78C545.941 1413.17 582.482 1422.63 626.065 1419.65C669.65 1416.67 720.236 1401.25 774.607 1374.92C883.348 1322.26 1007.14 1226 1120.18 1098.62C1233.22 971.237 1314.08 836.884 1353.44 722.654C1373.12 665.537 1382.42 613.477 1380.19 569.847C1377.97 526.219 1364.23 491.062 1337.87 467.675C1311.52 444.288 1274.98 434.824 1231.39 437.802C1187.81 440.78 1137.22 456.201 1082.85 482.533C974.11 535.195 850.322 631.452 737.282 758.835Z" stroke="url(#paint23_linear_259_3667)" stroke-opacity="0.3"/>
<path d="M734.346 762.202C623.545 891.538 545.044 1027.28 507.682 1142.18C489.001 1199.63 480.613 1251.85 483.599 1295.43C486.584 1339.01 500.936 1373.93 527.695 1396.85C554.454 1419.77 591.154 1428.6 634.678 1424.86C678.205 1421.12 728.514 1404.82 782.418 1377.54C890.223 1322.99 1012.31 1224.59 1123.11 1095.25C1233.91 965.917 1312.41 830.173 1349.78 715.273C1368.46 657.822 1376.84 605.607 1373.86 562.023C1370.87 518.44 1356.52 483.529 1329.76 460.605C1303 437.681 1266.3 428.857 1222.78 432.595C1179.25 436.333 1128.94 452.635 1075.04 479.911C967.235 534.463 845.146 632.866 734.346 762.202Z" stroke="url(#paint24_linear_259_3667)" stroke-opacity="0.3"/>
<path d="M731.469 765.62C622.943 896.87 546.822 1033.96 511.472 1149.5C493.796 1207.27 486.321 1259.62 490.066 1303.15C493.812 1346.67 508.771 1381.33 535.926 1403.78C563.08 1426.23 599.93 1434.41 643.382 1429.92C686.836 1425.42 736.854 1408.24 790.273 1380.03C897.109 1323.6 1017.46 1223.09 1125.99 1091.84C1234.52 960.586 1310.64 823.492 1345.99 707.958C1363.66 650.19 1371.14 597.836 1367.39 554.31C1363.65 510.787 1348.69 476.131 1321.53 453.678C1294.38 431.225 1257.53 423.042 1214.08 427.539C1170.62 432.037 1120.6 449.214 1067.19 477.427C960.348 533.852 839.995 634.371 731.469 765.62Z" stroke="url(#paint25_linear_259_3667)" stroke-opacity="0.3"/>
<path d="M728.65 769.089C622.432 902.213 548.715 1040.61 515.386 1156.75C498.721 1214.82 492.161 1267.29 496.666 1310.75C501.17 1354.2 516.732 1388.59 544.275 1410.56C571.817 1432.54 608.803 1440.08 652.17 1434.82C695.54 1429.57 745.25 1411.52 798.168 1382.38C904.004 1324.1 1022.58 1221.49 1128.8 1088.37C1235.02 955.245 1308.74 816.844 1342.07 700.71C1358.73 642.642 1365.29 590.166 1360.79 546.713C1356.28 503.261 1340.72 468.872 1313.18 446.896C1285.64 424.92 1248.65 417.381 1205.28 422.636C1161.91 427.892 1112.2 445.939 1059.29 475.08C953.45 533.361 834.869 635.965 728.65 769.089Z" stroke="url(#paint26_linear_259_3667)" stroke-opacity="0.3"/>
<path d="M725.896 772.604C622.016 907.561 550.727 1047.23 519.43 1163.93C503.781 1222.28 498.137 1274.86 503.4 1318.23C508.662 1361.59 524.821 1395.71 552.743 1417.2C580.665 1438.69 617.777 1445.58 661.046 1439.57C704.317 1433.56 753.704 1414.65 806.106 1384.59C910.909 1324.47 1027.68 1219.81 1131.56 1084.85C1235.44 949.894 1306.73 810.228 1338.03 693.53C1353.68 635.18 1359.32 582.598 1354.06 539.229C1348.79 495.863 1332.63 461.75 1304.71 440.258C1276.79 418.766 1239.68 411.874 1196.41 417.885C1153.14 423.897 1103.75 442.809 1051.35 472.869C946.547 532.988 829.775 637.646 725.896 772.604Z" stroke="url(#paint27_linear_259_3667)" stroke-opacity="0.3"/>
<path d="M723.203 776.168C621.695 912.918 552.854 1053.81 523.598 1171.03C508.97 1229.65 504.245 1282.32 510.263 1325.59C516.281 1368.86 533.034 1402.68 561.327 1423.69C589.619 1444.69 626.846 1450.93 670.003 1444.16C713.163 1437.4 762.213 1417.63 814.082 1386.66C917.819 1324.72 1032.75 1218.04 1134.26 1081.29C1235.76 944.539 1304.6 803.649 1333.86 686.423C1348.49 627.809 1353.21 575.136 1347.2 531.866C1341.18 488.598 1324.42 454.773 1296.13 433.772C1267.84 412.77 1230.61 406.527 1187.46 413.292C1144.3 420.058 1095.25 439.829 1043.38 470.799C939.639 532.738 824.711 639.418 723.203 776.168Z" stroke="url(#paint28_linear_259_3667)" stroke-opacity="0.3"/>
<path d="M720.572 779.777C621.466 918.277 555.094 1060.35 527.889 1178.07C514.286 1236.93 510.481 1289.67 517.254 1332.83C524.026 1375.99 541.367 1409.52 570.021 1430.02C598.676 1450.52 636.006 1456.12 679.039 1448.6C722.074 1441.08 770.771 1420.46 822.092 1388.59C924.732 1324.85 1037.78 1216.18 1136.89 1077.68C1235.99 939.176 1302.37 797.107 1329.57 679.388C1343.17 620.527 1346.98 567.78 1340.21 524.621C1333.43 481.465 1316.09 447.937 1287.44 427.433C1258.78 406.929 1221.45 401.336 1178.42 408.854C1135.39 416.371 1086.69 436.996 1035.37 468.866C932.727 532.606 819.678 641.276 720.572 779.777Z" stroke="url(#paint29_linear_259_3667)" stroke-opacity="0.3"/>
<path d="M718.004 783.432C621.33 923.641 557.447 1066.85 532.301 1185.02C519.727 1244.11 516.843 1296.92 524.368 1339.95C531.893 1382.98 549.816 1416.2 578.824 1436.2C607.832 1456.21 645.254 1461.15 688.149 1452.88C731.046 1444.61 779.376 1423.14 830.133 1390.38C931.646 1324.86 1042.78 1214.23 1139.45 1074.02C1236.13 933.812 1300.01 790.606 1325.16 672.43C1337.73 613.341 1340.61 560.536 1333.09 517.502C1325.57 474.47 1307.64 441.25 1278.63 421.249C1249.63 401.248 1212.2 396.308 1169.31 404.575C1126.41 412.843 1078.08 434.314 1027.32 467.075C925.812 532.597 814.678 643.223 718.004 783.432Z" stroke="url(#paint30_linear_259_3667)" stroke-opacity="0.3"/>
<path d="M715.499 787.129C621.287 929.004 559.913 1073.3 536.833 1191.9C525.292 1251.2 523.33 1304.05 531.605 1346.94C539.88 1389.84 558.38 1422.74 587.733 1442.23C617.085 1461.72 654.588 1466.01 697.332 1456.99C740.078 1447.98 788.026 1425.67 838.204 1392.03C938.557 1324.74 1047.74 1212.19 1141.96 1070.32C1236.17 928.444 1297.54 784.144 1320.62 665.548C1332.16 606.248 1334.12 553.4 1325.85 510.505C1317.58 467.611 1299.08 434.709 1269.72 415.217C1240.37 395.725 1202.87 391.439 1160.12 400.453C1117.38 409.469 1069.43 431.78 1019.25 465.422C918.898 532.705 809.711 645.254 715.499 787.129Z" stroke="url(#paint31_linear_259_3667)" stroke-opacity="0.3"/>
<path d="M713.06 790.877C621.338 934.375 562.492 1079.72 541.485 1198.7C530.981 1258.2 529.942 1311.07 538.964 1353.82C547.986 1396.56 567.058 1429.13 596.746 1448.11C626.435 1467.09 664.006 1470.72 706.586 1460.96C749.169 1451.2 796.72 1428.05 846.303 1393.54C945.467 1324.52 1052.67 1210.08 1144.39 1066.58C1236.12 923.083 1294.96 777.735 1315.97 658.753C1326.47 599.262 1327.51 546.387 1318.49 503.642C1309.47 460.9 1290.4 428.325 1260.71 409.349C1231.02 390.372 1193.45 386.741 1150.87 396.5C1108.29 406.26 1060.73 429.405 1011.15 463.918C911.988 532.942 804.781 647.379 713.06 790.877Z" stroke="url(#paint32_linear_259_3667)" stroke-opacity="0.3"/>
<path d="M710.689 794.66C621.486 939.736 565.186 1086.09 546.258 1205.42C536.795 1265.09 536.678 1317.97 546.445 1360.55C556.211 1403.13 575.848 1435.37 605.864 1453.82C635.879 1472.28 673.508 1475.25 715.912 1464.75C758.317 1454.25 805.457 1430.28 854.43 1394.91C952.374 1324.16 1057.57 1207.87 1146.77 1062.79C1235.97 917.718 1292.27 771.364 1311.2 652.034C1320.66 592.368 1320.78 539.484 1311.01 496.903C1301.25 454.324 1281.61 422.088 1251.6 403.632C1221.58 385.177 1183.95 382.202 1141.55 392.703C1099.14 403.204 1052 427.175 1003.03 462.548C905.085 533.293 799.893 649.583 710.689 794.66Z" stroke="url(#paint33_linear_259_3667)" stroke-opacity="0.3"/>
<path d="M708.382 798.486C621.724 945.097 567.987 1092.41 551.145 1212.05C542.724 1271.87 543.531 1324.75 554.039 1367.16C564.547 1409.56 584.744 1441.45 615.076 1459.38C645.409 1477.31 683.085 1479.62 725.298 1468.38C767.514 1457.14 814.229 1432.35 862.577 1396.13C959.271 1323.69 1062.42 1205.58 1149.08 1058.97C1235.73 912.357 1289.47 765.043 1306.31 645.401C1314.73 585.579 1313.93 532.701 1303.42 490.297C1292.91 447.895 1272.71 416.006 1242.38 398.077C1212.05 380.148 1174.37 377.831 1132.16 389.07C1089.94 400.31 1043.23 425.1 994.882 461.322C898.187 533.766 795.04 651.874 708.382 798.486Z" stroke="url(#paint34_linear_259_3667)" stroke-opacity="0.3"/>
<path d="M706.141 802.35C622.055 950.451 570.897 1098.68 556.146 1218.6C548.77 1278.56 550.499 1331.41 561.746 1373.63C572.993 1415.84 593.743 1447.37 624.384 1464.77C655.025 1482.17 692.735 1483.83 734.746 1471.85C776.759 1459.88 823.034 1434.27 870.743 1397.21C966.158 1323.09 1067.23 1203.2 1151.31 1055.1C1235.4 907.001 1286.56 758.771 1301.31 638.854C1308.69 578.894 1306.96 526.038 1295.71 483.823C1284.46 441.612 1263.71 410.08 1233.07 392.683C1202.43 375.286 1164.72 373.627 1122.71 385.601C1080.7 397.576 1034.42 423.177 986.713 460.238C891.297 534.358 790.227 654.249 706.141 802.35Z" stroke="url(#paint35_linear_259_3667)" stroke-opacity="0.3"/>
<path d="M703.972 806.257C622.484 955.803 573.921 1104.9 561.264 1225.06C554.936 1285.14 557.588 1337.96 569.57 1379.97C581.551 1421.98 602.848 1453.14 633.788 1470C664.728 1486.86 702.462 1487.86 744.257 1475.16C786.055 1462.45 831.876 1436.05 878.931 1398.16C973.038 1322.38 1072 1200.75 1153.49 1051.2C1234.98 901.655 1283.54 752.555 1296.2 632.399C1302.52 572.319 1299.87 519.501 1287.89 477.49C1275.91 435.48 1254.61 404.316 1223.67 387.456C1192.73 370.597 1155 369.596 1113.2 382.301C1071.41 395.008 1025.58 421.413 978.53 459.301C884.423 535.074 785.461 656.711 703.972 806.257Z" stroke="url(#paint36_linear_259_3667)" stroke-opacity="0.3"/>
<path d="M701.866 810.199C623 961.144 577.046 1111.07 566.489 1231.43C561.21 1291.61 564.784 1344.37 577.497 1386.17C590.209 1427.96 612.047 1458.75 643.277 1475.07C674.506 1491.38 712.252 1491.73 753.819 1478.29C795.389 1464.86 840.742 1437.66 887.128 1398.96C979.899 1321.55 1076.72 1198.21 1155.59 1047.26C1234.46 896.315 1280.41 746.39 1290.97 626.031C1296.25 565.85 1292.67 513.086 1279.96 471.291C1267.25 429.497 1245.41 398.709 1214.18 382.392C1182.95 366.075 1145.2 365.732 1103.64 379.166C1062.07 392.6 1016.71 419.8 970.327 458.503C877.557 535.908 780.732 659.253 701.866 810.199Z" stroke="url(#paint37_linear_259_3667)" stroke-opacity="0.3"/>
<path d="M699.831 814.171C623.612 966.47 580.282 1117.17 571.827 1237.7C567.599 1297.96 572.092 1350.66 585.533 1392.22C598.973 1433.79 621.345 1464.19 652.855 1479.96C684.364 1495.73 722.109 1495.41 763.436 1481.26C804.765 1467.1 849.637 1439.11 895.34 1399.61C986.746 1320.59 1081.4 1195.58 1157.62 1043.28C1233.84 890.979 1277.17 740.276 1285.63 619.75C1289.86 559.486 1285.36 506.793 1271.92 465.226C1258.48 423.66 1236.11 393.258 1204.6 377.488C1173.09 361.719 1135.34 362.035 1094.02 376.192C1052.69 390.349 1007.82 418.337 962.114 457.844C870.708 536.856 776.051 661.872 699.831 814.171Z" stroke="url(#paint38_linear_259_3667)" stroke-opacity="0.3"/>
<path d="M697.868 818.186C624.318 971.792 583.624 1123.23 577.274 1243.88C574.099 1304.21 579.511 1356.82 593.675 1398.15C607.839 1439.47 630.738 1469.48 662.518 1484.69C694.298 1499.91 732.032 1498.94 773.105 1484.06C814.181 1469.18 858.557 1440.42 903.564 1400.12C993.577 1319.52 1086.04 1192.87 1159.59 1039.27C1233.14 885.662 1273.83 734.226 1280.18 613.571C1283.36 553.243 1277.94 500.636 1263.78 459.309C1249.62 417.985 1226.72 387.977 1194.94 372.76C1163.16 357.543 1125.42 358.518 1084.35 373.394C1043.27 388.27 998.899 417.037 953.892 457.336C863.879 537.931 771.418 664.58 697.868 818.186Z" stroke="url(#paint39_linear_259_3667)" stroke-opacity="0.3"/>
<path d="M695.976 822.236C625.118 977.102 587.074 1129.23 582.83 1249.97C580.708 1310.35 587.038 1362.85 601.921 1403.92C616.804 1445 640.223 1474.6 672.264 1489.26C704.304 1503.92 742.016 1502.29 782.823 1486.7C823.633 1471.1 867.5 1441.57 911.797 1400.49C1000.39 1318.34 1090.63 1190.09 1161.48 1035.23C1232.34 880.36 1270.39 728.236 1274.63 607.489C1276.75 547.114 1270.42 494.61 1255.54 453.537C1240.66 412.466 1217.24 382.863 1185.2 368.203C1153.16 353.543 1115.44 355.176 1074.64 370.766C1033.83 386.357 989.96 415.894 945.663 456.972C857.071 539.126 766.834 667.369 695.976 822.236Z" stroke="url(#paint40_linear_259_3667)" stroke-opacity="0.3"/>
<path d="M694.152 826.31C626.007 982.389 590.624 1135.15 588.488 1255.96C587.42 1316.36 594.665 1368.74 610.263 1409.55C625.86 1450.36 649.792 1479.55 682.084 1493.65C714.376 1507.74 752.053 1505.45 792.582 1489.15C833.114 1472.85 876.459 1442.55 920.032 1400.71C1007.18 1317.02 1095.16 1187.22 1163.31 1031.14C1231.45 875.065 1266.83 722.3 1268.97 601.497C1270.04 541.095 1262.79 488.709 1247.2 447.902C1231.6 407.097 1207.67 377.907 1175.37 363.808C1143.08 349.709 1105.41 352.001 1064.88 368.301C1024.34 384.602 980.999 414.9 937.426 456.744C850.281 540.432 762.296 670.231 694.152 826.31Z" stroke="url(#paint41_linear_259_3667)" stroke-opacity="0.3"/>
<path d="M692.399 830.417C626.989 987.662 594.277 1141.02 594.25 1261.84C594.237 1322.25 602.395 1374.51 618.702 1415.03C635.009 1455.56 659.447 1484.33 691.98 1497.86C724.513 1511.39 762.144 1508.45 802.383 1491.44C842.624 1474.44 885.433 1443.39 928.27 1400.79C1013.94 1315.59 1099.65 1184.28 1165.06 1027.03C1230.47 869.787 1263.18 716.428 1263.21 595.607C1263.22 535.195 1255.06 482.943 1238.75 442.415C1222.45 401.888 1198.01 373.12 1165.48 359.587C1132.94 346.054 1095.31 349.003 1055.07 366.008C1014.83 383.014 972.023 414.064 929.187 456.662C843.515 541.858 757.81 673.172 692.399 830.417Z" stroke="url(#paint42_linear_259_3667)" stroke-opacity="0.3"/>
<path d="M690.719 834.557C628.063 992.92 598.032 1146.83 600.114 1267.63C601.155 1328.03 610.223 1380.13 627.236 1420.37C644.247 1460.61 669.184 1488.94 701.948 1501.91C734.712 1514.87 772.286 1511.27 812.222 1493.56C852.16 1475.86 894.421 1444.06 936.508 1400.72C1020.68 1314.05 1104.08 1181.26 1166.74 1022.89C1229.39 864.531 1259.42 710.624 1257.34 589.821C1256.3 529.418 1247.23 477.317 1230.22 437.079C1213.21 396.843 1188.27 368.506 1155.51 355.543C1122.74 342.58 1085.17 346.184 1045.23 363.889C1005.29 381.595 963.034 413.387 920.947 456.727C836.776 543.404 753.375 676.195 690.719 834.557Z" stroke="url(#paint43_linear_259_3667)" stroke-opacity="0.3"/>
<path d="M689.112 838.729C629.229 998.161 601.889 1152.57 606.079 1273.32C608.173 1333.69 618.15 1385.63 635.862 1425.56C653.574 1465.49 679.001 1493.39 711.986 1505.78C744.971 1518.17 782.477 1513.91 822.098 1495.51C861.72 1477.11 903.42 1444.59 944.744 1400.52C1027.39 1312.39 1108.46 1178.16 1168.34 1018.73C1228.23 859.296 1255.57 704.889 1251.38 584.14C1249.28 523.765 1239.3 471.83 1221.59 431.895C1203.88 391.962 1178.45 364.065 1145.47 351.675C1112.48 339.286 1074.98 343.546 1035.36 361.945C995.735 380.345 954.035 412.87 912.711 456.938C830.065 545.071 748.994 679.297 689.112 838.729Z" stroke="url(#paint44_linear_259_3667)" stroke-opacity="0.3"/>
<path d="M687.58 842.923C630.489 1003.38 605.848 1158.24 612.145 1278.89C615.293 1339.22 626.174 1390.98 644.581 1430.6C662.986 1470.21 688.897 1497.66 722.093 1509.48C755.289 1521.29 792.715 1516.37 832.008 1497.29C871.304 1478.2 912.43 1444.95 952.978 1400.17C1034.07 1310.6 1112.79 1174.98 1169.88 1014.53C1226.97 854.079 1251.61 699.218 1245.32 578.561C1242.17 518.231 1231.29 466.478 1212.88 426.859C1194.47 387.241 1168.56 359.791 1135.37 347.98C1102.17 336.168 1064.75 341.082 1025.45 360.169C986.156 379.258 945.031 412.506 904.482 457.288C823.387 546.85 744.671 682.471 687.58 842.923Z" stroke="url(#paint45_linear_259_3667)" stroke-opacity="0.3"/>
<path d="M686.12 847.144C631.838 1008.57 609.903 1163.84 618.305 1284.36C622.505 1344.63 634.288 1396.19 653.383 1435.48C672.477 1474.77 698.863 1501.76 732.26 1512.99C765.658 1524.22 802.992 1518.66 841.946 1498.89C880.903 1479.11 921.442 1445.15 961.203 1399.67C1040.72 1308.71 1117.06 1171.73 1171.34 1010.31C1225.62 848.884 1247.56 693.617 1239.16 573.088C1234.96 512.822 1223.17 461.267 1204.08 421.975C1184.98 382.684 1158.6 355.691 1125.2 344.461C1091.8 333.23 1054.47 338.796 1015.52 358.567C976.559 378.338 936.019 412.299 896.259 457.782C816.739 548.746 740.402 685.719 686.12 847.144Z" stroke="url(#paint46_linear_259_3667)" stroke-opacity="0.3"/>
<path d="M684.731 851.39C633.274 1013.74 614.053 1169.36 624.556 1289.73C629.808 1349.91 642.489 1401.25 662.267 1440.21C682.044 1479.16 708.897 1505.69 742.485 1516.33C776.073 1526.98 813.305 1520.76 851.908 1500.31C890.514 1479.87 930.454 1445.2 969.415 1399.03C1047.33 1306.69 1121.27 1168.41 1172.73 1006.06C1224.18 843.715 1243.4 688.088 1232.9 567.724C1227.65 507.541 1214.97 456.199 1195.19 417.246C1175.41 378.295 1148.56 351.766 1114.97 341.121C1081.38 330.475 1044.15 336.691 1005.55 357.139C966.944 377.587 927.003 412.25 888.042 458.42C810.122 550.758 736.188 689.043 684.731 851.39Z" stroke="url(#paint47_linear_259_3667)" stroke-opacity="0.3"/>
<path d="M683.419 855.663C634.803 1018.88 618.301 1174.82 630.903 1294.98C637.205 1355.07 650.78 1406.18 671.234 1444.78C691.688 1483.38 719 1509.44 752.769 1519.5C786.538 1529.55 823.655 1522.69 861.896 1501.57C900.138 1480.45 939.468 1445.1 977.617 1398.25C1053.91 1304.57 1125.42 1165.02 1174.04 1001.79C1222.65 838.574 1239.16 682.636 1226.55 562.473C1220.25 502.391 1206.68 451.278 1186.22 412.676C1165.77 374.076 1138.46 348.02 1104.69 337.962C1070.92 327.904 1033.8 334.77 995.562 355.888C957.319 377.007 917.99 412.361 879.841 459.204C803.544 552.888 732.034 692.442 683.419 855.663Z" stroke="url(#paint48_linear_259_3667)" stroke-opacity="0.3"/>
<path d="M682.183 859.954C636.423 1024 622.645 1180.2 637.342 1300.13C644.691 1360.09 659.156 1410.96 680.282 1449.2C701.406 1487.43 729.168 1513.01 763.107 1522.48C797.047 1531.94 834.039 1524.43 871.905 1502.65C909.773 1480.86 948.48 1444.83 985.806 1397.33C1060.46 1302.33 1129.52 1161.55 1175.28 997.501C1221.04 833.457 1234.82 677.254 1220.12 557.33C1212.77 497.367 1198.3 446.499 1177.18 408.26C1156.06 370.023 1128.29 344.447 1094.35 334.98C1060.41 325.513 1023.42 333.025 985.556 354.807C947.688 376.591 908.981 412.626 871.656 460.128C797.006 555.129 727.942 695.91 682.183 859.954Z" stroke="url(#paint49_linear_259_3667)" stroke-opacity="0.3"/>
<path d="M681.019 864.267C638.129 1029.08 627.079 1185.5 643.867 1305.15C652.261 1364.98 667.612 1415.59 689.402 1453.45C711.19 1491.31 739.394 1516.4 773.494 1525.27C807.593 1534.15 844.448 1525.99 881.928 1503.55C919.411 1481.11 957.483 1444.4 993.974 1396.26C1066.95 1299.97 1133.55 1158 1176.44 993.187C1219.33 828.369 1230.38 671.95 1213.59 552.3C1205.2 492.475 1189.85 441.867 1168.06 404.002C1146.27 366.139 1118.06 341.053 1083.96 332.179C1049.87 323.306 1013.01 331.463 975.53 353.902C938.047 376.343 899.976 413.049 863.485 461.195C790.504 557.484 723.908 699.449 681.019 864.267Z" stroke="url(#paint50_linear_259_3667)" stroke-opacity="0.3"/>
<path d="M679.932 868.601C639.925 1034.14 631.607 1190.73 650.481 1310.07C659.918 1369.74 676.149 1420.07 698.596 1457.55C721.042 1495.03 749.68 1519.62 783.929 1527.89C818.178 1536.17 854.885 1527.37 891.968 1504.28C929.053 1481.19 966.478 1443.83 1002.12 1395.05C1073.41 1297.5 1137.52 1154.4 1177.53 988.855C1217.53 823.313 1225.85 666.725 1206.98 547.387C1197.54 487.717 1181.31 437.385 1158.86 399.906C1136.42 362.43 1107.78 337.839 1073.53 329.562C1039.28 321.285 1002.57 330.084 965.491 353.174C928.406 376.266 890.981 413.63 855.336 462.405C784.047 559.954 719.938 703.059 679.932 868.601Z" stroke="url(#paint51_linear_259_3667)" stroke-opacity="0.3"/>
<path d="M678.92 872.951C641.808 1039.16 636.224 1195.87 657.178 1314.86C667.655 1374.36 684.762 1424.4 707.86 1461.48C730.956 1498.56 760.019 1522.65 794.407 1530.33C828.796 1538.01 865.343 1528.57 902.018 1504.83C938.694 1481.1 975.462 1443.09 1010.25 1393.7C1079.83 1294.92 1141.43 1150.72 1178.54 984.502C1215.65 818.288 1221.23 661.579 1200.28 542.588C1189.8 483.091 1172.7 433.05 1149.6 395.969C1126.5 358.89 1097.44 334.803 1063.05 327.125C1028.66 319.447 992.115 328.885 955.44 352.619C918.764 376.354 881.996 414.366 847.208 463.756C777.632 562.534 716.031 706.736 678.92 872.951Z" stroke="url(#paint52_linear_259_3667)" stroke-opacity="0.3"/>
<path d="M677.986 877.321C643.781 1044.16 640.932 1200.94 663.959 1319.55C675.473 1378.85 693.451 1428.59 717.193 1465.26C740.933 1501.93 770.411 1525.51 804.928 1532.58C839.446 1539.66 875.823 1529.59 912.078 1505.22C948.334 1480.84 984.433 1442.2 1018.35 1392.21C1086.2 1292.23 1145.27 1146.97 1179.48 980.136C1213.68 813.3 1216.53 656.517 1193.5 537.91C1181.99 478.605 1164.01 428.87 1140.27 392.198C1116.53 355.527 1087.05 331.951 1052.53 324.874C1018.01 317.798 981.637 327.872 945.383 352.243C909.126 376.615 873.028 415.263 839.107 465.252C771.265 565.229 712.19 710.485 677.986 877.321Z" stroke="url(#paint53_linear_259_3667)" stroke-opacity="0.3"/>
<path d="M677.125 881.701C645.837 1049.11 645.725 1205.92 670.819 1324.11C683.366 1383.2 702.209 1432.61 726.587 1468.87C750.964 1505.12 780.849 1528.17 815.484 1534.65C850.12 1541.12 886.316 1530.41 922.14 1505.41C957.966 1480.41 993.384 1441.14 1026.43 1390.57C1092.51 1289.42 1149.04 1143.16 1180.33 975.748C1211.62 808.34 1211.73 651.531 1186.64 533.345C1174.09 474.25 1155.25 424.836 1130.87 388.584C1106.49 352.333 1076.61 329.275 1041.97 322.802C1007.34 316.329 971.141 327.036 935.318 352.036C899.492 377.037 864.074 416.309 831.03 466.883C764.944 568.029 708.413 714.293 677.125 881.701Z" stroke="url(#paint54_linear_259_3667)" stroke-opacity="0.3"/>
<path d="M676.343 886.101C647.982 1054.03 650.606 1210.82 677.759 1328.55C691.335 1387.41 711.038 1436.49 736.045 1472.31C761.05 1508.13 791.334 1530.67 826.077 1536.53C860.82 1542.4 896.824 1531.06 932.206 1505.44C967.59 1479.82 1002.32 1439.94 1034.47 1388.79C1098.78 1286.51 1152.75 1139.28 1181.12 971.352C1209.48 803.423 1206.85 646.636 1179.7 528.905C1166.12 470.038 1146.42 420.961 1121.41 385.14C1096.41 349.32 1066.12 326.787 1031.38 320.919C996.638 315.051 960.634 326.389 925.252 352.01C889.868 377.632 855.141 417.517 822.985 468.66C758.674 570.943 704.704 718.172 676.343 886.101Z" stroke="url(#paint55_linear_259_3667)" stroke-opacity="0.3"/>
<path d="M675.639 890.515C650.212 1058.91 655.573 1215.63 684.776 1332.87C699.378 1391.49 719.934 1440.22 745.563 1475.6C771.189 1510.97 801.861 1532.98 836.701 1538.24C871.542 1543.5 907.342 1531.53 942.272 1505.3C977.203 1479.06 1011.23 1438.58 1042.49 1386.88C1105 1283.49 1156.4 1135.34 1181.82 966.944C1207.25 798.545 1201.89 641.828 1172.68 524.589C1158.08 465.968 1137.53 417.242 1111.9 381.863C1086.27 346.485 1055.6 324.484 1020.76 319.223C985.919 313.963 950.119 325.927 915.189 352.162C880.258 378.398 846.231 418.882 814.973 470.578C752.457 573.969 701.065 722.117 675.639 890.515Z" stroke="url(#paint56_linear_259_3667)" stroke-opacity="0.3"/>
<path d="M675.008 894.935C652.524 1063.75 660.619 1220.35 691.864 1337.06C707.486 1395.42 728.89 1443.78 755.132 1478.71C781.372 1513.63 812.423 1535.09 847.35 1539.75C882.277 1544.4 917.863 1531.81 952.329 1504.97C986.797 1478.13 1020.11 1437.06 1050.46 1384.82C1111.17 1280.36 1159.96 1131.33 1182.45 962.517C1204.93 793.701 1196.84 637.101 1165.59 520.39C1149.97 462.033 1128.56 413.673 1102.32 378.746C1076.08 343.821 1045.03 322.358 1010.11 317.707C975.178 313.055 939.592 325.643 905.126 352.483C870.658 379.324 837.343 420.396 806.992 472.63C746.29 577.096 697.491 726.119 675.008 894.935Z" stroke="url(#paint57_linear_259_3667)" stroke-opacity="0.3"/>
<path d="M674.46 899.373C654.926 1068.56 665.753 1224.99 699.03 1341.14C715.669 1399.21 737.913 1447.19 764.76 1481.66C791.606 1516.12 823.027 1537.04 858.03 1541.08C893.033 1545.12 928.394 1531.91 962.386 1504.47C996.381 1477.04 1028.97 1435.39 1058.41 1382.63C1117.28 1277.12 1163.47 1127.27 1183 958.089C1202.54 788.906 1191.71 632.471 1158.43 516.323C1141.79 458.247 1119.55 410.268 1092.7 375.805C1065.86 341.343 1034.44 320.425 999.433 316.384C964.43 312.343 929.069 325.549 895.076 352.987C861.082 380.426 828.489 422.073 799.054 474.829C740.185 580.338 693.994 730.19 674.46 899.373Z" stroke="url(#paint58_linear_259_3667)" stroke-opacity="0.3"/>
<path d="M673.986 903.811C657.408 1073.31 670.963 1229.53 706.262 1345.08C723.912 1402.86 746.99 1450.44 774.435 1484.43C801.878 1518.42 833.659 1538.78 868.727 1542.21C903.795 1545.64 938.92 1531.82 972.428 1503.8C1005.94 1475.77 1037.8 1433.56 1066.31 1380.3C1123.33 1273.78 1166.9 1123.14 1183.48 953.643C1200.05 784.145 1186.5 627.923 1151.2 512.373C1133.55 454.597 1110.47 407.014 1083.03 373.024C1055.58 339.036 1023.8 318.67 988.734 315.24C953.667 311.81 918.541 325.632 885.033 353.659C851.522 381.687 819.661 423.896 791.151 477.158C734.132 583.678 690.564 734.313 673.986 903.811Z" stroke="url(#paint59_linear_259_3667)" stroke-opacity="0.3"/>
<path d="M673.59 908.264C659.972 1078.03 676.252 1233.99 713.562 1348.9C732.217 1406.36 756.123 1453.54 784.156 1487.04C812.188 1520.55 844.32 1540.35 879.443 1543.17C914.565 1545.99 949.444 1531.56 982.458 1502.95C1015.47 1474.34 1046.59 1431.58 1074.17 1377.83C1129.32 1270.33 1170.25 1118.96 1183.87 949.196C1197.49 779.435 1181.21 623.473 1143.9 508.557C1125.24 451.097 1101.34 403.924 1073.3 370.418C1045.27 336.914 1013.14 317.106 978.018 314.289C942.896 311.472 908.017 325.904 875.003 354.512C841.987 383.12 810.867 425.88 783.291 479.63C728.14 587.13 687.207 738.502 673.59 908.264Z" stroke="url(#paint60_linear_259_3667)" stroke-opacity="0.3"/>
<path d="M673.27 912.717C662.618 1082.69 681.616 1238.34 720.927 1352.59C740.582 1409.72 765.307 1456.47 793.921 1489.48C822.534 1522.49 855.006 1541.73 890.172 1543.94C925.339 1546.14 959.96 1531.1 992.47 1501.92C1024.98 1472.74 1055.35 1429.44 1081.98 1375.22C1135.25 1266.77 1173.54 1114.71 1184.19 944.738C1194.84 774.764 1175.84 619.111 1136.53 504.863C1116.88 447.738 1092.15 400.989 1063.54 367.978C1034.92 334.968 1002.45 315.724 967.286 313.52C932.12 311.316 897.498 326.355 864.988 355.534C832.477 384.715 802.108 428.011 775.474 482.235C722.207 590.68 683.923 742.744 673.27 912.717Z" stroke="url(#paint61_linear_259_3667)" stroke-opacity="0.3"/>
<path d="M673.03 917.18C665.346 1087.31 687.058 1242.61 728.356 1356.16C749.006 1412.93 774.543 1459.24 803.729 1491.75C832.913 1524.25 865.717 1542.93 900.916 1544.52C936.115 1546.11 970.469 1530.47 1002.46 1500.72C1034.46 1470.98 1064.07 1427.16 1089.75 1372.48C1141.12 1263.12 1176.74 1110.41 1184.43 940.279C1192.11 770.146 1170.4 614.848 1129.1 501.303C1108.45 444.53 1082.92 398.22 1053.73 365.713C1024.55 333.208 991.743 314.533 956.544 312.943C921.345 311.353 886.991 326.994 854.995 356.736C822.998 386.48 793.389 430.299 767.706 484.979C716.34 594.338 680.715 747.047 673.03 917.18Z" stroke="url(#paint62_linear_259_3667)" stroke-opacity="0.3"/>
<path d="M672.867 921.643C668.153 1091.88 692.572 1246.78 735.846 1359.59C757.483 1415.99 783.824 1461.85 813.573 1493.84C843.32 1525.83 876.445 1543.93 911.666 1544.91C946.888 1545.88 980.964 1529.64 1012.44 1499.35C1043.91 1469.05 1072.75 1424.72 1097.47 1369.6C1146.92 1259.36 1179.88 1106.05 1184.59 935.813C1189.31 765.571 1164.89 610.675 1121.61 497.869C1099.98 441.465 1073.63 395.608 1043.89 363.615C1014.14 331.624 981.014 313.525 945.792 312.549C910.57 311.574 876.495 327.812 845.023 358.108C813.549 388.405 784.711 432.735 759.985 487.855C710.535 598.094 677.581 751.401 672.867 921.643Z" stroke="url(#paint63_linear_259_3667)" stroke-opacity="0.3"/>
<path d="M672.783 926.111C671.041 1096.41 698.16 1250.85 743.395 1362.89C766.013 1418.91 793.151 1464.3 823.454 1495.77C853.755 1527.23 887.19 1544.75 922.423 1545.11C957.657 1545.47 991.444 1528.64 1022.38 1497.8C1053.32 1466.96 1081.38 1422.13 1105.14 1366.59C1152.66 1255.5 1182.93 1101.65 1184.68 931.348C1186.42 761.05 1159.3 606.604 1114.06 494.57C1091.45 438.552 1064.31 393.161 1034.01 361.693C1003.71 330.226 970.27 312.707 935.036 312.347C899.803 311.986 866.016 328.817 835.078 359.657C804.138 390.499 776.077 435.325 752.317 490.869C704.799 601.954 674.525 755.813 672.783 926.111Z" stroke="url(#paint64_linear_259_3667)" stroke-opacity="0.3"/>
<path d="M672.775 930.576C674.005 1100.88 703.815 1254.83 750.999 1366.06C774.591 1421.67 802.517 1466.58 833.364 1497.52C864.21 1528.45 897.946 1545.38 933.18 1545.13C968.415 1544.87 1001.9 1527.45 1032.3 1496.08C1062.7 1464.7 1089.97 1419.39 1112.76 1363.44C1158.33 1251.55 1185.91 1097.18 1184.68 926.879C1183.45 756.576 1153.64 602.627 1106.46 491.4C1082.87 435.785 1054.94 390.875 1024.09 359.94C993.247 329.006 959.511 312.074 924.277 312.329C889.042 312.583 855.554 330.001 825.159 361.377C794.762 392.754 767.488 438.063 744.701 494.012C699.129 605.91 671.545 760.274 672.775 930.576Z" stroke="url(#paint65_linear_259_3667)" stroke-opacity="0.3"/>
<path d="M672.847 935.042C677.049 1105.3 709.542 1258.7 758.66 1369.09C783.219 1424.28 811.925 1468.7 843.307 1499.09C874.688 1529.48 908.714 1545.82 943.938 1544.95C979.163 1544.08 1012.34 1526.08 1042.18 1494.18C1072.03 1462.28 1098.51 1416.5 1120.32 1360.16C1163.93 1247.49 1188.81 1092.67 1184.61 922.411C1180.41 752.156 1147.92 598.751 1098.8 488.364C1074.24 433.169 1045.53 388.753 1014.15 358.361C982.772 327.971 948.745 311.63 913.521 312.499C878.296 313.369 845.117 331.368 815.274 363.27C785.429 395.173 758.95 440.951 737.143 497.289C693.531 609.965 668.645 764.787 672.847 935.042Z" stroke="url(#paint66_linear_259_3667)" stroke-opacity="0.3"/>
<path d="M672.995 939.509C680.168 1109.66 715.333 1262.48 766.37 1371.99C791.888 1426.75 821.365 1470.66 853.273 1500.5C885.179 1530.34 919.485 1546.08 954.689 1544.6C989.893 1543.11 1022.75 1524.54 1052.03 1492.12C1081.32 1459.7 1106.99 1413.47 1127.81 1356.76C1169.45 1243.34 1191.63 1088.1 1184.46 917.949C1177.29 747.793 1142.12 594.978 1091.09 485.465C1065.57 430.708 1036.09 386.799 1004.18 356.96C972.277 327.122 937.971 311.377 902.767 312.861C867.563 314.345 834.703 332.921 805.421 365.338C776.138 397.757 750.461 443.991 729.641 500.701C688.002 614.121 665.822 769.353 672.995 939.509Z" stroke="url(#paint67_linear_259_3667)" stroke-opacity="0.3"/>
<path d="M673.222 943.968C683.363 1113.97 721.19 1266.15 774.13 1374.76C800.601 1429.06 830.839 1472.45 863.263 1501.73C895.685 1531 930.261 1546.15 965.434 1544.05C1000.61 1541.95 1033.14 1522.8 1061.85 1489.88C1090.56 1456.95 1115.43 1410.28 1135.25 1353.21C1174.91 1239.09 1194.38 1083.49 1184.23 913.485C1174.09 743.48 1136.27 591.302 1083.33 482.696C1056.86 428.392 1026.62 385.005 994.193 355.727C961.771 326.451 927.195 311.307 892.023 313.405C856.85 315.503 824.319 334.65 795.608 367.573C766.894 400.499 742.029 447.173 722.202 504.238C682.548 618.367 663.081 773.963 673.222 943.968Z" stroke="url(#paint68_linear_259_3667)" stroke-opacity="0.3"/>
<path d="M673.528 948.429C686.634 1118.23 727.111 1269.73 781.939 1377.39C809.353 1431.22 840.344 1474.08 873.274 1502.78C906.202 1531.49 941.037 1546.03 976.168 1543.32C1011.3 1540.61 1043.49 1520.89 1071.62 1487.47C1099.76 1454.05 1123.8 1406.95 1142.63 1349.55C1180.29 1234.75 1197.04 1078.83 1183.93 909.032C1170.82 739.23 1130.35 587.735 1075.52 480.07C1048.1 426.237 1017.11 383.384 984.184 354.676C951.256 325.97 916.421 311.432 881.29 314.144C846.159 316.855 813.968 336.567 785.835 369.986C757.701 403.407 733.654 450.508 714.825 507.911C677.17 622.715 660.421 778.627 673.528 948.429Z" stroke="url(#paint69_linear_259_3667)" stroke-opacity="0.3"/>
<path d="M673.91 952.878C689.978 1122.43 733.093 1273.19 789.791 1379.88C818.141 1433.23 849.874 1475.53 883.3 1503.66C916.725 1531.79 951.808 1545.72 986.886 1542.39C1021.96 1539.07 1053.81 1518.8 1081.35 1484.89C1108.9 1450.99 1132.12 1403.47 1149.94 1345.75C1185.59 1230.31 1199.61 1074.13 1183.55 904.579C1167.48 735.032 1124.36 584.267 1067.67 477.575C1039.32 424.228 1007.58 381.923 974.156 353.794C940.732 325.667 905.649 311.739 870.571 315.063C835.493 318.388 803.65 338.658 776.105 372.563C748.558 406.471 725.337 453.984 707.513 511.707C671.867 627.15 657.842 783.331 673.91 952.878Z" stroke="url(#paint70_linear_259_3667)" stroke-opacity="0.3"/>
<path d="M674.369 957.319C693.394 1126.56 739.133 1276.55 797.685 1382.24C826.961 1435.08 859.429 1476.82 893.34 1504.37C927.25 1531.91 962.571 1545.22 997.586 1541.28C1032.6 1537.35 1064.08 1516.52 1091.03 1482.14C1117.98 1447.76 1140.37 1399.85 1157.19 1341.82C1190.81 1225.78 1202.11 1069.37 1183.09 900.133C1164.06 730.892 1118.32 580.902 1059.77 475.216C1030.49 422.372 998.026 380.627 964.114 353.086C930.204 325.546 894.883 312.233 859.869 316.169C824.854 320.105 793.37 340.928 766.421 375.309C739.47 409.692 717.081 457.603 700.268 515.628C666.642 631.676 655.344 788.078 674.369 957.319Z" stroke="url(#paint71_linear_259_3667)" stroke-opacity="0.3"/>
<path d="M674.908 961.754C696.883 1130.64 745.233 1279.81 805.621 1384.45C835.815 1436.78 869.006 1477.95 903.393 1504.9C937.778 1531.84 973.327 1544.53 1008.27 1539.99C1043.21 1535.44 1074.32 1514.07 1100.67 1479.23C1127.02 1444.38 1148.56 1396.08 1164.36 1337.77C1195.96 1221.16 1204.52 1064.58 1182.55 895.699C1160.57 726.816 1112.22 577.647 1051.84 472.999C1021.64 420.674 988.451 379.502 954.064 352.557C919.678 325.613 884.13 312.918 849.19 317.465C814.249 322.012 783.133 343.381 756.788 378.227C730.442 413.075 708.892 461.37 693.094 519.679C661.498 636.296 652.932 792.871 674.908 961.754Z" stroke="url(#paint72_linear_259_3667)" stroke-opacity="0.3"/>
<path d="M675.523 966.183C700.442 1134.66 751.388 1282.96 813.593 1386.54C844.695 1438.33 878.6 1478.91 913.452 1505.25C948.302 1531.59 984.067 1543.67 1018.92 1538.51C1053.78 1533.35 1084.52 1511.45 1110.25 1476.15C1135.98 1440.84 1156.69 1392.18 1171.47 1333.6C1201.02 1216.45 1206.85 1059.75 1181.93 891.278C1157.01 722.804 1106.07 574.502 1043.86 470.923C1012.76 419.133 978.856 378.547 944.004 352.206C909.153 325.867 873.389 313.794 838.533 318.95C803.677 324.106 772.939 346.014 747.206 381.315C721.472 416.617 700.769 465.281 685.991 523.858C656.435 641.008 650.603 797.709 675.523 966.183Z" stroke="url(#paint73_linear_259_3667)" stroke-opacity="0.3"/>
<path d="M676.215 970.596C704.071 1138.61 757.598 1286 821.6 1388.48C853.602 1439.72 888.21 1479.7 923.517 1505.43C958.821 1531.16 994.791 1542.61 1029.55 1536.84C1064.31 1531.08 1094.66 1508.64 1119.78 1472.89C1144.89 1437.15 1164.74 1388.13 1178.49 1329.3C1206 1211.66 1209.1 1054.88 1181.24 886.864C1153.39 718.851 1099.86 571.46 1035.86 468.984C1003.85 417.744 969.247 377.756 933.94 352.027C898.635 326.3 862.666 314.853 827.905 320.617C793.145 326.38 762.794 348.822 737.681 384.566C712.566 420.312 692.716 469.33 678.962 528.155C651.456 645.804 648.359 802.582 676.215 970.596Z" stroke="url(#paint74_linear_259_3667)" stroke-opacity="0.3"/>
<path d="M676.986 974.997C707.77 1142.5 763.861 1288.93 829.642 1390.28C862.534 1440.95 897.834 1480.33 933.584 1505.44C969.332 1530.54 1005.5 1541.36 1040.15 1534.99C1074.81 1528.62 1104.76 1505.65 1129.25 1469.48C1153.73 1433.3 1172.72 1383.94 1185.45 1324.89C1210.9 1206.77 1211.26 1049.97 1180.47 882.464C1149.69 714.963 1093.6 568.529 1027.82 467.185C994.927 416.512 959.627 377.133 923.877 352.025C888.128 326.917 851.964 316.101 817.31 322.47C782.655 328.839 752.7 351.807 728.215 387.984C703.728 424.163 684.736 473.52 672.011 532.576C646.562 650.687 646.202 807.495 676.986 974.997Z" stroke="url(#paint75_linear_259_3667)" stroke-opacity="0.3"/>
<path d="M677.83 979.379C711.533 1146.32 770.17 1291.75 837.71 1391.93C871.481 1442.02 907.463 1480.78 943.646 1505.26C979.827 1529.74 1016.17 1539.92 1050.71 1532.95C1085.25 1525.98 1114.8 1502.49 1138.65 1465.89C1162.5 1429.29 1180.63 1379.61 1192.32 1320.34C1215.71 1201.8 1213.33 1045.01 1179.63 878.073C1145.92 711.134 1087.29 565.702 1019.75 465.521C985.975 415.43 949.993 376.673 913.81 352.192C877.629 327.713 841.282 317.529 806.744 324.502C772.205 331.475 742.656 354.962 718.806 391.561C694.954 428.162 676.827 477.842 665.134 537.112C641.75 655.649 644.127 812.44 677.83 979.379Z" stroke="url(#paint76_linear_259_3667)" stroke-opacity="0.3"/>
<path d="M678.752 983.75C715.363 1150.08 776.53 1294.46 845.808 1393.45C880.448 1442.94 917.101 1481.07 953.706 1504.91C990.309 1528.76 1026.83 1538.3 1061.24 1530.73C1095.65 1523.16 1124.79 1499.16 1147.99 1462.15C1171.2 1425.13 1188.46 1375.15 1199.12 1315.68C1220.43 1196.75 1215.32 1040.03 1178.7 873.703C1142.09 707.377 1080.93 562.99 1011.65 464.004C977.009 414.509 940.356 376.387 903.751 352.541C867.148 328.697 830.629 319.149 796.217 326.723C761.806 334.298 732.671 358.297 709.463 395.307C686.254 432.319 668.996 482.308 658.34 541.773C637.028 660.7 642.141 817.425 678.752 983.75Z" stroke="url(#paint77_linear_259_3667)" stroke-opacity="0.3"/>
<path d="M679.752 988.106C719.26 1153.77 782.937 1297.06 853.933 1394.83C889.431 1443.71 926.743 1481.19 963.759 1504.39C1000.77 1527.59 1037.45 1536.5 1071.73 1528.33C1106 1520.15 1134.71 1495.65 1157.27 1458.24C1179.83 1420.83 1196.21 1370.55 1205.83 1310.9C1225.06 1191.62 1217.22 1035.01 1177.71 869.35C1138.2 703.689 1074.52 560.391 1003.53 462.629C968.028 413.746 930.715 376.269 893.7 353.066C856.686 329.864 820.006 320.955 785.732 329.129C751.458 337.303 722.747 361.807 700.188 399.216C677.628 436.627 661.245 486.91 651.629 546.552C632.396 665.833 640.243 822.445 679.752 988.106Z" stroke="url(#paint78_linear_259_3667)" stroke-opacity="0.3"/>
<path d="M680.826 992.438C723.219 1157.38 789.388 1299.55 862.079 1396.06C898.425 1444.31 936.386 1481.13 973.8 1503.69C1011.21 1526.24 1048.04 1534.51 1082.17 1525.74C1116.3 1516.96 1144.57 1491.96 1166.48 1454.17C1188.38 1416.37 1203.88 1365.81 1212.46 1306.01C1229.61 1186.41 1219.03 1029.96 1176.63 865.009C1134.24 700.063 1068.07 557.899 995.38 461.39C959.034 413.135 921.073 376.315 883.658 353.761C846.246 331.209 809.416 322.941 775.289 331.712C741.163 340.483 712.884 365.485 690.982 403.281C669.078 441.081 653.576 491.642 645.001 551.442C627.853 671.04 638.433 827.492 680.826 992.438Z" stroke="url(#paint79_linear_259_3667)" stroke-opacity="0.3"/>
<path d="M681.975 996.76C727.241 1160.94 795.881 1301.93 870.245 1397.15C907.427 1444.77 946.025 1480.92 983.828 1502.82C1021.63 1524.71 1058.6 1532.34 1092.56 1522.97C1126.53 1513.61 1154.37 1488.12 1175.61 1449.94C1196.85 1411.77 1211.47 1360.94 1219 1301C1234.06 1181.12 1220.75 1024.88 1175.48 860.698C1130.22 696.517 1061.58 555.529 987.214 460.303C950.031 412.69 911.433 376.538 873.631 354.641C835.83 332.745 798.861 325.121 764.893 334.486C730.925 343.851 703.087 369.343 681.847 407.516C660.607 445.692 645.989 496.516 638.46 556.457C623.401 676.336 636.71 832.579 681.975 996.76Z" stroke="url(#paint80_linear_259_3667)" stroke-opacity="0.3"/>
<path d="M683.2 1001.05C731.324 1164.42 802.414 1304.19 878.428 1398.1C916.436 1445.06 955.659 1480.53 993.838 1501.77C1032.02 1523 1069.11 1529.98 1102.91 1520.02C1136.71 1510.06 1164.1 1484.09 1184.67 1445.55C1205.24 1407.01 1218.97 1355.94 1225.45 1295.88C1238.41 1175.75 1222.38 1019.76 1174.26 856.399C1126.13 693.032 1055.04 553.264 979.029 459.351C941.021 412.393 901.798 376.92 863.619 355.686C825.442 334.454 788.346 327.476 754.547 337.433C720.748 347.389 693.358 373.363 672.788 411.901C652.217 450.441 638.489 501.513 632.007 561.576C619.043 681.7 635.076 837.687 683.2 1001.05Z" stroke="url(#paint81_linear_259_3667)" stroke-opacity="0.3"/>
<path d="M684.5 1005.33C735.467 1167.83 808.986 1306.34 886.628 1398.91C925.449 1445.19 965.285 1479.98 1003.83 1500.54C1042.37 1521.1 1079.58 1527.43 1113.2 1516.89C1146.82 1506.34 1173.76 1479.9 1193.65 1441.01C1213.55 1402.11 1226.38 1350.81 1231.81 1290.64C1242.68 1170.31 1223.93 1014.63 1172.96 852.124C1121.99 689.623 1048.47 551.116 970.83 458.544C932.008 412.257 892.172 377.474 853.628 356.909C815.087 336.346 777.874 330.017 744.254 340.562C710.634 351.107 683.701 377.555 663.807 416.446C643.912 455.34 631.077 506.643 625.644 566.81C614.779 687.142 633.532 842.825 684.5 1005.33Z" stroke="url(#paint82_linear_259_3667)" stroke-opacity="0.3"/>
<path d="M685.874 1009.58C739.671 1171.16 815.595 1308.37 894.841 1399.57C934.464 1445.17 974.901 1479.25 1013.8 1499.14C1052.69 1519.03 1090.01 1524.71 1123.44 1513.58C1156.87 1502.45 1183.34 1475.54 1202.55 1436.3C1221.76 1397.07 1233.7 1345.55 1238.08 1285.3C1246.85 1164.79 1225.38 1009.46 1171.58 847.873C1117.79 686.286 1041.86 549.084 962.618 457.881C922.995 412.278 882.558 378.196 843.661 358.307C804.766 338.42 767.449 332.741 734.018 343.871C700.587 355.001 674.12 381.915 654.908 421.147C635.695 460.382 623.757 511.902 619.375 572.155C610.611 692.658 632.078 847.99 685.874 1009.58Z" stroke="url(#paint83_linear_259_3667)" stroke-opacity="0.3"/>
<path d="M687.322 1013.81C743.93 1174.43 822.238 1310.29 903.063 1400.09C943.476 1445 984.502 1478.37 1023.74 1497.57C1062.98 1516.78 1100.39 1521.81 1133.62 1510.09C1166.85 1498.38 1192.84 1471.01 1211.37 1431.45C1229.89 1391.89 1240.93 1340.17 1244.26 1279.85C1250.92 1159.21 1226.74 1004.27 1170.14 843.649C1113.53 683.026 1035.22 547.169 954.396 457.363C913.982 412.459 872.957 379.088 833.719 359.881C794.483 340.675 757.072 335.649 723.84 347.361C690.609 359.072 664.616 386.444 646.091 426.006C627.566 465.57 616.528 517.29 613.199 577.61C606.539 698.248 630.714 853.182 687.322 1013.81Z" stroke="url(#paint84_linear_259_3667)" stroke-opacity="0.3"/>
<path d="M688.843 1018.01C748.246 1177.62 828.913 1312.09 911.293 1400.47C952.484 1444.66 994.086 1477.31 1033.65 1495.83C1073.22 1514.35 1110.71 1518.72 1143.73 1506.43C1176.76 1494.14 1202.27 1466.32 1220.1 1426.44C1237.93 1386.56 1248.06 1334.65 1250.34 1274.28C1254.89 1153.55 1228.02 999.06 1168.61 839.449C1109.21 679.838 1028.55 545.369 946.165 456.987C904.974 412.795 863.372 380.145 823.805 361.626C784.24 343.108 746.747 338.735 713.725 351.025C680.702 363.315 655.191 391.136 637.36 431.015C619.528 470.897 609.395 522.801 607.118 583.17C602.565 703.906 629.441 858.395 688.843 1018.01Z" stroke="url(#paint85_linear_259_3667)" stroke-opacity="0.3"/>
<path d="M690.439 1022.18C752.618 1180.73 835.619 1313.77 919.53 1400.7C961.485 1444.16 1003.65 1476.08 1043.54 1493.91C1083.42 1511.73 1120.98 1515.45 1153.78 1502.59C1186.59 1489.72 1211.61 1461.46 1228.74 1421.28C1245.87 1381.09 1255.1 1329.02 1256.32 1268.62C1258.77 1147.82 1229.2 993.824 1167.02 835.274C1104.84 676.724 1021.84 543.683 937.93 456.752C895.974 413.286 853.809 381.367 813.925 363.541C774.042 345.716 736.479 341.999 703.676 354.863C670.873 367.727 645.852 395.989 628.719 436.174C611.586 476.36 602.36 528.434 601.138 588.834C598.693 709.63 628.26 863.627 690.439 1022.18Z" stroke="url(#paint86_linear_259_3667)" stroke-opacity="0.3"/>
<path d="M692.106 1026.32C757.043 1183.76 842.353 1315.34 927.767 1400.79C970.476 1443.52 1013.19 1474.69 1053.38 1491.82C1093.57 1508.95 1131.19 1512.01 1163.76 1498.57C1196.34 1485.14 1220.86 1456.44 1237.29 1415.97C1253.72 1375.49 1262.04 1323.26 1262.2 1262.85C1262.54 1142.03 1230.29 988.572 1165.35 831.131C1100.42 673.69 1015.11 542.118 929.691 456.665C886.983 413.938 844.267 382.759 804.078 365.632C763.89 348.506 726.268 345.445 693.695 358.88C661.121 372.315 636.597 401.009 620.168 441.486C603.738 481.966 595.423 534.192 595.255 594.604C594.919 715.425 627.169 868.882 692.106 1026.32Z" stroke="url(#paint87_linear_259_3667)" stroke-opacity="0.3"/>
<path d="M693.845 1030.44C761.52 1186.72 849.113 1316.79 936.006 1400.73C979.454 1442.71 1022.71 1473.14 1063.19 1489.56C1103.67 1505.98 1141.34 1508.39 1173.67 1494.39C1206.01 1480.38 1230.03 1451.27 1245.75 1410.51C1261.47 1369.75 1268.87 1317.39 1267.98 1256.98C1266.21 1136.17 1231.29 983.301 1163.61 827.017C1095.94 670.733 1008.35 540.67 921.453 456.721C878.005 414.746 834.752 384.317 794.269 367.894C753.789 351.472 716.119 349.068 683.785 363.069C651.451 377.071 627.431 406.189 611.712 446.946C595.991 487.707 588.588 540.07 589.475 600.476C591.247 721.284 626.17 874.155 693.845 1030.44Z" stroke="url(#paint88_linear_259_3667)" stroke-opacity="0.3"/>
<path d="M695.655 1034.52C766.047 1189.6 855.897 1318.12 944.242 1400.54C988.415 1441.75 1032.19 1471.42 1072.96 1487.13C1113.72 1502.84 1151.42 1504.59 1183.51 1490.03C1215.59 1475.46 1239.1 1445.93 1254.11 1404.9C1269.11 1363.88 1275.6 1311.39 1273.66 1251.01C1269.78 1130.25 1232.19 978.013 1161.8 822.934C1091.41 667.855 1001.56 539.341 913.215 456.921C869.042 415.71 825.264 386.041 784.501 370.327C743.74 354.614 706.034 352.868 673.949 367.431C641.865 381.995 618.357 411.527 603.35 452.553C588.344 493.582 581.856 546.067 583.796 606.447C587.677 727.207 625.263 879.444 695.655 1034.52Z" stroke="url(#paint89_linear_259_3667)" stroke-opacity="0.3"/>
<path d="M697.537 1038.57C770.625 1192.4 862.704 1319.33 952.474 1400.19C997.36 1440.63 1041.65 1469.53 1082.68 1484.53C1123.71 1499.53 1161.44 1500.61 1193.26 1485.49C1225.09 1470.37 1248.08 1440.43 1262.37 1399.15C1276.66 1357.87 1282.23 1305.28 1279.23 1244.94C1273.25 1124.27 1233.01 972.707 1159.92 818.881C1086.83 665.054 994.753 538.127 904.983 457.262C860.098 416.828 815.808 387.928 774.778 372.928C733.749 357.929 696.018 356.84 664.193 371.961C632.367 387.083 609.378 417.021 595.09 458.303C580.801 499.587 575.231 552.177 578.225 612.515C584.212 733.188 624.449 884.746 697.537 1038.57Z" stroke="url(#paint90_linear_259_3667)" stroke-opacity="0.3"/>
<path d="M699.491 1042.59C775.253 1195.12 869.533 1320.42 960.7 1399.71C1006.28 1439.35 1051.07 1467.48 1092.36 1481.76C1133.64 1496.04 1171.39 1496.47 1202.94 1480.79C1234.5 1465.12 1256.96 1434.78 1270.53 1393.26C1284.09 1351.73 1288.75 1299.05 1284.7 1238.78C1276.61 1118.23 1233.73 967.393 1157.97 814.865C1082.21 662.337 987.928 537.037 896.761 457.75C851.176 418.106 806.389 389.983 765.103 375.701C723.819 361.421 686.075 360.991 654.518 376.665C622.961 392.34 600.498 422.675 586.933 464.199C573.367 505.727 568.715 558.406 572.761 618.682C580.854 739.232 623.73 890.066 699.491 1042.59Z" stroke="url(#paint91_linear_259_3667)" stroke-opacity="0.3"/>
<path d="M701.511 1046.58C779.923 1197.76 876.376 1321.39 968.913 1399.08C1015.18 1437.92 1060.45 1465.26 1101.98 1478.82C1143.51 1492.37 1181.26 1492.14 1212.53 1475.92C1243.81 1459.7 1265.74 1428.98 1278.58 1387.22C1291.42 1345.46 1295.15 1292.71 1290.05 1232.51C1279.86 1112.12 1234.36 962.062 1155.95 810.88C1077.53 659.698 981.081 536.062 888.544 458.378C842.274 419.536 797.004 392.199 755.474 378.64C713.947 365.081 676.201 365.311 644.923 381.533C613.644 397.756 591.714 428.479 578.876 470.234C566.037 511.991 562.305 564.744 567.402 624.94C577.598 745.331 623.1 895.393 701.511 1046.58Z" stroke="url(#paint92_linear_259_3667)" stroke-opacity="0.3"/>
<path d="M703.603 1050.52C784.641 1200.31 883.237 1322.25 977.116 1398.3C1024.06 1436.33 1069.8 1462.87 1111.56 1475.71C1153.31 1488.54 1191.05 1487.65 1222.04 1470.88C1253.03 1454.12 1274.42 1423.02 1286.53 1381.04C1298.64 1339.07 1301.45 1286.26 1295.3 1226.16C1283.01 1105.97 1234.89 956.722 1153.85 806.931C1072.82 657.14 974.221 535.206 880.342 459.15C833.401 421.121 787.66 394.578 745.901 381.746C704.143 368.914 666.407 369.802 635.417 386.569C604.426 403.335 583.035 434.435 570.927 476.408C558.819 518.383 556.009 571.193 562.156 631.291C574.451 751.486 622.565 900.731 703.603 1050.52Z" stroke="url(#paint93_linear_259_3667)" stroke-opacity="0.3"/>
<path d="M705.764 1054.43C789.404 1202.78 890.113 1322.98 985.305 1397.39C1032.9 1434.59 1079.1 1460.33 1121.08 1472.43C1163.05 1484.53 1200.77 1482.99 1231.46 1465.68C1262.15 1448.38 1283 1416.91 1294.37 1374.73C1305.75 1332.55 1307.63 1279.7 1300.44 1219.72C1286.05 1099.76 1235.34 951.374 1151.7 803.02C1068.06 654.666 967.347 534.472 872.155 460.065C824.558 422.861 778.361 397.121 736.384 385.019C694.409 372.919 656.694 374.465 626 391.77C595.307 409.074 574.462 440.543 563.089 482.721C551.715 524.901 549.827 577.752 557.022 637.734C571.412 757.695 622.124 906.078 705.764 1054.43Z" stroke="url(#paint94_linear_259_3667)" stroke-opacity="0.3"/>
<path d="M707.991 1058.3C794.207 1205.18 896.998 1323.59 993.474 1396.33C1041.71 1432.7 1088.35 1457.63 1130.53 1468.99C1172.71 1480.36 1210.4 1478.15 1240.78 1460.32C1271.17 1442.48 1291.46 1410.65 1302.1 1368.28C1312.73 1325.91 1313.7 1273.03 1305.46 1213.19C1288.98 1093.49 1235.68 946.02 1149.47 799.148C1063.25 652.277 960.459 533.858 863.983 461.125C815.744 424.757 769.104 399.827 726.922 388.46C684.743 377.093 647.06 379.298 616.674 397.135C586.287 414.973 565.995 446.801 555.359 489.171C544.723 531.543 543.757 584.418 551.999 644.266C568.48 763.958 621.774 911.432 707.991 1058.3Z" stroke="url(#paint95_linear_259_3667)" stroke-opacity="0.3"/>
<path d="M710.285 1062.14C799.052 1207.48 903.894 1324.09 1001.63 1395.13C1050.49 1430.65 1097.56 1454.76 1139.93 1465.39C1182.3 1476.02 1219.94 1473.16 1250.01 1454.79C1280.08 1436.43 1299.82 1404.25 1309.71 1361.7C1319.61 1319.15 1319.65 1266.26 1310.37 1206.57C1291.8 1087.18 1235.94 940.662 1147.17 795.318C1058.4 649.973 953.562 533.367 855.832 462.328C806.965 426.807 759.898 402.695 717.524 392.066C675.152 381.437 637.514 384.299 607.444 402.664C577.373 421.029 557.639 453.207 547.745 495.756C537.85 538.307 537.807 591.191 547.091 650.886C565.66 770.272 621.519 916.794 710.285 1062.14Z" stroke="url(#paint96_linear_259_3667)" stroke-opacity="0.3"/>
<path d="M712.649 1065.93C803.939 1209.7 910.8 1324.46 1009.76 1393.79C1059.23 1428.45 1106.72 1451.73 1149.27 1461.62C1191.82 1471.51 1229.4 1467.99 1259.15 1449.1C1288.89 1430.22 1308.06 1397.7 1317.21 1354.99C1326.36 1312.27 1325.48 1259.39 1315.16 1199.87C1294.51 1080.82 1236.1 935.299 1144.81 791.526C1053.52 647.753 946.661 532.994 847.705 463.671C798.226 429.009 750.745 405.722 708.192 395.834C665.641 385.946 628.059 389.464 598.313 408.352C568.568 427.239 549.398 459.756 540.248 502.471C531.097 545.188 531.978 598.066 542.302 657.589C562.951 776.633 621.359 922.158 712.649 1065.93Z" stroke="url(#paint97_linear_259_3667)" stroke-opacity="0.3"/>
<path d="M715.073 1069.68C808.858 1211.84 917.706 1324.71 1017.86 1392.3C1067.93 1426.09 1115.81 1448.55 1158.53 1457.69C1201.25 1466.83 1238.76 1462.66 1268.18 1443.26C1297.59 1423.85 1316.19 1391.01 1324.59 1348.14C1332.99 1305.27 1331.19 1252.41 1319.83 1193.08C1297.1 1074.41 1236.17 929.93 1142.38 787.772C1048.6 645.615 939.748 532.738 839.597 465.153C789.521 431.36 741.641 408.904 698.922 399.761C656.205 390.617 618.69 394.791 589.278 414.194C559.867 433.598 541.268 466.444 532.865 509.313C524.461 552.183 526.264 605.037 537.625 664.371C560.349 783.036 621.288 927.52 715.073 1069.68Z" stroke="url(#paint98_linear_259_3667)" stroke-opacity="0.3"/>
<path d="M717.566 1073.39C813.818 1213.89 924.619 1324.85 1025.93 1390.67C1076.59 1423.59 1124.86 1445.2 1167.73 1453.6C1210.6 1462 1248.04 1457.17 1277.1 1437.26C1306.17 1417.34 1324.2 1384.18 1331.85 1341.17C1339.5 1298.16 1336.78 1245.34 1324.38 1186.22C1299.59 1067.96 1236.14 924.566 1139.89 784.067C1043.64 643.568 932.836 532.608 831.521 466.781C780.863 433.867 732.598 412.251 689.726 403.854C646.856 395.458 609.419 400.285 580.351 420.199C551.283 440.113 533.26 473.279 525.606 516.287C517.952 559.298 520.677 612.112 533.073 671.239C557.864 789.49 621.315 932.888 717.566 1073.39Z" stroke="url(#paint99_linear_259_3667)" stroke-opacity="0.3"/>
<defs>
<linearGradient id="paint0_linear_259_3667" x1="991.796" y1="1064.44" x2="860.879" y2="788.898" gradientUnits="userSpaceOnUse">
<stop stop-color="#DE701D"/>
<stop offset="1" stop-color="#121212"/>
</linearGradient>
<linearGradient id="paint1_linear_259_3667" x1="994.152" y1="1063.32" x2="858.447" y2="790.106" gradientUnits="userSpaceOnUse">
<stop stop-color="#DE701D"/>
<stop offset="1" stop-color="#121212"/>
</linearGradient>
<linearGradient id="paint2_linear_259_3667" x1="996.493" y1="1062.16" x2="856.04" y2="791.355" gradientUnits="userSpaceOnUse">
<stop stop-color="#DE701D"/>
<stop offset="1" stop-color="#121212"/>
</linearGradient>
<linearGradient id="paint3_linear_259_3667" x1="998.811" y1="1060.95" x2="853.653" y2="792.641" gradientUnits="userSpaceOnUse">
<stop stop-color="#DE701D"/>
<stop offset="1" stop-color="#121212"/>
</linearGradient>
<linearGradient id="paint4_linear_259_3667" x1="1001.11" y1="1059.71" x2="851.29" y2="793.977" gradientUnits="userSpaceOnUse">
<stop stop-color="#DE701D"/>
<stop offset="1" stop-color="#121212"/>
</linearGradient>
<linearGradient id="paint5_linear_259_3667" x1="1003.38" y1="1058.43" x2="848.948" y2="795.346" gradientUnits="userSpaceOnUse">
<stop stop-color="#DE701D"/>
<stop offset="1" stop-color="#121212"/>
</linearGradient>
<linearGradient id="paint6_linear_259_3667" x1="1005.63" y1="1057.1" x2="846.634" y2="796.76" gradientUnits="userSpaceOnUse">
<stop stop-color="#DE701D"/>
<stop offset="1" stop-color="#121212"/>
</linearGradient>
<linearGradient id="paint7_linear_259_3667" x1="1007.86" y1="1055.74" x2="844.343" y2="798.209" gradientUnits="userSpaceOnUse">
<stop stop-color="#DE701D"/>
<stop offset="1" stop-color="#121212"/>
</linearGradient>
<linearGradient id="paint8_linear_259_3667" x1="1010.07" y1="1054.34" x2="842.077" y2="799.7" gradientUnits="userSpaceOnUse">
<stop stop-color="#DE701D"/>
<stop offset="1" stop-color="#121212"/>
</linearGradient>
<linearGradient id="paint9_linear_259_3667" x1="1012.25" y1="1052.9" x2="839.841" y2="801.235" gradientUnits="userSpaceOnUse">
<stop stop-color="#DE701D"/>
<stop offset="1" stop-color="#121212"/>
</linearGradient>
<linearGradient id="paint10_linear_259_3667" x1="1014.4" y1="1051.42" x2="837.627" y2="802.806" gradientUnits="userSpaceOnUse">
<stop stop-color="#DE701D"/>
<stop offset="1" stop-color="#121212"/>
</linearGradient>
<linearGradient id="paint11_linear_259_3667" x1="1016.53" y1="1049.91" x2="835.442" y2="804.415" gradientUnits="userSpaceOnUse">
<stop stop-color="#DE701D"/>
<stop offset="1" stop-color="#121212"/>
</linearGradient>
<linearGradient id="paint12_linear_259_3667" x1="1018.63" y1="1048.36" x2="833.288" y2="806.062" gradientUnits="userSpaceOnUse">
<stop stop-color="#DE701D"/>
<stop offset="1" stop-color="#121212"/>
</linearGradient>
<linearGradient id="paint13_linear_259_3667" x1="1020.71" y1="1046.77" x2="831.163" y2="807.746" gradientUnits="userSpaceOnUse">
<stop stop-color="#DE701D"/>
<stop offset="1" stop-color="#121212"/>
</linearGradient>
<linearGradient id="paint14_linear_259_3667" x1="1022.75" y1="1045.15" x2="829.066" y2="809.471" gradientUnits="userSpaceOnUse">
<stop stop-color="#DE701D"/>
<stop offset="1" stop-color="#121212"/>
</linearGradient>
<linearGradient id="paint15_linear_259_3667" x1="1024.77" y1="1043.49" x2="827" y2="811.224" gradientUnits="userSpaceOnUse">
<stop stop-color="#DE701D"/>
<stop offset="1" stop-color="#121212"/>
</linearGradient>
<linearGradient id="paint16_linear_259_3667" x1="1026.76" y1="1041.8" x2="824.964" y2="813.019" gradientUnits="userSpaceOnUse">
<stop stop-color="#DE701D"/>
<stop offset="1" stop-color="#121212"/>
</linearGradient>
<linearGradient id="paint17_linear_259_3667" x1="1028.72" y1="1040.07" x2="822.961" y2="814.85" gradientUnits="userSpaceOnUse">
<stop stop-color="#DE701D"/>
<stop offset="1" stop-color="#121212"/>
</linearGradient>
<linearGradient id="paint18_linear_259_3667" x1="1030.64" y1="1038.31" x2="820.99" y2="816.711" gradientUnits="userSpaceOnUse">
<stop stop-color="#DE701D"/>
<stop offset="1" stop-color="#121212"/>
</linearGradient>
<linearGradient id="paint19_linear_259_3667" x1="1032.54" y1="1036.51" x2="819.05" y2="818.608" gradientUnits="userSpaceOnUse">
<stop stop-color="#DE701D"/>
<stop offset="1" stop-color="#121212"/>
</linearGradient>
<linearGradient id="paint20_linear_259_3667" x1="1034.41" y1="1034.69" x2="817.146" y2="820.54" gradientUnits="userSpaceOnUse">
<stop stop-color="#DE701D"/>
<stop offset="1" stop-color="#121212"/>
</linearGradient>
<linearGradient id="paint21_linear_259_3667" x1="1036.24" y1="1032.82" x2="815.275" y2="822.503" gradientUnits="userSpaceOnUse">
<stop stop-color="#DE701D"/>
<stop offset="1" stop-color="#121212"/>
</linearGradient>
<linearGradient id="paint22_linear_259_3667" x1="1038.04" y1="1030.93" x2="813.438" y2="824.497" gradientUnits="userSpaceOnUse">
<stop stop-color="#DE701D"/>
<stop offset="1" stop-color="#121212"/>
</linearGradient>
<linearGradient id="paint23_linear_259_3667" x1="1039.81" y1="1029.01" x2="811.637" y2="826.526" gradientUnits="userSpaceOnUse">
<stop stop-color="#DE701D"/>
<stop offset="1" stop-color="#121212"/>
</linearGradient>
<linearGradient id="paint24_linear_259_3667" x1="1041.54" y1="1027.05" x2="809.871" y2="828.585" gradientUnits="userSpaceOnUse">
<stop stop-color="#DE701D"/>
<stop offset="1" stop-color="#121212"/>
</linearGradient>
<linearGradient id="paint25_linear_259_3667" x1="1043.24" y1="1025.07" x2="808.141" y2="830.675" gradientUnits="userSpaceOnUse">
<stop stop-color="#DE701D"/>
<stop offset="1" stop-color="#121212"/>
</linearGradient>
<linearGradient id="paint26_linear_259_3667" x1="1044.9" y1="1023.06" x2="806.446" y2="832.796" gradientUnits="userSpaceOnUse">
<stop stop-color="#DE701D"/>
<stop offset="1" stop-color="#121212"/>
</linearGradient>
<linearGradient id="paint27_linear_259_3667" x1="1046.53" y1="1021.01" x2="804.792" y2="834.943" gradientUnits="userSpaceOnUse">
<stop stop-color="#DE701D"/>
<stop offset="1" stop-color="#121212"/>
</linearGradient>
<linearGradient id="paint28_linear_259_3667" x1="1048.12" y1="1018.95" x2="803.175" y2="837.121" gradientUnits="userSpaceOnUse">
<stop stop-color="#DE701D"/>
<stop offset="1" stop-color="#121212"/>
</linearGradient>
<linearGradient id="paint29_linear_259_3667" x1="1049.68" y1="1016.85" x2="801.596" y2="839.325" gradientUnits="userSpaceOnUse">
<stop stop-color="#DE701D"/>
<stop offset="1" stop-color="#121212"/>
</linearGradient>
<linearGradient id="paint30_linear_259_3667" x1="1051.2" y1="1014.72" x2="800.054" y2="841.557" gradientUnits="userSpaceOnUse">
<stop stop-color="#DE701D"/>
<stop offset="1" stop-color="#121212"/>
</linearGradient>
<linearGradient id="paint31_linear_259_3667" x1="1052.68" y1="1012.57" x2="798.551" y2="843.813" gradientUnits="userSpaceOnUse">
<stop stop-color="#DE701D"/>
<stop offset="1" stop-color="#121212"/>
</linearGradient>
<linearGradient id="paint32_linear_259_3667" x1="1054.12" y1="1010.4" x2="797.089" y2="846.103" gradientUnits="userSpaceOnUse">
<stop stop-color="#DE701D"/>
<stop offset="1" stop-color="#121212"/>
</linearGradient>
<linearGradient id="paint33_linear_259_3667" x1="1055.53" y1="1008.19" x2="795.669" y2="848.411" gradientUnits="userSpaceOnUse">
<stop stop-color="#DE701D"/>
<stop offset="1" stop-color="#121212"/>
</linearGradient>
<linearGradient id="paint34_linear_259_3667" x1="1056.9" y1="1005.97" x2="794.287" y2="850.746" gradientUnits="userSpaceOnUse">
<stop stop-color="#DE701D"/>
<stop offset="1" stop-color="#121212"/>
</linearGradient>
<linearGradient id="paint35_linear_259_3667" x1="1058.23" y1="1003.72" x2="792.945" y2="853.103" gradientUnits="userSpaceOnUse">
<stop stop-color="#DE701D"/>
<stop offset="1" stop-color="#121212"/>
</linearGradient>
<linearGradient id="paint36_linear_259_3667" x1="1059.52" y1="1001.45" x2="791.649" y2="855.487" gradientUnits="userSpaceOnUse">
<stop stop-color="#DE701D"/>
<stop offset="1" stop-color="#121212"/>
</linearGradient>
<linearGradient id="paint37_linear_259_3667" x1="1060.77" y1="999.158" x2="790.389" y2="857.891" gradientUnits="userSpaceOnUse">
<stop stop-color="#DE701D"/>
<stop offset="1" stop-color="#121212"/>
</linearGradient>
<linearGradient id="paint38_linear_259_3667" x1="1061.97" y1="996.838" x2="789.173" y2="860.311" gradientUnits="userSpaceOnUse">
<stop stop-color="#DE701D"/>
<stop offset="1" stop-color="#121212"/>
</linearGradient>
<linearGradient id="paint39_linear_259_3667" x1="1063.14" y1="994.505" x2="788.001" y2="862.76" gradientUnits="userSpaceOnUse">
<stop stop-color="#DE701D"/>
<stop offset="1" stop-color="#121212"/>
</linearGradient>
<linearGradient id="paint40_linear_259_3667" x1="1064.27" y1="992.153" x2="786.873" y2="865.23" gradientUnits="userSpaceOnUse">
<stop stop-color="#DE701D"/>
<stop offset="1" stop-color="#121212"/>
</linearGradient>
<linearGradient id="paint41_linear_259_3667" x1="1065.36" y1="989.773" x2="785.786" y2="867.711" gradientUnits="userSpaceOnUse">
<stop stop-color="#DE701D"/>
<stop offset="1" stop-color="#121212"/>
</linearGradient>
<linearGradient id="paint42_linear_259_3667" x1="1066.4" y1="987.377" x2="784.742" y2="870.213" gradientUnits="userSpaceOnUse">
<stop stop-color="#DE701D"/>
<stop offset="1" stop-color="#121212"/>
</linearGradient>
<linearGradient id="paint43_linear_259_3667" x1="1067.4" y1="984.966" x2="783.742" y2="872.735" gradientUnits="userSpaceOnUse">
<stop stop-color="#DE701D"/>
<stop offset="1" stop-color="#121212"/>
</linearGradient>
<linearGradient id="paint44_linear_259_3667" x1="1068.36" y1="982.541" x2="782.787" y2="875.277" gradientUnits="userSpaceOnUse">
<stop stop-color="#DE701D"/>
<stop offset="1" stop-color="#121212"/>
</linearGradient>
<linearGradient id="paint45_linear_259_3667" x1="1069.29" y1="980.095" x2="781.879" y2="877.832" gradientUnits="userSpaceOnUse">
<stop stop-color="#DE701D"/>
<stop offset="1" stop-color="#121212"/>
</linearGradient>
<linearGradient id="paint46_linear_259_3667" x1="1070.16" y1="977.633" x2="781.014" y2="880.401" gradientUnits="userSpaceOnUse">
<stop stop-color="#DE701D"/>
<stop offset="1" stop-color="#121212"/>
</linearGradient>
<linearGradient id="paint47_linear_259_3667" x1="1070.99" y1="975.157" x2="780.19" y2="882.986" gradientUnits="userSpaceOnUse">
<stop stop-color="#DE701D"/>
<stop offset="1" stop-color="#121212"/>
</linearGradient>
<linearGradient id="paint48_linear_259_3667" x1="1071.78" y1="972.669" x2="779.415" y2="885.588" gradientUnits="userSpaceOnUse">
<stop stop-color="#DE701D"/>
<stop offset="1" stop-color="#121212"/>
</linearGradient>
<linearGradient id="paint49_linear_259_3667" x1="1072.53" y1="970.165" x2="778.687" y2="888.2" gradientUnits="userSpaceOnUse">
<stop stop-color="#DE701D"/>
<stop offset="1" stop-color="#121212"/>
</linearGradient>
<linearGradient id="paint50_linear_259_3667" x1="1073.23" y1="967.648" x2="778.001" y2="890.823" gradientUnits="userSpaceOnUse">
<stop stop-color="#DE701D"/>
<stop offset="1" stop-color="#121212"/>
</linearGradient>
<linearGradient id="paint51_linear_259_3667" x1="1073.88" y1="965.121" x2="777.363" y2="893.461" gradientUnits="userSpaceOnUse">
<stop stop-color="#DE701D"/>
<stop offset="1" stop-color="#121212"/>
</linearGradient>
<linearGradient id="paint52_linear_259_3667" x1="1074.5" y1="962.581" x2="776.77" y2="896.107" gradientUnits="userSpaceOnUse">
<stop stop-color="#DE701D"/>
<stop offset="1" stop-color="#121212"/>
</linearGradient>
<linearGradient id="paint53_linear_259_3667" x1="1075.07" y1="960.034" x2="776.225" y2="898.766" gradientUnits="userSpaceOnUse">
<stop stop-color="#DE701D"/>
<stop offset="1" stop-color="#121212"/>
</linearGradient>
<linearGradient id="paint54_linear_259_3667" x1="1075.59" y1="957.472" x2="775.723" y2="901.428" gradientUnits="userSpaceOnUse">
<stop stop-color="#DE701D"/>
<stop offset="1" stop-color="#121212"/>
</linearGradient>
<linearGradient id="paint55_linear_259_3667" x1="1076.07" y1="954.906" x2="775.271" y2="904.104" gradientUnits="userSpaceOnUse">
<stop stop-color="#DE701D"/>
<stop offset="1" stop-color="#121212"/>
</linearGradient>
<linearGradient id="paint56_linear_259_3667" x1="1076.5" y1="952.333" x2="774.866" y2="906.789" gradientUnits="userSpaceOnUse">
<stop stop-color="#DE701D"/>
<stop offset="1" stop-color="#121212"/>
</linearGradient>
<linearGradient id="paint57_linear_259_3667" x1="1076.89" y1="949.748" x2="774.503" y2="909.475" gradientUnits="userSpaceOnUse">
<stop stop-color="#DE701D"/>
<stop offset="1" stop-color="#121212"/>
</linearGradient>
<linearGradient id="paint58_linear_259_3667" x1="1077.24" y1="947.163" x2="774.195" y2="912.174" gradientUnits="userSpaceOnUse">
<stop stop-color="#DE701D"/>
<stop offset="1" stop-color="#121212"/>
</linearGradient>
<linearGradient id="paint59_linear_259_3667" x1="1077.54" y1="944.565" x2="773.928" y2="914.87" gradientUnits="userSpaceOnUse">
<stop stop-color="#DE701D"/>
<stop offset="1" stop-color="#121212"/>
</linearGradient>
<linearGradient id="paint60_linear_259_3667" x1="1077.79" y1="941.968" x2="773.71" y2="917.576" gradientUnits="userSpaceOnUse">
<stop stop-color="#DE701D"/>
<stop offset="1" stop-color="#121212"/>
</linearGradient>
<linearGradient id="paint61_linear_259_3667" x1="1078" y1="939.362" x2="773.538" y2="920.281" gradientUnits="userSpaceOnUse">
<stop stop-color="#DE701D"/>
<stop offset="1" stop-color="#121212"/>
</linearGradient>
<linearGradient id="paint62_linear_259_3667" x1="1078.16" y1="936.758" x2="773.415" y2="922.993" gradientUnits="userSpaceOnUse">
<stop stop-color="#DE701D"/>
<stop offset="1" stop-color="#121212"/>
</linearGradient>
<linearGradient id="paint63_linear_259_3667" x1="1078.28" y1="934.147" x2="773.338" y2="925.702" gradientUnits="userSpaceOnUse">
<stop stop-color="#DE701D"/>
<stop offset="1" stop-color="#121212"/>
</linearGradient>
<linearGradient id="paint64_linear_259_3667" x1="1078.35" y1="931.537" x2="773.309" y2="928.416" gradientUnits="userSpaceOnUse">
<stop stop-color="#DE701D"/>
<stop offset="1" stop-color="#121212"/>
</linearGradient>
<linearGradient id="paint65_linear_259_3667" x1="1078.38" y1="928.924" x2="773.326" y2="931.127" gradientUnits="userSpaceOnUse">
<stop stop-color="#DE701D"/>
<stop offset="1" stop-color="#121212"/>
</linearGradient>
<linearGradient id="paint66_linear_259_3667" x1="1078.36" y1="926.311" x2="773.393" y2="933.838" gradientUnits="userSpaceOnUse">
<stop stop-color="#DE701D"/>
<stop offset="1" stop-color="#121212"/>
</linearGradient>
<linearGradient id="paint67_linear_259_3667" x1="1078.29" y1="923.703" x2="773.504" y2="936.551" gradientUnits="userSpaceOnUse">
<stop stop-color="#DE701D"/>
<stop offset="1" stop-color="#121212"/>
</linearGradient>
<linearGradient id="paint68_linear_259_3667" x1="1078.18" y1="921.091" x2="773.664" y2="939.256" gradientUnits="userSpaceOnUse">
<stop stop-color="#DE701D"/>
<stop offset="1" stop-color="#121212"/>
</linearGradient>
<linearGradient id="paint69_linear_259_3667" x1="1078.03" y1="918.487" x2="773.872" y2="941.964" gradientUnits="userSpaceOnUse">
<stop stop-color="#DE701D"/>
<stop offset="1" stop-color="#121212"/>
</linearGradient>
<linearGradient id="paint70_linear_259_3667" x1="1077.82" y1="915.882" x2="774.126" y2="944.663" gradientUnits="userSpaceOnUse">
<stop stop-color="#DE701D"/>
<stop offset="1" stop-color="#121212"/>
</linearGradient>
<linearGradient id="paint71_linear_259_3667" x1="1077.58" y1="913.279" x2="774.427" y2="947.356" gradientUnits="userSpaceOnUse">
<stop stop-color="#DE701D"/>
<stop offset="1" stop-color="#121212"/>
</linearGradient>
<linearGradient id="paint72_linear_259_3667" x1="1077.28" y1="910.684" x2="774.777" y2="950.047" gradientUnits="userSpaceOnUse">
<stop stop-color="#DE701D"/>
<stop offset="1" stop-color="#121212"/>
</linearGradient>
<linearGradient id="paint73_linear_259_3667" x1="1076.95" y1="908.098" x2="775.172" y2="952.734" gradientUnits="userSpaceOnUse">
<stop stop-color="#DE701D"/>
<stop offset="1" stop-color="#121212"/>
</linearGradient>
<linearGradient id="paint74_linear_259_3667" x1="1076.56" y1="905.514" x2="775.614" y2="955.41" gradientUnits="userSpaceOnUse">
<stop stop-color="#DE701D"/>
<stop offset="1" stop-color="#121212"/>
</linearGradient>
<linearGradient id="paint75_linear_259_3667" x1="1076.14" y1="902.938" x2="776.105" y2="958.079" gradientUnits="userSpaceOnUse">
<stop stop-color="#DE701D"/>
<stop offset="1" stop-color="#121212"/>
</linearGradient>
<linearGradient id="paint76_linear_259_3667" x1="1075.66" y1="900.365" x2="776.639" y2="960.734" gradientUnits="userSpaceOnUse">
<stop stop-color="#DE701D"/>
<stop offset="1" stop-color="#121212"/>
</linearGradient>
<linearGradient id="paint77_linear_259_3667" x1="1075.15" y1="897.805" x2="777.221" y2="963.384" gradientUnits="userSpaceOnUse">
<stop stop-color="#DE701D"/>
<stop offset="1" stop-color="#121212"/>
</linearGradient>
<linearGradient id="paint78_linear_259_3667" x1="1074.59" y1="895.256" x2="777.849" y2="966.024" gradientUnits="userSpaceOnUse">
<stop stop-color="#DE701D"/>
<stop offset="1" stop-color="#121212"/>
</linearGradient>
<linearGradient id="paint79_linear_259_3667" x1="1073.98" y1="892.712" x2="778.523" y2="968.647" gradientUnits="userSpaceOnUse">
<stop stop-color="#DE701D"/>
<stop offset="1" stop-color="#121212"/>
</linearGradient>
<linearGradient id="paint80_linear_259_3667" x1="1073.33" y1="890.187" x2="779.243" y2="971.268" gradientUnits="userSpaceOnUse">
<stop stop-color="#DE701D"/>
<stop offset="1" stop-color="#121212"/>
</linearGradient>
<linearGradient id="paint81_linear_259_3667" x1="1072.63" y1="887.666" x2="780.008" y2="973.867" gradientUnits="userSpaceOnUse">
<stop stop-color="#DE701D"/>
<stop offset="1" stop-color="#121212"/>
</linearGradient>
<linearGradient id="paint82_linear_259_3667" x1="1071.89" y1="885.161" x2="780.818" y2="976.456" gradientUnits="userSpaceOnUse">
<stop stop-color="#DE701D"/>
<stop offset="1" stop-color="#121212"/>
</linearGradient>
<linearGradient id="paint83_linear_259_3667" x1="1071.11" y1="882.669" x2="781.674" y2="979.03" gradientUnits="userSpaceOnUse">
<stop stop-color="#DE701D"/>
<stop offset="1" stop-color="#121212"/>
</linearGradient>
<linearGradient id="paint84_linear_259_3667" x1="1070.29" y1="880.193" x2="782.575" y2="981.591" gradientUnits="userSpaceOnUse">
<stop stop-color="#DE701D"/>
<stop offset="1" stop-color="#121212"/>
</linearGradient>
<linearGradient id="paint85_linear_259_3667" x1="1069.42" y1="877.73" x2="783.519" y2="984.133" gradientUnits="userSpaceOnUse">
<stop stop-color="#DE701D"/>
<stop offset="1" stop-color="#121212"/>
</linearGradient>
<linearGradient id="paint86_linear_259_3667" x1="1068.51" y1="875.28" x2="784.509" y2="986.657" gradientUnits="userSpaceOnUse">
<stop stop-color="#DE701D"/>
<stop offset="1" stop-color="#121212"/>
</linearGradient>
<linearGradient id="paint87_linear_259_3667" x1="1067.55" y1="872.85" x2="785.541" y2="989.167" gradientUnits="userSpaceOnUse">
<stop stop-color="#DE701D"/>
<stop offset="1" stop-color="#121212"/>
</linearGradient>
<linearGradient id="paint88_linear_259_3667" x1="1066.56" y1="870.437" x2="786.618" y2="991.657" gradientUnits="userSpaceOnUse">
<stop stop-color="#DE701D"/>
<stop offset="1" stop-color="#121212"/>
</linearGradient>
<linearGradient id="paint89_linear_259_3667" x1="1065.52" y1="868.041" x2="787.737" y2="994.129" gradientUnits="userSpaceOnUse">
<stop stop-color="#DE701D"/>
<stop offset="1" stop-color="#121212"/>
</linearGradient>
<linearGradient id="paint90_linear_259_3667" x1="1064.44" y1="865.661" x2="788.9" y2="996.578" gradientUnits="userSpaceOnUse">
<stop stop-color="#DE701D"/>
<stop offset="1" stop-color="#121212"/>
</linearGradient>
<linearGradient id="paint91_linear_259_3667" x1="1063.32" y1="863.305" x2="790.108" y2="999.01" gradientUnits="userSpaceOnUse">
<stop stop-color="#DE701D"/>
<stop offset="1" stop-color="#121212"/>
</linearGradient>
<linearGradient id="paint92_linear_259_3667" x1="1062.15" y1="860.964" x2="791.353" y2="1001.42" gradientUnits="userSpaceOnUse">
<stop stop-color="#DE701D"/>
<stop offset="1" stop-color="#121212"/>
</linearGradient>
<linearGradient id="paint93_linear_259_3667" x1="1060.95" y1="858.645" x2="792.643" y2="1003.8" gradientUnits="userSpaceOnUse">
<stop stop-color="#DE701D"/>
<stop offset="1" stop-color="#121212"/>
</linearGradient>
<linearGradient id="paint94_linear_259_3667" x1="1059.71" y1="856.347" x2="793.975" y2="1006.17" gradientUnits="userSpaceOnUse">
<stop stop-color="#DE701D"/>
<stop offset="1" stop-color="#121212"/>
</linearGradient>
<linearGradient id="paint95_linear_259_3667" x1="1058.43" y1="854.073" x2="795.346" y2="1008.51" gradientUnits="userSpaceOnUse">
<stop stop-color="#DE701D"/>
<stop offset="1" stop-color="#121212"/>
</linearGradient>
<linearGradient id="paint96_linear_259_3667" x1="1057.1" y1="851.822" x2="796.758" y2="1010.82" gradientUnits="userSpaceOnUse">
<stop stop-color="#DE701D"/>
<stop offset="1" stop-color="#121212"/>
</linearGradient>
<linearGradient id="paint97_linear_259_3667" x1="1055.74" y1="849.594" x2="798.213" y2="1013.11" gradientUnits="userSpaceOnUse">
<stop stop-color="#DE701D"/>
<stop offset="1" stop-color="#121212"/>
</linearGradient>
<linearGradient id="paint98_linear_259_3667" x1="1054.34" y1="847.386" x2="799.702" y2="1015.38" gradientUnits="userSpaceOnUse">
<stop stop-color="#DE701D"/>
<stop offset="1" stop-color="#121212"/>
</linearGradient>
<linearGradient id="paint99_linear_259_3667" x1="1052.9" y1="845.208" x2="801.235" y2="1017.62" gradientUnits="userSpaceOnUse">
<stop stop-color="#DE701D"/>
<stop offset="1" stop-color="#121212"/>
</linearGradient>
</defs>
</svg>
