<svg width="218" height="33" viewBox="0 0 218 33" fill="none" xmlns="http://www.w3.org/2000/svg">
<path d="M2.16599 26V8.72H5.45399V15.824H13.158V8.72H16.446V26H13.158V18.872H5.45399V26H2.16599ZM27.2304 26.36C25.9344 26.36 24.7664 26.144 23.7264 25.712C22.6944 25.28 21.8184 24.668 21.0984 23.876C20.3784 23.084 19.8224 22.136 19.4304 21.032C19.0464 19.928 18.8544 18.704 18.8544 17.36C18.8544 16.016 19.0464 14.792 19.4304 13.688C19.8224 12.584 20.3784 11.636 21.0984 10.844C21.8184 10.052 22.6944 9.44 23.7264 9.008C24.7664 8.576 25.9344 8.36 27.2304 8.36C28.5264 8.36 29.6904 8.576 30.7224 9.008C31.7624 9.44 32.6424 10.052 33.3624 10.844C34.0824 11.636 34.6344 12.584 35.0184 13.688C35.4104 14.792 35.6064 16.016 35.6064 17.36C35.6064 18.704 35.4104 19.928 35.0184 21.032C34.6344 22.136 34.0824 23.084 33.3624 23.876C32.6424 24.668 31.7624 25.28 30.7224 25.712C29.6904 26.144 28.5264 26.36 27.2304 26.36ZM27.2304 23.288C28.0544 23.288 28.7744 23.148 29.3904 22.868C30.0064 22.588 30.5184 22.192 30.9264 21.68C31.3344 21.16 31.6384 20.536 31.8384 19.808C32.0464 19.072 32.1504 18.256 32.1504 17.36C32.1504 16.456 32.0464 15.64 31.8384 14.912C31.6384 14.184 31.3344 13.564 30.9264 13.052C30.5184 12.532 30.0064 12.132 29.3904 11.852C28.7744 11.572 28.0544 11.432 27.2304 11.432C26.4064 11.432 25.6864 11.572 25.0704 11.852C24.4544 12.132 23.9424 12.532 23.5344 13.052C23.1264 13.564 22.8184 14.184 22.6104 14.912C22.4104 15.64 22.3104 16.456 22.3104 17.36C22.3104 18.256 22.4104 19.072 22.6104 19.808C22.8184 20.536 23.1264 21.16 23.5344 21.68C23.9424 22.192 24.4544 22.588 25.0704 22.868C25.6864 23.148 26.4064 23.288 27.2304 23.288ZM44.8659 26H38.0019V8.72H44.6859C45.4779 8.72 46.2219 8.816 46.9179 9.008C47.6219 9.2 48.2339 9.488 48.7539 9.872C49.2739 10.248 49.6859 10.724 49.9899 11.3C50.2939 11.868 50.4459 12.532 50.4459 13.292C50.4459 13.852 50.3659 14.348 50.2059 14.78C50.0539 15.204 49.8579 15.572 49.6179 15.884C49.3859 16.188 49.1299 16.432 48.8499 16.616C48.5699 16.8 48.3019 16.932 48.0459 17.012C48.3739 17.068 48.7099 17.196 49.0539 17.396C49.4059 17.596 49.7259 17.868 50.0139 18.212C50.3019 18.548 50.5379 18.964 50.7219 19.46C50.9139 19.948 51.0099 20.516 51.0099 21.164C51.0099 22.004 50.8459 22.732 50.5179 23.348C50.1899 23.956 49.7459 24.456 49.1859 24.848C48.6259 25.24 47.9739 25.532 47.2299 25.724C46.4859 25.908 45.6979 26 44.8659 26ZM44.7579 11.768H41.2899V15.596H44.7579C45.0859 15.596 45.3939 15.568 45.6819 15.512C45.9779 15.448 46.2339 15.344 46.4499 15.2C46.6659 15.056 46.8339 14.864 46.9539 14.624C47.0819 14.376 47.1459 14.064 47.1459 13.688C47.1459 13.312 47.0819 13 46.9539 12.752C46.8339 12.504 46.6659 12.308 46.4499 12.164C46.2339 12.02 45.9779 11.92 45.6819 11.864C45.3939 11.8 45.0859 11.768 44.7579 11.768ZM44.8659 22.952C45.2179 22.952 45.5659 22.928 45.9099 22.88C46.2539 22.824 46.5619 22.72 46.8339 22.568C47.1059 22.408 47.3259 22.184 47.4939 21.896C47.6619 21.608 47.7459 21.232 47.7459 20.768C47.7459 20.304 47.6619 19.932 47.4939 19.652C47.3259 19.364 47.1059 19.144 46.8339 18.992C46.5619 18.832 46.2539 18.728 45.9099 18.68C45.5659 18.624 45.2179 18.596 44.8659 18.596H41.2899V22.952H44.8659ZM56.6884 14.576H60.3604C61.4164 14.576 62.3364 14.704 63.1204 14.96C63.9124 15.216 64.5644 15.592 65.0764 16.088C65.5964 16.576 65.9844 17.172 66.2404 17.876C66.4964 18.58 66.6244 19.384 66.6244 20.288C66.6244 21.184 66.4964 21.988 66.2404 22.7C65.9844 23.404 65.5964 24.004 65.0764 24.5C64.5644 24.988 63.9124 25.36 63.1204 25.616C62.3364 25.872 61.4164 26 60.3604 26H53.4004V8.72H56.6884V14.576ZM60.3364 22.952C61.3284 22.952 62.0764 22.728 62.5804 22.28C63.0844 21.824 63.3364 21.16 63.3364 20.288C63.3364 19.416 63.0844 18.756 62.5804 18.308C62.0764 17.852 61.3284 17.624 60.3364 17.624H56.6884V22.952H60.3364ZM68.9284 26V8.72H72.2164V26H68.9284ZM82.5802 7.28C81.8842 7.28 81.2442 7.112 80.6602 6.776C80.0762 6.432 79.6122 5.968 79.2682 5.384C78.9322 4.8 78.7642 4.16 78.7642 3.464H81.2842C81.2842 3.704 81.3402 3.924 81.4522 4.124C81.5722 4.316 81.7282 4.472 81.9202 4.592C82.1202 4.704 82.3402 4.76 82.5802 4.76C82.8202 4.76 83.0362 4.704 83.2282 4.592C83.4282 4.472 83.5842 4.316 83.6962 4.124C83.8162 3.924 83.8762 3.704 83.8762 3.464H86.3962C86.3962 4.16 86.2242 4.8 85.8802 5.384C85.5442 5.968 85.0842 6.432 84.5002 6.776C83.9162 7.112 83.2762 7.28 82.5802 7.28ZM86.4202 26V14.36L78.8602 26H75.5722V8.72H78.8602V20.36L86.4202 8.72H89.7082V26H86.4202ZM104.701 26.36C103.397 26.36 102.233 26.16 101.209 25.76C100.193 25.36 99.3333 24.756 98.6293 23.948C97.9253 23.14 97.3893 22.128 97.0213 20.912L100.213 20.12C100.413 20.744 100.717 21.296 101.125 21.776C101.533 22.256 102.017 22.628 102.577 22.892C103.145 23.156 103.761 23.288 104.425 23.288C104.449 23.288 104.469 23.288 104.485 23.288C105.261 23.272 105.981 23.12 106.645 22.832C107.309 22.544 107.845 22.12 108.253 21.56C108.541 21.192 108.769 20.784 108.937 20.336C109.105 19.88 109.229 19.392 109.309 18.872H102.781V15.824H109.333C109.189 14.936 108.905 14.16 108.481 13.496C108.065 12.824 107.525 12.312 106.861 11.96C106.197 11.608 105.441 11.432 104.593 11.432C104.561 11.432 104.525 11.432 104.485 11.432C103.773 11.44 103.125 11.58 102.541 11.852C101.957 12.124 101.461 12.508 101.053 13.004C100.653 13.5 100.357 14.08 100.165 14.744L96.9013 14.288C97.1893 13.04 97.6853 11.972 98.3893 11.084C99.0933 10.196 99.9773 9.52 101.041 9.056C102.113 8.592 103.333 8.36 104.701 8.36C106.349 8.36 107.789 8.736 109.021 9.488C110.253 10.24 111.201 11.296 111.865 12.656C112.529 14.016 112.861 15.584 112.861 17.36C112.861 19.048 112.529 20.576 111.865 21.944C111.209 23.312 110.265 24.392 109.033 25.184C107.801 25.968 106.357 26.36 104.701 26.36ZM113.583 23.276C113.839 23.34 114.059 23.372 114.243 23.372C114.635 23.372 114.959 23.264 115.215 23.048C115.471 22.832 115.679 22.528 115.839 22.136C115.999 21.744 116.115 21.28 116.187 20.744C116.267 20.2 116.319 19.6 116.343 18.944C116.375 18.288 116.391 17.588 116.391 16.844C116.391 16.1 116.391 15.332 116.391 14.54V8.72H128.811V26H125.523V11.768H119.427V17.3C119.427 18.5 119.379 19.556 119.283 20.468C119.187 21.38 119.051 22.172 118.875 22.844C118.699 23.516 118.487 24.076 118.239 24.524C117.999 24.972 117.731 25.332 117.435 25.604C117.139 25.876 116.819 26.068 116.475 26.18C116.131 26.3 115.775 26.36 115.407 26.36C115.111 26.36 114.811 26.328 114.507 26.264C114.203 26.208 113.895 26.132 113.583 26.036V23.276ZM132.174 26V8.72H143.478V11.768H135.462V15.464H142.038V18.512H135.462V22.952H143.478V26H132.174ZM146.353 26V8.72H149.641L154.993 19.772L160.345 8.72H163.633V26H160.345V15.2L156.349 23.468H153.637L149.641 15.2V26H146.353ZM167.002 26V8.72H178.306V11.768H170.29V15.464H176.866V18.512H170.29V22.952H178.306V26H167.002ZM181.182 26V8.72H184.47V15.824H192.174V8.72H195.462V26H192.174V18.872H184.47V26H181.182ZM202.634 26V11.768H197.558V8.72H210.998V11.768H205.922V26H202.634Z" fill="white"/>
<rect x="212.234" y="21" width="5.00431" height="5" rx="2.5" fill="#DE701D"/>
</svg>
