<svg width="880" height="1858" viewBox="0 0 880 1858" fill="none" xmlns="http://www.w3.org/2000/svg">
<path d="M1038.57 697.535C1192.4 770.623 1319.32 862.702 1400.19 952.472C1440.62 997.358 1469.52 1041.65 1484.52 1082.68C1499.52 1123.71 1500.61 1161.44 1485.49 1193.26C1470.37 1225.09 1440.43 1248.08 1399.15 1262.37C1357.86 1276.65 1305.27 1282.22 1244.94 1279.23C1124.26 1273.24 972.704 1233.01 818.877 1159.92C665.05 1086.83 538.123 994.751 457.258 904.981C416.824 860.096 387.924 815.806 372.924 774.776C357.925 733.747 356.836 696.016 371.958 664.191C387.079 632.365 417.017 609.376 458.299 595.088C499.583 580.799 552.173 575.229 612.511 578.223C733.184 584.21 884.742 624.447 1038.57 697.535Z" stroke="url(#paint0_linear_252_6824)" stroke-opacity="0.3"/>
<path d="M1042.59 699.489C1195.12 775.251 1320.42 869.531 1399.7 960.698C1439.35 1006.28 1467.47 1051.07 1481.75 1092.36C1496.03 1133.64 1496.46 1171.38 1480.79 1202.94C1465.11 1234.5 1434.78 1256.96 1393.25 1270.53C1351.73 1284.09 1299.05 1288.74 1238.77 1284.7C1118.22 1276.61 967.389 1233.73 814.861 1157.97C662.333 1082.21 537.033 987.926 457.746 896.759C418.102 851.174 389.979 806.387 375.698 765.101C361.417 723.817 360.987 686.073 376.661 654.516C392.336 622.959 422.671 600.496 464.196 586.931C505.723 573.365 558.402 568.713 618.678 572.759C739.229 580.852 890.062 623.728 1042.59 699.489Z" stroke="url(#paint1_linear_252_6824)" stroke-opacity="0.3"/>
<path d="M1046.57 701.513C1197.75 779.925 1321.39 876.378 1399.07 968.915C1437.92 1015.18 1465.25 1060.46 1478.81 1101.98C1492.37 1143.51 1492.14 1181.26 1475.92 1212.54C1459.69 1243.81 1428.97 1265.75 1387.22 1278.58C1345.46 1291.42 1292.71 1295.15 1232.51 1290.06C1112.12 1279.86 962.058 1234.36 810.876 1155.95C659.694 1077.54 536.058 981.083 458.374 888.546C419.532 842.276 392.195 797.005 378.636 755.476C365.078 713.949 365.307 676.203 381.529 644.925C397.752 613.646 428.475 591.716 470.23 578.878C511.987 566.038 564.74 562.307 624.936 567.404C745.327 577.599 895.389 623.102 1046.57 701.513Z" stroke="url(#paint2_linear_252_6824)" stroke-opacity="0.3"/>
<path d="M1050.52 703.601C1200.31 784.639 1322.24 883.235 1398.3 977.114C1436.33 1024.05 1462.87 1069.8 1475.7 1111.56C1488.54 1153.31 1487.65 1191.05 1470.88 1222.04C1454.12 1253.03 1423.02 1274.42 1381.04 1286.53C1339.07 1298.64 1286.26 1301.45 1226.16 1295.3C1105.96 1283.01 956.72 1234.89 806.929 1153.85C657.138 1072.81 535.204 974.219 459.148 880.34C421.119 833.399 394.576 787.658 381.744 745.899C368.913 704.141 369.8 666.405 386.567 635.415C403.333 604.424 434.433 583.033 476.406 570.925C518.381 558.817 571.191 556.007 631.289 562.154C751.484 574.449 900.729 622.563 1050.52 703.601Z" stroke="url(#paint3_linear_252_6824)" stroke-opacity="0.3"/>
<path d="M1054.43 705.766C1202.78 789.406 1322.98 890.115 1397.38 985.307C1434.59 1032.9 1460.33 1079.1 1472.43 1121.08C1484.53 1163.05 1482.98 1200.77 1465.68 1231.46C1448.38 1262.15 1416.91 1283 1374.73 1294.37C1332.55 1305.75 1279.7 1307.64 1219.72 1300.44C1099.75 1286.05 951.372 1235.34 803.018 1151.7C654.665 1068.06 534.47 967.349 460.063 872.157C422.859 824.56 397.119 778.363 385.017 736.385C372.917 694.411 374.463 656.696 391.768 626.002C409.072 595.309 440.541 574.464 482.719 563.091C524.899 551.717 577.75 549.829 637.732 557.024C757.693 571.414 906.076 622.126 1054.43 705.766Z" stroke="url(#paint4_linear_252_6824)" stroke-opacity="0.3"/>
<path d="M1058.3 707.991C1205.18 794.207 1323.59 896.998 1396.33 993.474C1432.7 1041.71 1457.63 1088.35 1468.99 1130.53C1480.36 1172.71 1478.15 1210.4 1460.32 1240.78C1442.48 1271.17 1410.65 1291.46 1368.28 1302.1C1325.91 1312.73 1273.03 1313.7 1213.19 1305.46C1093.49 1288.98 946.02 1235.68 799.148 1149.47C652.277 1063.25 533.858 960.459 461.125 863.983C424.757 815.744 399.827 769.104 388.46 726.922C377.093 684.743 379.298 647.06 397.135 616.674C414.973 586.287 446.801 565.995 489.171 555.359C531.543 544.723 584.418 543.757 644.266 551.999C763.958 568.48 911.432 621.774 1058.3 707.991Z" stroke="url(#paint5_linear_252_6824)" stroke-opacity="0.3"/>
<path d="M1062.13 710.287C1207.48 799.054 1324.09 903.896 1395.12 1001.63C1430.64 1050.49 1454.76 1097.56 1465.39 1139.93C1476.01 1182.31 1473.15 1219.94 1454.79 1250.02C1436.42 1280.09 1404.25 1299.82 1361.7 1309.71C1319.14 1319.61 1266.26 1319.65 1206.57 1310.37C1087.18 1291.8 940.658 1235.94 795.314 1147.17C649.969 1058.41 533.363 953.564 462.324 855.834C426.804 806.967 402.691 759.9 392.062 717.526C381.433 675.154 384.295 637.516 402.66 607.446C421.025 577.375 453.203 557.641 495.752 547.747C538.303 537.852 591.188 537.809 650.882 547.093C770.268 565.662 916.79 621.521 1062.13 710.287Z" stroke="url(#paint6_linear_252_6824)" stroke-opacity="0.3"/>
<path d="M1065.93 712.645C1209.7 803.935 1324.46 910.796 1393.78 1009.75C1428.44 1059.23 1451.73 1106.71 1461.62 1149.26C1471.51 1191.82 1467.99 1229.4 1449.1 1259.14C1430.21 1288.89 1397.7 1308.06 1354.98 1317.21C1312.26 1326.36 1259.39 1325.48 1199.86 1315.15C1080.82 1294.51 935.295 1236.1 791.522 1144.81C647.749 1053.52 532.99 946.657 463.667 847.701C429.005 798.222 405.718 750.741 395.83 708.188C385.942 665.637 389.461 628.055 408.348 598.309C427.235 568.564 459.752 549.395 502.467 540.244C545.184 531.094 598.062 531.974 657.585 542.298C776.629 562.947 922.154 621.355 1065.93 712.645Z" stroke="url(#paint7_linear_252_6824)" stroke-opacity="0.3"/>
<path d="M1069.68 715.071C1211.84 808.856 1324.71 917.704 1392.3 1017.85C1426.09 1067.93 1448.55 1115.81 1457.69 1158.53C1466.83 1201.25 1462.66 1238.76 1443.26 1268.17C1423.85 1297.58 1391.01 1316.18 1348.14 1324.59C1305.27 1332.99 1252.41 1331.19 1193.08 1319.83C1074.41 1297.1 929.93 1236.16 787.772 1142.38C645.615 1048.59 532.738 939.746 465.153 839.595C431.36 789.519 408.904 741.639 399.761 698.92C390.617 656.203 394.791 618.688 414.194 589.276C433.598 559.865 466.444 541.266 509.313 532.863C552.183 524.459 605.037 526.262 664.371 537.624C783.036 560.347 927.52 621.286 1069.68 715.071Z" stroke="url(#paint8_linear_252_6824)" stroke-opacity="0.3"/>
<path d="M1073.38 717.566C1213.88 813.818 1324.84 924.619 1390.67 1025.93C1423.58 1076.59 1445.2 1124.86 1453.6 1167.73C1461.99 1210.6 1457.16 1248.04 1437.25 1277.1C1417.34 1306.17 1384.17 1324.2 1341.16 1331.85C1298.15 1339.5 1245.34 1336.78 1186.21 1324.38C1067.96 1299.59 924.562 1236.14 784.063 1139.89C643.564 1043.64 532.604 932.836 466.777 831.521C433.863 780.863 412.247 732.598 403.85 689.726C395.454 646.856 400.281 609.419 420.195 580.351C440.109 551.283 473.275 533.26 516.283 525.606C559.294 517.952 612.108 520.677 671.235 533.073C789.486 557.864 932.884 621.315 1073.38 717.566Z" stroke="url(#paint9_linear_252_6824)" stroke-opacity="0.3"/>
<path d="M1077.05 720.124C1215.85 818.813 1324.86 931.534 1388.9 1033.98C1420.93 1085.21 1441.7 1133.84 1449.35 1176.85C1456.99 1219.86 1451.51 1257.21 1431.1 1285.93C1410.68 1314.64 1377.2 1332.08 1334.07 1338.99C1290.93 1345.89 1238.17 1342.24 1179.27 1328.82C1061.47 1301.97 919.2 1236.02 780.402 1137.33C641.604 1038.64 532.595 925.923 468.546 823.475C436.521 772.249 415.75 723.615 408.103 680.602C400.456 637.593 405.936 600.246 426.354 571.53C446.772 542.813 480.248 525.372 523.384 518.47C566.522 511.567 619.28 515.214 678.181 528.639C795.981 555.49 938.25 621.434 1077.05 720.124Z" stroke="url(#paint10_linear_252_6824)" stroke-opacity="0.3"/>
<path d="M1080.67 722.744C1217.72 823.84 1324.75 938.447 1387 1042C1418.12 1093.77 1438.04 1142.76 1444.94 1185.9C1451.83 1229.04 1445.7 1266.28 1424.79 1294.64C1403.87 1323 1370.1 1339.85 1326.85 1346C1283.59 1352.15 1230.91 1347.58 1172.25 1333.13C1054.94 1304.23 913.839 1235.81 776.785 1134.71C639.73 1033.62 532.705 919.01 470.454 815.459C439.328 763.683 419.409 714.693 412.514 671.554C405.619 628.417 411.75 591.172 432.666 562.816C453.582 534.461 487.357 517.606 530.606 511.458C573.858 505.309 626.545 509.876 685.203 524.328C802.517 553.231 943.613 621.647 1080.67 722.744Z" stroke="url(#paint11_linear_252_6824)" stroke-opacity="0.3"/>
<path d="M1084.24 725.427C1219.51 828.9 1324.52 945.357 1384.95 1049.98C1415.17 1102.29 1434.23 1151.62 1440.37 1194.87C1446.51 1238.12 1439.73 1275.26 1418.32 1303.24C1396.92 1331.23 1362.85 1347.49 1319.5 1352.88C1276.15 1358.28 1223.55 1352.79 1165.15 1337.32C1048.36 1306.37 908.481 1235.5 773.212 1132.03C637.942 1028.56 532.933 912.1 472.499 807.479C442.282 755.167 423.221 705.837 417.079 662.584C410.938 619.334 417.718 582.201 439.126 554.215C460.534 526.229 494.598 509.966 537.948 504.574C581.3 499.181 633.9 504.666 692.297 520.139C809.088 551.085 948.968 621.954 1084.24 725.427Z" stroke="url(#paint12_linear_252_6824)" stroke-opacity="0.3"/>
<path d="M1087.76 728.171C1221.2 833.989 1324.16 952.261 1382.76 1057.92C1412.06 1110.75 1430.26 1160.41 1435.65 1203.76C1441.03 1247.11 1433.6 1284.12 1411.71 1311.73C1389.82 1339.34 1355.48 1355 1312.04 1359.64C1268.6 1364.27 1216.1 1357.87 1157.99 1341.38C1041.75 1308.4 903.129 1235.1 769.686 1129.28C636.244 1023.47 533.283 905.194 474.684 799.534C445.384 746.703 427.187 697.048 421.801 653.694C416.416 610.343 423.843 573.334 445.736 545.726C467.629 518.118 501.972 502.452 545.409 497.817C588.849 493.182 641.345 499.584 699.463 516.074C815.696 549.054 954.318 622.353 1087.76 728.171Z" stroke="url(#paint13_linear_252_6824)" stroke-opacity="0.3"/>
<path d="M1091.24 730.981C1222.81 839.112 1323.69 959.162 1380.44 1065.83C1408.81 1119.16 1426.14 1169.13 1430.77 1212.57C1435.4 1256.01 1427.33 1292.88 1404.95 1320.1C1382.58 1347.32 1347.97 1362.39 1304.46 1366.27C1260.95 1370.14 1208.57 1362.82 1150.75 1345.32C1035.11 1310.32 897.787 1234.61 766.211 1126.48C634.635 1018.35 533.755 898.3 477.009 791.633C448.635 738.299 431.307 688.334 426.679 644.893C422.051 601.455 430.123 564.581 452.495 537.359C474.866 510.137 509.477 495.073 552.989 491.197C596.503 487.32 648.879 494.638 706.7 512.14C822.34 547.143 959.662 622.85 1091.24 730.981Z" stroke="url(#paint14_linear_252_6824)" stroke-opacity="0.3"/>
<path d="M1094.66 733.843C1224.33 844.253 1323.1 966.046 1377.98 1073.69C1405.42 1127.51 1421.87 1177.77 1425.74 1221.28C1429.61 1264.8 1420.89 1301.52 1398.05 1328.35C1375.21 1355.18 1340.34 1369.64 1296.77 1372.75C1253.19 1375.87 1200.95 1367.64 1143.44 1349.13C1028.43 1312.11 892.453 1234.02 762.784 1123.61C633.115 1013.2 534.345 891.407 479.469 783.766C452.031 729.945 435.578 679.685 431.709 636.17C427.839 592.657 436.554 555.93 459.397 529.103C482.24 502.275 517.108 487.818 560.681 484.702C604.257 481.585 656.497 489.816 714.004 508.324C829.015 545.34 964.995 623.432 1094.66 733.843Z" stroke="url(#paint15_linear_252_6824)" stroke-opacity="0.3"/>
<path d="M1098.04 736.77C1225.76 849.427 1322.39 972.925 1375.38 1081.51C1401.88 1135.8 1417.45 1186.34 1420.56 1229.91C1423.67 1273.49 1414.31 1310.06 1391.01 1336.48C1367.7 1362.91 1332.58 1376.75 1288.96 1379.11C1245.34 1381.46 1193.25 1372.32 1136.08 1352.81C1021.73 1313.8 887.131 1233.34 759.409 1120.69C631.687 1008.03 535.057 884.531 482.068 775.949C455.573 721.658 440 671.118 436.891 627.542C433.782 583.969 443.136 547.399 466.443 520.975C489.751 494.55 524.867 480.703 568.487 478.348C612.11 475.992 664.199 485.133 721.374 504.642C835.722 543.66 970.319 624.114 1098.04 736.77Z" stroke="url(#paint16_linear_252_6824)" stroke-opacity="0.3"/>
<path d="M1101.36 739.757C1227.1 854.626 1321.56 979.791 1372.65 1089.28C1398.19 1144.03 1412.88 1194.83 1415.23 1238.45C1417.58 1282.08 1407.58 1318.48 1383.82 1344.49C1360.05 1370.5 1324.7 1383.74 1281.05 1385.33C1237.39 1386.92 1185.47 1376.87 1128.64 1356.37C1014.99 1315.36 881.821 1232.57 756.084 1117.7C630.348 1002.84 535.888 877.67 484.802 768.18C459.259 713.434 444.57 662.63 442.222 619.007C439.874 575.385 449.864 538.985 473.63 512.971C497.395 486.957 532.747 473.725 576.402 472.132C620.06 470.538 671.981 480.587 728.807 501.09C842.456 542.098 975.628 624.888 1101.36 739.757Z" stroke="url(#paint17_linear_252_6824)" stroke-opacity="0.3"/>
<path d="M1104.64 742.796C1228.35 859.842 1320.61 986.637 1369.78 1097C1394.36 1152.19 1408.16 1203.24 1409.75 1246.9C1411.33 1290.55 1400.71 1326.77 1376.49 1352.37C1352.28 1377.96 1316.7 1390.57 1273.02 1391.41C1229.35 1392.24 1177.61 1381.28 1121.15 1359.79C1008.23 1316.81 876.525 1231.71 752.812 1114.66C629.1 997.615 536.839 870.819 487.672 760.455C463.088 705.271 449.288 654.219 447.701 610.561C446.114 566.905 456.739 530.685 480.955 505.09C505.17 479.494 540.748 466.882 584.424 466.05C628.103 465.218 679.841 476.172 736.3 497.664C849.217 540.649 980.923 625.751 1104.64 742.796Z" stroke="url(#paint18_linear_252_6824)" stroke-opacity="0.3"/>
<path d="M1107.85 745.894C1229.51 865.081 1319.54 993.467 1366.77 1104.67C1390.39 1160.28 1403.3 1211.56 1404.12 1255.24C1404.95 1298.92 1393.69 1334.95 1369.03 1360.12C1344.37 1385.29 1308.58 1397.28 1264.9 1397.34C1221.21 1397.41 1169.67 1385.56 1113.6 1363.08C1001.45 1318.14 871.246 1230.75 749.595 1111.56C627.944 992.375 537.91 863.988 490.676 752.782C467.059 697.178 454.152 645.893 453.328 602.214C452.503 558.537 463.758 522.508 488.417 497.339C513.076 472.17 548.868 460.18 592.552 460.111C636.239 460.042 687.778 471.897 743.853 494.371C856.003 539.32 986.204 626.708 1107.85 745.894Z" stroke="url(#paint19_linear_252_6824)" stroke-opacity="0.3"/>
<path d="M1111.02 749.05C1230.57 870.342 1318.35 1000.28 1363.64 1112.29C1386.28 1168.3 1398.29 1219.8 1398.35 1263.49C1398.41 1307.18 1386.53 1343 1361.44 1367.74C1336.34 1392.47 1300.35 1403.84 1256.67 1403.14C1212.99 1402.45 1161.66 1389.7 1105.99 1366.25C994.639 1319.35 865.983 1229.7 746.43 1108.41C626.878 987.117 539.099 857.18 493.813 745.166C471.17 689.158 459.16 637.655 459.098 593.969C459.036 550.285 470.918 514.457 496.012 489.722C521.107 464.988 557.103 453.624 600.781 454.317C644.462 455.011 695.786 467.763 751.461 491.213C862.809 538.112 991.466 627.759 1111.02 749.05Z" stroke="url(#paint20_linear_252_6824)" stroke-opacity="0.3"/>
<path d="M1114.13 752.258C1231.54 875.618 1317.04 1007.07 1360.36 1119.85C1382.03 1176.25 1393.14 1227.95 1392.44 1271.64C1391.74 1315.31 1379.23 1350.93 1353.71 1375.22C1328.19 1399.51 1292 1410.25 1248.34 1408.79C1204.67 1407.34 1153.58 1393.69 1098.32 1369.27C987.811 1320.44 860.739 1228.56 743.322 1105.2C625.905 981.84 540.406 850.39 497.083 737.603C475.42 681.208 464.311 629.504 465.011 585.823C465.712 542.144 478.217 506.529 503.74 482.236C529.262 457.944 565.45 447.21 609.11 448.665C652.773 450.121 703.866 463.767 759.124 488.185C869.636 537.02 996.708 628.899 1114.13 752.258Z" stroke="url(#paint21_linear_252_6824)" stroke-opacity="0.3"/>
<path d="M1117.18 755.518C1232.42 880.908 1315.62 1013.83 1356.96 1127.36C1377.64 1184.12 1387.84 1236.01 1386.38 1279.67C1384.92 1323.33 1371.79 1358.72 1345.85 1382.57C1319.91 1406.41 1283.54 1416.51 1239.91 1414.29C1196.28 1412.08 1145.43 1397.54 1090.61 1372.16C980.967 1321.41 855.517 1227.32 740.271 1101.93C625.024 976.544 541.833 843.622 500.485 730.096C479.81 673.332 469.605 621.441 471.067 577.779C472.53 534.119 485.655 498.728 511.597 474.884C537.54 451.041 573.91 440.941 617.538 443.158C661.168 445.375 712.016 459.91 766.839 485.289C876.482 536.045 1001.93 630.128 1117.18 755.518Z" stroke="url(#paint22_linear_252_6824)" stroke-opacity="0.3"/>
<path d="M1120.17 758.835C1233.21 886.217 1314.07 1020.57 1353.43 1134.8C1373.11 1191.92 1382.41 1243.98 1380.19 1287.61C1377.96 1331.24 1364.22 1366.39 1337.87 1389.78C1311.51 1413.17 1274.97 1422.63 1231.39 1419.65C1187.8 1416.67 1137.22 1401.25 1082.85 1374.92C974.105 1322.26 850.317 1226 737.276 1098.62C624.236 971.237 543.377 836.884 504.016 722.654C484.335 665.537 475.037 613.477 477.262 569.847C479.486 526.219 493.227 491.062 519.581 467.675C545.936 444.288 582.477 434.824 626.059 437.802C669.644 440.78 720.231 456.201 774.602 482.533C883.343 535.195 1007.13 631.452 1120.17 758.835Z" stroke="url(#paint23_linear_252_6824)" stroke-opacity="0.3"/>
<path d="M1123.11 762.202C1233.91 891.538 1312.41 1027.28 1349.77 1142.18C1368.45 1199.63 1376.84 1251.85 1373.85 1295.43C1370.87 1339.01 1356.52 1373.93 1329.76 1396.85C1303 1419.77 1266.3 1428.6 1222.77 1424.86C1179.25 1421.12 1128.94 1404.82 1075.04 1377.54C967.23 1322.99 845.141 1224.59 734.341 1095.25C623.54 965.917 545.039 830.173 507.677 715.273C488.996 657.822 480.608 605.607 483.594 562.023C486.579 518.44 500.931 483.529 527.69 460.605C554.449 437.681 591.149 428.857 634.673 432.595C678.2 436.333 728.509 452.635 782.413 479.911C890.218 534.463 1012.31 632.866 1123.11 762.202Z" stroke="url(#paint24_linear_252_6824)" stroke-opacity="0.3"/>
<path d="M1125.98 765.62C1234.51 896.87 1310.63 1033.96 1345.98 1149.5C1363.66 1207.27 1371.13 1259.62 1367.39 1303.15C1363.64 1346.67 1348.68 1381.33 1321.53 1403.78C1294.37 1426.23 1257.52 1434.41 1214.07 1429.92C1170.62 1425.42 1120.6 1408.24 1067.18 1380.03C960.344 1323.6 839.99 1223.09 731.464 1091.84C622.938 960.586 546.818 823.492 511.467 707.958C493.791 650.19 486.316 597.836 490.062 554.31C493.807 510.787 508.766 476.131 535.921 453.678C563.076 431.225 599.925 423.042 643.377 427.539C686.832 432.037 736.849 449.214 790.268 477.427C897.105 533.852 1017.46 634.371 1125.98 765.62Z" stroke="url(#paint25_linear_252_6824)" stroke-opacity="0.3"/>
<path d="M1128.8 769.089C1235.02 902.213 1308.74 1040.61 1342.07 1156.75C1358.73 1214.82 1365.29 1267.29 1360.79 1310.75C1356.28 1354.2 1340.72 1388.59 1313.18 1410.56C1285.64 1432.54 1248.65 1440.08 1205.28 1434.82C1161.91 1429.57 1112.2 1411.52 1059.28 1382.38C953.449 1324.1 834.868 1221.49 728.649 1088.37C622.43 955.245 548.714 816.844 515.385 700.71C498.72 642.642 492.16 590.166 496.665 546.713C501.169 503.261 516.731 468.872 544.273 446.896C571.816 424.92 608.802 417.381 652.169 422.636C695.539 427.892 745.248 445.939 798.167 475.08C904.003 533.361 1022.58 635.965 1128.8 769.089Z" stroke="url(#paint26_linear_252_6824)" stroke-opacity="0.3"/>
<path d="M1131.56 772.604C1235.44 907.561 1306.73 1047.23 1338.02 1163.93C1353.67 1222.28 1359.32 1274.86 1354.05 1318.23C1348.79 1361.59 1332.63 1395.71 1304.71 1417.2C1276.79 1438.69 1239.68 1445.58 1196.41 1439.57C1153.14 1433.56 1103.75 1414.65 1051.35 1384.59C946.545 1324.47 829.772 1219.81 725.893 1084.85C622.014 949.894 550.724 810.228 519.427 693.53C503.778 635.18 498.135 582.598 503.397 539.229C508.659 495.863 524.819 461.75 552.741 440.258C580.662 418.766 617.774 411.874 661.043 417.885C704.314 423.897 753.702 442.809 806.104 472.869C910.906 532.988 1027.68 637.646 1131.56 772.604Z" stroke="url(#paint27_linear_252_6824)" stroke-opacity="0.3"/>
<path d="M1134.25 776.168C1235.76 912.918 1304.6 1053.81 1333.86 1171.03C1348.48 1229.65 1353.21 1282.32 1347.19 1325.59C1341.17 1368.86 1324.42 1402.68 1296.13 1423.69C1267.83 1444.69 1230.61 1450.93 1187.45 1444.16C1144.29 1437.4 1095.24 1417.63 1043.37 1386.66C939.634 1324.72 824.706 1218.04 723.198 1081.29C621.689 944.539 552.848 803.649 523.593 686.423C508.965 627.809 504.239 575.136 510.258 531.866C516.276 488.598 533.029 454.773 561.321 433.772C589.614 412.77 626.841 406.527 669.998 413.292C713.158 420.058 762.207 439.829 814.077 470.799C917.814 532.738 1032.74 639.418 1134.25 776.168Z" stroke="url(#paint28_linear_252_6824)" stroke-opacity="0.3"/>
<path d="M1136.88 779.777C1235.99 918.277 1302.36 1060.35 1329.56 1178.07C1343.17 1236.93 1346.97 1289.67 1340.2 1332.83C1333.43 1375.99 1316.09 1409.52 1287.43 1430.02C1258.78 1450.52 1221.45 1456.12 1178.41 1448.6C1135.38 1441.08 1086.68 1420.46 1035.36 1388.59C932.721 1324.85 819.672 1216.18 720.566 1077.68C621.46 939.176 555.088 797.107 527.883 679.388C514.28 620.527 510.475 567.78 517.248 524.621C524.02 481.465 541.36 447.937 570.015 427.433C598.67 406.929 636 401.336 679.033 408.854C722.068 416.371 770.765 436.996 822.086 468.866C924.726 532.606 1037.77 641.276 1136.88 779.777Z" stroke="url(#paint29_linear_252_6824)" stroke-opacity="0.3"/>
<path d="M1139.45 783.432C1236.12 923.641 1300.01 1066.85 1325.15 1185.02C1337.73 1244.11 1340.61 1296.92 1333.08 1339.95C1325.56 1382.98 1307.64 1416.2 1278.63 1436.2C1249.62 1456.21 1212.2 1461.15 1169.3 1452.88C1126.41 1444.61 1078.08 1423.14 1027.32 1390.38C925.808 1324.86 814.673 1214.23 717.999 1074.02C621.325 933.812 557.443 790.606 532.296 672.43C519.722 613.341 516.838 560.536 524.363 517.502C531.888 474.47 549.811 441.25 578.819 421.249C607.827 401.248 645.249 396.308 688.144 404.575C731.041 412.843 779.371 434.314 830.128 467.075C931.641 532.597 1042.78 643.223 1139.45 783.432Z" stroke="url(#paint30_linear_252_6824)" stroke-opacity="0.3"/>
<path d="M1141.95 787.129C1236.17 929.004 1297.54 1073.3 1320.62 1191.9C1332.16 1251.2 1334.12 1304.05 1325.85 1346.94C1317.57 1389.84 1299.07 1422.74 1269.72 1442.23C1240.37 1461.72 1202.87 1466.01 1160.12 1456.99C1117.37 1447.98 1069.43 1425.67 1019.25 1392.03C918.896 1324.74 809.709 1212.19 715.497 1070.32C621.284 928.444 559.911 784.144 536.831 665.548C525.29 606.248 523.328 553.4 531.603 510.505C539.878 467.611 558.378 434.709 587.731 415.217C617.083 395.725 654.586 391.439 697.33 400.453C740.076 409.469 788.024 431.78 838.202 465.422C938.555 532.705 1047.74 645.254 1141.95 787.129Z" stroke="url(#paint31_linear_252_6824)" stroke-opacity="0.3"/>
<path d="M1144.39 790.877C1236.12 934.375 1294.96 1079.72 1315.97 1198.7C1326.47 1258.2 1327.51 1311.07 1318.49 1353.82C1309.47 1396.56 1290.4 1429.13 1260.71 1448.11C1231.02 1467.09 1193.45 1470.72 1150.87 1460.96C1108.28 1451.2 1060.73 1428.05 1011.15 1393.54C911.986 1324.52 804.78 1210.08 713.058 1066.58C621.337 923.083 562.491 777.735 541.484 658.753C530.98 599.262 529.941 546.387 538.963 503.642C547.985 460.9 567.056 428.325 596.745 409.349C626.433 390.372 664.005 386.741 706.585 396.5C749.168 406.26 796.719 429.405 846.302 463.918C945.465 532.942 1052.67 647.379 1144.39 790.877Z" stroke="url(#paint32_linear_252_6824)" stroke-opacity="0.3"/>
<path d="M1146.76 794.66C1235.97 939.736 1292.27 1086.09 1311.19 1205.42C1320.66 1265.09 1320.77 1317.97 1311.01 1360.55C1301.24 1403.13 1281.6 1435.37 1251.59 1453.82C1221.57 1472.28 1183.94 1475.25 1141.54 1464.75C1099.14 1454.25 1052 1430.28 1003.02 1394.91C905.079 1324.16 799.886 1207.87 710.683 1062.79C621.479 917.718 565.179 771.364 546.252 652.034C536.788 592.368 536.672 539.484 546.439 496.903C556.205 454.324 575.842 422.088 605.857 403.632C635.872 385.177 673.502 382.202 715.905 392.703C758.311 403.204 805.451 427.175 854.424 462.548C952.368 533.293 1057.56 649.583 1146.76 794.66Z" stroke="url(#paint33_linear_252_6824)" stroke-opacity="0.3"/>
<path d="M1149.07 798.486C1235.73 945.097 1289.47 1092.41 1306.31 1212.05C1314.73 1271.87 1313.92 1324.75 1303.41 1367.16C1292.91 1409.56 1272.71 1441.45 1242.38 1459.38C1212.04 1477.31 1174.37 1479.62 1132.15 1468.38C1089.94 1457.14 1043.22 1432.35 994.876 1396.13C898.182 1323.69 795.035 1205.58 708.377 1058.97C621.719 912.357 567.982 765.043 551.14 645.401C542.719 585.579 543.525 532.701 554.034 490.297C564.542 447.895 584.738 416.006 615.071 398.077C645.404 380.148 683.079 377.831 725.293 389.07C767.509 400.31 814.223 425.1 862.572 461.322C959.266 533.766 1062.41 651.874 1149.07 798.486Z" stroke="url(#paint34_linear_252_6824)" stroke-opacity="0.3"/>
<path d="M1151.31 802.35C1235.4 950.451 1286.56 1098.68 1301.31 1218.6C1308.68 1278.56 1306.95 1331.41 1295.71 1373.63C1284.46 1415.84 1263.71 1447.37 1233.07 1464.77C1202.43 1482.17 1164.72 1483.83 1122.71 1471.85C1080.69 1459.88 1034.42 1434.27 986.71 1397.21C891.295 1323.09 790.225 1203.2 706.139 1055.1C622.053 907.001 570.895 758.771 556.144 638.854C548.768 578.894 550.497 526.038 561.744 483.823C572.99 441.612 593.741 410.08 624.382 392.683C655.023 375.286 692.733 373.627 734.744 385.601C776.757 397.576 823.032 423.177 870.741 460.238C966.156 534.358 1067.23 654.249 1151.31 802.35Z" stroke="url(#paint35_linear_252_6824)" stroke-opacity="0.3"/>
<path d="M1153.48 806.257C1234.97 955.803 1283.53 1104.9 1296.19 1225.06C1302.52 1285.14 1299.87 1337.96 1287.88 1379.97C1275.9 1421.98 1254.6 1453.14 1223.66 1470C1192.72 1486.86 1154.99 1487.86 1113.2 1475.16C1071.4 1462.45 1025.58 1436.05 978.523 1398.16C884.415 1322.38 785.453 1200.75 703.964 1051.2C622.476 901.655 573.913 752.555 561.256 632.399C554.928 572.319 557.58 519.501 569.562 477.49C581.543 435.48 602.84 404.316 633.78 387.456C664.72 370.597 702.454 369.596 744.249 382.301C786.047 395.008 831.868 421.413 878.923 459.301C973.03 535.074 1071.99 656.711 1153.48 806.257Z" stroke="url(#paint36_linear_252_6824)" stroke-opacity="0.3"/>
<path d="M1155.59 810.199C1234.45 961.144 1280.41 1111.07 1290.96 1231.43C1296.24 1291.61 1292.67 1344.37 1279.96 1386.17C1267.24 1427.96 1245.41 1458.75 1214.18 1475.07C1182.95 1491.38 1145.2 1491.73 1103.63 1478.29C1062.06 1464.86 1016.71 1437.66 970.325 1398.96C877.554 1321.55 780.73 1198.21 701.864 1047.26C622.998 896.315 577.044 746.39 566.487 626.031C561.208 565.85 564.781 513.086 577.494 471.291C590.207 429.497 612.045 398.709 643.274 382.392C674.504 366.075 712.249 365.732 753.817 379.166C795.387 392.6 840.74 419.8 887.126 458.503C979.896 535.908 1076.72 659.253 1155.59 810.199Z" stroke="url(#paint37_linear_252_6824)" stroke-opacity="0.3"/>
<path d="M1157.62 814.171C1233.84 966.47 1277.17 1117.17 1285.63 1237.7C1289.85 1297.96 1285.36 1350.66 1271.92 1392.22C1258.48 1433.79 1236.11 1464.19 1204.6 1479.96C1173.09 1495.73 1135.34 1495.41 1094.02 1481.26C1052.69 1467.1 1007.82 1439.11 962.113 1399.61C870.707 1320.59 776.05 1195.58 699.831 1043.28C623.611 890.979 580.281 740.276 571.826 619.75C567.598 559.486 572.091 506.793 585.532 465.226C598.972 423.66 621.344 393.258 652.854 377.488C684.363 361.719 722.109 362.035 763.435 376.192C804.764 390.349 849.636 418.337 895.339 457.844C986.745 536.856 1081.4 661.872 1157.62 814.171Z" stroke="url(#paint38_linear_252_6824)" stroke-opacity="0.3"/>
<path d="M1159.59 818.186C1233.14 971.792 1273.83 1123.23 1280.18 1243.88C1283.35 1304.21 1277.94 1356.82 1263.78 1398.15C1249.61 1439.47 1226.72 1469.48 1194.94 1484.69C1163.16 1499.91 1125.42 1498.94 1084.35 1484.06C1043.27 1469.18 998.896 1440.42 953.889 1400.12C863.876 1319.52 771.415 1192.87 697.865 1039.27C624.315 885.662 583.622 734.226 577.271 613.571C574.096 553.243 579.508 500.636 593.673 459.309C607.836 417.985 630.735 387.977 662.515 372.76C694.295 357.543 732.029 358.518 773.103 373.394C814.178 388.27 858.554 417.037 903.562 457.336C993.574 537.931 1086.03 664.58 1159.59 818.186Z" stroke="url(#paint39_linear_252_6824)" stroke-opacity="0.3"/>
<path d="M1161.48 822.236C1232.34 977.102 1270.38 1129.23 1274.62 1249.97C1276.74 1310.35 1270.42 1362.85 1255.53 1403.92C1240.65 1445 1217.23 1474.6 1185.19 1489.26C1153.15 1503.92 1115.44 1502.29 1074.63 1486.7C1033.82 1471.1 989.953 1441.57 945.656 1400.49C857.064 1318.34 766.827 1190.09 695.969 1035.23C625.111 880.36 587.067 728.236 582.823 607.489C580.701 547.114 587.031 494.61 601.914 453.537C616.797 412.466 640.216 382.863 672.257 368.203C704.297 353.543 742.009 355.176 782.816 370.766C823.626 386.357 867.493 415.894 911.79 456.972C1000.38 539.126 1090.62 667.369 1161.48 822.236Z" stroke="url(#paint40_linear_252_6824)" stroke-opacity="0.3"/>
<path d="M1163.3 826.31C1231.45 982.389 1266.83 1135.15 1268.97 1255.96C1270.03 1316.36 1262.79 1368.74 1247.19 1409.55C1231.59 1450.36 1207.66 1479.55 1175.37 1493.65C1143.08 1507.74 1105.4 1505.45 1064.87 1489.15C1024.34 1472.85 980.995 1442.55 937.421 1400.71C850.276 1317.02 762.292 1187.22 694.147 1031.14C626.002 875.065 590.619 722.3 588.483 601.497C587.415 541.095 594.66 488.709 610.258 447.902C625.855 407.097 649.788 377.907 682.079 363.808C714.371 349.709 752.048 352.001 792.577 368.301C833.109 384.602 876.454 414.9 920.027 456.744C1007.17 540.432 1095.16 670.231 1163.3 826.31Z" stroke="url(#paint41_linear_252_6824)" stroke-opacity="0.3"/>
<path d="M1165.05 830.417C1230.46 987.662 1263.18 1141.02 1263.2 1261.84C1263.22 1322.25 1255.06 1374.51 1238.75 1415.03C1222.44 1455.56 1198.01 1484.33 1165.47 1497.86C1132.94 1511.39 1095.31 1508.45 1055.07 1491.44C1014.83 1474.44 972.02 1443.39 929.183 1400.79C843.512 1315.59 757.806 1184.28 692.396 1027.03C626.986 869.787 594.274 716.428 594.247 595.607C594.233 535.195 602.391 482.943 618.699 442.415C635.006 401.888 659.444 373.12 691.977 359.587C724.509 346.054 762.141 349.003 802.379 366.008C842.62 383.014 885.43 414.064 928.266 456.662C1013.94 541.858 1099.64 673.172 1165.05 830.417Z" stroke="url(#paint42_linear_252_6824)" stroke-opacity="0.3"/>
<path d="M1166.73 834.557C1229.39 992.92 1259.42 1146.83 1257.34 1267.63C1256.3 1328.03 1247.23 1380.13 1230.22 1420.37C1213.21 1460.61 1188.27 1488.94 1155.51 1501.91C1122.74 1514.87 1085.17 1511.27 1045.23 1493.56C1005.29 1475.86 963.032 1444.06 920.946 1400.72C836.774 1314.05 753.373 1181.26 690.717 1022.89C628.061 864.531 598.031 710.624 600.112 589.821C601.153 529.418 610.222 477.317 627.234 437.079C644.246 396.843 669.183 368.506 701.947 355.543C734.71 342.58 772.285 346.184 812.22 363.889C852.158 381.595 894.42 413.387 936.506 456.727C1020.68 543.404 1104.08 676.195 1166.73 834.557Z" stroke="url(#paint43_linear_252_6824)" stroke-opacity="0.3"/>
<path d="M1168.34 838.729C1228.22 998.161 1255.56 1152.57 1251.37 1273.32C1249.28 1333.69 1239.3 1385.63 1221.59 1425.56C1203.88 1465.49 1178.45 1493.39 1145.47 1505.78C1112.48 1518.17 1074.98 1513.91 1035.36 1495.51C995.733 1477.11 954.033 1444.59 912.709 1400.52C830.063 1312.39 748.993 1178.16 689.11 1018.73C629.227 859.296 601.887 704.889 606.077 584.14C608.172 523.765 618.148 471.83 635.86 431.895C653.572 391.962 678.999 364.065 711.984 351.675C744.969 339.286 782.475 343.546 822.096 361.945C861.719 380.345 903.418 412.87 944.742 456.938C1027.39 545.071 1108.46 679.297 1168.34 838.729Z" stroke="url(#paint44_linear_252_6824)" stroke-opacity="0.3"/>
<path d="M1169.87 842.923C1226.96 1003.38 1251.6 1158.24 1245.31 1278.89C1242.16 1339.22 1231.28 1390.98 1212.87 1430.6C1194.47 1470.21 1168.56 1497.66 1135.36 1509.48C1102.16 1521.29 1064.74 1516.37 1025.44 1497.29C986.149 1478.2 945.023 1444.95 904.475 1400.17C823.38 1310.6 744.664 1174.98 687.573 1014.53C630.482 854.079 605.841 699.218 612.137 578.561C615.285 518.231 626.167 466.478 644.573 426.859C662.979 387.241 688.889 359.791 722.085 347.98C755.282 336.168 792.707 341.082 832.001 360.169C871.297 379.258 912.423 412.506 952.971 457.288C1034.07 546.85 1112.78 682.471 1169.87 842.923Z" stroke="url(#paint45_linear_252_6824)" stroke-opacity="0.3"/>
<path d="M1171.33 847.144C1225.62 1008.57 1247.55 1163.84 1239.15 1284.36C1234.95 1344.63 1223.16 1396.19 1204.07 1435.48C1184.98 1474.77 1158.59 1501.76 1125.19 1512.99C1091.8 1524.22 1054.46 1518.66 1015.51 1498.89C976.55 1479.11 936.011 1445.15 896.25 1399.67C816.731 1308.71 740.394 1171.73 686.112 1010.31C631.829 848.884 609.895 693.617 618.296 573.088C622.497 512.822 634.28 461.267 653.375 421.975C672.469 382.684 698.854 355.691 732.252 344.461C765.649 333.23 802.983 338.796 841.938 358.567C880.894 378.338 921.434 412.299 961.194 457.782C1040.71 548.746 1117.05 685.719 1171.33 847.144Z" stroke="url(#paint46_linear_252_6824)" stroke-opacity="0.3"/>
<path d="M1172.72 851.39C1224.18 1013.74 1243.4 1169.36 1232.9 1289.73C1227.65 1349.91 1214.96 1401.25 1195.19 1440.21C1175.41 1479.16 1148.56 1505.69 1114.97 1516.33C1081.38 1526.98 1044.15 1520.76 1005.55 1500.31C966.94 1479.87 926.999 1445.2 888.038 1399.03C810.118 1306.69 736.183 1168.41 684.727 1006.06C633.27 843.715 614.049 688.088 624.552 567.724C629.804 507.541 642.485 456.199 662.263 417.246C682.04 378.295 708.892 351.766 742.481 341.121C776.069 330.475 813.301 336.691 851.904 357.139C890.509 377.587 930.45 412.25 969.411 458.42C1047.33 550.758 1121.27 689.043 1172.72 851.39Z" stroke="url(#paint47_linear_252_6824)" stroke-opacity="0.3"/>
<path d="M1174.03 855.663C1222.65 1018.88 1239.15 1174.82 1226.55 1294.98C1220.25 1355.07 1206.67 1406.18 1186.22 1444.78C1165.77 1483.38 1138.45 1509.44 1104.68 1519.5C1070.92 1529.55 1033.8 1522.69 995.558 1501.57C957.315 1480.45 917.985 1445.1 879.836 1398.25C803.54 1304.57 732.03 1165.02 683.414 1001.79C634.799 838.574 618.296 682.636 630.899 562.473C637.2 502.391 650.775 451.278 671.23 412.676C691.684 374.076 718.995 348.02 752.764 337.962C786.533 327.904 823.65 334.77 861.891 355.888C900.134 377.007 939.463 412.361 977.612 459.204C1053.91 552.888 1125.42 692.442 1174.03 855.663Z" stroke="url(#paint48_linear_252_6824)" stroke-opacity="0.3"/>
<path d="M1175.27 859.954C1221.03 1024 1234.81 1180.2 1220.11 1300.13C1212.76 1360.09 1198.3 1410.96 1177.17 1449.2C1156.05 1487.43 1128.29 1513.01 1094.35 1522.48C1060.41 1531.94 1023.41 1524.43 985.548 1502.65C947.68 1480.86 908.973 1444.83 871.648 1397.33C796.998 1302.33 727.934 1161.55 682.175 997.501C636.415 833.457 622.637 677.254 637.334 557.33C644.683 497.367 659.148 446.499 680.274 408.26C701.398 370.023 729.16 344.447 763.099 334.98C797.039 325.513 834.031 333.025 871.897 354.807C909.765 376.591 948.472 412.626 985.797 460.128C1060.45 555.129 1129.51 695.91 1175.27 859.954Z" stroke="url(#paint49_linear_252_6824)" stroke-opacity="0.3"/>
<path d="M1176.43 864.267C1219.32 1029.08 1230.37 1185.5 1213.59 1305.15C1205.19 1364.98 1189.84 1415.59 1168.05 1453.45C1146.26 1491.31 1118.06 1516.4 1083.96 1525.27C1049.86 1534.15 1013.01 1525.99 975.525 1503.55C938.042 1481.11 899.971 1444.4 863.48 1396.26C790.499 1299.97 723.903 1158 681.013 993.187C638.124 828.369 627.074 671.95 643.862 552.3C652.256 492.475 667.607 441.867 689.396 404.002C711.185 366.139 739.389 341.053 773.488 332.179C807.588 323.306 844.443 331.463 881.923 353.902C919.406 376.343 957.477 413.049 993.968 461.195C1066.95 557.484 1133.55 699.449 1176.43 864.267Z" stroke="url(#paint50_linear_252_6824)" stroke-opacity="0.3"/>
<path d="M1177.52 868.601C1217.53 1034.14 1225.85 1190.73 1206.97 1310.07C1197.54 1369.74 1181.3 1420.07 1158.86 1457.55C1136.41 1495.03 1107.77 1519.62 1073.52 1527.89C1039.27 1536.17 1002.57 1527.37 965.485 1504.28C928.4 1481.19 890.975 1443.83 855.329 1395.05C784.04 1297.5 719.932 1154.4 679.926 988.855C639.919 823.313 631.601 666.725 650.474 547.387C659.912 487.717 676.143 437.385 698.59 399.906C721.036 362.43 749.674 337.839 783.923 329.562C818.172 321.285 854.879 330.084 891.962 353.174C929.047 376.266 966.472 413.63 1002.12 462.405C1073.41 559.954 1137.51 703.059 1177.52 868.601Z" stroke="url(#paint51_linear_252_6824)" stroke-opacity="0.3"/>
<path d="M1178.53 872.951C1215.64 1039.16 1221.23 1195.87 1200.28 1314.86C1189.8 1374.36 1172.69 1424.4 1149.59 1461.48C1126.5 1498.56 1097.43 1522.65 1063.05 1530.33C1028.66 1538.01 992.11 1528.57 955.435 1504.83C918.759 1481.1 881.991 1443.09 847.203 1393.7C777.627 1294.92 716.026 1150.72 678.915 984.502C641.804 818.288 636.219 661.579 657.173 542.588C667.65 483.091 684.757 433.05 707.855 395.969C730.951 358.89 760.014 334.803 794.402 327.125C828.791 319.447 865.339 328.885 902.013 352.619C938.689 376.354 975.457 414.366 1010.25 463.756C1079.82 562.534 1141.42 706.736 1178.53 872.951Z" stroke="url(#paint52_linear_252_6824)" stroke-opacity="0.3"/>
<path d="M1179.47 877.321C1213.67 1044.16 1216.52 1200.94 1193.49 1319.55C1181.98 1378.85 1164 1428.59 1140.26 1465.26C1116.52 1501.93 1087.04 1525.51 1052.52 1532.58C1018.01 1539.66 981.63 1529.59 945.375 1505.22C909.119 1480.84 873.02 1442.2 839.099 1392.21C771.258 1292.23 712.183 1146.97 677.978 980.136C643.773 813.3 640.925 656.517 663.952 537.91C675.466 478.605 693.444 428.87 717.185 392.198C740.925 355.527 770.404 331.951 804.921 324.874C839.438 317.798 875.816 327.872 912.07 352.243C948.327 376.615 984.425 415.263 1018.35 465.252C1086.19 565.229 1145.26 710.485 1179.47 877.321Z" stroke="url(#paint53_linear_252_6824)" stroke-opacity="0.3"/>
<path d="M1180.33 881.701C1211.62 1049.11 1211.73 1205.92 1186.63 1324.11C1174.09 1383.2 1155.24 1432.61 1130.87 1468.87C1106.49 1505.12 1076.6 1528.17 1041.97 1534.65C1007.33 1541.12 971.137 1530.41 935.313 1505.41C899.488 1480.41 864.069 1441.14 831.026 1390.57C764.94 1289.42 708.409 1143.16 677.121 975.748C645.833 808.34 645.721 651.531 670.814 533.345C683.362 474.25 702.205 424.836 726.583 388.584C750.959 352.333 780.845 329.275 815.48 322.802C850.116 316.329 886.312 327.036 922.135 352.036C957.961 377.037 993.38 416.309 1026.42 466.883C1092.51 568.029 1149.04 714.293 1180.33 881.701Z" stroke="url(#paint54_linear_252_6824)" stroke-opacity="0.3"/>
<path d="M1181.11 886.101C1209.47 1054.03 1206.85 1210.82 1179.69 1328.55C1166.12 1387.41 1146.41 1436.49 1121.41 1472.31C1096.4 1508.13 1066.12 1530.67 1031.38 1536.53C996.633 1542.4 960.629 1531.06 925.247 1505.44C889.863 1479.82 855.136 1439.94 822.98 1388.79C758.669 1286.51 704.699 1139.28 676.338 971.352C647.977 803.423 650.601 646.636 677.754 528.905C691.33 470.038 711.033 420.961 736.04 385.14C761.045 349.32 791.329 326.787 826.072 320.919C860.815 315.051 896.819 326.389 932.201 352.01C967.585 377.632 1002.31 417.517 1034.47 468.66C1098.78 570.943 1152.75 718.172 1181.11 886.101Z" stroke="url(#paint55_linear_252_6824)" stroke-opacity="0.3"/>
<path d="M1181.81 890.515C1207.24 1058.91 1201.88 1215.63 1172.68 1332.87C1158.08 1391.49 1137.52 1440.22 1111.89 1475.6C1086.26 1510.97 1055.59 1532.98 1020.75 1538.24C985.911 1543.5 950.111 1531.53 915.182 1505.3C880.25 1479.06 846.224 1438.58 814.965 1386.88C752.45 1283.49 701.058 1135.34 675.631 966.944C650.205 798.545 655.565 641.828 684.769 524.589C699.37 465.968 719.927 417.242 745.555 381.863C771.182 346.485 801.854 324.484 836.694 319.223C871.534 313.963 907.334 325.927 942.264 352.162C977.195 378.398 1011.22 418.882 1042.48 470.578C1105 573.969 1156.39 722.117 1181.81 890.515Z" stroke="url(#paint56_linear_252_6824)" stroke-opacity="0.3"/>
<path d="M1182.45 894.935C1204.93 1063.75 1196.83 1220.35 1165.59 1337.06C1149.97 1395.42 1128.56 1443.78 1102.32 1478.71C1076.08 1513.63 1045.03 1535.09 1010.1 1539.75C975.176 1544.4 939.59 1531.81 905.124 1504.97C870.656 1478.13 837.341 1437.06 806.99 1384.82C746.288 1280.36 697.489 1131.33 675.006 962.517C652.522 793.701 660.617 637.101 691.862 520.39C707.484 462.033 728.888 413.673 755.13 378.746C781.37 343.821 812.421 322.358 847.348 317.707C882.275 313.055 917.861 325.643 952.327 352.483C986.795 379.324 1020.11 420.396 1050.46 472.63C1111.16 577.096 1159.96 726.119 1182.45 894.935Z" stroke="url(#paint57_linear_252_6824)" stroke-opacity="0.3"/>
<path d="M1182.99 899.373C1202.53 1068.56 1191.7 1224.99 1158.42 1341.14C1141.78 1399.21 1119.54 1447.19 1092.69 1481.66C1065.85 1516.12 1034.43 1537.04 999.423 1541.08C964.421 1545.12 929.06 1531.91 895.067 1504.47C861.072 1477.04 828.48 1435.39 799.044 1382.63C740.175 1277.12 693.985 1127.27 674.451 958.089C654.917 788.906 665.744 632.471 699.02 516.323C715.659 458.247 737.904 410.268 764.751 375.805C791.597 341.343 823.018 320.425 858.02 316.384C893.023 312.343 928.384 325.549 962.377 352.987C996.371 380.426 1028.96 422.073 1058.4 474.829C1117.27 580.338 1163.46 730.19 1182.99 899.373Z" stroke="url(#paint58_linear_252_6824)" stroke-opacity="0.3"/>
<path d="M1183.47 903.811C1200.05 1073.31 1186.49 1229.53 1151.19 1345.08C1133.54 1402.86 1110.46 1450.44 1083.02 1484.43C1055.58 1518.42 1023.79 1538.78 988.726 1542.21C953.658 1545.64 918.533 1531.82 885.025 1503.8C851.514 1475.77 819.653 1433.56 791.143 1380.3C734.124 1273.78 690.556 1123.14 673.978 953.643C657.4 784.145 670.955 627.923 706.254 512.373C723.903 454.597 746.982 407.014 774.426 373.024C801.87 339.036 833.651 318.67 868.719 315.24C903.787 311.81 938.912 325.632 972.42 353.659C1005.93 381.687 1037.79 423.896 1066.3 477.158C1123.32 583.678 1166.89 734.313 1183.47 903.811Z" stroke="url(#paint59_linear_252_6824)" stroke-opacity="0.3"/>
<path d="M1183.86 908.264C1197.48 1078.03 1181.2 1233.99 1143.89 1348.9C1125.24 1406.36 1101.33 1453.54 1073.3 1487.04C1045.26 1520.55 1013.13 1540.35 978.01 1543.17C942.888 1545.99 908.01 1531.56 874.995 1502.95C841.979 1474.34 810.86 1431.58 783.283 1377.83C728.132 1270.33 687.2 1118.96 673.582 949.196C659.964 779.435 676.244 623.473 713.554 508.557C732.21 451.097 756.115 403.924 784.149 370.418C812.181 336.914 844.313 317.106 879.435 314.289C914.557 311.472 949.436 325.904 982.45 354.512C1015.47 383.12 1046.59 425.88 1074.16 479.63C1129.31 587.13 1170.25 738.502 1183.86 908.264Z" stroke="url(#paint60_linear_252_6824)" stroke-opacity="0.3"/>
<path d="M1184.18 912.717C1194.84 1082.69 1175.84 1238.34 1136.53 1352.59C1116.87 1409.72 1092.15 1456.47 1063.53 1489.48C1034.92 1522.49 1002.45 1541.73 967.281 1543.94C932.114 1546.14 897.493 1531.1 864.983 1501.92C832.471 1472.74 802.103 1429.44 775.469 1375.22C722.202 1266.77 683.918 1114.71 673.265 944.738C662.612 774.764 681.611 619.111 720.921 504.863C740.576 447.738 765.302 400.989 793.916 367.978C822.528 334.968 855.001 315.724 890.167 313.52C925.333 311.316 959.955 326.355 992.465 355.534C1024.98 384.715 1055.34 428.011 1081.98 482.235C1135.25 590.68 1173.53 742.744 1184.18 912.717Z" stroke="url(#paint61_linear_252_6824)" stroke-opacity="0.3"/>
<path d="M1184.42 917.18C1192.11 1087.31 1170.39 1242.61 1129.1 1356.16C1108.45 1412.93 1082.91 1459.24 1053.72 1491.75C1024.54 1524.25 991.737 1542.93 956.537 1544.52C921.338 1546.11 886.984 1530.47 854.988 1500.72C822.991 1470.98 793.383 1427.16 767.699 1372.48C716.333 1263.12 680.708 1110.41 673.024 940.279C665.339 770.146 687.052 614.848 728.35 501.303C748.999 444.53 774.536 398.22 803.722 365.713C832.906 333.208 865.71 314.533 900.909 312.943C936.108 311.353 970.462 326.994 1002.46 356.736C1034.46 386.48 1064.06 430.299 1089.75 484.979C1141.11 594.338 1176.74 747.047 1184.42 917.18Z" stroke="url(#paint62_linear_252_6824)" stroke-opacity="0.3"/>
<path d="M1184.59 921.643C1189.3 1091.88 1164.88 1246.78 1121.61 1359.59C1099.97 1415.99 1073.63 1461.85 1043.88 1493.84C1014.13 1525.83 981.008 1543.93 945.787 1544.91C910.565 1545.88 876.49 1529.64 845.018 1499.35C813.544 1469.05 784.705 1424.72 759.98 1369.6C710.53 1259.36 677.576 1106.05 672.862 935.813C668.147 765.571 692.567 610.675 735.84 497.869C757.477 441.465 783.819 395.608 813.568 363.615C843.315 331.624 876.439 313.525 911.661 312.549C946.883 311.574 980.958 327.812 1012.43 358.108C1043.9 388.405 1072.74 432.735 1097.47 487.855C1146.92 598.094 1179.87 751.401 1184.59 921.643Z" stroke="url(#paint63_linear_252_6824)" stroke-opacity="0.3"/>
<path d="M1184.67 926.111C1186.41 1096.41 1159.29 1250.85 1114.06 1362.89C1091.44 1418.91 1064.3 1464.3 1034 1495.77C1003.7 1527.23 970.263 1544.75 935.03 1545.11C899.796 1545.47 866.01 1528.64 835.071 1497.8C804.131 1466.96 776.07 1422.13 752.311 1366.59C704.792 1255.5 674.519 1101.65 672.776 931.348C671.034 761.05 698.153 606.604 743.389 494.57C766.007 438.552 793.145 393.161 823.447 361.693C853.748 330.226 887.183 312.707 922.417 312.347C957.65 311.986 991.437 328.817 1022.38 359.657C1053.32 390.499 1081.38 435.325 1105.14 490.869C1152.65 601.954 1182.93 755.813 1184.67 926.111Z" stroke="url(#paint64_linear_252_6824)" stroke-opacity="0.3"/>
<path d="M1184.68 930.576C1183.45 1100.88 1153.64 1254.83 1106.45 1366.06C1082.86 1421.67 1054.94 1466.58 1024.09 1497.52C993.243 1528.45 959.507 1545.38 924.273 1545.13C889.039 1544.87 855.551 1527.45 825.155 1496.08C794.758 1464.7 767.484 1419.39 744.697 1363.44C699.125 1251.55 671.541 1097.18 672.771 926.879C674.001 756.576 703.812 602.627 750.995 491.4C774.588 435.785 802.514 390.875 833.361 359.94C864.206 329.006 897.942 312.074 933.177 312.329C968.411 312.583 1001.9 330.001 1032.29 361.377C1062.69 392.754 1089.97 438.063 1112.75 494.012C1158.32 605.91 1185.91 760.274 1184.68 930.576Z" stroke="url(#paint65_linear_252_6824)" stroke-opacity="0.3"/>
<path d="M1184.61 935.042C1180.4 1105.3 1147.91 1258.7 1098.79 1369.09C1074.23 1424.28 1045.53 1468.7 1014.15 1499.09C982.766 1529.48 948.739 1545.82 913.515 1544.95C878.29 1544.08 845.111 1526.08 815.268 1494.18C785.423 1462.28 758.944 1416.5 737.137 1360.16C693.525 1247.49 668.639 1092.67 672.841 922.411C677.043 752.156 709.536 598.751 758.654 488.364C783.213 433.169 811.918 388.753 843.301 358.361C874.682 327.971 908.708 311.63 943.932 312.499C979.157 313.369 1012.34 331.368 1042.18 363.27C1072.02 395.173 1098.5 440.951 1120.31 497.289C1163.92 609.965 1188.81 764.787 1184.61 935.042Z" stroke="url(#paint66_linear_252_6824)" stroke-opacity="0.3"/>
<path d="M1184.46 939.509C1177.29 1109.66 1142.12 1262.48 1091.08 1371.99C1065.56 1426.75 1036.09 1470.66 1004.18 1500.5C972.274 1530.34 937.968 1546.08 902.764 1544.6C867.56 1543.11 834.7 1524.54 805.418 1492.12C776.135 1459.7 750.459 1413.47 729.638 1356.76C687.999 1243.34 665.819 1088.1 672.992 917.949C680.165 747.793 715.33 594.978 766.367 485.465C791.886 430.708 821.362 386.799 853.27 356.96C885.176 327.122 919.482 311.377 954.686 312.861C989.89 314.345 1022.75 332.921 1052.03 365.338C1081.32 397.757 1106.99 443.991 1127.81 500.701C1169.45 614.121 1191.63 769.353 1184.46 939.509Z" stroke="url(#paint67_linear_252_6824)" stroke-opacity="0.3"/>
<path d="M1184.23 943.968C1174.09 1113.97 1136.26 1266.15 1083.32 1374.76C1056.85 1429.06 1026.61 1472.45 994.19 1501.73C961.768 1531 927.192 1546.15 892.019 1544.05C856.847 1541.95 824.316 1522.8 795.604 1489.88C766.891 1456.95 742.026 1410.28 722.198 1353.21C682.545 1239.09 663.078 1083.49 673.219 913.485C683.36 743.48 721.187 591.302 774.127 482.696C800.598 428.392 830.836 385.005 863.26 355.727C895.682 326.451 930.258 311.307 965.431 313.405C1000.6 315.503 1033.13 334.65 1061.85 367.573C1090.56 400.499 1115.42 447.173 1135.25 504.238C1174.91 618.367 1194.37 773.963 1184.23 943.968Z" stroke="url(#paint68_linear_252_6824)" stroke-opacity="0.3"/>
<path d="M1183.93 948.429C1170.82 1118.23 1130.34 1269.73 1075.51 1377.39C1048.1 1431.22 1017.11 1474.08 984.179 1502.78C951.251 1531.49 916.416 1546.03 881.286 1543.32C846.155 1540.61 813.963 1520.89 785.831 1487.47C757.696 1454.05 733.649 1406.95 714.821 1349.55C677.165 1234.75 660.417 1078.83 673.523 909.032C686.63 739.23 727.107 587.735 781.934 480.07C809.349 426.237 840.339 383.384 873.269 354.676C906.197 325.97 941.032 311.432 976.163 314.144C1011.29 316.855 1043.49 336.567 1071.62 369.986C1099.75 403.407 1123.8 450.508 1142.63 507.911C1180.28 622.715 1197.03 778.627 1183.93 948.429Z" stroke="url(#paint69_linear_252_6824)" stroke-opacity="0.3"/>
<path d="M1183.54 952.878C1167.48 1122.43 1124.36 1273.19 1067.66 1379.88C1039.31 1433.23 1007.58 1475.53 974.153 1503.66C940.729 1531.79 905.645 1545.72 870.567 1542.39C835.489 1539.07 803.647 1518.8 776.101 1484.89C748.555 1450.99 725.333 1403.47 707.51 1345.75C671.863 1230.31 657.838 1074.13 673.906 904.579C689.974 735.032 733.089 584.267 789.787 477.575C818.137 424.228 849.871 381.923 883.297 353.794C916.721 325.667 951.804 311.739 986.882 315.063C1021.96 318.388 1053.8 338.658 1081.35 372.563C1108.89 406.471 1132.12 453.984 1149.94 511.707C1185.59 627.15 1199.61 783.331 1183.54 952.878Z" stroke="url(#paint70_linear_252_6824)" stroke-opacity="0.3"/>
<path d="M1183.08 957.319C1164.06 1126.56 1118.32 1276.55 1059.77 1382.24C1030.49 1435.08 998.025 1476.82 964.113 1504.37C930.203 1531.91 894.882 1545.22 859.867 1541.28C824.852 1537.35 793.369 1516.52 766.419 1482.14C739.468 1447.76 717.08 1399.85 700.266 1341.82C666.64 1225.78 655.343 1069.37 674.368 900.133C693.392 730.892 739.132 580.902 797.683 475.216C826.96 422.372 859.427 380.627 893.339 353.086C927.249 325.546 962.57 312.233 997.584 316.169C1032.6 320.105 1064.08 340.928 1091.03 375.309C1117.98 409.692 1140.37 457.603 1157.19 515.628C1190.81 631.676 1202.11 788.078 1183.08 957.319Z" stroke="url(#paint71_linear_252_6824)" stroke-opacity="0.3"/>
<path d="M1182.55 961.754C1160.57 1130.64 1112.22 1279.81 1051.83 1384.45C1021.64 1436.78 988.447 1477.95 954.06 1504.9C919.675 1531.84 884.127 1544.53 849.186 1539.99C814.245 1535.44 783.13 1514.07 756.785 1479.23C730.438 1444.38 708.889 1396.08 693.091 1337.77C661.495 1221.16 652.929 1064.58 674.904 895.699C696.88 726.816 745.23 577.647 805.617 472.999C835.811 420.674 869.002 379.502 903.389 352.557C937.775 325.613 973.323 312.918 1008.26 317.465C1043.2 322.012 1074.32 343.381 1100.66 378.227C1127.01 413.075 1148.56 461.37 1164.36 519.679C1195.95 636.296 1204.52 792.871 1182.55 961.754Z" stroke="url(#paint72_linear_252_6824)" stroke-opacity="0.3"/>
<path d="M1181.93 966.183C1157.01 1134.66 1106.07 1282.96 1043.86 1386.54C1012.76 1438.33 978.853 1478.91 944.001 1505.25C909.151 1531.59 873.386 1543.67 838.531 1538.51C803.675 1533.35 772.937 1511.45 747.204 1476.15C721.469 1440.84 700.766 1392.18 685.988 1333.6C656.432 1216.45 650.6 1059.75 675.52 891.278C700.439 722.804 751.385 574.502 813.59 470.923C844.693 419.133 878.597 378.547 913.449 352.206C948.3 325.867 984.064 313.794 1018.92 318.95C1053.78 324.106 1084.51 346.014 1110.25 381.315C1135.98 416.617 1156.68 465.281 1171.46 523.858C1201.02 641.008 1206.85 797.709 1181.93 966.183Z" stroke="url(#paint73_linear_252_6824)" stroke-opacity="0.3"/>
<path d="M1181.24 970.596C1153.38 1138.61 1099.86 1286 1035.85 1388.48C1003.85 1439.72 969.243 1479.7 933.937 1505.43C898.632 1531.16 862.662 1542.61 827.902 1536.84C793.141 1531.08 762.79 1508.64 737.677 1472.89C712.563 1437.15 692.712 1388.13 678.958 1329.3C651.452 1211.66 648.355 1054.88 676.211 886.864C704.068 718.851 757.594 571.46 821.597 468.984C853.599 417.744 888.206 377.756 923.513 352.027C958.818 326.3 994.787 314.853 1029.55 320.617C1064.31 326.38 1094.66 348.822 1119.77 384.566C1144.89 420.312 1164.74 469.33 1178.49 528.155C1206 645.804 1209.09 802.582 1181.24 970.596Z" stroke="url(#paint74_linear_252_6824)" stroke-opacity="0.3"/>
<path d="M1180.47 974.997C1149.68 1142.5 1093.59 1288.93 1027.81 1390.28C994.92 1440.95 959.619 1480.33 923.869 1505.44C888.121 1530.54 851.957 1541.36 817.302 1534.99C782.647 1528.62 752.693 1505.65 728.207 1469.48C703.721 1433.3 684.729 1383.94 672.004 1324.89C646.554 1206.77 646.195 1049.97 676.979 882.464C707.763 714.963 763.853 568.529 829.635 467.185C862.526 416.512 897.826 377.133 933.577 352.025C969.325 326.917 1005.49 316.101 1040.14 322.47C1074.8 328.839 1104.75 351.807 1129.24 387.984C1153.73 424.163 1172.72 473.52 1185.44 532.576C1210.89 650.687 1211.25 807.495 1180.47 974.997Z" stroke="url(#paint75_linear_252_6824)" stroke-opacity="0.3"/>
<path d="M1179.62 979.379C1145.92 1146.32 1087.28 1291.75 1019.74 1391.93C985.972 1442.02 949.99 1480.78 913.807 1505.26C877.626 1529.74 841.279 1539.92 806.74 1532.95C772.202 1525.98 742.653 1502.49 718.803 1465.89C694.951 1429.29 676.823 1379.61 665.131 1320.34C641.747 1201.8 644.124 1045.01 677.827 878.073C711.529 711.134 770.167 565.702 837.707 465.521C871.478 415.43 907.46 376.673 943.643 352.192C979.824 327.713 1016.17 317.529 1050.71 324.502C1085.25 331.475 1114.8 354.962 1138.65 391.561C1162.5 428.162 1180.63 477.842 1192.32 537.112C1215.7 655.649 1213.33 812.44 1179.62 979.379Z" stroke="url(#paint76_linear_252_6824)" stroke-opacity="0.3"/>
<path d="M1178.7 983.75C1142.09 1150.08 1080.92 1294.46 1011.64 1393.45C977.005 1442.94 940.352 1481.07 903.747 1504.91C867.144 1528.76 830.625 1538.3 796.214 1530.73C761.802 1523.16 732.667 1499.16 709.46 1462.15C686.25 1425.13 668.992 1375.15 658.336 1315.68C637.025 1196.75 642.138 1040.03 678.749 873.703C715.36 707.377 776.527 562.99 845.805 464.004C880.445 414.509 917.097 376.387 953.702 352.541C990.305 328.697 1026.82 319.149 1061.24 326.723C1095.65 334.298 1124.78 358.297 1147.99 395.307C1171.2 432.319 1188.46 482.308 1199.11 541.773C1220.42 660.7 1215.31 817.425 1178.7 983.75Z" stroke="url(#paint77_linear_252_6824)" stroke-opacity="0.3"/>
<path d="M1177.7 988.106C1138.19 1153.77 1074.52 1297.06 1003.52 1394.83C968.022 1443.71 930.71 1481.19 893.694 1504.39C856.681 1527.59 820 1536.5 785.727 1528.33C751.453 1520.15 722.741 1495.65 700.183 1458.24C677.623 1420.83 661.24 1370.55 651.623 1310.9C632.39 1191.62 640.238 1035.01 679.746 869.35C719.254 703.689 782.932 560.391 853.927 462.629C889.425 413.746 926.738 376.269 963.753 353.066C1000.77 329.864 1037.45 320.955 1071.72 329.129C1106 337.303 1134.71 361.807 1157.27 399.216C1179.82 436.627 1196.21 486.91 1205.82 546.552C1225.06 665.833 1217.21 822.445 1177.7 988.106Z" stroke="url(#paint78_linear_252_6824)" stroke-opacity="0.3"/>
<path d="M1176.63 992.438C1134.23 1157.38 1068.07 1299.55 995.375 1396.06C959.029 1444.31 921.068 1481.13 883.653 1503.69C846.24 1526.24 809.41 1534.51 775.284 1525.74C741.158 1516.96 712.878 1491.96 690.976 1454.17C669.073 1416.37 653.57 1365.81 644.996 1306.01C627.847 1186.41 638.427 1029.96 680.82 865.009C723.214 700.063 789.382 557.899 862.073 461.39C898.419 413.135 936.38 376.315 973.795 353.761C1011.21 331.209 1048.04 322.941 1082.16 331.712C1116.29 340.483 1144.57 365.485 1166.47 403.281C1188.37 441.081 1203.88 491.642 1212.45 551.442C1229.6 671.04 1219.02 827.492 1176.63 992.438Z" stroke="url(#paint79_linear_252_6824)" stroke-opacity="0.3"/>
<path d="M1175.48 996.76C1130.21 1160.94 1061.57 1301.93 987.209 1397.15C950.026 1444.77 911.428 1480.92 873.625 1502.82C835.825 1524.71 798.856 1532.34 764.888 1522.97C730.92 1513.61 703.082 1488.12 681.842 1449.94C660.602 1411.77 645.984 1360.94 638.455 1301C623.396 1181.12 636.705 1024.88 681.97 860.698C727.236 696.517 795.876 555.529 870.239 460.303C907.422 412.69 946.02 376.538 983.823 354.641C1021.62 332.745 1058.59 325.121 1092.56 334.486C1126.53 343.851 1154.37 369.343 1175.61 407.516C1196.85 445.692 1211.46 496.516 1218.99 556.457C1234.05 676.336 1220.74 832.579 1175.48 996.76Z" stroke="url(#paint80_linear_252_6824)" stroke-opacity="0.3"/>
<path d="M1174.25 1001.05C1126.13 1164.42 1055.04 1304.19 979.025 1398.1C941.017 1445.06 901.794 1480.53 863.615 1501.77C825.438 1523 788.342 1529.98 754.542 1520.02C720.743 1510.06 693.354 1484.09 672.784 1445.55C652.213 1407.01 638.484 1355.94 632.002 1295.88C619.038 1175.75 635.071 1019.76 683.196 856.399C731.32 693.032 802.409 553.264 878.424 459.351C916.432 412.393 955.655 376.92 993.834 355.686C1032.01 334.454 1069.11 327.476 1102.91 337.433C1136.71 347.389 1164.1 373.363 1184.66 411.901C1205.24 450.441 1218.96 501.513 1225.45 561.576C1238.41 681.7 1222.38 837.687 1174.25 1001.05Z" stroke="url(#paint81_linear_252_6824)" stroke-opacity="0.3"/>
<path d="M1172.95 1005.33C1121.99 1167.83 1048.47 1306.34 970.825 1398.91C932.004 1445.19 892.168 1479.98 853.624 1500.54C815.082 1521.1 777.87 1527.43 744.249 1516.89C710.629 1506.34 683.697 1479.9 663.803 1441.01C643.908 1402.11 631.072 1350.81 625.64 1290.64C614.774 1170.31 633.527 1014.63 684.495 852.124C735.463 689.623 808.981 551.116 886.623 458.544C925.445 412.257 965.281 377.474 1003.82 356.909C1042.37 336.346 1079.58 330.017 1113.2 340.562C1146.82 351.107 1173.75 377.555 1193.65 416.446C1213.54 455.34 1226.38 506.643 1231.81 566.81C1242.67 687.142 1223.92 842.825 1172.95 1005.33Z" stroke="url(#paint82_linear_252_6824)" stroke-opacity="0.3"/>
<path d="M1171.58 1009.58C1117.78 1171.16 1041.86 1308.37 962.612 1399.57C922.989 1445.17 882.552 1479.25 843.655 1499.14C804.76 1519.03 767.443 1524.71 734.012 1513.58C700.581 1502.45 674.114 1475.54 654.902 1436.3C635.689 1397.07 623.751 1345.55 619.369 1285.3C610.605 1164.79 632.072 1009.46 685.869 847.873C739.665 686.286 815.589 549.084 894.835 457.881C934.458 412.278 974.895 378.196 1013.79 358.307C1052.69 338.42 1090 332.741 1123.44 343.871C1156.87 355.001 1183.33 381.915 1202.55 421.147C1221.76 460.382 1233.7 511.902 1238.08 572.155C1246.84 692.658 1225.37 847.99 1171.58 1009.58Z" stroke="url(#paint83_linear_252_6824)" stroke-opacity="0.3"/>
<path d="M1170.13 1013.81C1113.52 1174.43 1035.22 1310.29 954.39 1400.09C913.977 1445 872.951 1478.37 833.713 1497.57C794.477 1516.78 757.066 1521.81 723.835 1510.09C690.603 1498.38 664.61 1471.01 646.085 1431.45C627.56 1391.89 616.523 1340.17 613.193 1279.85C606.534 1159.21 630.709 1004.27 687.317 843.649C743.925 683.026 822.232 547.169 903.057 457.363C943.471 412.459 984.496 379.088 1023.73 359.881C1062.97 340.675 1100.38 335.649 1133.61 347.361C1166.84 359.072 1192.84 386.444 1211.36 426.006C1229.89 465.57 1240.92 517.29 1244.25 577.61C1250.91 698.248 1226.74 853.182 1170.13 1013.81Z" stroke="url(#paint84_linear_252_6824)" stroke-opacity="0.3"/>
<path d="M1168.61 1018.01C1109.21 1177.62 1028.54 1312.09 946.16 1400.47C904.969 1444.66 863.368 1477.31 823.8 1495.83C784.235 1514.35 746.743 1518.72 713.72 1506.43C680.698 1494.14 655.187 1466.32 637.355 1426.44C619.523 1386.56 609.39 1334.65 607.114 1274.28C602.561 1153.55 629.436 999.06 688.839 839.449C748.242 679.838 828.908 545.369 911.288 456.987C952.479 412.795 994.081 380.145 1033.65 361.626C1073.21 343.108 1110.71 338.735 1143.73 351.025C1176.75 363.315 1202.26 391.136 1220.09 431.015C1237.93 470.897 1248.06 522.801 1250.33 583.17C1254.89 703.906 1228.01 858.395 1168.61 1018.01Z" stroke="url(#paint85_linear_252_6824)" stroke-opacity="0.3"/>
<path d="M1167.01 1022.18C1104.83 1180.73 1021.83 1313.77 937.924 1400.7C895.968 1444.16 853.802 1476.08 813.918 1493.91C774.036 1511.73 736.472 1515.45 703.67 1502.59C670.867 1489.72 645.845 1461.46 628.712 1421.28C611.579 1381.09 602.353 1329.02 601.131 1268.62C598.686 1147.82 628.253 993.824 690.432 835.274C752.612 676.724 835.613 543.683 919.523 456.752C961.479 413.286 1003.64 381.367 1043.53 363.541C1083.41 345.716 1120.97 341.999 1153.78 354.863C1186.58 367.727 1211.6 395.989 1228.73 436.174C1245.87 476.36 1255.09 528.434 1256.32 588.834C1258.76 709.63 1229.19 863.627 1167.01 1022.18Z" stroke="url(#paint86_linear_252_6824)" stroke-opacity="0.3"/>
<path d="M1165.35 1026.32C1100.41 1183.76 1015.1 1315.34 929.686 1400.79C886.978 1443.52 844.262 1474.69 804.072 1491.82C763.885 1508.95 726.262 1512.01 693.689 1498.57C661.116 1485.14 636.591 1456.44 620.162 1415.97C603.733 1375.49 595.418 1323.26 595.249 1262.85C594.913 1142.03 627.163 988.572 692.1 831.131C757.037 673.69 842.347 542.118 927.762 456.665C970.47 413.938 1013.19 382.759 1053.38 365.632C1093.56 348.506 1131.19 345.445 1163.76 358.88C1196.33 372.315 1220.86 401.009 1237.29 441.486C1253.71 481.966 1262.03 534.192 1262.2 594.604C1262.53 715.425 1230.28 868.882 1165.35 1026.32Z" stroke="url(#paint87_linear_252_6824)" stroke-opacity="0.3"/>
<path d="M1163.61 1030.44C1095.93 1186.72 1008.34 1316.79 921.447 1400.73C878 1442.71 834.746 1473.14 794.264 1489.56C753.784 1505.98 716.114 1508.39 683.78 1494.39C651.446 1480.38 627.426 1451.27 611.706 1410.51C595.985 1369.75 588.583 1317.39 589.469 1256.98C591.241 1136.17 626.165 983.301 693.84 827.017C761.514 670.733 849.108 540.67 936.001 456.721C979.448 414.746 1022.7 384.317 1063.18 367.894C1103.66 351.472 1141.33 349.068 1173.67 363.069C1206 377.071 1230.02 406.189 1245.74 446.946C1261.46 487.707 1268.86 540.07 1267.98 600.476C1266.21 721.284 1231.28 874.155 1163.61 1030.44Z" stroke="url(#paint88_linear_252_6824)" stroke-opacity="0.3"/>
<path d="M1161.8 1034.52C1091.41 1189.6 1001.56 1318.12 913.211 1400.54C869.038 1441.75 825.26 1471.42 784.497 1487.13C743.737 1502.84 706.03 1504.59 673.946 1490.03C641.861 1475.46 618.353 1445.93 603.347 1404.9C588.34 1363.88 581.853 1311.39 583.793 1251.01C587.673 1130.25 625.26 978.013 695.651 822.934C766.043 667.855 855.893 539.341 944.238 456.921C988.411 415.71 1032.19 386.041 1072.95 370.327C1113.71 354.614 1151.42 352.868 1183.5 367.431C1215.59 381.995 1239.1 411.527 1254.1 452.553C1269.11 493.582 1275.6 546.067 1273.66 606.447C1269.78 727.207 1232.19 879.444 1161.8 1034.52Z" stroke="url(#paint89_linear_252_6824)" stroke-opacity="0.3"/>
<path d="M1159.92 1038.57C1086.83 1192.4 994.749 1319.33 904.979 1400.19C860.094 1440.63 815.804 1469.53 774.774 1484.53C733.745 1499.53 696.014 1500.61 664.188 1485.49C632.363 1470.37 609.374 1440.43 595.086 1399.15C580.797 1357.87 575.227 1305.28 578.22 1244.94C584.208 1124.27 624.445 972.707 697.533 818.881C770.621 665.054 862.7 538.127 952.47 457.262C997.355 416.828 1041.64 387.928 1082.68 372.928C1123.7 357.929 1161.44 356.84 1193.26 371.961C1225.09 387.083 1248.08 417.021 1262.36 458.303C1276.65 499.587 1282.22 552.177 1279.23 612.515C1273.24 733.188 1233 884.746 1159.92 1038.57Z" stroke="url(#paint90_linear_252_6824)" stroke-opacity="0.3"/>
<path d="M1157.96 1042.59C1082.2 1195.12 987.92 1320.42 896.753 1399.71C851.168 1439.35 806.381 1467.48 765.095 1481.76C723.811 1496.04 686.067 1496.47 654.51 1480.79C622.953 1465.12 600.49 1434.78 586.925 1393.26C573.359 1351.73 568.707 1299.05 572.753 1238.78C580.846 1118.23 623.722 967.393 699.483 814.865C775.245 662.337 869.525 537.037 960.692 457.75C1006.28 418.106 1051.06 389.983 1092.35 375.701C1133.63 361.421 1171.38 360.991 1202.94 376.665C1234.49 392.34 1256.96 422.675 1270.52 464.199C1284.09 505.727 1288.74 558.406 1284.69 618.682C1276.6 739.232 1233.72 890.066 1157.96 1042.59Z" stroke="url(#paint91_linear_252_6824)" stroke-opacity="0.3"/>
<path d="M1155.94 1046.58C1077.53 1197.76 981.077 1321.39 888.54 1399.08C842.27 1437.92 797 1465.26 755.47 1478.82C713.943 1492.37 676.197 1492.14 644.919 1475.92C613.64 1459.7 591.71 1428.98 578.872 1387.22C566.033 1345.46 562.301 1292.71 567.399 1232.51C577.594 1112.12 623.096 962.062 701.508 810.88C779.919 659.698 876.372 536.062 968.909 458.378C1015.18 419.536 1060.45 392.199 1101.98 378.64C1143.51 365.081 1181.25 365.311 1212.53 381.533C1243.81 397.756 1265.74 428.479 1278.58 470.234C1291.42 511.991 1295.15 564.744 1290.05 624.94C1279.86 745.331 1234.35 895.393 1155.94 1046.58Z" stroke="url(#paint92_linear_252_6824)" stroke-opacity="0.3"/>
<path d="M1153.85 1050.52C1072.81 1200.31 974.216 1322.25 880.337 1398.3C833.397 1436.33 787.656 1462.87 745.896 1475.71C704.139 1488.54 666.402 1487.65 635.412 1470.88C604.421 1454.12 583.03 1423.02 570.923 1381.04C558.814 1339.07 556.004 1286.26 562.151 1226.16C574.446 1105.97 622.56 956.722 703.598 806.931C784.637 657.14 883.233 535.206 977.111 459.15C1024.05 421.121 1069.79 394.578 1111.55 381.746C1153.31 368.914 1191.05 369.802 1222.04 386.569C1253.03 403.335 1274.42 434.435 1286.53 476.408C1298.63 518.383 1301.44 571.193 1295.3 631.291C1283 751.486 1234.89 900.731 1153.85 1050.52Z" stroke="url(#paint93_linear_252_6824)" stroke-opacity="0.3"/>
<path d="M1151.69 1054.43C1068.05 1202.78 967.34 1322.98 872.148 1397.39C824.551 1434.59 778.354 1460.33 736.376 1472.43C694.402 1484.53 656.687 1482.99 625.993 1465.68C595.3 1448.38 574.455 1416.91 563.082 1374.73C551.708 1332.55 549.82 1279.7 557.015 1219.72C571.405 1099.76 622.117 951.374 705.757 803.02C789.397 654.666 890.106 534.472 985.298 460.065C1032.9 422.861 1079.09 397.121 1121.07 385.019C1163.04 372.919 1200.76 374.465 1231.45 391.77C1262.15 409.074 1282.99 440.543 1294.36 482.721C1305.74 524.901 1307.63 577.752 1300.43 637.734C1286.04 757.695 1235.33 906.078 1151.69 1054.43Z" stroke="url(#paint94_linear_252_6824)" stroke-opacity="0.3"/>
<path d="M1149.46 1058.3C1063.25 1205.18 960.455 1323.59 863.979 1396.33C815.74 1432.7 769.1 1457.63 726.918 1468.99C684.739 1480.36 647.056 1478.15 616.67 1460.32C586.283 1442.48 565.991 1410.65 555.355 1368.28C544.719 1325.91 543.754 1273.03 551.995 1213.19C568.477 1093.49 621.77 946.02 707.987 799.148C794.203 652.277 896.994 533.858 993.47 461.125C1041.71 424.757 1088.35 399.827 1130.53 388.46C1172.71 377.093 1210.39 379.298 1240.78 397.135C1271.17 414.973 1291.46 446.801 1302.09 489.171C1312.73 531.543 1313.7 584.418 1305.45 644.266C1288.97 763.958 1235.68 911.432 1149.46 1058.3Z" stroke="url(#paint95_linear_252_6824)" stroke-opacity="0.3"/>
<path d="M1147.17 1062.14C1058.4 1207.48 953.559 1324.09 855.828 1395.13C806.962 1430.65 759.894 1454.76 717.52 1465.39C675.149 1476.02 637.511 1473.16 607.44 1454.79C577.369 1436.43 557.635 1404.25 547.741 1361.7C537.846 1319.15 537.803 1266.26 547.088 1206.57C565.656 1087.18 621.515 940.662 710.282 795.318C799.048 649.973 903.891 533.367 1001.62 462.328C1050.49 426.807 1097.56 402.695 1139.93 392.066C1182.3 381.437 1219.94 384.299 1250.01 402.664C1280.08 421.029 1299.81 453.207 1309.71 495.756C1319.6 538.307 1319.65 591.191 1310.36 650.886C1291.79 770.272 1235.93 916.794 1147.17 1062.14Z" stroke="url(#paint96_linear_252_6824)" stroke-opacity="0.3"/>
<path d="M1144.8 1065.93C1053.51 1209.7 946.653 1324.46 847.698 1393.79C798.219 1428.45 750.738 1451.73 708.185 1461.62C665.634 1471.51 628.051 1467.99 598.306 1449.1C568.56 1430.22 549.391 1397.7 540.241 1354.99C531.09 1312.27 531.97 1259.39 542.295 1199.87C562.944 1080.82 621.352 935.299 712.641 791.526C803.931 647.753 910.793 532.994 1009.75 463.671C1059.23 429.009 1106.71 405.722 1149.26 395.834C1191.81 385.946 1229.39 389.464 1259.14 408.352C1288.89 427.239 1308.05 459.756 1317.2 502.471C1326.36 545.188 1325.48 598.066 1315.15 657.589C1294.5 776.633 1236.09 922.158 1144.8 1065.93Z" stroke="url(#paint97_linear_252_6824)" stroke-opacity="0.3"/>
<path d="M1142.38 1069.68C1048.6 1211.84 939.748 1324.71 839.597 1392.3C789.521 1426.09 741.641 1448.55 698.921 1457.69C656.205 1466.83 618.689 1462.66 589.278 1443.26C559.867 1423.85 541.268 1391.01 532.864 1348.14C524.461 1305.27 526.263 1252.41 537.625 1193.08C560.349 1074.41 621.288 929.93 715.073 787.772C808.857 645.615 917.705 532.738 1017.86 465.153C1067.93 431.36 1115.81 408.904 1158.53 399.761C1201.25 390.617 1238.76 394.791 1268.17 414.194C1297.59 433.598 1316.19 466.444 1324.59 509.313C1332.99 552.183 1331.19 605.037 1319.83 664.371C1297.1 783.036 1236.17 927.52 1142.38 1069.68Z" stroke="url(#paint98_linear_252_6824)" stroke-opacity="0.3"/>
<path d="M1139.89 1073.39C1043.64 1213.89 932.834 1324.85 831.519 1390.67C780.861 1423.59 732.596 1445.2 689.724 1453.6C646.854 1462 609.417 1457.17 580.349 1437.26C551.281 1417.34 533.258 1384.18 525.604 1341.17C517.949 1298.16 520.674 1245.34 533.07 1186.22C557.861 1067.96 621.312 924.566 717.564 784.067C813.816 643.568 924.617 532.608 1025.93 466.781C1076.59 433.867 1124.85 412.251 1167.73 403.854C1210.6 395.458 1248.03 400.285 1277.1 420.199C1306.17 440.113 1324.19 473.279 1331.85 516.287C1339.5 559.298 1336.78 612.112 1324.38 671.239C1299.59 789.49 1236.14 932.888 1139.89 1073.39Z" stroke="url(#paint99_linear_252_6824)" stroke-opacity="0.3"/>
<defs>
<linearGradient id="paint0_linear_252_6824" x1="865.657" y1="1064.44" x2="996.574" y2="788.898" gradientUnits="userSpaceOnUse">
<stop stop-color="#FF7400"/>
<stop offset="1" stop-color="#121212"/>
</linearGradient>
<linearGradient id="paint1_linear_252_6824" x1="863.301" y1="1063.32" x2="999.006" y2="790.106" gradientUnits="userSpaceOnUse">
<stop stop-color="#FF7400"/>
<stop offset="1" stop-color="#121212"/>
</linearGradient>
<linearGradient id="paint2_linear_252_6824" x1="860.96" y1="1062.16" x2="1001.41" y2="791.355" gradientUnits="userSpaceOnUse">
<stop stop-color="#FF7400"/>
<stop offset="1" stop-color="#121212"/>
</linearGradient>
<linearGradient id="paint3_linear_252_6824" x1="858.643" y1="1060.95" x2="1003.8" y2="792.641" gradientUnits="userSpaceOnUse">
<stop stop-color="#FF7400"/>
<stop offset="1" stop-color="#121212"/>
</linearGradient>
<linearGradient id="paint4_linear_252_6824" x1="856.345" y1="1059.71" x2="1006.16" y2="793.977" gradientUnits="userSpaceOnUse">
<stop stop-color="#FF7400"/>
<stop offset="1" stop-color="#121212"/>
</linearGradient>
<linearGradient id="paint5_linear_252_6824" x1="854.073" y1="1058.43" x2="1008.51" y2="795.346" gradientUnits="userSpaceOnUse">
<stop stop-color="#FF7400"/>
<stop offset="1" stop-color="#121212"/>
</linearGradient>
<linearGradient id="paint6_linear_252_6824" x1="851.818" y1="1057.1" x2="1010.82" y2="796.76" gradientUnits="userSpaceOnUse">
<stop stop-color="#FF7400"/>
<stop offset="1" stop-color="#121212"/>
</linearGradient>
<linearGradient id="paint7_linear_252_6824" x1="849.59" y1="1055.74" x2="1013.11" y2="798.209" gradientUnits="userSpaceOnUse">
<stop stop-color="#FF7400"/>
<stop offset="1" stop-color="#121212"/>
</linearGradient>
<linearGradient id="paint8_linear_252_6824" x1="847.386" y1="1054.34" x2="1015.38" y2="799.7" gradientUnits="userSpaceOnUse">
<stop stop-color="#FF7400"/>
<stop offset="1" stop-color="#121212"/>
</linearGradient>
<linearGradient id="paint9_linear_252_6824" x1="845.204" y1="1052.9" x2="1017.61" y2="801.235" gradientUnits="userSpaceOnUse">
<stop stop-color="#FF7400"/>
<stop offset="1" stop-color="#121212"/>
</linearGradient>
<linearGradient id="paint10_linear_252_6824" x1="843.052" y1="1051.42" x2="1019.83" y2="802.806" gradientUnits="userSpaceOnUse">
<stop stop-color="#FF7400"/>
<stop offset="1" stop-color="#121212"/>
</linearGradient>
<linearGradient id="paint11_linear_252_6824" x1="840.925" y1="1049.91" x2="1022.01" y2="804.415" gradientUnits="userSpaceOnUse">
<stop stop-color="#FF7400"/>
<stop offset="1" stop-color="#121212"/>
</linearGradient>
<linearGradient id="paint12_linear_252_6824" x1="838.822" y1="1048.36" x2="1024.16" y2="806.062" gradientUnits="userSpaceOnUse">
<stop stop-color="#FF7400"/>
<stop offset="1" stop-color="#121212"/>
</linearGradient>
<linearGradient id="paint13_linear_252_6824" x1="836.747" y1="1046.77" x2="1026.29" y2="807.746" gradientUnits="userSpaceOnUse">
<stop stop-color="#FF7400"/>
<stop offset="1" stop-color="#121212"/>
</linearGradient>
<linearGradient id="paint14_linear_252_6824" x1="834.701" y1="1045.15" x2="1028.39" y2="809.471" gradientUnits="userSpaceOnUse">
<stop stop-color="#FF7400"/>
<stop offset="1" stop-color="#121212"/>
</linearGradient>
<linearGradient id="paint15_linear_252_6824" x1="832.683" y1="1043.49" x2="1030.45" y2="811.224" gradientUnits="userSpaceOnUse">
<stop stop-color="#FF7400"/>
<stop offset="1" stop-color="#121212"/>
</linearGradient>
<linearGradient id="paint16_linear_252_6824" x1="830.696" y1="1041.8" x2="1032.49" y2="813.019" gradientUnits="userSpaceOnUse">
<stop stop-color="#FF7400"/>
<stop offset="1" stop-color="#121212"/>
</linearGradient>
<linearGradient id="paint17_linear_252_6824" x1="828.737" y1="1040.07" x2="1034.49" y2="814.85" gradientUnits="userSpaceOnUse">
<stop stop-color="#FF7400"/>
<stop offset="1" stop-color="#121212"/>
</linearGradient>
<linearGradient id="paint18_linear_252_6824" x1="826.808" y1="1038.31" x2="1036.46" y2="816.711" gradientUnits="userSpaceOnUse">
<stop stop-color="#FF7400"/>
<stop offset="1" stop-color="#121212"/>
</linearGradient>
<linearGradient id="paint19_linear_252_6824" x1="824.912" y1="1036.51" x2="1038.4" y2="818.608" gradientUnits="userSpaceOnUse">
<stop stop-color="#FF7400"/>
<stop offset="1" stop-color="#121212"/>
</linearGradient>
<linearGradient id="paint20_linear_252_6824" x1="823.047" y1="1034.69" x2="1040.31" y2="820.54" gradientUnits="userSpaceOnUse">
<stop stop-color="#FF7400"/>
<stop offset="1" stop-color="#121212"/>
</linearGradient>
<linearGradient id="paint21_linear_252_6824" x1="821.213" y1="1032.82" x2="1042.18" y2="822.503" gradientUnits="userSpaceOnUse">
<stop stop-color="#FF7400"/>
<stop offset="1" stop-color="#121212"/>
</linearGradient>
<linearGradient id="paint22_linear_252_6824" x1="819.413" y1="1030.93" x2="1044.02" y2="824.497" gradientUnits="userSpaceOnUse">
<stop stop-color="#FF7400"/>
<stop offset="1" stop-color="#121212"/>
</linearGradient>
<linearGradient id="paint23_linear_252_6824" x1="817.646" y1="1029.01" x2="1045.82" y2="826.526" gradientUnits="userSpaceOnUse">
<stop stop-color="#FF7400"/>
<stop offset="1" stop-color="#121212"/>
</linearGradient>
<linearGradient id="paint24_linear_252_6824" x1="815.913" y1="1027.05" x2="1047.58" y2="828.585" gradientUnits="userSpaceOnUse">
<stop stop-color="#FF7400"/>
<stop offset="1" stop-color="#121212"/>
</linearGradient>
<linearGradient id="paint25_linear_252_6824" x1="814.214" y1="1025.07" x2="1049.31" y2="830.675" gradientUnits="userSpaceOnUse">
<stop stop-color="#FF7400"/>
<stop offset="1" stop-color="#121212"/>
</linearGradient>
<linearGradient id="paint26_linear_252_6824" x1="812.552" y1="1023.06" x2="1051.01" y2="832.796" gradientUnits="userSpaceOnUse">
<stop stop-color="#FF7400"/>
<stop offset="1" stop-color="#121212"/>
</linearGradient>
<linearGradient id="paint27_linear_252_6824" x1="810.923" y1="1021.01" x2="1052.66" y2="834.943" gradientUnits="userSpaceOnUse">
<stop stop-color="#FF7400"/>
<stop offset="1" stop-color="#121212"/>
</linearGradient>
<linearGradient id="paint28_linear_252_6824" x1="809.329" y1="1018.95" x2="1054.28" y2="837.121" gradientUnits="userSpaceOnUse">
<stop stop-color="#FF7400"/>
<stop offset="1" stop-color="#121212"/>
</linearGradient>
<linearGradient id="paint29_linear_252_6824" x1="807.772" y1="1016.85" x2="1055.86" y2="839.325" gradientUnits="userSpaceOnUse">
<stop stop-color="#FF7400"/>
<stop offset="1" stop-color="#121212"/>
</linearGradient>
<linearGradient id="paint30_linear_252_6824" x1="806.253" y1="1014.72" x2="1057.4" y2="841.557" gradientUnits="userSpaceOnUse">
<stop stop-color="#FF7400"/>
<stop offset="1" stop-color="#121212"/>
</linearGradient>
<linearGradient id="paint31_linear_252_6824" x1="804.772" y1="1012.57" x2="1058.9" y2="843.813" gradientUnits="userSpaceOnUse">
<stop stop-color="#FF7400"/>
<stop offset="1" stop-color="#121212"/>
</linearGradient>
<linearGradient id="paint32_linear_252_6824" x1="803.328" y1="1010.4" x2="1060.36" y2="846.103" gradientUnits="userSpaceOnUse">
<stop stop-color="#FF7400"/>
<stop offset="1" stop-color="#121212"/>
</linearGradient>
<linearGradient id="paint33_linear_252_6824" x1="801.919" y1="1008.19" x2="1061.78" y2="848.411" gradientUnits="userSpaceOnUse">
<stop stop-color="#FF7400"/>
<stop offset="1" stop-color="#121212"/>
</linearGradient>
<linearGradient id="paint34_linear_252_6824" x1="800.552" y1="1005.97" x2="1063.17" y2="850.746" gradientUnits="userSpaceOnUse">
<stop stop-color="#FF7400"/>
<stop offset="1" stop-color="#121212"/>
</linearGradient>
<linearGradient id="paint35_linear_252_6824" x1="799.225" y1="1003.72" x2="1064.51" y2="853.103" gradientUnits="userSpaceOnUse">
<stop stop-color="#FF7400"/>
<stop offset="1" stop-color="#121212"/>
</linearGradient>
<linearGradient id="paint36_linear_252_6824" x1="797.933" y1="1001.45" x2="1065.8" y2="855.487" gradientUnits="userSpaceOnUse">
<stop stop-color="#FF7400"/>
<stop offset="1" stop-color="#121212"/>
</linearGradient>
<linearGradient id="paint37_linear_252_6824" x1="796.687" y1="999.158" x2="1067.06" y2="857.891" gradientUnits="userSpaceOnUse">
<stop stop-color="#FF7400"/>
<stop offset="1" stop-color="#121212"/>
</linearGradient>
<linearGradient id="paint38_linear_252_6824" x1="795.479" y1="996.838" x2="1068.28" y2="860.311" gradientUnits="userSpaceOnUse">
<stop stop-color="#FF7400"/>
<stop offset="1" stop-color="#121212"/>
</linearGradient>
<linearGradient id="paint39_linear_252_6824" x1="794.309" y1="994.505" x2="1069.45" y2="862.76" gradientUnits="userSpaceOnUse">
<stop stop-color="#FF7400"/>
<stop offset="1" stop-color="#121212"/>
</linearGradient>
<linearGradient id="paint40_linear_252_6824" x1="793.18" y1="992.153" x2="1070.58" y2="865.23" gradientUnits="userSpaceOnUse">
<stop stop-color="#FF7400"/>
<stop offset="1" stop-color="#121212"/>
</linearGradient>
<linearGradient id="paint41_linear_252_6824" x1="792.094" y1="989.773" x2="1071.67" y2="867.711" gradientUnits="userSpaceOnUse">
<stop stop-color="#FF7400"/>
<stop offset="1" stop-color="#121212"/>
</linearGradient>
<linearGradient id="paint42_linear_252_6824" x1="791.051" y1="987.377" x2="1072.71" y2="870.213" gradientUnits="userSpaceOnUse">
<stop stop-color="#FF7400"/>
<stop offset="1" stop-color="#121212"/>
</linearGradient>
<linearGradient id="paint43_linear_252_6824" x1="790.049" y1="984.966" x2="1073.71" y2="872.735" gradientUnits="userSpaceOnUse">
<stop stop-color="#FF7400"/>
<stop offset="1" stop-color="#121212"/>
</linearGradient>
<linearGradient id="paint44_linear_252_6824" x1="789.088" y1="982.541" x2="1074.67" y2="875.277" gradientUnits="userSpaceOnUse">
<stop stop-color="#FF7400"/>
<stop offset="1" stop-color="#121212"/>
</linearGradient>
<linearGradient id="paint45_linear_252_6824" x1="788.168" y1="980.095" x2="1075.57" y2="877.832" gradientUnits="userSpaceOnUse">
<stop stop-color="#FF7400"/>
<stop offset="1" stop-color="#121212"/>
</linearGradient>
<linearGradient id="paint46_linear_252_6824" x1="787.292" y1="977.633" x2="1076.44" y2="880.401" gradientUnits="userSpaceOnUse">
<stop stop-color="#FF7400"/>
<stop offset="1" stop-color="#121212"/>
</linearGradient>
<linearGradient id="paint47_linear_252_6824" x1="786.462" y1="975.157" x2="1077.26" y2="882.986" gradientUnits="userSpaceOnUse">
<stop stop-color="#FF7400"/>
<stop offset="1" stop-color="#121212"/>
</linearGradient>
<linearGradient id="paint48_linear_252_6824" x1="785.673" y1="972.669" x2="1078.04" y2="885.588" gradientUnits="userSpaceOnUse">
<stop stop-color="#FF7400"/>
<stop offset="1" stop-color="#121212"/>
</linearGradient>
<linearGradient id="paint49_linear_252_6824" x1="784.927" y1="970.165" x2="1078.77" y2="888.2" gradientUnits="userSpaceOnUse">
<stop stop-color="#FF7400"/>
<stop offset="1" stop-color="#121212"/>
</linearGradient>
<linearGradient id="paint50_linear_252_6824" x1="784.227" y1="967.648" x2="1079.45" y2="890.823" gradientUnits="userSpaceOnUse">
<stop stop-color="#FF7400"/>
<stop offset="1" stop-color="#121212"/>
</linearGradient>
<linearGradient id="paint51_linear_252_6824" x1="783.569" y1="965.121" x2="1080.09" y2="893.461" gradientUnits="userSpaceOnUse">
<stop stop-color="#FF7400"/>
<stop offset="1" stop-color="#121212"/>
</linearGradient>
<linearGradient id="paint52_linear_252_6824" x1="782.957" y1="962.581" x2="1080.68" y2="896.107" gradientUnits="userSpaceOnUse">
<stop stop-color="#FF7400"/>
<stop offset="1" stop-color="#121212"/>
</linearGradient>
<linearGradient id="paint53_linear_252_6824" x1="782.387" y1="960.034" x2="1081.23" y2="898.766" gradientUnits="userSpaceOnUse">
<stop stop-color="#FF7400"/>
<stop offset="1" stop-color="#121212"/>
</linearGradient>
<linearGradient id="paint54_linear_252_6824" x1="781.864" y1="957.472" x2="1081.73" y2="901.428" gradientUnits="userSpaceOnUse">
<stop stop-color="#FF7400"/>
<stop offset="1" stop-color="#121212"/>
</linearGradient>
<linearGradient id="paint55_linear_252_6824" x1="781.384" y1="954.906" x2="1082.18" y2="904.104" gradientUnits="userSpaceOnUse">
<stop stop-color="#FF7400"/>
<stop offset="1" stop-color="#121212"/>
</linearGradient>
<linearGradient id="paint56_linear_252_6824" x1="780.949" y1="952.333" x2="1082.59" y2="906.789" gradientUnits="userSpaceOnUse">
<stop stop-color="#FF7400"/>
<stop offset="1" stop-color="#121212"/>
</linearGradient>
<linearGradient id="paint57_linear_252_6824" x1="780.562" y1="949.748" x2="1082.95" y2="909.475" gradientUnits="userSpaceOnUse">
<stop stop-color="#FF7400"/>
<stop offset="1" stop-color="#121212"/>
</linearGradient>
<linearGradient id="paint58_linear_252_6824" x1="780.214" y1="947.163" x2="1083.26" y2="912.174" gradientUnits="userSpaceOnUse">
<stop stop-color="#FF7400"/>
<stop offset="1" stop-color="#121212"/>
</linearGradient>
<linearGradient id="paint59_linear_252_6824" x1="779.916" y1="944.565" x2="1083.52" y2="914.87" gradientUnits="userSpaceOnUse">
<stop stop-color="#FF7400"/>
<stop offset="1" stop-color="#121212"/>
</linearGradient>
<linearGradient id="paint60_linear_252_6824" x1="779.662" y1="941.968" x2="1083.74" y2="917.576" gradientUnits="userSpaceOnUse">
<stop stop-color="#FF7400"/>
<stop offset="1" stop-color="#121212"/>
</linearGradient>
<linearGradient id="paint61_linear_252_6824" x1="779.455" y1="939.362" x2="1083.92" y2="920.281" gradientUnits="userSpaceOnUse">
<stop stop-color="#FF7400"/>
<stop offset="1" stop-color="#121212"/>
</linearGradient>
<linearGradient id="paint62_linear_252_6824" x1="779.291" y1="936.758" x2="1084.04" y2="922.993" gradientUnits="userSpaceOnUse">
<stop stop-color="#FF7400"/>
<stop offset="1" stop-color="#121212"/>
</linearGradient>
<linearGradient id="paint63_linear_252_6824" x1="779.175" y1="934.147" x2="1084.12" y2="925.702" gradientUnits="userSpaceOnUse">
<stop stop-color="#FF7400"/>
<stop offset="1" stop-color="#121212"/>
</linearGradient>
<linearGradient id="paint64_linear_252_6824" x1="779.102" y1="931.537" x2="1084.14" y2="928.416" gradientUnits="userSpaceOnUse">
<stop stop-color="#FF7400"/>
<stop offset="1" stop-color="#121212"/>
</linearGradient>
<linearGradient id="paint65_linear_252_6824" x1="779.077" y1="928.924" x2="1084.13" y2="931.127" gradientUnits="userSpaceOnUse">
<stop stop-color="#FF7400"/>
<stop offset="1" stop-color="#121212"/>
</linearGradient>
<linearGradient id="paint66_linear_252_6824" x1="779.096" y1="926.311" x2="1084.06" y2="933.838" gradientUnits="userSpaceOnUse">
<stop stop-color="#FF7400"/>
<stop offset="1" stop-color="#121212"/>
</linearGradient>
<linearGradient id="paint67_linear_252_6824" x1="779.162" y1="923.703" x2="1083.95" y2="936.551" gradientUnits="userSpaceOnUse">
<stop stop-color="#FF7400"/>
<stop offset="1" stop-color="#121212"/>
</linearGradient>
<linearGradient id="paint68_linear_252_6824" x1="779.272" y1="921.091" x2="1083.79" y2="939.256" gradientUnits="userSpaceOnUse">
<stop stop-color="#FF7400"/>
<stop offset="1" stop-color="#121212"/>
</linearGradient>
<linearGradient id="paint69_linear_252_6824" x1="779.428" y1="918.487" x2="1083.58" y2="941.964" gradientUnits="userSpaceOnUse">
<stop stop-color="#FF7400"/>
<stop offset="1" stop-color="#121212"/>
</linearGradient>
<linearGradient id="paint70_linear_252_6824" x1="779.63" y1="915.882" x2="1083.33" y2="944.663" gradientUnits="userSpaceOnUse">
<stop stop-color="#FF7400"/>
<stop offset="1" stop-color="#121212"/>
</linearGradient>
<linearGradient id="paint71_linear_252_6824" x1="779.878" y1="913.279" x2="1083.03" y2="947.356" gradientUnits="userSpaceOnUse">
<stop stop-color="#FF7400"/>
<stop offset="1" stop-color="#121212"/>
</linearGradient>
<linearGradient id="paint72_linear_252_6824" x1="780.169" y1="910.684" x2="1082.68" y2="950.047" gradientUnits="userSpaceOnUse">
<stop stop-color="#FF7400"/>
<stop offset="1" stop-color="#121212"/>
</linearGradient>
<linearGradient id="paint73_linear_252_6824" x1="780.507" y1="908.098" x2="1082.28" y2="952.734" gradientUnits="userSpaceOnUse">
<stop stop-color="#FF7400"/>
<stop offset="1" stop-color="#121212"/>
</linearGradient>
<linearGradient id="paint74_linear_252_6824" x1="780.889" y1="905.514" x2="1081.84" y2="955.41" gradientUnits="userSpaceOnUse">
<stop stop-color="#FF7400"/>
<stop offset="1" stop-color="#121212"/>
</linearGradient>
<linearGradient id="paint75_linear_252_6824" x1="781.315" y1="902.938" x2="1081.35" y2="958.079" gradientUnits="userSpaceOnUse">
<stop stop-color="#FF7400"/>
<stop offset="1" stop-color="#121212"/>
</linearGradient>
<linearGradient id="paint76_linear_252_6824" x1="781.79" y1="900.365" x2="1080.81" y2="960.734" gradientUnits="userSpaceOnUse">
<stop stop-color="#FF7400"/>
<stop offset="1" stop-color="#121212"/>
</linearGradient>
<linearGradient id="paint77_linear_252_6824" x1="782.307" y1="897.805" x2="1080.23" y2="963.384" gradientUnits="userSpaceOnUse">
<stop stop-color="#FF7400"/>
<stop offset="1" stop-color="#121212"/>
</linearGradient>
<linearGradient id="paint78_linear_252_6824" x1="782.868" y1="895.256" x2="1079.6" y2="966.024" gradientUnits="userSpaceOnUse">
<stop stop-color="#FF7400"/>
<stop offset="1" stop-color="#121212"/>
</linearGradient>
<linearGradient id="paint79_linear_252_6824" x1="783.474" y1="892.712" x2="1078.93" y2="968.647" gradientUnits="userSpaceOnUse">
<stop stop-color="#FF7400"/>
<stop offset="1" stop-color="#121212"/>
</linearGradient>
<linearGradient id="paint80_linear_252_6824" x1="784.125" y1="890.187" x2="1078.21" y2="971.268" gradientUnits="userSpaceOnUse">
<stop stop-color="#FF7400"/>
<stop offset="1" stop-color="#121212"/>
</linearGradient>
<linearGradient id="paint81_linear_252_6824" x1="784.82" y1="887.666" x2="1077.45" y2="973.867" gradientUnits="userSpaceOnUse">
<stop stop-color="#FF7400"/>
<stop offset="1" stop-color="#121212"/>
</linearGradient>
<linearGradient id="paint82_linear_252_6824" x1="785.559" y1="885.161" x2="1076.64" y2="976.456" gradientUnits="userSpaceOnUse">
<stop stop-color="#FF7400"/>
<stop offset="1" stop-color="#121212"/>
</linearGradient>
<linearGradient id="paint83_linear_252_6824" x1="786.34" y1="882.669" x2="1075.78" y2="979.03" gradientUnits="userSpaceOnUse">
<stop stop-color="#FF7400"/>
<stop offset="1" stop-color="#121212"/>
</linearGradient>
<linearGradient id="paint84_linear_252_6824" x1="787.166" y1="880.193" x2="1074.88" y2="981.591" gradientUnits="userSpaceOnUse">
<stop stop-color="#FF7400"/>
<stop offset="1" stop-color="#121212"/>
</linearGradient>
<linearGradient id="paint85_linear_252_6824" x1="788.035" y1="877.73" x2="1073.93" y2="984.133" gradientUnits="userSpaceOnUse">
<stop stop-color="#FF7400"/>
<stop offset="1" stop-color="#121212"/>
</linearGradient>
<linearGradient id="paint86_linear_252_6824" x1="788.945" y1="875.28" x2="1072.94" y2="986.657" gradientUnits="userSpaceOnUse">
<stop stop-color="#FF7400"/>
<stop offset="1" stop-color="#121212"/>
</linearGradient>
<linearGradient id="paint87_linear_252_6824" x1="789.9" y1="872.85" x2="1071.91" y2="989.167" gradientUnits="userSpaceOnUse">
<stop stop-color="#FF7400"/>
<stop offset="1" stop-color="#121212"/>
</linearGradient>
<linearGradient id="paint88_linear_252_6824" x1="790.896" y1="870.437" x2="1070.83" y2="991.657" gradientUnits="userSpaceOnUse">
<stop stop-color="#FF7400"/>
<stop offset="1" stop-color="#121212"/>
</linearGradient>
<linearGradient id="paint89_linear_252_6824" x1="791.935" y1="868.041" x2="1069.72" y2="994.129" gradientUnits="userSpaceOnUse">
<stop stop-color="#FF7400"/>
<stop offset="1" stop-color="#121212"/>
</linearGradient>
<linearGradient id="paint90_linear_252_6824" x1="793.015" y1="865.661" x2="1068.55" y2="996.578" gradientUnits="userSpaceOnUse">
<stop stop-color="#FF7400"/>
<stop offset="1" stop-color="#121212"/>
</linearGradient>
<linearGradient id="paint91_linear_252_6824" x1="794.134" y1="863.305" x2="1067.35" y2="999.01" gradientUnits="userSpaceOnUse">
<stop stop-color="#FF7400"/>
<stop offset="1" stop-color="#121212"/>
</linearGradient>
<linearGradient id="paint92_linear_252_6824" x1="795.299" y1="860.964" x2="1066.1" y2="1001.42" gradientUnits="userSpaceOnUse">
<stop stop-color="#FF7400"/>
<stop offset="1" stop-color="#121212"/>
</linearGradient>
<linearGradient id="paint93_linear_252_6824" x1="796.501" y1="858.645" x2="1064.81" y2="1003.8" gradientUnits="userSpaceOnUse">
<stop stop-color="#FF7400"/>
<stop offset="1" stop-color="#121212"/>
</linearGradient>
<linearGradient id="paint94_linear_252_6824" x1="797.743" y1="856.347" x2="1063.48" y2="1006.17" gradientUnits="userSpaceOnUse">
<stop stop-color="#FF7400"/>
<stop offset="1" stop-color="#121212"/>
</linearGradient>
<linearGradient id="paint95_linear_252_6824" x1="799.028" y1="854.073" x2="1062.11" y2="1008.51" gradientUnits="userSpaceOnUse">
<stop stop-color="#FF7400"/>
<stop offset="1" stop-color="#121212"/>
</linearGradient>
<linearGradient id="paint96_linear_252_6824" x1="800.351" y1="851.822" x2="1060.69" y2="1010.82" gradientUnits="userSpaceOnUse">
<stop stop-color="#FF7400"/>
<stop offset="1" stop-color="#121212"/>
</linearGradient>
<linearGradient id="paint97_linear_252_6824" x1="801.711" y1="849.594" x2="1059.24" y2="1013.11" gradientUnits="userSpaceOnUse">
<stop stop-color="#FF7400"/>
<stop offset="1" stop-color="#121212"/>
</linearGradient>
<linearGradient id="paint98_linear_252_6824" x1="803.115" y1="847.386" x2="1057.75" y2="1015.38" gradientUnits="userSpaceOnUse">
<stop stop-color="#FF7400"/>
<stop offset="1" stop-color="#121212"/>
</linearGradient>
<linearGradient id="paint99_linear_252_6824" x1="804.552" y1="845.208" x2="1056.22" y2="1017.62" gradientUnits="userSpaceOnUse">
<stop stop-color="#FF7400"/>
<stop offset="1" stop-color="#121212"/>
</linearGradient>
</defs>
</svg>
