<svg width="106" height="34" viewBox="0 0 106 34" fill="none" xmlns="http://www.w3.org/2000/svg">
<path d="M37.9172 12.3515C37.8137 12.2459 37.7531 12.1493 37.6675 12.0152C37.6229 11.9472 37.5747 11.8738 37.5211 11.7951C37.6693 11.6234 37.7942 11.4248 37.8887 11.2066L38.267 10.3427L37.3356 10.2085C37.1786 10.1852 36.9252 10.119 36.6291 10.0403C36.0581 9.89011 35.3248 9.69691 34.5254 9.61278C34.7985 9.49293 35.0304 9.27655 35.1927 8.98323L35.3462 8.70598C35.3462 8.70598 35.3052 8.31775 35.1553 8.19614C35.2124 8.07628 35.257 7.94389 35.2873 7.79903L35.414 7.18012L34.818 6.97617C34.7253 6.94397 34.6325 6.92073 34.5415 6.90645C34.5076 6.79369 34.4577 6.67392 34.3898 6.54688L34.0366 5.89757L33.3996 6.27142C33.2408 6.36439 33.107 6.47174 32.9982 6.5916C32.9036 6.57367 32.8018 6.5648 32.6948 6.5648C32.6948 6.5648 32.3309 6.52364 31.9294 6.67028L31.4156 6.13551L30.8071 5.48433C30.238 4.87441 29.4671 4.69369 28.6821 4.99426C28.3824 4.69369 27.9149 4.44511 27.1888 4.44511C26.9425 4.44511 26.7266 4.47545 26.5999 4.4916C26.5999 4.4916 25.6008 4.67399 25.0387 5.20887L24.3572 4.88328C23.9004 5.60418 23.1189 5.83316 23.1189 5.83316C23.0654 5.62211 22.9744 5.42533 22.8442 5.24462L22.8887 4.99062C22.8887 4.98353 23.0422 4.12307 23.5096 3.3933L24.3233 2.12324L23.1706 2.25383C23.1742 2.1393 23.1689 2.00338 23.1528 1.84236L23.0493 0.854949L22.1465 1.26465C22.0465 1.30936 21.9627 1.35407 21.8843 1.39523L21.7058 1.0142L21.2919 1.2289C21.2508 1.12686 21.1973 1.01065 21.1242 0.876418L20.6478 0L19.9715 0.731547C19.902 0.806691 19.843 0.876418 19.7931 0.9426L19.3828 0.533003L18.9688 0.944467C18.9171 0.878285 18.86 0.808467 18.7904 0.733322L18.107 0L17.6288 0.88006C17.5557 1.0142 17.504 1.12864 17.463 1.23066L17.0508 1.01598L16.8723 1.39701C16.7939 1.35584 16.71 1.31113 16.6101 1.26465L15.7037 0.856816L15.6038 1.84777C15.5877 2.00693 15.5823 2.14116 15.586 2.2556L14.4315 2.12501L15.247 3.39507C15.7162 4.12307 15.866 4.98353 15.866 4.99062L15.9089 5.24462C15.7786 5.42711 15.6858 5.62388 15.6341 5.83494C15.6341 5.83494 14.8955 5.51831 14.4012 4.88328L13.7054 5.21605C12.9113 4.67941 12.4189 4.47013 11.5625 4.44511C10.8363 4.42542 10.3688 4.69369 10.0691 4.99426C9.28228 4.69547 8.5132 4.87618 7.94588 5.4861C7.94588 5.4861 7.57298 5.89216 7.33747 6.13728C7.10196 6.38409 6.75401 6.58804 6.75401 6.58804C6.75401 6.58804 6.2598 6.47715 5.75124 6.59336C5.64243 6.47351 5.50689 6.36625 5.34628 6.27142L4.70749 5.89757L4.356 6.55043C4.28818 6.6757 4.24002 6.79369 4.20797 6.90645C4.11695 6.92073 4.02417 6.94397 3.93138 6.97617L3.33898 7.18371L3.46214 7.79903C3.49241 7.94756 3.53527 8.07988 3.59414 8.19973C3.56024 8.26596 3.52996 8.33564 3.50499 8.40906L3.40503 8.70774L3.55669 8.98499C3.7173 9.27655 3.9474 9.49483 4.22222 9.61461C3.42106 9.69867 2.68957 9.89194 2.11683 10.0421C1.82244 10.119 1.56905 10.1871 1.41208 10.2103L0.477129 10.3463L0.689438 10.8292L0.858989 11.2138C0.955315 11.4285 1.08202 11.627 1.22827 11.7987C1.17294 11.8775 0.937427 12.2477 0.832157 12.3533L0.359375 12.8344L0.812595 13.3353C0.869608 13.3961 1.37816 13.931 2.20067 13.9328C2.42546 13.9328 2.64848 13.8934 2.86974 13.8147C3.08922 14.1581 3.34969 14.5069 3.58706 14.6786C3.14987 15.1938 2.65212 15.641 1.94373 15.9791L1.35143 16.2617L1.6065 16.9397C1.77251 17.3493 2.09539 17.7983 2.71984 17.9701C2.58607 18.3707 2.52188 18.75 2.46478 19.088C2.3309 19.8912 2.2738 20.2238 1.56905 20.4724L0.935658 20.6944L1.11769 21.3419C1.26395 21.8695 1.48343 22.2184 1.72071 22.4491L1.29963 22.9142C1.29963 22.9142 2.29886 23.6654 3.27833 23.7567C3.29258 23.7585 4.12766 23.8122 4.50235 23.3328C4.65224 23.8766 4.88952 24.3774 5.10537 24.8318C5.54787 25.7655 5.78338 26.3182 5.48723 26.8227L4.81816 27.9604L6.13311 27.9049C6.70761 27.8816 7.24114 27.8458 7.70321 27.7314C7.70321 27.7564 7.70145 27.7796 7.69969 27.8029L7.5926 28.7795L8.74518 28.5363C8.86655 28.5005 8.98068 28.4522 9.08419 28.3967C9.79792 29.234 11.0112 29.8868 12.6455 29.8868H12.74L10.8613 30.6595L12.2298 31.3732C13.1309 31.8437 14.1318 32.2372 15.2737 32.5718L15.1148 33.1209L15.8018 33.3231C16.1979 33.4393 17.6306 33.8203 19.3756 33.8203C21.1206 33.8203 22.5515 33.4393 22.9495 33.3231L23.6345 33.1209L23.4757 32.5736C24.6194 32.239 25.6205 31.8455 26.5214 31.3751L27.89 30.6614L26.0094 29.8886H26.1039C27.7383 29.8886 28.9497 29.2357 29.6635 28.3985C29.7669 28.4541 29.8812 28.5023 30.0025 28.5381L31.155 28.7813L31.0497 27.8065C31.048 27.7832 31.0462 27.7581 31.0462 27.7331C31.5066 27.8476 32.0418 27.8816 32.6145 27.9067L33.9295 27.9621L33.2641 26.8262C32.966 26.3218 33.2033 25.769 33.6441 24.8353C33.86 24.381 34.0973 23.8801 34.2472 23.3363C34.5005 23.5295 34.7735 23.6458 35.0447 23.7066C35.0447 23.7066 35.2553 23.7693 35.4569 23.7745C36.0385 23.7924 36.3292 23.6262 36.729 23.3739L37.4552 22.9159L37.0304 22.4509C37.2678 22.2219 37.4872 21.8731 37.6336 21.3472L37.8174 20.6979L37.1821 20.4761C36.4756 20.2274 36.4203 19.8947 36.2865 19.0916C36.2294 18.7535 36.167 18.3724 36.0314 17.9736C36.6558 17.8 36.977 17.3511 37.1429 16.9433L37.3963 16.2635L36.8039 15.9809C36.0955 15.6429 35.5978 15.1956 35.1588 14.6805C35.3979 14.5087 35.6584 14.1599 35.8797 13.8164C36.0991 13.8951 36.3222 13.9328 36.5488 13.9345C37.3713 13.9345 37.8816 13.3997 37.9369 13.3389L38.3901 12.838L37.9172 12.3515Z" fill="white"/>
<path fill-rule="evenodd" clip-rule="evenodd" d="M13.5771 21.1672V15.7115C13.5771 15.2034 13.4307 14.6954 13.2559 14.2285H17.4792C17.8664 14.7616 18.5693 15.1194 19.3758 15.1194C20.1787 15.1194 20.8817 14.7616 21.2707 14.2285H25.4939C25.3155 14.6972 25.1709 15.2034 25.1709 15.7115V21.1672H13.5771ZM19.374 28.6229C18.7835 28.0343 18.3624 27.9699 16.7709 27.9699C14.8688 27.9699 13.5771 26.8519 13.5771 25.065V21.4874H25.1692V25.065C25.1692 26.8519 23.8792 27.9699 21.9736 27.9699C20.3839 27.9681 19.9628 28.0343 19.374 28.6229Z" fill="#FFDD2D"/>
<path d="M14.2485 29.2969V30.3862L13.3047 30.7673C14.1022 31.1304 15.0925 31.4917 16.2558 31.7582L16.791 30.0106C15.6492 29.7763 14.8534 29.5313 14.2485 29.2969Z" fill="white"/>
<path d="M19.3728 30.7725C18.2577 30.7725 17.3193 30.6561 16.9445 30.5703L16.3789 32.4038C17.2674 32.622 18.3077 32.783 19.3728 32.783C20.4345 32.783 21.4747 32.6238 22.3668 32.4038L21.7995 30.5703C21.4248 30.658 20.4899 30.7725 19.3728 30.7725Z" fill="white"/>
<path d="M24.4976 29.2969C23.891 29.5313 23.097 29.7746 21.9551 30.0124L22.4922 31.7601C23.6573 31.4935 24.6439 31.1322 25.4415 30.769L24.4993 30.3881V29.2969H24.4976Z" fill="white"/>
<path d="M12.274 11.7222C13.7513 10.9226 17.3626 9.1625 14.9146 7.26462C14.581 7.00696 14.2134 6.77444 13.9048 6.48647C13.5229 6.78163 14.0475 7.51503 14.1795 7.78334C14.1795 7.78334 13.3642 7.86563 13.1697 7.86563C11.91 7.86021 10.5897 7.11257 11.2588 5.67969C10.7574 5.78349 10.6968 6.26646 10.5433 6.67961C10.2221 6.46145 9.66372 5.99276 9.23365 6.05895C9.58342 7.18049 11.0554 8.19115 12.1973 8.42015C11.0429 9.04977 8.90182 9.51846 7.77596 8.16255C6.98556 9.69552 8.08641 10.3359 9.16587 11.1391C5.0568 13.0191 5.66345 15.128 2.96752 16.788C3.31723 16.9526 4.87663 16.6216 5.01581 16.602C4.43058 17.3622 4.15753 17.6842 3.98631 18.0545C3.82216 18.4014 3.74894 18.7933 3.58665 19.6376C3.45996 20.3048 3.22799 20.9702 2.41797 21.4121C2.73555 21.988 3.4403 21.5372 3.73469 21.4603C3.69546 21.5211 3.59551 22.2152 3.33149 22.5496C4.71602 22.4602 4.07546 19.5338 5.46009 20.2386C5.8508 20.4354 5.96855 20.8969 5.78838 21.2743C4.8784 23.156 6.94635 24.8142 6.8339 26.4636C7.34237 26.4599 7.86871 26.4456 8.20061 25.7569C8.37373 26.1004 8.64129 26.5834 8.79121 27.0484L9.20518 26.3419C9.46022 27.5117 10.5486 28.5922 12.0189 28.6887C11.3177 27.5761 12.1581 26.0575 10.4541 24.4422C10.6664 24.2704 11.1571 23.9396 11.3319 23.7141C9.24083 23.9611 7.0587 22.3028 8.049 21.5158C8.69663 21.0024 8.9803 22.0685 9.97952 21.8896L9.58869 21.5515C9.72609 21.4156 9.88311 21.2385 10.0455 21.1044C9.62083 21.0524 9.15694 20.7805 9.15694 20.7805L9.4103 20.3603C6.9606 20.3566 6.89809 18.4784 7.89381 18.4033C8.36115 18.3692 8.96602 19.2333 10.4737 19.0526C10.281 18.82 10.2043 18.4677 10.1133 18.2083C10.4772 18.1743 10.9055 18.1779 11.2498 18.0098C10.513 17.915 10.3274 17.6663 9.71365 17.2012L10.4255 16.94C9.3925 16.4231 9.45495 15.5233 9.42281 14.5861C9.96342 14.8973 10.5987 15.3802 11.2767 15.1567C11.4371 15.103 11.5407 15.0279 11.5442 14.8597C10.5772 14.4715 9.95632 12.9779 12.274 11.7222ZM10.5094 11.8689C9.21579 13.2551 9.77609 14.0852 10.0366 14.341C9.5548 14.2372 8.83579 13.6219 8.99992 13.0263C8.84648 13.2104 8.68953 13.4108 8.52892 13.6165C8.20771 14.0459 7.92053 14.4662 7.66535 14.874C7.27278 16.0439 7.9919 17.2513 9.21579 17.7861C7.85626 17.5858 7.24604 16.3731 7.24967 15.6003C6.60017 16.8309 6.28976 17.9544 6.31826 18.897C6.33075 19.2476 6.36112 19.5749 6.40751 19.8844C6.71969 20.4782 7.22108 20.6965 8.11496 20.8056C7.30315 20.8575 6.87313 20.8199 6.51987 20.4479C7.07295 22.8323 9.66007 24.8965 10.7128 26.6639C9.65831 25.2901 7.47626 23.2437 6.71261 21.7644C6.65373 22.2992 6.79646 23.6694 7.46009 24.512C6.48242 23.5478 6.40565 22.0881 6.46993 21.2331C6.22194 20.6178 6.06487 19.931 6.04345 19.1491C6.02388 18.4301 6.07382 17.8058 6.18263 17.246C5.56535 18.126 4.67317 18.4659 4.2343 19.8057C4.31991 18.0777 5.60635 18.0508 6.5698 15.9526C6.94271 15.035 7.48519 14.2425 8.08465 13.3447C7.3228 13.595 6.75183 13.774 5.87045 14.7417C6.49667 13.257 10.1151 11.5881 11.7726 9.97271C11.2748 10.0783 9.24266 10.1302 8.39869 9.56489C9.9277 9.9799 13.3303 9.50592 14.6149 8.62589C13.7281 9.90479 11.7976 9.97813 9.44777 12.5218C9.74754 12.2821 10.1472 12.0406 10.5094 11.8689Z" fill="white"/>
<path d="M35.161 19.637C34.9987 18.7927 34.9273 18.4011 34.7632 18.054C34.5937 17.6836 34.3189 17.3617 33.7319 16.6015C33.8711 16.6211 35.434 16.9521 35.782 16.7875C33.086 15.1275 33.6927 13.0186 29.5817 11.1386C30.6612 10.3354 31.7621 9.69508 30.9717 8.16027C29.8458 9.51787 27.7048 9.04932 26.5504 8.4178C27.6941 8.1888 29.1643 7.17997 29.514 6.05664C29.0822 5.99046 28.5237 6.45914 28.2026 6.67561C28.0491 6.26237 27.9902 5.7794 27.4889 5.67383C28.158 7.10846 26.8358 7.85617 25.5744 7.86159C25.3817 7.86159 24.5681 7.77923 24.5681 7.77923C24.6983 7.51099 25.2229 6.77755 24.8393 6.48239C24.5307 6.77214 24.1666 7.00288 23.8312 7.26051C21.3815 9.15839 24.9963 10.9203 26.4736 11.7182C28.7878 12.9738 28.1722 14.4675 27.2034 14.8503C27.207 15.0185 27.3104 15.0935 27.4728 15.1472C28.1473 15.3726 28.786 14.8897 29.323 14.5765C29.2928 15.5139 29.357 16.4154 28.3239 16.9306L29.0341 17.1918C28.4202 17.6569 28.2364 17.9054 27.4997 18.0003C27.8422 18.1684 28.274 18.1649 28.6361 18.1988C28.5434 18.4583 28.4631 18.8106 28.274 19.0431C29.7835 19.222 30.39 18.3598 30.8539 18.3939C31.846 18.469 31.7871 20.3472 29.3355 20.3507L29.5889 20.7712C29.5889 20.7712 29.125 21.043 28.6986 21.0949C28.8609 21.2272 29.0197 21.4061 29.1571 21.5421L28.7664 21.8802C29.7638 22.0591 30.0492 20.993 30.697 21.5063C31.6871 22.2933 29.5068 23.9515 27.4139 23.7047C27.5906 23.93 28.0812 24.2628 28.2935 24.4345C26.5879 26.048 27.4264 27.5685 26.7288 28.6828C28.1955 28.5845 29.2838 27.5041 29.5425 26.3342L29.9564 27.0408C30.1045 26.5757 30.3757 26.0927 30.5453 25.7493C30.8754 26.438 31.4052 26.4523 31.9156 26.4558C31.7995 24.8066 33.8656 23.1484 32.9593 21.2666C32.7773 20.8909 32.895 20.4294 33.2859 20.2309C34.6739 19.5261 34.0298 22.4526 35.4162 22.542C35.1504 22.2075 35.0523 21.5134 35.0148 21.4527C35.3074 21.5296 36.0103 21.9804 36.328 21.4025C35.5233 20.9697 35.2913 20.3042 35.161 19.637ZM32.5686 17.2436C32.6774 17.8053 32.7327 18.4278 32.7077 19.1469C32.6845 19.9286 32.5293 20.6154 32.2813 21.2308C32.3437 22.0858 32.2689 23.5455 31.291 24.5096C31.953 23.6653 32.0975 22.297 32.0386 21.7621C31.2715 23.2414 29.0912 25.2878 28.0348 26.6615C29.0893 24.8942 31.6764 22.8282 32.2314 20.4456C31.8745 20.8159 31.4481 20.8551 30.6344 20.8033C31.5266 20.6942 32.0279 20.476 32.3402 19.8822C32.3866 19.5745 32.4169 19.2454 32.4295 18.8948C32.4597 17.952 32.1476 16.8286 31.498 15.598C31.5034 16.3708 30.8931 17.5835 29.5318 17.7838C30.7522 17.2473 31.4731 16.0398 31.0824 14.8717C30.8289 14.4639 30.5435 14.0418 30.2188 13.6143C30.0582 13.4085 29.9012 13.2082 29.7459 13.024C29.91 13.6196 29.191 14.2349 28.7093 14.3387C28.9716 14.0828 29.53 13.2529 28.2383 11.8665C28.6005 12.0383 29.0002 12.2798 29.3016 12.516C26.9519 9.97233 25.0231 9.90067 24.1327 8.62001C25.4192 9.50004 28.8218 9.97585 30.349 9.55909C29.5068 10.1244 27.4728 10.0725 26.9751 9.9669C28.6326 11.5821 32.2546 13.2511 32.879 14.7358C31.9976 13.7681 31.4249 13.5891 30.6666 13.3387C31.2678 14.2385 31.8067 15.0291 32.1795 15.9468C33.1449 18.045 34.4331 18.07 34.5169 19.7998C34.0781 18.4635 33.1876 18.1237 32.5686 17.2436Z" fill="white"/>
<path d="M21.2679 14.2266C20.8807 14.7597 20.176 15.1174 19.3748 15.1174C19.1874 15.1174 19.0073 15.0959 18.836 15.0637C18.8842 15.2837 18.9966 15.5109 19.2303 15.7059C19.1358 16.3445 19.4105 16.9419 20.0939 17.0975C20.167 17.4231 20.3668 17.6681 20.7059 17.7844L20.2294 18.3353C20.0458 18.5464 19.8066 18.6145 19.6139 18.5893L17.4871 18.3478C17.5799 18.1118 17.3337 17.8381 16.6592 17.9544L17.4943 15.6111L16.9857 14.5252L16.0205 15.3516L15.9491 17.8094L15.5334 17.6073C14.9981 17.3748 14.8394 18.3533 15.3496 18.3568L15.5548 18.3586C15.5405 18.4588 15.5727 18.5697 15.6529 18.6054C15.5566 18.6448 15.5281 18.8255 15.6476 18.8899C15.5263 18.9489 15.5084 19.1349 15.6065 19.2154C15.5012 19.3961 15.4817 19.7879 15.8546 19.8862C16.1614 19.9667 16.3541 19.6376 16.4166 19.4462L19.7263 20.473C20.192 20.6071 20.5274 20.5319 20.9164 20.1903L21.78 19.4336C21.6711 19.9291 21.8478 20.3745 22.2243 20.5231C22.2243 20.5231 22.1654 20.9774 22.1886 21.1652L23.3466 21.167H25.17V15.7112C25.17 15.2032 25.3146 14.6953 25.493 14.2266H23.3466H21.2679Z" fill="white"/>
<path d="M16.3135 23.4067L16.3777 23.4871C16.4669 23.598 16.5204 23.5712 16.6222 23.5121L16.772 23.4317C16.8666 23.3601 17.4822 23.5962 17.5161 23.0828C17.5838 23.4656 17.1289 24.2723 17.4036 24.7232L17.773 25.3296L16.5668 25.3474C16.4348 25.3474 16.3652 25.4279 16.3296 25.4994L16.0138 26.156C15.9317 26.3294 15.937 26.5083 16.0405 26.6282L16.2545 26.8696C16.2545 26.8696 16.4294 26.7213 16.4865 26.5262L16.392 26.4279C16.3135 26.3527 16.3135 26.2811 16.3563 26.1882L16.5508 25.7839C16.6257 25.6247 16.7025 25.5907 16.8737 25.6318L17.8497 25.843C17.9211 25.8608 18.0371 25.8948 18.1066 25.7749C18.2262 25.5621 18.4367 25.5478 18.6508 25.5818C19.1861 25.6623 20.4225 25.7911 20.8633 25.2741C21.3807 25.9627 22.3923 25.9627 22.3263 26.3241L22.1123 27.5082H22.4333L22.6297 26.2972C22.6511 26.156 22.7385 25.9627 22.5868 25.8537C22.5244 25.8054 22.4958 25.7804 22.3548 25.5371C22.1711 25.215 22.18 24.7321 22.0034 24.3152C22.1711 24.1167 22.353 24.0488 22.5119 24.0864C22.8687 24.174 22.9651 24.7911 23.4718 25.2938C23.4147 25.0701 23.3897 24.8251 23.2702 24.6122C23.2702 24.6122 23.6217 24.8859 23.7126 25.2062C23.7697 25.4065 23.8286 25.5531 24.0089 25.6462C24.1284 25.6891 24.2711 25.6318 24.4139 25.4601C24.4139 25.4601 24.0802 24.9842 23.8358 24.6731C23.5003 24.2455 23.0525 23.8162 22.4423 23.8663C22.2495 23.8824 22.0641 23.9701 21.8873 24.0757C21.1933 23.6857 20.6545 24.0989 20.4404 24.0989L19.1415 24.022C18.8864 24.0058 18.6847 23.7089 18.6847 23.7089C18.6526 22.607 17.7694 22.1688 17.4644 22.1688C17.4644 22.1688 17.4929 21.9702 17.4125 21.9004L17.1413 22.2422L16.3884 21.9666L16.979 22.4515L16.3384 23.1973C16.2725 23.2706 16.2814 23.3673 16.3135 23.4067Z" fill="white"/>
<path d="M15.4625 24.9522C15.2804 25.0935 15.2894 25.2903 15.3983 25.5103L15.5071 25.7143L15.7908 25.4978L15.7266 25.3582C15.6802 25.2598 15.682 25.1597 15.7623 25.0971L16.1691 24.7895C16.2833 24.7054 16.3189 24.6964 16.4403 24.7143L17.2985 24.895C17.2985 24.895 17.1683 24.7054 17.1254 24.5122L16.3171 24.4049C16.2029 24.3905 16.1333 24.4389 16.0335 24.5158L15.4625 24.9522Z" fill="white"/>
<path d="M20.9492 27.5079H21.2739L21.795 26.2217C21.8128 26.177 21.8378 26.1573 21.8574 26.1197C21.6236 26.0268 21.4862 25.9623 21.2918 25.8496C21.422 26.0249 21.5237 26.1001 21.4702 26.2629L20.9492 27.5079Z" fill="white"/>
<path d="M21.2259 10.1113L21.8273 6.64648L19.5488 7.42277V10.995L21.2259 10.1113ZM19.9342 7.77338L21.4455 7.2152C21.4455 7.2152 21.151 7.45497 20.7996 7.69644C20.4873 7.91289 19.9342 8.14364 19.9342 8.14364V7.77338ZM19.9342 8.61233L21.317 8.11686C21.317 8.11686 21.151 8.29217 20.8013 8.53363C20.4891 8.74825 19.936 8.979 19.936 8.979V8.61233H19.9342ZM19.9342 9.50314L21.151 9.03445C21.151 9.03445 21.151 9.18298 20.7996 9.42261C20.4873 9.63906 19.9342 9.86981 19.9342 9.86981V9.50314Z" fill="white"/>
<path d="M17.1716 13.1758L17.2215 13.2563H17.6907L17.6961 13.3385C17.7015 13.4173 17.7193 13.4978 17.7461 13.58C17.8192 13.8036 17.9637 14.038 18.1957 14.2275C18.4651 14.4458 18.8541 14.6033 19.3715 14.6033C20.4938 14.6033 21.0005 13.8751 21.0487 13.3385L21.0522 13.2563H21.5233L21.5733 13.1758C22.0157 12.4817 22.5563 11.7108 23.1843 11.5999L21.4715 10.6035L19.3715 11.7484L17.2696 10.6035L15.5586 11.5999C16.1867 11.7089 16.7273 12.4817 17.1716 13.1758Z" fill="white"/>
<path d="M19.1968 10.995V7.42277L16.9219 6.64648L17.5196 10.1113L19.1968 10.995ZM18.8132 9.87341C18.8132 9.87341 18.2601 9.64082 17.9478 9.4262C17.5963 9.1865 17.5963 9.03621 17.5963 9.03621L18.8149 9.50491V9.87341H18.8132ZM18.8132 7.77338V8.14364C18.8132 8.14364 18.2601 7.91289 17.9478 7.69644C17.5945 7.45497 17.2983 7.2152 17.2983 7.2152L18.8132 7.77338ZM18.8132 8.61233V8.98076C18.8132 8.98076 18.2601 8.75001 17.9478 8.53539C17.5945 8.29393 17.4304 8.11863 17.4304 8.11863L18.8132 8.61233Z" fill="white"/>
<path d="M19.3738 5.11914C18.0731 5.11914 17.0971 5.54666 16.8848 6.04746L19.3738 7.03309L21.8592 6.04746C21.6486 5.54666 20.6744 5.11914 19.3738 5.11914Z" fill="white"/>
<path d="M19.3722 3.68928C20.3304 3.68928 21.2903 3.98079 21.9361 4.35828C22.0414 4.00945 22.1538 3.76078 22.3073 3.47636L21.7185 3.56765L21.2421 2.54803L20.3518 3.02204L19.3722 2.05078L18.391 3.02204L17.5024 2.54803L17.0224 3.56765L16.4336 3.47636C16.587 3.76078 16.6977 4.00945 16.8065 4.35828C17.4543 3.98079 18.4105 3.68928 19.3722 3.68928Z" fill="white"/>
<path d="M35.6102 11.5416C35.9313 11.5004 36.19 11.3931 36.5058 11.1569C35.826 10.9763 34.4022 10.4593 33.1872 10.6919C32.7857 10.7456 32.5627 10.9083 32.7054 11.0013C33.3584 11.436 34.1649 12.4431 34.7519 13.6183C35.2676 12.9761 35.0517 12.1336 34.9429 11.8921C35.9705 12.5129 36.2399 12.8152 36.7163 12.6971C36.4612 12.3054 36.1027 11.9529 35.6102 11.5416Z" fill="white"/>
<path d="M3.9957 13.6158C4.58269 12.4405 5.38917 11.4335 6.04398 10.9988C6.19025 10.9057 5.96368 10.743 5.5658 10.6893C4.34896 10.4585 2.92157 10.9737 2.24178 11.1544C2.56113 11.3905 2.81453 11.4979 3.13928 11.539C2.64507 11.9522 2.28641 12.3028 2.03125 12.6945C2.5112 12.8126 2.77885 12.5103 3.80481 11.8896C3.69954 12.1329 3.48183 12.9736 3.9957 13.6158Z" fill="white"/>
<path fill-rule="evenodd" clip-rule="evenodd" d="M11.1183 24.5238C11.5912 24.148 11.9837 23.9603 11.9641 23.0497C11.2539 23.4146 9.2395 23.395 8.39737 22.2323C8.16012 21.9014 8.41348 21.735 8.64363 21.9961C9.21989 22.6509 10.2869 22.3539 10.6759 22.1662C10.6134 21.9407 10.4403 21.6473 10.2958 21.5222C10.4422 21.3791 10.8543 21.1644 10.9381 20.7959C10.7186 20.6761 9.864 20.5902 9.864 20.5902C10.0014 20.4578 10.1727 20.2736 10.0692 19.7818C9.19668 20.05 8.11722 19.6851 7.8728 19.3613C7.63196 19.0429 7.87821 18.7442 8.08157 18.9553C8.51691 19.4132 10.6616 19.9373 11.4592 19.1413C11.1629 19.0591 10.8365 18.7943 10.7776 18.6298C11.5163 18.5546 12.105 18.1182 12.1532 17.5743C11.7446 17.5743 10.9738 17.544 10.7098 17.3472C11.0631 17.2166 11.2878 17.0878 11.4002 16.6907C10.0496 16.6084 9.94255 15.6031 9.93544 15.4368C10.8151 15.9448 12.3637 15.7193 11.9623 14.4672C11.2307 14.4279 10.4938 13.242 12.5047 12.1526C14.3335 11.1598 16.4121 10.0901 16.2284 8.32816C16.1088 7.20124 14.2586 6.43201 14.023 5.86148C13.2505 6.22992 13.0952 6.65743 13.4431 7.37471C13.4431 7.37471 11.7214 7.54649 11.5858 6.48391C11.527 6.00813 11.8445 5.56268 12.1853 5.22104C11.9926 5.22104 10.6954 4.8722 10.3048 5.93121C9.57858 5.43396 8.95584 5.45178 8.46699 5.9777C9.2485 6.44274 9.73194 8.03837 11.0238 8.50882C10.1049 9.00788 8.61866 8.79862 7.7515 7.26381C6.93077 8.50347 6.45799 9.73058 8.21897 11.0417C5.01626 12.5032 5.03946 15.2972 2.25251 16.628C2.53441 17.3883 3.13034 17.3883 3.89043 17.2703C2.68607 18.839 3.71203 20.4811 1.80469 21.1518C1.98309 21.7923 2.34175 22.3038 3.04473 22.116C2.84491 22.4291 2.7129 22.4219 2.4024 22.7653C3.44438 23.4236 4.68089 22.9478 4.96102 20.8353C5.01095 20.4578 5.52836 20.694 5.34995 21.0642C4.16162 23.5274 7.16628 25.3806 6.10286 27.1872C7.03958 27.1479 7.75501 27.0745 8.14409 26.7579C8.33493 27.1372 8.45095 27.5128 8.40806 27.8831C8.92553 27.7775 9.11462 27.4716 9.15027 27.1175C9.48927 28.1102 10.7026 29.171 12.6438 29.171C11.6144 27.697 12.5725 26.2035 11.1183 24.5238ZM9.2021 26.3394L8.7882 27.0459C8.64004 26.5808 8.37065 26.0978 8.19753 25.7544C7.86394 26.443 7.3376 26.4574 6.83081 26.461C6.94326 24.8118 4.87531 23.1536 5.78529 21.2717C5.96732 20.8961 5.84771 20.4346 5.457 20.236C4.07069 19.5313 4.71293 22.4576 3.3284 22.5471C3.59251 22.2127 3.69238 21.5186 3.73169 21.4578C3.43721 21.5346 2.73246 21.9854 2.41488 21.4095C3.2249 20.9677 3.45686 20.3022 3.58356 19.635C3.74417 18.7907 3.81907 18.399 3.98145 18.0519C4.15276 17.6817 4.42572 17.3597 5.01095 16.5995C4.87177 16.6191 3.31415 16.9501 2.96265 16.7855C5.65859 15.1255 5.05194 13.0165 9.16103 11.1365C8.08333 10.3334 6.98248 9.69302 7.77119 8.16005C8.89698 9.51589 11.0363 9.04727 12.1924 8.41758C11.0506 8.18859 9.57858 7.17982 9.23057 6.05639C9.66064 5.9902 10.2191 6.45889 10.5384 6.67714C10.6937 6.26212 10.7544 5.78093 11.2557 5.67722C10.5866 7.11 11.907 7.85764 13.1666 7.86306C13.3628 7.86306 14.1765 7.78077 14.1765 7.78077C14.0463 7.51246 13.5199 6.77907 13.9017 6.48391C14.2104 6.77375 14.5779 7.00449 14.9117 7.26205C17.3613 9.16169 13.7482 10.9218 12.2709 11.7214C9.95324 12.9772 10.5741 14.4726 11.5412 14.8536C11.5376 15.0218 11.4342 15.0969 11.2736 15.1506C10.5956 15.3759 9.96041 14.8911 9.4198 14.58C9.45187 15.5172 9.38767 16.4188 10.4225 16.9339L9.71057 17.1934C10.3226 17.6602 10.5099 17.9071 11.2468 18.0037C10.9025 18.1718 10.4761 18.1682 10.1102 18.2022C10.203 18.4616 10.278 18.8139 10.4706 19.0465C8.96294 19.2254 8.35813 18.3631 7.89066 18.3971C6.89509 18.4723 6.95751 20.3505 9.40721 20.3541L9.15393 20.7745C9.15393 20.7745 9.61775 21.0464 10.0442 21.0981C9.88186 21.2306 9.72491 21.4095 9.58751 21.5454L9.9782 21.8835C8.97729 22.0624 8.69538 20.9963 8.04592 21.5096C7.0557 22.2967 9.23775 23.9549 11.3289 23.708C11.1541 23.9335 10.6616 24.2661 10.4511 24.4379C12.155 26.0513 11.3146 27.5718 12.0157 28.6862C10.5456 28.5896 9.45728 27.5074 9.2021 26.3394Z" fill="#1B1B1B"/>
<path fill-rule="evenodd" clip-rule="evenodd" d="M6.51427 20.4468C6.86939 20.8171 7.29755 20.8564 8.1094 20.8046C7.21547 20.6955 6.71409 20.4773 6.40191 19.8834C6.35729 19.5757 6.32692 19.2466 6.31444 18.896C6.28593 17.9533 6.59633 16.8299 7.24584 15.5992C7.2423 16.3702 7.8507 17.583 9.21206 17.785C7.98803 17.2485 7.26904 16.0411 7.66155 14.873C7.91666 14.4651 8.20398 14.043 8.52512 13.6155C8.68573 13.4097 8.84268 13.2094 8.99612 13.0252C8.83199 13.6208 9.55107 14.2362 10.0328 14.3399C9.77229 14.0841 9.21206 13.2559 10.5056 11.8697C10.1453 12.0414 9.7455 12.2828 9.44229 12.519C11.7902 9.97529 13.7226 9.90385 14.6093 8.62305C13.3247 9.50308 9.92221 9.97889 8.39307 9.56205C9.23703 10.1273 11.2693 10.0755 11.7671 9.97001C10.1113 11.5853 6.49293 13.2542 5.86485 14.7388C6.74623 13.7694 7.3172 13.5922 8.08085 13.3436C7.47956 14.2433 6.93898 15.034 6.56606 15.9516C5.60261 18.0481 4.3144 18.0749 4.23047 19.8028C4.66943 18.4631 5.56152 18.1232 6.17889 17.2431C6.06999 17.8048 6.01828 18.4273 6.03794 19.1464C6.05937 19.9281 6.21634 20.6149 6.46433 21.2303C6.40191 22.0853 6.47682 23.545 7.4546 24.5091C6.79086 23.6666 6.64813 22.2964 6.70701 21.7616C7.47239 23.2408 9.65458 25.2872 10.7091 26.661C9.65458 24.8955 7.06921 22.8312 6.51427 20.4468Z" fill="#1B1B1B"/>
<path fill-rule="evenodd" clip-rule="evenodd" d="M30.6666 13.3438C31.4249 13.5943 31.9976 13.7714 32.879 14.7408C32.2546 13.2562 28.6308 11.5872 26.9751 9.97203C27.4728 10.0757 29.5069 10.1294 30.349 9.56408C28.8216 9.98091 25.4192 9.5051 24.1328 8.625C25.0214 9.9058 26.9519 9.97732 29.3016 12.521C29.0002 12.2848 28.6005 12.0433 28.2383 11.8717C29.53 13.258 28.9716 14.088 28.7093 14.3437C29.191 14.2399 29.91 13.6246 29.7459 13.029C29.9012 13.2132 30.0582 13.4135 30.2188 13.6193C30.5417 14.0486 30.8272 14.4689 31.0824 14.8768C31.4748 16.0467 30.754 17.2541 29.5336 17.789C30.895 17.5885 31.5052 16.374 31.498 15.6031C32.1493 16.8337 32.4597 17.9571 32.4312 18.8997C32.4187 19.2504 32.3884 19.5777 32.342 19.8872C32.0279 20.4811 31.5266 20.6993 30.6344 20.8084C31.4481 20.8584 31.8745 20.8209 32.2314 20.4506C31.6764 22.835 29.0911 24.8993 28.0348 26.6666C29.0911 25.2928 31.2697 23.2465 32.0386 21.7671C32.0976 22.302 31.9548 23.6722 31.291 24.5147C32.2689 23.5506 32.3437 22.091 32.2813 21.236C32.5276 20.6206 32.6827 19.9337 32.7077 19.152C32.7309 18.4328 32.6756 17.8086 32.5685 17.2487C33.1877 18.1289 34.078 18.4687 34.5188 19.8085C34.4349 18.0787 33.1467 18.0519 32.1814 15.9555C31.8067 15.0325 31.2679 14.2418 30.6666 13.3438Z" fill="#1B1B1B"/>
<path fill-rule="evenodd" clip-rule="evenodd" d="M34.8592 17.2665C35.6174 17.3863 36.2134 17.3863 36.497 16.6261C33.71 15.2953 33.7332 12.503 30.5307 11.0397C32.2916 9.73038 31.8171 8.5015 30.9981 7.26185C30.1327 8.79666 28.6411 9.00592 27.7258 8.50693C29.014 8.0364 29.5011 6.44079 30.2826 5.97574C29.7937 5.44984 29.1693 5.432 28.443 5.92926C28.0505 4.87025 26.7551 5.21908 26.5608 5.21908C26.8998 5.55896 27.2208 6.0044 27.1602 6.48195C27.0263 7.54453 25.3046 7.37275 25.3046 7.37275C25.6525 6.65549 25.4973 6.22796 24.7248 5.85943C24.4893 6.43005 22.6408 7.19928 22.5194 8.3262C22.3339 10.0882 24.4161 11.1578 26.2431 12.1506C28.2539 13.24 27.517 14.4277 26.7873 14.4652C26.3822 15.7173 27.931 15.9428 28.8124 15.4348C28.8088 15.6012 28.6964 16.6064 27.3458 16.6888C27.4599 17.0858 27.683 17.2147 28.0363 17.3452C27.7722 17.5438 27.0014 17.5723 26.5947 17.5723C26.6428 18.1162 27.2334 18.5544 27.972 18.6278C27.9131 18.7924 27.5848 19.0571 27.2905 19.1393C28.088 19.9354 30.2326 19.4112 30.6681 18.9533C30.8678 18.7422 31.1122 19.041 30.8732 19.3594C30.6269 19.685 29.5493 20.0498 28.675 19.7798C28.5751 20.2698 28.7428 20.4559 28.8802 20.5882C28.8802 20.5882 28.0256 20.6741 27.8043 20.794C27.8882 21.1624 28.3021 21.3753 28.4466 21.5202C28.3003 21.6453 28.1272 21.9387 28.0648 22.1642C28.4574 22.3538 29.5243 22.649 30.0971 21.9942C30.3291 21.7349 30.5823 21.8995 30.345 22.2304C29.5029 23.3931 27.4885 23.4109 26.7766 23.0478C26.757 23.9583 27.1495 24.1461 27.6223 24.5218C26.1664 26.2014 27.1281 27.6951 26.0986 29.1653C28.0381 29.1653 29.2513 28.1047 29.5903 27.1119C29.6296 27.4643 29.8152 27.772 30.3308 27.8775C30.2915 27.5072 30.4057 27.1316 30.5948 26.7524C30.9874 27.0691 31.7029 27.1423 32.6396 27.1817C31.5779 25.375 34.5826 23.5218 33.3907 21.0587C33.2141 20.6884 33.7315 20.4523 33.7814 20.8297C34.0598 22.9423 35.298 23.4181 36.3418 22.7599C36.0278 22.4164 35.8975 22.4235 35.6977 22.1105C36.4007 22.2984 36.7576 21.7867 36.9377 21.1463C35.0393 20.4773 36.0653 18.8352 34.8592 17.2665ZM35.0197 21.4594C35.0571 21.5202 35.1554 22.2142 35.4212 22.5488C34.0348 22.4594 34.6771 19.5328 33.2909 20.2376C32.9 20.4344 32.7841 20.8959 32.9643 21.2734C33.8706 23.1551 31.8045 24.8133 31.9206 26.4625C31.4102 26.459 30.8804 26.4447 30.5502 25.7561C30.3807 26.0995 30.1078 26.5824 29.9597 27.0476L29.5458 26.3409C29.2888 27.5108 28.2004 28.5912 26.7337 28.6896C27.4314 27.577 26.5928 26.0565 28.2985 24.4413C28.0844 24.2696 27.5938 23.9368 27.4172 23.7115C29.5101 23.9583 31.6903 22.3001 30.7001 21.513C30.0524 20.9997 29.767 22.0658 28.7695 21.8869L29.1604 21.5489C29.023 21.4128 28.8641 21.2358 28.7018 21.1016C29.1282 21.0497 29.5921 20.7778 29.5921 20.7778L29.3388 20.3575C31.7884 20.354 31.8474 18.4757 30.8571 18.4006C30.3914 18.3666 29.7848 19.2305 28.2771 19.0499C28.4681 18.8174 28.5465 18.465 28.6393 18.2056C28.2753 18.1716 27.8453 18.1752 27.5027 18.007C28.2397 17.9122 28.4253 17.6636 29.0372 17.1985L28.3272 16.9374C29.3601 16.4205 29.2941 15.5207 29.3262 14.5833C28.7874 14.8946 28.1486 15.3776 27.476 15.154C27.3154 15.1003 27.2102 15.0252 27.2066 14.857C28.1755 14.4742 28.7927 12.9806 26.4769 11.7249C25.0012 10.9253 21.3865 9.16516 23.8345 7.26727C24.1698 7.00963 24.5338 6.77711 24.8407 6.48914C25.2244 6.7843 24.6998 7.51769 24.5696 7.78599C24.5696 7.78599 25.3831 7.86822 25.5759 7.86822C26.8373 7.86293 28.1594 7.11522 27.4903 5.68058C27.9917 5.78438 28.0505 6.26912 28.204 6.68227C28.5251 6.46413 29.0818 5.99721 29.5154 6.06339C29.1639 7.18491 27.6955 8.19557 26.5518 8.42456C27.7063 9.05418 29.8472 9.52288 30.9731 8.16704C31.7617 9.69994 30.6626 10.3404 29.5832 11.1435C33.694 13.0217 33.0856 15.1325 35.7833 16.7924C35.4354 16.957 33.8724 16.6261 33.7332 16.6064C34.3221 17.3667 34.5968 17.6886 34.7645 18.059C34.9286 18.4059 35.0001 18.7959 35.1624 19.642C35.2909 20.3092 35.5246 20.9746 36.3311 21.4165C36.0153 21.9871 35.3123 21.5363 35.0197 21.4594Z" fill="#1B1B1B"/>
<path fill-rule="evenodd" clip-rule="evenodd" d="M15.445 26.0769L16.032 25.5777L15.9428 25.3989C15.8785 25.2701 15.9124 25.2629 15.9802 25.2129L16.2907 24.9821C16.3621 24.923 16.437 24.9302 16.5244 24.9517L17.454 25.1699H16.4727C16.2461 25.1842 16.1801 25.2719 16.098 25.4401L16.0302 25.5777L15.7787 26.0965C15.693 26.2754 15.6483 26.5133 15.8732 26.7817L16.0516 26.9945L15.6912 27.7261H15.9945L16.2443 27.218C16.264 27.2002 16.6333 26.8621 16.7118 26.5133C16.6047 26.4256 16.5298 26.3648 16.5887 26.2432L16.7011 26C16.7386 25.9194 16.7511 25.8872 16.8581 25.9069L17.8323 26.1179C17.9536 26.1519 18.132 26.2056 18.2623 26.0089C18.3961 25.805 18.4139 25.8265 18.7243 25.8567L19.2222 25.9104C19.902 25.9748 20.5818 25.805 20.8458 25.5939C20.9386 25.805 21.1224 25.9678 21.208 26.1323C21.2401 26.1931 21.1867 26.279 21.1456 26.3863L20.5871 27.7243H21.4489L21.936 26.5043C21.9806 26.3881 22.0466 26.295 22.0965 26.2486L21.8164 27.7261H22.6532L22.8745 26.2647C22.9227 25.9391 22.8941 25.8354 22.7389 25.7012C22.3909 25.406 22.3981 24.7871 22.2857 24.4115C22.3445 24.3775 22.4141 24.3596 22.4962 24.3703C22.6783 24.3865 22.8157 24.8533 23.0297 25.1538C23.4579 25.7566 24.0413 26.4221 24.7105 25.4848C24.6462 25.3774 24.5766 25.2808 24.4946 25.1879L24.3072 24.9678C24.1984 24.8462 23.681 24.2523 23.4651 24.0394C22.9744 23.5439 22.2215 23.6191 21.9217 23.8606C21.2419 23.5028 20.5247 23.8784 20.3552 23.8641L19.1848 23.7925C19.1312 23.789 19.0509 23.7711 18.9938 23.6799L19.2115 23.6083C19.0081 22.7587 18.496 22.0486 17.6021 21.9251C17.6021 21.9251 17.5504 21.6568 17.413 21.6049L17.1453 21.9197C17.0704 21.9305 16.9883 21.9537 16.9205 21.9824L15.7787 21.5566L16.6351 22.4242C16.6351 22.4242 16.1908 23.0556 16.0641 23.1844C15.9802 23.3025 15.9873 23.3936 16.0819 23.5063L16.2479 23.7246C16.3335 23.8373 16.4281 23.8337 16.5655 23.764L16.7528 23.6656C16.8349 23.5976 17.1096 23.7318 17.2274 23.6244C17.1525 23.8713 17.115 24.1092 17.0972 24.297L16.3282 24.204C16.1605 24.1807 16.0837 24.204 15.9821 24.2845L15.3254 24.7907C15.1114 24.9552 15.0453 25.2397 15.1773 25.517L15.445 26.0769ZM21.7968 26.2217L21.2758 27.5096H20.951L21.4721 26.2628C21.5255 26.1019 21.4239 26.0268 21.2937 25.8515C21.4864 25.9606 21.6255 26.0321 21.8593 26.1216C21.8396 26.1573 21.8146 26.1771 21.7968 26.2217ZM16.7724 23.433L16.6243 23.5117C16.5208 23.5708 16.4692 23.5976 16.3799 23.4867L16.3156 23.4044C16.2836 23.365 16.2729 23.2703 16.3389 23.1951L16.9776 22.4492L16.3888 21.9645L17.1382 22.2417L17.413 21.8983C17.4933 21.9662 17.4648 22.1648 17.4648 22.1648C17.7681 22.1648 18.6512 22.6048 18.6852 23.7068C18.6852 23.7068 18.8849 24.0018 19.1401 24.018L20.4408 24.0967C20.6567 24.0967 21.1955 23.6853 21.8877 24.0734C22.0626 23.9678 22.25 23.8838 22.4427 23.8623C23.0529 23.8177 23.5025 24.2434 23.8362 24.6727C24.0806 24.9839 24.416 25.4597 24.416 25.4597C24.2715 25.6314 24.1305 25.6886 24.0111 25.6457C23.8308 25.5527 23.7719 25.4079 23.7149 25.2057C23.6239 24.8855 23.2724 24.6118 23.2724 24.6118C23.3919 24.8265 23.4169 25.0698 23.474 25.2934C22.9655 24.7889 22.8691 24.1736 22.5141 24.0877C22.3571 24.0484 22.1733 24.1163 22.0038 24.3131C22.1822 24.7299 22.1733 25.2129 22.3571 25.5366C22.4962 25.7781 22.5266 25.7995 22.589 25.8532C22.7389 25.9606 22.6551 26.1556 22.6318 26.2969L22.4392 27.5079H22.1144L22.3285 26.3237C22.3945 25.9624 21.3829 25.9624 20.8655 25.2736C20.4247 25.7906 19.1883 25.6619 18.653 25.5813C18.4372 25.5491 18.2266 25.5635 18.1088 25.7763C18.0393 25.8961 17.9233 25.8604 17.8519 25.8425L16.8759 25.6314C16.7046 25.592 16.6297 25.626 16.5548 25.7835L16.3602 26.1878C16.3175 26.2825 16.3192 26.3524 16.3977 26.4293L16.4905 26.5277C16.4353 26.7208 16.2586 26.8693 16.2586 26.8693L16.0462 26.6296C15.9428 26.5079 15.9374 26.3326 16.0195 26.1609L16.3353 25.4991C16.3727 25.4257 16.4405 25.3471 16.5726 25.3471L17.7787 25.3291L17.4094 24.7264C17.1346 24.2737 17.5914 23.4671 17.5217 23.086C17.4843 23.5959 16.8688 23.3632 16.7724 23.433ZM15.4628 24.9535L16.0337 24.517C16.1355 24.4401 16.2033 24.39 16.3193 24.4043L17.1257 24.5117C17.1703 24.7049 17.2988 24.8945 17.2988 24.8945L16.4405 24.7138C16.3192 24.6995 16.2836 24.7049 16.1694 24.7871L15.7625 25.0948C15.6822 25.1574 15.6787 25.2576 15.7251 25.356L15.7911 25.4973L15.5074 25.7119L15.3986 25.508C15.288 25.2916 15.2808 25.093 15.4628 24.9535Z" fill="#1B1B1B"/>
<path fill-rule="evenodd" clip-rule="evenodd" d="M17.9491 9.4252C18.2613 9.64172 18.8145 9.87247 18.8145 9.87247V9.5039L17.5957 9.03711C17.5957 9.03711 17.5957 9.18726 17.9491 9.4252Z" fill="#1B1B1B"/>
<path fill-rule="evenodd" clip-rule="evenodd" d="M18.8124 8.98116V8.61272L17.4297 8.11719C17.4297 8.11719 17.5938 8.29256 17.9472 8.53402C18.2594 8.74864 18.8124 8.98116 18.8124 8.98116Z" fill="#1B1B1B"/>
<path fill-rule="evenodd" clip-rule="evenodd" d="M18.8117 8.14314V7.77295L17.2969 7.21484C17.2969 7.21484 17.5931 7.45454 17.9464 7.69608C18.2585 7.91239 18.8117 8.14314 18.8117 8.14314Z" fill="#1B1B1B"/>
<path fill-rule="evenodd" clip-rule="evenodd" d="M23.0664 13.1771H24.6151C24.5509 12.9518 24.31 12.7246 23.8585 12.7246C23.4304 12.7246 23.1734 12.9715 23.0664 13.1771Z" fill="#1B1B1B"/>
<path fill-rule="evenodd" clip-rule="evenodd" d="M21.4469 7.21484L19.9355 7.77295V8.14314C19.9355 8.14314 20.4887 7.91239 20.801 7.69608C21.1524 7.45454 21.4469 7.21484 21.4469 7.21484Z" fill="#1B1B1B"/>
<path fill-rule="evenodd" clip-rule="evenodd" d="M21.1524 9.03711L19.9355 9.50566V9.87423C19.9355 9.87423 20.4887 9.64172 20.801 9.42703C21.1524 9.18726 21.1524 9.03711 21.1524 9.03711Z" fill="#1B1B1B"/>
<path fill-rule="evenodd" clip-rule="evenodd" d="M21.3163 8.11719L19.9336 8.61272V8.98116C19.9336 8.98116 20.4885 8.7504 20.7989 8.53578C21.1522 8.29256 21.3163 8.11719 21.3163 8.11719Z" fill="#1B1B1B"/>
<path fill-rule="evenodd" clip-rule="evenodd" d="M14.8853 12.7246C14.4339 12.7246 14.193 12.9518 14.1289 13.1771H15.6794C15.5687 12.9715 15.3153 12.7246 14.8853 12.7246Z" fill="#1B1B1B"/>
<path fill-rule="evenodd" clip-rule="evenodd" d="M22.4484 6.22105C22.4484 5.34818 20.9854 4.56641 19.3706 4.56641C17.7559 4.56641 16.2928 5.34818 16.2928 6.22105L16.3267 6.43575L16.9691 10.1439L13.9181 11.9273C13.5933 12.1186 13.1865 12.6445 13.1348 13.1741H13.6915C13.7842 12.6445 14.2 12.0579 14.9797 12.0936C15.6845 12.1312 16.1019 12.5605 16.5159 13.1741L16.6229 13.335L16.7764 13.5765H12.2891C12.6191 14.2402 12.9314 14.9449 12.9314 15.7087V25.0623C12.9314 27.4682 14.7745 28.6147 16.771 28.6147C18.3126 28.6147 18.5213 28.545 19.3724 29.3983C20.22 28.545 20.4286 28.6147 21.9738 28.6147C23.9686 28.6147 25.8135 27.4682 25.8135 25.0623V15.7105C25.8135 14.9467 26.1257 14.242 26.4557 13.5782H21.9649L22.1201 13.3368L22.2271 13.1759C22.6393 12.5623 23.0586 12.133 23.7634 12.0954C24.5396 12.0596 24.9588 12.6463 25.0498 13.1759H25.6047C25.5548 12.6463 25.1461 12.1186 24.8232 11.929L21.7722 10.1457L22.4163 6.43752L22.4484 6.22105ZM16.9173 6.6468L19.194 7.42316V10.9953L17.5169 10.1117L16.9173 6.6468ZM17.4776 14.2258C17.7773 14.6372 18.2626 14.9414 18.8371 15.0594C18.8853 15.2758 19.0031 15.5138 19.2314 15.7051C19.1369 16.3437 19.4098 16.9394 20.095 17.0968C20.1664 17.4224 20.368 17.6675 20.7052 17.7837L20.2288 18.3347C20.0469 18.5457 19.8095 18.6137 19.6133 18.5887L17.4865 18.3472C17.5792 18.111 17.3331 17.8373 16.6603 17.9537L17.4972 15.6104L16.9869 14.5246L16.0199 15.351L15.9485 17.8088L15.5382 17.6066C14.9974 17.3741 14.8405 18.3525 15.3544 18.3561L15.5577 18.3579C15.5452 18.4581 15.5756 18.569 15.6541 18.603C15.5577 18.6441 15.5292 18.8265 15.6505 18.8909C15.5274 18.9483 15.5113 19.1343 15.6095 19.2147C15.5025 19.3954 15.4864 19.7872 15.8593 19.8855C16.1644 19.966 16.3553 19.6369 16.4178 19.4455L19.7256 20.4722C20.1949 20.6065 20.5269 20.5313 20.9158 20.1896L21.7794 19.433C21.6704 19.9285 21.849 20.3738 22.2254 20.5223C22.2254 20.5223 22.1718 20.9678 22.188 21.1663H13.5755V15.7105C13.5755 15.2025 13.4291 14.6945 13.2544 14.2258H17.4776ZM21.0353 16.2955C20.8533 16.6443 20.8711 17.0449 21.0853 17.408L20.9425 17.5476C20.3216 17.4707 20.0772 16.5422 20.0772 16.5422C20.0646 16.6264 20.0576 16.7068 20.0594 16.7892C19.6972 16.655 19.4687 16.333 19.4866 15.8912C19.624 15.9681 19.7775 16.0218 19.9416 16.0504L19.9843 15.7785C19.5508 15.7034 19.2975 15.4315 19.2012 15.1095C19.1798 15.1077 19.1619 15.1023 19.1422 15.1005C19.219 15.1059 19.2957 15.1131 19.3742 15.1131C19.6311 15.1131 19.8756 15.0737 20.104 15.0057C20.2842 15.2633 20.6035 15.4476 20.9247 15.4834C20.873 15.6979 20.8979 15.9646 21.0353 16.2955ZM21.9542 18.7496C21.8917 18.8337 21.8418 18.9303 21.8097 19.0359L21.4636 19.3543C21.5332 18.8462 21.1923 18.2471 20.8819 18.0019L21.2494 17.6406L21.3226 17.7157C21.1994 18.0395 21.4404 18.6745 21.9542 18.7496ZM20.2824 18.5905L20.5678 18.3096C20.8569 18.5636 21.2388 19.1306 21.1191 19.6708L20.8088 19.957C20.7445 20.0197 20.6785 20.0644 20.6107 20.1056C20.8052 19.6243 20.5571 18.8839 20.2824 18.5905ZM19.6685 18.8284H19.6775C19.781 18.8444 19.8917 18.8265 19.9915 18.7854C20.2092 19.0967 20.3787 19.8051 20.1182 20.2469C19.9701 20.2504 19.8256 20.2237 19.69 20.1843L19.583 20.1521C19.8024 19.8104 19.7721 19.2058 19.6685 18.8284ZM18.9495 18.7389L19.351 18.789C19.4153 19.1236 19.3724 19.7013 19.1601 20.0304L18.6926 19.8945C18.8979 19.6154 18.9942 19.0412 18.9495 18.7389ZM18.1128 18.6369L18.5999 18.6941C18.648 18.9625 18.557 19.5332 18.3733 19.8051L17.8772 19.662C18.0753 19.399 18.1466 18.9357 18.1128 18.6369ZM16.1412 18.5064C15.9146 18.5797 15.8147 18.4152 15.8236 18.2756C16.2679 18.1128 16.466 18.2184 16.5962 18.3007C16.7157 18.3757 16.8157 18.5905 16.9762 18.7246C16.9494 18.9071 16.8941 19.1718 16.8281 19.3489C16.3731 19.2326 16.3499 18.8302 16.5194 18.5851C16.4248 18.4742 16.325 18.4455 16.1412 18.5064ZM15.8236 19.3954C15.8236 19.3954 15.9593 19.4527 16.1305 19.4652C16.1109 19.5599 16.0377 19.6493 15.9217 19.6243C15.8254 19.6029 15.7825 19.4848 15.8236 19.3954ZM15.3758 18.0896C15.2633 18.0145 15.3132 17.85 15.4382 17.85C15.5756 17.8535 15.7576 18.0091 15.9378 18.086C15.9378 18.086 15.4649 18.1504 15.3758 18.0896ZM15.8379 19.0377C15.9361 19.1324 16.2304 19.0967 16.2304 19.0967L16.2412 19.1556C16.1127 19.3274 15.7558 19.2505 15.8379 19.0377ZM16.234 18.8427C16.0235 18.9268 15.8076 18.8122 15.8735 18.6763C15.9717 18.7658 16.2447 18.721 16.2447 18.721L16.234 18.8427ZM16.5444 16.3867L16.1412 17.8588L16.2786 15.4834L16.9031 14.9485L17.2206 15.6479L16.4178 17.9554L16.6301 16.4028C16.6497 16.2919 16.5622 16.2793 16.5444 16.3867ZM16.573 18.1719C16.573 18.1719 17.0225 18.1504 17.1493 18.1987C17.2421 18.238 17.1796 18.3955 17.0583 18.3776C16.9316 18.3615 16.573 18.1719 16.573 18.1719ZM17.2777 18.5296L17.7666 18.5905C17.8041 18.8587 17.7345 19.3131 17.5596 19.5671L17.0868 19.4294C17.2118 19.1306 17.2421 18.8498 17.2777 18.5296ZM25.1693 25.064C25.1693 26.2017 24.6448 27.0656 23.7723 27.5451L24.0846 26.9083H23.7813L23.3797 27.7239C22.9641 27.8813 22.493 27.969 21.972 27.969C20.3805 27.969 19.9594 28.0334 19.3706 28.6219C18.7801 28.0334 18.359 27.969 16.7693 27.969C16.2519 27.969 15.7807 27.8849 15.3668 27.7275H15.3776L15.779 26.9083H15.4774L15.1259 27.6256C15.0421 27.5862 14.96 27.5433 14.8816 27.4967L15.1706 26.9083H14.8709L14.6567 27.3466C13.9752 26.8439 13.5737 26.0568 13.5737 25.064V21.4865H25.1658V25.064H25.1693ZM25.4923 14.2258C25.3122 14.6945 25.1676 15.2025 25.1676 15.7105V21.1663H24.5342C24.247 20.8872 24.0043 19.957 24.0043 19.957C23.8472 20.2916 24.0275 20.9695 24.1951 21.1663H23.3797C23.1781 20.8927 23.0033 19.9231 23.0033 19.9231C22.7588 20.2022 22.9142 20.9552 23.0658 21.1663H22.5233C22.4894 20.7781 22.6001 20.356 22.6001 20.356C22.3165 20.3041 22.0149 20.1538 22.0166 19.839C22.1594 19.9732 22.2182 19.9714 22.4163 19.9677L22.6465 19.7854C21.8829 19.8104 21.8471 18.9697 22.4537 18.5762C21.849 18.5958 21.3975 18.2345 21.617 17.5905C21.1869 17.367 21.0353 16.6371 21.3529 16.3169C21.1228 16.0665 21.0852 15.5746 21.2316 15.2401C20.9265 15.2401 20.584 15.1185 20.393 14.9092C20.3787 14.9163 20.3609 14.9217 20.3448 14.927C20.7267 14.7714 21.0495 14.5282 21.2672 14.2277H25.4923V14.2258ZM23.1835 11.5999C22.5555 11.709 22.0149 12.4799 21.5723 13.1759L21.5224 13.2563H21.0495L21.0478 13.3386C20.9996 13.8752 20.4911 14.6033 19.3706 14.6033C18.8532 14.6033 18.4624 14.444 18.1949 14.2277C17.9629 14.038 17.8166 13.8037 17.7452 13.5801C17.7185 13.4995 17.7024 13.4173 17.6953 13.3386L17.6918 13.2563H17.2224L17.1725 13.1759C16.7282 12.4818 16.1876 11.7108 15.5614 11.5999L17.2725 10.6035L19.3742 11.7484L21.4725 10.6035L23.1835 11.5999ZM21.2244 10.1117L19.549 10.9953V7.42316L21.8258 6.6468L21.2244 10.1117ZM19.3724 7.03316L16.8835 6.04752C17.094 5.54672 18.0699 5.1192 19.3724 5.1192C20.6731 5.1192 21.6472 5.54672 21.8578 6.04752L19.3724 7.03316Z" fill="#1B1B1B"/>
<path fill-rule="evenodd" clip-rule="evenodd" d="M24.9056 17.7513L24.911 17.4777C24.0742 17.4579 23.8815 16.4688 23.8815 16.4688C23.6371 17.1967 24.2759 17.7406 24.9056 17.7513Z" fill="#1B1B1B"/>
<path fill-rule="evenodd" clip-rule="evenodd" d="M23.8475 19.4278L23.7637 19.1684C23.05 19.3508 22.6807 18.2168 22.6807 18.2168C22.4523 19.0414 23.248 19.6246 23.8475 19.4278Z" fill="#1B1B1B"/>
<path fill-rule="evenodd" clip-rule="evenodd" d="M24.3449 18.3761C23.4921 18.5122 23.1424 17.5176 23.1424 17.5176C23.0477 18.0596 23.3975 18.6088 23.9631 18.666C23.8346 19.3726 24.4894 19.7356 25.0568 19.4834L24.9747 19.2366C24.4823 19.4029 24.0202 18.9146 24.3449 18.3761Z" fill="#1B1B1B"/>
<path fill-rule="evenodd" clip-rule="evenodd" d="M23.8347 15.5365L23.8417 15.2628C22.7159 15.0303 22.8105 14.2539 22.8105 14.2539C22.5679 14.9856 23.2066 15.5258 23.8347 15.5365Z" fill="#1B1B1B"/>
<path fill-rule="evenodd" clip-rule="evenodd" d="M16.7001 26.9082L16.2969 27.7274H16.6002L17.0016 26.9082H16.7001Z" fill="#1B1B1B"/>
<path fill-rule="evenodd" clip-rule="evenodd" d="M17.3097 26.9082L16.9082 27.7274H17.2134L17.6112 26.9082H17.3097Z" fill="#1B1B1B"/>
<path fill-rule="evenodd" clip-rule="evenodd" d="M19.7452 26.9082L19.3438 27.7274H19.6452L20.0485 26.9082H19.7452Z" fill="#1B1B1B"/>
<path fill-rule="evenodd" clip-rule="evenodd" d="M20.3582 26.9082L19.9531 27.7274H20.2582L20.6579 26.9082H20.3582Z" fill="#1B1B1B"/>
<path fill-rule="evenodd" clip-rule="evenodd" d="M19.1376 26.9082L18.7344 27.7274H19.0377L19.4392 26.9082H19.1376Z" fill="#1B1B1B"/>
<path fill-rule="evenodd" clip-rule="evenodd" d="M22.6992 27.7274H23.0025L23.4039 26.9082H23.1006L22.6992 27.7274Z" fill="#1B1B1B"/>
<path fill-rule="evenodd" clip-rule="evenodd" d="M17.9191 26.9082L17.5176 27.7274H17.8209L18.2224 26.9082H17.9191Z" fill="#1B1B1B"/>
<path fill-rule="evenodd" clip-rule="evenodd" d="M18.5264 26.9082L18.125 27.7274H18.4301L18.8316 26.9082H18.5264Z" fill="#1B1B1B"/>
<path fill-rule="evenodd" clip-rule="evenodd" d="M17.1504 22.5059C17.095 22.5059 17.0469 22.5594 17.0469 22.6291C17.0469 22.6969 17.095 22.7523 17.1504 22.7523C17.2075 22.7523 17.2574 22.6969 17.2574 22.6291C17.2557 22.5594 17.2075 22.5059 17.1504 22.5059Z" fill="#1B1B1B"/>
<path fill-rule="evenodd" clip-rule="evenodd" d="M19.373 4.01353C20.6219 4.01353 21.6229 4.42855 22.1742 4.87399C22.1742 4.87399 22.3401 3.8794 22.8986 3.00652L21.8923 3.11919L21.3659 1.99587L20.3543 2.52356L19.373 1.54688L18.3917 2.52356L17.3764 1.99587L16.8501 3.11919L15.8438 3.00652C16.404 3.8794 16.5682 4.87399 16.5682 4.87399C17.1214 4.42855 18.124 4.01353 19.373 4.01353ZM17.0231 3.56641L17.5031 2.54679L18.3917 3.02081L19.373 2.04954L20.3543 3.02081L21.2429 2.54679L21.7174 3.56641L22.308 3.47512C22.1564 3.75954 22.0422 4.00821 21.9369 4.35705C21.291 3.97955 20.3311 3.68804 19.373 3.68804C18.4113 3.68804 17.4532 3.97955 16.8073 4.35705C16.7002 4.00821 16.5878 3.75954 16.4344 3.47512L17.0231 3.56641Z" fill="#1B1B1B"/>
<path fill-rule="evenodd" clip-rule="evenodd" d="M20.4023 2.00451C20.5486 2.01702 20.6788 1.90612 20.6912 1.76116C20.7056 1.61451 20.4915 1.22461 20.4915 1.22461C20.4915 1.22461 20.1721 1.5698 20.1614 1.71645C20.1471 1.85955 20.2577 1.99014 20.4023 2.00451Z" fill="#1B1B1B"/>
<path fill-rule="evenodd" clip-rule="evenodd" d="M22.0511 2.60321C22.1814 2.67294 22.3401 2.62113 22.4097 2.49054C22.4811 2.36172 22.4347 1.91992 22.4347 1.91992C22.4347 1.91992 22.01 2.11128 21.9405 2.24187C21.8726 2.37068 21.9227 2.53161 22.0511 2.60321Z" fill="#1B1B1B"/>
<path fill-rule="evenodd" clip-rule="evenodd" d="M18.3445 2.00451C18.4926 1.99014 18.6015 1.86142 18.589 1.71645C18.5748 1.5698 18.259 1.22461 18.259 1.22461C18.259 1.22461 18.0466 1.61629 18.0591 1.76116C18.0698 1.90612 18.2 2.01702 18.3445 2.00451Z" fill="#1B1B1B"/>
<path fill-rule="evenodd" clip-rule="evenodd" d="M16.6982 2.60321C16.8284 2.53161 16.8766 2.37068 16.8087 2.24187C16.7409 2.11128 16.3145 1.91992 16.3145 1.91992C16.3145 1.91992 16.27 2.36172 16.3413 2.49054C16.4074 2.62113 16.568 2.67294 16.6982 2.60321Z" fill="#1B1B1B"/>
<path fill-rule="evenodd" clip-rule="evenodd" d="M36.4757 11.692C36.8272 11.5667 37.0983 11.2305 37.2339 10.9192C36.34 10.7905 33.9652 9.79048 32.0133 10.6045C32.7449 9.90857 33.4014 9.81915 33.4639 8.81744C33.7671 9.03572 34.2793 9.1591 34.5683 8.63847C34.3667 8.04289 33.8582 8.52581 33.7868 8.36129C33.6868 8.1323 34.4274 8.43111 34.5861 7.65649C34.0098 7.45794 33.8385 7.93022 33.7351 7.82108C33.6404 7.71736 34.1009 7.51874 33.7619 6.89453C33.1623 7.24691 33.4745 7.64226 33.3479 7.68693C33.1944 7.74773 33.3158 7.26298 32.652 7.28623C32.586 7.99991 33.2747 8.02316 33.1623 8.13596C33.0249 8.27364 32.8465 7.72624 32.3452 8.00357C32.3541 8.5795 32.8197 8.89614 33.2997 8.76023C33.2213 9.85488 32.2185 9.65104 31.4727 10.8853C33.0535 11.6974 33.7689 13.114 34.7414 14.0942C35.0625 13.8654 35.6121 12.8493 35.6121 12.8493C36.6647 13.6668 37.4052 12.8528 37.4052 12.8528C37.043 12.4808 37.0287 12.1983 36.4757 11.692ZM34.9412 11.8906C35.05 12.132 35.2659 12.9745 34.7503 13.6167C34.1632 12.4415 33.3568 11.4344 32.7037 10.9998C32.561 10.9067 32.7823 10.7439 33.1855 10.6902C34.4006 10.4595 35.8261 10.9747 36.5041 11.1554C36.1883 11.3914 35.9314 11.4988 35.6086 11.5382C36.101 11.9531 36.4613 12.3037 36.7147 12.6937C36.2383 12.8136 35.9689 12.5112 34.9412 11.8906Z" fill="#1B1B1B"/>
<path fill-rule="evenodd" clip-rule="evenodd" d="M24.7912 30.1603V28.8223C23.7599 29.2963 22.4485 29.6809 20.7607 29.8329L20.6839 30.3106C20.8266 30.3302 21.0087 30.3481 21.2513 30.3643C20.6268 30.4501 19.8185 30.4912 19.3762 30.4912C18.9319 30.4912 18.1254 30.4501 17.4991 30.3643C17.74 30.3481 17.9219 30.3302 18.0647 30.3106L17.9879 29.8329C16.3001 29.6809 14.987 29.2963 13.9574 28.8223V30.1603L12.5586 30.7362C13.5952 31.2766 14.7871 31.7166 16.1644 32.0725L16.0003 32.6324C16.789 32.8649 18.0504 33.101 19.3725 33.101C20.6946 33.101 21.9543 32.8632 22.7447 32.6324L22.5823 32.0725C23.958 31.7166 25.1534 31.2766 26.1901 30.7362L24.7912 30.1603ZM13.3061 30.7667L14.25 30.3856V29.2963C14.8566 29.5307 15.6524 29.774 16.7944 30.0118L16.259 31.7595C15.094 31.4911 14.1037 31.1298 13.3061 30.7667ZM19.3743 32.7809C18.3091 32.7809 17.2689 32.6216 16.3804 32.4017L16.946 30.5681C17.3207 30.6558 18.2592 30.7702 19.3743 30.7702C20.4913 30.7702 21.4244 30.654 21.8009 30.5681L22.3682 32.4017C21.4761 32.6216 20.4377 32.7809 19.3743 32.7809ZM22.4914 31.7595L21.9561 30.0118C23.098 29.7757 23.8937 29.5307 24.5003 29.2963V30.3856L25.4425 30.7667C24.645 31.1298 23.6582 31.4911 22.4914 31.7595Z" fill="#1B1B1B"/>
<path fill-rule="evenodd" clip-rule="evenodd" d="M3.13688 12.8493C3.13688 12.8493 3.68643 13.8654 4.00578 14.0942C4.97994 13.1159 5.69718 11.6991 7.27622 10.8853C6.52862 9.65104 5.52595 9.85854 5.45096 8.76023C5.93092 8.89614 6.39485 8.57774 6.40556 8.00357C5.9024 7.72624 5.724 8.27723 5.58837 8.13596C5.47601 8.01963 6.16288 7.99991 6.09869 7.28623C5.43493 7.26474 5.55622 7.74773 5.40102 7.68693C5.2761 7.64226 5.58837 7.24515 4.98712 6.89453C4.64988 7.52057 5.11195 7.71736 5.01562 7.82108C4.91399 7.93022 4.73913 7.45977 4.16452 7.65649C4.31982 8.43111 5.06379 8.1323 4.96392 8.36129C4.89256 8.52581 4.38578 8.04289 4.18595 8.63847C4.47148 9.16086 4.98535 9.03748 5.28681 8.8192C5.35109 9.82268 6.0059 9.90681 6.73916 10.6045C4.78552 9.79048 2.4107 10.7905 1.51321 10.921C1.65062 11.2305 1.92181 11.5667 2.27329 11.6884C1.72021 12.2 1.70586 12.4826 1.34375 12.8528C1.34375 12.8528 2.08242 13.6668 3.13688 12.8493ZM2.03062 12.6955C2.28578 12.3056 2.64444 11.9531 3.14042 11.54C2.81567 11.4988 2.5605 11.3914 2.24292 11.1554C2.92271 10.9747 4.35009 10.4577 5.56694 10.6902C5.96659 10.7439 6.19148 10.9067 6.04513 10.9998C5.39208 11.4344 4.58383 12.4415 3.99683 13.6167C3.48297 12.9745 3.70068 12.1338 3.80595 11.8923C2.77999 12.5112 2.51234 12.8136 2.03062 12.6955Z" fill="#1B1B1B"/>
<path fill-rule="evenodd" clip-rule="evenodd" d="M18.5195 12.1035V12.692C18.7212 12.4469 19.1137 12.4953 19.1137 12.4953V13.3449C19.1137 13.3449 19.0994 13.7635 18.9531 13.9424H19.376H19.7989C19.6507 13.7635 19.6383 13.3449 19.6383 13.3449V12.497C19.6383 12.497 20.029 12.4487 20.2307 12.6938V12.1053H19.376H18.5195V12.1035Z" fill="#1B1B1B"/>
<path d="M50.5007 21.7211V16.0377H53.8488V13.9695H44.7148V16.0377H48.0628V21.7211H50.5007ZM57.2623 13.9695H54.8244V21.7211H57.2623V13.9695ZM59.0462 13.9695V21.7211H61.2891V17.4382L65.466 21.7211H67.5463V13.9695H65.3034V18.2199L61.224 13.9695H59.0462ZM72.3378 18.7898L75.1491 21.7211H78.286L74.3693 17.6824L78.1397 13.9695H75.1821L72.3378 16.8845H71.6873V13.9695H69.331V21.7211H71.6873V18.7898H72.3378ZM83.1351 13.7578C79.9659 13.7578 78.0645 15.5491 78.0645 17.8616C78.0645 20.1741 79.9659 21.9654 83.1351 21.9654C86.2882 21.9654 88.1896 20.1741 88.1896 17.8616C88.1896 15.5491 86.2882 13.7578 83.1351 13.7578ZM83.1351 20.0764C81.5586 20.0764 80.5509 19.1318 80.5509 17.8616C80.5509 16.5914 81.5586 15.6632 83.1351 15.6632C84.6955 15.6632 85.7193 16.5914 85.7193 17.8616C85.7193 19.1318 84.6955 20.0764 83.1351 20.0764ZM97.1264 13.9695H89.3098V21.7211H91.6655V19.0178H96.786V17.3079H91.6655V15.9399H97.1264V13.9695ZM105.999 13.9695H98.1811V21.7211H100.538V19.0178H105.658V17.3079H100.538V15.9399H105.999V13.9695Z" fill="white"/>
</svg>
