<svg width="72" height="24" viewBox="0 0 72 24" fill="none" xmlns="http://www.w3.org/2000/svg">
<path d="M31.1557 23.3519H25.2913L28.9565 0.480937H34.8214L31.1557 23.3519ZM20.3579 0.480937L14.7671 16.2117L14.1056 12.8243L14.1062 12.8255L12.1329 2.5402C12.1329 2.5402 11.8943 0.480937 9.3511 0.480937H0.108454L0 0.868196C0 0.868196 2.82642 1.4653 6.13425 3.48235L11.2291 23.3525H17.3393L26.6693 0.480937H20.3579ZM66.4838 23.3519H71.8685L67.1736 0.480325H62.4595C60.2826 0.480325 59.7524 2.18475 59.7524 2.18475L51.0062 23.3519H57.1194L58.3419 19.9546H65.7969L66.4838 23.3519ZM60.0308 15.2616L63.1121 6.70278L64.8455 15.2616H60.0308ZM51.4648 5.98087L52.3017 1.06947C52.3017 1.06947 49.7193 0.0722656 47.0272 0.0722656C44.117 0.0722656 37.2062 1.36374 37.2062 7.6437C37.2062 13.5523 45.3173 13.6257 45.3173 16.7293C45.3173 19.8329 38.0418 19.2768 35.6408 17.3197L34.769 22.455C34.769 22.455 37.3875 23.7465 41.3882 23.7465C45.3902 23.7465 51.4274 21.6425 51.4274 15.9162C51.4274 9.9697 43.2434 9.41604 43.2434 6.83064C43.244 4.24463 48.9553 4.57683 51.4648 5.98087Z" fill="#2566AF"/>
<path d="M14.1062 12.825L12.1329 2.53973C12.1329 2.53973 11.8943 0.480469 9.3511 0.480469H0.108454L0 0.867728C0 0.867728 4.44237 1.80253 8.70339 5.305C12.7776 8.65268 14.1062 12.825 14.1062 12.825Z" fill="#DE701D"/>
</svg>
